<?xml version="1.0" standalone="no"?>
<!DOCTYPE svg PUBLIC "-//W3C//DTD SVG 1.1//EN" "http://www.w3.org/Graphics/SVG/1.1/DTD/svg11.dtd" >
<svg xmlns="http://www.w3.org/2000/svg" xmlns:xlink="http://www.w3.org/1999/xlink" version="1.1">
<metadata></metadata>
<defs>
<font id="cmu_sans_serifbold" horiz-adv-x="1126" >
<font-face units-per-em="2048" ascent="1638" descent="-410" />
<missing-glyph horiz-adv-x="751" />
<glyph unicode="&#xfb00;" horiz-adv-x="1314" d="M63 864q0 74 93 74h20v180q0 381 395 383h4q152 0 195 -31l6 -8l4 -10v-125q0 -51 -24 -51q-10 0 -30.5 19.5t-58.5 38t-87.5 18.5t-79 -14.5t-40.5 -44t-14.5 -50t-3.5 -55.5v-250h113q45 0 66.5 -22.5t21.5 -51.5q0 -16 -5 -30.5t-27.5 -30t-59.5 -15.5h-102v-682 q0 -27 -2.5 -40t-10.5 -31.5t-28.5 -26.5t-55.5 -8h-86q-43 0 -64.5 19.5t-23.5 35t-2 39.5v694h-24q-89 0 -89 76zM801 92v1028q0 381 399 381h2q205 0 205 -61v-123q0 -33 -23 -41h-10q-10 4 -32.5 24.5t-56.5 36t-81 15.5q-20 0 -37.5 -3t-30 -7.5t-23.5 -13.5t-17 -15 t-11.5 -20.5t-7.5 -19.5t-4 -21.5t-3 -20.5t-1 -21.5v-19.5v-252h111q45 0 67.5 -22.5t22.5 -51.5q0 -16 -5 -30.5t-28 -30t-59 -15.5h-103v-690q0 -98 -90 -98h-90q-57 0 -75.5 24.5t-18.5 67.5z" />
<glyph unicode="&#xfb01;" horiz-adv-x="1200" d="M63 864q0 74 93 74h20v178q0 178 73 281.5t257 103.5q29 0 51.5 -2t38.5 -6t27.5 -7t18.5 -9.5t11 -10.5t6.5 -11t2.5 -10v-7v-6v-115q0 -51 -25 -51q-12 0 -26.5 21.5t-37 43t-59.5 21.5q-72 0 -72 -148v-266h129q37 0 58.5 -15.5t27 -29.5t5.5 -28.5t-5.5 -29t-28 -31 t-59.5 -16.5h-120v-682q0 -27 -2.5 -40t-10.5 -31.5t-28.5 -26.5t-55.5 -8h-86q-43 0 -64.5 19.5t-23.5 35t-2 39.5v694h-24q-89 0 -89 76zM795 1296q0 2 1 10.5t1 10.5v55q0 37 4 54.5t24.5 34t63.5 18.5h88q29 0 46 -3t35.5 -26t18.5 -68v-73q0 -37 -3 -53.5t-24.5 -35 t-64.5 -20.5h-90q-29 0 -46.5 3t-35.5 26.5t-18 66.5zM799 102v744q0 25 3 40t26.5 33.5t68.5 18.5h76q45 0 68.5 -16.5t27.5 -35t4 -50.5v-744q0 -92 -90 -92h-86q-45 0 -67.5 17.5t-26.5 35.5t-4 49z" />
<glyph unicode="&#xfb02;" horiz-adv-x="1200" d="M63 864q0 74 93 74h20v178q0 178 73 281.5t257 103.5q156 0 156 -63v-127q0 -35 -25 -35q-10 0 -44 38t-79 38q-72 0 -72 -140v-274h129q37 0 58.5 -15.5t27 -29.5t5.5 -28.5t-5.5 -29t-28 -31t-59.5 -16.5h-120v-682q0 -27 -2.5 -40t-10.5 -31.5t-28.5 -26.5t-55.5 -8 h-86q-43 0 -64.5 19.5t-23.5 35t-2 39.5v694h-24q-89 0 -89 76zM799 92v1274q0 33 1 43t8 31.5t27.5 29t57.5 9.5h86q94 0 94 -93v-1286q0 -35 -4 -52t-24.5 -31.5t-63.5 -16.5h-92q-23 0 -38 3t-33.5 25.5t-18.5 63.5z" />
<glyph unicode="&#xfb03;" horiz-adv-x="1824" d="M63 864q0 74 93 74h20v178q0 383 359 385h2q182 0 182 -63v-113q0 -51 -21 -51q-14 0 -41 26q-51 51 -112 52q-102 0 -103 -146v-268h129q37 0 58.5 -15.5t27 -29.5t5.5 -28.5t-5.5 -29t-28 -31t-59.5 -16.5h-120v-682q0 -27 -2.5 -40t-10.5 -31.5t-28.5 -26.5t-55.5 -8 h-86q-43 0 -64.5 19.5t-23.5 35t-2 39.5v694h-24q-89 0 -89 76zM801 96v1020q0 82 13 144.5t48 120t103.5 89t169.5 31.5q45 0 76.5 -5t46 -10t21.5 -16.5t7 -13.5v-12v-137q-2 -37 -26 -37q-12 2 -48 53q-43 29 -71 29q-72 0 -72 -144v-270h127q37 0 58.5 -15.5t26.5 -29.5 t5 -28.5t-4 -29t-26.5 -31t-59.5 -16.5h-121v-694q2 -55 -23.5 -74.5t-68.5 -19.5h-88q-29 0 -46.5 5t-32.5 27.5t-15 63.5zM1421 1296v76q0 37 4.5 54.5t24.5 34t63 18.5h89q29 0 46 -3t35.5 -26t18.5 -68v-73q0 -29 -1 -41.5t-9.5 -30.5t-27.5 -26.5t-52 -10.5h-88 q-31 0 -48.5 3t-36 25.5t-18.5 67.5zM1425 102v744q0 25 3.5 40t27 33.5t68.5 18.5h90q86 0 86 -102v-744q0 -92 -90 -92h-88q-35 0 -55.5 8t-28.5 26.5t-10.5 30.5t-2.5 37z" />
<glyph unicode="&#xfb04;" horiz-adv-x="1824" d="M63 864q0 74 93 74h20v178q0 383 359 385h2q182 0 182 -63v-113q0 -51 -21 -51q-14 0 -41 26q-51 51 -112 52q-102 0 -103 -146v-268h129q37 0 58.5 -15.5t27 -29.5t5.5 -28.5t-5.5 -29t-28 -31t-59.5 -16.5h-120v-682q0 -31 -2.5 -46t-6.5 -21t-18 -21q-23 -18 -70 -18 h-88q-88 0 -88 94v694h-24q-89 0 -89 76zM801 100v1006q0 55 4 97t22.5 102.5t51 99.5t98 67.5t156.5 28.5q117 0 145 -33q10 -12 10 -34v-119q0 -37 -24 -39q-14 2 -47 39t-76 37q-72 0 -72 -140v-274h127q37 0 58.5 -15.5t26.5 -29.5t5 -28.5t-4 -29t-26.5 -31 t-59.5 -16.5h-121v-696q0 -92 -92 -92h-96q-86 0 -86 100zM1425 92v1274v16.5v17.5t1 15t3.5 14.5t5.5 12.5t7 12t11 8t16.5 8.5t21.5 5.5t27 3h88q94 0 94 -93v-1271q0 -2 -1 -7.5t-1 -7.5q0 -35 -4 -52t-24.5 -31.5t-63.5 -16.5h-90q-23 0 -38.5 3t-34 25.5t-18.5 63.5z " />
<glyph horiz-adv-x="0" />
<glyph unicode="&#xd;" horiz-adv-x="681" />
<glyph unicode=" "  horiz-adv-x="751" />
<glyph unicode="&#x09;" horiz-adv-x="751" />
<glyph unicode="&#xa0;" horiz-adv-x="751" />
<glyph unicode="!" horiz-adv-x="751" d="M240 94v78q0 27 4 44t26.5 34.5t65.5 17.5h88q84 0 84 -94v-78q0 -27 -2 -42t-24.5 -34.5t-67.5 -19.5h-78q-29 0 -47.5 5t-33.5 26.5t-15 62.5zM240 1421q2 45 14 52q8 6 31 6h178q45 0 45 -41l-25 -973q0 -37 -16 -57q-10 -6 -27 -7h-125q-47 0 -49 39z" />
<glyph unicode="&#x22;" d="M233 1425v29q8 25 46 25h186q45 0 45 -35q0 -2 -1 -10.5t-1 -10.5l-59 -598q-4 -35 -15 -45q-12 -6 -31 -6h-65q-20 0 -30.5 11.5t-11.5 19.5t-3 29zM612 1454q8 25 45 25h187q45 0 45 -35v-21l-62 -598q-4 -35 -14 -45q-12 -6 -31 -6h-63q-20 0 -31.5 11.5t-12.5 19.5 t-3 31l-58 589z" />
<glyph unicode="#" horiz-adv-x="1875" d="M123 748q0 27 16.5 45t30.5 22q16 6 53 6h477l156 576l2 8q2 8 4 13t6 14.5t10.5 16.5t14.5 14t19.5 10.5t23.5 3.5q33 0 52.5 -20.5t21.5 -47.5q0 -10 -11 -51l-145 -537h334l158 576l2 8q2 8 4 13t6 14.5t10 16.5t13.5 13t18.5 10.5t23 4.5q33 0 52.5 -20.5t21.5 -47.5 q0 -18 -8 -51l-146 -537h297q31 0 46 -2q27 -4 45 -23.5t18 -47.5q0 -16 -5 -31t-27.5 -30t-59.5 -15h-357l-86 -320h437q35 0 51 -6q47 -16 47 -70q0 -74 -92 -73h-486l-155 -576q-16 -80 -80 -80q-31 0 -51.5 20.5t-22.5 47.5q0 10 10 51l146 537h-334l-158 -576 q-16 -80 -77 -80q-31 0 -51.5 20.5t-22.5 47.5q0 18 8 51l147 537h-299q-31 0 -45 2q-61 12 -61 71q0 14 4 28.5t26.5 31t59.5 16.5h356l86 320h-436q-35 0 -51 6q-47 17 -47 70zM725 352h336l86 320h-334z" />
<glyph unicode="$" d="M100 158q0 6 25 141q8 49 29 49q12 0 49 -31.5t111.5 -72.5t172.5 -56v449q-180 37 -272 162t-92 274q0 182 93 298t282 128q23 35 63.5 35t63.5 -35q100 -8 158.5 -30.5t138.5 -71.5q2 -2 10 -7.5t10 -6.5t7 -5t6 -7t2 -8t1 -11q0 -14 -22 -138q-8 -45 -27 -45 q-14 0 -43.5 24t-89 54.5t-141.5 44.5v-391q166 -35 265 -164t99 -305q0 -416 -372 -452q-23 -35 -66 -35q-41 0 -63 35q-119 10 -258.5 70.5t-139.5 107.5zM360 1116q0 -43 12.5 -74.5t41 -55t37 -28t36.5 -20.5v350h-2q-96 -29 -116 -110q-9 -29 -9 -62zM635 193 q127 39 127 198q0 147 -125 207l-2 -63v-342z" />
<glyph unicode="%" horiz-adv-x="2107" d="M123 1137q0 399 373 399q74 0 135 -18.5t115.5 -60.5t85 -123t30.5 -195q0 -399 -368 -400q-160 0 -265.5 90.5t-105.5 307.5zM369 1108q2 -51 4 -76.5t13 -65.5t38 -58.5t72 -18.5q80 0 114 96q18 55 19 154q0 248 -135 247q-43 0 -70 -19t-38 -55t-14 -65.5t-3 -75.5 v-16v-47zM412 28.5q0 32.5 30 71.5l1086 1383q39 51 84 51q41 0 62.5 -27.5t21.5 -56.5t-27 -66l-1071 -1366q-39 -49 -54.5 -60t-49.5 -13q-35 2 -58.5 26.5t-23.5 57zM1239 340q0 399 373 399q365 0 366 -397q0 -399 -368 -399q-160 0 -265.5 90t-105.5 307zM1485 311 q2 -51 4 -76.5t13 -65.5t38 -58.5t72 -18.5q80 0 114 96q18 55 19 154q0 248 -135 248q-43 0 -70 -19.5t-38 -55.5t-14 -65.5t-3 -74.5v-17v-47z" />
<glyph unicode="&#x26;" horiz-adv-x="1699" d="M92 311q0 176 187 305q6 4 8 7l123 90q-90 207 -91 407q0 180 115 292t266 112q147 0 245.5 -103.5t98.5 -238.5q0 -193 -368 -455q92 -168 295 -383q115 113 172 197q88 135 149 329q8 25 29 25q14 0 135 -33q41 -12 41 -35q0 -18 -27.5 -98t-105.5 -219t-182 -248 l-49 -51q100 -51 186 -51q74 0 149.5 22.5t77.5 22.5q27 0 27 -41v-129q0 -8 -1 -15.5t-4 -12.5t-4 -8t-7.5 -6t-8.5 -3t-10 -3t-10 -3q-106 -29 -213 -29q-199 0 -373 117q-172 -84 -293 -105q-70 -12 -141 -12q-190 0 -303 107.5t-113 248.5zM373 369q0 -76 31.5 -142.5 t105.5 -66.5q125 0 254 53q-199 211 -285 365h-2q-33 -25 -48 -39.5t-35.5 -60.5t-20.5 -109zM553 1167q0 -129 57 -301q201 145 201 314q0 66 -27.5 130t-85.5 64q-49 0 -97 -50.5t-48 -156.5z" />
<glyph unicode="'" horiz-adv-x="624" d="M172 1425v29q8 25 45 25h186q45 0 46 -35q0 -2 -1.5 -10.5t-1.5 -10.5l-59 -598q-4 -35 -14 -45q-12 -6 -31 -6h-66q-20 0 -30 11.5t-11.5 19.5t-3.5 29z" />
<glyph unicode="(" horiz-adv-x="876" d="M174 510q0 635 397 987q8 8 11 10q33 29 59 29h61q43 0 43 -27q0 -10 -29.5 -47t-72.5 -106.5t-86 -172t-72.5 -279.5t-29.5 -394t29.5 -393t72.5 -277.5t86 -170t72.5 -105.5t29.5 -51q0 -25 -36 -25h-62q-29 0 -44 10t-73 64q-168 160 -262 405.5t-94 542.5z" />
<glyph unicode=")" horiz-adv-x="876" d="M127 -485q0 12 29.5 48t72.5 105.5t86 172t73 279.5t30 396q0 207 -25.5 374t-74 279.5t-82 170t-82.5 122.5q-29 35 -27 54q6 20 37 20h63q25 0 39.5 -9t71.5 -63q51 -47 100 -111.5t113.5 -180t104.5 -287.5t40 -373q0 -307 -95 -550t-261 -400q-61 -57 -73.5 -64.5 t-43.5 -9.5h-53q-43 0 -43 27z" />
<glyph unicode="*" d="M137 895q0 14 2 25.5t8.5 21.5t12.5 17.5t20.5 16.5t26.5 14t36.5 15.5t43 17.5t55.5 20.5t66 23.5q-182 59 -226.5 88t-44.5 82q0 47 34 86t83 39q8 0 16.5 -2t15.5 -4t17 -9.5t20.5 -14.5t28 -21.5t32.5 -27.5t44 -37.5t55 -45.5q-37 209 -37 234q0 45 35 72.5t80 27.5 t80 -27.5t35 -72.5q0 -12 -39 -234q25 20 54.5 46t46 39t35 28.5t29.5 22.5t23.5 14.5t21.5 9.5t19 2q47 0 82 -38t35 -87q0 -51 -35 -75.5t-160 -69.5q-47 -16 -73 -27q182 -59 225 -88t43 -82q0 -47 -34 -86t-83 -39h-12t-11 3t-12.5 5t-16.5 10.5t-19.5 14.5t-25.5 20.5 t-32.5 27.5t-44 36.5t-55.5 46.5q39 -223 39 -240q0 -41 -35 -68.5t-80 -27.5t-80 27.5t-35 72.5q0 27 37 236q-33 -27 -65.5 -54.5t-49 -42t-35 -28.5t-26.5 -20.5t-18 -11.5t-17.5 -6t-17.5 -1q-47 0 -82 39t-35 86z" />
<glyph unicode="+" horiz-adv-x="1751" d="M123 512q0 74 94 74h582v594q0 41 23.5 61.5t49.5 20.5q76 0 76 -93v-583h576q98 0 98 -74t-96 -74h-578v-592q0 -37 -21.5 -60.5t-54.5 -23.5q-74 0 -73 93v583h-590q-39 0 -62.5 20.5t-23.5 53.5z" />
<glyph unicode="," horiz-adv-x="624" d="M176 45v156q0 41 7 54t36 13h180q29 0 37 -9t8 -36v-176q0 -27 -13 -51.5t-103 -167.5q-10 -16 -14.5 -21.5t-12.5 -12.5t-16.5 -8t-22.5 -1h-41q-41 0 -41 27q0 10 66 188h-25q-23 0 -34 8t-11 37z" />
<glyph unicode="-" horiz-adv-x="751" d="M25 469q0 74 92 74h415q90 0 91 -74q0 -14 -4.5 -28.5t-27 -30t-59.5 -15.5h-417q-53 0 -71.5 24.5t-18.5 49.5z" />
<glyph unicode="." horiz-adv-x="624" d="M176 47v164q2 20 2 25.5t4 16.5t13.5 13t25.5 2h178q29 0 37 -10t8 -33v-168v-24t-4 -16.5t-13 -13.5t-26 -3h-178q-47 0 -47 47z" />
<glyph unicode="/" d="M125 -436q0 4 18 65l693 1809q0 2 4 12l6 15t6 15.5t8 16.5t11.5 14.5t14.5 12.5t17 7t21 3q29 0 51 -20.5t22 -51.5q0 -18 -14 -57l-709 -1847q-27 -68 -75 -68q-29 0 -51.5 20.5t-22.5 53.5z" />
<glyph unicode="0" d="M86 664v69q0 459 154 615q119 121 321 120q129 0 221 -50t139.5 -119.5t75 -177t32.5 -185.5t5 -184v-13q0 -10 1 -37.5t1 -46.5q0 -115 -8 -204t-37.5 -187t-80 -161.5t-139.5 -105.5t-212 -42q-217 0 -330 127q-143 158 -143 582zM367 717q0 -387 36 -486 q16 -45 56.5 -87t102 -42t100 41t55.5 86q39 104 39 484v14q0 231 -8.5 332.5t-34.5 157.5q-51 102 -152 102q-74 0 -121 -55q-51 -55 -62 -160.5t-11 -386.5z" />
<glyph unicode="1" d="M158 1251q0 45 36.5 61.5t89 15.5t128 21.5t135.5 75.5q35 31 48 37t50 6q84 0 84 -90v-1228h150q88 0 88 -76q0 -74 -88 -74h-603q-37 0 -58 15.5t-25.5 29.5t-4.5 28.5t4.5 29t27 31t59.5 16.5h172v1056q-131 -27 -201 -28q-92 -1 -92 73z" />
<glyph unicode="2" d="M94 1163q0 8 11.5 37t42 76t75.5 89t125 72.5t178 30.5q215 0 349.5 -137t134.5 -336q0 -57 -17.5 -111.5t-37 -92t-73 -96t-87 -89.5t-120.5 -108.5t-132 -120.5l-168 -160h69l426 4h48q92 0 92 -92v-37q0 -92 -92 -92h-713q-33 0 -53.5 8t-28.5 26.5t-9 27t-3 28.5v33 q0 27 18 49q12 14 279 299q10 10 48 50t51 54.5t47 52.5t47 57.5t39 54t36 60t24.5 59.5t19.5 66.5t5 67.5q0 111 -59.5 190t-169.5 79q-78 0 -130.5 -41t-72 -91.5t-35.5 -91.5t-29 -41q-8 0 -17 7.5t-16.5 15.5t-17.5 22.5t-14 18.5q-12 14 -26.5 32.5t-20.5 25.5 t-12.5 17.5t-8.5 15.5t-2 11z" />
<glyph unicode="3" d="M94 150l21 120q4 23 16 33l10 2q12 0 60.5 -40t135.5 -77.5t195 -37.5q57 0 98.5 18t62 43t31.5 65.5t13 67.5t2 68v14q0 143 -49 205.5t-180 62.5h-86q-31 0 -41 8.5t-10 45.5v55q0 10 2 16t7 11.5t10 7.5t17.5 4t22.5 3t30.5 2t39.5 3q84 8 134 84t50 182 q0 86 -31.5 127t-119.5 41q-70 0 -129.5 -26.5t-90 -58.5t-55 -58.5t-33.5 -26.5q-16 0 -59 60.5t-43 76.5q0 18 44 66.5t147.5 99.5t228.5 51q106 0 187 -25.5t124 -62.5t69.5 -88t34 -92t7.5 -86q0 -211 -219 -342q283 -80 282 -358q0 -240 -134 -350.5t-351 -110.5 q-221 0 -395 129q-4 4 -13.5 11t-13.5 10t-10.5 8.5t-8.5 9.5t-5 9t-4 9.5t-1 10.5z" />
<glyph unicode="4" d="M61 401v66q0 41 25 86l438 807q16 29 39 49q25 12 58 12h163q90 0 90 -94v-819h93q27 0 43 -3t33.5 -25.5t17.5 -65.5q0 -10 -2 -27.5t-26.5 -45.5t-67.5 -28h-91v-223q0 -90 -94 -90h-67q-88 0 -88 90v223h-463q-27 0 -44.5 3t-37 23.5t-19.5 61.5zM274 508h361v704 q-29 -83 -361 -704z" />
<glyph unicode="5" d="M76 193q0 12 76 131q18 27 30.5 26.5t40.5 -47.5q12 -20 31.5 -41.5t52.5 -49.5t83 -45t108 -17q76 0 124 23.5t67.5 69.5t25.5 88t6 105v27q0 74 -3 113.5t-15.5 94t-44 79t-83.5 24.5q-123 0 -196 -110q-29 -41 -45.5 -50.5t-61.5 -9.5q-43 0 -57 6t-33 27 q-14 23 -14 74v604q0 31 2 48t23.5 37.5t64.5 20.5h588q90 0 90 -100q0 -49 -16.5 -73.5t-34 -27.5t-54.5 -3h-401v-320q80 27 156 27q84 0 154.5 -21.5t135 -72t100.5 -146.5t36 -231q0 -143 -43 -245t-119 -155t-160 -75.5t-186 -22.5q-80 0 -151.5 21.5t-121 52t-85 65.5 t-53 62t-17.5 37z" />
<glyph unicode="6" d="M92 688q0 203 37 361.5t145 267.5q152 152 406 151q68 0 128 -18t73 -39q6 -10 6 -35v-94q0 -23 -10 -35l-9 -6l-10 -2q-10 2 -32.5 14.5t-56.5 21.5t-79 9q-268 0 -305 -328q-6 -49 -6 -100q100 127 260 127q205 0 311 -156q80 -117 80 -327q0 -152 -24.5 -245 t-102.5 -177q-115 -123 -336 -123q-98 0 -175 30.5t-126 75.5t-84 117t-52 130.5t-26.5 142.5t-10.5 127.5t-1 109.5zM379 514q0 -74 6 -127t23.5 -112.5t58.5 -92t104 -32.5q31 0 55.5 5t42 19t31 25.5t21.5 38t13 39t7 49t3 48t1 53.5v50v64q-2 53 -3 73.5t-6 64.5 t-15 63.5t-27.5 45t-47.5 36t-68 10.5q-106 0 -152.5 -97.5t-46.5 -222.5z" />
<glyph unicode="7" d="M92 1294v39q0 90 92 90h156l453 -2h145q92 0 92 -94q-2 -57 -10 -74q-2 -2 -62 -77q-115 -150 -195.5 -317t-114.5 -305t-50 -245.5t-19.5 -187.5t-3.5 -84q-14 -59 -86 -60h-102q-94 0 -94 89q6 649 440 1138l-94 -2h-315l-117 -2h-25q-90 0 -90 94z" />
<glyph unicode="8" d="M92 416q0 268 244 348q8 4 10 4q-223 66 -223 299q0 217 117.5 308t287.5 91q43 0 71 -1t82 -8t91 -21.5t83 -43t74.5 -69.5t48 -105.5t19.5 -146.5q0 -229 -215 -301q-6 -2 -8 -2q256 -72 256 -350q0 -463 -469 -463t-469 461zM373 387q2 -121 36.5 -179t149.5 -58 q55 0 93 16t56.5 34.5t27.5 60.5t11.5 64.5t2.5 75.5v48q0 117 -37 180t-152 63q-55 0 -93 -18.5t-56.5 -38t-27.5 -65.5t-10 -62t-1 -70v-51zM385 1047q0 -100 34 -152.5t140 -52.5q61 0 99 16t53.5 50t19.5 62.5t4 78.5v36q0 109 -35.5 154t-138.5 45q-61 0 -98 -13.5 t-53.5 -46t-20.5 -60t-4 -81.5v-36z" />
<glyph unicode="9" d="M92 934q0 152 29 247t115 177q115 111 329 110q262 0 375 -219q41 -78 61.5 -178t24.5 -173t4 -185q0 -465 -211 -641q-139 -117 -352 -117q-158 0 -283 92q-18 16 -18 33q0 14 59 117q20 31 35 30q6 0 66.5 -38.5t138.5 -38.5q90 0 150.5 41.5t84 112.5t32.5 126t11 119 v16q-111 -127 -256 -127q-219 0 -325 172q-70 113 -70 324zM377 936q0 -154 8 -208t47 -103q47 -37 113 -37q106 0 152 99t46 231q0 367 -178 366q-53 0 -90 -17.5t-56.5 -41t-28.5 -70.5t-11 -82t-2 -98v-39z" />
<glyph unicode=":" horiz-adv-x="624" d="M176 47v164q2 20 2 25.5t4 16.5t13.5 13t25.5 2h178q29 0 37 -10t8 -33v-168v-24t-4 -16.5t-13 -13.5t-26 -3h-178q-47 0 -47 47zM176 741v140q2 45 14 51q8 6 31 6h178q29 0 37 -11.5t8 -33.5v-166v-24.5t-4 -16.5t-13 -13t-26 -3h-174q-39 0 -45 11t-6 60z" />
<glyph unicode=";" horiz-adv-x="624" d="M176 45v156q0 41 7 54t36 13h180q29 0 37 -9t8 -36v-176q0 -27 -13 -51.5t-103 -167.5q-10 -16 -14.5 -21.5t-12.5 -12.5t-16.5 -8t-22.5 -1h-41q-41 0 -41 27q0 10 66 188h-25q-23 0 -34 8t-11 37zM176 741v140q2 45 14 51q8 6 31 6h178q29 0 37 -11.5t8 -33.5v-166 v-24.5t-4 -16.5t-13 -13t-26 -3h-174q-39 0 -45 11t-6 60z" />
<glyph unicode="&#x3c;" horiz-adv-x="1751" d="M186 510q4 29 16.5 45t59.5 41l1172 618q33 16 53 17q31 0 52.5 -22.5t21.5 -51.5q0 -10 -2.5 -19.5t-8.5 -16.5t-10 -13t-13 -12t-13.5 -8.5t-13.5 -8.5t-11 -6l-1069 -561l1067 -561q2 0 12 -5t15.5 -9.5t15.5 -11.5t16 -15t10.5 -19.5t4.5 -23.5q0 -29 -22.5 -51.5 t-51.5 -22.5q-20 0 -53 17l-1170 616q-47 25 -60.5 39t-17.5 45z" />
<glyph unicode="=" horiz-adv-x="1751" d="M125 276q0 76 90 76h1317q90 0 90 -76q0 -14 -4 -28.5t-26.5 -29.5t-59.5 -15h-1317q-90 -1 -90 73zM125 745q0 14 4 28.5t26.5 31t59.5 16.5h1317q53 0 71.5 -24.5t18.5 -48.5q0 -76 -94 -76h-1311q-92 -1 -92 73z" />
<glyph unicode="&#x3e;" horiz-adv-x="1751" d="M186 1157q0 29 21.5 51.5t52.5 22.5h2q18 0 51 -17l1170 -616q47 -25 60 -39t18 -45q-4 -31 -15.5 -46t-58.5 -40l-1174 -618q-33 -16 -53 -17q-31 0 -51.5 22.5t-20.5 51.5q0 10 2.5 19.5t8.5 16.5t10 13t13 12t13.5 8.5t13.5 8.5t11 6l1067 561l-1067 561q-2 0 -12 5 t-15.5 9.5t-15.5 11.5t-16 15t-10.5 19.5t-4.5 23.5z" />
<glyph unicode="?" horiz-adv-x="1062" d="M125 1368l4 10q31 39 137.5 81t239.5 42q199 0 314.5 -70.5t115.5 -250.5q0 -145 -84 -230l-25 -20q-27 -20 -35 -27.5t-33.5 -31t-37.5 -41t-33.5 -46t-33 -55.5t-25 -61.5t-18.5 -73.5t-5 -82v-51q0 -35 -9 -47.5t-36 -12.5h-94q-61 2 -68 11q-8 10 -8 53v41 q0 264 199 502q4 4 15 17t14.5 16t11.5 15.5t10 18.5t6 18.5t6 24.5t3 28.5t1 37.5q0 94 -29.5 131t-123.5 37q-70 0 -128.5 -23.5t-88 -52.5t-53 -52.5t-33.5 -23.5q-20 0 -48 77t-28 91zM362 94q0 4 1.5 10.5t1.5 10.5v57q0 29 3 45t25.5 33.5t65.5 17.5h90q84 0 84 -94 v-78q0 -18 -2 -30.5t-10.5 -30t-29 -26.5t-54.5 -9h-76q-29 0 -47.5 5t-35 26.5t-16.5 62.5z" />
<glyph unicode="@" horiz-adv-x="1501" d="M123 729q0 424 225 614q184 158 518 158q262 0 381 -149q127 -162 127 -545v-43q0 -70 -5 -124t-29.5 -132t-68.5 -129t-130 -89t-205 -38q-88 0 -161 22.5t-137.5 73.5t-101 150.5t-36.5 238.5q0 489 438 490q66 0 137 -17q-59 143 -213 144q-68 0 -128 -12.5 t-129.5 -50.5t-120 -101.5t-83 -177t-32.5 -264.5q0 -63 2 -97q4 -76 17 -143.5t49 -140t89.5 -123.5t142.5 -84t203 -33q90 0 161 18.5t120 41t72 26.5h108q37 0 37 -23q0 -16 -27 -40q-201 -172 -479 -173q-115 0 -216 19.5t-199.5 72t-169 135.5t-113.5 217t-43 308z M745 721q0 -319 191 -320q193 0 192 357q-8 319 -190 319q-193 0 -193 -334v-22z" />
<glyph unicode="A" horiz-adv-x="1501" d="M86 55q0 14 8 39l434 1233q16 47 43 70.5t86 23.5h185q37 0 61.5 -8t41 -33.5t20.5 -35t16 -46.5l424 -1208q8 -25 8 -35q0 -55 -76 -55h-108q-18 0 -32.5 1t-28 8t-21.5 12.5t-18.5 22.5t-16.5 28.5t-17.5 41t-18.5 51t-22.5 65.5t-27.5 79h-584q-14 -37 -29.5 -85 t-23.5 -70.5t-19.5 -52t-19.5 -42t-19.5 -28t-23.5 -19.5t-28.5 -8t-38.5 -4h-76q-78 0 -78 55zM504 485h461q-209 598 -230 680q-20 -74 -231 -680z" />
<glyph unicode="B" horiz-adv-x="1501" d="M186 94v1233q0 29 5.5 46.5t28 32.5t63.5 15h436q102 0 165.5 -4t163 -31.5t158.5 -82.5q106 -98 107 -250q0 -39 -8.5 -75t-24.5 -62.5t-33.5 -49t-44 -40t-46 -30t-47.5 -22.5t-41 -14t-36 -10l-22 -7q166 -20 265 -109t99 -241q0 -229 -196 -330q-125 -63 -394 -63 h-501q-55 0 -76 23.5t-21 70.5zM467 176h276q231 0 312 92q47 55 47 135q0 45 -13.5 84t-46 80t-101.5 66.5t-167 30.5h-307v-488zM467 813h192q125 0 193 14.5t133 67.5q59 72 59 152q0 119 -124 167q-82 31 -238 31h-215v-432z" />
<glyph unicode="C" horiz-adv-x="1439" d="M123 710.5q0 757.5 756 757.5q166 0 364 -59q35 -12 47 -25q6 -12 6 -20t-30 -176q-12 -59 -31 -60q-10 0 -40 20.5t-65.5 46.5t-104.5 46.5t-148 20.5q-463 0 -463 -549q0 -121 21.5 -215.5t71.5 -173t145.5 -121.5t232.5 -43q100 0 177 20.5t110.5 45t62.5 45t47 20.5 q4 0 7 -1t6 -4t4 -6.5t3.5 -9.5t3.5 -11t2 -13t2 -14.5t2 -17.5t1 -17q2 -25 4 -44.5t3 -26.5t1 -12v-10q0 -10 -2 -16t-9 -13l-9.5 -9.5t-14.5 -8.5l-14 -8q-100 -57 -183 -76.5t-215 -19.5q-751 0 -751 757.5z" />
<glyph unicode="D" horiz-adv-x="1626" d="M186 92v1231q0 98 86 98h492q121 0 216 -14t196.5 -59t169 -122t110.5 -211t43 -317q0 -190 -53 -327.5t-126 -207t-182.5 -109.5t-183 -47t-168.5 -7h-505q-45 0 -70 18.5t-25 73.5zM471 176h227q100 0 166 7t147 46t130 111q70 106 73 317v23q0 98 -5 159.5 t-28.5 144.5t-68.5 132t-132 87t-210 42h-297l-2 -59v-1010z" />
<glyph unicode="E" horiz-adv-x="1314" d="M186 96v1223q0 55 23.5 75.5t71.5 20.5h815q41 0 62.5 -16.5t25.5 -32.5t4 -43v-33q0 -90 -86 -90q-27 0 -70 1t-194.5 3t-360.5 4v-379h543q25 0 39 -2t31.5 -10t26.5 -29.5t9 -56.5q0 -96 -92 -96h-557v-416l656 8q86 -2 86 -94v-43q0 -90 -93 -90h-845 q-43 0 -65.5 18.5t-26 34.5t-3.5 43z" />
<glyph unicode="F" horiz-adv-x="1251" d="M186 94v1235q0 86 93 86h784q55 0 73.5 -23.5t18.5 -68.5v-31q0 -92 -92 -92q-6 0 -110.5 2t-248 4t-227.5 2v-403h494q90 0 90 -94q0 -45 -16.5 -69t-33 -28t-44.5 -4h-490v-520q0 -90 -90 -90h-106q-57 0 -76 25.5t-19 68.5z" />
<glyph unicode="G" horiz-adv-x="1501" d="M123 713q0 755 747 755h2q223 0 408 -86q47 -20 47 -43q0 -12 -29 -178q-10 -47 -24 -59l-10 -2q-14 4 -46 30.5t-68 55t-110.5 52.5t-167.5 24q-115 0 -200.5 -35t-134 -87.5t-77 -130t-37.5 -148t-9 -156.5q0 -545 463 -545q66 0 192 22v285h-151q-23 0 -33.5 8 t-12.5 37v102q0 23 7.5 33t16.5 12.5t28 2.5h385q23 -2 32 -10.5t9 -33.5v-518q0 -35 -31 -51q-209 -94 -451 -94q-121 0 -223 20.5t-201.5 72.5t-168 135t-110.5 218.5t-42 311.5z" />
<glyph unicode="H" horiz-adv-x="1626" d="M186 81v30v1214q0 96 97 96h104q90 0 90 -92v-493h670v495q0 90 90 90h106q33 0 54.5 -9t29 -28.5t9.5 -30t2 -28.5v-1214v-7q0 -23 -2 -36t-9.5 -31.5t-27 -27.5t-51.5 -9h-105q-96 0 -96 90v551h-670v-551q0 -90 -94 -90h-104q-29 0 -47.5 9t-27.5 16.5t-13.5 29 t-4.5 26.5z" />
<glyph unicode="I" horiz-adv-x="665" d="M186 94v1231q0 96 86 96h111q94 0 94 -92v-1231q0 -39 -6 -53q-4 -10 -12 -19.5t-14.5 -13.5t-16.5 -7t-15 -3t-15.5 -1t-12.5 -1h-104q-45 0 -70 19.5t-25 74.5z" />
<glyph unicode="J" horiz-adv-x="1062" d="M96 74q0 45 31 188q8 23 23 23q12 0 31.5 -19.5l43 -43t70.5 -43t106 -19.5q188 0 189 155v1012q0 14 2 25.5t5 20.5t8 16.5t9 11.5t11.5 8t11.5 6t13 3t12.5 1t13.5 2h8h94q55 0 75.5 -22.5t20.5 -73.5v-1010q0 -102 -35.5 -177t-96 -112.5t-125 -54t-136.5 -16.5 q-111 0 -229.5 31.5t-151.5 64.5q-4 9 -4 23z" />
<glyph unicode="K" horiz-adv-x="1564" d="M186 100v1223q0 98 93 98h71q90 0 92 -86v-583l680 637q40 32 101 32h4h137q59 0 59 -41q0 -8 -2 -15t-9 -15.5t-11 -12.5t-16.5 -15t-14.5 -13l-512 -482v-2l555 -731q20 -29 23 -43q-4 -51 -68 -51h-121q-43 0 -62.5 12.5t-45.5 44.5l-457 605l-240 -224v-342 q0 -27 -2 -42t-24.5 -34.5t-65.5 -19.5h-74q-33 0 -53 10t-27.5 30.5t-8.5 30t-1 29.5z" />
<glyph unicode="L" horiz-adv-x="1187" d="M186 96v1229q0 49 20.5 72.5t74.5 23.5h106q90 0 90 -88v-1126q78 0 206 3t222 5t99 2q90 0 90 -94v-23q0 -29 -4.5 -48t-27 -35.5t-65.5 -16.5h-716q-29 0 -46.5 5t-33 27.5t-15.5 63.5z" />
<glyph unicode="M" horiz-adv-x="2002" d="M186 113v1218q0 90 93 90h167q84 0 121 -57q16 -27 209 -501t219 -560q20 74 404 1012q16 37 25.5 53t39 34.5t76.5 18.5h182q92 0 93 -94v-1229q0 -47 -18.5 -72.5t-76.5 -25.5h-65q-35 0 -55.5 9t-27.5 29.5t-8 32t-1 35.5v1002q0 10 -1 28.5t-1 28.5 q-20 -94 -400 -1011q-29 -70 -59.5 -89.5t-83.5 -19.5h-41q-27 0 -45.5 3t-34.5 14.5t-25.5 19.5t-22.5 36.5t-21.5 47t-27 67t-32.5 80.5l-213 527q-102 268 -117 325v-1071q0 -94 -92 -94h-67q-35 0 -55.5 9t-28 29.5t-8.5 33t-1 41.5z" />
<glyph unicode="N" horiz-adv-x="1626" d="M186 94v1235q0 92 95 92h188q66 0 96.5 -24.5t59.5 -79.5l561 -1075v1085q0 27 3 43t25.5 33.5t65.5 17.5h68q90 0 90 -92v-1237q0 -92 -95 -92h-186q-66 0 -97.5 25.5t-60.5 78.5l-561 1076v-1086q0 -94 -94 -94h-68q-90 0 -90 94z" />
<glyph unicode="O" horiz-adv-x="1626" d="M123 702q0 766 686 766q690 0 690 -766q0 -747 -684 -747h-2h-2q-688 0 -688 747zM414 707q0 -51 1 -88t9 -102.5t22.5 -114t44 -104.5t70.5 -92t105.5 -60.5t146.5 -24.5q162 0 262 100q47 47 76 112.5t40 146.5t14 134.5t3 135.5v14q0 49 -1 84t-9 97.5t-22.5 105.5 t-44 95t-70.5 85t-105.5 55.5t-144.5 22.5q-166 0 -268 -99q-59 -57 -90 -153t-35 -161t-4 -173v-16z" />
<glyph unicode="P" horiz-adv-x="1439" d="M186 94v1223q0 31 3.5 48t26 36.5t65.5 19.5h426q86 0 132 -2t121.5 -12t133 -39t104.5 -74q115 -113 115 -313q0 -88 -23.5 -158.5t-56.5 -115.5t-88 -77t-100.5 -47.5t-112 -23.5t-102 -9t-93.5 -1h-260v-455q0 -94 -92 -94h-104q-27 0 -44.5 4t-34 26.5t-16.5 63.5z M471 711h274q82 0 140.5 19.5t88.5 44t45 68.5t17 71.5t2 74.5q-2 84 -25.5 138.5t-71.5 78t-97 31.5t-125 8h-246l-2 -76v-458z" />
<glyph unicode="Q" horiz-adv-x="1626" d="M123 700q0 768 696 768q96 0 181 -15t175.5 -61t157 -120t111.5 -200t53 -292l2 -92v-25.5t-1 -44t-4 -57.5t-8 -68.5t-16.5 -74.5t-24.5 -80t-33.5 -79t-47.5 -75.5t-62.5 -68.5t-76.5 -60q33 -43 62.5 -83t46 -58t29.5 -34.5t17 -27t4 -20.5q0 -47 -63 -47h-164h-22.5 t-18.5 4t-16 6t-15.5 11.5t-14.5 15.5t-18.5 23.5t-21.5 30.5t-27.5 40t-33.5 49q-96 -10 -158 -10q-688 0 -688 745zM408 692q0 -373 151 -497q92 -80 250 -80q35 0 53 2l-125 180l-22 35l-6 18q10 31 25.5 39t47.5 8h129q33 0 51.5 -15t86.5 -103q27 -35 43 -56 q123 137 122 447v26q0 78 -3 132.5t-17 140.5t-52 154.5t-95 111.5q-100 74 -236 74q-154 0 -258 -92q-51 -45 -83 -111t-44 -145.5t-15 -131t-3 -127.5v-10z" />
<glyph unicode="R" horiz-adv-x="1439" d="M186 96v1231q0 94 95 94h497q274 -4 406 -110q129 -104 129 -293q0 -281 -318 -361q-6 -2 -10 -2l336 -567q12 -25 14 -39q-6 -49 -69 -49h-117q-43 0 -61.5 11.5t-36.5 45.5q-315 545 -334 580h-246v-547q0 -16 -2 -26.5t-9 -28t-29.5 -26.5t-55.5 -9h-99q-90 0 -90 96z M471 784h258q156 0 232.5 45t76.5 184.5t-75.5 185.5t-231.5 46h-258l-2 -69v-392z" />
<glyph unicode="S" horiz-adv-x="1251" d="M100 129q0 16 29 172q10 61 33 61q12 0 49 -28.5t82 -64.5t137 -64.5t203 -28.5q233 0 233 201q0 121 -123 178q-23 10 -45 16.5t-87.5 20.5t-137.5 33q-131 33 -240.5 140t-109.5 277q0 74 17.5 137.5t65.5 134t155.5 112.5t265.5 42q104 0 205.5 -25.5t154.5 -51 t57 -39.5q2 -4 3 -15q0 -33 -37 -215q-8 -23 -21 -22q-16 0 -42.5 24.5t-58.5 53t-107.5 53t-176.5 24.5q-125 0 -174 -52t-49 -122q0 -53 25.5 -90t74.5 -58.5t96.5 -33.5t113 -25.5t100.5 -25.5q135 -43 234 -158t99 -282q0 -90 -22.5 -166t-75.5 -143.5t-155.5 -105.5 t-245.5 -38q-123 0 -248 32.5t-194.5 68.5t-78.5 55q-4 16 -4 18z" />
<glyph unicode="T" horiz-adv-x="1501" d="M80 1294v17q0 55 22.5 76.5t77.5 21.5h1139q59 0 79.5 -22.5t20.5 -75.5v-17q0 -47 -17.5 -69.5t-35.5 -25.5t-55 -3q-45 0 -207 3t-207 3v-1104q0 -55 -20.5 -76.5t-77.5 -21.5h-97q-57 0 -77.5 21.5t-20.5 76.5v1104q-326 -6 -416 -6q-29 0 -42 2t-31.5 10.5 t-26.5 29.5t-8 56z" />
<glyph unicode="U" horiz-adv-x="1564" d="M186 492v827q0 31 3.5 48t26 35.5t65.5 18.5h102q27 0 43 -4t33.5 -26.5t17.5 -65.5v-829q0 -82 8.5 -135.5t34 -107.5t80.5 -84t141 -36l52 -2q86 2 145 24.5t90 54.5t48.5 86t20.5 95t3 107v831q0 43 19.5 64.5t35.5 24.5t43 3h90q86 0 86 -94v-829q0 -260 -138 -400.5 t-452 -142.5q-598 0 -598 537z" />
<glyph unicode="V" horiz-adv-x="1501" d="M55 1366q0 55 72 55h113q14 0 27.5 -2t23.5 -4t19 -9t15.5 -10t13.5 -13.5t10 -13.5t9.5 -17.5t7.5 -16.5t7 -18.5t6 -18.5l383 -1042q20 76 379 1038q14 41 21 56.5t23.5 36t40 27.5t60.5 7h86q70 0 70 -55q0 -12 -8 -37l-451 -1210q-12 -33 -18.5 -47.5t-21.5 -35 t-38.5 -28.5t-60.5 -8h-187q-23 0 -42 3t-32.5 12.5t-21.5 13.5t-17 21.5t-12.5 21.5t-11.5 26.5t-8 24.5l-449 1206q-8 25 -8 37z" />
<glyph unicode="W" horiz-adv-x="2127" d="M49 1362q0 59 78 59h68q96 0 116 -80l215 -809q37 -139 68 -276q8 49 69.5 288.5t133 504t73.5 274.5q6 20 10.5 32.5t17.5 31t35.5 26.5t57.5 8h142q37 0 61.5 -8t37.5 -29.5t18 -34t14 -44.5l194 -727q57 -213 82 -322l285 1073q14 49 40.5 70.5t78.5 21.5h51 q78 0 78 -61q0 -8 -7 -37l-321 -1196q-20 -80 -45 -102q-29 -25 -82 -25h-158q-45 0 -73.5 20.5t-36 38t-15.5 52.5l-188 700q-6 20 -41 152.5t-51 201.5l-281 -1054q0 -2 -3 -14.5t-5 -17.5t-6 -16.5t-8 -16.5t-11.5 -14t-15.5 -13.5t-18.5 -9.5t-24.5 -7t-31 -2h-147 q-27 0 -46.5 7t-30.5 14.5t-20.5 24.5t-12.5 25.5t-9 32t-8 27.5l-322 1194q-6 19 -6 37z" />
<glyph unicode="X" horiz-adv-x="1501" d="M78 47q0 16 24 51l480 654v4l-445 569q-25 35 -24 51q0 45 75 45h158q41 0 62.5 -13t50.5 -52l274 -367l262 369q29 41 48.5 52t58.5 11h123q2 0 12 1t16 1q76 0 76 -47q0 -16 -24 -51l-420 -569l506 -654q29 -39 28 -57q0 -43 -55 -45h-180q-33 0 -54.5 10t-28.5 19.5 t-28 38.5l-340 473l-319 -471q-29 -43 -49.5 -56.5t-61.5 -13.5h-170q-55 2 -55 47z" />
<glyph unicode="Y" horiz-adv-x="1501" d="M51 1374q0 47 70 47h127q23 0 40 -2t35.5 -10t31 -15.5t33 -29t33.5 -38.5t43 -58t51.5 -73t65.5 -95.5t81 -116.5q88 -131 102 -158q23 47 332 488q43 61 77.5 84.5t104.5 23.5h100q70 0 70 -47q0 -16 -37 -69l-510 -725q-10 -27 -10 -56v-428q0 -57 -23.5 -76.5 t-70.5 -19.5h-101q-90 0 -90 92v477l-526 746q-29 39 -29 59z" />
<glyph unicode="Z" horiz-adv-x="1376" d="M123 100v19q0 43 31 86l739 1020l-645 -6q-59 0 -76.5 25.5t-17.5 74.5q0 20 2 32.5t9 31t27.5 28.5t51.5 10h915q31 0 50.5 -8t27.5 -25.5t10 -31t2 -33.5v-10q0 -43 -30 -86l-738 -1020l490 6h59q111 2 139 2q55 0 74 -24.5t19 -67.5v-29q0 -43 -17.5 -67.5 t-73.5 -26.5h-960q-43 0 -64.5 22.5t-22.5 36.5t-1 41z" />
<glyph unicode="[" horiz-adv-x="702" d="M172 -414v1850q0 31 5 49t26.5 34.5t62.5 16.5h289q53 0 73.5 -24.5t20.5 -51.5q0 -43 -43 -65q-18 -8 -63 -9h-97v-1748h113q90 0 90 -74q0 -76 -94 -76h-291q-43 0 -64.5 19.5t-24.5 35.5t-3 43z" />
<glyph unicode="\" d="M125 1460q0 33 21.5 53.5t50.5 20.5q53 0 82 -76l714 -1870q4 -16 4 -26q0 -27 -21.5 -49.5t-51.5 -22.5q-25 0 -43.5 16.5t-24.5 28.5t-18 43l-697 1823q-16 49 -16 59z" />
<glyph unicode="]" horiz-adv-x="702" d="M51 -436q0 74 92 74h111v1748h-109q-94 0 -94 74q0 76 92 76h289q33 0 54.5 -9t28.5 -27.5t9 -31t2 -32.5v-1850q0 -27 -2 -43t-24.5 -35.5t-65.5 -19.5h-291q-92 0 -92 76z" />
<glyph unicode="^" horiz-adv-x="1376" d="M350 965q0 14 70 110q18 25 69 94q45 63 72 101q23 29 55 28h148q23 0 40 -19t99 -134q59 -84 103 -141q18 -29 18 -39q0 -27 -35 -27h-65q-23 0 -41.5 13.5t-102.5 92.5q-55 53 -94 89q-162 -154 -186.5 -174.5t-50.5 -20.5h-43q-56 0 -56 27z" />
<glyph unicode="_" horiz-adv-x="1751" d="M188 -604q0 16 5.5 32.5t30 35t65.5 18.5h1169q59 0 81 -27.5t22 -56.5q0 -18 -5.5 -34.5t-32 -34t-69.5 -17.5h-1163q-103 0 -103 84z" />
<glyph unicode="`" d="M221 1360v10q8 20 41 21h191q29 0 47 -21q8 -8 182 -233l10 -21l2 -8q-2 -27 -39 -27h-55q-12 0 -21.5 1t-16.5 5.5t-11 6.5t-12.5 9t-12.5 9q-297 231 -301 236.5t-4 11.5z" />
<glyph unicode="a" horiz-adv-x="1075" d="M61 281q0 80 47.5 139t114 92t157.5 52.5t157.5 25.5t134.5 6v43q0 88 -29 139t-117 51q-80 0 -145.5 -21.5t-97 -48t-59 -49t-40.5 -22.5l-8 2l-8 6q-6 10 -11 50t-7 73l-3 35q0 10 1.5 15t7.5 11.5t9 8.5t17.5 8t22.5 10q147 66 321 66q233 0 328.5 -88t95.5 -254v-539 q0 -92 -92 -92h-98q-45 0 -64.5 24.5t-19.5 57.5q-135 -104 -316 -105q-137 0 -218 94.5t-81 209.5zM330 281q0 -59 39 -106.5t102 -47.5q70 0 135.5 44t65.5 144v160q-63 -6 -108.5 -13t-107 -26.5t-94 -59.5t-32.5 -95z" />
<glyph unicode="b" horiz-adv-x="1148" d="M123 94v1290q0 45 19.5 70t74.5 25h90q90 0 90 -90v-510q129 82 285 82q293 0 367 -277q23 -84 23 -220v-6q0 -140 -38.5 -237.5t-105 -149t-138 -73t-157.5 -21.5q-129 0 -232 78q-16 -33 -33.5 -44t-56.5 -11h-94q-94 0 -94 94zM403 207l7 -8q8 -8 11 -11.5t12 -11.5 t15.5 -12t16.5 -11.5t19.5 -10.5t21.5 -7t26.5 -6t30.5 -2q66 0 112 23.5t67.5 52t33.5 83t13.5 86t1.5 91.5v16q0 61 -2.5 97t-12.5 87.5t-30.5 79t-61.5 49t-98 21.5q-96 0 -183 -72v-534z" />
<glyph unicode="c" horiz-adv-x="1001" d="M74 467q0 506 499 506q178 0 332 -84q16 -10 17 -33q-10 -160 -50 -160q-14 0 -64 41t-97 58q-53 18 -158 18q-55 -2 -95 -26.5t-59.5 -55.5t-31 -80t-12.5 -78.5t-1 -76.5v-39q0 -51 2 -84t13.5 -82t33 -79t63.5 -52.5t101 -22.5q74 0 135.5 19.5t94 43t60.5 45t40 23.5 l10 -2q12 -8 14.5 -22.5t12.5 -120.5v-17q0 -29 -41 -51q-150 -78 -332 -78q-487 1 -487 490z" />
<glyph unicode="d" horiz-adv-x="1148" d="M74 489q4 254 119.5 363t298.5 109q141 0 256 -74v502q0 90 90 90h82q45 0 68.5 -15.5t28.5 -33t5 -44.5v-1292q0 -94 -92 -94h-94q-76 0 -95 66q-123 -88 -260 -89q-309 0 -385 289q-22 86 -22 223zM354 453q0 -57 2 -91t13.5 -84.5t32 -79t61.5 -50t98 -21.5 q68 0 124 38t56 83v502q-2 0 -10 7t-16 13t-22.5 14.5t-30 13.5t-37 9t-43.5 4q-63 0 -109.5 -22.5t-69 -51t-34 -79t-13.5 -81t-2 -81.5v-43z" />
<glyph unicode="e" horiz-adv-x="1046" d="M61 477q0 250 131.5 373t360.5 123q123 0 210 -38t133 -104.5t65.5 -140.5t19.5 -164q0 -88 -90 -88h-565q8 -311 260 -311q90 0 164.5 29.5t122 65.5t55.5 38h8l10 -4q10 -10 15.5 -46t5.5 -67l2 -30q0 -27 -33 -45q-158 -90 -354 -91q-256 0 -388.5 127t-132.5 373z M328 571h424q-6 119 -47 185.5t-152 66.5q-200 0 -225 -252z" />
<glyph unicode="f" horiz-adv-x="688" d="M63 864q0 74 93 74h20v180q0 381 395 383h4q152 0 195 -31l6 -8l4 -10v-125q0 -51 -24 -51q-10 0 -30.5 19.5t-58.5 38t-87.5 18.5t-79 -14.5t-40.5 -44t-14.5 -50t-3.5 -55.5v-250h113q45 0 66.5 -22.5t21.5 -51.5q0 -16 -5 -30.5t-27.5 -30t-59.5 -15.5h-102v-682 q0 -27 -2.5 -40t-10.5 -31.5t-28.5 -26.5t-55.5 -8h-86q-43 0 -64.5 19.5t-23.5 35t-2 39.5v694h-24q-89 0 -89 76z" />
<glyph unicode="g" d="M49 -133q0 129 115 192q-53 80 -53 162q0 86 55 168v4q-82 94 -82 228q0 59 15.5 111t55.5 107.5t128 88.5t215 33h6q82 0 140 -13.5t86 -26t36 -12.5q6 0 45 12.5t100.5 26t118.5 13.5q29 0 37 -15.5t18 -75.5q2 -16 5 -26q2 -39 -35 -39q-4 0 -22.5 3t-50.5 5t-69 2 l-53 -2q49 -98 49 -190q0 -338 -413 -338q-131 0 -236 41q-6 -23 -6 -39q0 -98 121 -99h176q78 0 126 -2t117.5 -11t111.5 -29.5t84 -54.5t61.5 -89t19.5 -131q0 -178 -188 -250q-113 -43 -322 -43q-45 0 -74.5 1t-86 5t-98.5 16.5t-89 31t-83 52t-56 76.5q-25 50 -25 107z M260 -129q0 -145 303 -145h8q113 0 181.5 24.5t88 52t19.5 60.5q0 59 -67.5 80.5t-214.5 21.5h-201q-86 0 -107 -43q-10 -20 -10 -51zM348 606q0 -86 27.5 -130t118.5 -44q92 0 122.5 39t30.5 135v33q0 88 -28.5 131t-116.5 43q-90 0 -122 -39t-32 -135v-33z" />
<glyph unicode="h" horiz-adv-x="1148" d="M121 90v1290q0 98 90 99h82q31 0 49 -4.5t35.5 -26t17.5 -62.5v-561q135 135 326 136q74 0 128 -13.5t86 -41t51.5 -53.5t26.5 -72t9 -73.5t2 -76.5v-541q0 -90 -88 -90h-96q-55 0 -75 23.5t-20 66.5v574q0 74 -22.5 110.5t-95.5 36.5q-92 0 -151.5 -62.5t-72.5 -144.5 q-2 -10 -2 -72v-430q0 -25 -2 -38t-10 -30.5t-29.5 -25.5t-54.5 -8h-90q-94 0 -94 90z" />
<glyph unicode="i" horiz-adv-x="522" d="M115 1282v102q0 33 7 53.5t25.5 29t27.5 9.5t32 3h104q43 0 69 -19.5t26 -75.5v-106q0 -16 -3.5 -29.5t-8.5 -22.5t-12 -16.5t-14.5 -10.5t-16.5 -6t-14 -3t-13 -2h-9h-106q-43 0 -68.5 19.5t-25.5 74.5zM123 102v744q0 92 90 92h84q45 0 68.5 -16.5t27.5 -35t4 -50.5 v-744q0 -92 -90 -92h-94q-43 0 -64.5 20.5t-23.5 36.5t-2 45z" />
<glyph unicode="j" horiz-adv-x="585" d="M-141 -322q14 115 49 115q6 0 55 -20.5t98 -20.5q127 0 127 121v975q0 16 3.5 30.5t7.5 23.5t12 15.5t14 10.5t16.5 6t14.5 2t13.5 1t11.5 1h88q94 0 94 -94v-875q0 -53 -3 -94t-20.5 -101.5t-48.5 -99.5t-91 -67.5t-144 -28.5q-82 0 -189.5 30.5t-107.5 69.5zM172 1282 v102q0 33 8 52.5t24.5 28t28 10.5t31.5 4h105q43 0 68.5 -19.5t25.5 -75.5v-106q0 -16 -3 -29.5t-8.5 -22.5t-13.5 -16.5t-14 -10.5t-16.5 -6t-15.5 -3t-13 -2h-8h-107q-43 0 -67.5 19.5t-24.5 74.5z" />
<glyph unicode="k" horiz-adv-x="1085" d="M141 96v1293q0 90 92 90h56q33 0 54.5 -10.5t28.5 -30t8 -29.5t1 -29v-759q59 55 149 139q141 133 175 155.5t94 22.5h135q45 -2 51 -37q-2 -25 -38 -59.5t-308 -284.5q2 -2 354 -465q20 -29 21 -47q0 -45 -62 -45h-108q-41 0 -62.5 10t-52.5 49l-258 340l-94 -86v-223 q0 -90 -92 -90h-49q-33 0 -54.5 9t-29 26.5t-9.5 30t-2 30.5z" />
<glyph unicode="l" horiz-adv-x="522" d="M123 92v1290q0 96 86 97h94t94 -93v-1286q0 -25 -2 -39t-10 -29.5t-27.5 -22.5t-52.5 -9h-84q-47 0 -72.5 18.5t-25.5 73.5z" />
<glyph unicode="m" horiz-adv-x="1773" d="M121 92v766q0 90 92 90h82q20 0 31.5 -2t29 -9t25.5 -26.5t8 -50.5v-41q39 37 61.5 56.5t102.5 52.5t170 33q121 0 187.5 -36t97.5 -116q127 152 340 152q88 0 148 -21.5t90 -49.5t45.5 -80t17.5 -86t2 -95v-537q0 -45 -19.5 -68.5t-75.5 -23.5h-90q-16 0 -29.5 2 t-22.5 6t-15 9.5t-11.5 12.5t-8.5 12t-4 15.5t-2 13.5t-1 13v12v557q0 39 -2 59.5t-13 47t-37 39t-69 12.5q-84 0 -139 -52t-76 -118q-10 -35 -10 -106v-424v-11.5t-5 -27t-13.5 -33.5t-26.5 -26.5t-45 -12.5h-94q-57 0 -77 23.5t-20 68.5v570q0 80 -24.5 114.5t-93.5 34.5 q-90 0 -158 -68.5t-68 -191.5v-459q0 -92 -92 -92h-92q-96 0 -96 92z" />
<glyph unicode="n" horiz-adv-x="1148" d="M121 92v764q0 39 16.5 61.5t33.5 26.5t42 4h82q20 0 31.5 -2t29 -9t25.5 -26.5t8 -50.5v-41q141 141 332 142q74 0 128 -13.5t86 -41t51.5 -53.5t26.5 -72t9 -73.5t2 -76.5v-541q0 -90 -88 -90h-96q-55 0 -75 23.5t-20 66.5v561q0 31 -1 47.5t-7 41t-18 38t-36 23.5 t-58 10q-86 0 -139.5 -52t-71.5 -114q-12 -45 -13 -110v-426q0 -4 -1 -11.5t-6 -27t-13 -33.5t-27.5 -25.5t-46.5 -11.5h-90q-96 0 -96 92z" />
<glyph unicode="o" d="M61 459q0 147 40 251.5t110 160t147.5 79t171.5 23.5q53 0 93.5 -2t98.5 -13.5t101 -32t90.5 -59.5t78 -92t50 -136t19.5 -187q0 -473 -498 -474q-502 1 -502 482zM342 438q2 -53 4 -79.5t14.5 -77t33 -76t63.5 -47t104.5 -21.5t104.5 21.5t64.5 49.5t33.5 76t14 81.5 t2 85.5v16v55q0 43 -2 64.5t-7 64.5t-19.5 67.5t-38 52.5t-62.5 40t-92 12q-63 0 -107 -22.5t-64.5 -50t-32 -82t-12.5 -84t-1 -90.5v-56z" />
<glyph unicode="p" horiz-adv-x="1148" d="M123 -305v1149q0 94 92 94h86q78 0 94 -64q139 86 301 87q281 0 353 -275q22 -86 22 -216v-11q0 -139 -38 -237.5t-104.5 -150t-138 -73t-157.5 -21.5q-125 0 -230 76v-354q0 -57 -23.5 -77.5t-72.5 -20.5h-94q-90 0 -90 94zM403 205l11 -12q12 -10 18 -16.5t20.5 -18 t29 -16.5t35 -10t42.5 -5q121 0 178 90q53 84 54 254v25q0 305 -209 305q-20 0 -38 -2t-34 -7.5t-26.5 -9.5t-26 -13t-19.5 -11t-20 -13l-15 -12v-528z" />
<glyph unicode="q" horiz-adv-x="1148" d="M74 469q0 266 120.5 379t309.5 113q25 0 46 -2.5t40.5 -7.5t35 -10t31 -13t25.5 -13.5t22.5 -14.5t17.5 -13t14 -12.5t12 -10.5q0 96 86 97h102q86 0 86 -91v-1169q0 -29 -3 -46t-25.5 -35.5t-63.5 -18.5h-96q-92 0 -93 98v371q-119 -92 -254 -93q-57 0 -107 9.5 t-108.5 41t-100.5 83t-69.5 143.5t-27.5 215zM354 467q0 -340 207 -340q51 0 96 26.5t56.5 41l34.5 43.5v407q0 63 -49.5 109.5t-116.5 46.5q-228 0 -228 -334z" />
<glyph unicode="r" horiz-adv-x="761" d="M123 88v768q0 59 25.5 75.5t68.5 16.5h68q55 0 82 -26q14 -16 16 -33t4 -94q49 68 118.5 108.5t109.5 49t71 8.5h2q27 0 34 -10.5t7 -35.5v-114q0 -23 -10 -37q-12 -10 -54 -15.5t-75 -15.5q-70 -25 -121 -76t-66 -118q-6 -27 -6 -78v-359q0 -43 -6 -56t-31 -34 q-25 -12 -57 -12h-88q-55 0 -73.5 24.5t-18.5 63.5z" />
<glyph unicode="s" horiz-adv-x="864" d="M63 102q0 8 25 144q6 47 29 47q10 0 48 -38t111.5 -77t169.5 -39q160 0 160 109q0 57 -49 83.5t-143.5 42t-126.5 27.5q-80 31 -146.5 98.5t-66.5 178.5q0 287 344 295h53q131 -2 250 -51q31 -12 40 -20.5t9 -29.5q0 -12 -20 -129q-8 -31 -25 -30q-14 0 -48 27.5 t-97.5 55t-151.5 27.5q-152 0 -152 -98q0 -53 57.5 -77.5t155 -42t142.5 -42.5q39 -18 73.5 -47t70.5 -91.5t36 -137.5q0 -172 -98.5 -241t-270.5 -69q-213 0 -366 99l-8 10q-5 12 -5 16z" />
<glyph unicode="t" horiz-adv-x="827" d="M43 864q0 74 90 74h49v176q0 92 99 92h73q92 0 92 -92v-176h187q37 0 59.5 -16.5t27.5 -30.5t5 -28.5t-5 -29t-26.5 -30t-56.5 -15.5h-191v-409q0 -10 -1 -26.5t-1 -26.5q0 -109 20.5 -149t65.5 -40q57 0 119 36t66 36q14 0 25.5 -28.5t17.5 -57.5l4 -27q0 -39 -128 -79 t-245 -40q-150 0 -194 148q-18 61 -19 186v477h-43q-90 0 -90 76z" />
<glyph unicode="u" horiz-adv-x="1148" d="M121 285v563q0 90 90 90h94q45 0 67.5 -18.5t24.5 -32t4 -41.5v-545q0 -8 -1 -24.5t-1 -24.5q0 -90 22.5 -120t108.5 -30q82 0 148.5 60.5t66.5 208.5v460q0 31 2.5 46.5t6.5 21.5t18 21q23 18 70 18h90q90 0 92 -86v-764q0 -88 -92 -88h-96q-84 0 -84 90 q-70 -68 -139.5 -90.5t-163.5 -22.5q-90 0 -155 19.5t-97.5 46.5t-51 73t-21.5 80t-3 89z" />
<glyph unicode="v" horiz-adv-x="1024" d="M51 881q0 57 74 57h68q35 0 58 -10t37.5 -34t17.5 -31t9 -29l197 -603l201 615q29 92 127 92h55q31 0 47 -11.5t18.5 -18.5t6.5 -23q0 -18 -13 -56l-235 -725q-18 -57 -46 -80.5t-83 -23.5h-160q-35 0 -59.5 8t-39 29.5t-19.5 34t-15 43.5l-229 708q-17 50 -17 58z" />
<glyph unicode="w" horiz-adv-x="1523" d="M51 879q0 59 76 59h57q51 0 79 -20.5t44 -77.5q147 -528 162 -576l164 584q25 90 117 90h8q49 0 90 -29l18 -30l183 -646h2l172 615q25 90 118 90h58q74 0 74 -59q0 -6 -3.5 -16.5t-3.5 -12.5l-204 -733q-8 -31 -12.5 -42.5t-17.5 -34t-37 -31.5t-58 -9h-162 q-20 0 -35.5 3t-27 7t-20.5 16.5t-15.5 19.5t-13.5 28.5t-10 32t-11 41t-13 45.5q-90 326 -108 464q-6 -92 -135 -561q-14 -51 -41 -73.5t-78 -22.5h-80q-14 0 -28.5 2t-23.5 5t-18.5 10.5t-15.5 10.5t-12 14t-9.5 14t-7.5 16.5t-5 16.5t-5 17.5t-4 16.5l-201 719 q-6 19 -6 37z" />
<glyph unicode="x" horiz-adv-x="1024" d="M51 45q0 14 14.5 34.5t114.5 143.5q68 82 113 139q82 104 98 121q-20 27 -303 363q-23 29 -22 51q0 41 59 41h100q14 0 22.5 -1t18.5 -2t18.5 -6t16.5 -10.5t19.5 -17.5t21.5 -23.5t27.5 -35t34 -44t45 -58.5t55.5 -70q164 221 184 239q35 29 84 29h100q59 0 60 -41 q0 -23 -23 -51q-270 -332 -293 -363q94 -104 334 -397q18 -23 19 -41q0 -45 -62 -45h-104q-49 0 -76 25.5t-127 171.5q-57 84 -96 139q-188 -281 -205 -299q-43 -37 -84 -37h-100q-64 0 -64 45z" />
<glyph unicode="y" horiz-adv-x="1024" d="M61 887q0 51 70 51h70q74 0 110 -49q10 -10 60.5 -115.5t108 -254t71.5 -238.5q8 106 154 538q29 78 51 96q29 23 82 23h57q72 0 72 -55q0 -14 -9 -39l-317 -924q-27 -76 -41 -104q-119 -238 -348 -238q-129 0 -156 27q-10 10 -20 141q-2 39 10 51l10 4h8q8 -2 32 -15 t54.5 -22.5t67.5 -9.5q43 0 75 18.5t51 51.5t33.5 68.5t26.5 74.5q4 14 7 23q2 18 -9 39l-362 800q-19 42 -19 58z" />
<glyph unicode="z" horiz-adv-x="974" d="M61 84q0 45 50 104l477 600l-406 -4q-37 0 -58.5 16.5t-26.5 31t-5 31t5 30.5t26.5 29.5t58.5 15.5h633q39 0 61.5 -22.5t22.5 -61.5q0 -23 -9 -43t-12.5 -25.5t-27.5 -33.5l-477 -600l444 4q86 -2 86 -78q0 -78 -88 -78h-663q-89 0 -91 84z" />
<glyph unicode="{" d="M113 483v62q0 20 8 29.5t18.5 11.5t36 4t47.5 6q82 18 134.5 64.5t62.5 105.5q2 8 2 57v443q0 80 44 137t117.5 83.5t145.5 38t154 11.5h80q37 0 43 -13.5t6 -84.5q0 -33 -15 -45l-8 -4q-16 -2 -58 -4.5t-72 -6.5t-64.5 -12t-57 -26.5t-30.5 -45.5q-4 -16 -5 -53v-414 q0 -47 -6 -78.5t-29.5 -79.5t-83 -88t-151.5 -69q106 -29 177 -90.5t87 -142.5q6 -27 6 -82v-428q0 -41 13.5 -66t58.5 -41q63 -25 148 -24q6 0 14 1t12 1q47 0 55.5 -12.5t8.5 -67.5v-21q0 -31 -10.5 -41t-32.5 -10h-78q-61 0 -119.5 7t-139.5 26.5t-136.5 69t-69.5 120.5 q-4 20 -4 62v422q0 57 -4 71q-16 68 -84 115t-168 55l-33 4l-8 4l-8 11q-4 16 -4 28z" />
<glyph unicode="|" horiz-adv-x="624" d="M225 -410v1844q0 57 30 78.5t56 21.5q16 0 32.5 -5t34 -29.5t17.5 -65.5v-1846q0 -41 -18.5 -64.5t-33.5 -28.5t-31.5 -5t-33 6t-35 29.5t-18.5 64.5z" />
<glyph unicode="}" d="M113 -414q0 31 14 45l8 4q16 2 59.5 4.5t73 6.5t65.5 12t58.5 26.5t28.5 45.5q2 8 2 53v436q0 207 270 293q-106 29 -177 90.5t-87 142.5q-6 27 -6 82v428q0 39 -14.5 65t-57.5 42q-63 25 -137 24q-10 0 -27.5 -1t-23.5 -1q-27 0 -38 11.5t-11 46.5v26v16.5t1 16.5 t2 12.5t4 10.5t8 6t12 5t18 1h39l135 -4q104 -8 179 -36t110.5 -56.5t55 -70.5t22.5 -64.5t3 -53.5v-422q0 -57 5 -71q16 -68 83.5 -115t167.5 -55l33 -4l8 -4l9 -11q4 -16 4 -28v-62q0 -20 -7.5 -29.5t-17.5 -10.5t-36.5 -3t-49.5 -8q-70 -16 -126 -59t-68 -111 q-4 -18 -5 -57v-443q0 -80 -44 -137t-118.5 -83.5t-146 -38t-153.5 -11.5h-82q-31 0 -38 14.5t-7 57.5v26z" />
<glyph unicode="~" horiz-adv-x="1376" d="M186 1231q0 88 80 166t211 78q111 0 242 -67t180 -67q47 0 88 25t49 68q8 33 21 36q8 4 20 5h68q41 0 41 -37q0 -88 -79 -167t-212 -79q-111 0 -242 66.5t-180 66.5q-47 0 -87 -25.5t-48 -68.5q-6 -27 -16.5 -33t-47.5 -6h-43q-45 0 -45 39z" />
<glyph unicode="&#xa1;" horiz-adv-x="751" d="M240 -356l26 972q0 39 15 58q12 6 28 6h121q49 0 51 -39l27 -963v-18v-12t-1 -11.5t-1 -9.5t-1 -7t-2 -5t-4 -5t-6.5 -4t-7.5 -3t-9 -1t-13 -1h-176q-29 0 -38 10t-9 33zM240 905v78q0 47 18 72.5t78 25.5h88q84 0 84 -94v-80q0 -27 -2 -42t-24.5 -34.5t-67.5 -19.5 q-6 0 -15.5 1t-13.5 1h-49q-45 0 -70.5 18.5t-25.5 73.5z" />
<glyph unicode="&#xa2;" d="M74 473q0 123 35.5 215t84 142.5t121 83t122.5 42t112 15.5v78q0 39 8 55q20 43 66 43q43 0 65 -37q10 -18 10 -59v-78q100 -6 185.5 -29.5t118 -41t40.5 -25.5q4 -8 5 -21q0 -6 -2.5 -18.5t-8.5 -41t-10 -59.5q-8 -41 -27 -41q-16 0 -48.5 24.5t-97.5 53.5t-155 37v-670 q96 10 167 42t107 58.5t52 26.5q20 0 27 -43q8 -94 8 -119q0 -31 -39 -47q-2 -2 -62 -24q-98 -39 -260 -55v-78q0 -100 -73 -101q-41 0 -64 37q-12 18 -12 64v78q-68 6 -122 17t-124 44t-117 83t-79.5 140t-32.5 209zM354 475q0 -182 60 -256q2 -2 9 -10t11 -11t13.5 -11.5 t18.5 -13.5t21.5 -11t27.5 -10.5t34 -8.5v664q-70 -12 -113 -49t-59.5 -95.5t-19.5 -93.5t-3 -94z" />
<glyph unicode="&#xa3;" horiz-adv-x="1439" d="M123 113q0 84 80 133t213 49q43 0 65 -2l2 151v222h-92q-31 0 -37 11t-6 50v14v38t5 19.5t16.5 14.5t33.5 2h80v277q0 459 447 458q123 0 213 -71.5t129 -168t39 -194.5q0 -66 -37 -93.5t-78 -27.5q-18 0 -34.5 5.5t-28 12.5t-20.5 16t-14 18.5t-8.5 17.5t-5.5 12l-2 6 h-6q-43 0 -45 37v34t-1 41t-2 41t-4 42t-8 37.5t-12.5 35t-17.5 26t-24.5 18.5t-32.5 6q-49 0 -83 -20.5t-49.5 -45t-23.5 -75t-9 -76t-1 -84.5v-285h158q29 -2 34 -15.5t5 -58.5q0 -59 -11 -67q-8 -8 -28 -8h-158v-209q0 -145 -16 -217v-2q242 -61 342 -64q4 35 4 68.5 t1 47t9 21.5q6 6 59 11h164q45 0 45 -39q0 -111 -97 -208.5t-261 -97.5q-49 0 -113.5 10.5t-108.5 20.5t-105.5 25.5t-70.5 17.5q-106 -74 -294 -74q-106 0 -152.5 42.5t-46.5 93.5z" />
<glyph unicode="&#xa5;" horiz-adv-x="1501" d="M-68 438q0 74 95 74h581v57l-186 262h-387q-37 0 -66 13q-37 29 -37 63q0 25 16.5 45.5t41.5 26.5q6 2 45 2h282q-63 90 -147 209q-86 123 -101.5 146.5t-15.5 39.5q0 45 78 45h125q82 0 135 -55q14 -14 273 -385h202q33 49 144.5 209t132.5 180q55 51 141 51h98 q68 0 68 -45q0 -14 -22.5 -49t-108.5 -156q-80 -113 -135 -190h282q37 0 45 -2q25 -6 41.5 -26.5t16.5 -45.5q0 -35 -37 -63q-29 -12 -66 -13h-387q-31 -45 -60.5 -87t-47 -65.5t-32.5 -45t-22.5 -32.5t-13.5 -21.5t-7 -16.5t-2 -11t-1 -13v-27h582q94 0 94 -74 q-2 -76 -96 -76h-580v-270q0 -92 -90 -92h-101q-57 0 -75.5 24.5t-18.5 69.5v268h-571q-105 0 -105 76zM762 831l2 -6l4 6h-6z" />
<glyph unicode="&#xa7;" horiz-adv-x="1091" d="M100 -242q0 18 27 158q4 18 16 31l11 2q14 -2 23 -12.5t25.5 -38t41.5 -52.5q111 -119 291 -118q94 0 143 66.5t49 137.5q0 57 -42 92t-134 71t-125 55q-272 152 -272 401q0 170 147 280q-147 139 -147 310q0 152 114.5 256t282.5 104q197 0 348 -110q25 -18 25 -39 q0 -16 -25 -150q-2 -14 -16 -28l-11 -5q-12 2 -16 6.5t-20 26.5q-106 150 -283 150q-94 0 -143.5 -65.5t-49.5 -137.5q0 -57 42 -93t137.5 -73t130.5 -57q104 -57 184 -157.5t80 -240.5q0 -174 -146 -280q145 -139 146 -309q0 -147 -111.5 -254t-285.5 -107q-203 0 -365 107 q-72 46 -72 73zM360 557q0 -43 29 -75.5t60.5 -49t97 -42t94.5 -40.5q86 74 86 170q0 45 -29.5 79t-62.5 50.5t-96.5 42t-92.5 39.5q-86 -72 -86 -174z" />
<glyph unicode="&#xa8;" d="M199 1223v108q0 90 96 90h100q47 0 70.5 -20.5t23.5 -75.5v-100q0 -16 -2 -28.5t-7 -22t-9 -16.5t-12 -11t-13.5 -7t-14.5 -5t-13 -2t-12 -3h-9h-104q-94 1 -94 93zM635 1227v96q0 43 16.5 66.5t31.5 26.5t46 5h102q94 0 95 -92v-110q0 -18 -4 -34t-11.5 -24t-14.5 -14 t-17.5 -9t-16.5 -4t-16 -4h-10h-107q-45 0 -69.5 20t-24.5 77z" />
<glyph unicode="&#xa9;" horiz-adv-x="2502" d="M123 514q0 170 29.5 315.5t108.5 288t202 241.5t323.5 160.5t460.5 61.5q262 0 463 -60.5t324 -159.5t201.5 -241.5t108.5 -290t30 -319.5q0 -141 -21.5 -265t-70 -248t-135.5 -221.5t-207.5 -174t-297 -117.5t-395.5 -41q-260 0 -460.5 61.5t-324.5 160.5t-202 241.5 t-107.5 289t-29.5 318.5zM293 512q0 -209 51 -368.5t136 -259t211 -162t259 -86t297 -23.5q166 0 301 23.5t260 86t209 163t134.5 260t50.5 370.5q0 209 -51.5 367.5t-136.5 257t-210 161t-259 86t-296 23.5q-225 0 -395 -47t-299 -150.5t-195.5 -279.5t-66.5 -422zM623 498 q0 104 35.5 194t66.5 126t61 63q186 160 609 159q152 0 295 -41q45 -12 45 -41q-25 -221 -54 -233q-2 -2 -10 -2q-12 0 -32.5 17.5t-44 39t-77 39t-122.5 17.5q-481 0 -481.5 -338t497.5 -338q98 0 164.5 24.5t98.5 49t44 24.5q25 0 31 -49q2 -14 4 -57q4 -37 6 -62v-20 q0 -8 -3 -15.5t-6 -11.5t-11 -9t-14.5 -8t-19.5 -9.5t-22 -10.5q-117 -51 -288 -51q-449 0 -633 184q-139 140 -139 359z" />
<glyph unicode="&#xaa;" horiz-adv-x="1001" d="M49 522q0 25 16.5 45.5t38.5 26.5q16 4 52 4h702q88 0 88 -76q0 -72 -88 -73h-719q-37 0 -58.5 15t-26.5 29.5t-5 28.5zM61 961q0 53 38 77.5t104 38.5q141 31 342 31v20v72t-2 65t-7.5 61.5t-12.5 46t-19 36.5t-31 16q-12 2 -59 -2q-66 -10 -112 -43.5t-72.5 -68.5 t-36.5 -39l-11 -2l-10 6q-10 10 -16 51t-9 76v35q0 43 102.5 88t221.5 45q197 0 275.5 -105.5t78.5 -287.5v-306q0 -23 -1 -35t-9 -31.5t-28.5 -28.5t-53.5 -9h-86q-78 0 -94 66q-115 -88 -229 -89q-117 0 -190 68t-73 148zM330 963q14 -68 78 -68q72 0 122 92 q-137 -4 -200 -24z" />
<glyph unicode="&#xab;" horiz-adv-x="1501" d="M154 512q0 14 30 45l453 438q2 2 7 6.5t6 6.5t5 5t7.5 4t7.5 3t9 2t10 1t13 1h46q39 0 49 -23v-8q-6 -23 -361 -479v-4l350 -459q8 -12 11 -20v-8q-8 -23 -47 -23h-48q-18 0 -31.5 5t-15.5 7t-18 17l-451 436q-32 33 -32 47zM627 514q0 12 32 43l453 438q2 2 7 6.5t6 6.5 t5.5 5t7.5 4t7 3t9 2t10 1t14 1h47q18 0 28.5 -3t12.5 -6t6 -14v-8q-6 -23 -361 -479v-4l351 -459q8 -12 10 -20v-8q-8 -23 -47 -23h-47q-18 0 -31.5 5t-16 7t-18.5 17l-450 436q-35 35 -35 49z" />
<glyph unicode="&#xac;" horiz-adv-x="1501" d="M123 725q0 16 6 32.5t30.5 35t65.5 18.5h1045q104 0 104 -100v-475q0 -106 -86 -107q-33 0 -56.5 22.5t-27.5 51.5q-2 18 -2 55v381h-969q-110 0 -110 86z" />
<glyph unicode="&#xad;" horiz-adv-x="751" d="M25 469q0 74 92 74h415q90 0 91 -74q0 -14 -4.5 -28.5t-27 -30t-59.5 -15.5h-417q-53 0 -71.5 24.5t-18.5 49.5z" />
<glyph unicode="&#xae;" horiz-adv-x="2502" d="M123 514q0 170 29.5 315.5t108.5 288t202 241.5t323.5 160.5t460.5 61.5q262 0 463 -60.5t324 -159.5t201.5 -241.5t108.5 -290t30 -319.5q0 -141 -21.5 -265t-70 -248t-135.5 -221.5t-207.5 -174t-297 -117.5t-395.5 -41q-260 0 -460.5 61.5t-324.5 160.5t-202 241.5 t-107.5 289t-29.5 318.5zM293 512q0 -209 51 -368.5t136 -259t211 -162t259 -86t297 -23.5q166 0 301 23.5t260 86t209 163t134.5 260t50.5 370.5q0 209 -51.5 367.5t-136.5 257t-210 161t-259 86t-296 23.5q-225 0 -395 -47t-299 -150.5t-195.5 -279.5t-66.5 -422zM748 94 v801q0 31 4 49.5t25.5 34.5t62.5 16h487q324 0 453 -106q94 -80 94 -193q0 -57 -29.5 -104t-64.5 -72.5t-88.5 -45t-76 -25t-52.5 -9.5q66 -78 159 -188q119 -139 139.5 -166t20.5 -41q0 -23 -15.5 -33t-27.5 -11t-37 -1h-90q-47 0 -68.5 13.5t-50.5 47.5l-297 363h-264 v-326q0 -98 -90 -98h-100q-53 0 -73.5 23.5t-20.5 70.5zM1032 573h238q4 0 14 -1t16 -1q156 0 227.5 27t71.5 98q0 76 -75.5 99.5t-229.5 23.5h-262v-246z" />
<glyph unicode="&#xaf;" d="M156 1382v31q0 29 8 42t37 13h723q33 0 39 -14t6 -61v-54q0 -45 -39 -47h-729q-35 0 -40 12t-5 78z" />
<glyph unicode="&#xb0;" horiz-adv-x="751" d="M123 1169q0 123 67.5 187.5t182 64.5t182.5 -65.5t68 -184.5q0 -121 -68 -185t-182 -64q-121 0 -185.5 67t-64.5 180zM295 1171q0 -47 18.5 -62t57.5 -17q27 2 39 4t27.5 20.5t15.5 54.5q0 80 -76 80q-43 0 -62.5 -15.5t-19.5 -64.5z" />
<glyph unicode="&#xb1;" horiz-adv-x="1751" d="M123 700q0 16 6 33t31.5 34t66.5 17h561v564q0 102 84 102q86 0 86 -109v-557h558q106 0 106 -86q0 -16 -5 -32.5t-30.5 -34t-66.5 -17.5h-562v-493h558q106 0 106 -88q0 -84 -109 -84h-1288q-33 0 -54 9t-30.5 25.5t-12.5 28t-3 21.5q0 88 102 88h561v493h-559 q-106 0 -106 86z" />
<glyph unicode="&#xb4;" d="M428 1106q0 4 2 8t6 11.5t9.5 15.5t15.5 20.5t20.5 25.5t25.5 33.5t30.5 39t38 48t42.5 56.5q23 27 54 27h178q25 0 45 -11l6 -10v-8q-2 -14 -53 -55q-16 -10 -25 -19q-53 -41 -129 -100q-102 -80 -122.5 -93.5t-45.5 -13.5h-53q-2 0 -11 1t-13.5 1t-9.5 2t-8 7.5 t-3 13.5z" />
<glyph unicode="&#xb5;" horiz-adv-x="1148" d="M121 -307v1151q0 94 90 94h94q45 0 67.5 -18.5t24.5 -32t4 -41.5v-547q0 -8 -1 -22.5t-1 -22.5q0 -90 23.5 -121t107.5 -31q82 0 148.5 59.5t66.5 209.5v460q0 25 2.5 37.5t9.5 32t28.5 28.5t56.5 9h90q90 0 92 -86v-764q0 -88 -92 -88h-96q-84 0 -84 90 q-119 -113 -289 -113h-62v-282q0 -53 -23.5 -73.5t-72.5 -20.5h-94q-90 0 -90 92z" />
<glyph unicode="&#xb6;" horiz-adv-x="1376" d="M123 969q0 90 37 177t105.5 162.5t185 123t262.5 47.5h495q41 0 66.5 -18.5t31 -34t5.5 -31.5q0 -86 -109 -86h-80v-1592q0 -31 -2 -45q-6 -31 -28.5 -50t-53 -19t-55.5 19.5t-29 49.5q-2 14 -2 45v1592h-157v-1604q0 -41 -18.5 -66.5t-35 -30.5t-32.5 -5q-10 0 -21.5 3 t-28 12t-25.5 30.5t-9 54.5v756l-2 2q-195 23 -347.5 159t-152.5 349z" />
<glyph unicode="&#xb7;" horiz-adv-x="460" d="M84 442v164q0 33 10 42t37 9h197q35 0 41 -13t6 -60v-170q0 -31 -10.5 -39t-34.5 -8h-199q-35 0 -41 12t-6 63z" />
<glyph unicode="&#xb8;" horiz-adv-x="1001" d="M240 -367.5q0 5.5 3 12.5t7 14t12 21.5t16.5 27.5t23.5 36t28.5 44.5t36 56t43.5 67.5q27 41 53 41h55q51 0 51 -29q0 -10 -112 -282q-8 -23 -17.5 -29t-33.5 -8h-127q-20 0 -35 10l-4 8v9.5z" />
<glyph unicode="&#xba;" horiz-adv-x="1001" d="M49 522q0 25 16.5 45.5t38.5 26.5q16 4 52 4h702q88 0 88 -76q0 -72 -88 -73h-719q-37 0 -58.5 15t-26.5 29.5t-5 28.5zM61 1143q0 428 441 428q434 0 434 -434q0 -375 -404 -392h-67q-404 17 -404 398zM340 1147q0 -127 30.5 -184.5t127.5 -57.5q104 0 130.5 62.5 t26.5 220.5q0 119 -28.5 176t-128.5 57q-53 0 -86 -16t-48.5 -51t-19.5 -71t-4 -93v-43z" />
<glyph unicode="&#xbb;" horiz-adv-x="1501" d="M227 23v8q6 23 361 479v4l-350 459q-8 12 -11 20v8q4 10 6.5 13.5t12.5 6.5t28 3h48q10 0 17 -1t13 -3t10.5 -4t11.5 -7t11 -9.5t13.5 -13.5t15.5 -15l424 -412q33 -33 32 -47q0 -12 -32 -45l-451 -438q-2 -2 -7 -6.5t-6 -6.5t-5 -5t-7.5 -4t-7.5 -3t-9 -2t-10 -1t-13 -1 h-48q-39 0 -47 23zM702 23v8q4 20 361 479v4l-350 459q-8 12 -11 20v8q4 10 6.5 13.5t12.5 6.5t29 3h47q10 0 17 -1t13.5 -3t10.5 -4t11 -7t11 -9.5t13.5 -13.5t15.5 -15l424 -412q33 -33 33 -47t-31 -45l-453 -438q-2 -2 -7 -6.5t-6 -6.5t-5 -5t-7 -4t-7.5 -3t-9.5 -2 t-10 -1t-13 -1h-47q-40 0 -48 23z" />
<glyph unicode="&#xbf;" horiz-adv-x="1062" d="M123 -96q0 37 3 67.5t13.5 56t15.5 42t23.5 39t23.5 28.5t28.5 28.5t25.5 24.5q135 150 135 381v66q4 35 23 41q8 2 18 2h123q49 0 51 -39v-86q0 -180 -108 -389q-16 -31 -37 -68t-27 -50t-15 -31.5t-10 -35t-3.5 -37t-2.5 -57.5q0 -94 18.5 -126.5t80.5 -32.5 q98 0 179 37.5t125 75.5t52 38q16 0 35.5 -41t30.5 -82l10 -41l-2 -8l-4 -10q-14 -14 -52 -36.5t-145.5 -52.5t-236.5 -30q-172 0 -271.5 71t-99.5 255zM362 905q0 4 1.5 11.5t1.5 11.5v55q0 29 4 47.5t26.5 34.5t63.5 16h90q84 0 84 -94v-80q0 -18 -2 -30.5t-10.5 -30 t-29 -26.5t-54.5 -9q-6 0 -15.5 1t-13.5 1h-47q-27 0 -43.5 3t-36 24.5t-19.5 64.5z" />
<glyph unicode="&#xc0;" horiz-adv-x="1501" d="M86 55q0 14 8 39l434 1233q16 47 43 70.5t86 23.5h185q37 0 61.5 -8t41 -33.5t20.5 -35t16 -46.5l424 -1208q8 -25 8 -35q0 -55 -76 -55h-108q-18 0 -32.5 1t-28 8t-21.5 12.5t-18.5 22.5t-16.5 28.5t-17.5 41t-18.5 51t-22.5 65.5t-27.5 79h-584q-14 -37 -29.5 -85 t-23.5 -70.5t-19.5 -52t-19.5 -42t-19.5 -28t-23.5 -19.5t-28.5 -8t-38.5 -4h-76q-78 0 -78 55zM414 1773q4 25 41 25h285q27 0 52.5 -16.5t123.5 -92.5q51 -41 86 -67q14 -12 20 -29v-8q-8 -20 -39 -21h-106q-27 0 -275 107q-92 41 -149 65q-18 8 -25.5 14.5t-9.5 9.5 t-4 13zM504 485h461q-209 598 -230 680q-20 -74 -231 -680z" />
<glyph unicode="&#xc1;" horiz-adv-x="1501" d="M86 55q0 14 8 39l434 1233q16 47 43 70.5t86 23.5h185q37 0 61.5 -8t41 -33.5t20.5 -35t16 -46.5l424 -1208q8 -25 8 -35q0 -55 -76 -55h-108q-18 0 -32.5 1t-28 8t-21.5 12.5t-18.5 22.5t-16.5 28.5t-17.5 41t-18.5 51t-22.5 65.5t-27.5 79h-584q-14 -37 -29.5 -85 t-23.5 -70.5t-19.5 -52t-19.5 -42t-19.5 -28t-23.5 -19.5t-28.5 -8t-38.5 -4h-76q-78 0 -78 55zM475 1591q0 10 14 25q221 170 238 176q12 6 33 6h284q41 0 41 -26q0 -6 -3 -11.5t-7 -8.5t-10 -7l-6 -2q-98 -43 -230 -98q-137 -59 -164.5 -69.5t-50.5 -10.5h-104 q-31 1 -35 26zM504 485h461q-209 598 -230 680q-20 -74 -231 -680z" />
<glyph unicode="&#xc2;" horiz-adv-x="1501" d="M86 55q0 14 8 39l434 1233q16 47 43 70.5t86 23.5h185q37 0 61.5 -8t41 -33.5t20.5 -35t16 -46.5l424 -1208q8 -25 8 -35q0 -55 -76 -55h-108q-18 0 -32.5 1t-28 8t-21.5 12.5t-18.5 22.5t-16.5 28.5t-17.5 41t-18.5 51t-22.5 65.5t-27.5 79h-584q-14 -37 -29.5 -85 t-23.5 -70.5t-19.5 -52t-19.5 -42t-19.5 -28t-23.5 -19.5t-28.5 -8t-38.5 -4h-76q-78 0 -78 55zM346 1532q0 12 21 39q59 78 133 176q70 94 85 109.5t33 15.5h7h249q23 0 32 -7t18 -28q125 -291 127 -303q-2 -29 -41 -29h-68q-16 0 -34.5 14.5t-80.5 69.5q-72 68 -129 119 q-27 -25 -55.5 -51.5t-45.5 -43t-35.5 -32.5t-30 -25.5t-21.5 -19.5t-17.5 -14t-14.5 -8.5t-12 -5.5l-10 -2t-14 -1h-49q-47 0 -47 27zM504 485h461q-209 598 -230 680q-20 -74 -231 -680z" />
<glyph unicode="&#xc3;" horiz-adv-x="1501" d="M86 55q0 14 8 39l434 1233q16 47 43 70.5t86 23.5h185q37 0 61.5 -8t41 -33.5t20.5 -35t16 -46.5l424 -1208q8 -25 8 -35q0 -55 -76 -55h-108q-18 0 -32.5 1t-28 8t-21.5 12.5t-18.5 22.5t-16.5 28.5t-17.5 41t-18.5 51t-22.5 65.5t-27.5 79h-584q-14 -37 -29.5 -85 t-23.5 -70.5t-19.5 -52t-19.5 -42t-19.5 -28t-23.5 -19.5t-28.5 -8t-38.5 -4h-76q-78 0 -78 55zM375 1548q0 104 57 201.5t166 97.5q53 0 99 -29.5t74 -65.5t60.5 -65.5t63.5 -31.5l16 2l17 6q37 33 45 100.5t10 71.5q10 14 45 14q4 0 14.5 -1t14.5 -1h22q23 0 34 -7t11 -36 q0 -59 -19.5 -122.5t-72.5 -120t-131 -56.5q-53 0 -99 30t-74 65.5t-60.5 65.5t-63.5 32l-16 -2q-16 -6 -24.5 -11.5t-22 -35t-17.5 -80.5v-16.5t-1 -14.5l-3 -12t-5 -11.5t-11 -6.5t-19 -3h-67q-23 0 -33 8t-10 35zM504 485h461q-209 598 -230 680q-20 -74 -231 -680z" />
<glyph unicode="&#xc4;" horiz-adv-x="1501" d="M86 55q0 14 8 39l434 1233q16 47 43 70.5t86 23.5h185q37 0 61.5 -8t41 -33.5t20.5 -35t16 -46.5l424 -1208q8 -25 8 -35q0 -55 -76 -55h-108q-18 0 -32.5 1t-28 8t-21.5 12.5t-18.5 22.5t-16.5 28.5t-17.5 41t-18.5 51t-22.5 65.5t-27.5 79h-584q-14 -37 -29.5 -85 t-23.5 -70.5t-19.5 -52t-19.5 -42t-19.5 -28t-23.5 -19.5t-28.5 -8t-38.5 -4h-76q-78 0 -78 55zM385 1653v98q0 35 7 56.5t28.5 29.5t26 8t32.5 2h103q47 0 70.5 -20.5t23.5 -71.5v-110q0 -18 -4 -34t-11.5 -24t-14.5 -14t-18.5 -9t-17.5 -4t-16 -4h-10h-107q-43 0 -67.5 21 t-24.5 76zM504 485h461q-209 598 -230 680q-20 -74 -231 -680zM823 1649v108q0 92 97 92q6 0 16 -1t14 -1h70q47 0 70.5 -20.5t23.5 -75.5v-100q0 -33 -9 -53.5t-28.5 -28.5t-27 -9t-27.5 -4h-104q-95 1 -95 93z" />
<glyph unicode="&#xc5;" horiz-adv-x="1501" d="M86 57q0 18 12 47l430 1223q-80 72 -79 229q0 291 251 291q248 0 248 -288q0 -96 -26 -158q33 -31 47 -72l436 -1237q8 -25 8 -37q0 -55 -76 -55h-108q-18 0 -32.5 1t-28 8t-21.5 12.5t-18.5 22.5t-16.5 28.5t-17.5 41t-18.5 51t-22.5 65.5t-27.5 79h-584 q-14 -39 -30.5 -86t-23.5 -69.5t-18.5 -51t-16.5 -39t-16 -25.5t-18.5 -19.5t-21.5 -9.5t-28.5 -6t-37.5 -3h-77q-68 2 -68 57zM504 485h461q-209 598 -230 680q-20 -74 -231 -680zM573 1567q0 -39 2.5 -58.5t12.5 -43t35.5 -34t66.5 -10.5h6q31 0 48.5 3t38 14.5t30.5 39 t10 74.5q0 37 -3 58.5t-13 45t-36 34t-66 10.5h-5q-31 0 -48 -3t-38.5 -14.5t-31 -40t-9.5 -75.5z" />
<glyph unicode="&#xc6;" horiz-adv-x="1939" d="M90 53q0 8 10 39l504 1217q25 61 52.5 86.5t91.5 25.5h974q90 0 90 -96v-25q0 -94 -83 -94h-3l-493 8v-380h422q29 0 46 -4.5t32.5 -26t15.5 -64.5t-16.5 -67.5t-33 -28.5t-40.5 -4h-426v-420q410 8 514 8q96 0 96 -94v-31q0 -31 -2 -47t-24.5 -35.5t-65.5 -19.5h-719 q-33 0 -52 9t-26.5 29.5t-8.5 30t-1 27.5v295h-442q-18 -45 -40 -97t-33 -81t-25.5 -63.5t-22.5 -51t-19.5 -36t-19.5 -27.5t-18.5 -17.5t-23.5 -11.5t-26.5 -4t-33.5 -2h-76q-74 0 -74 53zM575 569h369v648h-100z" />
<glyph unicode="&#xc7;" horiz-adv-x="1439" d="M123 710.5q0 757.5 756 757.5q166 0 364 -59q35 -12 47 -25q6 -12 6 -20t-30 -176q-12 -59 -31 -60q-10 0 -40 20.5t-65.5 46.5t-104.5 46.5t-148 20.5q-463 0 -463 -549q0 -96 12 -174t45 -151t85 -122t135 -77.5t194 -28.5q100 0 176 20.5t110.5 45t64.5 45t46 20.5 q4 0 7 -1t6 -4t4 -6.5t3.5 -9.5t3.5 -11t2 -13t2 -14.5t2 -17.5t1 -17q2 -25 4 -44.5t3 -26.5t1 -12v-10q0 -10 -2 -16t-9 -13l-9.5 -9.5t-14.5 -8.5l-14 -8q-98 -55 -178 -74.5t-201 -21.5q51 0 51 -29q0 -14 -113 -282q-16 -37 -51 -37h-131q-23 2 -31 10l-4 8 q-4 18 91 164q49 76 79 125q27 41 54 41h36q-751 0 -751 757.5z" />
<glyph unicode="&#xc8;" horiz-adv-x="1314" d="M186 96v1223q0 55 23.5 75.5t71.5 20.5h815q41 0 62.5 -16.5t25.5 -32.5t4 -43v-33q0 -90 -86 -90q-27 0 -70 1t-194.5 3t-360.5 4v-379h543q25 0 39 -2t31.5 -10t26.5 -29.5t9 -56.5q0 -96 -92 -96h-557v-416l656 8q86 -2 86 -94v-43q0 -90 -93 -90h-845 q-43 0 -65.5 18.5t-26 34.5t-3.5 43zM289 1773q4 25 41 25h285q27 0 52.5 -16.5t123.5 -92.5q51 -41 86 -67q14 -12 20 -29v-8q-8 -20 -39 -21h-106q-27 0 -275 107q-92 41 -149 65q-18 8 -25.5 14.5t-9.5 9.5t-4 13z" />
<glyph unicode="&#xc9;" horiz-adv-x="1314" d="M186 96v1223q0 55 23.5 75.5t71.5 20.5h815q41 0 62.5 -16.5t25.5 -32.5t4 -43v-33q0 -90 -86 -90q-27 0 -70 1t-194.5 3t-360.5 4v-379h543q25 0 39 -2t31.5 -10t26.5 -29.5t9 -56.5q0 -96 -92 -96h-557v-416l656 8q86 -2 86 -94v-43q0 -90 -93 -90h-845 q-43 0 -65.5 18.5t-26 34.5t-3.5 43zM446 1591q0 10 15 25q47 37 114 88q90 72 110 83t44 11h285q41 0 41 -26q0 -6 -3 -11.5t-7.5 -8.5l-10.5 -7l-6 -2q-98 -43 -229 -98q-137 -59 -165 -69.5t-50 -10.5h-105q-29 1 -33 26z" />
<glyph unicode="&#xca;" horiz-adv-x="1314" d="M186 96v1223q0 55 23.5 75.5t71.5 20.5h815q41 0 62.5 -16.5t25.5 -32.5t4 -43v-33q0 -90 -86 -90q-27 0 -70 1t-194.5 3t-360.5 4v-379h543q25 0 39 -2t31.5 -10t26.5 -29.5t9 -56.5q0 -96 -92 -96h-557v-416l656 8q86 -2 86 -94v-43q0 -90 -93 -90h-845 q-43 0 -65.5 18.5t-26 34.5t-3.5 43zM272 1532q0 14 19 37q55 74 127 170q74 100 90 116.5t43 16.5h156q16 0 35.5 -21.5t117.5 -152.5q57 -76 96 -127q20 -31 21 -39q0 -27 -39 -27h-59q-25 0 -45.5 14.5t-112.5 100.5q-57 53 -96 88q-16 -16 -193 -176q-2 -2 -7 -6t-7 -6 t-6 -5.5t-6.5 -3.5t-7.5 -2t-10 -2t-12 -1t-16.5 -1h-21.5h-14q-52 0 -52 27z" />
<glyph unicode="&#xcb;" horiz-adv-x="1314" d="M186 96v1223q0 55 23.5 75.5t71.5 20.5h815q41 0 62.5 -16.5t25.5 -32.5t4 -43v-33q0 -90 -86 -90q-27 0 -70 1t-194.5 3t-360.5 4v-379h543q25 0 39 -2t31.5 -10t26.5 -29.5t9 -56.5q0 -96 -92 -96h-557v-416l656 8q86 -2 86 -94v-43q0 -90 -93 -90h-845 q-43 0 -65.5 18.5t-26 34.5t-3.5 43zM260 1651v102q0 33 8 52.5t24.5 27.5t28 10t31.5 4h105q45 0 69.5 -19.5t24.5 -74.5v-104q0 -33 -9.5 -52.5t-29.5 -27.5t-26.5 -9t-26.5 -4h-105q-43 0 -68.5 20t-25.5 75zM698 1651v102q0 33 7.5 53.5t26 28.5t27.5 9t32 3h104 q43 0 68.5 -19.5t25.5 -74.5v-106q0 -18 -4 -34t-11 -25t-14.5 -15t-18.5 -9t-17 -4t-17 -4h-10h-106q-93 1 -93 95z" />
<glyph unicode="&#xcc;" horiz-adv-x="665" d="M-35 1773q4 25 41 25h285q27 0 52.5 -16.5t123.5 -92.5q51 -41 86 -67q14 -12 20 -29v-8q-8 -20 -39 -21h-106q-27 0 -275 107q-92 41 -149 65q-18 8 -25.5 14.5t-9.5 9.5t-4 13zM186 94v1231q0 96 86 96h111q94 0 94 -92v-1231q0 -39 -6 -53q-4 -10 -12 -19.5 t-14.5 -13.5t-16.5 -7t-15 -3t-15.5 -1t-12.5 -1h-104q-45 0 -70 19.5t-25 74.5z" />
<glyph unicode="&#xcd;" horiz-adv-x="665" d="M154 1589q0 12 14 27q47 37 115 88q90 72 109.5 83t44.5 11h284q41 0 41 -27q0 -6 -3 -11t-7 -8t-10 -7l-6 -2q-397 -172 -422 -177q-8 -2 -23 -2h-102q-31 2 -35 25zM186 94v1231q0 96 86 96h111q94 0 94 -92v-1231q0 -39 -6 -53q-4 -10 -12 -19.5t-14.5 -13.5t-16.5 -7 t-15 -3t-15.5 -1t-12.5 -1h-104q-45 0 -70 19.5t-25 74.5z" />
<glyph unicode="&#xce;" horiz-adv-x="665" d="M-18 1532q0 14 18 37q49 66 117 155q82 111 100.5 129.5t44.5 18.5h154q16 0 33.5 -19.5t99.5 -128.5q68 -90 117 -153q20 -31 20 -39q0 -27 -39 -27h-59q-25 0 -45.5 14.5t-112.5 100.5q-57 53 -96 88q-35 -31 -70 -63.5t-53 -50t-37.5 -36t-30 -25.5t-20.5 -14.5 t-17.5 -9.5t-15.5 -3t-20 -1h-37q-51 0 -51 27zM188 94v1231q0 96 86 96h111q94 0 94 -92v-1231q0 -39 -6 -53q-4 -10 -12 -19.5t-14.5 -13.5t-16.5 -7t-15 -3t-15.5 -1t-12.5 -1h-104q-45 0 -70 19.5t-25 74.5z" />
<glyph unicode="&#xcf;" horiz-adv-x="665" d="M-31 1651v102q0 33 8.5 53.5t28 28.5t26.5 9t29 3h105q43 0 68.5 -18.5t25.5 -75.5v-104q0 -18 -3 -31.5t-8 -23t-12.5 -16.5t-13.5 -11t-16 -6t-15.5 -2t-13.5 -1.5t-10 -1.5h-105q-43 0 -68.5 20t-25.5 75zM188 94v1231q0 96 86 96h111q94 0 94 -92v-1231q0 -39 -6 -53 q-4 -10 -12 -19.5t-14.5 -13.5t-16.5 -7t-15 -3t-15.5 -1t-12.5 -1h-104q-45 0 -70 19.5t-25 74.5zM408 1651v102q0 33 7 53.5t25.5 28.5t27.5 9t32 3h104q43 0 68.5 -18.5t25.5 -75.5v-106q0 -18 -4 -34t-11 -25t-14 -15t-18.5 -9t-17.5 -4t-17 -4h-10h-104q-45 0 -69.5 20 t-24.5 75z" />
<glyph unicode="&#xd0;" horiz-adv-x="1626" d="M-74 698q0 16 5.5 30.5t28 30t60.5 15.5h166v555q0 92 86 92h508q61 0 106.5 -2t126.5 -16t139 -41t129 -80t115 -128t74.5 -191.5t30.5 -264.5q0 -178 -45 -309t-111.5 -203.5t-168 -116.5t-191.5 -56.5t-203 -12.5h-506q-90 0 -90 92v533h-170q-37 0 -58 15t-26.5 29.5 t-5.5 28.5zM471 176h227q74 0 123 4t114.5 18.5t117 50.5t88.5 91q70 106 73 317v23q0 98 -5 159.5t-28.5 144.5t-68.5 132t-132 87t-210 42h-297l-2 -69v-402h295q57 0 78 -10q41 -20 41 -66q0 -29 -21.5 -51t-52.5 -22h-340v-449z" />
<glyph unicode="&#xd1;" horiz-adv-x="1626" d="M186 94v1235q0 92 95 92h188q66 0 96.5 -24.5t59.5 -79.5l561 -1075v1085q0 27 3 43t25.5 33.5t65.5 17.5h68q90 0 90 -92v-1237q0 -92 -95 -92h-186q-66 0 -97.5 25.5t-60.5 78.5l-561 1076v-1086q0 -94 -94 -94h-68q-90 0 -90 94zM438 1548q0 57 19.5 122t73 121 t131.5 56q53 0 99 -29.5t73.5 -65.5t60.5 -65.5t63 -31.5l15 2l16 6q39 31 47 99.5t11 72.5q10 14 43 14q4 0 14 -1t16 -1h23q23 0 34 -7t11 -36q0 -55 -19.5 -119.5t-74 -122t-131.5 -57.5q-53 0 -99.5 30t-73 65.5t-59.5 65.5t-63 32h-17l-14 -8q-37 -31 -46 -99.5 t-11 -72.5q-8 -12 -50 -13h-49q-23 0 -33 7t-10 36z" />
<glyph unicode="&#xd2;" horiz-adv-x="1626" d="M123 702q0 766 686 766q690 0 690 -766q0 -748 -686 -747q-690 -1 -690 747zM414 707q0 -51 1 -88t9 -102.5t22.5 -114t44 -104.5t70.5 -92t105.5 -60.5t146.5 -24.5q162 0 262 100q47 47 76 112.5t40 146.5t14 134.5t3 135.5v14q0 49 -1 84t-9 97.5t-22.5 105.5t-44 95 t-70.5 85t-105.5 55.5t-144.5 22.5q-166 0 -268 -99q-59 -57 -90 -153t-35 -161t-4 -173v-16zM475 1773q4 25 41 25h285q27 0 52.5 -16.5t123.5 -92.5q51 -41 86 -67q14 -12 20 -29v-8q-8 -20 -39 -21h-106q-27 0 -275 107q-92 41 -149 65q-18 8 -25.5 14.5t-9.5 9.5t-4 13z " />
<glyph unicode="&#xd3;" horiz-adv-x="1626" d="M123 702q0 766 686 766q690 0 690 -766q0 -748 -686 -747q-690 -1 -690 747zM414 707q0 -51 1 -88t9 -102.5t22.5 -114t44 -104.5t70.5 -92t105.5 -60.5t146.5 -24.5q162 0 262 100q47 47 76 112.5t40 146.5t14 134.5t3 135.5v14q0 49 -1 84t-9 97.5t-22.5 105.5t-44 95 t-70.5 85t-105.5 55.5t-144.5 22.5q-166 0 -268 -99q-59 -57 -90 -153t-35 -161t-4 -173v-16zM539 1589q0 12 14 27q47 37 115 88q90 72 109.5 83t44.5 11h284q41 0 41 -27q0 -6 -3 -11t-7 -8t-10 -7l-6 -2q-397 -172 -422 -177q-8 -2 -23 -2h-102q-31 2 -35 25z" />
<glyph unicode="&#xd4;" horiz-adv-x="1626" d="M123 702q0 766 686 766q690 0 690 -766q0 -748 -686 -747q-690 -1 -690 747zM414 707q0 -51 1 -88t9 -102.5t22.5 -114t44 -104.5t70.5 -92t105.5 -60.5t146.5 -24.5q162 0 262 100q47 47 76 112.5t40 146.5t14 134.5t3 135.5v14q0 49 -1 84t-9 97.5t-22.5 105.5t-44 95 t-70.5 85t-105.5 55.5t-144.5 22.5q-166 0 -268 -99q-59 -57 -90 -153t-35 -161t-4 -173v-16zM459 1532q0 14 18 37q55 74 127 170q74 100 90.5 116.5t42.5 16.5h156q16 0 35.5 -21.5t118.5 -152.5q57 -76 96 -127q20 -31 20 -39q0 -27 -39 -27h-63q-23 0 -41.5 13.5 t-108.5 97.5q-59 55 -100 92q-27 -25 -55.5 -51.5t-46 -43t-36 -32.5t-29.5 -25.5t-21.5 -19.5t-17.5 -14t-14 -8.5t-12.5 -5.5t-10.5 -2t-13 -1h-45q-51 0 -51 27z" />
<glyph unicode="&#xd5;" horiz-adv-x="1626" d="M123 702q0 766 686 766q690 0 690 -766q0 -748 -686 -747q-690 -1 -690 747zM414 707q0 -51 1 -88t9 -102.5t22.5 -114t44 -104.5t70.5 -92t105.5 -60.5t146.5 -24.5q162 0 262 100q47 47 76 112.5t40 146.5t14 134.5t3 135.5v14q0 49 -1 84t-9 97.5t-22.5 105.5t-44 95 t-70.5 85t-105.5 55.5t-144.5 22.5q-166 0 -268 -99q-59 -57 -90 -153t-35 -161t-4 -173v-16zM436 1548q0 115 61.5 207t161.5 92q53 0 100.5 -29.5t74 -65.5t60.5 -65.5t62 -31.5l17 2l14 6q29 25 39 58.5t8 59t6.5 45t32.5 21.5h68q23 0 34 -7t11 -36q0 -57 -19.5 -121.5 t-73 -121t-130.5 -56.5q-53 0 -99.5 30t-74 65.5t-60.5 65.5t-63 32l-15 -2l-16 -6q-37 -31 -46 -99.5t-11 -72.5q-10 -12 -46 -13h-53q-23 0 -33 8t-10 35z" />
<glyph unicode="&#xd6;" horiz-adv-x="1626" d="M123 702q0 766 686 766q690 0 690 -766q0 -748 -686 -747q-690 -1 -690 747zM414 707q0 -51 1 -88t9 -102.5t22.5 -114t44 -104.5t70.5 -92t105.5 -60.5t146.5 -24.5q162 0 262 100q47 47 76 112.5t40 146.5t14 134.5t3 135.5v14q0 49 -1 84t-9 97.5t-22.5 105.5t-44 95 t-70.5 85t-105.5 55.5t-144.5 22.5q-166 0 -268 -99q-59 -57 -90 -153t-35 -161t-4 -173v-16zM446 1651v102q0 33 8.5 52.5t25 27.5t27.5 10t32 4h104q43 0 68.5 -18.5t25.5 -75.5v-106q0 -14 -2 -26.5t-7 -22t-9 -15.5t-12.5 -11t-13.5 -7t-14 -4t-12 -2t-12 -3h-10h-104 q-43 0 -69 20t-26 75zM885 1651v102q0 33 7 53.5t25.5 28.5t27.5 9t32 3h104q43 0 69 -18.5t26 -75.5v-106q0 -18 -4.5 -34t-11.5 -25t-14 -15t-18.5 -9t-17.5 -4t-16 -4h-11h-106q-92 1 -92 95z" />
<glyph unicode="&#xd8;" horiz-adv-x="1751" d="M123 692q0 776 745 776q176 0 328 -47q10 16 22.5 38t18.5 34t15.5 27.5t14.5 23.5t12 17.5t11 14.5t11.5 10t12.5 7t12 3t15 1q33 0 57.5 -23.5t24.5 -55.5q0 -25 -82 -166q283 -180 283 -656q0 -741 -752 -741q-186 0 -321 45q-8 -16 -25 -43q-49 -86 -68.5 -109.5 t-52 -23.5t-58 23.5t-25.5 56.5q0 8 2 15t9 21.5t13 27t23.5 43t33.5 57.5q-280 173 -280 624zM379 694q0 -330 125 -458l606 1040q-115 43 -238 43q-100 0 -180 -24.5t-131 -59.5t-87 -92.5t-54.5 -105.5t-27.5 -117.5t-11 -109.5t-2 -99v-17zM635 143q119 -41 235 -41 q100 0 178 21.5t129.5 53.5t88.5 85t56 100.5t29.5 116t12.5 115.5t2 115q0 162 -23.5 271.5t-99.5 203.5z" />
<glyph unicode="&#xd9;" horiz-adv-x="1564" d="M186 492v827q0 31 3.5 48t26 35.5t65.5 18.5h102q27 0 43 -4t33.5 -26.5t17.5 -65.5v-829q0 -82 8.5 -135.5t34 -107.5t80.5 -84t141 -36l52 -2q86 2 145 24.5t90 54.5t48.5 86t20.5 95t3 107v831q0 43 19.5 64.5t35.5 24.5t43 3h90q86 0 86 -94v-829q0 -260 -138 -400.5 t-452 -142.5q-598 0 -598 537zM444 1773q4 25 41 25h285q27 0 52.5 -16.5t123.5 -92.5q51 -41 86 -67q14 -12 20 -29v-8q-8 -20 -39 -21h-106q-27 0 -275 107q-92 41 -149 65q-18 8 -25.5 14.5t-9.5 9.5t-4 13z" />
<glyph unicode="&#xda;" horiz-adv-x="1564" d="M186 492v827q0 31 3.5 48t26 35.5t65.5 18.5h102q27 0 43 -4t33.5 -26.5t17.5 -65.5v-829q0 -82 8.5 -135.5t34 -107.5t80.5 -84t141 -36l52 -2q86 2 145 24.5t90 54.5t48.5 86t20.5 95t3 107v831q0 43 19.5 64.5t35.5 24.5t43 3h90q86 0 86 -94v-829q0 -260 -138 -400.5 t-452 -142.5q-598 0 -598 537zM602 1589q0 12 14 27q47 37 115 88q90 72 109.5 83t44.5 11h284q41 0 41 -27q0 -6 -3 -11t-7 -8t-10 -7l-6 -2q-397 -172 -422 -177q-8 -2 -23 -2h-102q-31 2 -35 25z" />
<glyph unicode="&#xdb;" horiz-adv-x="1564" d="M186 492v827q0 31 3.5 48t26 35.5t65.5 18.5h102q27 0 43 -4t33.5 -26.5t17.5 -65.5v-829q0 -82 8.5 -135.5t34 -107.5t80.5 -84t141 -36l52 -2q86 2 145 24.5t90 54.5t48.5 86t20.5 95t3 107v831q0 43 19.5 64.5t35.5 24.5t43 3h90q86 0 86 -94v-829q0 -260 -138 -400.5 t-452 -142.5q-598 0 -598 537zM432 1532q0 14 17 35q51 70 122 164q78 104 96.5 122.5t45.5 18.5h145q18 0 36.5 -19.5t117.5 -148.5q61 -78 102 -131q23 -33 23 -41q0 -27 -37 -27h-66q-20 0 -40.5 15.5t-116.5 103.5q-55 51 -93 84q-31 -27 -61.5 -56.5t-49 -46t-37 -34 t-28.5 -26.5t-21.5 -17t-17.5 -12.5t-13 -6.5t-13 -3t-15 -1h-49q-47 0 -47 27z" />
<glyph unicode="&#xdc;" horiz-adv-x="1564" d="M186 492v827q0 31 3.5 48t26 35.5t65.5 18.5h102q27 0 43 -4t33.5 -26.5t17.5 -65.5v-829q0 -82 8.5 -135.5t34 -107.5t80.5 -84t141 -36l52 -2q86 2 145 24.5t90 54.5t48.5 86t20.5 95t3 107v831q0 43 19.5 64.5t35.5 24.5t43 3h90q86 0 86 -94v-829q0 -260 -138 -400.5 t-452 -142.5q-598 0 -598 537zM416 1651v104q0 18 3 31.5t7 23t12 16.5t14.5 11t16.5 6t14 2t17 2h10h102q47 0 71 -20.5t24 -73.5v-104q0 -16 -3.5 -30.5t-8.5 -24t-13 -16.5t-14 -10t-15.5 -6t-14.5 -3t-15 -3h-9h-104q-94 1 -94 95zM854 1653v98q0 16 2 29.5t6 22.5 t8 16.5t11.5 12.5t12.5 8t14.5 4t12.5 2t13 1h12h105q94 0 94 -92v-108q0 -18 -4 -34t-11.5 -25t-15.5 -15t-19.5 -9t-16.5 -4t-15 -4h-10h-107q-92 1 -92 97z" />
<glyph unicode="&#xdd;" horiz-adv-x="1501" d="M51 1374q0 47 70 47h127q23 0 40 -2t35.5 -10t31 -15.5t33 -29t33.5 -38.5t43 -58t51.5 -73t65.5 -95.5t81 -116.5q88 -131 102 -158q23 47 332 488q43 61 77.5 84.5t104.5 23.5h100q70 0 70 -47q0 -16 -37 -69l-510 -725q-10 -27 -10 -56v-428q0 -57 -23.5 -76.5 t-70.5 -19.5h-101q-90 0 -90 92v477l-526 746q-29 39 -29 59zM569 1591q0 10 15 25q47 37 114 88q90 72 109.5 83t44.5 11h287q41 0 41 -26q0 -6 -3 -11.5t-7.5 -8.5l-10.5 -7l-6 -2q-98 -43 -229 -98q-137 -59 -165 -69.5t-50 -10.5h-105q-31 1 -35 26z" />
<glyph unicode="&#xde;" horiz-adv-x="1314" d="M186 96v1231q0 27 4.5 44.5t27 33.5t63.5 16h98q88 0 88 -94v-117h219q55 0 80 -1t88.5 -9t98 -22.5t86 -45t79 -72.5t49 -110.5t21.5 -154.5q0 -94 -21.5 -168t-62.5 -119t-85 -75t-105.5 -43t-107.5 -17t-106 -4h-233v-275q0 -94 -94 -94h-97q-90 0 -90 96zM467 547 h166q41 0 66.5 2t70.5 14t72.5 37t49 73t21.5 118q0 61 -15 106t-49 70.5t-58.5 41t-72.5 19.5t-58.5 5t-49.5 1h-143v-487z" />
<glyph unicode="&#xdf;" horiz-adv-x="1157" d="M123 96v1073q0 61 12 111.5t41 84.5t54.5 58.5t71.5 39t73.5 23.5t81 12t71 3h64.5q211 0 324.5 -72.5t113.5 -261.5q0 -66 -11 -118t-24.5 -85.5t-40 -60t-44 -39t-49.5 -21.5t-42 -11.5t-37 -6.5q-35 -4 -46 -22.5t-11 -85.5q0 -61 13.5 -78.5t49.5 -24.5 q106 -20 156 -55q25 -16 47 -41q88 -90 88 -231q0 -309 -295 -310q-102 0 -182 45.5t-80 77.5q23 164 41 187l8 6h9q10 0 30.5 -39t62.5 -77t105 -38q98 0 99 107q0 20 -5.5 37.5t-10.5 29t-18.5 21.5t-20.5 15t-26.5 11.5t-25.5 7.5t-28.5 6t-26.5 5q-84 23 -139.5 102.5 t-55.5 200.5q0 276 234 291q0 6 1 16t1 17q0 31 -3 88t-3 75q0 47 -3.5 69t-17.5 54.5t-51 46t-98 13.5h-9q-111 0 -142.5 -43t-31.5 -133v-1082q0 -94 -98 -94h-86q-90 0 -90 96z" />
<glyph unicode="&#xe0;" horiz-adv-x="1075" d="M61 281q0 80 47.5 139t114 92t157.5 52.5t157.5 25.5t134.5 6v43q0 88 -29 139t-117 51q-80 0 -145.5 -21.5t-97 -48t-59 -49t-40.5 -22.5l-8 2l-8 6q-6 10 -11 50t-7 73l-3 35q0 10 1.5 15t7.5 11.5t9 8.5t17.5 8t22.5 10q147 66 321 66q233 0 328.5 -88t95.5 -254v-539 q0 -92 -92 -92h-98q-45 0 -64.5 24.5t-19.5 57.5q-135 -104 -316 -105q-137 0 -218 94.5t-81 209.5zM330 281q0 -59 39 -106.5t102 -47.5q70 0 135.5 44t65.5 144v160q-63 -6 -108.5 -13t-107 -26.5t-94 -59.5t-32.5 -95zM346 1360v10q8 20 43 21h189q27 0 45 -18.5 t104 -131.5q49 -63 80 -104l10 -21l2 -8q-2 -27 -39 -27h-55q-27 0 -36 4.5t-38 26.5q-297 231 -301 236.5t-4 11.5z" />
<glyph unicode="&#xe1;" horiz-adv-x="1075" d="M61 281q0 80 47.5 139t114 92t157.5 52.5t157.5 25.5t134.5 6v43q0 88 -29 139t-117 51q-80 0 -145.5 -21.5t-97 -48t-59 -49t-40.5 -22.5l-8 2l-8 6q-6 10 -11 50t-7 73l-3 35q0 10 1.5 15t7.5 11.5t9 8.5t17.5 8t22.5 10q147 66 321 66q233 0 328.5 -88t95.5 -254v-539 q0 -92 -92 -92h-98q-45 0 -64.5 24.5t-19.5 57.5q-135 -104 -316 -105q-137 0 -218 94.5t-81 209.5zM301 1106q0 4 2 8t6 11.5t9.5 15.5t15.5 20.5t20.5 25.5t25.5 33.5t30.5 39t38 48t43 56.5t57.5 27h174q27 0 47 -11l6 -10v-8q-2 -12 -45 -47q-20 -16 -35 -27 q-61 -47 -143 -112q-90 -72 -108.5 -83.5t-43.5 -11.5h-53q-2 0 -11 1t-13.5 1t-10.5 2t-9 7.5t-3 13.5zM330 281q0 -59 39 -106.5t102 -47.5q70 0 135.5 44t65.5 144v160q-63 -6 -108.5 -13t-107 -26.5t-94 -59.5t-32.5 -95z" />
<glyph unicode="&#xe2;" horiz-adv-x="1075" d="M61 281q0 80 47.5 139t114 92t157.5 52.5t157.5 25.5t134.5 6v43q0 88 -29 139t-117 51q-80 0 -145.5 -21.5t-97 -48t-59 -49t-40.5 -22.5l-8 2l-8 6q-6 10 -11 50t-7 73l-3 35q0 10 1.5 15t7.5 11.5t9 8.5t17.5 8t22.5 10q147 66 321 66q233 0 328.5 -88t95.5 -254v-539 q0 -92 -92 -92h-98q-45 0 -64.5 24.5t-19.5 57.5q-135 -104 -316 -105q-137 0 -218 94.5t-81 209.5zM182 1106q0 12 21.5 36.5t185.5 200.5q4 4 10.5 11.5t9.5 9.5t7 7t6 6t6 4t7 4t8.5 2.5t10.5 1.5h11h194q12 0 19.5 -1.5t13.5 -6.5t9.5 -8t10.5 -14t11 -16 q162 -221 164 -229q2 -4 2 -8q0 -27 -58 -27h-43q-25 0 -42 10.5t-109 79.5q-61 45 -102 76q-213 -158 -226 -164q-8 -2 -26 -2h-45q-56 0 -56 27zM330 281q0 -59 39 -106.5t102 -47.5q70 0 135.5 44t65.5 144v160q-63 -6 -108.5 -13t-107 -26.5t-94 -59.5t-32.5 -95z" />
<glyph unicode="&#xe3;" horiz-adv-x="1075" d="M61 281q0 80 47.5 139t114 92t157.5 52.5t157.5 25.5t134.5 6v43q0 88 -29 139t-117 51q-80 0 -145.5 -21.5t-97 -48t-59 -49t-40.5 -22.5l-8 2l-8 6q-6 10 -11 50t-7 73l-3 35q0 10 1.5 15t7.5 11.5t9 8.5t17.5 8t22.5 10q147 66 321 66q233 0 328.5 -88t95.5 -254v-539 q0 -92 -92 -92h-98q-45 0 -64.5 24.5t-19.5 57.5q-135 -104 -316 -105q-137 0 -218 94.5t-81 209.5zM186 1147q0 76 63.5 146.5t166.5 70.5q86 0 176 -52t117 -52h2q51 0 69 51l4 20q4 20 13.5 26.5t29.5 6.5h66q41 0 41 -39q0 -72 -59.5 -144.5t-167.5 -72.5 q-84 0 -175.5 53t-117.5 53h-2q-51 0 -70 -51q-2 -4 -5 -22.5t-12.5 -25.5t-29.5 -7h-62q-47 0 -47 39zM330 281q0 -59 39 -106.5t102 -47.5q70 0 135.5 44t65.5 144v160q-63 -6 -108.5 -13t-107 -26.5t-94 -59.5t-32.5 -95z" />
<glyph unicode="&#xe4;" horiz-adv-x="1075" d="M61 281q0 80 47.5 139t114 92t157.5 52.5t157.5 25.5t134.5 6v43q0 88 -29 139t-117 51q-80 0 -145.5 -21.5t-97 -48t-59 -49t-40.5 -22.5l-8 2l-8 6q-6 10 -11 50t-7 73l-3 35q0 10 1.5 15t7.5 11.5t9 8.5t17.5 8t22.5 10q147 66 321 66q233 0 328.5 -88t95.5 -254v-539 q0 -92 -92 -92h-98q-45 0 -64.5 24.5t-19.5 57.5q-135 -104 -316 -105q-137 0 -218 94.5t-81 209.5zM197 1223v108q0 90 96 90h100q47 0 70.5 -20.5t23.5 -75.5v-100q0 -16 -2 -28.5t-7 -22t-9 -16.5t-12 -11t-13.5 -7t-14.5 -5t-13 -2t-13 -3h-8h-104q-94 1 -94 93z M330 281q0 -59 39 -106.5t102 -47.5q70 0 135.5 44t65.5 144v160q-63 -6 -108.5 -13t-107 -26.5t-94 -59.5t-32.5 -95zM633 1227q0 4 1 11t1 11v62q0 2 -1 6t-1 6q0 35 7 55.5t24.5 29.5t29 10t33.5 3h104q94 0 95 -92q0 -4 -1 -11t-1 -11v-74q0 -2 1 -6t1 -8q0 -18 -4 -34 t-11.5 -24t-14.5 -14t-18.5 -9t-17.5 -4t-16 -4h-10h-107q-94 1 -94 97z" />
<glyph unicode="&#xe5;" horiz-adv-x="1075" d="M61 281q0 80 47.5 139t114 92t157.5 52.5t157.5 25.5t134.5 6v43q0 88 -29 139t-117 51q-80 0 -145.5 -21.5t-97 -48t-59 -49t-40.5 -22.5l-8 2l-8 6q-6 10 -11 50t-7 73l-3 35q0 10 1.5 15t7.5 11.5t9 8.5t17.5 8t22.5 10q147 66 321 66q233 0 328.5 -88t95.5 -254v-539 q0 -92 -92 -92h-98q-45 0 -64.5 24.5t-19.5 57.5q-135 -104 -316 -105q-137 0 -218 94.5t-81 209.5zM285 1186q0 168 221 178h43q238 -2 237 -178q0 -168 -219 -178h-45q-237 4 -237 178zM330 281q0 -59 39 -106.5t102 -47.5q70 0 135.5 44t65.5 144v160q-63 -6 -108.5 -13 t-107 -26.5t-94 -59.5t-32.5 -95zM412 1188q0 -61 28.5 -85t91.5 -24q82 2 105 27q25 25 25 80q0 61 -29 83.5t-92 22.5h-17q-16 0 -19 -1t-17.5 -2t-17.5 -3t-14.5 -6t-15.5 -9t-11 -13.5t-10 -17.5t-5 -22.5t-2 -29.5z" />
<glyph unicode="&#xe6;" horiz-adv-x="1626" d="M61 256q0 78 54.5 134t148.5 84t192.5 41t215.5 13v115q0 53 -6.5 88t-41 66.5t-98.5 31.5q-78 0 -142.5 -21.5t-97 -46t-60 -48t-40.5 -25.5l-8 2l-8 4q-8 10 -13 50t-7 75l-3 35q0 20 10.5 29.5t43.5 23.5q147 66 342 66q201 0 305 -82h2q115 82 307 82q403 0 404 -445 q0 -41 -17.5 -62.5t-36 -24.5t-49.5 -3h-506q4 -311 242 -311q68 0 127 20.5t91 45t60.5 46t38.5 23.5l9 -2l8 -6q8 -12 13 -47t7 -64v-30q0 -18 -9 -27.5t-38 -26.5q-143 -82 -319 -82q-229 0 -361 113h-2q-139 -113 -465 -113q-139 0 -216 88.5t-77 190.5zM332 254 q0 -43 34.5 -86t114.5 -43t152 40t72 85q0 8 -4.5 24.5t-11.5 48t-13 72.5q-33 0 -74 -4t-110.5 -15t-114.5 -43t-45 -79zM956 571h371q-4 117 -41 184.5t-129 67.5q-183 0 -201 -252z" />
<glyph unicode="&#xe7;" horiz-adv-x="1001" d="M74 467q0 119 26.5 208t71.5 145.5t110.5 91t136 48t154.5 13.5q102 0 172 -17.5t160 -66.5q16 -10 17 -33q-10 -160 -50 -160q-14 0 -64 41t-97 58q-53 18 -158 18q-55 -2 -95 -26.5t-59.5 -55.5t-31 -80t-12.5 -78.5t-1 -76.5v-37q0 -51 2 -84t13.5 -83t32 -80 t63.5 -52.5t102 -22.5q74 0 135.5 19.5t94 43t60.5 45t40 23.5l10 -2q12 -8 14.5 -22.5t12.5 -120.5v-17q0 -29 -41 -51q-150 -78 -332 -78q-141 0 -240.5 41t-150.5 114t-73.5 155t-22.5 180zM301 -367q0 14 170 279q27 41 55 41h60q47 0 47 -29q0 -10 -113 -282 q-16 -37 -51 -37h-131q-37 -1 -37 28z" />
<glyph unicode="&#xe8;" horiz-adv-x="1046" d="M61 477q0 250 131.5 373t360.5 123q123 0 210 -38t133 -104.5t65.5 -140.5t19.5 -164q0 -88 -90 -88h-565q8 -311 260 -311q90 0 164.5 29.5t122 65.5t55.5 38h8l10 -4q10 -10 15.5 -46t5.5 -67l2 -30q0 -27 -33 -45q-158 -90 -354 -91q-256 0 -388.5 127t-132.5 373z M328 571h424q-6 119 -47 185.5t-152 66.5q-200 0 -225 -252zM369 1366v2q6 23 43 23h188q27 0 45.5 -18.5t104.5 -131.5q49 -63 79 -104l13 -21l2 -8q-2 -27 -39 -27h-57q-27 0 -36.5 4.5t-37.5 26.5q-76 57 -174 135q-96 74 -113.5 89.5t-17.5 29.5z" />
<glyph unicode="&#xe9;" horiz-adv-x="1046" d="M61 477q0 250 131.5 373t360.5 123q123 0 210 -38t133 -104.5t65.5 -140.5t19.5 -164q0 -88 -90 -88h-565q8 -311 260 -311q90 0 164.5 29.5t122 65.5t55.5 38h8l10 -4q10 -10 15.5 -46t5.5 -67l2 -30q0 -27 -33 -45q-158 -90 -354 -91q-256 0 -388.5 127t-132.5 373z M264 1106q0 4 2 8t6 11.5t9.5 15.5t15.5 20.5t20.5 25.5t25.5 33.5t30.5 39t38 48t42.5 56.5q23 27 54 27h178q25 0 45 -11l6 -10v-8q-2 -14 -53 -55q-16 -10 -25 -19q-53 -41 -129 -100q-102 -80 -122.5 -93.5t-45.5 -13.5h-53q-2 0 -11 1t-13.5 1t-9.5 2t-8 7.5t-3 13.5z M328 571h424q-6 119 -47 185.5t-152 66.5q-200 0 -225 -252z" />
<glyph unicode="&#xea;" horiz-adv-x="1046" d="M61 477q0 250 131.5 373t360.5 123q123 0 210 -38t133 -104.5t65.5 -140.5t19.5 -164q0 -88 -90 -88h-565q8 -311 260 -311q90 0 164.5 29.5t122 65.5t55.5 38h8l10 -4q10 -10 15.5 -46t5.5 -67l2 -30q0 -27 -33 -45q-158 -90 -354 -91q-256 0 -388.5 127t-132.5 373z M170 1106q0 12 25.5 42t183.5 198q39 43 72 43h145q23 0 40 -15.5t95 -99.5q70 -78 123 -133q20 -27 20 -35q0 -27 -55 -27h-47q-27 0 -76 37q-20 12 -78.5 56.5t-97.5 72.5q-213 -158 -225 -162q-8 -4 -27 -4h-43q-55 0 -55 27zM328 571h424q-6 119 -47 185.5t-152 66.5 q-200 0 -225 -252z" />
<glyph unicode="&#xeb;" horiz-adv-x="1046" d="M61 477q0 250 131.5 373t360.5 123q123 0 210 -38t133 -104.5t65.5 -140.5t19.5 -164q0 -88 -90 -88h-565q8 -311 260 -311q90 0 164.5 29.5t122 65.5t55.5 38h8l10 -4q10 -10 15.5 -46t5.5 -67l2 -30q0 -27 -33 -45q-158 -90 -354 -91q-256 0 -388.5 127t-132.5 373z M158 1225v102q0 33 8 53.5t27.5 28.5t26.5 9t30 3h104q43 0 69 -18.5t26 -75.5v-104q0 -18 -3.5 -31.5t-8.5 -23t-12 -16.5t-13 -11t-16.5 -6t-15.5 -2t-13.5 -1.5t-10.5 -1.5h-104q-43 0 -68.5 20t-25.5 75zM328 571h424q-6 119 -47 185.5t-152 66.5q-200 0 -225 -252z M594 1225v100q0 33 8 54.5t25.5 29.5t28 9t32.5 3h103q96 0 96 -94q0 -4 -1 -11t-1 -9v-86q0 -18 -4 -34t-11.5 -25t-14.5 -15t-17.5 -9t-16.5 -4t-16 -4h-10h-107q-43 0 -68.5 20t-25.5 75z" />
<glyph unicode="&#xec;" horiz-adv-x="522" d="M-78 1360v10q8 20 41 21h191q27 0 42 -15.5t97 -124.5q53 -68 88 -114l12 -21l2 -8q-2 -27 -39 -27h-57q-27 0 -36 4.5t-38 26.5q-88 70 -194 152q-82 63 -95.5 75.5t-13.5 20.5zM123 102v744q0 92 90 92h84q45 0 68.5 -16.5t27.5 -35t4 -50.5v-744q0 -92 -90 -92h-94 q-43 0 -64.5 20.5t-23.5 36.5t-2 45z" />
<glyph unicode="&#xed;" horiz-adv-x="522" d="M63 1106q0 16 189 256q23 29 55 29h176q27 0 47 -11l7 -10v-8q-2 -14 -54 -55q-16 -10 -24 -19q-53 -41 -129 -100q-102 -80 -123 -93.5t-45 -13.5h-53q-46 0 -46 25zM123 102v744q0 92 90 92h84q45 0 68.5 -16.5t27.5 -35t4 -50.5v-744q0 -92 -90 -92h-94 q-43 0 -64.5 20.5t-23.5 36.5t-2 45z" />
<glyph unicode="&#xee;" horiz-adv-x="522" d="M-88 1106q0 12 21.5 36.5t187.5 203.5q4 4 9 10t8 9t8.5 8t8.5 7t9 4t12 3.5t14 1.5h146q23 0 41 -16.5t108 -112.5q66 -70 111 -119q18 -23 18 -35q0 -27 -55 -27h-47q-20 0 -38.5 11.5t-98.5 70.5q-66 49 -113 84q-102 -82 -158.5 -121t-66.5 -42t-25 -3h-45 q-55 0 -55 27zM125 102v744q0 92 90 92h84q45 0 68.5 -16.5t27.5 -35t4 -50.5v-744q0 -92 -90 -92h-94q-43 0 -64.5 20.5t-23.5 36.5t-2 45z" />
<glyph unicode="&#xef;" horiz-adv-x="649" d="M-41 1227v96q0 16 2 29.5t6 23.5t8.5 17.5t12.5 12.5t12 7t14.5 4t13.5 3t13 1h12h103q94 0 94 -92v-110q0 -18 -4 -34t-11.5 -24t-14.5 -14t-17 -9t-16.5 -4t-16.5 -4h-10h-109q-43 0 -67.5 20t-24.5 77zM186 102v744q0 92 90 92h84q45 0 69 -16.5t28 -35t4 -50.5v-744 q0 -92 -90 -92h-95q-43 0 -64.5 20.5t-23.5 36.5t-2 45zM397 1223v106q0 53 23.5 72.5t73.5 19.5h100q47 0 70.5 -20.5t23.5 -75.5v-102q0 -18 -3 -31.5t-8 -23t-12.5 -16.5t-13.5 -11t-16 -6t-15.5 -2t-13.5 -1.5t-10 -1.5h-104q-95 1 -95 93z" />
<glyph unicode="&#xf0;" d="M61 461q0 82 13.5 151.5t48.5 138t90 115.5t144 77t206 30h4q51 0 101 -6q-41 61 -68 93t-96 99h-2q-90 -51 -101 -51q-16 0 -41 39q-66 113 -65 125l4 16q-109 39 -117 49q-4 4 -4 11q0 4 2 8t7.5 10t10.5 11t14 13.5t17.5 14.5t23.5 18.5t26 22.5q37 31 53 31 q59 0 182 -62h2q100 59 119 60q14 0 43 -48q59 -102 59 -114q0 -14 -18 -29q76 -74 121 -125t104.5 -144t88 -214t28.5 -269v-40q0 -59 -4 -104.5t-19.5 -111t-49.5 -113.5t-86 -93t-139 -69t-202 -24q-500 1 -500 484zM342 436q2 -43 4 -66.5t8 -64.5t20.5 -65.5t37 -51 t60.5 -39t89 -12.5q61 0 104.5 22.5t66 52.5t33.5 82t13 89t2 96v17q0 51 -2 82.5t-13 84t-32.5 83t-65.5 54t-105.5 23.5t-105.5 -22.5t-65.5 -50t-33 -72.5t-13.5 -71.5t-2 -63.5v-107z" />
<glyph unicode="&#xf1;" horiz-adv-x="1148" d="M121 92v764q0 39 16.5 61.5t33.5 26.5t42 4h82q20 0 31.5 -2t29 -9t25.5 -26.5t8 -50.5v-41q141 141 332 142q74 0 128 -13.5t86 -41t51.5 -53.5t26.5 -72t9 -73.5t2 -76.5v-541q0 -90 -88 -90h-96q-55 0 -75 23.5t-20 66.5v561q0 31 -1 47.5t-7 41t-18 38t-36 23.5 t-58 10q-86 0 -139.5 -52t-71.5 -114q-12 -45 -13 -110v-426q0 -4 -1 -11.5t-6 -27t-13 -33.5t-27.5 -25.5t-46.5 -11.5h-90q-96 0 -96 92zM199 1147q0 74 62.5 145.5t166.5 71.5q86 0 176 -52t117 -52h2q51 0 70 51l4 20q4 20 13 26.5t30 6.5h65q43 0 43 -39 q0 -72 -60.5 -144.5t-168.5 -72.5q-84 0 -176 53t-119 53q-49 0 -72 -51q-2 -4 -5 -22.5t-12 -25.5t-30 -7h-59q-47 0 -47 39z" />
<glyph unicode="&#xf2;" d="M61 459q0 147 40 251.5t110 160t147.5 79t171.5 23.5q53 0 93.5 -2t98.5 -13.5t101 -32t90.5 -59.5t78 -92t50 -136t19.5 -187q0 -473 -498 -474q-502 1 -502 482zM342 438q2 -53 4 -79.5t14.5 -77t33 -76t63.5 -47t104.5 -21.5t104.5 21.5t64.5 49.5t33.5 76t14 81.5 t2 85.5v16v55q0 43 -2 64.5t-7 64.5t-19.5 67.5t-38 52.5t-62.5 40t-92 12q-63 0 -107 -22.5t-64.5 -50t-32 -82t-12.5 -84t-1 -90.5v-56zM346 1360v10q8 20 43 21h189q27 0 45 -18.5t104 -131.5q49 -63 80 -104l10 -21l2 -8q-2 -27 -39 -27h-55q-27 0 -36 4.5t-38 26.5 q-297 231 -301 236.5t-4 11.5z" />
<glyph unicode="&#xf3;" d="M61 459q0 147 40 251.5t110 160t147.5 79t171.5 23.5q53 0 93.5 -2t98.5 -13.5t101 -32t90.5 -59.5t78 -92t50 -136t19.5 -187q0 -473 -498 -474q-502 1 -502 482zM342 438q2 -53 4 -79.5t14.5 -77t33 -76t63.5 -47t104.5 -21.5t104.5 21.5t64.5 49.5t33.5 76t14 81.5 t2 85.5v16v55q0 43 -2 64.5t-7 64.5t-19.5 67.5t-38 52.5t-62.5 40t-92 12q-63 0 -107 -22.5t-64.5 -50t-32 -82t-12.5 -84t-1 -90.5v-56zM428 1106q0 4 2 8t6 11.5t9.5 15.5t15.5 20.5t20.5 25.5t25.5 33.5t30.5 39t38 48t42.5 56.5q23 27 54 27h178q25 0 45 -11l6 -10v-8 q-2 -14 -53 -55q-16 -10 -25 -19q-53 -41 -129 -100q-102 -80 -122.5 -93.5t-45.5 -13.5h-53q-2 0 -11 1t-13.5 1t-9.5 2t-8 7.5t-3 13.5z" />
<glyph unicode="&#xf4;" d="M61 459q0 147 40 251.5t110 160t147.5 79t171.5 23.5q53 0 93.5 -2t98.5 -13.5t101 -32t90.5 -59.5t78 -92t50 -136t19.5 -187q0 -473 -498 -474q-502 1 -502 482zM209 1106q0 12 21.5 36.5t189.5 203.5q4 4 9 10t8 9t8.5 8t8.5 7t9 4t12 3.5t14 1.5h146q23 0 41 -16.5 t108 -112.5q66 -70 111 -119q18 -23 18 -35q0 -27 -55 -27h-43q-25 0 -42 10.5t-109 79.5q-61 45 -103 76q-213 -158 -225 -164q-8 -2 -27 -2h-45q-55 0 -55 27zM342 438q2 -53 4 -79.5t14.5 -77t33 -76t63.5 -47t104.5 -21.5t104.5 21.5t64.5 49.5t33.5 76t14 81.5t2 85.5 v16v55q0 43 -2 64.5t-7 64.5t-19.5 67.5t-38 52.5t-62.5 40t-92 12q-63 0 -107 -22.5t-64.5 -50t-32 -82t-12.5 -84t-1 -90.5v-56z" />
<glyph unicode="&#xf5;" d="M61 459q0 147 40 251.5t110 160t147.5 79t171.5 23.5q53 0 93.5 -2t98.5 -13.5t101 -32t90.5 -59.5t78 -92t50 -136t19.5 -187q0 -473 -498 -474q-502 1 -502 482zM186 1147q0 76 63.5 146.5t166.5 70.5q86 0 176 -52t117 -52h2q51 0 69 51l4 20q4 20 13.5 26.5t29.5 6.5 h66q41 0 41 -39q0 -72 -59.5 -144.5t-167.5 -72.5q-84 0 -175.5 53t-117.5 53h-2q-51 0 -70 -51q-2 -4 -5 -22.5t-12.5 -25.5t-29.5 -7h-62q-47 0 -47 39zM342 438q2 -53 4 -79.5t14.5 -77t33 -76t63.5 -47t104.5 -21.5t104.5 21.5t64.5 49.5t33.5 76t14 81.5t2 85.5v16v55 q0 43 -2 64.5t-7 64.5t-19.5 67.5t-38 52.5t-62.5 40t-92 12q-63 0 -107 -22.5t-64.5 -50t-32 -82t-12.5 -84t-1 -90.5v-56z" />
<glyph unicode="&#xf6;" d="M61 459q0 147 40 251.5t110 160t147.5 79t171.5 23.5q53 0 93.5 -2t98.5 -13.5t101 -32t90.5 -59.5t78 -92t50 -136t19.5 -187q0 -473 -498 -474q-502 1 -502 482zM197 1223v108q0 90 96 90h100q47 0 70.5 -20.5t23.5 -75.5v-100q0 -16 -2 -28.5t-7 -22t-9 -16.5t-12 -11 t-13.5 -7t-14.5 -5t-13 -2t-13 -3h-8h-104q-94 1 -94 93zM342 438q2 -53 4 -79.5t14.5 -77t33 -76t63.5 -47t104.5 -21.5t104.5 21.5t64.5 49.5t33.5 76t14 81.5t2 85.5v16v55q0 43 -2 64.5t-7 64.5t-19.5 67.5t-38 52.5t-62.5 40t-92 12q-63 0 -107 -22.5t-64.5 -50 t-32 -82t-12.5 -84t-1 -90.5v-56zM633 1227q0 4 1 11t1 11v62q0 2 -1 6t-1 6q0 35 7 55.5t24.5 29.5t29 10t33.5 3h104q94 0 95 -92q0 -4 -1 -11t-1 -11v-74q0 -2 1 -6t1 -8q0 -18 -4 -34t-11.5 -24t-14.5 -14t-18.5 -9t-17.5 -4t-16 -4h-10h-107q-94 1 -94 97z" />
<glyph unicode="&#xf7;" horiz-adv-x="1751" d="M125 512q0 33 19.5 56.5t54.5 27.5q16 2 49 2h1272q41 0 66.5 -18.5t30.5 -35t5 -32.5t-6 -32.5t-29.5 -35t-64.5 -18.5h-1295q-102 0 -102 86zM678 88q0 102 108 102h185q96 0 96 -106v-178q0 -104 -100 -105h-187q-102 0 -102 107v180zM678 940v180q0 102 108 103h181 q100 0 100 -109v-178q0 -102 -100 -102h-191q-98 0 -98 106z" />
<glyph unicode="&#xf8;" d="M61 461q0 512 498 512q68 0 189 -23q121 217 133 232q23 29 55 28q31 0 53.5 -20.5t22.5 -50.5q0 -23 -47 -107q-10 -18 -41 -74q-27 -43 -41 -69q178 -129 178 -430q0 -481 -498 -482q-76 0 -184 19q-16 -31 -35.5 -65.5t-31 -55t-25 -44.5t-20.5 -36t-16 -26.5 t-16.5 -20.5t-15.5 -11t-16 -7t-19 -2q-29 0 -51 21.5t-22 51.5q0 8 1 13.5t5 15.5t8 18.5t15.5 29t23.5 40t33.5 57t44.5 78.5q-181 121 -181 408zM307 455q0 -29 1 -53.5t2 -42t4 -34t4 -25.5t5.5 -21.5t6.5 -17.5l6 -15l6 -15l324 578q-57 14 -105 14q-72 0 -123 -24.5 t-75.5 -56t-38 -88t-15.5 -91.5t-2 -96v-12zM461 137q76 -12 100 -12q72 0 122 21.5t74.5 50t39 79t16.5 84t2 86.5v23q0 145 -35 238z" />
<glyph unicode="&#xf9;" horiz-adv-x="1148" d="M121 285v563q0 90 90 90h94q45 0 67.5 -18.5t24.5 -32t4 -41.5v-545q0 -8 -1 -24.5t-1 -24.5q0 -90 22.5 -120t108.5 -30q82 0 148.5 60.5t66.5 208.5v460q0 31 2.5 46.5t6.5 21.5t18 21q23 18 70 18h90q90 0 92 -86v-764q0 -88 -92 -88h-96q-84 0 -84 90 q-70 -68 -139.5 -90.5t-163.5 -22.5q-90 0 -155 19.5t-97.5 46.5t-51 73t-21.5 80t-3 89zM326 1360v10q8 20 43 21h188q29 0 47 -21q8 -8 182 -233l13 -21l2 -8q-2 -27 -39 -27h-57q-27 0 -36.5 4.5t-37.5 26.5q-297 231 -301 236.5t-4 11.5z" />
<glyph unicode="&#xfa;" horiz-adv-x="1148" d="M121 285v563q0 90 90 90h94q45 0 67.5 -18.5t24.5 -32t4 -41.5v-545q0 -8 -1 -24.5t-1 -24.5q0 -90 22.5 -120t108.5 -30q82 0 148.5 60.5t66.5 208.5v460q0 31 2.5 46.5t6.5 21.5t18 21q23 18 70 18h90q90 0 92 -86v-764q0 -88 -92 -88h-96q-84 0 -84 90 q-70 -68 -139.5 -90.5t-163.5 -22.5q-90 0 -155 19.5t-97.5 46.5t-51 73t-21.5 80t-3 89zM313 1106q0 14 76 111q63 82 115 145q23 29 57 29h174q27 0 47 -11l6 -10v-8q0 -4 -1 -7t-5 -6t-7 -6.5t-10 -9.5t-14.5 -11t-19.5 -15.5t-22 -18.5q-61 -47 -144 -112 q-90 -72 -108.5 -83.5t-42.5 -11.5h-54q-47 0 -47 25z" />
<glyph unicode="&#xfb;" horiz-adv-x="1148" d="M121 285v563q0 90 90 90h94q45 0 67.5 -18.5t24.5 -32t4 -41.5v-545q0 -8 -1 -24.5t-1 -24.5q0 -90 22.5 -120t108.5 -30q82 0 148.5 60.5t66.5 208.5v460q0 31 2.5 46.5t6.5 21.5t18 21q23 18 70 18h90q90 0 92 -86v-764q0 -88 -92 -88h-96q-84 0 -84 90 q-70 -68 -139.5 -90.5t-163.5 -22.5q-90 0 -155 19.5t-97.5 46.5t-51 73t-21.5 80t-3 89zM221 1106q0 12 21.5 36.5t187.5 203.5q39 43 72 43h139h14.5t12.5 -3.5t9 -4.5t10 -7t9 -8t11.5 -12.5t13.5 -14.5q43 -47 106 -114q98 -106 99 -119q0 -27 -58 -27h-45q-27 0 -75 37 q-20 12 -79 56.5t-98 72.5q-211 -158 -225 -162q-6 -4 -24 -4h-46q-55 0 -55 27z" />
<glyph unicode="&#xfc;" horiz-adv-x="1148" d="M121 285v563q0 90 90 90h94q45 0 67.5 -18.5t24.5 -32t4 -41.5v-545q0 -8 -1 -24.5t-1 -24.5q0 -90 22.5 -120t108.5 -30q82 0 148.5 60.5t66.5 208.5v460q0 31 2.5 46.5t6.5 21.5t18 21q23 18 70 18h90q90 0 92 -86v-764q0 -88 -92 -88h-96q-84 0 -84 90 q-70 -68 -139.5 -90.5t-163.5 -22.5q-90 0 -155 19.5t-97.5 46.5t-51 73t-21.5 80t-3 89zM209 1225v100q0 33 8 54.5t24.5 29.5t27 9t32.5 3h105q43 0 68.5 -18.5t25.5 -75.5v-106q0 -18 -4 -34t-11.5 -25t-14.5 -15t-18.5 -9t-17.5 -4t-16 -4h-10h-105q-43 0 -68.5 19 t-25.5 76zM645 1225q0 4 1 12t1 12v78q0 33 8.5 53.5t27.5 28.5t26.5 9t29.5 3h105q43 0 68.5 -18.5t25.5 -75.5v-104q0 -18 -3 -31.5t-8 -23t-12.5 -16.5t-13.5 -11t-16.5 -6t-15.5 -2t-13 -1.5t-10 -1.5h-107q-43 0 -68.5 20t-25.5 75z" />
<glyph unicode="&#xfd;" horiz-adv-x="1024" d="M61 887q0 51 70 51h70q74 0 110 -49q10 -10 60.5 -115.5t108 -254t71.5 -238.5q8 106 154 538q29 78 51 96q29 23 82 23h57q72 0 72 -55q0 -14 -9 -39l-317 -924q-27 -76 -41 -104q-119 -238 -348 -238q-129 0 -156 27q-10 10 -20 141q-2 39 10 51l10 4h8q8 -2 32 -15 t54.5 -22.5t67.5 -9.5q43 0 75 18.5t51 51.5t33.5 68.5t26.5 74.5q4 14 7 23q2 18 -9 39l-362 800q-19 42 -19 58zM377 1106q0 14 53 84q14 16 49 63q51 66 86 109q23 29 58 29h176q25 0 45 -11l6 -10l2 -8q0 -4 -1 -7t-5 -6t-7 -6.5t-10.5 -9.5t-14.5 -11t-19.5 -15.5 t-22.5 -18.5q-61 -47 -143 -112q-90 -72 -108.5 -83.5t-43.5 -11.5h-53q-2 0 -11.5 1t-13.5 1t-10 2t-9 7.5t-3 13.5z" />
<glyph unicode="&#xfe;" horiz-adv-x="1148" d="M123 -299v1679q0 27 1 41.5t23.5 36t67.5 21.5h92q90 0 90 -90v-515q139 86 299 87q274 0 353 -275q23 -90 22 -227q0 -139 -38 -237.5t-104.5 -150t-138 -73t-157.5 -21.5q-125 0 -230 76v-354q0 -98 -92 -98h-94q-45 0 -67.5 19.5t-24.5 35.5t-2 45zM403 205l11 -12 q12 -10 18 -16.5t20.5 -18t29 -16.5t35 -10t42.5 -5q121 0 178 90q53 84 54 254v25q0 305 -209 305q-20 0 -38 -2t-34 -7.5t-26.5 -9.5t-26 -13t-19.5 -11t-20 -13l-15 -12v-528z" />
<glyph unicode="&#xff;" horiz-adv-x="1024" d="M61 887q0 51 70 51h70q74 0 110 -49q10 -10 60.5 -115.5t108 -254t71.5 -238.5q8 106 154 538q29 78 51 96q29 23 82 23h57q72 0 72 -55q0 -14 -9 -39l-317 -924q-27 -76 -41 -104q-119 -238 -348 -238q-129 0 -156 27q-10 10 -20 141q-2 39 10 51l10 4h8q8 -2 32 -15 t54.5 -22.5t67.5 -9.5q43 0 75 18.5t51 51.5t33.5 68.5t26.5 74.5q4 14 7 23q2 18 -9 39l-362 800q-19 42 -19 58zM147 1223v108q0 90 95 90h102q47 0 70.5 -20.5t23.5 -75.5v-100q0 -16 -2 -28.5t-7 -22t-9 -16.5t-12.5 -11t-13.5 -7t-14 -5t-13.5 -2t-12.5 -3h-8h-104 q-95 1 -95 93zM584 1227v96q0 35 7 55.5t24.5 29.5t28.5 10t34 3h102q94 0 94 -92v-110q0 -18 -4 -34t-11 -24t-14 -14t-17.5 -9t-16.5 -4t-16 -4h-11h-106q-94 1 -94 97z" />
<glyph unicode="&#x100;" horiz-adv-x="1501" d="M86 55q0 14 8 39l434 1233q16 47 43 70.5t86 23.5h185q37 0 61.5 -8t41 -33.5t20.5 -35t16 -46.5l424 -1208q8 -25 8 -35q0 -55 -76 -55h-108q-18 0 -32.5 1t-28 8t-21.5 12.5t-18.5 22.5t-16.5 28.5t-17.5 41t-18.5 51t-22.5 65.5t-27.5 79h-584q-14 -37 -29.5 -85 t-23.5 -70.5t-19.5 -52t-19.5 -42t-19.5 -28t-23.5 -19.5t-28.5 -8t-38.5 -4h-76q-78 0 -78 55zM314 1708v31q0 29 8 40t35 11h788q41 0 43 -37v-90q0 -27 -7 -36t-31 -11h-789q-35 0 -41 13t-6 79zM504 485h461q-209 598 -230 680q-20 -74 -231 -680z" />
<glyph unicode="&#x101;" horiz-adv-x="1075" d="M61 281q0 80 47.5 139t114 92t157.5 52.5t157.5 25.5t134.5 6v43q0 88 -29 139t-117 51q-80 0 -145.5 -21.5t-97 -48t-59 -49t-40.5 -22.5l-8 2l-8 6q-6 10 -11 50t-7 73l-3 35q0 10 1.5 15t7.5 11.5t9 8.5t17.5 8t22.5 10q147 66 321 66q233 0 328.5 -88t95.5 -254v-539 q0 -92 -92 -92h-98q-45 0 -64.5 24.5t-19.5 57.5q-135 -104 -316 -105q-137 0 -218 94.5t-81 209.5zM121 1239v31q0 29 8 42t37 13h723q33 0 39 -14t6 -61v-54q0 -45 -39 -47h-729q-35 0 -40 12t-5 78zM330 281q0 -59 39 -106.5t102 -47.5q70 0 135.5 44t65.5 144v160 q-63 -6 -108.5 -13t-107 -26.5t-94 -59.5t-32.5 -95z" />
<glyph unicode="&#x102;" horiz-adv-x="1501" d="M86 55q0 14 8 39l434 1233q16 47 43 70.5t86 23.5h185q37 0 61.5 -8t41 -33.5t20.5 -35t16 -46.5l424 -1208q8 -25 8 -35q0 -55 -76 -55h-108q-18 0 -32.5 1t-28 8t-21.5 12.5t-18.5 22.5t-16.5 28.5t-17.5 41t-18.5 51t-22.5 65.5t-27.5 79h-584q-14 -37 -29.5 -85 t-23.5 -70.5t-19.5 -52t-19.5 -42t-19.5 -28t-23.5 -19.5t-28.5 -8t-38.5 -4h-76q-78 0 -78 55zM311 1767q0 41 24.5 60.5t49.5 19.5q53 0 70 -47q2 -4 6 -23.5t12 -28.5t29.5 -23.5t68.5 -20.5t117 -6q217 0 244 61l2 15q4 12 8 22t12.5 23.5t22.5 20.5t35 7q27 0 50 -20.5 t23 -59.5q0 -98 -93 -180t-296 -82q-168 0 -276.5 72.5t-108.5 189.5zM504 485h461q-209 598 -230 680q-20 -74 -231 -680z" />
<glyph unicode="&#x103;" horiz-adv-x="1075" d="M61 281q0 80 47.5 139t114 92t157.5 52.5t157.5 25.5t134.5 6v43q0 88 -29 139t-117 51q-80 0 -145.5 -21.5t-97 -48t-59 -49t-40.5 -22.5l-8 2l-8 6q-6 10 -11 50t-7 73l-3 35q0 10 1.5 15t7.5 11.5t9 8.5t17.5 8t22.5 10q147 66 321 66q233 0 328.5 -88t95.5 -254v-539 q0 -92 -92 -92h-98q-45 0 -64.5 24.5t-19.5 57.5q-135 -104 -316 -105q-137 0 -218 94.5t-81 209.5zM176 1286q0 33 19.5 55.5t52.5 22.5q20 0 31.5 -6t20.5 -13.5t58.5 -13.5t135.5 -6h43h141t82 4t39 5t22.5 10.5t18.5 11.5q14 8 32 8q33 0 53.5 -23.5t20.5 -54.5 q0 -154 -334 -153h-71q-55 0 -89 1t-93.5 9t-93.5 22.5t-61.5 46t-27.5 74.5zM330 281q0 -59 39 -106.5t102 -47.5q70 0 135.5 44t65.5 144v160q-63 -6 -108.5 -13t-107 -26.5t-94 -59.5t-32.5 -95z" />
<glyph unicode="&#x104;" horiz-adv-x="1501" d="M86 55q0 6 10 43l434 1233q20 57 52 73.5t84 16.5h182q92 0 123 -94l430 -1225q12 -29 12 -45q0 -57 -70 -57h-6q-100 0 -100 -156v-24q0 -86 88 -86q35 0 75 11t50 11q23 0 37 -25.5t16 -49.5l4 -25q0 -43 -93 -71.5t-157 -28.5q-100 0 -158.5 59t-58.5 154 q0 127 111 251q-29 25 -40 51.5t-85 237.5h-584q-12 -37 -29.5 -87t-24.5 -72.5t-19.5 -53t-20.5 -41t-19.5 -26t-24.5 -19.5t-30.5 -7t-42.5 -3h-63q-82 0 -82 55zM504 485h461q-209 598 -230 680q-16 -55 -231 -680z" />
<glyph unicode="&#x105;" horiz-adv-x="1075" d="M61 281q0 98 67 165.5t173.5 97t194.5 41t176 11.5v43q0 88 -29 139t-117 51q-80 0 -144.5 -21.5t-96 -47t-59 -48t-42.5 -24.5l-8 2l-6 6q-8 10 -13 49t-7 74l-3 35q0 18 10.5 27.5t43.5 23.5q156 68 331 68q199 0 308.5 -75t109.5 -267v-543q0 -43 -15 -61.5t-46 -26.5 t-39 -12q-51 -31 -83 -81t-32 -95q0 -37 25.5 -59.5t73.5 -22.5q39 0 79.5 12t47.5 12q16 0 29.5 -28.5t17.5 -57.5l4 -26q0 -25 -43 -41q-100 -45 -199 -45q-100 0 -162.5 56t-62.5 146q0 141 153 265q-20 25 -22 59q-135 -104 -316 -105q-137 0 -218 94.5t-81 209.5z M330 281q0 -59 39 -106.5t102 -47.5q70 0 135.5 44t65.5 144v160q-63 -6 -108.5 -13t-107 -26.5t-94 -59.5t-32.5 -95z" />
<glyph unicode="&#x106;" horiz-adv-x="1439" d="M123 710.5q0 757.5 756 757.5q166 0 364 -59q35 -12 47 -25q6 -12 6 -20t-30 -176q-12 -59 -31 -60q-10 0 -40 20.5t-65.5 46.5t-104.5 46.5t-148 20.5q-463 0 -463 -549q0 -121 21.5 -215.5t71.5 -173t145.5 -121.5t232.5 -43q100 0 177 20.5t110.5 45t62.5 45t47 20.5 q4 0 7 -1t6 -4t4 -6.5t3.5 -9.5t3.5 -11t2 -13t2 -14.5t2 -17.5t1 -17q2 -25 4 -44.5t3 -26.5t1 -12v-10q0 -10 -2 -16t-9 -13l-9.5 -9.5t-14.5 -8.5l-14 -8q-100 -57 -183 -76.5t-215 -19.5q-751 0 -751 757.5zM539 1589q0 12 14 27q47 37 115 88q90 72 109.5 83t44.5 11 h284q41 0 41 -27q0 -6 -3 -11t-7 -8t-10 -7l-6 -2q-397 -172 -422 -177q-8 -2 -23 -2h-102q-31 2 -35 25z" />
<glyph unicode="&#x107;" horiz-adv-x="1001" d="M74 467q0 506 499 506q178 0 332 -84q16 -10 17 -33q-10 -160 -50 -160q-14 0 -64 41t-97 58q-53 18 -158 18q-55 -2 -95 -26.5t-59.5 -55.5t-31 -80t-12.5 -78.5t-1 -76.5v-39q0 -51 2 -84t13.5 -82t33 -79t63.5 -52.5t101 -22.5q74 0 135.5 19.5t94 43t60.5 45t40 23.5 l10 -2q12 -8 14.5 -22.5t12.5 -120.5v-17q0 -29 -41 -51q-150 -78 -332 -78q-487 1 -487 490zM334 1106q0 4 2 8t6 11.5t9.5 15.5t15.5 20.5t20.5 25.5t25.5 33.5t30.5 39t38 48t42.5 56.5q23 27 54 27h178q25 0 45 -11l6 -10v-8q-2 -14 -53 -55q-16 -10 -25 -19 q-53 -41 -129 -100q-102 -80 -122.5 -93.5t-45.5 -13.5h-53q-2 0 -11 1t-13.5 1t-9.5 2t-8 7.5t-3 13.5z" />
<glyph unicode="&#x108;" horiz-adv-x="1439" d="M123 710.5q0 757.5 756 757.5q166 0 364 -59q35 -12 47 -25q6 -12 6 -20t-30 -176q-12 -59 -31 -60q-10 0 -40 20.5t-65.5 46.5t-104.5 46.5t-148 20.5q-463 0 -463 -549q0 -121 21.5 -215.5t71.5 -173t145.5 -121.5t232.5 -43q100 0 177 20.5t110.5 45t62.5 45t47 20.5 q4 0 7 -1t6 -4t4 -6.5t3.5 -9.5t3.5 -11t2 -13t2 -14.5t2 -17.5t1 -17q2 -25 4 -44.5t3 -26.5t1 -12v-10q0 -10 -2 -16t-9 -13l-9.5 -9.5t-14.5 -8.5l-14 -8q-100 -57 -183 -76.5t-215 -19.5q-751 0 -751 757.5zM526 1532q0 10 20 41q20 29 109.5 145.5t95.5 122.5 q23 29 58 31h239q31 0 41 -11.5t29 -52.5q6 -14 8 -20q104 -244 104 -254q0 -29 -47 -29h-45q-12 0 -18 1t-14.5 2t-16.5 8.5t-18.5 14.5t-28.5 24.5t-37.5 36t-54.5 51t-72 65.5q-197 -180 -217 -192q-16 -10 -45 -11h-41q-49 0 -49 27z" />
<glyph unicode="&#x109;" horiz-adv-x="1001" d="M74 467q0 506 499 506q178 0 332 -84q16 -10 17 -33q-10 -160 -50 -160q-14 0 -64 41t-97 58q-53 18 -158 18q-55 -2 -95 -26.5t-59.5 -55.5t-31 -80t-12.5 -78.5t-1 -76.5v-39q0 -51 2 -84t13.5 -82t33 -79t63.5 -52.5t101 -22.5q74 0 135.5 19.5t94 43t60.5 45t40 23.5 l10 -2q12 -8 14.5 -22.5t12.5 -120.5v-17q0 -29 -41 -51q-150 -78 -332 -78q-487 1 -487 490zM222 1106q0 12 25.5 42t183.5 198q39 43 71 43h140h14t12.5 -3.5t9.5 -4.5t10 -7t9 -8t11.5 -12.5t13.5 -14.5q43 -47 106 -114q98 -106 98 -119q0 -27 -55 -27h-45h-10t-9.5 1 t-10.5 4t-11 6.5t-16.5 10.5t-21.5 14t-28.5 21.5t-36 28t-49 36t-59.5 44.5q-213 -158 -225 -162q-8 -4 -27 -4h-45q-55 0 -55 27z" />
<glyph unicode="&#x10a;" horiz-adv-x="1439" d="M123 710.5q0 757.5 756 757.5q166 0 364 -59q35 -12 47 -25q6 -12 6 -20t-30 -176q-12 -59 -31 -60q-10 0 -40 20.5t-65.5 46.5t-104.5 46.5t-148 20.5q-463 0 -463 -549q0 -121 21.5 -215.5t71.5 -173t145.5 -121.5t232.5 -43q100 0 177 20.5t110.5 45t62.5 45t47 20.5 q4 0 7 -1t6 -4t4 -6.5t3.5 -9.5t3.5 -11t2 -13t2 -14.5t2 -17.5t1 -17q2 -25 4 -44.5t3 -26.5t1 -12v-10q0 -10 -2 -16t-9 -13l-9.5 -9.5t-14.5 -8.5l-14 -8q-100 -57 -183 -76.5t-215 -19.5q-751 0 -751 757.5zM733 1669v90q0 59 23.5 81t76.5 22l19 -2h67q35 0 54.5 -5.5 t35 -28t15.5 -67.5v-88q0 -53 -20.5 -77.5t-76.5 -24.5h-90q-51 0 -77.5 18.5t-26.5 81.5z" />
<glyph unicode="&#x10b;" horiz-adv-x="1001" d="M74 467q0 506 499 506q178 0 332 -84q16 -10 17 -33q-10 -160 -50 -160q-14 0 -64 41t-97 58q-53 18 -158 18q-55 -2 -95 -26.5t-59.5 -55.5t-31 -80t-12.5 -78.5t-1 -76.5v-39q0 -51 2 -84t13.5 -82t33 -79t63.5 -52.5t101 -22.5q74 0 135.5 19.5t94 43t60.5 45t40 23.5 l10 -2q12 -8 14.5 -22.5t12.5 -120.5v-17q0 -29 -41 -51q-150 -78 -332 -78q-487 1 -487 490zM428 1284v96q0 35 7 56.5t27.5 30t26.5 9.5t31 3h106q47 0 69.5 -20.5t22.5 -76.5v-100q0 -16 -2 -28.5t-7 -21.5t-9 -16.5t-12 -11.5t-13.5 -7t-13.5 -5t-12 -2t-12 -2h-9h-106 q-43 0 -68.5 19.5t-25.5 76.5z" />
<glyph unicode="&#x10c;" horiz-adv-x="1439" d="M123 710.5q0 757.5 756 757.5q166 0 364 -59q35 -12 47 -25q6 -12 6 -20t-30 -176q-12 -59 -31 -60q-10 0 -40 20.5t-65.5 46.5t-104.5 46.5t-148 20.5q-463 0 -463 -549q0 -121 21.5 -215.5t71.5 -173t145.5 -121.5t232.5 -43q100 0 177 20.5t110.5 45t62.5 45t47 20.5 q4 0 7 -1t6 -4t4 -6.5t3.5 -9.5t3.5 -11t2 -13t2 -14.5t2 -17.5t1 -17q2 -25 4 -44.5t3 -26.5t1 -12v-10q0 -10 -2 -16t-9 -13l-9.5 -9.5t-14.5 -8.5l-14 -8q-100 -57 -183 -76.5t-215 -19.5q-751 0 -751 757.5zM508 1823q0 25 53 24h53q23 -2 44.5 -18.5t213.5 -169.5 q219 176 236 184q25 6 82 6q47 0 47 -26q0 -14 -104 -137q-66 -78 -113 -134q-29 -33 -39 -40t-31 -7h-149q-33 0 -60 27q-184 219 -208.5 249t-24.5 42z" />
<glyph unicode="&#x10d;" horiz-adv-x="1001" d="M74 467q0 506 499 506q178 0 332 -84q16 -10 17 -33q-10 -160 -50 -160q-14 0 -64 41t-97 58q-53 18 -158 18q-55 -2 -95 -26.5t-59.5 -55.5t-31 -80t-12.5 -78.5t-1 -76.5v-39q0 -51 2 -84t13.5 -82t33 -79t63.5 -52.5t101 -22.5q74 0 135.5 19.5t94 43t60.5 45t40 23.5 l10 -2q12 -8 14.5 -22.5t12.5 -120.5v-17q0 -29 -41 -51q-150 -78 -332 -78q-487 1 -487 490zM211 1339q4 25 41 25h53q29 0 137.5 -15.5t118.5 -15.5q12 0 114.5 15.5t180.5 15.5h16q29 0 39 -16l2 -9l-2 -10q-6 -8 -14 -12t-62.5 -16.5t-175.5 -34.5l-41 -2h-110l-41 2 q-233 49 -242 51q-10 6 -14 22z" />
<glyph unicode="&#x10e;" horiz-adv-x="1626" d="M186 92v1231q0 98 86 98h492q121 0 216 -14t196.5 -59t169 -122t110.5 -211t43 -317q0 -190 -53 -327.5t-126 -207t-182.5 -109.5t-183 -47t-168.5 -7h-505q-45 0 -70 18.5t-25 73.5zM309 1823q0 25 51 24h56q23 -2 44 -18.5t214 -169.5q219 176 235 184q25 6 82 6 q47 0 47 -26q0 -14 -104 -137q-66 -78 -113 -134q-29 -33 -40 -40t-31 -7h-148q-33 0 -59 27q-184 219 -209 249t-25 42zM471 176h227q100 0 166 7t147 46t130 111q70 106 73 317v23q0 98 -5 159.5t-28.5 144.5t-68.5 132t-132 87t-210 42h-297l-2 -59v-1010z" />
<glyph unicode="&#x10f;" horiz-adv-x="1499" d="M74 489q4 254 119.5 363t298.5 109q141 0 256 -74v502q0 90 90 90h82q45 0 68.5 -15.5t28.5 -33t5 -44.5v-1292q0 -94 -92 -94h-94q-76 0 -95 66q-123 -88 -260 -89q-309 0 -385 289q-22 86 -22 223zM354 453q0 -57 2 -91t13.5 -84.5t32 -79t61.5 -50t98 -21.5 q68 0 124 38t56 83v502q-2 0 -10 7t-16 13t-22.5 14.5t-30 13.5t-37 9t-43.5 4q-63 0 -109.5 -22.5t-69 -51t-34 -79t-13.5 -81t-2 -81.5v-43zM1073 1317v166q0 35 11.5 46t33.5 11h158q43 -2 54 -9t11 -30v-18q0 -2 1 -7.5t1 -7.5v-147q0 -27 -11 -43t-75 -82 q-29 -29 -45 -47q-23 -23 -53 -23h-41q-41 0 -41 25q0 14 60 119h-17q-16 0 -24.5 2t-15.5 13.5t-7 31.5z" />
<glyph unicode="&#x110;" horiz-adv-x="1626" d="M-74 698q0 16 5.5 30.5t28 30t60.5 15.5h166v555q0 92 86 92h508q61 0 106.5 -2t126.5 -16t139 -41t129 -80t115 -128t74.5 -191.5t30.5 -264.5q0 -178 -45 -309t-111.5 -203.5t-168 -116.5t-191.5 -56.5t-203 -12.5h-506q-90 0 -90 92v533h-170q-37 0 -58 15t-26.5 29.5 t-5.5 28.5zM471 176h227q74 0 123 4t114.5 18.5t117 50.5t88.5 91q70 106 73 317v23q0 98 -5 159.5t-28.5 144.5t-68.5 132t-132 87t-210 42h-297l-2 -69v-402h295q57 0 78 -10q41 -20 41 -66q0 -29 -21.5 -51t-52.5 -22h-340v-449z" />
<glyph unicode="&#x111;" horiz-adv-x="1148" d="M74 489q4 254 119.5 363t298.5 109q141 0 256 -74v241h-326q-94 0 -94 74q0 76 96 76h324v98q0 33 5 51.5t26.5 35t64.5 16.5h90q88 0 88 -103v-98h156q55 0 73.5 -24.5t18.5 -51.5q0 -74 -92 -74h-156v-1034q0 -33 -8 -53.5t-24.5 -28.5t-30 -10t-31.5 -2h-94 q-43 0 -61.5 15.5t-31.5 50.5q-123 -88 -260 -89q-309 0 -385 289q-22 86 -22 223zM354 453q0 -57 2 -91t13.5 -84.5t32 -79t61.5 -50t98 -21.5q68 0 124 38t56 83v502q-2 0 -10 7t-16 13t-22.5 14.5t-30 13.5t-37 9t-43.5 4q-63 0 -109.5 -22.5t-69 -51t-34 -79t-13.5 -81 t-2 -81.5v-43z" />
<glyph unicode="&#x112;" horiz-adv-x="1314" d="M186 96v1223q0 55 23.5 75.5t71.5 20.5h815q41 0 62.5 -16.5t25.5 -32.5t4 -43v-33q0 -90 -86 -90q-27 0 -70 1t-194.5 3t-360.5 4v-379h543q25 0 39 -2t31.5 -10t26.5 -29.5t9 -56.5q0 -96 -92 -96h-557v-416l656 8q86 -2 86 -94v-43q0 -90 -93 -90h-845 q-43 0 -65.5 18.5t-26 34.5t-3.5 43zM267 1708v31q0 29 8 40t35 11h788q41 0 43 -37v-90q0 -27 -7 -36t-31 -11h-789q-35 0 -41 13t-6 79z" />
<glyph unicode="&#x113;" horiz-adv-x="1046" d="M61 477q0 250 131.5 373t360.5 123q123 0 210 -38t133 -104.5t65.5 -140.5t19.5 -164q0 -88 -90 -88h-565q8 -311 260 -311q90 0 164.5 29.5t122 65.5t55.5 38h8l10 -4q10 -10 15.5 -46t5.5 -67l2 -30q0 -27 -33 -45q-158 -90 -354 -91q-256 0 -388.5 127t-132.5 373z M148 1239v31q0 29 8 42t37 13h723q33 0 39 -14t6 -61v-54q0 -45 -39 -47h-729q-35 0 -40 12t-5 78zM328 571h424q-6 119 -47 185.5t-152 66.5q-200 0 -225 -252z" />
<glyph unicode="&#x116;" horiz-adv-x="1314" d="M186 96v1223q0 55 23.5 75.5t71.5 20.5h815q41 0 62.5 -16.5t25.5 -32.5t4 -43v-33q0 -90 -86 -90q-27 0 -70 1t-194.5 3t-360.5 4v-379h543q25 0 39 -2t31.5 -10t26.5 -29.5t9 -56.5q0 -96 -92 -96h-557v-416l656 8q86 -2 86 -94v-43q0 -90 -93 -90h-845 q-43 0 -65.5 18.5t-26 34.5t-3.5 43zM557 1669v90q0 59 23.5 81t76.5 22l19 -2h67q35 0 54.5 -5.5t35 -28t15.5 -67.5v-88q0 -53 -20.5 -77.5t-76.5 -24.5h-90q-51 0 -77.5 18.5t-26.5 81.5z" />
<glyph unicode="&#x117;" horiz-adv-x="1046" d="M61 477q0 250 131.5 373t360.5 123q123 0 210 -38t133 -104.5t65.5 -140.5t19.5 -164q0 -88 -90 -88h-565q8 -311 260 -311q90 0 164.5 29.5t122 65.5t55.5 38h8l10 -4q10 -10 15.5 -46t5.5 -67l2 -30q0 -27 -33 -45q-158 -90 -354 -91q-256 0 -388.5 127t-132.5 373z M328 571h424q-6 119 -47 185.5t-152 66.5q-200 0 -225 -252zM408 1284v96q0 35 7 56.5t27.5 30t26.5 9.5t31 3h106q47 0 69.5 -20.5t22.5 -76.5v-100q0 -16 -2 -28.5t-7 -21.5t-9 -16.5t-12 -11.5t-13.5 -7t-13.5 -5t-12 -2t-12 -2h-9h-106q-43 0 -68.5 19.5t-25.5 76.5z " />
<glyph unicode="&#x118;" horiz-adv-x="1314" d="M186 90v1233q0 92 95 92h802q37 0 60.5 -9t32 -27.5t10.5 -31t2 -36.5v-15q0 -57 -24.5 -76.5t-67.5 -19.5l-619 8v-379h543q25 0 39 -2t31.5 -10t26.5 -29.5t9 -56.5q0 -96 -92 -96h-557v-416l645 8q96 0 97 -94v-41q0 -41 -17.5 -63.5t-34 -25.5t-43.5 -3h-116 q-59 0 -97.5 -62.5t-38.5 -117.5q0 -88 93 -88q33 0 73.5 12t51.5 12q20 0 33.5 -24.5t15.5 -48.5l4 -25q0 -12 -4 -23q-25 -31 -107 -55t-139 -24q-100 0 -158.5 58t-58.5 153q0 119 94 233h-489q-95 0 -95 90z" />
<glyph unicode="&#x119;" horiz-adv-x="1046" d="M61 477q0 242 126 369t366 127q123 0 210 -38t133 -103.5t65.5 -139.5t19.5 -164q0 -41 -17.5 -62.5t-33 -24.5t-37.5 -3h-567q8 -311 260 -311q74 0 139.5 20.5t101 46t66.5 47t43 21.5q16 -8 19 -22.5t12 -110.5v-27l-2 -10l-9 -10q-49 -35 -119.5 -59.5t-101.5 -49.5 q-96 -78 -96 -166q0 -78 94 -77q37 0 80 12t49 12q16 0 28.5 -28.5t16.5 -57.5l4 -28q0 -20 -32 -35q-111 -49 -207 -49q-100 0 -163 56t-63 146q0 113 103 219q-90 2 -169 26t-154.5 76t-120 154.5t-44.5 243.5zM328 571h424q-6 119 -47 185.5t-152 66.5q-200 0 -225 -252z " />
<glyph unicode="&#x11a;" horiz-adv-x="1314" d="M186 96v1223q0 55 23.5 75.5t71.5 20.5h815q41 0 62.5 -16.5t25.5 -32.5t4 -43v-33q0 -90 -86 -90q-27 0 -70 1t-194.5 3t-360.5 4v-379h543q25 0 39 -2t31.5 -10t26.5 -29.5t9 -56.5q0 -96 -92 -96h-557v-416l656 8q86 -2 86 -94v-43q0 -90 -93 -90h-845 q-43 0 -65.5 18.5t-26 34.5t-3.5 43zM289 1823q0 25 53 24h53q23 -2 44.5 -18.5t213.5 -169.5q219 176 236 184q25 6 82 6q47 0 47 -26q0 -14 -105 -137q-66 -78 -112 -134q-29 -33 -39 -40t-31 -7h-149q-33 0 -60 27q-184 219 -208.5 249t-24.5 42z" />
<glyph unicode="&#x11b;" horiz-adv-x="1046" d="M61 477q0 250 131.5 373t360.5 123q123 0 210 -38t133 -104.5t65.5 -140.5t19.5 -164q0 -88 -90 -88h-565q8 -311 260 -311q90 0 164.5 29.5t122 65.5t55.5 38h8l10 -4q10 -10 15.5 -46t5.5 -67l2 -30q0 -27 -33 -45q-158 -90 -354 -91q-256 0 -388.5 127t-132.5 373z M201 1339q4 25 41 25h53q29 0 138.5 -15.5t119.5 -15.5q12 0 113.5 15.5t179.5 15.5h16q31 0 41 -16v-9l-2 -10q-6 -8 -13 -12t-62.5 -16.5t-174.5 -34.5l-41 -2h-110l-41 2q-59 12 -140 28q-84 16 -99 22.5t-19 22.5zM328 571h424q-6 119 -47 185.5t-152 66.5 q-200 0 -225 -252z" />
<glyph unicode="&#x11c;" horiz-adv-x="1501" d="M123 713q0 756 749 755q223 0 408 -86q47 -20 47 -43q0 -12 -29 -178q-10 -47 -24 -59l-10 -2q-14 4 -46 30.5t-68 55t-110.5 52.5t-167.5 24q-115 0 -200.5 -35t-134 -87.5t-77 -130t-37.5 -148t-9 -156.5q0 -545 463 -545q66 0 192 22v285h-151q-23 0 -33.5 8t-12.5 37 v102q0 23 7.5 33t16.5 12.5t28 2.5h385q23 -2 32 -10.5t9 -33.5v-518q0 -35 -31 -51q-209 -94 -451 -94q-121 0 -223 20.5t-201.5 72.5t-168 135t-110.5 218.5t-42 311.5zM520 1532q0 10 20 41q20 29 109.5 145.5t95.5 122.5q23 29 58 31h239q31 0 41 -11.5t29 -52.5 q6 -14 8 -20q104 -244 104 -254q0 -29 -47 -29h-45q-12 0 -18 1t-14.5 2t-16.5 8.5t-18.5 14.5t-28.5 24.5t-37.5 36t-54.5 51t-72 65.5q-197 -180 -217 -192q-16 -10 -45 -11h-41q-49 0 -49 27z" />
<glyph unicode="&#x11d;" d="M49 -133q0 129 115 192q-53 80 -53 162q0 86 55 168v4q-82 94 -82 228q0 59 15.5 111t55.5 107.5t128 88.5t215 33h6q82 0 140 -13.5t86 -26t36 -12.5q6 0 45 12.5t100.5 26t118.5 13.5q29 0 37 -15.5t18 -75.5q2 -16 5 -26q2 -39 -35 -39q-4 0 -22.5 3t-50.5 5t-69 2 l-53 -2q49 -98 49 -190q0 -338 -413 -338q-131 0 -236 41q-6 -23 -6 -39q0 -98 121 -99h176q78 0 126 -2t117.5 -11t111.5 -29.5t84 -54.5t61.5 -89t19.5 -131q0 -178 -188 -250q-113 -43 -322 -43q-45 0 -74.5 1t-86 5t-98.5 16.5t-89 31t-83 52t-56 76.5q-25 50 -25 107z M146 1106q0 12 25.5 42t183.5 198q39 43 71 43h140h14t12.5 -3.5t9.5 -4.5t10 -7t9 -8t11.5 -12.5t13.5 -14.5q43 -47 106 -114q98 -106 98 -119q0 -27 -55 -27h-45h-10t-9.5 1t-10.5 4t-11 6.5t-16.5 10.5t-21.5 14t-28.5 21.5t-36 28t-49 36t-59.5 44.5 q-213 -158 -225 -162q-8 -4 -27 -4h-45q-55 0 -55 27zM260 -129q0 -145 303 -145h8q113 0 181.5 24.5t88 52t19.5 60.5q0 59 -67.5 80.5t-214.5 21.5h-201q-86 0 -107 -43q-10 -20 -10 -51zM348 606q0 -86 27.5 -130t118.5 -44q92 0 122.5 39t30.5 135v33q0 88 -28.5 131 t-116.5 43q-90 0 -122 -39t-32 -135v-33z" />
<glyph unicode="&#x11e;" horiz-adv-x="1501" d="M123 713q0 756 749 755q223 0 408 -86q47 -20 47 -43q0 -12 -29 -178q-10 -47 -24 -59l-10 -2q-14 4 -46 30.5t-68 55t-110.5 52.5t-167.5 24q-115 0 -200.5 -35t-134 -87.5t-77 -130t-37.5 -148t-9 -156.5q0 -545 463 -545q66 0 192 22v285h-151q-23 0 -33.5 8t-12.5 37 v102q0 23 7.5 33t16.5 12.5t28 2.5h385q23 -2 32 -10.5t9 -33.5v-518q0 -35 -31 -51q-209 -94 -451 -94q-121 0 -223 20.5t-201.5 72.5t-168 135t-110.5 218.5t-42 311.5zM487 1767q0 41 25 60.5t49 19.5q53 0 70 -47q2 -4 5 -19.5t6 -23.5t18.5 -21.5t40 -19.5t69.5 -12 t109 -6q201 0 227 61l4 15q2 12 6 22t12.5 23.5t22.5 20.5t35 7q27 0 50.5 -20.5t23.5 -59.5q0 -113 -105.5 -187.5t-282.5 -74.5q-168 0 -276.5 72.5t-108.5 189.5z" />
<glyph unicode="&#x11f;" d="M49 -133q0 129 115 192q-53 80 -53 162q0 86 55 168v4q-82 94 -82 228q0 59 15.5 111t55.5 107.5t128 88.5t215 33h6q82 0 140 -13.5t86 -26t36 -12.5q6 0 45 12.5t100.5 26t118.5 13.5q29 0 37 -15.5t18 -75.5q2 -16 5 -26q2 -39 -35 -39q-4 0 -22.5 3t-50.5 5t-69 2 l-53 -2q49 -98 49 -190q0 -338 -413 -338q-131 0 -236 41q-6 -23 -6 -39q0 -98 121 -99h176q78 0 126 -2t117.5 -11t111.5 -29.5t84 -54.5t61.5 -89t19.5 -131q0 -178 -188 -250q-113 -43 -322 -43q-45 0 -74.5 1t-86 5t-98.5 16.5t-89 31t-83 52t-56 76.5q-25 50 -25 107z M174 1286q0 33 20.5 55.5t53.5 22.5q20 0 31.5 -6t20.5 -13.5t58.5 -13.5t135.5 -6h43h141t82 4t39 5t22.5 10.5t18.5 11.5q14 8 32 8q29 0 51.5 -21.5t22.5 -56.5q0 -154 -336 -153h-69q-55 0 -89 1t-93.5 9t-94.5 22.5t-62.5 46t-27.5 74.5zM260 -129q0 -145 303 -145h8 q113 0 181.5 24.5t88 52t19.5 60.5q0 59 -67.5 80.5t-214.5 21.5h-201q-86 0 -107 -43q-10 -20 -10 -51zM348 606q0 -86 27.5 -130t118.5 -44q92 0 122.5 39t30.5 135v33q0 88 -28.5 131t-116.5 43q-90 0 -122 -39t-32 -135v-33z" />
<glyph unicode="&#x120;" horiz-adv-x="1501" d="M123 713q0 756 749 755q223 0 408 -86q47 -20 47 -43q0 -12 -29 -178q-10 -47 -24 -59l-10 -2q-14 4 -46 30.5t-68 55t-110.5 52.5t-167.5 24q-115 0 -200.5 -35t-134 -87.5t-77 -130t-37.5 -148t-9 -156.5q0 -545 463 -545q66 0 192 22v285h-151q-23 0 -33.5 8t-12.5 37 v102q0 23 7.5 33t16.5 12.5t28 2.5h385q23 -2 32 -10.5t9 -33.5v-518q0 -35 -31 -51q-209 -94 -451 -94q-121 0 -223 20.5t-201.5 72.5t-168 135t-110.5 218.5t-42 311.5zM727 1669v90q0 59 23.5 81t76.5 22l19 -2h67q35 0 54.5 -5.5t35 -28t15.5 -67.5v-88 q0 -53 -20.5 -77.5t-76.5 -24.5h-90q-51 0 -77.5 18.5t-26.5 81.5z" />
<glyph unicode="&#x121;" d="M49 -133q0 129 115 192q-53 80 -53 162q0 86 55 168v4q-82 94 -82 228q0 59 15.5 111t55.5 107.5t128 88.5t215 33h6q82 0 140 -13.5t86 -26t36 -12.5q6 0 45 12.5t100.5 26t118.5 13.5q29 0 37 -15.5t18 -75.5q2 -16 5 -26q2 -39 -35 -39q-4 0 -22.5 3t-50.5 5t-69 2 l-53 -2q49 -98 49 -190q0 -338 -413 -338q-131 0 -236 41q-6 -23 -6 -39q0 -98 121 -99h176q78 0 126 -2t117.5 -11t111.5 -29.5t84 -54.5t61.5 -89t19.5 -131q0 -178 -188 -250q-113 -43 -322 -43q-45 0 -74.5 1t-86 5t-98.5 16.5t-89 31t-83 52t-56 76.5q-25 50 -25 107z M260 -129q0 -145 303 -145h8q113 0 181.5 24.5t88 52t19.5 60.5q0 59 -67.5 80.5t-214.5 21.5h-201q-86 0 -107 -43q-10 -20 -10 -51zM348 606q0 -86 27.5 -130t118.5 -44q92 0 122.5 39t30.5 135v33q0 88 -28.5 131t-116.5 43q-90 0 -122 -39t-32 -135v-33zM352 1284v96 q0 35 7 56.5t27.5 30t26.5 9.5t31 3h106q47 0 69.5 -20.5t22.5 -76.5v-100q0 -16 -2 -28.5t-7 -21.5t-9 -16.5t-12 -11.5t-13.5 -7t-13.5 -5t-12 -2t-12 -2h-9h-106q-43 0 -68.5 19.5t-25.5 76.5z" />
<glyph unicode="&#x124;" horiz-adv-x="1626" d="M186 81v30v1214q0 96 97 96h104q90 0 90 -92v-493h670v495q0 90 90 90h106q33 0 54.5 -9t29 -28.5t9.5 -30t2 -28.5v-1214v-7q0 -23 -2 -36t-9.5 -31.5t-27 -27.5t-51.5 -9h-105q-96 0 -96 90v551h-670v-551q0 -90 -94 -90h-104q-29 0 -47.5 9t-27.5 16.5t-13.5 29 t-4.5 26.5zM459 1532q0 10 20 41q20 29 109.5 145.5t95.5 122.5q23 29 58 31h239q31 0 41 -11.5t29 -52.5q6 -14 8 -20q104 -244 104 -254q0 -29 -47 -29h-45q-12 0 -18 1t-14.5 2t-16.5 8.5t-18.5 14.5t-28.5 24.5t-37.5 36t-54.5 51t-72 65.5q-197 -180 -217 -192 q-16 -10 -45 -11h-41q-49 0 -49 27z" />
<glyph unicode="&#x125;" horiz-adv-x="1148" d="M121 90v1290q0 98 90 99h82q31 0 49 -4.5t35.5 -26t17.5 -62.5v-561q135 135 326 136q74 0 128 -13.5t86 -41t51.5 -53.5t26.5 -72t9 -73.5t2 -76.5v-541q0 -90 -88 -90h-96q-55 0 -75 23.5t-20 66.5v574q0 74 -22.5 110.5t-95.5 36.5q-92 0 -151.5 -62.5t-72.5 -144.5 q-2 -10 -2 -72v-430q0 -25 -2 -38t-10 -30.5t-29.5 -25.5t-54.5 -8h-90q-94 0 -94 90zM222 1612q0 12 25.5 42t183.5 198q39 43 71 43h140h14t12.5 -3.5t9.5 -4.5t10 -7t9 -8t11.5 -12.5t13.5 -14.5q43 -47 106 -114q98 -106 98 -119q0 -27 -55 -27h-45h-10t-9.5 1t-10.5 4 t-11 6.5t-16.5 10.5t-21.5 14t-28.5 21.5t-36 28t-49 36t-59.5 44.5q-213 -158 -225 -162q-8 -4 -27 -4h-45q-55 0 -55 27z" />
<glyph unicode="&#x127;" horiz-adv-x="1263" d="M-14 1108v25q0 25 8 36t37 11h205v151q0 92 90 92h92q92 0 92 -92v-151h274q41 0 43 -41v-58q0 -33 -9 -41t-36 -8h-272v-272q39 76 120 138.5t210 62.5q82 0 140 -18.5t89 -46.5t47.5 -75t20.5 -86t4 -100v-547q0 -88 -90 -88h-97q-41 0 -62.5 16.5t-25.5 33t-4 40.5 v561q0 90 -23.5 125t-97.5 35q-84 0 -154.5 -64.5t-70.5 -203.5v-441q0 -29 -3 -46t-24.5 -36.5t-64.5 -19.5h-92q-47 0 -71.5 18.5t-24.5 73.5v940h-209q-33 2 -37 12.5t-4 63.5z" />
<glyph unicode="&#x12a;" horiz-adv-x="665" d="M-75 1658v31q0 29 8 42t37 13h723q33 0 39 -14t6 -61v-54q0 -45 -39 -47h-729q-35 0 -40 12t-5 78zM186 94v1231q0 96 86 96h111q94 0 94 -92v-1231q0 -39 -6 -53q-4 -10 -12 -19.5t-14.5 -13.5t-16.5 -7t-15 -3t-15.5 -1t-12.5 -1h-104q-45 0 -70 19.5t-25 74.5z" />
<glyph unicode="&#x12b;" horiz-adv-x="522" d="M-145 1239v31q0 29 8 42t37 13h723q33 0 39 -14t6 -61v-54q0 -45 -39 -47h-729q-35 0 -40 12t-5 78zM123 102v744q0 92 90 92h84q45 0 68.5 -16.5t27.5 -35t4 -50.5v-744q0 -92 -90 -92h-94q-43 0 -64.5 20.5t-23.5 36.5t-2 45z" />
<glyph unicode="&#x130;" horiz-adv-x="665" d="M186 94v1231q0 96 86 96h111q94 0 94 -92v-1231q0 -39 -6 -53q-4 -10 -12 -19.5t-14.5 -13.5t-16.5 -7t-15 -3t-15.5 -1t-12.5 -1h-104q-45 0 -70 19.5t-25 74.5zM187 1704v96q0 35 7 56.5t27.5 30t26.5 9.5t31 3h106q47 0 69.5 -20.5t22.5 -76.5v-100q0 -16 -2 -28.5 t-7 -21.5t-9 -16.5t-12 -11.5t-13.5 -7t-13.5 -5t-12 -2t-12 -2h-9h-106q-43 0 -68.5 19.5t-25.5 76.5z" />
<glyph unicode="&#x131;" horiz-adv-x="522" d="M123 102v744q0 92 90 92h84q45 0 68.5 -16.5t27.5 -35t4 -50.5v-744q0 -92 -90 -92h-94q-43 0 -64.5 20.5t-23.5 36.5t-2 45z" />
<glyph unicode="&#x134;" horiz-adv-x="1062" d="M96 74q0 45 31 188q8 23 23 23q12 0 31.5 -19.5l43 -43t70.5 -43t106 -19.5q188 0 189 155v1012q0 14 2 25.5t5 20.5t8 16.5t9 11.5t11.5 8t11.5 6t13 3t12.5 1t13.5 2h8h94q55 0 75.5 -22.5t20.5 -73.5v-1010q0 -102 -35.5 -177t-96 -112.5t-125 -54t-136.5 -16.5 q-111 0 -229.5 31.5t-151.5 64.5q-4 9 -4 23zM381 1532q0 10 20 41q20 29 109.5 145.5t95.5 122.5q23 29 58 31h239q31 0 41 -11.5t29 -52.5q6 -14 8 -20q104 -244 104 -254q0 -29 -47 -29h-45q-12 0 -18 1t-14.5 2t-16.5 8.5t-18.5 14.5t-28.5 24.5t-37.5 36t-54.5 51 t-72 65.5q-197 -180 -217 -192q-16 -10 -45 -11h-41q-49 0 -49 27z" />
<glyph unicode="&#x135;" horiz-adv-x="585" d="M-141 -324q23 117 59 117q8 0 52 -20.5t98 -20.5q20 0 37.5 3t28.5 10.5t20.5 12.5t15.5 17t9 18.5t5 21.5t3 20.5t1 21.5v17v954q0 16 3.5 30.5t7.5 23.5t12 15.5t14 10.5t16.5 6t14.5 2t13.5 1t11.5 1h88q94 0 94 -94v-875q0 -244 -111 -331q-72 -59 -196 -60 q-84 0 -190.5 30.5t-106.5 67.5zM-26 1106q0 12 25.5 42t183.5 198q39 43 71 43h140h14t12.5 -3.5t9.5 -4.5t10 -7t9 -8t11.5 -12.5t13.5 -14.5q43 -47 106 -114q98 -106 98 -119q0 -27 -55 -27h-45h-10t-9.5 1t-10.5 4t-11 6.5t-16.5 10.5t-21.5 14t-28.5 21.5t-36 28 t-49 36t-59.5 44.5q-213 -158 -225 -162q-8 -4 -27 -4h-45q-55 0 -55 27z" />
<glyph unicode="&#x139;" horiz-adv-x="1187" d="M6 1591q0 10 14 25q47 37 115 88q90 72 109.5 83t44.5 11h284q41 0 41 -26q0 -6 -3 -11.5t-7 -8.5t-10 -7l-6 -2q-98 -43 -230 -98q-137 -59 -164.5 -69.5t-50.5 -10.5h-102q-31 1 -35 26zM184 96v1229q0 49 20.5 72.5t74.5 23.5h106q90 0 90 -88v-1126q78 0 206 3t222 5 t98 2q90 0 91 -94v-23q0 -29 -4.5 -48t-27 -35.5t-65.5 -16.5h-716q-29 0 -46.5 5t-33 27.5t-15.5 63.5z" />
<glyph unicode="&#x13a;" horiz-adv-x="522" d="M82 1589q0 6 3 13.5t10 13.5t13.5 11t15.5 11.5t13 10.5q41 31 96 73q72 57 88.5 66.5t40.5 9.5h287q41 0 41 -26q0 -6 -4 -11.5t-8 -8.5t-9 -6t-7 -3q-399 -172 -418 -176q-10 -2 -25 -2h-102q-31 1 -35 24zM123 92v1290q0 96 86 97h94q94 0 94 -93v-1286q0 -25 -2 -39 t-10 -29.5t-27.5 -22.5t-52.5 -9h-84q-47 0 -72.5 18.5t-25.5 73.5z" />
<glyph unicode="&#x13d;" horiz-adv-x="1187" d="M186 96v1229q0 49 20.5 72.5t74.5 23.5h106q90 0 90 -88v-1126q78 0 206 3t222 5t99 2q90 0 90 -94v-23q0 -29 -4.5 -48t-27 -35.5t-65.5 -16.5h-716q-29 0 -46.5 5t-33 27.5t-15.5 63.5zM549 1395q0 2 1 6t1 6v115q0 8 -1 20t-1 19q0 35 12 46t35 11h158q43 -2 54 -9 t11 -30v-180q0 -29 -14 -48.5t-115 -123.5q-23 -23 -53 -23h-41q-43 0 -43 25q0 14 59 119h-16q-16 0 -24.5 2t-15.5 13.5t-7 31.5z" />
<glyph unicode="&#x13e;" horiz-adv-x="872" d="M123 92v1290q0 96 86 97h94q94 0 94 -93v-1286q0 -25 -2 -39t-10 -29.5t-27.5 -22.5t-52.5 -9h-84q-47 0 -72.5 18.5t-25.5 73.5zM446 1317q0 2 1.5 6t1.5 6v115q0 8 -1.5 20.5t-1.5 18.5q0 35 12.5 46t35.5 11h157q43 -2 54.5 -9t11.5 -30v-180q0 -29 -14.5 -48.5 t-114.5 -123.5q-23 -23 -56 -23h-38q-43 0 -43 25q0 14 59 119h-16q-16 0 -24.5 2t-16 13.5t-7.5 31.5z" />
<glyph unicode="&#x141;" horiz-adv-x="1376" d="M152 537q0 31 27.5 56t195.5 155v581q0 43 19.5 67.5t76.5 24.5h102q92 0 93 -96v-346q229 180 247 188q10 4 25 4q39 0 70.5 -40.5t31.5 -71.5q0 -27 -31.5 -56.5t-189.5 -152.5q-94 -72 -153 -119v-524l526 8h4q86 0 86 -94v-15q4 -106 -94 -106h-725q-88 0 -88 92v408 q-10 -8 -33 -26.5t-34 -26t-26.5 -14.5t-29.5 -7q-33 0 -66.5 39t-33.5 72z" />
<glyph unicode="&#x142;" horiz-adv-x="780" d="M35 594q0 18 9 34.5t20.5 26t44.5 35.5q133 104 139 109v587q0 47 21.5 70t76.5 23h86q90 0 90 -99v-364q16 12 34.5 27.5t29 23.5t24 18.5t20.5 15.5t15 11t13.5 8t10.5 5t10 4t9 2.5t10 1.5q29 0 51.5 -20.5t22.5 -53.5q0 -29 -23.5 -53.5t-134.5 -108.5 q-57 -43 -92 -72v-731q0 -94 -94 -94h-88q-92 0 -92 90v520q-16 -12 -40 -31.5t-33 -26.5t-23.5 -16.5t-23.5 -12.5t-19 -3q-29 0 -51.5 20.5t-22.5 53.5z" />
<glyph unicode="&#x143;" horiz-adv-x="1626" d="M186 94v1235q0 92 95 92h188q66 0 96.5 -24.5t59.5 -79.5l561 -1075v1085q0 27 3 43t25.5 33.5t65.5 17.5h68q90 0 90 -92v-1237q0 -92 -95 -92h-186q-66 0 -97.5 25.5t-60.5 78.5l-561 1076v-1086q0 -94 -94 -94h-68q-90 0 -90 94zM539 1591q0 10 14 25q47 37 115 88 q90 72 109.5 83t43.5 11h287q41 0 41 -26q0 -6 -3 -11.5t-7 -8.5t-11 -7l-6 -2q-98 -43 -229 -98q-137 -59 -165 -69.5t-50 -10.5h-105q-30 1 -34 26z" />
<glyph unicode="&#x144;" horiz-adv-x="1148" d="M121 92v764q0 39 16.5 61.5t33.5 26.5t42 4h82q20 0 31.5 -2t29 -9t25.5 -26.5t8 -50.5v-41q141 141 332 142q74 0 128 -13.5t86 -41t51.5 -53.5t26.5 -72t9 -73.5t2 -76.5v-541q0 -90 -88 -90h-96q-55 0 -75 23.5t-20 66.5v561q0 31 -1 47.5t-7 41t-18 38t-36 23.5 t-58 10q-86 0 -139.5 -52t-71.5 -114q-12 -45 -13 -110v-426q0 -4 -1 -11.5t-6 -27t-13 -33.5t-27.5 -25.5t-46.5 -11.5h-90q-96 0 -96 92zM377 1106q0 16 131 184q37 47 57.5 74t57.5 27h176q25 0 45 -11l6 -10v-8q-2 -14 -53 -55q-16 -10 -25 -19q-244 -193 -258 -200 t-37 -7h-55q-2 0 -11.5 1t-13.5 1t-9 2t-8 7.5t-3 13.5z" />
<glyph unicode="&#x147;" horiz-adv-x="1626" d="M186 94v1235q0 92 95 92h188q66 0 96.5 -24.5t59.5 -79.5l561 -1075v1085q0 27 3 43t25.5 33.5t65.5 17.5h68q90 0 90 -92v-1237q0 -92 -95 -92h-186q-66 0 -97.5 25.5t-60.5 78.5l-561 1076v-1086q0 -94 -94 -94h-68q-90 0 -90 94zM449 1823q0 25 51 24h55 q23 -2 44.5 -18.5t213.5 -169.5q219 176 236 184q25 6 79 6q49 0 50 -26q0 -12 -84 -113q-76 -88 -136 -158q-29 -33 -39 -40t-30 -7h-148q-33 0 -59 27q-184 219 -208.5 249t-24.5 42z" />
<glyph unicode="&#x148;" horiz-adv-x="1148" d="M121 92v764q0 39 16.5 61.5t33.5 26.5t42 4h82q20 0 31.5 -2t29 -9t25.5 -26.5t8 -50.5v-41q141 141 332 142q74 0 128 -13.5t86 -41t51.5 -53.5t26.5 -72t9 -73.5t2 -76.5v-541q0 -90 -88 -90h-96q-55 0 -75 23.5t-20 66.5v561q0 31 -1 47.5t-7 41t-18 38t-36 23.5 t-58 10q-86 0 -139.5 -52t-71.5 -114q-12 -45 -13 -110v-426q0 -4 -1 -11.5t-6 -27t-13 -33.5t-27.5 -25.5t-46.5 -11.5h-90q-96 0 -96 92zM168 1339q4 25 41 25h53q35 0 138.5 -15.5t119.5 -15.5q12 0 114.5 15.5t180.5 15.5h14q31 0 41 -16v-9l-2 -10q-6 -8 -13 -12 t-62.5 -16.5t-174.5 -34.5l-40 -2h-111l-41 2q-59 12 -139 28q-84 16 -99.5 22.5t-19.5 22.5z" />
<glyph unicode="&#x150;" horiz-adv-x="1626" d="M123 702q0 766 686 766q690 0 690 -766q0 -748 -686 -747q-690 -1 -690 747zM414 707q0 -51 1 -88t9 -102.5t22.5 -114t44 -104.5t70.5 -92t105.5 -60.5t146.5 -24.5q162 0 262 100q47 47 76 112.5t40 146.5t14 134.5t3 135.5v14q0 49 -1 84t-9 97.5t-22.5 105.5t-44 95 t-70.5 85t-105.5 55.5t-144.5 22.5q-166 0 -268 -99q-59 -57 -90 -153t-35 -161t-4 -173v-16zM444 1589q0 14 25 35q209 160 225 168q12 6 37 6h275q31 0 47 -12q23 12 53 12h272q45 0 49 -26q-4 -16 -26 -29q-14 -6 -375 -162q-39 -16 -68 -16h-102q-37 0 -37 26 q0 14 62 62q6 4 22 16q33 27 55 43q-352 -145 -364 -147h-82q-68 -1 -68 24z" />
<glyph unicode="&#x151;" d="M61 459q0 147 40 251.5t110 160t147.5 79t171.5 23.5q53 0 93.5 -2t98.5 -13.5t101 -32t90.5 -59.5t78 -92t50 -136t19.5 -187q0 -473 -498 -474q-502 1 -502 482zM240 1106q0 4 2 8t6 11.5t9.5 15.5t15.5 20.5t20.5 25.5t25.5 33.5t30.5 39t38 48t42.5 56.5q23 27 54 27 h178q25 0 45 -11l6 -10v-8q-2 -14 -53 -55q-16 -10 -25 -19q-53 -41 -129 -100q-102 -80 -122.5 -93.5t-45.5 -13.5h-53q-2 0 -11 1t-13.5 1t-9.5 2t-8 7.5t-3 13.5zM342 438q2 -53 4 -79.5t14.5 -77t33 -76t63.5 -47t104.5 -21.5t104.5 21.5t64.5 49.5t33.5 76t14 81.5 t2 85.5v16v55q0 43 -2 64.5t-7 64.5t-19.5 67.5t-38 52.5t-62.5 40t-92 12q-63 0 -107 -22.5t-64.5 -50t-32 -82t-12.5 -84t-1 -90.5v-56zM614 1106q0 4 2 8t6 11.5t9.5 15.5t15.5 20.5t20.5 25.5t25.5 33.5t30.5 39t38 48t42.5 56.5q23 27 54 27h178q25 0 45 -11l6 -10v-8 q-2 -14 -53 -55q-16 -10 -25 -19q-53 -41 -129 -100q-102 -80 -122.5 -93.5t-45.5 -13.5h-53q-2 0 -11 1t-13.5 1t-9.5 2t-8 7.5t-3 13.5z" />
<glyph unicode="&#x152;" horiz-adv-x="2189" d="M61 698q0 770 742 770q78 0 206 -23.5t234 -23.5h727q61 0 77.5 -27.5t16.5 -80.5v-15q0 -92 -90 -92l-43 2h-57l-522 6v-380h544q33 0 51.5 -4.5t36 -27t17.5 -67.5q0 -96 -90 -96h-559v-420q635 8 645 8q47 0 72.5 -18.5t25.5 -73.5v-31q0 -49 -16.5 -72.5t-35 -27.5 t-56.5 -4h-773q-76 0 -206.5 -22.5t-206.5 -22.5q-152 0 -275 34t-232.5 112.5t-171 230t-61.5 366.5zM346 723q0 -621 477 -621q154 0 197 64.5t43 243.5v594q-4 188 -49 251.5t-180 63.5q-123 0 -213.5 -35t-141.5 -87t-81.5 -132t-41 -154.5t-10.5 -167.5v-20z" />
<glyph unicode="&#x153;" horiz-adv-x="1751" d="M61 473q0 143 41 245.5t114 156t153 76t176 22.5q127 0 220 -22.5t169 -90.5h2q125 113 346 113q403 0 404 -445q0 -90 -97 -90h-512q4 -311 242 -311q68 0 127 20.5t92 45t60.5 46t37.5 23.5l9 -2l8 -6q8 -12 13 -47t5 -64l2 -30q0 -18 -9 -27.5t-38 -26.5 q-143 -82 -319 -82q-231 0 -367 117q-141 -117 -377 -117q-240 0 -371 124t-131 372zM330 432q2 -66 10 -112t30.5 -94t72 -73.5t122.5 -25.5q55 0 97.5 14.5t67 47t38.5 57t20.5 76t7.5 71t1 70.5v53q0 51 -2 75.5t-14.5 77t-34 80t-68.5 51t-113 23.5q-63 0 -108 -19.5 t-68.5 -46t-37 -70.5t-17.5 -76.5t-4 -78.5v-100zM1081 571h371q-4 117 -41 184.5t-129 67.5q-183 0 -201 -252z" />
<glyph unicode="&#x154;" horiz-adv-x="1439" d="M186 96v1231q0 94 95 94h497q274 -4 406 -110q129 -104 129 -293q0 -281 -318 -361q-6 -2 -10 -2l336 -567q12 -25 14 -39q-6 -49 -69 -49h-117q-43 0 -61.5 11.5t-36.5 45.5q-315 545 -334 580h-246v-547q0 -16 -2 -26.5t-9 -28t-29.5 -26.5t-55.5 -9h-99q-90 0 -90 96z M414 1591q0 10 14 25q47 37 115 88q90 72 109.5 83t43.5 11h285q43 0 43 -26q0 -6 -4 -11.5t-8 -8.5t-9.5 -6t-7.5 -3q-403 -172 -415 -176q-10 -2 -27 -2h-104q-31 1 -35 26zM471 784h258q156 0 232.5 45t76.5 184.5t-75.5 185.5t-231.5 46h-258l-2 -69v-392z" />
<glyph unicode="&#x155;" horiz-adv-x="761" d="M123 88v768q0 59 25.5 75.5t68.5 16.5h68q55 0 82 -26q14 -16 16 -33t4 -94q49 68 118.5 108.5t109.5 49t71 8.5h2q27 0 34 -10.5t7 -35.5v-114q0 -23 -10 -37q-12 -10 -54 -15.5t-75 -15.5q-70 -25 -121 -76t-66 -118q-6 -27 -6 -78v-359q0 -43 -6 -56t-31 -34 q-25 -12 -57 -12h-88q-55 0 -73.5 24.5t-18.5 63.5zM190 1106q0 4 2 8t6 11.5t9.5 15.5t15.5 20.5t20.5 25.5t25.5 33.5t30.5 39t38 48t42.5 56.5q23 27 54 27h178q25 0 45 -11l6 -10v-8q-2 -14 -53 -55q-16 -10 -25 -19q-53 -41 -129 -100q-102 -80 -122.5 -93.5 t-45.5 -13.5h-53q-2 0 -11 1t-13.5 1t-9.5 2t-8 7.5t-3 13.5z" />
<glyph unicode="&#x158;" horiz-adv-x="1439" d="M186 96v1231q0 94 95 94h497q274 -4 406 -110q129 -104 129 -293q0 -281 -318 -361q-6 -2 -10 -2l336 -567q12 -25 14 -39q-6 -49 -69 -49h-117q-43 0 -61.5 11.5t-36.5 45.5q-315 545 -334 580h-246v-547q0 -16 -2 -26.5t-9 -28t-29.5 -26.5t-55.5 -9h-99q-90 0 -90 96z M309 1823q0 25 53 24h54q23 -2 49.5 -21.5t210.5 -166.5q219 176 235 184q25 6 80 6q47 0 47 -26q0 -14 -104 -137q-66 -78 -113 -134q-29 -33 -39 -40t-30 -7h-150q-31 0 -57 27q-231 272 -234 283q-2 4 -2 8zM471 784h258q156 0 232.5 45t76.5 184.5t-75.5 185.5 t-231.5 46h-258l-2 -69v-392z" />
<glyph unicode="&#x159;" horiz-adv-x="761" d="M123 88v768q0 59 25.5 75.5t68.5 16.5h68q55 0 82 -26q14 -16 16 -33t4 -94q49 68 118.5 108.5t109.5 49t71 8.5h2q27 0 34 -10.5t7 -35.5v-114q0 -23 -10 -37q-12 -10 -54 -15.5t-75 -15.5q-70 -25 -121 -76t-66 -118q-6 -27 -6 -78v-359q0 -43 -6 -56t-31 -34 q-25 -12 -57 -12h-88q-55 0 -73.5 24.5t-18.5 63.5zM127 1339q4 25 41 25h53q35 0 138.5 -15.5t119.5 -15.5q12 0 114.5 15.5t180.5 15.5h14q31 0 41 -16v-9l-2 -10q-6 -8 -13 -12t-62.5 -16.5t-173.5 -34.5l-41 -2h-111l-41 2q-59 12 -139 28q-84 16 -99.5 22.5t-19.5 22.5 z" />
<glyph unicode="&#x15a;" horiz-adv-x="1251" d="M100 129q0 16 29 172q10 61 33 61q12 0 49 -28.5t82 -64.5t137 -64.5t203 -28.5q233 0 233 201q0 121 -123 178q-23 10 -45 16.5t-87.5 20.5t-137.5 33q-131 33 -240.5 140t-109.5 277q0 74 17.5 137.5t65.5 134t155.5 112.5t265.5 42q104 0 205.5 -25.5t154.5 -51 t57 -39.5q2 -4 3 -15q0 -33 -37 -215q-8 -23 -21 -22q-16 0 -42.5 24.5t-58.5 53t-107.5 53t-176.5 24.5q-125 0 -174 -52t-49 -122q0 -53 25.5 -90t74.5 -58.5t96.5 -33.5t113 -25.5t100.5 -25.5q135 -43 234 -158t99 -282q0 -90 -22.5 -166t-75.5 -143.5t-155.5 -105.5 t-245.5 -38q-123 0 -248 32.5t-194.5 68.5t-78.5 55q-4 16 -4 18zM319 1591q0 10 15 25q47 37 115 88q90 72 109.5 83t43.5 11h285q43 0 43 -26q0 -6 -4 -11.5t-8.5 -8.5t-9.5 -6t-7 -3q-403 -172 -416 -176q-10 -2 -26 -2h-105q-31 1 -35 26z" />
<glyph unicode="&#x15b;" horiz-adv-x="864" d="M63 102.5q0 8.5 25 147.5q10 43 29 43q12 0 50 -38t110.5 -77t171.5 -39q158 0 157 107q0 96 -155 119q-6 2 -39 8t-43.5 8t-40 9t-43 12.5t-38 16.5t-41 22.5t-35.5 27.5t-36 37q-61 72 -61 174q0 92 30.5 153.5t88 90t113.5 39t132 10.5q111 0 205 -24.5t123 -51.5 q6 -12 6 -23q-14 -162 -49 -161q-10 0 -43 27.5t-96.5 55t-149.5 27.5h-22q-23 0 -30 -2t-27.5 -5t-30 -9t-22.5 -15.5t-18 -25.5t-5 -37q0 -51 41.5 -75.5t134 -41t118.5 -24.5q90 -31 164 -105.5t74 -195.5q0 -172 -97.5 -241t-264.5 -69q-98 0 -190.5 24t-137.5 47.5 t-51 33.5q-7 12 -7 20.5zM246 1106q0 4 2 8t6 11.5t9 15.5t15.5 20.5t20.5 25.5t25.5 33.5t31 39t38 48t42.5 56.5q23 27 53 27h179q25 0 45 -11l6 -10v-8q-2 -14 -53 -55q-16 -10 -25 -19q-53 -41 -129 -100q-102 -80 -122.5 -93.5t-45.5 -13.5h-53q-2 0 -11.5 1t-13.5 1 t-9 2t-8 7.5t-3 13.5z" />
<glyph unicode="&#x15c;" horiz-adv-x="1251" d="M100 129q0 16 29 172q10 61 33 61q12 0 49 -28.5t82 -64.5t137 -64.5t203 -28.5q233 0 233 201q0 121 -123 178q-23 10 -45 16.5t-87.5 20.5t-137.5 33q-131 33 -240.5 140t-109.5 277q0 74 17.5 137.5t65.5 134t155.5 112.5t265.5 42q104 0 205.5 -25.5t154.5 -51 t57 -39.5q2 -4 3 -15q0 -33 -37 -215q-8 -23 -21 -22q-16 0 -42.5 24.5t-58.5 53t-107.5 53t-176.5 24.5q-125 0 -174 -52t-49 -122q0 -53 25.5 -90t74.5 -58.5t96.5 -33.5t113 -25.5t100.5 -25.5q135 -43 234 -158t99 -282q0 -90 -22.5 -166t-75.5 -143.5t-155.5 -105.5 t-245.5 -38q-123 0 -248 32.5t-194.5 68.5t-78.5 55q-4 16 -4 18zM274 1532q0 10 20 41q20 29 109.5 145.5t95.5 122.5q23 29 58 31h239q31 0 41 -11.5t29 -52.5q6 -14 8 -20q104 -244 104 -254q0 -29 -47 -29h-45q-12 0 -18 1t-14.5 2t-16.5 8.5t-18.5 14.5t-28.5 24.5 t-37.5 36t-54.5 51t-72 65.5q-197 -180 -217 -192q-16 -10 -45 -11h-41q-49 0 -49 27z" />
<glyph unicode="&#x15d;" horiz-adv-x="864" d="M63 102q0 8 25 144q6 47 29 47q10 0 48 -38t111.5 -77t169.5 -39q160 0 160 109q0 57 -49 83.5t-143.5 42t-126.5 27.5q-80 31 -146.5 98.5t-66.5 178.5q0 287 344 295h53q131 -2 250 -51q31 -12 40 -20.5t9 -29.5q0 -12 -20 -129q-8 -31 -25 -30q-14 0 -48 27.5 t-97.5 55t-151.5 27.5q-152 0 -152 -98q0 -53 57.5 -77.5t155 -42t142.5 -42.5q39 -18 73.5 -47t70.5 -91.5t36 -137.5q0 -172 -98.5 -241t-270.5 -69q-213 0 -366 99l-8 10q-5 12 -5 16zM66 1106q0 12 25.5 42t183.5 198q39 43 71 43h140h14t12.5 -3.5t9.5 -4.5t10 -7t9 -8 t11.5 -12.5t13.5 -14.5q43 -47 106 -114q98 -106 98 -119q0 -27 -55 -27h-45h-10t-9.5 1t-10.5 4t-11 6.5t-16.5 10.5t-21.5 14t-28.5 21.5t-36 28t-49 36t-59.5 44.5q-213 -158 -225 -162q-8 -4 -27 -4h-45q-55 0 -55 27z" />
<glyph unicode="&#x15e;" horiz-adv-x="1251" d="M100 129q0 16 29 172q10 61 33 61q12 0 49 -28.5t83 -64.5t137 -64.5t202 -28.5q233 0 233 201q0 121 -123 178q-23 10 -45 16.5t-87.5 20.5t-137.5 33q-131 33 -240.5 140t-109.5 277q0 74 17.5 137.5t65.5 134t155.5 112.5t265.5 42q104 0 205.5 -25.5t154.5 -51 t57 -39.5q2 -4 3 -17q0 -37 -37 -213q-8 -23 -21 -22q-16 0 -42.5 24.5t-58.5 53t-107.5 53t-176.5 24.5q-125 0 -175 -53t-50 -119q0 -63 39 -103t84 -58q39 -16 144.5 -39t144.5 -35q135 -43 234 -158t99 -282q0 -90 -22.5 -166t-75.5 -143.5t-155.5 -105.5t-245.5 -38 q-123 0 -248 32.5t-194.5 68.5t-78.5 55q-4 16 -4 18zM365 -367.5q0 5.5 3 12.5t7 14t12 21.5t16.5 27.5t23.5 36t28.5 44.5t36 56t43.5 67.5q27 41 53 41h55q51 0 51 -29q0 -10 -112 -282q-8 -23 -17.5 -29t-34.5 -8h-127q-20 0 -34 10l-4 8v9.5z" />
<glyph unicode="&#x15f;" horiz-adv-x="864" d="M63 102.5q0 8.5 25 147.5q10 43 29 43q12 0 50 -38t110.5 -77t171.5 -39q158 0 157 105q0 35 -16.5 58.5t-49 36.5t-60 20.5t-75 14.5t-69.5 13q-102 25 -182 98.5t-80 194.5q0 80 26.5 138.5t63.5 87t93 45t94 19.5t87 3q111 0 205 -24.5t123 -51.5q6 -12 6 -23 q-14 -162 -49 -161q-10 0 -43 27.5t-96.5 55t-149.5 27.5h-22q-23 0 -30 -2t-27.5 -5t-30 -9t-22.5 -15.5t-18 -25.5t-5 -37q0 -51 41.5 -75.5t134 -41t118.5 -24.5q90 -31 164 -105.5t74 -195.5q0 -172 -96.5 -241t-265.5 -69q-96 0 -188.5 24t-138.5 47.5t-52 33.5 q-7 12 -7 20.5zM182 -367q0 14 170 279q27 41 54 41h61q47 0 47 -29q0 -6 -115 -282q-16 -37 -51 -37h-129q-37 -1 -37 28z" />
<glyph unicode="&#x160;" horiz-adv-x="1251" d="M100 129q0 16 29 172q10 61 33 61q12 0 49 -28.5t82 -64.5t137 -64.5t203 -28.5q233 0 233 201q0 121 -123 178q-23 10 -45 16.5t-87.5 20.5t-137.5 33q-131 33 -240.5 140t-109.5 277q0 74 17.5 137.5t65.5 134t155.5 112.5t265.5 42q104 0 205.5 -25.5t154.5 -51 t57 -39.5q2 -4 3 -15q0 -33 -37 -215q-8 -23 -21 -22q-16 0 -42.5 24.5t-58.5 53t-107.5 53t-176.5 24.5q-125 0 -174 -52t-49 -122q0 -53 25.5 -90t74.5 -58.5t96.5 -33.5t113 -25.5t100.5 -25.5q135 -43 234 -158t99 -282q0 -90 -22.5 -166t-75.5 -143.5t-155.5 -105.5 t-245.5 -38q-123 0 -248 32.5t-194.5 68.5t-78.5 55q-4 16 -4 18zM258 1823q0 25 53 24h54q23 -2 49 -21.5t211 -166.5q219 176 235 184q25 6 80 6q47 0 47 -26q0 -14 -104 -137q-66 -78 -113 -134q-29 -33 -39 -40t-31 -7h-149q-31 0 -57 27q-231 272 -234 283q-2 4 -2 8z " />
<glyph unicode="&#x161;" horiz-adv-x="864" d="M63 102.5q0 8.5 25 147.5q10 43 29 43q12 0 50 -38t110.5 -77t171.5 -39q158 0 157 105q0 35 -16.5 58.5t-49 36.5t-60 20.5t-75 14.5t-69.5 13q-102 25 -182 98.5t-80 194.5q0 92 31.5 153.5t89 90t114 39t129.5 10.5q111 0 205 -24.5t123 -51.5q6 -12 6 -23 q-14 -162 -49 -161q-10 0 -43 27.5t-96.5 55t-149.5 27.5h-19.5t-25.5 -1t-24.5 -3t-25.5 -6t-22.5 -11t-20.5 -16.5t-12 -25t-5 -33.5q0 -84 137 -106q4 0 47 -8.5t60.5 -12.5t59.5 -17.5t67.5 -28.5t57 -43t54.5 -62q49 -76 49 -162q0 -172 -97.5 -241t-264.5 -69 q-98 0 -190.5 24t-137.5 47.5t-51 33.5q-7 12 -7 20.5zM72 1339q4 25 41 25h53q29 0 138.5 -15.5t119.5 -15.5q12 0 113.5 15.5t179.5 15.5h16q31 0 41 -16v-9l-2 -10q-6 -8 -13 -12t-62.5 -16.5t-174.5 -34.5l-41 -2h-110l-41 2q-59 12 -140 28q-84 16 -99 22.5t-19 22.5z " />
<glyph unicode="&#x162;" horiz-adv-x="1501" d="M80 1294v17q0 55 22.5 76.5t77.5 21.5h1139q59 0 79.5 -22.5t20.5 -75.5v-17q0 -47 -17.5 -69.5t-35.5 -25.5t-55 -3q-45 0 -207 3t-207 3v-1104q0 -55 -20.5 -76.5t-77.5 -21.5h-97q-57 0 -77.5 21.5t-20.5 76.5v1104q-326 -6 -416 -6q-29 0 -42 2t-31.5 10.5 t-26.5 29.5t-8 56zM492 -377q-4 20 116 207q33 51 51 82q27 41 56 41h53q53 0 53 -29q0 -14 -112 -282q-8 -23 -17.5 -29t-34.5 -8h-131q-23 2 -30 10z" />
<glyph unicode="&#x163;" horiz-adv-x="827" d="M43 864q0 74 92 74h47v176q0 92 99 92h73q92 0 92 -92v-176h187q37 0 59.5 -16.5t27.5 -30.5t5 -29q0 -72 -88 -74h-191v-413q0 -10 -1 -26.5t-1 -24.5q0 -106 20.5 -146.5t65.5 -40.5q63 0 120 36t63 36q20 0 34.5 -48t14.5 -65q0 -23 -31 -37q-152 -82 -342 -82 q-61 0 -104 25t-63.5 55.5t-32 85t-12.5 84t-1 80.5v481h-43q-90 0 -90 76zM258 -367.5q0 5.5 4 13.5l8 16t12.5 22.5t16.5 28t22.5 36t29 44t36 54t41.5 65.5q27 41 53 41h62q47 0 47 -29q0 -10 -10 -35q-23 -53 -56 -133q-45 -113 -57 -132t-35 -19h-6h-133q-25 2 -35 18 v9.5z" />
<glyph unicode="&#x164;" horiz-adv-x="1501" d="M80 1294v17q0 55 22.5 76.5t77.5 21.5h1139q59 0 79.5 -22.5t20.5 -75.5v-17q0 -47 -17.5 -69.5t-35.5 -25.5t-55 -3q-45 0 -207 3t-207 3v-1104q0 -55 -20.5 -76.5t-77.5 -21.5h-97q-57 0 -77.5 21.5t-20.5 76.5v1104q-326 -6 -416 -6q-29 0 -42 2t-31.5 10.5 t-26.5 29.5t-8 56zM385 1823q0 25 53 24h54q23 -2 44 -18.5t214 -169.5q219 176 235 184q25 6 82 6q47 0 47 -26q0 -14 -104 -137q-66 -78 -113 -134q-29 -33 -39 -40t-31 -7h-149q-33 0 -60 27q-184 219 -208.5 249t-24.5 42z" />
<glyph unicode="&#x165;" horiz-adv-x="827" d="M43 864q0 74 90 74h49v176q0 59 25.5 75.5t73.5 16.5h73q92 0 92 -92v-176h187q37 0 59.5 -16.5t27.5 -30.5t5 -28.5t-5 -29t-26.5 -30t-56.5 -15.5h-191v-413q0 -8 -1 -25.5t-1 -25.5q0 -106 20.5 -146.5t65.5 -40.5q63 0 120 36t63 36q16 0 27.5 -28.5t15.5 -57.5 l4 -29q0 -37 -126 -77t-245 -40q-59 0 -102 24t-63.5 54.5t-32 80.5t-13.5 82t-2 79v491h-43q-90 0 -90 76zM516 1178v168q0 35 11.5 45t33.5 10h158q45 -2 56 -9.5t11 -27.5v-180q0 -31 -15 -51.5t-114 -122.5q-23 -23 -55 -23h-39q-43 0 -43 27q0 14 60 119h-17 q-16 0 -24.5 2t-15.5 12.5t-7 30.5z" />
<glyph unicode="&#x16a;" horiz-adv-x="1564" d="M186 492v827q0 31 3.5 48t26 35.5t65.5 18.5h102q27 0 43 -4t33.5 -26.5t17.5 -65.5v-829q0 -82 8.5 -135.5t34 -107.5t80.5 -84t141 -36l52 -2q86 2 145 24.5t90 54.5t48.5 86t20.5 95t3 107v831q0 43 19.5 64.5t35.5 24.5t43 3h90q86 0 86 -94v-829q0 -260 -138 -400.5 t-452 -142.5q-598 0 -598 537zM345 1708v31q0 29 8 40t35 11h788q41 0 43 -37v-90q0 -27 -7 -36t-31 -11h-789q-35 0 -41 13t-6 79z" />
<glyph unicode="&#x16b;" horiz-adv-x="1148" d="M121 285v563q0 90 90 90h94q45 0 67.5 -18.5t24.5 -32t4 -41.5v-545q0 -8 -1 -24.5t-1 -24.5q0 -90 22.5 -120t108.5 -30q82 0 148.5 60.5t66.5 208.5v460q0 31 2.5 46.5t6.5 21.5t18 21q23 18 70 18h90q90 0 92 -86v-764q0 -88 -92 -88h-96q-84 0 -84 90 q-70 -68 -139.5 -90.5t-163.5 -22.5q-90 0 -155 19.5t-97.5 46.5t-51 73t-21.5 80t-3 89zM168 1239v31q0 29 8 42t37 13h723q33 0 39 -14t6 -61v-54q0 -45 -39 -47h-729q-35 0 -40 12t-5 78z" />
<glyph unicode="&#x16c;" horiz-adv-x="1564" d="M186 492v827q0 31 3.5 48t26 35.5t65.5 18.5h102q27 0 43 -4t33.5 -26.5t17.5 -65.5v-829q0 -82 8.5 -135.5t34 -107.5t80.5 -84t141 -36l52 -2q86 2 145 24.5t90 54.5t48.5 86t20.5 95t3 107v831q0 43 19.5 64.5t35.5 24.5t43 3h90q86 0 86 -94v-829q0 -260 -138 -400.5 t-452 -142.5q-598 0 -598 537zM395 1767q0 41 25.5 60.5t48.5 19.5q47 0 69 -47q0 -2 5.5 -23.5t14.5 -29.5t31.5 -22.5t72 -20.5t122.5 -6q92 0 146.5 14t68 25.5t21.5 40t10 30.5q20 39 66 39q23 0 47 -19.5t24 -62.5q0 -96 -95 -178t-292 -82q-168 0 -276.5 72.5 t-108.5 189.5z" />
<glyph unicode="&#x16d;" horiz-adv-x="1148" d="M121 285v563q0 90 90 90h94q45 0 67.5 -18.5t24.5 -32t4 -41.5v-545q0 -8 -1 -24.5t-1 -24.5q0 -90 22.5 -120t108.5 -30q82 0 148.5 60.5t66.5 208.5v460q0 31 2.5 46.5t6.5 21.5t18 21q23 18 70 18h90q90 0 92 -86v-764q0 -88 -92 -88h-96q-84 0 -84 90 q-70 -68 -139.5 -90.5t-163.5 -22.5q-90 0 -155 19.5t-97.5 46.5t-51 73t-21.5 80t-3 89zM187 1286q0 33 20.5 55.5t53.5 22.5q18 0 29.5 -6t21.5 -13.5t59.5 -13.5t135.5 -6h86q74 0 118.5 1t70.5 5t34 5t20.5 9.5t16.5 10.5q14 8 32 8q29 0 51.5 -21.5t22.5 -56.5 q0 -154 -336 -153h-69q-55 0 -89 1t-93.5 9t-94.5 22.5t-62.5 46t-27.5 74.5z" />
<glyph unicode="&#x16e;" horiz-adv-x="1564" d="M186 492v827q0 31 3.5 48t26 35.5t65.5 18.5h102q27 0 43 -4t33.5 -26.5t17.5 -65.5v-829q0 -82 8.5 -135.5t34 -107.5t80.5 -84t141 -36l52 -2q86 2 145 24.5t90 54.5t48.5 86t20.5 95t3 107v831q0 43 19.5 64.5t35.5 24.5t43 3h90q86 0 86 -94v-829q0 -260 -138 -400.5 t-452 -142.5q-598 0 -598 537zM535 1606q0 242 251 241q250 0 250 -248q0 -244 -254 -243q-247 0 -247 250zM659 1604q0 -61 28 -80t91 -19h13q39 0 60 4t39.5 27t18.5 66q0 61 -27.5 79.5t-90.5 18.5q-86 -2 -109 -23q-23 -22 -23 -73z" />
<glyph unicode="&#x16f;" horiz-adv-x="1148" d="M121 285v563q0 90 90 90h94q45 0 67.5 -18.5t24.5 -32t4 -41.5v-545q0 -8 -1 -24.5t-1 -24.5q0 -90 22.5 -120t108.5 -30q82 0 148.5 60.5t66.5 208.5v460q0 31 2.5 46.5t6.5 21.5t18 21q23 18 70 18h90q90 0 92 -86v-764q0 -88 -92 -88h-96q-84 0 -84 90 q-70 -68 -139.5 -90.5t-163.5 -22.5q-90 0 -155 19.5t-97.5 46.5t-51 73t-21.5 80t-3 89zM322 1184q0 168 221 178h43q238 -2 237 -178q0 -168 -219 -178h-45q-237 4 -237 178zM449 1186q0 -63 28.5 -86t89.5 -23q82 2 105 27q25 25 24 80q0 61 -27.5 83.5t-90.5 22.5h-17 q-16 0 -19 -1t-17.5 -2t-17.5 -3t-14.5 -6t-15.5 -9t-11 -13.5t-10 -17.5t-5 -22.5t-2 -29.5z" />
<glyph unicode="&#x170;" horiz-adv-x="1564" d="M186 492v827q0 31 3.5 48t26 35.5t65.5 18.5h102q27 0 43 -4t33.5 -26.5t17.5 -65.5v-829q0 -82 8.5 -135.5t34 -107.5t80.5 -84t141 -36l52 -2q86 2 145 24.5t90 54.5t48.5 86t20.5 95t3 107v831q0 43 19.5 64.5t35.5 24.5t43 3h90q86 0 86 -94v-829q0 -260 -138 -400.5 t-452 -142.5q-598 0 -598 537zM414 1589q0 14 24 35q209 160 226 168q12 6 36 6h275q31 0 47 -12q23 12 53 12h275q45 0 49 -26q-4 -16 -29 -29q-6 -4 -375 -162q-39 -16 -67 -16h-103q-37 0 -37 26q0 14 62 62q6 4 22 16q33 27 56 43q-352 -145 -365 -147h-82 q-67 -1 -67 24z" />
<glyph unicode="&#x171;" horiz-adv-x="1148" d="M121 285v563q0 90 90 90h94q45 0 67.5 -18.5t24.5 -32t4 -41.5v-545q0 -8 -1 -24.5t-1 -24.5q0 -90 22.5 -120t108.5 -30q82 0 148.5 60.5t66.5 208.5v460q0 31 2.5 46.5t6.5 21.5t18 21q23 18 70 18h90q90 0 92 -86v-764q0 -88 -92 -88h-96q-84 0 -84 90 q-70 -68 -139.5 -90.5t-163.5 -22.5q-90 0 -155 19.5t-97.5 46.5t-51 73t-21.5 80t-3 89zM252 1106q0 4 2 8t6 11.5t9.5 15.5t15.5 20.5t20.5 25.5t25.5 33.5t30.5 39t38 48t42.5 56.5q23 27 54 27h178q25 0 45 -11l6 -10v-8q-2 -14 -53 -55q-16 -10 -25 -19 q-53 -41 -129 -100q-102 -80 -122.5 -93.5t-45.5 -13.5h-53q-2 0 -11 1t-13.5 1t-9.5 2t-8 7.5t-3 13.5zM626 1106q0 4 2 8t6 11.5t9.5 15.5t15.5 20.5t20.5 25.5t25.5 33.5t30.5 39t38 48t42.5 56.5q23 27 54 27h178q25 0 45 -11l6 -10v-8q-2 -14 -53 -55q-16 -10 -25 -19 q-53 -41 -129 -100q-102 -80 -122.5 -93.5t-45.5 -13.5h-53q-2 0 -11 1t-13.5 1t-9.5 2t-8 7.5t-3 13.5z" />
<glyph unicode="&#x178;" horiz-adv-x="1501" d="M51 1374q0 47 70 47h127q23 0 40 -2t35.5 -10t31 -15.5t33 -29t33.5 -38.5t43 -58t51.5 -73t65.5 -95.5t81 -116.5q88 -131 102 -158q23 47 332 488q43 61 77.5 84.5t104.5 23.5h100q70 0 70 -47q0 -16 -37 -69l-510 -725q-10 -27 -10 -56v-428q0 -57 -23.5 -76.5 t-70.5 -19.5h-101q-90 0 -90 92v477l-526 746q-29 39 -29 59zM385 1653v98q0 35 7 56.5t28.5 29.5t26 8t32.5 2h103q47 0 70.5 -20.5t23.5 -71.5v-110q0 -18 -4 -34t-11.5 -24t-14.5 -14t-18.5 -9t-17.5 -4t-16 -4h-10h-107q-43 0 -67.5 21t-24.5 76zM823 1649v108 q0 92 97 92q6 0 16 -1t14 -1h70q47 0 70.5 -20.5t23.5 -75.5v-100q0 -33 -9 -53.5t-28.5 -28.5t-27 -9t-27.5 -4h-104q-95 1 -95 93z" />
<glyph unicode="&#x179;" horiz-adv-x="1376" d="M123 100v19q0 43 31 86l739 1020l-645 -6q-59 0 -76.5 25.5t-17.5 74.5q0 20 2 32.5t9 31t27.5 28.5t51.5 10h915q31 0 50.5 -8t27.5 -25.5t10 -31t2 -33.5v-10q0 -43 -30 -86l-738 -1020l490 6h59q111 2 139 2q55 0 74 -24.5t19 -67.5v-29q0 -43 -17.5 -67.5 t-73.5 -26.5h-960q-43 0 -64.5 22.5t-22.5 36.5t-1 41zM444 1591q0 10 15 25q47 37 114 88q90 72 109.5 83t44.5 11h285q41 0 41 -26q0 -6 -3 -11.5t-7.5 -8.5l-10.5 -7l-6 -2q-403 -172 -416 -176q-10 -2 -26 -2h-105q-31 1 -35 26z" />
<glyph unicode="&#x17a;" horiz-adv-x="974" d="M61 84q0 45 50 104l477 600l-406 -4q-37 0 -58.5 16.5t-26.5 31t-5 31t5 30.5t26.5 29.5t58.5 15.5h633q39 0 61.5 -22.5t22.5 -61.5q0 -23 -9 -43t-12.5 -25.5t-27.5 -33.5l-477 -600l444 4q86 -2 86 -78q0 -78 -88 -78h-663q-89 0 -91 84zM301 1106q0 4 2 8t6 11.5 t9.5 15.5t15.5 20.5t20.5 25.5t25.5 33.5t30.5 39t38 48t43 56.5t57.5 27h174q27 0 47 -11l6 -10v-8q-2 -12 -45 -47q-20 -16 -35 -27q-61 -47 -143 -112q-90 -72 -108.5 -83.5t-43.5 -11.5h-53q-2 0 -11 1t-13.5 1t-10.5 2t-9 7.5t-3 13.5z" />
<glyph unicode="&#x17b;" horiz-adv-x="1376" d="M123 100v19q0 43 31 86l739 1020l-645 -6q-59 0 -76.5 25.5t-17.5 74.5q0 20 2 32.5t9 31t27.5 28.5t51.5 10h915q31 0 50.5 -8t27.5 -25.5t10 -31t2 -33.5v-10q0 -43 -30 -86l-738 -1020l490 6h59q111 2 139 2q55 0 74 -24.5t19 -67.5v-29q0 -43 -17.5 -67.5 t-73.5 -26.5h-960q-43 0 -64.5 22.5t-22.5 36.5t-1 41zM603 1704v96q0 35 7 56.5t27.5 30t26.5 9.5t31 3h106q47 0 69.5 -20.5t22.5 -76.5v-100q0 -16 -2 -28.5t-7 -21.5t-9 -16.5t-12 -11.5t-13.5 -7t-13.5 -5t-12 -2t-12 -2h-9h-106q-43 0 -68.5 19.5t-25.5 76.5z" />
<glyph unicode="&#x17c;" horiz-adv-x="974" d="M61 84q0 45 50 104l477 600l-406 -4q-37 0 -58.5 16.5t-26.5 31t-5 31t5 30.5t26.5 29.5t58.5 15.5h633q39 0 61.5 -22.5t22.5 -61.5q0 -23 -9 -43t-12.5 -25.5t-27.5 -33.5l-477 -600l444 4q86 -2 86 -78q0 -78 -88 -78h-663q-89 0 -91 84zM385 1284v96q0 35 7 56.5 t27.5 30t26.5 9.5t31 3h106q47 0 69.5 -20.5t22.5 -76.5v-100q0 -16 -2 -28.5t-7 -21.5t-9 -16.5t-12 -11.5t-13.5 -7t-13.5 -5t-12 -2t-12 -2h-9h-106q-43 0 -68.5 19.5t-25.5 76.5z" />
<glyph unicode="&#x17d;" horiz-adv-x="1376" d="M123 100v19q0 43 31 86l739 1020l-645 -6q-59 0 -76.5 25.5t-17.5 74.5q0 20 2 32.5t9 31t27.5 28.5t51.5 10h915q31 0 50.5 -8t27.5 -25.5t10 -31t2 -33.5v-10q0 -43 -30 -86l-738 -1020l490 6h59q111 2 139 2q55 0 74 -24.5t19 -67.5v-29q0 -43 -17.5 -67.5 t-73.5 -26.5h-960q-43 0 -64.5 22.5t-22.5 36.5t-1 41zM334 1823q0 25 53 24h53q23 -2 44.5 -18.5t213.5 -169.5q217 174 238 184q25 6 80 6q47 0 47 -26q0 -14 -105 -137q-66 -78 -112 -134q-29 -33 -39 -40t-31 -7h-149q-31 0 -58 27q-231 272 -233 283q-2 4 -2 8z" />
<glyph unicode="&#x17e;" horiz-adv-x="974" d="M61 84q0 45 50 104l477 600l-406 -4q-37 0 -58.5 16.5t-26.5 31t-5 31t5 30.5t26.5 29.5t58.5 15.5h633q39 0 61.5 -22.5t22.5 -61.5q0 -23 -9 -43t-12.5 -25.5t-27.5 -33.5l-477 -600l444 4q86 -2 86 -78q0 -78 -88 -78h-663q-89 0 -91 84zM143 1339q4 25 41 25h54 q35 0 138 -15.5t120 -15.5q12 0 114.5 15.5t180.5 15.5h14q31 0 41 -16l2 -9l-4 -10q-6 -8 -13.5 -12t-62.5 -16.5t-174 -34.5l-41 -2h-111l-41 2q-59 12 -139 28q-84 16 -99.5 22.5t-19.5 22.5z" />
<glyph unicode="&#x192;" horiz-adv-x="1351" d="M20 -324q8 31 28 74t42 45q6 0 48 -21.5t95 -21.5q131 0 156 117l197 919q-94 0 -94 76q0 74 94 74h32q43 219 69 295t91 143q125 127 365 127q18 -2 42.5 -3t39 -2t33 -3t28.5 -5t20.5 -8t16.5 -13.5t8 -20.5q0 -10 -24 -119q0 -2 -2 -10t-2 -12t-3.5 -11.5t-6.5 -10.5 t-9 -6t-14 -3l-13 4q-18 31 -61 53.5t-90 22.5q-80 0 -131 -72q-6 -8 -10 -18.5t-9.5 -26.5t-9.5 -31.5t-10 -45t-12 -56.5t-16.5 -76t-18.5 -92h96q78 0 88 -74q0 -76 -106 -76h-103l-184 -860q-14 -66 -34.5 -115t-60.5 -108t-114 -93t-172 -34q-90 0 -183.5 32.5 t-95.5 65.5z" />
<glyph unicode="&#x218;" horiz-adv-x="1251" d="M100 129q0 16 29 172q10 61 33 61q12 0 49 -28.5t82 -64.5t137 -64.5t203 -28.5q233 0 233 201q0 121 -123 178q-23 10 -45 16.5t-87.5 20.5t-137.5 33q-131 33 -240.5 140t-109.5 277q0 74 17.5 137.5t65.5 134t155.5 112.5t265.5 42q104 0 205.5 -25.5t154.5 -51 t57 -39.5q2 -4 3 -15q0 -33 -37 -215q-8 -23 -21 -22q-16 0 -42.5 24.5t-58.5 53t-107.5 53t-176.5 24.5q-125 0 -174 -52t-49 -122q0 -53 25.5 -90t74.5 -58.5t96.5 -33.5t113 -25.5t100.5 -25.5q135 -43 234 -158t99 -282q0 -90 -22.5 -166t-75.5 -143.5t-155.5 -105.5 t-245.5 -38q-123 0 -248 32.5t-194.5 68.5t-78.5 55q-4 16 -4 18zM518 -186q0 39 30 39h125q20 0 26.5 -6t6.5 -27v-121q0 -8 -1 -13t-3 -10t-9 -16.5t-14.5 -23.5t-23.5 -38t-33 -52q-10 -16 -13 -20.5t-11.5 -7.5t-20.5 -3h-20q-2 0 -4.5 -1t-4.5 -1q-29 0 -28 21 q0 4 47 131h-21q-16 0 -22 7t-6 32v110z" />
<glyph unicode="&#x219;" horiz-adv-x="864" d="M63 102q0 8 25 144q6 47 29 47q10 0 48 -38t111.5 -77t169.5 -39q160 0 160 109q0 57 -49 83.5t-143.5 42t-126.5 27.5q-80 31 -146.5 98.5t-66.5 178.5q0 287 344 295h53q131 -2 250 -51q31 -12 40 -20.5t9 -29.5q0 -12 -20 -129q-8 -31 -25 -30q-14 0 -48 27.5 t-97.5 55t-151.5 27.5q-152 0 -152 -98q0 -53 57.5 -77.5t155 -42t142.5 -42.5q39 -18 73.5 -47t70.5 -91.5t36 -137.5q0 -172 -98.5 -241t-270.5 -69q-213 0 -366 99l-8 10q-5 12 -5 16zM344 -164q0 39 30 39h125q20 0 26.5 -6t6.5 -27v-121q0 -8 -1 -13t-3 -10t-9 -16.5 t-14.5 -23.5t-23.5 -38t-33 -52q-10 -16 -13 -20.5t-11.5 -7.5t-20.5 -3h-20q-2 0 -4.5 -1t-4.5 -1q-29 0 -28 21q0 4 47 131h-21q-16 0 -22 7t-6 32v110z" />
<glyph unicode="&#x21a;" horiz-adv-x="1501" d="M80 1294v17q0 55 22.5 76.5t77.5 21.5h1139q59 0 79.5 -22.5t20.5 -75.5v-17q0 -47 -17.5 -69.5t-35.5 -25.5t-55 -3q-45 0 -207 3t-207 3v-1104q0 -55 -20.5 -76.5t-77.5 -21.5h-97q-57 0 -77.5 21.5t-20.5 76.5v1104q-326 -6 -416 -6q-29 0 -42 2t-31.5 10.5 t-26.5 29.5t-8 56zM656 -141q0 39 30 39h125q20 0 26.5 -6t6.5 -27v-121q0 -8 -1 -13t-3 -10t-9 -16.5t-14.5 -23.5t-23.5 -38t-33 -52q-10 -16 -13 -20.5t-11.5 -7.5t-20.5 -3h-20q-2 0 -4.5 -1t-4.5 -1q-29 0 -28 21q0 4 47 131h-21q-16 0 -22 7t-6 32v110z" />
<glyph unicode="&#x21b;" horiz-adv-x="827" d="M43 864q0 74 90 74h49v176q0 92 99 92h73q92 0 92 -92v-176h187q37 0 59.5 -16.5t27.5 -30.5t5 -28.5t-5 -29t-26.5 -30t-56.5 -15.5h-191v-409q0 -10 -1 -26.5t-1 -26.5q0 -109 20.5 -149t65.5 -40q57 0 119 36t66 36q14 0 25.5 -28.5t17.5 -57.5l4 -27q0 -39 -128 -79 t-245 -40q-150 0 -194 148q-18 61 -19 186v477h-43q-90 0 -90 76zM307 -164q0 39 30 39h125q20 0 26.5 -6t6.5 -27v-121q0 -8 -1 -13t-3 -10t-9 -16.5t-14.5 -23.5t-23.5 -38t-33 -52q-10 -16 -13 -20.5t-11.5 -7.5t-20.5 -3h-20q-2 0 -4.5 -1t-4.5 -1q-29 0 -28 21 q0 4 47 131h-21q-16 0 -22 7t-6 32v110z" />
<glyph unicode="&#x2c6;" d="M209 1106q0 12 25.5 42t183.5 198q39 43 71 43h140h14t12.5 -3.5t9.5 -4.5t10 -7t9 -8t11.5 -12.5t13.5 -14.5q43 -47 106 -114q98 -106 98 -119q0 -27 -55 -27h-45h-10t-9.5 1t-10.5 4t-11 6.5t-16.5 10.5t-21.5 14t-28.5 21.5t-36 28t-49 36t-59.5 44.5 q-213 -158 -225 -162q-8 -4 -27 -4h-45q-55 0 -55 27z" />
<glyph unicode="&#x2c7;" d="M211 1339q4 25 41 25h53q29 0 137.5 -15.5t118.5 -15.5q12 0 114.5 15.5t180.5 15.5h16q29 0 39 -16l2 -9l-2 -10q-10 -12 -45 -21.5t-207 -41.5l-41 -2h-110l-41 2q-233 49 -242 51q-10 6 -14 22z" />
<glyph unicode="&#x2d8;" d="M174 1286q0 33 20.5 55.5t53.5 22.5q18 0 29.5 -6t21.5 -13.5t59.5 -13.5t135.5 -6h86q74 0 118.5 1t70.5 5t34 5t20.5 9.5t16.5 10.5q14 8 32 8q29 0 51.5 -21.5t22.5 -56.5q0 -154 -336 -153h-69q-55 0 -89 1t-93.5 9t-94.5 22.5t-62.5 46t-27.5 74.5z" />
<glyph unicode="&#x2d9;" horiz-adv-x="624" d="M197 1284v96q0 35 7 56.5t27.5 30t26.5 9.5t31 3h106q47 0 69.5 -20.5t22.5 -76.5v-100q0 -16 -2 -28.5t-7 -21.5t-9 -16.5t-12 -11.5t-13.5 -7t-13.5 -5t-12 -2t-12 -2h-9h-106q-43 0 -68.5 19.5t-25.5 76.5z" />
<glyph unicode="&#x2da;" horiz-adv-x="1501" d="M498 1186q0 168 221 178h43q238 -2 237 -178q0 -168 -219 -178h-45q-237 4 -237 178zM625 1188q0 -63 28.5 -86t89.5 -23q82 2 105 27q25 25 24 80q0 61 -27.5 83.5t-90.5 22.5h-17q-16 0 -19 -1t-17.5 -2t-17.5 -3t-14.5 -6t-15.5 -9t-11 -13.5t-10 -17.5t-5 -22.5 t-2 -29.5z" />
<glyph unicode="&#x2db;" horiz-adv-x="624" d="M-84 -188q0 98 82 165q49 43 161.5 78t143.5 56q4 2 19.5 14t26.5 17t26 5q27 0 50.5 -19t23.5 -54q0 -12 -4.5 -23.5t-14.5 -24t-19.5 -21.5t-27.5 -22.5t-29.5 -21.5t-37 -25.5t-37.5 -25.5q-63 -45 -80 -88q27 -20 53 -21q51 0 101 61.5t85 61.5q31 0 52.5 -22.5 t21.5 -53.5q0 -45 -92 -141q-104 -111 -248 -110q-109 0 -182.5 63.5t-73.5 151.5z" />
<glyph unicode="&#x2dc;" d="M186 1147q0 76 63.5 146.5t166.5 70.5q86 0 176 -52t117 -52h2q51 0 69 51l4 20q4 20 13.5 26.5t29.5 6.5h66q41 0 41 -39q0 -72 -59.5 -144.5t-167.5 -72.5q-84 0 -175.5 53t-117.5 53h-2q-51 0 -70 -51q-2 -4 -5 -22.5t-12.5 -25.5t-29.5 -7h-62q-47 0 -47 39z" />
<glyph unicode="&#x2dd;" d="M242 1106q0 4 2 8t6 11.5t9.5 15.5t15.5 20.5t20.5 25.5t25.5 33.5t30.5 39t38 48t42.5 56.5q23 27 54 27h178q25 0 45 -11l6 -10v-8q-2 -14 -53 -55q-16 -10 -25 -19q-53 -41 -129 -100q-102 -80 -122.5 -93.5t-45.5 -13.5h-53q-2 0 -11 1t-13.5 1t-9.5 2t-8 7.5 t-3 13.5zM616 1106q0 4 2 8t6 11.5t9.5 15.5t15.5 20.5t20.5 25.5t25.5 33.5t30.5 39t38 48t42.5 56.5q23 27 54 27h178q25 0 45 -11l6 -10v-8q-2 -14 -53 -55q-16 -10 -25 -19q-53 -41 -129 -100q-102 -80 -122.5 -93.5t-45.5 -13.5h-53q-2 0 -11 1t-13.5 1t-9.5 2t-8 7.5 t-3 13.5z" />
<glyph unicode="&#x374;" horiz-adv-x="438" d="M37 1063q0 4 121 321q10 23 18 30t31 7h188q45 0 45 -26q0 -10 -102 -146q-82 -104 -143 -184q-25 -31 -56 -31h-61q-41 0 -41 29z" />
<glyph unicode="&#x375;" horiz-adv-x="438" d="M16 -358q0 12 113 159q76 96 131 168q25 31 55 31h62q41 0 41 -29q0 -10 -119 -319q-16 -39 -51 -39h-185q-14 2 -18 2t-13 3t-12.5 8.5t-3.5 15.5z" />
<glyph unicode="&#x37a;" horiz-adv-x="249" d="M-14 -182q2 12 2 16t4 12.5t13 11.5t24 3h198q37 -2 37 -47v-185q0 -86 -44 -119.5t-93 -33.5q-59 0 -100 37.5t-41 128.5v176z" />
<glyph unicode="&#x37e;" horiz-adv-x="624" d="M178 135q0 55 37 94t96 39q63 0 102.5 -54t39.5 -138q0 -80 -37 -150.5t-75 -104.5t-56 -34q-16 0 -51 35t-41 53q0 20 35.5 46t60.5 81q-55 10 -83 48t-28 85zM178 805q0 53 38 93t95.5 40t96 -41t38.5 -94t-37.5 -93t-95 -40t-96.5 41t-39 94z" />
<glyph unicode="&#x384;" horiz-adv-x="374" d="M-10 1063q0 10 119 321q10 23 19 30t32 7h184q2 0 9 -1t10.5 -1t8.5 -1t8 -3l6 -4t4 -6t1 -10q0 -14 -149 -209q-57 -74 -95 -121q-25 -31 -55 -31h-53q-49 4 -49 29z" />
<glyph unicode="&#x385;" horiz-adv-x="624" d="M-66 1106q0 74 101 74h4q94 0 94 -74q0 -14 -4 -28.5t-26.5 -30t-59.5 -15.5h-23q-35 0 -56 15.5t-25.5 30t-4.5 28.5zM178 1063q0 12 119 321q10 23 18.5 30t30.5 7h189q45 0 45 -26q0 -10 -103 -146q-82 -104 -143 -184q-16 -20 -24.5 -25.5t-26.5 -5.5h-56 q-49 0 -49 29zM494 1106q0 76 92 76l10 -2h4q94 0 94 -74q0 -12 -5 -27.5t-26.5 -31t-56.5 -15.5h-24q-49 0 -68.5 24.5t-19.5 49.5z" />
<glyph unicode="&#x386;" horiz-adv-x="1501" d="M-10 1063q0 10 119 321q10 23 19 30t32 7h184q2 0 9 -1t10.5 -1t8.5 -1t8 -3l6 -4t4 -6t1 -10q0 -14 -149 -209q-57 -74 -95 -121q-25 -31 -55 -31h-53q-49 4 -49 29zM86 55q0 14 8 39l434 1233q33 94 127 94h187q37 0 60.5 -8t39.5 -31.5t20.5 -34t16.5 -47.5l426 -1208 q8 -25 8 -37q0 -55 -78 -55h-108q-18 0 -30.5 2l-25 4t-21.5 11.5t-16.5 15.5t-15.5 23.5t-14 29.5t-16.5 40t-17.5 49.5t-20.5 61t-23.5 70.5h-584q-12 -33 -26.5 -76t-21.5 -64.5t-18 -50t-17.5 -41t-16.5 -29.5t-19.5 -22.5t-22.5 -12.5t-27.5 -9t-34.5 -2h-78 q-74 0 -74 55zM504 485h459l-203 594l-27 86l-76 -233z" />
<glyph unicode="&#x387;" horiz-adv-x="624" d="M178 805q0 53 38 93t95.5 40t96 -41t38.5 -94t-37.5 -93t-95 -40t-96.5 41t-39 94z" />
<glyph unicode="&#x388;" horiz-adv-x="1689" d="M-10 1063q0 10 119 321q10 23 19 30t32 7h184q2 0 9 -1t10.5 -1t8.5 -1t8 -3l6 -4t4 -6t1 -10q0 -14 -149 -209q-57 -74 -95 -121q-25 -31 -55 -31h-53q-49 4 -49 29zM561 96v1225q0 53 22.5 73.5t70.5 20.5h817q90 0 90 -90v-35q0 -88 -86 -88q-125 0 -623 6v-379h539 q49 0 74.5 -19t29.5 -36.5t4 -42.5q0 -96 -90 -96h-557v-416l653 8q86 0 87 -92v-47q0 -88 -91 -88h-847q-93 0 -93 96z" />
<glyph unicode="&#x389;" horiz-adv-x="2000" d="M-10 1063q0 10 119 321q10 23 19 30t32 7h184q2 0 9 -1t10.5 -1t8.5 -1t8 -3l6 -4t4 -6t1 -10q0 -14 -149 -209q-57 -74 -95 -121q-25 -31 -55 -31h-53q-49 4 -49 29zM561 83v28v1214q0 29 3.5 45t26 33.5t65.5 17.5h110q86 0 86 -92v-491h668v495q0 88 86 88h110 q43 0 66 -18.5t26 -34.5t3 -43v-1214v-7q0 -23 -2 -36t-9.5 -31.5t-27 -27.5t-51.5 -9h-111q-90 0 -90 90v553h-668v-553q0 -90 -90 -90h-111q-27 0 -46 9t-27 17.5t-12.5 30t-4.5 26.5z" />
<glyph unicode="&#x38a;" horiz-adv-x="1040" d="M-10 1063q0 10 119 321q10 23 19 30t32 7h184q2 0 9 -1t10.5 -1t8.5 -1t8 -3l6 -4t4 -6t1 -10q0 -14 -149 -209q-57 -74 -95 -121q-25 -31 -55 -31h-53q-49 4 -49 29zM561 94v1233q0 94 84 94h115q43 0 67.5 -18.5t24.5 -73.5v-1216q0 -2 1 -8.5t1 -10.5q0 -94 -86 -94 h-114q-43 0 -68 19.5t-25 74.5z" />
<glyph unicode="&#x38c;" horiz-adv-x="1812" d="M-10 1063q0 10 119 321q10 23 19 30t32 7h184q2 0 9 -1t10.5 -1t8.5 -1t8 -3l6 -4t4 -6t1 -10q0 -14 -149 -209q-57 -74 -95 -121q-25 -31 -55 -31h-53q-49 4 -49 29zM309 702q0 764 686 764q690 0 690 -764q0 -748 -686 -747q-690 -1 -690 747zM600 719q6 -242 47 -354 q68 -186 244 -232q53 -12 106 -12q162 0 262 100q59 59 92 166t38 181.5t5 183.5v14q0 219 -59 342q-92 199 -338 199q-365 0 -393 -435l-2 -69z" />
<glyph unicode="&#x38e;" horiz-adv-x="2125" d="M-10 1063q0 10 119 321q10 23 19 30t32 7h184q2 0 9 -1t10.5 -1t8.5 -1t8 -3l6 -4t4 -6t1 -10q0 -14 -149 -209q-57 -74 -95 -121q-25 -31 -55 -31h-53q-49 4 -49 29zM498 1145q0 127 113.5 224t283.5 97q266 0 350 -383q4 -12 4 -16q8 49 20.5 94t40.5 103.5t63.5 100.5 t95 71.5t131.5 29.5q166 0 282.5 -96t116.5 -225q0 -82 -98 -82h-88q-18 0 -32.5 3t-24 11t-15.5 14.5t-9 17.5t-5 16t-3 16.5t-1 13.5q-6 39 -41 65.5t-86 26.5q-68 0 -112 -44t-61.5 -126t-22.5 -145.5t-5 -151.5v-682q0 -18 -1 -28.5t-8 -30t-27.5 -29.5t-53.5 -10h-109 q-35 0 -56.5 9t-28.5 29.5t-8 32t-1 35.5v594q0 12 1 39t1 41q0 92 -6 159t-24.5 145.5t-62.5 120.5t-112 42q-49 0 -80.5 -24.5t-42.5 -55.5q0 -4 -2 -16t-3 -16.5t-4 -14.5t-5 -14t-6 -12.5t-8 -11.5t-11.5 -8t-15.5 -6t-19.5 -3t-23.5 -2h-82q-98 0 -98 82z" />
<glyph unicode="&#x38f;" horiz-adv-x="1812" d="M-10 1063q0 10 119 321q10 23 19 30t32 7h184q2 0 9 -1t10.5 -1t8.5 -1t8 -3l6 -4t4 -6t1 -10q0 -14 -149 -209q-57 -74 -95 -121q-25 -31 -55 -31h-53q-49 4 -49 29zM284 92v39q0 90 90 90q8 0 158 -2t174 -2q-33 74 -105.5 170t-134 170t-109.5 179.5t-48 213.5 q0 70 14.5 133.5t58.5 136t115.5 125t198.5 87t295 34.5q309 0 475 -102q72 -43 121 -105.5t67.5 -127t24.5 -105.5t6 -78q0 -109 -48 -214t-109.5 -178t-134 -169t-105.5 -170q37 0 179 2t155 2q90 0 90 -90q0 -4 -1 -12t-1 -13v-16q0 -41 -17.5 -62.5t-35 -24.5t-44.5 -3 h-419q-35 0 -60.5 20.5t-25.5 67.5q0 106 45 228t98 214.5t98 209t45 214.5q0 203 -105.5 284t-291.5 81t-290.5 -81t-104.5 -284q0 -98 44 -215.5t98 -211t98 -215.5t44 -228q0 -84 -88 -84h-415q-20 0 -33.5 2t-30 10t-26 27.5t-9.5 52.5z" />
<glyph unicode="&#x390;" horiz-adv-x="593" d="M-156 1106q0 74 101 74q98 0 98 -74t-90 -74h-23q-35 0 -56 15.5t-25.5 30t-4.5 28.5zM70 246v680q2 29 14 34t61 5h154q16 0 43 -9l4 -16l2 -33v-674q8 -2 21 -2q18 0 29.5 20.5t19.5 25t41 4.5h98q39 0 39 -37q0 -100 -75 -183.5t-189 -83.5q-98 0 -180 71t-82 198z M86 1063q0 6 121 321q10 23 18 30t31 7h188q45 0 45 -26q0 -14 -110 -156q-78 -100 -135 -174q-25 -31 -56 -31h-53q-49 4 -49 29zM403 1106q0 74 103 74q96 0 96 -74t-90 -74h-20q-37 0 -58.5 15.5t-26 30t-4.5 28.5z" />
<glyph unicode="&#x391;" horiz-adv-x="1501" d="M86 55q0 14 8 39l434 1233q33 94 127 94h187q37 0 60.5 -8t39.5 -31.5t20.5 -34t16.5 -47.5l426 -1208q8 -25 8 -37q0 -55 -78 -55h-108q-18 0 -30.5 2l-25 4t-21.5 11.5t-16.5 15.5t-15.5 23.5t-14 29.5t-16.5 40t-17.5 49.5t-20.5 61t-23.5 70.5h-584 q-12 -33 -26.5 -76t-21.5 -64.5t-18 -50t-17.5 -41t-16.5 -29.5t-19.5 -22.5t-22.5 -12.5t-27.5 -9t-34.5 -2h-78q-74 0 -74 55zM504 485h459l-203 594l-27 86l-76 -233z" />
<glyph unicode="&#x392;" horiz-adv-x="1501" d="M186 90v1239q0 92 93 92h448q176 0 305 -29.5t205 -121.5q74 -88 74 -217q0 -238 -293 -308q-6 -2 -8 -2q37 -6 49 -9t60 -16t73 -26.5t65.5 -42t61 -61.5t38 -83t17.5 -110q0 -49 -11 -96t-45 -109.5t-114 -110.5t-196 -67q-76 -12 -228 -12h-501q-93 0 -93 90zM467 176 h274q66 0 115 6t111.5 26.5t97.5 70t35 124.5q0 139 -111 207q-92 55 -287 56h-235v-490zM467 813h211q246 0 323 105q41 55 41 129q0 86 -66.5 135t-184.5 59q-37 4 -109 4h-215v-432z" />
<glyph unicode="&#x393;" horiz-adv-x="1187" d="M186 94v1223q0 20 1 29.5t8.5 30t28 30.5t52.5 10q4 0 13.5 -1t13.5 -1h698q90 0 91 -96v-27q0 -90 -88 -90l-527 6v-1120q0 -88 -88 -88h-110q-47 0 -70 20.5t-23 73.5z" />
<glyph unicode="&#x394;" horiz-adv-x="1875" d="M125 51q0 18 10 39l570 1241q27 55 58.5 72.5t84.5 17.5h184q16 0 29.5 -2t24 -4t20.5 -8t17 -9t14.5 -12.5t11.5 -13.5t10 -17.5t8 -16.5t9.5 -18t9.5 -20l543 -1183q23 -55 22 -64q-6 -53 -68 -53h-1484q-74 0 -74 51zM498 262h843l-421 920h-2z" />
<glyph unicode="&#x395;" horiz-adv-x="1314" d="M186 96v1225q0 53 22.5 73.5t70.5 20.5h817q90 0 90 -90v-35q0 -88 -86 -88q-125 0 -623 6v-379h539q49 0 74.5 -19t29.5 -36.5t4 -42.5q0 -96 -90 -96h-557v-416l653 8q86 0 87 -92v-47q0 -88 -91 -88h-847q-93 0 -93 96z" />
<glyph unicode="&#x396;" horiz-adv-x="1376" d="M123 90v29q0 43 31 86l739 1020l-145 -2h-60l-440 -4q-43 0 -65.5 18t-25.5 35.5t-3 48.5q0 100 90 100h915q90 0 90 -90v-8q0 -39 -4 -53.5t-24 -42.5l-740 -1018l342 4h51q104 0 172 1t92.5 2t32.5 1q90 0 91 -94v-33q0 -53 -25 -71.5t-66 -18.5h-958q-90 0 -90 90z " />
<glyph unicode="&#x397;" horiz-adv-x="1626" d="M186 83v28v1214q0 29 3.5 45t26 33.5t65.5 17.5h110q86 0 86 -92v-491h668v495q0 88 86 88h110q43 0 66 -18.5t26 -34.5t3 -43v-1214v-7q0 -23 -2 -36t-9.5 -31.5t-27 -27.5t-51.5 -9h-111q-90 0 -90 90v553h-668v-553q0 -90 -90 -90h-111q-27 0 -46 9t-27 17.5t-12.5 30 t-4.5 26.5z" />
<glyph unicode="&#x398;" horiz-adv-x="1751" d="M123 692q0 774 747 774q176 0 309.5 -42t216.5 -110.5t135 -171t72.5 -211t20.5 -239.5q0 -57 -3 -103t-18.5 -127t-42 -143.5t-83 -134t-133 -119t-196.5 -79t-271 -31.5q-195 0 -338.5 50t-221 123t-124 178.5t-58.5 193.5t-12 192zM403 700q0 -94 8.5 -168.5 t37 -157.5t77.5 -138.5t137.5 -91t206.5 -35.5q98 0 175 24.5t126.5 60t84 92t51 101.5t25.5 110.5t10 96.5t1 80v28q0 68 -3 118t-16 131t-44 138.5t-80 114t-133 86t-193 29.5q-262 0 -378 -180q-93 -144 -93 -439zM528 674v78q0 16 2 29.5t7.5 22.5t9.5 16t13 11.5 t14.5 7.5t18.5 4t18 2t20.5 1h19.5h475q92 0 93 -96v-78q0 -41 -19.5 -62.5t-38 -24.5t-51.5 -3h-485q-97 0 -97 92z" />
<glyph unicode="&#x399;" horiz-adv-x="665" d="M186 94v1233q0 94 84 94h115q43 0 67.5 -18.5t24.5 -73.5v-1216q0 -2 1 -8.5t1 -10.5q0 -94 -86 -94h-114q-43 0 -68 19.5t-25 74.5z" />
<glyph unicode="&#x39a;" horiz-adv-x="1564" d="M186 98v1229q0 94 93 94h71q92 0 92 -88v-581l645 606q29 25 41.5 35t38 19t58.5 9h137q57 0 61 -45q-4 -23 -57 -71l-508 -478l555 -735q20 -29 23 -43q-4 -27 -17.5 -38t-48.5 -11h-125q-41 0 -60.5 13.5t-43.5 43.5l-459 607l-240 -226v-342q0 -27 -3 -43t-25.5 -34.5 t-65.5 -18.5h-72q-33 0 -53 10t-27.5 29.5t-8.5 30t-1 28.5z" />
<glyph unicode="&#x39b;" horiz-adv-x="1376" d="M84 57q0 12 8 41l373 1202q18 57 37.5 83t36 31t57.5 7h184q27 0 46.5 -7t30.5 -12t22.5 -25.5t14.5 -25.5t11 -32l8 -29l371 -1198q6 -18 6 -35q0 -57 -76 -57h-106q-20 0 -36.5 3t-28 6t-22.5 14.5t-16.5 14.5t-12.5 19.5t-8 20.5t-8 24.5t-7 22.5l-164 539 q-125 424 -137 501q-12 -98 -301 -1050q-12 -41 -22.5 -61.5t-37 -37t-71.5 -16.5h-82q-70 2 -70 57z" />
<glyph unicode="&#x39c;" horiz-adv-x="2002" d="M186 81v32v1220q0 88 90 88h170q84 0 121 -57q16 -27 207 -500t219 -561q16 66 404 1012q23 57 51.5 81.5t89.5 24.5h182q92 0 92 -94v-1229q0 -20 -1 -29.5t-8 -30t-28.5 -29.5t-54.5 -9h-67q-43 0 -65.5 20.5t-24.5 38t-2 47.5v1006q0 10 -1 27.5t-1 25.5 q-23 -100 -400 -1013q-20 -51 -43.5 -75t-45 -28t-66.5 -4h-29q-23 0 -40 3t-30.5 7t-26 18.5t-19.5 23.5t-19.5 37t-19.5 45.5t-24.5 61.5t-29.5 72l-213 529q-98 254 -115 323v-1071q0 -94 -90 -94h-69q-27 0 -46.5 8t-28.5 16.5t-13.5 29t-4.5 27.5z" />
<glyph unicode="&#x39d;" horiz-adv-x="1626" d="M186 94v1237q0 90 95 90h192q63 0 95 -27.5t55 -74.5l561 -1077v1087q0 25 4 42.5t26.5 33.5t63.5 16h68q39 0 60 -16t25.5 -32.5t4.5 -43.5v-1239q0 -90 -95 -90h-192q-43 0 -76 18.5t-45 36t-29 47.5l-561 1078v-1088q0 -27 -4 -43t-26.5 -32.5t-63.5 -16.5h-68 q-90 0 -90 94z" />
<glyph unicode="&#x39e;" horiz-adv-x="1501" d="M92 92v62q0 16 4 29.5t7 22.5t11.5 15t13.5 10.5t16.5 6.5t15.5 2t16 2h12h134l448 -4h129l41 2h199l170 2h12q12 -2 16 -2t15.5 -2t16.5 -6.5t13.5 -10.5t12.5 -15t7 -22.5t3 -29.5v-64q0 -90 -92 -90h-1129q-25 0 -41 4t-33.5 25.5t-17.5 62.5zM104 1260v61 q0 43 21.5 64.5t33 22.5t42.5 3h1097l11 -2h13t13.5 -2t14.5 -4t12 -7t12 -11.5t9.5 -15.5t7.5 -21.5t2 -26.5v-61q0 -90 -95 -91h-45l-194 2h-221l-54 3h-86l-39 -3h-235l-225 -2h-4q-23 0 -38.5 3.5t-34 25t-18.5 62.5zM248 705v57q0 33 9 52.5t30.5 26.5t25.5 8t29 3h813 q94 0 94 -88v-47q0 -31 -4 -49.5t-24.5 -36t-61.5 -17.5h-823q-88 3 -88 91z" />
<glyph unicode="&#x39f;" horiz-adv-x="1626" d="M123 702q0 764 686 764q690 0 690 -764q0 -748 -686 -747q-690 -1 -690 747zM414 719q6 -242 47 -354q68 -186 244 -232q53 -12 106 -12q162 0 262 100q59 59 92 166t38 181.5t5 183.5v14q0 219 -59 342q-92 199 -338 199q-365 0 -393 -435l-2 -69z" />
<glyph unicode="&#x3a0;" horiz-adv-x="1626" d="M186 92v1229q0 55 23.5 74.5t69.5 19.5h1064q43 0 68 -17.5t25 -72.5v-1229q0 -96 -84 -96h-115q-92 0 -92 92v1129h-668v-1127q0 -53 -22.5 -73.5t-69.5 -20.5h-111q-88 2 -88 92z" />
<glyph unicode="&#x3a1;" horiz-adv-x="1439" d="M186 92v1225q0 23 2 36t9.5 31.5t27 27.5t51.5 9h482q197 -6 293 -39q262 -92 262 -401q0 -362 -369 -422q-70 -10 -207 -10h-260v-455q0 -27 -4 -44t-25.5 -33.5t-60.5 -16.5h-106q-95 0 -95 92zM473 711h242q172 0 246.5 55t74.5 209q0 164 -75.5 217t-245.5 53h-242 v-534z" />
<glyph unicode="&#x3a3;" horiz-adv-x="1626" d="M123 1307v20q0 18 2 31.5t10 30t28.5 24.5t53.5 8h1188q94 0 94 -90v-31q0 -92 -92 -92h-158l-542 4h-84l-72 2l373 -434q37 -41 37 -69q0 -27 -35 -70l-348 -420q788 6 808 6h7q35 0 53 -3t35.5 -23.5t17.5 -63.5v-45q0 -53 -23.5 -72.5t-68.5 -19.5h-1192 q-33 0 -53.5 11.5t-25.5 21.5t-11 30q-4 35 35 82l454 549l-452 523q-39 45 -39 90z" />
<glyph unicode="&#x3a4;" horiz-adv-x="1501" d="M80 1286v21q0 51 18.5 77.5t75.5 26.5h1153q27 0 43 -4t32.5 -26.5t16.5 -63.5v-33q0 -88 -88 -88h-16q-37 0 -420 6v-1100q0 -31 -3 -49t-24.5 -35.5t-62.5 -17.5h-111q-27 0 -46 8t-27.5 16.5t-12.5 29t-4 24.5v22v1102q-395 -6 -424 -6h-12q-88 0 -88 90z" />
<glyph unicode="&#x3a5;" horiz-adv-x="1751" d="M123 1145q0 127 113.5 224t283.5 97q266 0 350 -383q4 -12 4 -16q8 49 20.5 94t40.5 103.5t63.5 100.5t95 71.5t131.5 29.5q166 0 282.5 -96t116.5 -225q0 -82 -98 -82h-88q-18 0 -32.5 3t-24 11t-15.5 14.5t-9 17.5t-5 16t-3 16.5t-1 13.5q-6 39 -41 65.5t-86 26.5 q-68 0 -112 -44t-61.5 -126t-22.5 -145.5t-5 -151.5v-682q0 -18 -1 -28.5t-8 -30t-27.5 -29.5t-53.5 -10h-109q-35 0 -56.5 9t-28.5 29.5t-8 32t-1 35.5v594q0 12 1 39t1 41q0 92 -6 159t-24.5 145.5t-62.5 120.5t-112 42q-49 0 -80.5 -24.5t-42.5 -55.5q0 -4 -2 -16 t-3 -16.5t-4 -14.5t-5 -14t-6 -12.5t-8 -11.5t-11.5 -8t-15.5 -6t-19.5 -3t-23.5 -2h-82q-98 0 -98 82z" />
<glyph unicode="&#x3a6;" horiz-adv-x="1626" d="M123 711q0 127 47 223t128 150.5t172 83t196 34.5v125q0 27 3 43t25.5 33.5t63.5 17.5h102q86 0 86 -92v-125q264 -16 408.5 -144t144.5 -349.5t-144.5 -349.5t-408.5 -144v-123q0 -92 -88 -94h-100q-51 0 -71.5 23.5t-20.5 70.5v125q-102 6 -192.5 34t-172.5 82 t-130 150.5t-48 225.5zM410 711q0 -141 52 -228.5t204 -111.5v680q-145 -23 -200.5 -106.5t-55.5 -233.5zM946 369q76 12 130 42.5t80 62.5t39 85t15 81t2 77q0 152 -59 232.5t-207 103.5v-684z" />
<glyph unicode="&#x3a7;" horiz-adv-x="1501" d="M78 47q0 20 26 55l478 654l-447 571q-25 29 -24 49q0 47 75 47q6 0 17 -2h10h133q43 0 64.5 -12t50.5 -53l272 -365l262 369q18 25 27.5 35t29 18t50.5 8h158q70 0 69 -47q0 -14 -24 -49l-420 -569l506 -654q29 -39 28 -57q0 -45 -71 -45h-166q-41 0 -60.5 13.5 t-50.5 54.5l-338 473l-319 -471q-20 -31 -28.5 -40.5t-30 -19.5t-52.5 -10h-158q-67 0 -67 47z" />
<glyph unicode="&#x3a8;" horiz-adv-x="1751" d="M123 1194q0 76 94 76h88q104 0 152.5 -65.5t52.5 -170t3 -216t27.5 -222.5t102.5 -168q31 -25 84 -45v940q0 98 90 98h101q27 0 45 -8t27 -17.5t13.5 -27.5t4.5 -25.5v-25.5v-936q100 33 153 115t60.5 179t12.5 203.5t10 192.5t53.5 142.5t144.5 56.5h88q53 0 73.5 -24.5 t20.5 -51.5q0 -31 -21.5 -50.5t-56.5 -23.5q-20 -41 -24 -81t-8.5 -214t-53.5 -295.5t-132 -183t-156.5 -87.5t-163.5 -38v-127q0 -92 -86 -94h-101q-94 0 -94 94v127q-303 31 -424 271q-51 100 -61.5 226t-11.5 235.5t-29 166.5q-78 11 -78 74z" />
<glyph unicode="&#x3a9;" horiz-adv-x="1626" d="M98 92v39q0 90 90 90q8 0 158 -2t174 -2q-33 74 -105.5 170t-134 170t-109.5 179.5t-48 213.5q0 70 14.5 133.5t58.5 136t115.5 125t198.5 87t295 34.5q309 0 475 -102q72 -43 121 -105.5t67.5 -127t24.5 -105.5t6 -78q0 -109 -48 -214t-109.5 -178t-134 -169 t-105.5 -170q37 0 179 2t155 2q90 0 90 -90q0 -4 -1 -12t-1 -13v-16q0 -41 -17.5 -62.5t-35 -24.5t-44.5 -3h-419q-35 0 -60.5 20.5t-25.5 67.5q0 106 45 228t98 214.5t98 209t45 214.5q0 203 -105.5 284t-291.5 81t-290.5 -81t-104.5 -284q0 -98 44 -215.5t98 -211 t98 -215.5t44 -228q0 -84 -88 -84h-415q-20 0 -33.5 2t-30 10t-26 27.5t-9.5 52.5z" />
<glyph unicode="&#x3aa;" horiz-adv-x="665" d="M-51 1650.5q0 57.5 41 95.5t92 38q57 0 95 -41t38 -94q0 -55 -39 -94t-92 -39t-94 38.5t-41 96zM188 94v1233q0 94 84 94h107q29 0 46 -3t35.5 -24.5t18.5 -64.5v-1235q0 -94 -84 -94h-114q-43 0 -68 19.5t-25 74.5zM451 1649q0 55 39.5 95t93 40t93.5 -39t40 -96 q0 -53 -38 -93t-95.5 -40t-95 40t-37.5 93z" />
<glyph unicode="&#x3ab;" horiz-adv-x="1751" d="M123 1145q0 127 113.5 224t283.5 97q266 0 350 -383q4 -12 4 -16q8 49 20.5 94t40.5 103.5t63.5 100.5t95 71.5t131.5 29.5q166 0 282.5 -96t116.5 -225q0 -82 -98 -82h-88q-18 0 -32.5 3t-24 11t-15.5 14.5t-9 17.5t-5 16t-3 16.5t-1 13.5q-6 39 -41 65.5t-86 26.5 q-68 0 -112 -44t-61.5 -126t-22.5 -145.5t-5 -151.5v-682q0 -18 -1 -28.5t-8 -30t-27.5 -29.5t-53.5 -10h-109q-35 0 -56.5 9t-28.5 29.5t-8 32t-1 35.5v594q0 12 1 39t1 41q0 92 -6 159t-24.5 145.5t-62.5 120.5t-112 42q-49 0 -80.5 -24.5t-42.5 -55.5q0 -4 -2 -16 t-3 -16.5t-4 -14.5t-5 -14t-6 -12.5t-8 -11.5t-11.5 -8t-15.5 -6t-19.5 -3t-23.5 -2h-82q-98 0 -98 82zM459 1651q0 53 38 93t95.5 40t96 -41t38.5 -94t-37.5 -93t-95 -40t-96.5 41t-39 94zM1018 1651q0 53 38 93t95.5 40t96 -41t38.5 -94t-37.5 -93t-95 -40t-96.5 41 t-39 94z" />
<glyph unicode="&#x3ac;" horiz-adv-x="1425" d="M92 467q0 494 414 494q209 0 364 -203q63 182 72 192q6 8 31 11h182q53 0 53 -27q0 -10 -21.5 -78t-62.5 -175.5t-84 -207.5q-14 -31 -14 -41q0 -23 41 -106.5t82 -92.5q29 4 41 39t20.5 39t38.5 4h185q39 0 39 -36q0 -106 -89.5 -204t-234.5 -98q-176 0 -293 181 q-2 -2 -17.5 -18.5t-22.5 -23.5t-25.5 -24.5t-34 -28t-38 -25.5t-45 -24.5t-49 -18.5t-56 -13.5t-62.5 -4.5q-74 0 -137.5 18.5t-130 67t-106.5 151.5t-40 253zM371 451q0 -55 3 -87t15 -67t41 -50.5t76 -15.5q66 0 116 51.5t105 145.5q-49 141 -94 210t-125 69 q-47 0 -76 -15.5t-42 -51.5t-16 -70.5t-3 -98.5v-20zM514 1063q0 12 119 321q10 23 19.5 30t31.5 7h184q2 0 9.5 -1t10.5 -1t8 -1t8 -3l6 -4t4 -6t1 -10q0 -12 -26.5 -49t-216.5 -281q-25 -31 -56 -31h-61q-41 0 -41 29z" />
<glyph unicode="&#x3ad;" horiz-adv-x="968" d="M68 336q0 135 137 192q-82 68 -82 156q0 121 106.5 199t249.5 78q166 0 326 -150q29 -25 35 -43v-10q-6 -18 -67.5 -79t-76 -61t-44 30t-75 59.5t-98.5 29.5q-55 0 -94 -24.5t-39 -61.5q0 -80 217 -80q29 -2 35 -12t6 -35v-6v-20q0 -43 -39 -45h-96q-45 -2 -66.5 -3 t-54.5 -9.5t-46 -28t-13 -50.5q0 -66 58.5 -113.5t135.5 -47.5q57 0 111.5 29.5t88.5 59t44 29.5q14 0 75.5 -60t67.5 -79q-2 -25 -55 -72t-147.5 -89t-186.5 -42q-174 0 -293.5 108t-119.5 251zM346 1063q0 6 121 321q10 23 18.5 30t30.5 7h189q45 0 45 -26 q0 -10 -103 -146q-82 -104 -143 -184q-16 -20 -24.5 -25.5t-26.5 -5.5h-56q-51 0 -51 29z" />
<glyph unicode="&#x3ae;" horiz-adv-x="1157" d="M61 643q0 115 71 227.5t204 112.5q131 0 227 -135q74 135 215 135q106 0 194.5 -102.5t88.5 -333.5v-928q0 -23 -7 -32t-30 -11h-188q-20 0 -31.5 2t-16 11.5t-5.5 15.5t-1 28v908q0 68 -20.5 102.5t-50.5 34.5q-74 0 -74 -150v-512q0 -39 -41 -41h-190q-16 0 -25.5 2.5 t-16 12.5t-6.5 30v515q0 45 -1 74.5t-1 46t-3 30.5t-3 16.5t-6 14.5t-6 14q-23 -18 -23 -57v-29q0 -41 -41 -41h-161q-18 0 -26.5 1t-17 10.5t-8.5 27.5zM567 1063q0 12 119 321q10 23 19.5 30t31.5 7h189q43 0 43 -26q0 -14 -111 -156q-78 -100 -135 -174q-25 -31 -53 -31 h-56q-2 0 -10 1t-11 1t-9 2t-9.5 5.5t-5.5 8.5t-2 11z" />
<glyph unicode="&#x3af;" horiz-adv-x="593" d="M68 246v680q2 29 14 34t61 5h148q25 0 49 -9l6 -16v-707q8 -2 21 -2q18 0 29.5 20.5t19.5 25t41 4.5h96q43 0 43 -37q0 -92 -71.5 -179.5t-192.5 -87.5q-98 0 -181 70t-83 199zM84 1063q0 6 121 321q10 23 18 30t31 7h188q45 0 45 -26q0 -14 -110 -156 q-78 -100 -135 -174q-25 -31 -56 -31h-53q-49 4 -49 29z" />
<glyph unicode="&#x3b0;" d="M70 911q4 27 43 27h239q29 0 44.5 -16.5t48 -90t50 -146.5t21.5 -117t6 -122q8 -176 113 -188q117 12 117 213q0 215 -127 401q-25 35 -19 50q29 14 45 16h236q33 0 49 -33q94 -207 94 -432q0 -213 -113.5 -354.5t-279.5 -141.5q-172 0 -277.5 134.5t-115.5 306.5 q-6 109 -13.5 161t-41 136t-97.5 159q-18 23 -22 37zM131 1106q0 76 90 76l10 -2h11q51 0 69.5 -25t18.5 -49q0 -14 -4 -28.5t-25.5 -30t-56.5 -15.5h-27q-49 0 -67.5 24.5t-18.5 49.5zM375 1063q0 12 119 321q10 23 18 30t31 7h186q2 0 9 -1t10.5 -1t8.5 -1t8 -3l6 -4t4 -6 t1 -10q0 -12 -92 -133q-86 -109 -154 -197q-25 -31 -53 -31h-55q-2 0 -10.5 1t-11.5 1t-9 2t-9 5.5t-5 8.5t-2 11zM692 1106q0 74 101 74h10q51 0 69.5 -25t18.5 -49q0 -14 -4 -28.5t-26.5 -30t-59.5 -15.5h-21q-51 0 -69.5 24.5t-18.5 49.5z" />
<glyph unicode="&#x3b1;" horiz-adv-x="1425" d="M92 467q0 494 414 494q209 0 364 -203q63 182 72 192q6 8 31 11h182q53 0 53 -27q0 -10 -21.5 -78t-62.5 -175.5t-84 -207.5q-14 -31 -14 -41q0 -23 41 -106.5t82 -92.5q29 4 41 39t20.5 39t38.5 4h185q39 0 39 -36q0 -106 -89.5 -204t-234.5 -98q-176 0 -293 181 q-2 -2 -17.5 -18.5t-22.5 -23.5t-25.5 -24.5t-34 -28t-38 -25.5t-45 -24.5t-49 -18.5t-56 -13.5t-62.5 -4.5q-74 0 -137.5 18.5t-130 67t-106.5 151.5t-40 253zM371 451q0 -55 3 -87t15 -67t41 -50.5t76 -15.5q66 0 116 51.5t105 145.5q-49 141 -94 210t-125 69 q-47 0 -76 -15.5t-42 -51.5t-16 -70.5t-3 -98.5v-20z" />
<glyph unicode="&#x3b2;" d="M92 -139v1106q0 279 90 406.5t330 127.5q406 0 406 -385q0 -74 -30 -134t-49.5 -78.5t-62.5 -53.5q254 -100 254 -430q0 -199 -143.5 -321t-319.5 -122q-102 0 -196 78v-205q0 -23 -8.5 -31.5t-36.5 -8.5h-189q-23 0 -33 8t-11 15.5t-1 27.5zM371 485q4 -94 18 -143 q18 -59 61.5 -106.5t110.5 -47.5q76 0 132.5 63.5t56.5 166.5q0 176 -97.5 242.5t-279.5 72.5q0 -8 -1 -23.5t-1 -23.5v-201zM371 915q266 23 266 211q-2 39 -3 52.5t-8.5 46t-20.5 46t-38.5 27t-62.5 13.5q-80 0 -106.5 -46t-26.5 -151v-199z" />
<glyph unicode="&#x3b3;" horiz-adv-x="1251" d="M61 627q0 123 98.5 228.5t243.5 105.5q59 0 108.5 -23t85.5 -67t51.5 -69.5t37.5 -68.5q45 47 94 88q174 139 361 140q18 0 28.5 -8.5t11.5 -17.5t1 -28v-182q0 -25 -11.5 -35t-30 -10t-56 -8t-76.5 -29q-51 -27 -94.5 -69t-65 -72.5t-51.5 -81.5q55 -231 59 -574 q0 -158 -100 -221q-59 -37 -131 -37q-90 0 -157 56.5t-75 148.5l-2 47q4 190 36 340t61.5 221.5t29.5 73.5q0 41 -31.5 123t-78.5 82q-53 0 -72 -76l-6 -8q-14 -8 -29 -8h-201q-39 4 -39 39z" />
<glyph unicode="&#x3b4;" horiz-adv-x="1062" d="M92 449q0 100 22.5 179t51.5 123t74 77.5t71.5 44t63.5 22.5q-4 2 -27.5 14.5t-38 21.5t-40 27.5t-42 39t-34 46t-25.5 59.5t-8 71q0 111 79.5 205t202.5 94h27.5t28 -4.5t27 -8.5t35 -15t41.5 -20.5t56 -31t71 -41t94.5 -55t117.5 -66.5q29 -16 29 -30.5t-23.5 -57.5 t-40.5 -56l-12 -2q-18 4 -193 103q-102 59 -170 98q-49 29 -84 29q-57 0 -93 -43t-36 -94q0 -53 41 -87t195 -120q80 -43 129 -72q2 0 28.5 -10t38 -16.5t39 -21.5t44 -31.5t40 -41t38 -56.5t28.5 -72t21.5 -92t7.5 -114q0 -133 -37 -228t-101.5 -145.5t-138.5 -72 t-164 -21.5q-88 0 -160.5 21.5t-137 72t-100.5 147t-36 231.5zM365 352q0 -223 124 -223q74 0 126.5 63.5t66.5 167.5q10 70 10 181q0 123 -30.5 172t-92.5 49q-35 0 -66.5 -16.5t-65.5 -57.5t-53 -127t-19 -209z" />
<glyph unicode="&#x3b5;" horiz-adv-x="968" d="M68 336q0 135 137 192q-82 68 -82 156q0 121 106.5 199t249.5 78q166 0 326 -150q29 -25 35 -43v-10q-6 -18 -67.5 -79t-76 -61t-44 30t-75 59.5t-98.5 29.5q-55 0 -94 -24.5t-39 -61.5q0 -80 217 -80q29 -2 35 -12t6 -35v-6v-20q0 -43 -39 -45h-96q-45 -2 -66.5 -3 t-54.5 -9.5t-46 -28t-13 -50.5q0 -66 58.5 -113.5t135.5 -47.5q57 0 111.5 29.5t88.5 59t44 29.5q14 0 75.5 -60t67.5 -79q-2 -25 -55 -72t-147.5 -89t-186.5 -42q-174 0 -293.5 108t-119.5 251z" />
<glyph unicode="&#x3b6;" horiz-adv-x="1062" d="M92 516q0 336 281 647q-131 45 -189.5 129t-58.5 166q0 29 10 37t31 8h194q25 0 33 -8t11.5 -26.5t9.5 -28.5q23 -39 90 -39q82 0 177 50t97 50h4q14 -4 41 -41q8 -12 31 -47q41 -57 72 -100q12 -25 -15 -49q-186 -135 -274 -224q-266 -260 -266 -522q0 -84 31.5 -147.5 t84.5 -83.5q16 -6 77 -10.5t124 -26.5q111 -41 195 -143.5t84 -245.5q0 -139 -108.5 -260t-315.5 -133q-39 0 -39 45v170q0 8 1 13t2 9t5 6t7 4t10.5 4t12.5 3.5t17 3.5t21 4q39 12 72.5 46t33.5 85q0 55 -39 92t-88 45q-2 0 -40 3t-70.5 8t-85 29.5t-97.5 63.5 q-174 154 -174 414z" />
<glyph unicode="&#x3b7;" horiz-adv-x="1157" d="M61 643q0 115 71 227.5t204 112.5q131 0 227 -135q74 135 215 135q106 0 194.5 -102.5t88.5 -333.5v-928q0 -23 -7 -32t-30 -11h-188q-20 0 -31.5 2t-16 11.5t-5.5 15.5t-1 28v908q0 68 -20.5 102.5t-50.5 34.5q-74 0 -74 -150v-512q0 -39 -41 -41h-190q-16 0 -25.5 2.5 t-16 12.5t-6.5 30v515q0 45 -1 74.5t-1 46t-3 30.5t-3 16.5t-6 14.5t-6 14q-23 -18 -23 -57v-29q0 -41 -41 -41h-161q-18 0 -26.5 1t-17 10.5t-8.5 27.5z" />
<glyph unicode="&#x3b8;" d="M92 739q0 348 129 555t340 207q106 0 191.5 -51t136.5 -130t84 -184.5t45 -201.5t12 -193q0 -344 -127 -554t-344 -210q-125 0 -219 69t-146.5 183.5t-77 243.5t-24.5 266zM373 653q10 -215 45 -293q45 -102 143 -102q63 0 104.5 40t57.5 119t20.5 133t6.5 146h-377v-43z M373 846h377q-12 201 -43 272q-45 104 -146 105q-47 0 -82 -24.5t-53 -58.5t-30.5 -91.5t-15.5 -97t-7 -105.5z" />
<glyph unicode="&#x3b9;" horiz-adv-x="624" d="M68 246v680q2 29 14 34t61 5h148q25 0 49 -9l6 -16v-707q8 -2 21 -2q18 0 29.5 20.5t19.5 25t41 4.5h96q43 0 43 -37q0 -92 -71.5 -179.5t-192.5 -87.5q-98 0 -181 70t-83 199z" />
<glyph unicode="&#x3ba;" horiz-adv-x="1089" d="M123 9v32v870q0 20 1 28.5t13.5 17t36.5 8.5h182q27 0 36 -9.5t9 -35.5v-258q37 35 93.5 89t76 71.5t55.5 47t52 36.5t47 18.5t58.5 13.5t68.5 2q111 0 128 -7t17 -52v-152q0 -41 -36 -41q-10 0 -57.5 9.5t-60 9.5t-24.5 -5.5t-29.5 -21.5t-37 -35.5t-60.5 -58.5t-88 -80 v-2l475 -463q25 -25 25 -39q0 -27 -45 -27h-311q-18 0 -48 28t-165 167q-80 84 -134 137v-291q0 -39 -36 -41h-193q-18 0 -28.5 2.5t-15.5 13.5t-5 18z" />
<glyph unicode="&#x3bb;" d="M39 1333q0 39 100.5 104.5t194.5 65.5q63 0 137 -128t256 -535l350 -785q8 -18 8 -26q0 -29 -49 -29h-211q-35 2 -49 33l-219 495l-197 -499q-12 -29 -45 -29h-200q-35 0 -47 16q-4 14 2 35l317 807q6 18 6 29q0 16 -51 123.5t-86 163.5q-51 -6 -98 -44t-58 -38 q-18 0 -28 41q-33 180 -33 200z" />
<glyph unicode="&#x3bc;" horiz-adv-x="1251" d="M68 -381v1303q2 25 11 34t36 9h184q33 0 39 -10.5t8 -43.5v-462q0 -162 82 -205q23 -12 49 -13q49 0 89 44t40 155v490q0 14 2 22t13.5 15.5t31.5 7.5h187q23 0 33 -6.5t11 -13.5t3 -25v-502q0 -4 -1 -13.5t-1 -13.5q0 -72 26.5 -106.5t63.5 -34.5q33 0 59.5 26.5 t26.5 63.5v27q0 31 59 30h80q33 0 44 -9t18 -50q4 -33 4 -51q0 -141 -99.5 -237.5t-234.5 -96.5q-147 0 -248 139q-76 -139 -207 -139q-70 0 -131 41v-373q0 -16 -2 -24.5t-11 -14.5t-28 -6h-194q-25 0 -33 9t-10 34z" />
<glyph unicode="&#x3bd;" horiz-adv-x="1062" d="M-23 913q0 8 3.5 13.5t9.5 7.5t10 2t13.5 1t13.5 1h297q39 0 54 -32t79 -224q25 -74 45 -137.5t30.5 -94t17.5 -55t11 -36t8 -21.5q2 2 33 40t49.5 64.5t45 69.5t40 87t13.5 83q0 16 -16.5 116.5t-16.5 108.5q0 31 43 31h186q31 0 43 -12l4 -13q33 -156 33 -194 q0 -70 -19.5 -141.5t-62.5 -148.5t-75.5 -128t-97 -141t-89.5 -127q-10 -14 -14 -19.5t-13.5 -9.5t-25.5 -4h-193q-25 0 -35 9t-20 42l-205 592q-29 82 -65.5 136.5t-64.5 71.5t-48.5 32.5t-20.5 29.5z" />
<glyph unicode="&#x3be;" horiz-adv-x="1062" d="M92 446q0 260 256 437q-76 102 -76 219q0 61 39 147q-100 37 -143 101.5t-43 130.5q0 41 45 41h188q31 0 45.5 -26t69.5 -26t172 25t121 25h8l8 -7q10 -12 25.5 -70.5t26.5 -111.5l10 -53q0 -20 -14.5 -26.5t-61.5 -14.5q-14 -2 -23 -4q-23 -4 -58.5 -10t-55 -9.5 t-48 -8.5t-44 -9t-35 -11t-30.5 -13.5t-22.5 -15.5t-18.5 -20.5t-9 -23.5q-4 -16 -4 -25q0 -25 11 -43t36 -29t43 -17.5t57 -9.5t50.5 -4t48.5 -1h10q29 0 39 -2t16 -12.5t6 -34.5v-182q0 -31 -10 -39t-54 -11.5t-79 -11.5q-84 -23 -152.5 -83t-68.5 -156q0 -59 33.5 -105.5 t85.5 -60.5q12 -4 61 -6.5t94 -14.5q129 -35 224.5 -143.5t95.5 -257.5q0 -131 -97.5 -207t-201.5 -76q-25 0 -31 11.5t-6 35.5v160q0 37 27.5 47t27.5 35q0 41 -37 81t-92 48q-143 10 -213 43q-33 16 -65 39q-82 59 -134.5 154t-52.5 212z" />
<glyph unicode="&#x3bf;" horiz-adv-x="1187" d="M92 471q0 207 148.5 348.5t351.5 141.5q207 0 353.5 -143.5t146.5 -348.5q0 -203 -144.5 -347.5t-355.5 -144.5q-207 0 -353.5 144.5t-146.5 349.5zM371 469q0 -90 66.5 -150.5t154.5 -60.5q86 0 153.5 59.5t67.5 151.5q0 90 -66.5 151.5t-154.5 61.5q-86 0 -153.5 -60.5 t-67.5 -152.5z" />
<glyph unicode="&#x3c0;" horiz-adv-x="1314" d="M-47 844l4 12q20 27 134 54.5t220 27.5h867q16 0 24 -2t12.5 -12.5t4.5 -14.5t2 -22v-139q0 -4 -1 -12.5t-1 -10.5q0 -23 -10.5 -31t-49.5 -8h-119v-315q0 -98 33 -117l10 -2l9 4q23 16 26.5 62.5t11.5 54.5q10 8 52 8h90q41 0 43 -35q-4 -160 -80 -264.5t-197 -104.5 q-104 0 -190 95.5t-86 304.5v309h-178v-645q0 -41 -11 -53q-6 -6 -15 -8.5t-19.5 -1t-22.5 -1.5h-164q-31 0 -40 10.5t-9 37.5v659q-84 -8 -153.5 -39t-75.5 -31q-14 0 -25 17q-96 203 -96 213z" />
<glyph unicode="&#x3c1;" horiz-adv-x="1062" d="M92 -356v780q0 88 6 131q27 174 148 290t282 116q180 0 309.5 -142.5t129.5 -349.5t-128 -349.5t-309 -142.5q-74 0 -159 33v-366q0 -23 -8.5 -33t-32.5 -10h-195q-25 0 -34 9t-9 34zM371 467q0 -113 43 -189.5t114 -76.5q84 0 121 85t37 185q0 59 -12 114.5t-50 103.5 t-96 48q-74 0 -115.5 -78.5t-41.5 -191.5z" />
<glyph unicode="&#x3c2;" horiz-adv-x="1001" d="M92 426q0 57 13.5 109.5t43 113t90 109.5t145.5 90t215 65.5t294 24.5q39 -2 39 -45v-191q0 -23 -10.5 -33t-47.5 -10q-94 -2 -139 -4t-118.5 -12t-112.5 -28.5t-76 -55.5t-51 -90q-8 -25 -8 -59q0 -66 33.5 -107t78.5 -47q66 -4 105 -9t100.5 -26.5t108.5 -58.5 q111 -88 110 -219q0 -137 -109.5 -216t-217.5 -79q-41 0 -41 41v172q0 23 13 33t29.5 11t30 11t15.5 35l-4 10q-18 25 -45 32t-73 7t-77 6q-141 27 -237.5 143.5t-96.5 276.5z" />
<glyph unicode="&#x3c3;" horiz-adv-x="1282" d="M92 459q0 78 30 157.5t89 153.5t164.5 121t242.5 47h556q25 0 34 -10t9 -37v-191q0 -23 -10.5 -32t-47.5 -9h-112q45 -102 45 -202q0 -195 -144.5 -337.5t-355.5 -142.5q-203 0 -351.5 138.5t-148.5 343.5zM373 459q0 -82 63.5 -141.5t155.5 -59.5q88 0 154.5 55.5 t66.5 143.5q0 90 -68.5 146t-150.5 56q-88 0 -154.5 -56t-66.5 -144z" />
<glyph unicode="&#x3c4;" horiz-adv-x="1032" d="M-86 834v8l4 12q27 27 121 55.5t221 28.5h619h8q23 0 31 -2t14 -12.5t6 -34.5v-152q0 -23 -1 -30t-12.5 -14t-35.5 -7h-338v-315q0 -66 37 -93.5t76 -27.5q37 0 62.5 16.5t34.5 33.5t17 41t8 26l7 8q18 6 49 6h94q39 0 39 -41q0 -129 -97.5 -246t-254.5 -117 q-57 0 -114.5 21.5t-113 66t-89.5 126t-34 188.5v307q-74 0 -118.5 -16.5t-66 -32.5t-36.5 -16q-16 0 -45 47q-88 148 -92 166z" />
<glyph unicode="&#x3c5;" d="M70 911q4 27 43 27h239q29 0 44.5 -16.5t48 -90t50 -146.5t21.5 -117t6 -122q8 -176 113 -188q117 12 117 213q0 215 -127 401q-25 35 -19 50q29 14 45 16h236q33 0 49 -33q94 -207 94 -432q0 -213 -113.5 -354.5t-279.5 -141.5q-172 0 -277.5 134.5t-115.5 306.5 q-6 109 -13.5 161t-41 136t-97.5 159q-18 23 -22 37z" />
<glyph unicode="&#x3c6;" horiz-adv-x="1314" d="M92 479q0 147 53.5 290.5t85.5 164.5q8 4 27 4h227q37 0 50 -8l6 -8l2 -9q0 -6 -1 -8t-3 -5t-7.5 -8t-11.5 -10t-19.5 -17.5t-29.5 -26.5q-68 -66 -112 -162t-44 -201q0 -170 199 -250v369q0 178 110.5 272.5t239.5 94.5q166 0 259.5 -147.5t93.5 -340.5 q0 -197 -131.5 -322.5t-290.5 -156.5v-342q0 -18 -1 -26.5t-11.5 -16.5t-32.5 -8h-185q-35 0 -43 11t-8 42v340q-164 33 -293 158.5t-129 326.5zM795 225q199 74 198 256q0 117 -33.5 186.5t-89.5 69.5q-76 0 -75 -172v-340z" />
<glyph unicode="&#x3c7;" horiz-adv-x="1251" d="M68 729v193q2 16 4 22t23.5 14.5t62.5 8.5q137 0 248.5 -98.5t224.5 -301.5q49 88 117 211q76 137 93 160t46 23h205q39 0 49 -5.5t12 -23.5q0 -4 -25 -51l-333 -594q-12 -20 6 -60q63 -125 114.5 -203.5t92.5 -112.5t66.5 -43t58.5 -11h24q25 -8 25 -47v-189 q0 -16 -4 -24.5t-26 -16.5t-62 -8q-137 0 -249 98.5t-225 302.5q-205 -365 -206 -366q-25 -27 -50 -27h-204q-39 0 -48.5 6t-11.5 23q0 10 6 20l353 625q6 10 6 18.5v11.5t-6 14t-9 15q-184 371 -321 371q-4 0 -12.5 -1t-10.5 -1q-34 0 -34 47z" />
<glyph unicode="&#x3c8;" horiz-adv-x="1314" d="M92 578q0 135 58 323q14 37 47 37h182q31 0 45 -8l6 -8v-11q-2 -8 -31.5 -55t-56.5 -123t-27 -166q0 -123 61.5 -212t151.5 -128v1209q0 25 9.5 34t44.5 9h157q41 0 41 -41v-1211q92 39 152.5 129t60.5 211q0 90 -26.5 165t-56 122t-31.5 57q4 27 39 27h190 q31 0 40 -12.5t30 -81.5q39 -125 39 -264q0 -133 -43.5 -244t-112 -178.5t-139 -108.5t-142.5 -57v-336q0 -20 -1 -28.5t-11 -17.5t-33 -9h-162q-23 0 -33 8t-11 16t-1 27v340q-176 41 -297.5 186.5t-136.5 337.5z" />
<glyph unicode="&#x3c9;" horiz-adv-x="1501" d="M78 414q0 84 24.5 167t58.5 142t71.5 108.5t61 73t32.5 27.5q10 6 39 6h245q37 0 37 -25q0 -14 -12 -26q-92 -92 -142.5 -150.5t-93.5 -148.5t-43 -180q0 -82 28 -139.5t73 -65.5h20q121 12 121 241v148q0 23 6 33t13.5 12t27.5 2h211q14 0 22.5 -2t14.5 -12.5t6 -30.5 v-148q0 -127 37 -186q37 -57 90 -57q61 0 88 64.5t27 140.5q0 94 -44 186t-97.5 149.5t-100.5 105.5t-49 64q8 25 41 25h248q27 0 39 -9t57 -61q184 -209 184 -454q0 -190 -116.5 -313.5t-274.5 -123.5q-170 0 -278 138h-2q-106 -137 -279 -138q-158 0 -274.5 124.5 t-116.5 312.5z" />
<glyph unicode="&#x3ca;" horiz-adv-x="593" d="M-154 1174q0 53 38 93t95.5 40t95.5 -40t38 -93.5t-37 -93.5t-94 -40q-53 0 -94.5 38.5t-41.5 95.5zM70 246v680q2 29 14 34t61 5h154q16 0 43 -9l6 -16v-707q8 -2 21 -2q18 0 29.5 20.5t19.5 25t43 4.5h94q43 0 43 -37q0 -94 -72.5 -180.5t-191.5 -86.5q-98 0 -181 71 t-83 198zM334 1174q0 55 39 94t94 39q57 0 95 -40t38 -93q0 -51 -38 -92.5t-95 -41.5t-95 40.5t-38 93.5z" />
<glyph unicode="&#x3cb;" d="M70 911q4 27 43 27h239q29 0 44.5 -16.5t48 -90t50 -146.5t21.5 -117t6 -122q8 -176 113 -188q117 12 117 213q0 215 -127 401q-25 35 -19 50q29 14 45 16h236q33 0 49 -33q94 -207 94 -432q0 -213 -113.5 -354.5t-279.5 -141.5q-172 0 -277.5 134.5t-115.5 306.5 q-6 109 -13.5 161t-41 136t-97.5 159q-18 23 -22 37zM133 1173.5q0 57.5 39 95.5t94 38q57 0 96 -40t39 -93q0 -51 -38.5 -92.5t-96.5 -41.5q-53 0 -93 38t-40 95.5zM621 1174q0 55 39.5 94t93 39t93.5 -38t40 -95q0 -55 -39 -94.5t-94 -39.5q-57 0 -95 40.5t-38 93.5z" />
<glyph unicode="&#x3cc;" horiz-adv-x="1187" d="M92 471q0 207 148.5 348.5t351.5 141.5q207 0 353.5 -143.5t146.5 -348.5q0 -203 -144.5 -347.5t-355.5 -144.5q-207 0 -353.5 144.5t-146.5 349.5zM371 469q0 -90 66.5 -150.5t154.5 -60.5q86 0 153.5 59.5t67.5 151.5q0 90 -66.5 151.5t-154.5 61.5q-86 0 -153.5 -60.5 t-67.5 -152.5zM455 1063q0 10 119 321q10 23 19 30t32 7h184q2 0 9 -1t10.5 -1t8.5 -1t8 -3l6 -4t4 -6t1 -10q0 -14 -149 -209q-57 -74 -95 -121q-25 -31 -55 -31h-53q-49 4 -49 29z" />
<glyph unicode="&#x3cd;" d="M70 911q4 27 43 27h239q29 0 44.5 -16.5t48 -90t50 -146.5t21.5 -117t6 -122q8 -176 113 -188q117 12 117 213q0 215 -127 401q-25 35 -19 50q29 14 45 16h236q33 0 49 -33q94 -207 94 -432q0 -213 -113.5 -354.5t-279.5 -141.5q-172 0 -277.5 134.5t-115.5 306.5 q-6 109 -13.5 161t-41 136t-97.5 159q-18 23 -22 37zM375 1063q0 12 119 321q10 23 18 30t31 7h186q2 0 9 -1t10.5 -1t8.5 -1t8 -3l6 -4t4 -6t1 -10q0 -12 -92 -133q-86 -109 -154 -197q-25 -31 -53 -31h-55q-2 0 -10.5 1t-11.5 1t-9 2t-9 5.5t-5 8.5t-2 11z" />
<glyph unicode="&#x3ce;" horiz-adv-x="1501" d="M78 414q0 84 24.5 167t58.5 142t71.5 108.5t61 73t32.5 27.5q10 6 39 6h245q37 0 37 -25q0 -14 -12 -26q-92 -92 -142.5 -150.5t-93.5 -148.5t-43 -180q0 -82 28 -139.5t73 -65.5h20q121 12 121 241v148q0 23 6 33t13.5 12t27.5 2h211q14 0 22.5 -2t14.5 -12.5t6 -30.5 v-148q0 -127 37 -186q37 -57 90 -57q61 0 88 64.5t27 140.5q0 94 -44 186t-97.5 149.5t-100.5 105.5t-49 64q8 25 41 25h248q27 0 39 -9t57 -61q184 -209 184 -454q0 -190 -116.5 -313.5t-274.5 -123.5q-170 0 -278 138h-2q-106 -137 -279 -138q-158 0 -274.5 124.5 t-116.5 312.5zM613 1063q0 10 119 321q10 23 19 30t32 7h184q2 0 9 -1t10.5 -1t8.5 -1t8 -3l6 -4t4 -6t1 -10q0 -14 -149 -209q-57 -74 -95 -121q-25 -31 -55 -31h-53q-49 4 -49 29z" />
<glyph unicode="&#x3d1;" d="M92 739q0 348 129 555t340 207q106 0 191.5 -51t136.5 -130t84 -184.5t45 -201.5t12 -193q0 -344 -127 -554t-344 -210q-125 0 -219 69t-146.5 183.5t-77 243.5t-24.5 266zM373 653q10 -215 45 -293q45 -102 143 -102q63 0 104.5 40t57.5 119t20.5 133t6.5 146h-377v-43z M373 846h377q-12 201 -43 272q-45 104 -146 105q-47 0 -82 -24.5t-53 -58.5t-30.5 -91.5t-15.5 -97t-7 -105.5z" />
<glyph unicode="&#x3d8;" d="M74 956q0 199 140 343.5t347 144.5q197 0 342.5 -140.5t145.5 -347.5q0 -172 -99.5 -294.5t-242.5 -169.5v-447q0 -16 -2.5 -24.5t-12.5 -14.5t-30 -6h-201q-29 0 -37 10t-8 33v449q-143 47 -242.5 169.5t-99.5 294.5zM365 956q0 -88 59 -147t137 -59q86 0 141.5 63.5 t55.5 142.5q0 88 -58.5 147.5t-138.5 59.5q-86 0 -141 -61.5t-55 -145.5z" />
<glyph unicode="&#x3d9;" d="M72 817q0 221 169 362.5t392 141.5q178 0 298 -112.5t120 -301.5q0 -262 -236 -409v-426v-19q0 -20 -1 -27.5t-4 -26.5t-9 -31.5t-15.5 -31t-25 -36t-33.5 -33.5q-98 -90 -235 -90q-82 0 -129.5 47t-53.5 110l-2 48v458q-235 115 -235 377zM299 911q0 -164 100.5 -252 t231.5 -88q72 0 117 41t59 92.5t14 110.5q0 166 -100 252t-232 86q-104 0 -147 -73t-43 -169z" />
<glyph unicode="&#x3da;" horiz-adv-x="1751" d="M154 659q0 229 90 420t241 275q104 57 248 57h144q35 0 65 -6q31 6 62 6h104q88 0 88 -92v-1227q0 -80 -72 -92q-8 -74 -88 -74h-319q-143 0 -256 67.5t-177.5 177.5t-97 234.5t-32.5 253.5zM444 651q0 -74 12.5 -145.5t41 -142t85 -114.5t132.5 -44h30q115 0 160 12v901 q-47 12 -164 12q-92 0 -135 -28q-86 -57 -124 -187.5t-38 -263.5z" />
<glyph unicode="&#x3db;" d="M123 653q0 94 54 163t139 102.5t167 49t160 15.5h315q20 0 30.5 -8t10.5 -37v-178q0 -27 -8 -43l-8 -8q-6 -2 -25 -2q-39 0 -211 45t-251 45q-90 0 -157 -34t-67 -114q0 -109 119 -108q61 0 209 29.5t209 29.5q41 0 41 -41v-188q0 -33 -9.5 -41t-31.5 -8h-18 q-74 0 -111 2q43 -293 43 -295q0 -29 -43 -29h-188q-45 0 -46 31q0 2 46 311q-369 53 -369 311z" />
<glyph unicode="&#x3dc;" horiz-adv-x="1251" d="M186 94v1225q0 25 2 40t23.5 35.5t64.5 20.5h785q94 0 94 -90v-33q0 -41 -18.5 -62.5t-32.5 -24.5t-37 -3l-590 6v-403h484q31 0 48 -3t35.5 -26.5t18.5 -70.5q0 -94 -92 -95h-494v-522q0 -88 -88 -88h-110q-93 0 -93 94z" />
<glyph unicode="&#x3dd;" d="M123 -352v833q0 160 67 264q125 193 383 193h408q20 0 30.5 -7t11.5 -15.5t1 -26.5v-189q0 -27 -11.5 -34t-37.5 -7h-408q-158 0 -166 -147h306q31 0 40 -8t9 -41v-182q0 -33 -9.5 -40.5t-39.5 -7.5h-306v-583q0 -18 -2 -26.5t-12 -15.5t-31 -7h-188q-29 0 -37 11t-8 36z " />
<glyph unicode="&#x3df;" horiz-adv-x="876" d="M123 393v770q0 45 45 45h154q43 -2 51 -18q4 -8 4 -25q0 -100 -42 -314t-48 -329q428 152 434 152q29 0 29 -43q0 -4 -1 -8.5t-1 -6.5v-757q0 -23 -7.5 -33t-35.5 -10h-156q-43 2 -51 18q-4 8 -4 25q0 100 43 319t47 324q-428 -152 -432 -152q-29 0 -29 43z" />
<glyph unicode="&#x3e0;" horiz-adv-x="1439" d="M10 74q0 16 15 59l278 891q0 8 1 11t-3 12.5t-6 13.5t-11.5 15t-16.5 20.5t-22.5 28t-27.5 34.5q-4 6 -11 14.5t-9 11.5t-6.5 9t-5.5 9t-4 9.5t-3 10.5t-1 13t-1 17.5v20.5v135q2 49 25.5 67.5t48.5 18.5q10 0 19.5 -3t14.5 -5t14 -11.5t12 -12.5t13.5 -16t12.5 -15 l997 -1278q41 -53 41 -80q0 -74 -90 -74h-113q-31 0 -48 9t-42 42l-266 342q-23 -70 -53 -172q-47 -156 -66.5 -188.5t-72.5 -32.5h-80q-90 0 -90 74q0 18 172 565l-123 158l-226 -719q0 -2 -3 -11.5t-4 -11.5l-5 -10t-7 -12t-8 -10.5t-11.5 -9.5t-14.5 -7t-18 -5t-23 -1 h-78q-94 0 -94 74z" />
<glyph unicode="&#x3e1;" horiz-adv-x="1626" d="M119 528q0 66 27.5 122.5t66.5 95t100.5 75.5t110.5 58.5t117.5 51.5t99.5 44q25 12 102 57q-256 188 -585 195q-27 2 -33 12t-6 33v155q0 18 1 25.5t9 17t27 9.5q285 -2 539.5 -121t436 -317.5t289 -468t109.5 -562.5q-2 -35 -43 -35h-197q-27 2 -34 18.5t-9 61.5 t-6 106.5t-33.5 173t-85.5 240.5q-84 -76 -125 -147.5t-41 -110t-7 -63.5t-38 -25h-188q-31 0 -41 8.5t-10 30.5q0 238 370 449q-72 104 -180 217q-57 -37 -155.5 -90t-146.5 -83t-95 -80t-62 -110q-2 -12 -4 -29.5t-3 -22.5t-4 -14t-7 -11l-11 -5.5t-20 -3.5h-184 q-31 0 -41 8t-10 35z" />
<glyph unicode="&#x400;" horiz-adv-x="1314" d="M186 98v1225q0 35 9.5 56.5t27 29.5t30.5 10t36 2h798q47 0 71 -18.5t27 -36.5t3 -57q0 -29 -4 -47.5t-26.5 -37t-63.5 -18.5q-23 0 -285 4t-332 4v-380h553q25 0 42.5 -4.5t34.5 -28t17 -66.5q0 -96 -98 -96h-549v-420l649 8q92 0 93 -98v-35q0 -43 -18.5 -68.5 t-80.5 -25.5h-835q-45 0 -67.5 17.5t-27 34.5t-4.5 46zM289 1774q0 27 47 26h276h10.5t9.5 -1t10 -4t10 -5t14.5 -8t17.5 -12.5t23.5 -18.5t30 -22.5t39 -29t46.5 -36.5q51 -39 61.5 -50t10.5 -22q0 -27 -43 -26h-88q-35 0 -84 22q-78 33 -188 80q-147 61 -175 76t-28 31z " />
<glyph unicode="&#x401;" horiz-adv-x="1314" d="M186 98v1225q0 35 9.5 56.5t27 29.5t30.5 10t36 2h798q47 0 71 -18.5t27 -36.5t3 -57q0 -29 -4 -47.5t-26.5 -37t-63.5 -18.5q-23 0 -285 4t-332 4v-380h553q25 0 42.5 -4.5t34.5 -28t17 -66.5q0 -96 -98 -96h-549v-420l649 8q92 0 93 -98v-35q0 -43 -18.5 -68.5 t-80.5 -25.5h-835q-45 0 -67.5 17.5t-27 34.5t-4.5 46zM322 1657v90q0 59 23.5 80.5t76.5 21.5q6 0 15 -1t14 -1h57q33 0 51.5 -4t36.5 -27.5t18 -68.5v-88q0 -53 -21.5 -78t-76.5 -25h-88q-33 0 -51.5 4.5t-36.5 28t-18 68.5zM760 1657v90q0 59 23.5 80.5t76.5 21.5 q6 0 14.5 -1t12.5 -1h59q23 0 37 -2t31.5 -11t27 -30.5t9.5 -56.5v-88q0 -53 -20.5 -78t-76.5 -25h-90q-23 0 -37 2.5t-31.5 11.5t-26.5 30.5t-9 56.5z" />
<glyph unicode="&#x402;" horiz-adv-x="1814" d="M80 1317v26.5t5 27t14.5 26.5t28.5 16t48 8h1145q57 0 77.5 -23.5t20.5 -76.5v-12q0 -66 -26.5 -82.5t-87.5 -16.5h-13q-25 0 -64.5 1t-114.5 2t-144 1h-74v-389q168 160 434 160q274 0 357 -127q47 -74 47 -250v-166q0 -231 -99.5 -359t-351.5 -128q-127 0 -231 35 q-45 14 -45 43q31 184 67 184q14 0 29.5 -18.5t32 -39t55.5 -39t94 -18.5q47 0 80 18.5t50.5 43t25.5 72t10 82t2 94.5v227q0 113 -49 155t-184 42q-53 0 -105.5 -14.5t-104 -45.5t-83 -93t-31.5 -146v-431q0 -33 -4 -52t-27.5 -36.5t-68.5 -17.5h-84q-70 0 -88.5 24.5 t-18.5 73.5v1116q-401 -8 -430 -8q-45 0 -67.5 21.5t-24.5 40t-2 49.5z" />
<glyph unicode="&#x403;" horiz-adv-x="1187" d="M186 96v1223q0 31 4.5 49t27 35.5t65.5 17.5h718q92 0 93 -96v-22q0 -96 -93 -97l-524 8v-1124q0 -90 -94 -90h-94q-31 0 -49.5 4t-36 26.5t-17.5 65.5zM385 1591q0 8 13.5 23.5t26.5 26t15 10.5q176 135 193 143q14 6 41 6h274q43 0 43 -26q0 -6 -2 -10.5t-8 -8.5 t-11 -8t-16.5 -9t-19.5 -8.5t-22.5 -9.5t-24.5 -10q-55 -25 -109.5 -47.5t-83 -35.5t-57.5 -25.5t-43 -17.5t-26.5 -10t-20.5 -6t-14.5 -2t-16.5 -1h-84q-47 -1 -47 26z" />
<glyph unicode="&#x404;" horiz-adv-x="1439" d="M123 713q0 756 754 755q188 0 368 -61q16 -6 22.5 -8t14.5 -8.5t10 -12.5t2 -18q0 -14 -30 -184q-8 -45 -29 -46q-14 0 -42 20.5t-61.5 45.5t-103.5 45.5t-156 20.5q-215 0 -327.5 -120t-126.5 -333h618q35 0 46.5 -9t11.5 -48v-80q0 -33 -9.5 -45.5t-46.5 -12.5h-620 q29 -455 465 -454q100 0 177 20.5t111.5 45t64.5 45t46 20.5q25 0 29 -68q4 -37 6 -65.5t3 -35.5t1 -13q0 -29 -35 -52q-106 -61 -192 -81.5t-220 -20.5q-751 0 -751 758z" />
<glyph unicode="&#x405;" horiz-adv-x="1251" d="M100 131q0 4 1 10t3 17.5t5.5 27t8.5 45t11 66.5q8 63 31 63q14 0 52 -28.5t85 -63.5t135 -63.5t189 -28.5q246 0 245 199q0 49 -25.5 91t-50 60.5t-49.5 30.5q-39 18 -142 36.5t-202.5 59.5t-171.5 123q-102 117 -102 266q0 82 21.5 151t72.5 134.5t155.5 103 t254.5 37.5q201 0 368 -82q23 -12 31 -16t14.5 -14t6.5 -25q0 -4 -29 -170q-12 -59 -33 -59q-12 0 -35 20q-82 76 -147 103q-80 31 -180 30q-242 0 -242 -172q0 -111 121 -161q35 -14 176 -45t219 -78q227 -141 227 -391q0 -88 -22.5 -163t-75.5 -143.5t-155.5 -107.5 t-245.5 -39q-131 0 -256 35t-187.5 68.5t-75.5 50.5q-6 12 -6 22z" />
<glyph unicode="&#x406;" horiz-adv-x="665" d="M186 98v1225q0 51 20.5 74.5t78.5 23.5h86q33 0 50 -3t36.5 -25.5t19.5 -67.5v-1227q0 -51 -20.5 -74.5t-77.5 -23.5h-88q-31 0 -49.5 4t-37 26.5t-18.5 67.5z" />
<glyph unicode="&#x407;" horiz-adv-x="665" d="M-31 1655v94q0 57 24.5 78.5t76.5 21.5q4 0 14 -1t14 -1h56q25 0 37 -2t31.5 -9t28.5 -28.5t9 -56.5v-96q0 -51 -21.5 -75t-76.5 -24h-88q-31 0 -49.5 4.5t-37 27t-18.5 67.5zM188 98v1225q0 51 20.5 74.5t78.5 23.5h86q33 0 50 -3t36.5 -25.5t19.5 -67.5v-1227 q0 -51 -20.5 -74.5t-77.5 -23.5h-86q-33 0 -51.5 4t-37 26.5t-18.5 67.5zM408 1655v94q0 57 24.5 78.5t75.5 21.5q4 0 14 -1t15 -1h55q25 0 37 -2t31.5 -9t28.5 -28.5t9 -56.5v-96q0 -55 -23.5 -77t-74.5 -22h-88q-31 0 -49.5 4.5t-36.5 27t-18 67.5z" />
<glyph unicode="&#x408;" horiz-adv-x="1062" d="M94 74q23 190 47 205q8 4 11 4q12 0 31.5 -19.5l42 -42t69.5 -42t106 -19.5q188 0 189 157v1006q0 20 2 31.5t9 30t28.5 27.5t54.5 9h88q31 0 49.5 -4t35.5 -27.5t17 -68.5v-1002q0 -104 -35.5 -178.5t-96 -112.5t-125 -55.5t-138.5 -17.5q-104 0 -229 31.5t-148 62.5 q-8 11 -8 25z" />
<glyph unicode="&#x409;" horiz-adv-x="2365" d="M41 53v78q0 37 13.5 46t47.5 9h45q43 0 72 5.5t71 40t70 100.5q55 123 76 348t21 620v13q0 57 19.5 82.5t78.5 25.5h797q59 0 81.5 -21.5t22.5 -80.5v-483h254q61 0 106.5 -3.5t114 -15.5t115.5 -39.5t94 -71.5t71.5 -119t24.5 -173q0 -264 -204 -363q-109 -51 -306 -51 h-462q-57 0 -78 23.5t-21 72.5v1121h-485q0 -180 -6 -315.5t-29.5 -300.5t-63.5 -277.5t-116 -200.5t-180 -113q-49 -10 -117 -10h-74q-29 0 -41 9t-12 44zM1456 176h197q45 0 72.5 2t77.5 14.5t80 35t54.5 69.5t24.5 115q0 229 -295 229h-211v-465z" />
<glyph unicode="&#x40a;" horiz-adv-x="2283" d="M186 98v1225q0 57 23.5 77.5t75.5 20.5h98q94 0 94 -94v-491h608v483q0 57 20.5 79.5t82.5 22.5h94q94 0 94 -94q0 -4 -1 -10t-1 -8v-473h275q106 0 189 -17.5t159 -60.5t118 -130t42 -214q0 -266 -209 -363q-115 -51 -316 -51h-450q-35 0 -56.5 9t-28.5 28.5t-9.5 32 t-2.5 34.5v537h-608v-547q0 -94 -96 -94h-96q-59 0 -79 24.5t-20 73.5zM1374 176h199q45 0 73.5 2t78 14.5t80 35t54 70.5t23.5 114q0 229 -293 229h-215v-465z" />
<glyph unicode="&#x40b;" horiz-adv-x="1720" d="M82 1315q0 33 4 52t27.5 36.5t66.5 17.5h1151q88 0 88 -96v-25q0 -90 -96 -90q-8 0 -90 1t-105 1q-33 0 -158.5 1t-135.5 1v-395q156 141 395 142q123 0 199.5 -25t110.5 -77t44 -103t10 -133v-531q0 -92 -102 -92h-80q-57 0 -77.5 24.5t-20.5 75.5v521q0 51 -3 76.5 t-20.5 57t-59.5 45t-114 13.5q-115 0 -188.5 -61.5t-89.5 -139.5q-4 -18 -4 -80v-426q0 -31 -2.5 -47t-25 -37.5t-67.5 -21.5h-100q-63 0 -79.5 27.5t-16.5 89.5v1095q-106 0 -217 -3t-127 -3q-76 0 -99 29q-18 21 -18 80z" />
<glyph unicode="&#x40c;" horiz-adv-x="1564" d="M186 102v1221q0 45 19.5 71.5t77.5 26.5h67q23 0 39.5 -3t34.5 -25.5t18 -65.5v-575l600 561q92 86 117 96q27 12 72 12h129q63 0 63 -41q0 -23 -53 -74t-512 -479v-2l555 -731q20 -29 21 -49q0 -45 -68 -45h-115q-39 0 -61.5 11.5t-52.5 49.5l-455 601 q-31 -29 -61.5 -58t-50 -47t-39 -36.5t-31 -29t-22.5 -21.5t-16 -17.5t-10.5 -12.5t-6.5 -11l-2 -10t-1 -11v-281q0 -4 1 -14.5t1 -14.5q0 -55 -23.5 -76.5t-70.5 -21.5h-65q-35 0 -57.5 9t-30 27.5t-9.5 30.5t-2 35zM602 1591q0 12 15.5 26.5t93.5 72.5q66 49 112 86 q35 25 68 24h276q43 0 43 -26q0 -6 -2 -10.5t-8 -8.5t-11 -8t-16.5 -9t-19.5 -8.5t-22.5 -9.5t-24.5 -10q-55 -25 -109.5 -47.5t-83 -35.5t-57.5 -25.5t-43 -17.5t-26.5 -10t-20.5 -6t-14.5 -2t-16.5 -1h-84q-49 -1 -49 26z" />
<glyph unicode="&#x40d;" horiz-adv-x="1564" d="M186 98v1221q0 31 3.5 48t26 35.5t65.5 18.5h67q27 0 44.5 -4t33.5 -27.5t16 -64.5v-1012q0 -10 1 -28.5t1 -28.5q14 72 191 399l256 453q20 37 50 90t42 73.5t31.5 53.5t31 42t26.5 25.5t30.5 19.5t35 6t46.5 3h94q45 0 68.5 -19.5t25.5 -35.5t2 -43v-1221q0 -31 -3 -48 t-26.5 -35.5t-70.5 -18.5h-62q-27 0 -44 4t-33.5 27.5t-16.5 64.5v1012q0 10 -1 28.5t-1 28.5q-18 -92 -190 -399l-256 -453q-23 -37 -51.5 -89t-41 -73.5t-31 -53t-29.5 -42t-26.5 -26t-31 -19.5t-34.5 -7t-46 -3h-94q-45 0 -68.5 18.5t-27 35.5t-3.5 44zM444 1774 q0 27 48 26h276h10t9.5 -1t10.5 -4t10 -5t14 -8t17.5 -12.5t24 -18.5t29.5 -22.5t38.5 -29t47.5 -36.5q51 -39 61.5 -50t10.5 -22q0 -27 -43 -26h-88q-35 0 -84 22q-78 33 -189 80q-147 61 -175 76t-28 31z" />
<glyph unicode="&#x40e;" horiz-adv-x="1501" d="M70 1372q0 49 71 49h105q80 0 127 -51q18 -20 220 -358t243 -426q0 127 58 261t147 277.5t118 214.5q20 49 47 65.5t74 16.5h82q76 0 76 -53q0 -8 -11 -39l-278 -649q-2 -4 -35 -82t-49 -113.5t-49 -102.5t-62.5 -117t-58.5 -89q-61 -80 -130 -122t-108 -48t-98 -6h-119 q-47 0 -57 11.5t-10 58.5v88q2 35 16 42t70 7h2q12 0 35.5 -1t35.5 -1h37q43 0 72 20.5t64 81.5l-615 1014q-20 33 -20 51zM377 1767q0 41 24.5 60.5t49.5 19.5q27 0 44 -14t27 -37l10 -22q25 -31 199 -31h60q68 0 110.5 3t63 11t27.5 12.5t13.5 20.5t8.5 20q23 37 63 37 q27 0 50.5 -21.5t23.5 -60.5q0 -84 -82 -148.5t-295 -66.5h-6q-205 0 -297 58q-94 59 -94 159z" />
<glyph unicode="&#x40f;" horiz-adv-x="1564" d="M186 100v1227q0 27 5.5 45.5t28 33.5t63.5 15h100q25 0 42 -4t34.5 -26.5t17.5 -65.5v-1108h606v1108q0 25 2 40t27 35.5t70 20.5h96q96 0 96 -94v-1229q0 -45 -18.5 -68.5t-35.5 -26.5t-48 -3h-375v-301q0 -98 -96 -98h-41q-43 0 -66.5 18.5t-26.5 35.5t-3 46v299h-375 q-23 0 -36 2t-30.5 11.5t-27 30.5t-9.5 56z" />
<glyph unicode="&#x410;" horiz-adv-x="1501" d="M86 57q0 12 8 37l434 1231q23 61 54.5 78.5t79.5 17.5h176q49 0 79.5 -20.5t39 -40t24.5 -64.5l424 -1204q6 -18 6 -35q0 -57 -74 -57h-100q-23 0 -38 1t-29.5 8t-22.5 12.5t-19.5 22.5t-17.5 28.5t-17.5 41t-18.5 51t-21.5 65.5t-26.5 79h-584q-14 -39 -30.5 -89 t-24.5 -71.5t-19.5 -53.5t-19.5 -42t-20.5 -24.5t-26.5 -18.5t-31.5 -7t-42.5 -3h-61q-80 0 -80 57zM504 485h461q-205 592 -230 680q-16 -61 -68.5 -212.5t-105.5 -302.5t-57 -165z" />
<glyph unicode="&#x411;" horiz-adv-x="1501" d="M186 102v1223q0 27 4.5 45.5t27 34.5t63.5 16h874q27 0 43 -3t34.5 -25.5t18.5 -65.5q0 -72 -24.5 -96.5t-73.5 -24.5q-27 0 -317.5 4t-368.5 4v-378h346q561 0 561 -422q0 -119 -45 -204t-124 -129t-167 -62.5t-194 -18.5h-565q-43 0 -64.5 19.5t-25 36.5t-3.5 46z M467 176h264q131 0 213 24.5t123 90.5q35 53 35 121q0 123 -103 182q-84 47 -262 47h-270v-465z" />
<glyph unicode="&#x412;" horiz-adv-x="1501" d="M186 98v1215q0 25 2 37t9.5 32.5t30 29.5t57.5 9h434q104 0 167.5 -4t162 -31.5t157.5 -82.5q106 -98 107 -250q0 -233 -293 -308q-8 -2 -10 -2q168 -20 266 -108t98 -240q0 -233 -198 -332q-129 -63 -392 -63h-505q-25 0 -41.5 4t-34 27.5t-17.5 66.5zM467 176h274 q236 0 314 92q47 55 47 135q0 45 -13.5 85t-49 83t-113.5 68t-191 25h-268v-488zM467 813h139q109 0 166 4t127 29.5t105 75.5q41 57 40 122q0 74 -58 130.5t-202 66.5q-70 4 -106 4h-211v-432z" />
<glyph unicode="&#x413;" horiz-adv-x="1187" d="M186 96v1223q0 31 4.5 49t27 35.5t65.5 17.5h718q92 0 93 -96v-22q0 -96 -93 -97l-524 8v-1124q0 -90 -94 -90h-94q-31 0 -49.5 4t-36 26.5t-17.5 65.5z" />
<glyph unicode="&#x414;" horiz-adv-x="1728" d="M80 137q0 41 15.5 60.5t62.5 19.5h18q31 0 48.5 11.5t51.5 58.5q111 154 147 394.5t36 598.5v45q0 25 2 40t26.5 35.5t69.5 20.5h805q55 0 75.5 -23.5t20.5 -70.5v-1110h107q45 0 63.5 -16.5t18.5 -63.5v-456q0 -49 -19.5 -64.5t-64.5 -15.5h-66q-74 0 -74 77v322h-1120 v-317q0 -25 -3 -39.5t-20.5 -28.5t-52.5 -14h-65q-47 0 -64.5 18.5t-17.5 65.5v452zM496 217h671v1000h-485q0 -227 -14.5 -395.5t-46 -284t-56 -176t-69.5 -144.5z" />
<glyph unicode="&#x415;" horiz-adv-x="1314" d="M186 98v1225q0 35 9.5 56.5t27 29.5t30.5 10t36 2h798q47 0 71 -18.5t27 -36.5t3 -57q0 -29 -4 -47.5t-26.5 -37t-63.5 -18.5q-23 0 -285 4t-332 4v-380h553q25 0 42.5 -4.5t34.5 -28t17 -66.5q0 -96 -98 -96h-549v-420l649 8q92 0 93 -98v-35q0 -43 -18.5 -68.5 t-80.5 -25.5h-835q-45 0 -67.5 17.5t-27 34.5t-4.5 46z" />
<glyph unicode="&#x416;" horiz-adv-x="2496" d="M125 45q0 20 27 55l550 727q-25 20 -69 66l-440 414q-4 4 -14.5 14t-16.5 15t-12.5 13.5t-9.5 15.5t-3 15q0 41 64 41h127q16 0 29.5 -2t22.5 -3t21.5 -6t17.5 -8t15 -11.5t13.5 -10.5t15.5 -13t14 -13l641 -602v563q0 25 1 35t9.5 31.5t30 30.5t55.5 9h62q27 0 43 -3 t35.5 -24.5t19.5 -64.5v-577l641 600q47 45 71.5 57t76.5 12h129q63 0 63 -41q0 -10 -6 -21t-13 -18.5t-19.5 -18.5t-16.5 -15l-438 -414q-35 -35 -72 -66l551 -727q27 -35 26 -55q0 -45 -69 -45h-115q-39 0 -61.5 11.5t-53.5 49.5l-452 601q-49 -45 -119 -111 q-88 -80 -105.5 -100.5t-17.5 -44.5v-306q0 -61 -25.5 -80.5t-78.5 -19.5h-53q-57 0 -78 23.5t-21 72.5v293v4q0 35 -14 53.5t-111 106.5q-68 63 -116 109l-453 -601q-31 -39 -53.5 -50t-61.5 -11h-114q-70 0 -70 45z" />
<glyph unicode="&#x417;" horiz-adv-x="1376" d="M117 184q0 16 78 146q16 27 32 26q12 0 37 -28q86 -117 170 -157t236 -40q338 0 338 268q0 63 -17.5 110.5t-52.5 75t-67.5 45t-80 23.5t-74 8.5t-65.5 2.5h-143q-43 0 -56.5 9t-13.5 46v35q0 39 9.5 49t54.5 10h90q125 0 200.5 20.5t118.5 81.5q39 59 39 144 q0 137 -65.5 184t-208.5 47q-111 0 -194 -34.5t-117.5 -75.5t-61.5 -76t-41 -35t-35 33q-12 23 -29.5 50.5t-24.5 39.5t-15 27.5t-11.5 24.5t-3.5 18q0 23 52 59q115 84 227.5 115.5t265.5 31.5q86 0 142.5 -4t137.5 -26.5t130 -62.5t85 -120.5t36 -193.5q0 -72 -30 -129.5 t-67 -89t-90 -55t-81.5 -31.5t-57.5 -13v-2q162 -23 275.5 -106.5t113.5 -241.5q0 -174 -115 -291q-145 -147 -495 -147q-166 0 -273.5 30.5t-238.5 143.5q-43 37 -43 55z" />
<glyph unicode="&#x418;" horiz-adv-x="1564" d="M186 98v1221q0 31 3.5 48t26 35.5t65.5 18.5h67q27 0 44.5 -4t33.5 -27.5t16 -64.5v-1012q0 -10 1 -28.5t1 -28.5q14 72 191 399l256 453q20 37 50 90t42 73.5t31.5 53.5t31 42t26.5 25.5t30.5 19.5t35 6t46.5 3h94q45 0 68.5 -19.5t25.5 -35.5t2 -43v-1221q0 -31 -3 -48 t-26.5 -35.5t-70.5 -18.5h-62q-27 0 -44 4t-33.5 27.5t-16.5 64.5v1012q0 10 -1 28.5t-1 28.5q-18 -92 -190 -399l-256 -453q-23 -37 -51.5 -89t-41 -73.5t-31 -53t-29.5 -42t-26.5 -26t-31 -19.5t-34.5 -7t-46 -3h-94q-45 0 -68.5 18.5t-27 35.5t-3.5 44z" />
<glyph unicode="&#x419;" horiz-adv-x="1564" d="M186 98v1221q0 31 3.5 48t26 35.5t65.5 18.5h67q27 0 44.5 -4t33.5 -27.5t16 -64.5v-1012q0 -10 1 -28.5t1 -28.5q14 72 191 399l256 453q20 37 50 90t42 73.5t31.5 53.5t31 42t26.5 25.5t30.5 19.5t35 6t46.5 3h94q45 0 68.5 -19.5t25.5 -35.5t2 -43v-1221q0 -31 -3 -48 t-26.5 -35.5t-70.5 -18.5h-62q-27 0 -44 4t-33.5 27.5t-16.5 64.5v1012q0 10 -1 28.5t-1 28.5q-18 -92 -190 -399l-256 -453q-23 -37 -51.5 -89t-41 -73.5t-31 -53t-29.5 -42t-26.5 -26t-31 -19.5t-34.5 -7t-46 -3h-94q-45 0 -68.5 18.5t-27 35.5t-3.5 44zM393 1767 q0 41 24.5 60.5t49.5 19.5q27 0 44 -14t28 -37l10 -22q25 -31 199 -31h61q68 0 110 3t63.5 12t28.5 13.5t13 20.5t8 20q23 35 62 35q27 0 50 -21.5t23 -60.5q0 -84 -83 -148.5t-291 -66.5h-9q-205 0 -297 60q-94 59 -94 157z" />
<glyph unicode="&#x41a;" horiz-adv-x="1564" d="M186 102v1221q0 45 19.5 71.5t77.5 26.5h67q23 0 39.5 -3t34.5 -25.5t18 -65.5v-575l600 561q92 86 117 96q27 12 72 12h129q63 0 63 -41q0 -23 -53 -74t-512 -479v-2l555 -731q20 -29 21 -49q0 -45 -68 -45h-115q-39 0 -61.5 11.5t-52.5 49.5l-455 601 q-31 -29 -61.5 -58t-50 -47t-39 -36.5t-31 -29t-22.5 -21.5t-16 -17.5t-10.5 -12.5t-6.5 -11l-2 -10t-1 -11v-281q0 -4 1 -14.5t1 -14.5q0 -55 -23.5 -76.5t-70.5 -21.5h-65q-35 0 -57.5 9t-30 27.5t-9.5 30.5t-2 35z" />
<glyph unicode="&#x41b;" horiz-adv-x="1646" d="M41 100q0 61 8 73.5t47 12.5h17h34q78 0 129.5 35t95.5 135.5t65.5 303t21.5 518.5q0 18 -1 57t-1 59v29q0 29 4 46t28.5 34.5t67.5 17.5h803q96 0 96 -98v-1227q0 -96 -94 -96h-105q-92 0 -92 94v1123h-485q0 -121 -2 -210t-11.5 -215t-24.5 -219.5t-45 -197t-71 -173 t-103.5 -122.5t-141.5 -72q-37 -8 -115 -8h-72q-37 0 -45 15t-8 85z" />
<glyph unicode="&#x41c;" horiz-adv-x="2002" d="M186 100v1227q0 49 20.5 71.5t78.5 22.5h159q86 0 123 -57q16 -27 209 -501t219 -560q23 78 402 1008q16 41 28.5 59.5t41 34.5t75.5 16h176q96 0 97 -96v-1225q0 -31 -3.5 -48t-26 -34.5t-65.5 -17.5h-67q-33 0 -53.5 11.5t-27.5 33t-8 31.5t-1 30v1002q0 10 -1 28.5 t-1 28.5q-20 -88 -398 -1009q-31 -74 -63.5 -92.5t-89.5 -18.5h-31q-27 0 -45.5 2t-34.5 14.5t-26.5 20.5t-23.5 36.5t-21.5 47t-28 67t-31.5 80.5l-213 525q-104 272 -117 327v-1069q0 -59 -25.5 -77.5t-74.5 -18.5h-57q-43 0 -65.5 18.5t-26 35.5t-3.5 46z" />
<glyph unicode="&#x41d;" horiz-adv-x="1564" d="M186 98v1225q0 57 23.5 77.5t75.5 20.5h98q94 0 94 -94v-491h606v491q0 94 95 94h98q57 0 77.5 -23.5t20.5 -74.5v-1225q0 -57 -23.5 -77.5t-74.5 -20.5h-96q-55 0 -76 24.5t-21 69.5v547h-606v-547q0 -94 -96 -94h-96q-59 0 -79 24.5t-20 73.5z" />
<glyph unicode="&#x41e;" horiz-adv-x="1626" d="M123 705q0 764 686 763q690 0 690 -770q0 -743 -688 -743t-688 750zM414 723q0 -387 149 -516q100 -86 250 -86q233 0 330 198q66 135 65 422q0 164 -27.5 285t-113.5 195q-96 86 -256 86q-172 0 -270 -99q-55 -55 -86 -147t-36 -159.5t-5 -166.5v-12z" />
<glyph unicode="&#x41f;" horiz-adv-x="1564" d="M186 94v1229q0 35 9.5 56.5t27 29.5t29.5 10t35 2h999q88 0 88 -102v-1219q0 -27 -3 -44t-26.5 -36.5t-68.5 -19.5h-94q-59 0 -79 25.5t-20 68.5v1123h-606v-1121q0 -16 -2 -27.5t-9 -30t-29.5 -28.5t-57.5 -10h-96q-57 0 -77 25.5t-20 68.5z" />
</font>
</defs>
</svg>
