<?xml version="1.0" standalone="no"?>
<!DOCTYPE svg PUBLIC "-//W3C//DTD SVG 1.1//EN" "http://www.w3.org/Graphics/SVG/1.1/DTD/svg11.dtd" >
<svg xmlns="http://www.w3.org/2000/svg" xmlns:xlink="http://www.w3.org/1999/xlink" version="1.1">
<metadata></metadata>
<defs>
<font id="cmu_serifbold" horiz-adv-x="1177" >
<font-face units-per-em="2048" ascent="1638" descent="-410" />
<missing-glyph horiz-adv-x="784" />
<glyph unicode="&#xfb00;" horiz-adv-x="1374" d="M63 813v98h152v195q0 94 51 161.5t137 101.5t175.5 49.5t187.5 15.5q74 0 128 -16.5t80.5 -32t35.5 -15.5q6 0 39.5 15.5t97 31t145.5 15.5q119 0 176.5 -55.5t57.5 -121.5q0 -55 -36 -91t-89 -36t-90 36t-37 91q0 53 47 101q-12 2 -35 2q-33 0 -62.5 -9.5t-66.5 -33 t-58.5 -77.5t-19.5 -132v-195h248v-98h-237v-715h178v-98q-145 6 -286.5 6t-256.5 -6v98h143v715h-432v-715h144v-98q-133 6 -265 6q-23 0 -243 -6v98h143v715h-152zM426 911h442v174q0 37 -24.5 69t-24.5 75q0 61 60 108q-70 20 -129 21q-133 0 -228.5 -56.5t-95.5 -191.5 v-199z" />
<glyph unicode="&#xfb01;" horiz-adv-x="1308" d="M63 813v98h152v197q0 92 52 159.5t139.5 101.5t178.5 49.5t189 15.5q145 0 226 -74t81 -164q0 -59 -37.5 -97t-97.5 -38q-57 0 -95 38t-38 95q0 82 90 127q-74 37 -149 37q-133 0 -230.5 -57.5t-97.5 -192.5v-197h299v9l365 10v-832h143v-98q-221 6 -244 6 q-133 0 -264 -6v98h143v650q0 39 -13 52t-46 13h-371v-715h142v-98q-221 6 -244 6q-131 0 -262 -6v98h141v715h-152z" />
<glyph unicode="&#xfb02;" horiz-adv-x="1308" d="M63 813v98h152v199q0 92 51 158.5t137 100.5t176.5 49.5t188.5 15.5q72 0 121 -11.5t61 -11.5q8 0 140 10v-1323h143v-98q-221 6 -244 6q-133 0 -264 -6v98h143v715h-430v-715h142v-98q-221 6 -244 6q-131 0 -262 -6v98h141v715h-152zM426 911h442v195q0 41 -24.5 72.5 t-24.5 74.5q0 47 39 97q-43 8 -104 8q-137 0 -232.5 -57.5t-95.5 -192.5v-197z" />
<glyph unicode="&#xfb03;" horiz-adv-x="1961" d="M63 813v98h152v197q0 92 51 159.5t138.5 101.5t176.5 49.5t185 15.5q145 0 244 -93h2q156 92 415 93q154 0 232 -76t78 -162q0 -61 -39 -98t-96.5 -37t-95.5 37t-38 96q0 92 91 127q-74 37 -150 37q-131 0 -230.5 -57.5t-99.5 -192.5v-197h301v9l365 10v-832h141v-98 q-221 6 -244 6q-131 0 -262 -6v98h142v650q0 41 -13.5 53t-46.5 12h-370v-715h141v-98q-221 6 -244 6q-129 0 -262 -6v98h141v715h-430v-715h142v-98q-221 6 -244 6q-131 0 -262 -6v98h141v715h-152zM426 911h442v131q0 27 -32.5 62t-32.5 88q0 92 90 129q-61 37 -145 37 q-57 0 -109.5 -11.5t-103 -37t-80 -76.5t-29.5 -123v-199z" />
<glyph unicode="&#xfb04;" horiz-adv-x="1961" d="M63 813v98h152v197q0 92 52 159.5t138.5 101.5t176.5 49.5t188 15.5q160 0 250 -84q2 0 19.5 9t25.5 12t28.5 11.5t36 12.5t41 11t50 11t55.5 8.5t66.5 6.5t74.5 2q74 0 126 -11.5t61 -11.5q16 0 141 10v-1323h141v-98q-221 6 -244 6q-131 0 -262 -6v98h142v715h-430 v-715h141v-98q-221 6 -244 6q-129 0 -262 -6v98h141v715h-430v-715h142v-98q-221 6 -244 6q-131 0 -262 -6v98h141v715h-152zM426 911h442v174q0 37 -24.5 69t-24.5 75q0 61 62 108q-70 20 -129 21q-61 0 -114.5 -11.5t-103 -38t-79 -76.5t-29.5 -122v-199zM1079 911h443 v195q0 41 -24.5 72.5t-24.5 74.5q0 47 38 97q-43 8 -104 8q-137 0 -232.5 -57.5t-95.5 -192.5v-197z" />
<glyph horiz-adv-x="0" />
<glyph unicode="&#xd;" horiz-adv-x="681" />
<glyph unicode=" "  horiz-adv-x="784" />
<glyph unicode="&#x09;" horiz-adv-x="784" />
<glyph unicode="&#xa0;" horiz-adv-x="784" />
<glyph unicode="!" horiz-adv-x="716" d="M197 160q0 61 46 109t113 48q63 0 111.5 -46t48.5 -113q0 -61 -46 -109.5t-114 -48.5q-70 0 -114.5 48.5t-44.5 111.5zM197 1298q0 66 50 106t109 40q61 0 111.5 -41t50.5 -107q0 -23 -8 -67l-98 -705q-4 -39 -13.5 -51t-42.5 -12q-18 0 -27.5 3t-15.5 17.5t-7 21.5 t-5 40l-96 684q-8 44 -8 71z" />
<glyph unicode="&#x22;" d="M260 1331q0 55 39 89t92 34q55 0 92 -35t37 -88l-92 -596h-76l-84 527q-8 44 -8 69zM655 1331q0 55 37 89t92.5 34t93 -34t37.5 -89q0 -25 -8 -69l-84 -527h-75q-93 571 -93 596z" />
<glyph unicode="#" horiz-adv-x="1961" d="M131 283q0 39 57 39h416l119 380h-530q-61 0 -61.5 37t65.5 37h553q20 70 180 576q0 2 3 10t4 12t3 11.5t5 10.5t6 8t7.5 8t9.5 5t11 2q16 0 26.5 -15t8.5 -32l-187 -596h473q12 45 181 576q20 68 51 67q16 0 25.5 -15t7.5 -32l-187 -596h385q63 0 63.5 -37t-61.5 -37 h-411l-119 -380h530q61 0 62 -37q0 -39 -64 -39h-553q-6 -25 -180 -574q-20 -68 -51 -67q-37 0 -33 45l187 596h-476q-6 -25 -180 -574q0 -2 -3 -10t-4 -12t-3 -11.5t-5 -10.5t-6 -8t-7.5 -8t-9.5 -5t-11 -2q-35 0 -35 39q0 16 13 49l174 553h-383q-66 0 -66 37zM682 322 h475l119 380h-473z" />
<glyph unicode="$" d="M129 379q0 72 41 104.5t86 32.5q55 0 92 -38t37 -91q0 -45 -29.5 -84t-103.5 -43q49 -92 121.5 -127t165.5 -45v512q-156 33 -238 92q-66 47 -111 117q-61 96 -61 209q0 164 105.5 280.5t304.5 133.5v104h98v-104q113 -6 197 -42t127 -91.5t63 -113t20 -116.5 q0 -72 -40.5 -103.5t-85.5 -31.5q-53 0 -91.5 35t-38.5 92q0 43 29 83t101 46q-80 127 -281 143v-456q131 -25 221 -86.5t126 -137t48 -127t12 -96.5q0 -43 -7 -89t-32.5 -106.5t-67.5 -108.5t-120 -87t-180 -49v-103h-98v103q-121 8 -208 52t-128 107.5t-57.5 120 t-16.5 109.5zM295 1118q0 -23 7 -47t28.5 -60t76 -67t132.5 -45v434q-113 -14 -178.5 -68.5t-65.5 -146.5zM637 90q76 10 128 40t74.5 70t31 70.5t8.5 61.5q0 25 -7.5 52.5t-29 69.5t-74.5 75.5t-131 50.5v-490z" />
<glyph unicode="%" horiz-adv-x="1961" d="M131 1124q0 201 104.5 306.5t247.5 105.5q86 0 160 -53q223 -164 463 -164q252 0 403 178q31 39 62 39q23 0 42 -17.5t19 -45.5q0 -20 -22 -50l-1166 -1505q-23 -33 -53 -33q-27 0 -45 18.5t-18 45.5q0 29 22 51l998 1290q-113 -45 -240 -45q-170 0 -354 84 q31 -96 30 -207q0 -205 -88 -308t-213 -103q-141 0 -246.5 103t-105.5 310zM342 1122q0 -53 1 -84.5t8 -87t21.5 -86t44 -55.5t70.5 -25q76 0 138.5 80t62.5 260q0 174 -61.5 256t-139.5 82q-41 0 -70.5 -24.5t-44 -55t-21.5 -86t-8 -87.5t-1 -87zM1176 299q0 201 104 306.5 t248 105.5q123 0 212 -102.5t89 -311.5q0 -205 -88 -308.5t-213 -103.5q-141 0 -246.5 103.5t-105.5 310.5zM1386 297q0 -53 1.5 -85t8.5 -87t21.5 -86t44 -55.5t70.5 -24.5q76 0 138.5 80t62.5 260q0 174 -61.5 256t-139.5 82q-41 0 -70.5 -24.5t-44 -55.5t-21.5 -86 t-8.5 -87t-1.5 -87z" />
<glyph unicode="&#x26;" horiz-adv-x="1830" d="M98 283q0 88 64 163q14 14 127 113l151 129q-88 203 -88 393q0 166 114 264.5t255 98.5q109 0 167 -86t58 -182.5t-112 -225.5q-86 -94 -179 -174q98 -209 363 -487q182 174 391 504q-49 20 -149 20v96q84 -6 249 -6q104 0 203 6v-96q-68 0 -98.5 -1t-61 -10t-45.5 -30 l-168 -244q-96 -139 -256 -303q158 -152 291 -151q23 0 52.5 5t71.5 20.5t71.5 52t32.5 90.5h96q-4 -123 -102.5 -194t-231.5 -71q-207 0 -432 129q-197 -129 -408 -129q-176 0 -301 84.5t-125 221.5zM360 356q0 -33 6.5 -70.5t24 -91t58 -87t100.5 -33.5q162 0 301 90 q-227 172 -377 454q-113 -80 -113 -262zM565 1157q0 -164 60 -307q225 203 225 326q0 66 -31 130t-96 64q-53 0 -105.5 -50t-52.5 -163z" />
<glyph unicode="'" horiz-adv-x="653" d="M195 1331q0 57 37.5 90t93.5 33q53 0 91 -34t38 -89q0 -10 -3 -30.5t-3 -22.5l-87 -543h-75l-82 522q-10 62 -10 74z" />
<glyph unicode="(" horiz-adv-x="915" d="M221 514q0 547 367 911q117 111 157 111q37 0 37 -29q0 -10 -32 -43q-330 -332 -330 -952q0 -295 78 -530q86 -264 278 -443l2 -6q4 -8 4 -14q0 -29 -37 -29q-23 0 -79 42t-138 132t-143 199q-164 289 -164 651z" />
<glyph unicode=")" horiz-adv-x="915" d="M131 -481q0 10 33 43q330 332 330 952q0 612 -328 946q-35 33 -35 47q0 29 37 29q23 0 79 -42t138 -132t143 -199q164 -289 164 -651q0 -547 -366 -911q-117 -111 -158 -111q-37 0 -37 29z" />
<glyph unicode="*" d="M152 901q0 59 61 80l289 100l-289 101q-61 20 -61 80q0 43 28.5 70.5t61.5 27.5q25 0 55 -23l252 -190l-45 262q-6 33 -6 47q0 39 28.5 59.5t61.5 20.5t61.5 -19.5t28.5 -60.5q0 -14 -6 -47l-45 -262l252 190q31 23 55 23q33 0 61.5 -27.5t28.5 -70.5q0 -59 -61 -80 l-289 -101l289 -100q61 -20 61 -80q0 -43 -28.5 -70.5t-61.5 -27.5q-27 0 -55 22l-250 189l26 -158q23 -141 23 -149q0 -39 -28.5 -59.5t-61.5 -20.5t-61.5 19.5t-28.5 60.5q0 14 6 47l45 262l-252 -191q-31 -23 -55 -22q-33 0 -61.5 27.5t-28.5 70.5z" />
<glyph unicode="+" horiz-adv-x="1830" d="M131 512q0 37 68 37h678v682q0 63 36 63q39 0 39 -65q0 -4 -1 -11.5t-1 -9.5v-659h678q68 0 68 -37q0 -39 -64 -39q-6 0 -13 1t-9 1h-660v-659q0 -2 1 -9.5t1 -11.5q0 -66 -39 -65q-37 0 -36 65v680h-676q-70 0 -70 37z" />
<glyph unicode="," horiz-adv-x="653" d="M166 160q0 68 44 113.5t114 45.5q86 0 137 -73.5t51 -182.5q0 -80 -22.5 -156.5t-55.5 -128.5t-68.5 -94t-62.5 -61.5t-37 -19.5q-12 0 -25.5 13t-13.5 28q0 12 19 28q176 152 192 369q-41 -41 -112 -41q-74 0 -117 47t-43 113z" />
<glyph unicode="-" horiz-adv-x="784" d="M25 356v199h626v-199h-626z" />
<glyph unicode="." horiz-adv-x="653" d="M166 160q0 70 49 114.5t111 44.5q63 0 111 -46t48 -113q0 -61 -46 -110.5t-113 -49.5q-63 0 -111.5 46t-48.5 114z" />
<glyph unicode="/" d="M131 -473q0 8 25 70l802 1880q0 2 4.5 10t6.5 12t6 11.5t8 11.5t10 7t15 3q14 0 24 -10.5t10 -24.5q0 -8 -16 -51l-809 -1899q-25 -57 -51 -57q-14 0 -24.5 11.5t-10.5 25.5z" />
<glyph unicode="0" d="M92 653.5q0 61.5 1 102.5t11.5 119.5t28 134t54 123t87 109.5t131 70.5t183 28.5t183.5 -29.5t131 -70.5t87 -109.5t54.5 -123t27.5 -133t11 -119.5t1 -102.5t-1 -103.5t-11 -119t-27.5 -131t-54.5 -119.5t-88 -106.5t-132 -69t-181 -28q-102 0 -183 29t-131.5 69 t-87 106.5t-54 119.5t-28 131t-11.5 119t-1 102.5zM354 678q0 -326 19 -432q18 -100 82.5 -147.5t132.5 -47.5q41 0 80 13.5t83 65.5t56 140q14 106 14 408q0 385 -35 461q-27 63 -82 96t-116 33q-37 0 -75 -10.5t-85 -60.5t-57 -132q-17 -106 -17 -387z" />
<glyph unicode="1" d="M174 1114v96h41q254 0 412 117q18 14 45 14q37 0 45 -13t8 -52v-1180h287v-96q-90 6 -407.5 6t-407.5 -6v96h284v1059q-127 -41 -266 -41h-41z" />
<glyph unicode="2" d="M117 0v37q0 33 4 42t22 27l412 420q221 225 221 426q0 123 -71.5 208t-198.5 85q-125 0 -211 -71q23 -6 45 -17.5t47 -46.5t25 -84q0 -72 -46.5 -109.5t-101.5 -37.5q-51 0 -99 35.5t-48 115.5q0 137 126 224t314 87q219 0 360.5 -106.5t141.5 -280.5q0 -72 -20.5 -127 t-78 -115.5t-106.5 -99.5t-160 -120q-96 -70 -295 -236h301q186 0 209 12q27 14 54 187h96l-64 -455h-878z" />
<glyph unicode="3" d="M98 285q0 76 45 117.5t113 41.5t112 -43t44 -112q0 -121 -119 -154q111 -70 258 -69q61 0 104 24.5t63.5 54t32 78.5t12.5 77t1 71q0 45 -1 72.5t-13.5 77.5t-34 79t-66.5 52.5t-108 23.5h-90q-23 0 -32 1t-17.5 9t-8.5 27q0 33 25 35q23 4 98 8q51 2 90 23.5t60.5 56 t36 67.5t20.5 72t7 56.5t1 31.5q0 199 -176 199q-133 0 -225 -74q119 -29 119 -144q0 -59 -39 -100t-105 -41q-59 0 -100 40t-41 104q0 125 111.5 209.5t291.5 84.5q209 0 327 -80.5t118 -203.5t-86 -211t-205 -125q104 -23 179 -65t111 -94t51 -98t15 -95q0 -158 -130 -275 t-386 -117q-201 0 -332 85.5t-131 222.5z" />
<glyph unicode="4" d="M66 319v97l714 895q18 23 28.5 27.5t41.5 4.5q41 0 51 -11t10 -54v-862h199v-97h-199v-223h199v-96q-72 6 -332 6q-274 0 -352 -6v96h229v223h-589zM172 416h506v635z" />
<glyph unicode="5" d="M117 326q0 57 29.5 92t57 43t50.5 8q49 0 93 -34t44 -105q0 -61 -38 -97t-95 -40q94 -127 264 -127q51 0 91 12t66 30.5t43 50t26.5 57.5t13.5 69t5 67.5t1 67.5q0 66 -1 100.5t-10 89t-27.5 82t-54.5 50t-89 22.5q-178 0 -275 -115q-20 -25 -45 -24q-20 0 -30.5 9 t-12.5 20.5t-2 33.5v598q0 20 1 29.5t7.5 17.5t20.5 8q2 0 26 -8q166 -57 318 -57q164 0 313 57q23 8 31 8q29 0 29 -36q0 -23 -36 -67t-95.5 -93t-155.5 -86t-201 -37q-70 0 -149 14v-270q104 72 264 72q219 0 342 -121t123 -305q0 -190 -143.5 -312.5t-385.5 -122.5 q-182 0 -297.5 106t-115.5 243z" />
<glyph unicode="6" d="M98 649q0 184 56.5 324.5t148.5 217.5t196.5 113.5t215.5 36.5q152 0 227.5 -74.5t75.5 -181.5q0 -59 -35 -95t-94 -36q-57 0 -92 37t-35 90q0 49 28.5 84t81.5 43q-53 53 -153 54q-92 0 -169 -48.5t-116 -121.5q-57 -123 -57 -353v-39q86 156 246 156 q195 0 324.5 -114.5t129.5 -321.5q0 -203 -133 -323t-348 -120q-268 0 -395 205q-103 172 -103 467zM381 430q0 -186 33 -252q57 -113 178 -112q59 0 100 19t61.5 45t31 81t12.5 94t2 119t-1 118t-11.5 94t-30 81.5t-57 45t-95.5 19.5q-94 0 -158.5 -87t-64.5 -265z" />
<glyph unicode="7" d="M131 864l72 520h96q2 -14 5 -20t13.5 -14.5t30.5 -12.5q18 -6 173 -12t204 -6h418q0 -55 -3 -68.5t-18 -29.5l-317 -369q-104 -121 -133 -342q-20 -137 -21 -293v-94q0 -61 -27.5 -97t-52 -42.5t-49.5 -6.5q-8 0 -18 1.5t-31.5 8.5t-37 21.5t-28 43t-12.5 69.5 q0 408 344 809l113 133h-346q-201 0 -223 -12q-33 -16 -56 -187h-96z" />
<glyph unicode="8" d="M98 330q0 229 262 344q-197 111 -196 309q0 156 111.5 257t316.5 101q186 0 303 -75.5t117 -225.5q0 -176 -207 -282q55 -33 88 -54.5t83 -68.5t75.5 -110.5t25.5 -141.5q0 -178 -129 -292t-364 -114q-213 0 -349.5 88.5t-136.5 264.5zM274 330q0 -121 84 -192.5 t234 -71.5q72 0 134 13t118.5 62t56.5 129q0 47 -25.5 84t-53 56.5t-87.5 52.5q-229 129 -280 155q-181 -102 -181 -288zM317 1104q0 -72 91 -123l307 -172q143 94 143 229q0 104 -72.5 164t-201.5 60q-41 0 -78 -5.5t-84 -19.5t-76 -48t-29 -85z" />
<glyph unicode="9" d="M98 901q0 203 136.5 321.5t357.5 118.5q100 0 180 -30.5t129 -75.5t85 -114.5t53.5 -125t26.5 -130t10 -109.5t1 -82q0 -188 -53 -328.5t-142 -217.5t-187.5 -114t-205.5 -37q-162 0 -246.5 73t-84.5 183q0 59 34.5 95.5t94.5 36.5q57 0 92 -37t35 -90q0 -41 -21.5 -72 t-41 -41t-38.5 -14q68 -45 172 -45q96 0 165 51t100 121q49 111 49 340v45q-86 -158 -246 -158q-197 0 -326 115.5t-129 320.5zM377 897q0 -80 1 -118t11 -94t29.5 -81.5t57.5 -45t95 -19.5q80 0 134.5 60t73 132t18.5 146q0 188 -25 256q-8 23 -21.5 45t-56.5 53t-98 31 q-63 0 -106.5 -20.5t-66 -47.5t-32.5 -84t-12 -96t-2 -117z" />
<glyph unicode=":" horiz-adv-x="653" d="M166 159.5q0 65.5 46 112.5t114 47q66 0 113 -47t47 -112.5t-47.5 -112.5t-112.5 -47q-68 0 -114 47t-46 112.5zM166 749.5q0 65.5 46 112.5t114 47q66 0 113 -47t47 -112.5t-47.5 -112.5t-112.5 -47q-68 0 -114 47t-46 112.5z" />
<glyph unicode=";" horiz-adv-x="653" d="M166 160q0 68 44 113.5t114 45.5q86 0 137 -73.5t51 -182.5q0 -80 -22.5 -156.5t-55.5 -128.5t-68.5 -94t-62.5 -61.5t-37 -19.5q-12 0 -25.5 13t-13.5 28q0 12 19 28q176 152 192 369q-41 -41 -112 -41q-74 0 -117 47t-43 113zM166 752q0 70 49 114.5t111 44.5 q63 0 111 -46t48 -113q0 -61 -46 -110.5t-113 -49.5q-63 0 -111.5 46t-48.5 114z" />
<glyph unicode="&#x3c;" horiz-adv-x="1830" d="M197 512q0 25 45 45l1308 602q25 12 43 12q14 0 24.5 -10t10.5 -24q0 -29 -41 -45l-1265 -580q18 -8 174 -80l1091 -502q41 -16 41 -45q0 -14 -10 -24.5t-24.5 -10.5t-43.5 15l-1308 600q-45 20 -45 47z" />
<glyph unicode="=" horiz-adv-x="1830" d="M131 285q0 37 59 37h1452q53 -2 54 -37q0 -39 -51 -39h-1457q-57 0 -57 39zM131 739q0 37 59 37h1452q53 0 54 -35q0 -39 -51 -39h-1457q-57 0 -57 37z" />
<glyph unicode="&#x3e;" horiz-adv-x="1830" d="M199 -115q0 27 41 45l1265 582q-35 14 -98.5 44t-77.5 36l-1089 500q-41 16 -41 45q0 14 10 24t24 10q18 0 43 -12l1309 -602q43 -18 43 -45t-43 -45l-1309 -602q-29 -14 -43 -14.5t-24 10t-10 24.5z" />
<glyph unicode="?" horiz-adv-x="1112" d="M131 1174q0 109 103.5 184.5t304.5 75.5q27 0 49 -1t70.5 -6.5t86 -14.5t83.5 -28.5t77 -46t52.5 -70.5t21.5 -98q0 -59 -29.5 -107t-52.5 -64.5t-57 -36.5q-268 -156 -269 -381v-56q0 -41 -7 -51t-42 -10q-25 0 -34 5t-11 14.5t-2 35.5v78q0 231 184 424 q33 33 45.5 65.5t12.5 98.5q0 47 -4 70.5t-20.5 52t-57.5 41t-109 12.5q-145 0 -231 -64l4 -2q2 0 7 -2t11.5 -5t12.5 -7t13 -10t13 -13.5t11.5 -16.5t10.5 -19.5t7 -22.5t2 -27q0 -59 -38 -94t-91 -35q-47 0 -87 32t-40 100zM362 159.5q0 65.5 46.5 112.5t113.5 47 q66 0 113 -47t47 -112.5t-47 -112.5t-113 -47q-68 0 -114 47t-46 112.5z" />
<glyph unicode="@" horiz-adv-x="1830" d="M131 711q0 315 209 519t575 204q358 0 570.5 -199t212.5 -528q0 -63 -8.5 -124t-32 -142t-81.5 -130t-144 -49q-186 0 -256 92q-109 -92 -265 -92q-211 0 -339 124t-128 325q0 203 129 325.5t338 122.5q113 0 199 -48t133 -124h80q45 0 53 -8t8 -51v-471q0 -121 68 -121 q150 0 150 360q0 324 -195 494t-494 170q-317 0 -501.5 -179.5t-184.5 -469.5q0 -279 178.5 -464.5t516.5 -185.5q301 0 600 115q33 14 69 14h49q57 0 58 -28q0 -6 -2 -15l-4 -6q-43 -23 -130 -52.5t-272.5 -65t-365.5 -35.5q-199 0 -353.5 59t-249 161.5t-142.5 230 t-48 272.5zM678 711q0 -184 69.5 -279.5t170.5 -95.5q150 0 233 119v512q-86 119 -233 118q-100 0 -170 -94t-70 -280z" />
<glyph unicode="A" horiz-adv-x="1779" d="M84 0v96h43q106 0 135 10.5t39 36.5l508 1233q8 23 14 32t21.5 15.5t44.5 6.5q23 0 33 -2.5t24.5 -14.5t24.5 -37l524 -1280h199v-96q-72 6 -334 6q-283 0 -361 -6v96h195l-123 299h-549l-102 -248q-8 -8 -8 -24q0 -27 182 -27v-96q-76 6 -270 6q-7 0 -240 -6zM563 492 h467l-233 569z" />
<glyph unicode="B" horiz-adv-x="1675" d="M80 0v96h221v1213h-221v96h889q238 0 373 -101.5t135 -250.5q0 -119 -94.5 -205t-260.5 -115q184 -14 302 -110.5t118 -241.5q0 -160 -134 -270.5t-378 -110.5h-950zM569 96h377q70 0 124 18.5t84 51.5t49.5 63.5t26.5 68.5t9 54.5t2 30.5q0 137 -67 223q-70 88 -207 88 h-398v-598zM569 768h320q143 0 220 80t77 205q0 41 -10.5 81t-34 81.5t-74.5 67.5t-125 26h-373v-541z" />
<glyph unicode="C" horiz-adv-x="1699" d="M131 702.5q0 319.5 223.5 522t599.5 202.5q231 0 404 -139l135 121q20 18 39 18q25 0 31 -11t6 -46v-440q0 -41 -8.5 -49.5t-47.5 -8.5q-35 0 -43 6.5t-12 36.5q-33 190 -162 303t-299 113q-262 0 -417 -157q-135 -141 -136 -472q0 -307 121 -454q147 -174 439 -174 q174 0 316 104.5t153 294.5q2 25 12 30t35 5q29 0 39 -7t10 -36q0 -188 -171 -338t-444 -150q-377 0 -600 203t-223 522.5z" />
<glyph unicode="D" horiz-adv-x="1804" d="M80 0v96h221v1213h-221v96h881q311 0 511.5 -192.5t200.5 -522.5q0 -322 -199.5 -506t-510.5 -184h-883zM580 96h299q283 0 403 172q49 70 69.5 164t20.5 260q0 305 -88 434q-127 182 -405 183h-299v-1213z" />
<glyph unicode="E" horiz-adv-x="1546" d="M80 0v96h221v1200h-221v97h1272l63 -494h-96q-10 84 -23.5 138.5t-42 107.5t-71.5 84t-113 49t-166 18h-311v-526h113q137 0 177 55.5t40 184.5h96v-576h-96q0 129 -40 184.5t-177 55.5h-113v-578h311q92 0 163 13.5t120 45t83 67.5t56.5 94.5t34.5 111.5t24 133h97 l-95 -561h-1306z" />
<glyph unicode="F" horiz-adv-x="1480" d="M80 0v96h221v1200h-221v97h1239l63 -494h-96q-10 82 -22.5 134t-39 107.5t-68.5 86t-111.5 50t-165.5 19.5h-287v-551h102q137 0 176 55.5t39 184.5h97v-575h-97q0 129 -39 184t-176 55h-102v-553h276v-96q-90 6 -413 6q-297 0 -375 -6z" />
<glyph unicode="G" horiz-adv-x="1851" d="M131 702q0 322 224.5 523.5t596.5 201.5q227 0 404 -139l135 121q20 18 39 18q25 0 31 -11t6 -46v-440q0 -41 -8.5 -49.5t-47.5 -8.5q-35 0 -43 6.5t-12 36.5q-33 190 -162 303t-297 113q-143 0 -257.5 -49t-178.5 -129q-117 -154 -117 -448q0 -297 115 -445 q72 -92 193.5 -139t259.5 -47q111 0 184 43q80 47 80 145v207h-295v96q111 -6 420 -6q258 0 330 6v-96h-164v-412q0 -57 -29 -57q-14 0 -86 36t-115 73q-106 -131 -381 -132q-385 0 -605 205t-220 520z" />
<glyph unicode="H" horiz-adv-x="1843" d="M80 0v96h221v1213h-221v96q78 -6 366.5 -6t366.5 6v-96h-221v-531h657v531h-221v96q78 -6 366.5 -6t366.5 6v-96h-221v-1213h221v-96q-78 6 -366.5 6t-366.5 -6v96h221v586h-657v-586h221v-96q-78 6 -366.5 6t-366.5 -6z" />
<glyph unicode="I" horiz-adv-x="892" d="M68 0v96h233v1213h-233v96q84 -6 378.5 -6t378.5 6v-96h-233v-1213h233v-96q-84 6 -378.5 6t-378.5 -6z" />
<glyph unicode="J" horiz-adv-x="1216" d="M47 233q0 76 47 117t111 41q59 0 107 -41t48 -117q0 -49 -23.5 -85.5t-45.5 -49.5l-25 -12q78 -35 166 -35q70 0 116 32t62.5 84t20.5 79.5t4 58.5v1004h-289v96q98 -6 408 -6q254 0 325 6v-96h-166v-1002q0 -156 -130 -243t-341 -87q-176 0 -285.5 69.5t-109.5 186.5z " />
<glyph unicode="K" horiz-adv-x="1845" d="M80 0v96h221v1213h-221v96q78 -6 366.5 -6t366.5 6v-96h-221v-656l758 633q-8 2 -9 4q0 4 -18 8q-51 10 -119 11v96q74 -6 299 -6q127 0 209 6v-96h-35q-147 0 -192 -37l-492 -410l553 -725q20 -27 41 -34t99 -7h59v-96q-76 6 -299 6q-276 0 -361 -6v96q113 0 150 17 q-10 23 -16 28l-422 555l-205 -170v-430h221v-96q-78 6 -366.5 6t-366.5 -6z" />
<glyph unicode="L" horiz-adv-x="1415" d="M80 0v96h221v1213h-221v96q78 -6 375 -6q324 0 413 6v-96h-276v-1213h211q76 0 138.5 19.5t102 47t72.5 74t49.5 81t29.5 90t16 82t10 71.5h96l-64 -561h-1173z" />
<glyph unicode="M" horiz-adv-x="2234" d="M82 0v96h51q61 0 111 6q43 4 51 11.5t8 42.5v1153h-221v96h455q27 0 39 -2t26 -13.5t25 -35.5l491 -1084l492 1084q16 35 33.5 43t56.5 8h452v-96h-221v-1213h221v-96q-74 6 -350 6q-274 0 -348 -6v96h221v1213h-2l-571 -1260q-23 -49 -66 -49t-65 51l-557 1231h-2v-1126 q0 -35 8 -42.5t53 -11.5q55 -6 109 -6h51v-96q-84 6 -277 6q-196 0 -274 -6z" />
<glyph unicode="N" horiz-adv-x="1843" d="M80 0v96h51q61 0 111 6q43 4 51 11.5t8 42.5v1153h-221v96h469q31 0 41 -4t26 -23l816 -958v829q0 35 -8.5 42t-53.5 12q-55 6 -108 6h-52v96q84 -6 277 -6q197 0 274 6v-96h-51q-61 0 -111 -6q-43 -4 -51 -11.5t-8 -42.5v-1183q0 -41 -8 -53.5t-47 -12.5q-25 0 -32 4 t-23 23l-1020 1200v-1071q0 -35 8 -42.5t53 -11.5q55 -6 109 -6h51v-96q-84 6 -277 6q-196 0 -274 -6z" />
<glyph unicode="O" horiz-adv-x="1767" d="M131 694q0 328 204 530.5t550 202.5q340 0 545.5 -200.5t205.5 -532.5q0 -319 -202.5 -518t-550.5 -199q-344 0 -548 197.5t-204 519.5zM444 725q0 -291 84 -449q59 -109 156.5 -161t198.5 -52q225 0 346 195q94 156 94 467q0 283 -86 428q-59 96 -154.5 144.5 t-199.5 48.5q-98 0 -190.5 -44.5t-151.5 -132.5q-97 -149 -97 -444z" />
<glyph unicode="P" horiz-adv-x="1609" d="M80 0v96h221v1213h-221v96h854q250 0 396.5 -112.5t146.5 -287t-150.5 -281t-372.5 -106.5h-362v-522h221v-96q-78 6 -366.5 6t-366.5 -6zM580 702h274q63 0 113.5 10.5t83 24t55 40t34 48t16.5 58.5t6 59.5t1 63.5q0 49 -2 74.5t-9 67.5t-26.5 65.5t-52.5 48t-88 36 t-129 11.5h-276v-607z" />
<glyph unicode="Q" horiz-adv-x="1767" d="M131 694q0 328 204 530.5t550 202.5q340 0 545.5 -200.5t205.5 -532.5q0 -92 -20.5 -180t-64.5 -181t-131 -171t-208 -125q29 -43 55.5 -69.5t52.5 -37t41 -12.5t40 -2q162 0 174 80q6 41 37 41q37 0 37 -53q0 -80 -25 -162t-92.5 -150.5t-163.5 -68.5q-55 0 -98 21.5 t-68.5 48t-50.5 87t-37 104.5t-35 132q-92 -18 -194 -19q-350 0 -552 199t-202 518zM432 696q0 -84 6 -147.5t27.5 -158.5t79 -169t145.5 -117q-6 14 -6 46q0 72 59.5 119.5t139.5 47.5q63 0 118.5 -33.5t80 -63.5t57.5 -79q196 134 196 551q0 291 -84 438 q-121 215 -368 216q-41 0 -84 -8.5t-96.5 -31t-105.5 -70.5t-89 -118q-76 -146 -76 -422zM758 150q0 -18 7 -36t38 -36.5t82 -18.5q94 0 168 33q-47 152 -168 152q-51 0 -89 -26.5t-38 -67.5z" />
<glyph unicode="R" horiz-adv-x="1765" d="M80 0v96h221v1213h-221v96h778q281 0 445.5 -108.5t164.5 -270.5q0 -109 -86 -198t-256 -132q197 -74 230 -239q0 -4 10 -83t12 -91q6 -45 12.5 -75t21.5 -72t45 -63.5t73 -21.5q49 0 86 37t45 105q2 16 4 24t12.5 15.5t30.5 7.5q49 0 49 -45q0 -14 -4 -36t-19.5 -54.5 t-40 -60.5t-72.5 -47.5t-110 -19.5q-195 0 -301 54q-51 25 -81.5 55.5t-43 75.5t-15.5 76.5t-3 97.5q0 123 -9 166t-57 94q-63 70 -182 70h-239v-570h221v-96q-74 6 -360.5 6t-360.5 -6zM580 739h237q96 0 164 20.5t101.5 45t51 71t19.5 74t2 74.5q0 49 -3 79t-20.5 74 t-50 68.5t-99.5 44t-161 19.5h-241v-570z" />
<glyph unicode="S" horiz-adv-x="1306" d="M131 35v373q0 39 7 49t42 10q16 0 25.5 -2t14.5 -8t6 -13.5t1 -23.5q6 -106 58.5 -181t133.5 -108t150.5 -45t141.5 -12q143 0 204.5 73.5t61.5 165.5q0 96 -82 179q-33 31 -73 43t-187 45q-186 41 -255 67.5t-138 95.5q-111 117 -111 273q0 174 119 292.5t340 118.5 q209 0 350 -112l92 90q24 22 40 22h1q25 0 31 -11t6 -46v-375q0 -37 -7 -47t-42 -10q-31 0 -38 7t-13 46q-23 131 -94.5 213t-151.5 108.5t-172 26.5q-139 0 -200.5 -66.5t-61.5 -148.5q0 -86 61.5 -141t134.5 -72l297 -63q147 -31 250 -149.5t103 -282.5 q0 -176 -116 -307.5t-349 -131.5q-258 0 -410 113l-94 -94q-20 -18 -39 -19q-25 0 -31 11.5t-6 46.5z" />
<glyph unicode="T" horiz-adv-x="1638" d="M86 889l43 493h1378l43 -493h-96q-8 86 -14 132t-27.5 106.5t-54.5 89t-92.5 49t-145.5 20.5h-155v-1190h313v-96q-111 6 -459 6t-459 -6v96h314v1190h-158q-86 0 -146.5 -21.5t-93 -50t-53 -88t-28 -105.5t-13.5 -132h-96z" />
<glyph unicode="U" horiz-adv-x="1810" d="M80 1309v96q78 -6 366.5 -6t366.5 6v-96h-221v-852q0 -51 3 -86t22.5 -96.5t54.5 -100.5t107.5 -69.5t174.5 -30.5q88 0 165 21.5t141.5 66.5t102.5 126t38 189v772q0 35 -8.5 42t-53.5 12q-55 6 -108 6h-51v96q84 -6 276 -6q197 0 275 6v-96h-52q-61 0 -110 -6 q-43 -4 -51.5 -11.5t-8.5 -42.5v-780q0 -205 -144 -348.5t-419 -143.5q-305 0 -475 140.5t-170 355.5v836h-221z" />
<glyph unicode="V" horiz-adv-x="1779" d="M53 1309v96q72 -6 324 -6q285 0 362 6v-96h-192l436 -981l414 932q0 2 3 7t4 9t1 8q0 25 -180 25v96q80 -6 268 -6q25 0 63.5 1t90 3t77.5 2v-96h-38q-72 0 -109 -6.5t-45 -14.5t-16 -24l-545 -1231q-14 -33 -32.5 -41t-49.5 -8q-39 0 -53.5 11t-28.5 42l-565 1272h-189z " />
<glyph unicode="W" horiz-adv-x="2433" d="M49 1309v96q72 -6 313 -6q281 0 359 6v-96h-197l363 -938l278 721l-84 217h-176v96q72 -6 314 -6q281 0 358 6v-96h-197l363 -938l352 915q-59 23 -209 23v96q74 -6 279 -6q53 0 219 6v-96q-76 0 -117 -4q-47 -4 -57 -11.5t-21 -33.5l-473 -1223q-10 -29 -23.5 -41 t-48 -12t-48 12t-23.5 41l-356 921l-357 -921q-10 -29 -23.5 -41t-48 -12t-48 12t-23.5 41l-492 1272h-176z" />
<glyph unicode="X" horiz-adv-x="1779" d="M70 0v96h59q63 0 125 6q47 4 60.5 10.5t27.5 24.5l414 543l-455 629h-201v96q72 -6 332 -6q287 0 371 6v-96h-170l293 -404l270 359q2 2 8 11t8 11q-72 23 -188 23v96q74 -6 311 -6q188 0 275 6v-96h-60q-70 0 -118 -6q-53 -4 -66.5 -9.5t-30.5 -27.5l-344 -453l518 -717 h201v-96q-72 6 -332 6q-287 0 -370 -6v96h170l-357 494l-338 -449q-2 -2 -8 -11t-8 -11q72 -23 188 -23v-96q-74 6 -311 6q-188 0 -274 -6z" />
<glyph unicode="Y" horiz-adv-x="1779" d="M39 1309v96q72 -6 338 -6q291 0 375 6v-96h-174l415 -609l383 564q4 6 15 24q-53 20 -156 21v96q76 -6 270 -6q25 0 64 1t90 3t80 2v-96h-43q-53 0 -107 -6q-57 -8 -71 -23q-4 -6 -9 -12l-481 -707v-465h223v-96q-78 6 -362 6q-287 0 -361 -6v96h222v465l-510 748h-201z " />
<glyph unicode="Z" horiz-adv-x="1437" d="M131 53q0 29 16 53l820 1203h-267q-215 0 -321.5 -96.5t-118.5 -301.5h-96l24 494h1053q27 0 38 -2t19.5 -13.5t8.5 -36t-17 -48.5l-817 -1201h287q88 0 157.5 15.5t115.5 38t81 63.5t53.5 76t31.5 91t17.5 94t8.5 100h96l-37 -582h-1087q-27 0 -38.5 2t-19.5 13t-8 38z " />
<glyph unicode="[" horiz-adv-x="653" d="M215 -512v2048h387v-74h-164v-1900h164v-74h-387z" />
<glyph unicode="\" d="M131 1499q0 12 10.5 22.5t24.5 10.5q10 0 18.5 -4t15.5 -14.5t10 -16.5t9 -23.5t8 -19.5l797 -1870q18 -41 18 -59q0 -10 -10 -22.5t-24 -12.5q-29 0 -47 49l-820 1923q-10 31 -10 37z" />
<glyph unicode="]" horiz-adv-x="653" d="M51 -438h164v1900h-164v74h387v-2048h-387v74z" />
<glyph unicode="^" horiz-adv-x="1439" d="M270 1028l449 266l446 -266l-45 -86l-401 184l-404 -184z" />
<glyph unicode="_" horiz-adv-x="1830" d="M197 -569q0 63 79 63h1272q82 0 82 -63q0 -61 -82 -62h-1272q-79 1 -79 62z" />
<glyph unicode="`" d="M229 1227q0 49 36 89t85 40q8 0 15.5 -1t13.5 -2t14 -6.5t14.5 -9.5t18.5 -13t21.5 -17.5t27 -24.5t32.5 -30.5t41.5 -39t49.5 -45.5l80 -73l-51 -82q-47 16 -127 43q-184 61 -227.5 88t-43.5 84z" />
<glyph unicode="a" horiz-adv-x="1144" d="M66 221q0 293 665 322v69q0 242 -225 242q-80 0 -148 -14q45 -31 45 -101q0 -61 -38.5 -95t-90.5 -34q-47 0 -87 34t-40 95q0 188 367 189q221 0 336 -86t115 -230v-440q0 -29 4 -41t32.5 -23.5t88.5 -11.5q18 0 26 -2t17.5 -12t9.5 -33q0 -33 -14.5 -41t-51.5 -8h-98 q-76 0 -123 14.5t-64.5 43t-21.5 48t-4 52.5q-88 -170 -305 -170q-61 0 -123 9t-127.5 32.5t-105 72.5t-39.5 119zM305 223q0 -68 54.5 -115t132.5 -47q27 0 60.5 8.5t77.5 29t72.5 69.5t28.5 117v194q-45 -2 -85 -7t-107.5 -22.5t-114.5 -42t-83 -73t-36 -111.5z" />
<glyph unicode="b" horiz-adv-x="1306" d="M76 1309v96l362 16v-600q121 100 301 101q221 0 355.5 -129t134.5 -336q0 -213 -143.5 -341t-372.5 -128q-172 0 -299 127l-101 -115h-96v1229q0 57 -21.5 68.5t-119.5 11.5zM451 203q94 -141 243 -142q143 0 219 107q53 80 54 289q0 51 -1 80.5t-7.5 83t-22.5 87 t-43 69.5t-72 53.5t-104 17.5q-80 0 -150.5 -37t-115.5 -94v-514z" />
<glyph unicode="c" horiz-adv-x="1046" d="M78 455q0 197 130 335t388 138q356 0 356 -189q0 -61 -39 -95t-90 -34q-47 0 -87 34t-40 95q0 57 41 95q-53 12 -133 12q-76 0 -129 -31t-78.5 -68.5t-39 -100t-15.5 -96.5t-2 -85q0 -395 285 -395q186 0 256 168q8 20 15 25t34 5q49 0 49 -28q0 -8 -8 -32t-35 -63 t-68 -72.5t-115.5 -59t-166.5 -25.5q-233 0 -370.5 130t-137.5 337z" />
<glyph unicode="d" horiz-adv-x="1306" d="M78 453q0 213 143.5 341t370.5 128q158 0 276 -93v400q0 57 -21.5 68.5t-119.5 11.5v96l363 16v-1245q0 -57 21.5 -68.5t119.5 -11.5v-96l-375 -12v100q-125 -100 -287 -100q-225 0 -358 130t-133 335zM340 453q0 -51 1 -81t7 -83t22.5 -87t43 -70t71.5 -53.5t105 -17.5 q158 0 266 150v512q-94 125 -244 125q-145 0 -219 -107q-53 -79 -53 -288z" />
<glyph unicode="e" horiz-adv-x="1079" d="M66 461q0 201 134 334t371 133q211 0 326 -111q115 -115 115 -315q0 -39 -13.5 -47.5t-52.5 -8.5h-618q0 -376 288 -376h2q100 0 180.5 45t112.5 118q10 27 18.5 35t33.5 8q49 0 49 -36q0 -14 -11.5 -40t-41 -64t-73.5 -70.5t-119 -55t-167 -22.5q-244 0 -389 132 t-145 341zM328 514h489q-10 340 -246 340q-125 0 -194 -106q-41 -64 -49 -234z" />
<glyph unicode="f" horiz-adv-x="718" d="M86 813v96h154v207q0 160 124.5 239t297.5 79q113 0 173 -53.5t60 -125.5q0 -59 -38 -93t-89 -34q-47 0 -86 33t-39 94q0 66 47 101q-14 4 -34.5 4t-42 -3t-53.5 -18.5t-54.5 -39t-39.5 -71.5t-17 -112v-207h247v-96h-235v-717h178v-96q-74 6 -283 6q-43 0 -258 -6v96 h142v717h-154z" />
<glyph unicode="g" d="M66 -154q0 45 22.5 81t57 55.5t56 28.5t40.5 14q-90 72 -90 196q0 94 69 182q-49 35 -77.5 93.5t-28.5 121.5q0 123 101 213.5t306 90.5q174 0 275 -68q98 78 217 78q63 0 96 -38t33 -81q0 -37 -24.5 -62.5t-63.5 -25.5t-63.5 24.5t-24.5 63.5q0 20 8 41q-66 -6 -127 -39 q82 -88 82 -197q0 -123 -101.5 -213t-306.5 -90q-147 0 -250 54q-20 -27 -20 -68q0 -39 26.5 -79t86.5 -50q10 -2 157 -2q123 0 180.5 -2t128 -15.5t125.5 -39.5q154 -78 154 -260q0 -115 -132 -190t-390 -75q-276 0 -399 80t-123 178zM242 -150q0 -78 87 -133t259 -55 q180 0 263 57.5t83 126.5q0 127 -295 127h-240q-157 0 -157 -123zM342 618.5q0 -38.5 1 -60t10 -58.5t27.5 -57.5t54.5 -37t87 -16.5t87 16.5t54.5 37t27.5 57.5t10 58.5t1 60t-1 60t-10 58.5t-27.5 57.5t-54.5 37t-87 16.5t-87 -16.5t-54.5 -37t-27.5 -57.5t-10 -58.5 t-1 -60z" />
<glyph unicode="h" horiz-adv-x="1306" d="M92 0v96h141v1133q0 57 -21.5 68.5t-119.5 11.5v96l363 16v-696h2q115 197 346 197q158 0 236.5 -69t78.5 -226v-531h142v-96q-172 6 -258.5 6t-258.5 -6v96h142v553q0 111 -29 155t-84 44q-113 0 -209 -85t-96 -239v-428h141v-96q-172 6 -258 6t-258 -6z" />
<glyph unicode="i" horiz-adv-x="653" d="M96 0v96h142v633q0 57 -20.5 68.5t-115.5 11.5v96l357 17v-826h127v-96q-221 6 -240 6q-60 0 -250 -6zM160 1263.5q0 65.5 46 112.5t114 47q66 0 113 -47t47 -112.5t-47.5 -112.5t-112.5 -47q-68 0 -114 47t-46 112.5z" />
<glyph unicode="j" horiz-adv-x="718" d="M-115 -223q0 55 36 92t93 37q55 0 91 -37t36 -90q0 -66 -49 -103q47 -12 80 -12q82 0 118 77t36 173v813q0 27 -2 39t-12.5 23.5t-30.5 15.5q-31 4 -111 4v96l377 17v-1008q0 -152 -112.5 -238t-258.5 -86q-129 0 -210 50.5t-81 136.5zM227 1263.5q0 65.5 46 112.5 t114 47q66 0 113 -47t47 -112.5t-47.5 -112.5t-112.5 -47q-68 0 -114 47t-46 112.5z" />
<glyph unicode="k" horiz-adv-x="1241" d="M76 0v96h141v1133q0 57 -21.5 68.5t-119.5 11.5v96l362 16v-936l387 306q-22 22 -65 22h-4v96q141 -6 235 -6q104 0 160 6v-96q-66 0 -103.5 -5t-50 -11t-30.5 -21l-267 -207l347 -432q16 -18 24 -25.5t30.5 -11.5t65.5 -4h35v-96q-104 6 -213 6q-158 0 -250 -6v96 q63 0 64 19q0 4 -51 71l-207 258q-49 -35 -117 -88v-260h141v-96q-221 6 -247 6q-19 0 -246 -6z" />
<glyph unicode="l" horiz-adv-x="653" d="M96 0v96h142v1133q0 57 -21.5 68.5t-120.5 11.5v96l363 16v-1325h141v-96q-209 6 -252 6q-55 0 -252 -6z" />
<glyph unicode="m" horiz-adv-x="1961" d="M92 0v96h141v633q0 57 -21.5 68.5t-119.5 11.5v96l352 17v-222q113 221 361 222q264 0 307 -197q111 197 346 197q162 0 239 -70t77 -225v-531h141v-96q-172 6 -258 6t-258 -6v96h141v553q0 113 -28.5 156t-86.5 43q-111 0 -208 -85t-97 -239v-428h142v-96q-172 6 -258 6 t-259 -6v96h142v553q0 113 -29 156t-86 43q-111 0 -208 -85t-97 -239v-428h141v-96q-172 6 -258 6t-258 -6z" />
<glyph unicode="n" horiz-adv-x="1306" d="M92 0v96h141v633q0 57 -21.5 68.5t-119.5 11.5v96l352 17v-222q113 221 359 222q158 0 236.5 -69t78.5 -226v-531h142v-96q-172 6 -258.5 6t-258.5 -6v96h142v553q0 111 -29 155t-84 44q-113 0 -209 -85t-96 -239v-428h141v-96q-172 6 -258 6t-258 -6z" />
<glyph unicode="o" d="M66 446q0 211 138 346.5t384 135.5q244 0 383 -135.5t139 -346.5q0 -199 -137 -328.5t-385 -129.5t-385 129.5t-137 328.5zM328 469q0 -61 1 -93t8 -88.5t23.5 -87t44 -65.5t73.5 -50t109.5 -15t109.5 15t74 50t44 65.5t23.5 87t8.5 88.5t1 93q0 211 -43 281 q-66 104 -217 104q-164 0 -226 -119q-34 -69 -34 -266z" />
<glyph unicode="p" horiz-adv-x="1306" d="M76 -301h141v1032q0 57 -21.5 67.5t-119.5 10.5v96l362 17v-101q129 100 310 101q219 0 350 -129t131 -336q0 -213 -142.5 -341t-373.5 -128q-150 0 -262 92v-381h141v-96q-172 6 -258 6t-258 -6v96zM451 240q0 -31 3 -39t19 -29q92 -111 217 -111q113 0 195 97.5 t82 298.5q0 184 -72 283.5t-180 99.5q-139 0 -234 -97q-23 -23 -26.5 -32t-3.5 -37v-434z" />
<glyph unicode="q" horiz-adv-x="1241" d="M78 455q0 211 141 339t369 128q92 0 174 -43t135 -119l109 162h84v-1223h141v-96q-172 6 -258 6t-258 -6v96h141v399q-126 -110 -284 -110h-3q-217 0 -354 127t-137 340zM340 453q0 -193 72.5 -292.5t177.5 -99.5q152 0 248 144q31 43 30 86v284q0 88 -72.5 176.5 t-181 88.5t-191.5 -94t-83 -293z" />
<glyph unicode="r" horiz-adv-x="968" d="M76 0v96h141v633q0 57 -21.5 68.5t-119.5 11.5v96l340 17v-232q84 231 272 232q86 0 151.5 -45.5t65.5 -122.5q0 -57 -38 -91t-87 -34t-87 32.5t-38 92.5q0 55 39 94q-72 0 -125 -40t-79.5 -104.5t-39 -126t-12.5 -122.5v-359h178v-96q-74 6 -282 6q-43 0 -258 -6z" />
<glyph unicode="s" horiz-adv-x="927" d="M78 45v223q0 39 7 49.5t42 10.5q25 0 34 -4.5t15 -24.5q12 -43 27.5 -76t47.5 -75t88 -64.5t132 -22.5q233 0 234 154q0 43 -23 73.5t-66 48t-70.5 25t-68.5 13.5q-100 18 -139 26.5t-89 30t-89 55.5q-82 70 -82 172q0 63 22.5 112.5t62.5 77.5t79 45t89 23.5t73.5 8.5 t50.5 2q129 0 207 -39q80 39 92 39q25 0 31 -11.5t6 -46.5v-163q0 -39 -7.5 -48.5t-42.5 -9.5q-31 0 -38 8.5t-9 32.5q-16 172 -241 172q-229 0 -230 -127q0 -35 19.5 -59.5t59.5 -38.5t62.5 -20.5t67.5 -14.5q133 -23 191.5 -40t113.5 -58q113 -90 113 -217 q0 -72 -22.5 -126.5t-62.5 -85t-79 -50t-90 -26.5t-73.5 -9t-51.5 -2q-147 0 -242 65l-53 -35q-42 -30 -60 -30h-1q-25 0 -31 12t-6 45z" />
<glyph unicode="t" horiz-adv-x="915" d="M43 813v74q143 4 223 126t82 287h96v-391h299v-96h-299v-565q0 -178 119 -178q49 0 86 46t37 142v104h96v-108q0 -115 -66.5 -190.5t-180.5 -75.5q-324 0 -324 264v561h-168z" />
<glyph unicode="u" horiz-adv-x="1306" d="M92 809v96l375 17v-699q0 -94 26.5 -128t137.5 -34q113 0 183.5 76t70.5 201v391q0 57 -21.5 68.5t-120.5 11.5v96l375 17v-746q0 -57 21.5 -68.5t120.5 -11.5v-96l-363 -12v159q-93 -159 -293 -159h-2q-174 0 -271.5 56t-97.5 208v477q0 57 -21.5 68.5t-119.5 11.5z" />
<glyph unicode="v" horiz-adv-x="1241" d="M53 813v96q20 0 110.5 -3t123.5 -3q152 0 254 6v-96h-111l260 -559l238 512q10 20 10 25q0 22 -90 22h-8v96q129 -6 186 -6q84 0 162 6v-96q-90 0 -115.5 -9t-36.5 -34l-340 -729q-23 -49 -76 -49t-77 51l-359 770h-131z" />
<glyph unicode="w" horiz-adv-x="1699" d="M51 813v96q209 -6 223 -6q127 0 252 6v-96h-114l215 -528l161 393q8 25 9 27q0 6 -43 108h-121v96q98 -6 205 -6q37 0 233 6v-96h-115l234 -573l215 524q0 2 3 7t4 10t1 7q0 25 -119 25v96q135 -6 197 -6q86 0 158 6v-96q-57 0 -87 -6t-38 -13.5t-15 -23.5l-295 -723 q-8 -23 -14 -32t-20.5 -16t-38.5 -7q-35 0 -48.5 12t-25.5 43l-217 531l-217 -531q-8 -23 -14.5 -32t-20.5 -16t-39 -7q-35 0 -48 12t-26 43l-313 766h-121z" />
<glyph unicode="x" horiz-adv-x="1241" d="M45 0v96q63 0 93 1t64 10.5t50 27.5l268 301l-319 377h-146v96q203 -6 226 -6q88 0 247 6v-96h-82l201 -235l172 192l17 25q-31 18 -78 18v96q172 -6 211 -6q80 0 188 6v-96q-82 0 -125 -5t-55 -12.5t-29 -25.5l-239 -266l344 -408h145v-96q-203 6 -225 6q-86 0 -246 -6 v96h80l-225 266l-199 -223q-14 -16 -14 -20q0 -23 75 -23v-96q-123 6 -211 6q-82 0 -188 -6z" />
<glyph unicode="y" horiz-adv-x="1241" d="M45 -221q0 57 35 88t82 31q51 0 85 -33t34 -84q0 -80 -66 -109q23 -8 49 -8q51 0 93 21.5t74 63.5t49.5 71.5t39.5 81.5l47 98l-383 813h-131v96q20 0 110.5 -3t123.5 -3q152 0 254 6v-96h-111l260 -553l236 504q10 10 10 24q0 25 -96 25v96q129 -6 186 -6q88 0 162 6 v-96q-63 0 -95 -5t-40.5 -12.5t-16.5 -25.5l-440 -936q-47 -100 -135 -172t-197 -72q-92 0 -155.5 55.5t-63.5 133.5z" />
<glyph unicode="z" horiz-adv-x="1046" d="M66 45q0 23 18 45l571 746h-174q-156 0 -216 -62.5t-70 -222.5h-97l25 358h751q25 0 35.5 -1t20.5 -11t10 -31q0 -16 -20 -45l-568 -739h176q98 0 161 20.5t95.5 69.5t45 100.5t20.5 141.5h96l-37 -414h-778q-25 0 -36 2t-20 12.5t-9 30.5z" />
<glyph unicode="{" d="M160 512q0 23 13 30t51 10t65 11q182 55 182 213v459q0 31 1 45t9 49t25.5 57.5t53.5 51t87 49.5q131 49 311 49q18 0 27.5 -1t19 -10t9.5 -26q0 -25 -15.5 -32t-56.5 -10t-72 -13q-166 -51 -165 -199v-457q0 -215 -248 -276q248 -63 248 -276v-457q0 -29 7 -54.5 t29.5 -63.5t82 -64.5t147.5 -32.5q45 -4 45 -39q0 -37 -51 -37q-82 0 -156 10t-147.5 34t-124 71t-62.5 114q-4 25 -4 72v440q0 76 -29 123q-63 100 -213 119q-4 0 -16 1t-16 2t-13.5 4t-13.5 7t-7 10.5t-3 16.5z" />
<glyph unicode="|" horiz-adv-x="653" d="M264 -428v1872q0 90 61.5 90t61.5 -80v-1874q0 -90 -61.5 -90t-61.5 82z" />
<glyph unicode="}" d="M160 -473q0 16 10 24.5t23.5 10.5t40 5t47.5 7q190 45 190 205v457q0 29 1 45t13.5 56t36 67.5t73.5 58.5t122 49q-246 61 -246 276v441q0 49 -6 74q-16 63 -85 106t-165 51l-10 2h-13.5t-11.5 3t-11 6.5t-6 10.5t-3 15q0 39 45 39h8q76 0 146.5 -9t145.5 -31.5t127 -70 t66 -114.5q6 -25 7 -76v-444q0 -68 26.5 -116t70.5 -72.5t77.5 -36t68.5 -15.5h16.5t19.5 -2t14.5 -5t13.5 -11.5t4 -20.5t-4 -19.5t-13.5 -11.5t-16.5 -6t-20.5 -3t-17.5 -1q-86 -10 -152.5 -56t-82.5 -124q-4 -20 -4 -62v-440q0 -37 -4.5 -62.5t-21.5 -68.5t-64.5 -77 t-118.5 -56q-119 -37 -285 -37q-51 0 -51 39z" />
<glyph unicode="~" horiz-adv-x="1439" d="M195 1251q8 8 38.5 43t38 41t32 28.5t36.5 27t36.5 15.5t50.5 13t58 2q72 0 252.5 -34.5t251.5 -34.5q119 0 197 69l53 -51q-12 -14 -37.5 -43t-36 -39t-32 -29.5t-36 -26.5t-38 -16.5t-50 -12.5t-59.5 -3q-82 0 -253 35t-253 35q-53 0 -95 -12.5t-58.5 -23.5t-42.5 -34z " />
<glyph unicode="&#xa1;" horiz-adv-x="716" d="M197 -274q0 12 4 34.5t4 30.5l98 703q4 25 5 30.5t6 18t15.5 15.5t27 3t26.5 -3t15 -13t7.5 -16.5t4.5 -23t4 -24.5l100 -719q4 -25 4 -36q0 -61 -48 -103.5t-112 -42.5q-61 0 -111 40t-50 106zM199 864.5q0 63.5 45 111.5t112 48q70 0 115 -48t45 -111.5t-45 -111.5 t-113 -48q-70 0 -114.5 48t-44.5 111.5z" />
<glyph unicode="&#xa2;" d="M78 457q0 78 24.5 149.5t81 142t164 117.5t256.5 60v190h98v-188q74 0 127.5 -5t119 -21.5t101 -57.5t35.5 -103q0 -57 -37.5 -93t-91 -36t-90.5 35t-37 92q0 49 37 95q-68 10 -164 10v-772q207 8 289 133q6 10 14.5 23.5t11.5 19.5t9 11t13.5 7t21.5 2q47 0 47 -28 q-2 -12 -8 -32t-33 -56.5t-66.5 -67.5t-118.5 -58.5t-180 -35.5v-189h-98v189q-150 10 -257 58t-163.5 118t-81 142.5t-24.5 148.5zM340 457q0 -319 264 -375v760q-143 -25 -203.5 -116t-60.5 -269z" />
<glyph unicode="&#xa3;" horiz-adv-x="1505" d="M129 104q0 82 80 131.5t209 49.5q51 0 117 -11l2 160v228h-125q-27 0 -38.5 9t-11.5 40q0 49 54 49h121v229q0 10 -1 28.5t-1 26.5q0 113 40.5 195t110.5 124t140.5 60.5t148.5 18.5q176 0 285.5 -115t109.5 -254q0 -72 -42 -103.5t-87 -31.5q-51 0 -89 36t-38 91 q0 45 28.5 85t102.5 44q-90 172 -266 172q-133 0 -182 -104q-27 -53 -27 -185v-317h184q29 0 41.5 -9.5t12.5 -40t-12.5 -39.5t-41.5 -9h-184v-283q0 -88 -27 -158q29 -8 90.5 -26.5t86 -25.5t66.5 -17.5t75 -13.5t67 -3q80 0 138.5 34t70.5 97q4 18 7.5 25.5t12.5 14.5 t27 7q51 0 52 -43q0 -98 -95.5 -189t-261.5 -91q-78 0 -177 23.5t-169.5 46t-79.5 22.5q-10 0 -46 -22.5t-108.5 -46t-168.5 -23.5q-201 -1 -201 114zM262 100q0 -37 70 -37q88 0 151 64q-63 10 -118 10q-103 0 -103 -37z" />
<glyph unicode="&#xa5;" horiz-adv-x="1779" d="M39 1307v98q289 -6 323 -6q195 0 390 6v-98h-172l249 -369h289q27 0 35 5t27 32q53 78 120 176q82 119 82 131q0 25 -147 25v98q137 -6 276 -6q115 0 228 6v-98h-2q-143 0 -177 -9.5t-61 -48.5l-211 -311h291q61 0 61 -37t-59 -37h-346q-49 -76 -95 -143.5t-65.5 -93 t-32 -51t-12.5 -52.5v-41h549q61 0 61 -34q0 -29 -32 -37q-6 -2 -41 -2h-537v-312h221v-98q-184 6 -370 6q-141 0 -353 -6v98h222v312h-537q-2 0 -7 -1t-9 -1q-57 0 -58 38q0 37 62 37h549v54q0 20 -13.5 42.5t-77.5 114.5q-53 78 -92 133q-25 37 -55 37h-305q-49 0 -64 19 q-8 14 -3 29.5t20 21.5q10 4 137 4h195l-252 369h-201zM883 864l108 -162l113 162h-221z" />
<glyph unicode="&#xa7;" horiz-adv-x="1083" d="M164 518q0 164 153 262q-154 154 -153 330q0 141 112.5 231.5t266.5 90.5q143 0 243.5 -74t100.5 -180q0 -57 -36 -88t-83 -31q-49 0 -82 32.5t-33 82.5q0 78 84 114q-82 70 -192 70q-100 0 -169 -75t-69 -161q0 -49 45 -81.5t144.5 -66.5t124.5 -46q154 -74 225.5 -193 t71.5 -231q0 -166 -152 -262q154 -158 154 -330q0 -139 -114 -230.5t-267 -91.5q-143 0 -242.5 74t-99.5 180q0 55 34.5 88t81.5 33q49 0 83 -33.5t34 -83.5q0 -82 -86 -112q88 -70 195 -70q84 0 152.5 57.5t80.5 155.5q0 2 1 8.5t1 8.5q0 43 -32.5 74.5t-72.5 47t-106.5 39 t-101.5 39.5q-156 74 -226.5 191.5t-70.5 230.5zM307 539q0 -55 44 -86t153.5 -70t179.5 -78q90 84 90 180q0 57 -43 87t-152.5 69t-179.5 78q-92 -86 -92 -180z" />
<glyph unicode="&#xa8;" d="M199 1245q0 61 46 110.5t113 49.5q63 0 110.5 -46t47.5 -114q0 -66 -46 -113t-111.5 -47t-112.5 45t-47 115zM657 1245q0 66 46.5 113t111.5 47q63 0 111.5 -46t48.5 -114q0 -70 -49 -115t-111 -45q-63 0 -110.5 46t-47.5 114z" />
<glyph unicode="&#xa9;" horiz-adv-x="2615" d="M129 512q0 160 43 309.5t136 283.5t228.5 234.5t335 160t439.5 59.5q530 0 851.5 -290t321.5 -759q0 -463 -318.5 -754t-865.5 -291q-530 0 -850.5 289t-320.5 758zM254 512q0 -176 59.5 -335t180 -293t329.5 -214t482 -80q485 0 769.5 252t284.5 670q0 416 -284.5 669 t-768 253t-768 -252t-284.5 -670zM653 492q0 229 186.5 371.5t487.5 142.5q172 0 315 -86q131 84 152 84q35 0 35 -58v-280q0 -39 -8.5 -52.5t-42.5 -13.5q-23 0 -33 3t-16.5 12.5t-8.5 20.5t-9 34.5t-17 46.5q-35 72 -112 131t-202 59q-242 0 -346 -133q-68 -84 -67 -278 q0 -59 3 -100.5t26.5 -108t64.5 -107.5t125 -72.5t203 -31.5q127 0 227 62.5t115 178.5q2 14 3 19.5t6 13.5t14 11.5t26 3.5q49 0 49 -43q0 -53 -28.5 -110.5t-84 -111t-156 -88.5t-227.5 -35q-311 0 -495.5 145t-184.5 370z" />
<glyph unicode="&#xaa;" horiz-adv-x="1046" d="M63 924q0 176 537 188v80q0 287 -154 287q-57 0 -120 -29q76 -35 75 -119q0 -55 -37.5 -91t-91 -36t-90.5 36t-37 93q0 96 90.5 157.5t223.5 61.5q66 0 126 -16t119.5 -54t95.5 -114t36 -178q0 -10 -1 -26.5t-1 -26.5v-258q35 -10 86 -10.5t70.5 -9.5t19.5 -42 q0 -49 -60 -49h-106q-111 0 -153 15.5t-56 62.5q-76 -88 -252 -88q-320 0 -320 166zM94 608q6 37 60 37h743q51 -2 51 -41q0 -35 -55 -35h-743q-60 0 -56 39zM305 924q0 -35 31 -64t94 -29q123 0 160 62q10 18 10 61v93q-295 -17 -295 -123z" />
<glyph unicode="&#xab;" horiz-adv-x="1308" d="M260 483q0 16 47 47q236 145 385 396q23 41 49 41q35 0 35 -31q0 -16 -25.5 -79.5t-93 -172.5t-155.5 -201q113 -111 193.5 -260t80.5 -190q0 -31 -35 -31q-27 0 -49 39q-59 100 -135 185t-130 126t-103.5 74t-51.5 35q-12 8 -12 22zM657 483q0 12 26 30.5t71 49.5t97 74 t117.5 118.5t121.5 170.5q23 41 49 41q35 0 35 -31q0 -16 -26 -79.5t-93.5 -172.5t-155.5 -201q113 -111 194 -260t81 -190q0 -31 -35 -31q-27 0 -49 39q-59 100 -135 185t-130.5 126t-103.5 74t-51 35q-13 12 -13 22z" />
<glyph unicode="&#xac;" horiz-adv-x="1568" d="M131 696q0 61 80 62h1130q2 0 6.5 1t6.5 1q53 0 68.5 -22.5t15.5 -65.5v-467q0 -80 -61.5 -80t-63.5 80v430h-1108q-74 2 -74 61z" />
<glyph unicode="&#xad;" horiz-adv-x="784" d="M25 356v199h626v-199h-626z" />
<glyph unicode="&#xae;" horiz-adv-x="2615" d="M129 512q0 160 43 309.5t136 283.5t228.5 234.5t335 160t439.5 59.5q530 0 851.5 -290t321.5 -759q0 -463 -318.5 -754t-865.5 -291q-530 0 -850.5 289t-320.5 758zM254 512q0 -176 59.5 -335t180 -293t329.5 -214t482 -80q485 0 769.5 252t284.5 670q0 416 -284.5 669 t-768 253t-768 -252t-284.5 -670zM561 0v98h223v787h-223v98h653q311 0 446.5 -84t135.5 -190q0 -88 -78 -142.5t-176 -79.5l10 -4q8 -4 17.5 -10t23 -14t25.5 -20.5t24.5 -27t22.5 -34t16 -41.5q6 -20 17.5 -83t22 -98.5t42 -68.5t80.5 -33q47 0 77 32t38 79q6 51 33 59 q8 2 16 2q49 0 49 -49q0 -23 -10 -52.5t-32.5 -64t-72 -58.5t-114.5 -24h-33q-221 0 -310 49.5t-89 186.5v76q0 80 -44 123t-130 43h-158v-357h223v-98q-176 6 -354 6q-187 0 -371 -6zM1063 528h121q76 0 115.5 2t96 21.5t72.5 58.5q14 33 15 107q-2 106 -63.5 137 t-223.5 31h-133v-357z" />
<glyph unicode="&#xaf;" d="M164 1321v106h850v-106h-850z" />
<glyph unicode="&#xb0;" horiz-adv-x="784" d="M131 1145q0 113 71.5 186.5t190.5 73.5q117 0 188.5 -74t71.5 -188.5t-72.5 -187t-189.5 -72.5t-188.5 73.5t-71.5 188.5zM256 1143q0 -66 37 -100.5t98 -34.5q63 0 100 36.5t37 100.5q0 66 -36.5 100.5t-98.5 34.5q-63 0 -100 -37t-37 -100z" />
<glyph unicode="&#xb1;" horiz-adv-x="1830" d="M131 -16q0 63 86 63h635v598h-629q-31 0 -47 4q-45 14 -45 60q0 61 82 61h639v629q0 33 4 47q14 45 57 45q45 0 60 -45q4 -16 4 -49v-627h627q33 0 49 -4q45 -14 45 -57q0 -45 -45 -60q-16 -4 -49 -4h-627v-598h641q78 0 78 -63q0 -61 -80 -62h-1403q-33 0 -52.5 12.5 t-24.5 25t-5 24.5z" />
<glyph unicode="&#xb4;" d="M498 1096q242 223 266 239q29 20 61 21q51 0 85 -41t34 -88q0 -57 -42 -83t-224 -87q-80 -29 -129 -45z" />
<glyph unicode="&#xb5;" horiz-adv-x="1308" d="M90 -301h143v1036q0 45 -22.5 58.5t-97.5 13.5h-23v98l377 17v-621q0 -10 -1 -29.5t-1 -29.5q0 -104 27.5 -141.5t138.5 -37.5q96 0 175 67t79 218v379q0 51 -19.5 65.5t-103.5 14.5h-19v98l375 17v-748q0 -49 23.5 -62.5t99.5 -13.5h21v-98l-365 -10v88l-2 69 q-98 -158 -291 -157h-6q-74 0 -131 8v-299h141v-98q-135 6 -268 6q-23 0 -250 -6v98z" />
<glyph unicode="&#xb6;" horiz-adv-x="1439" d="M129 936q0 201 166 343t450 142h541q84 0 84 -61q0 -37 -35 -55q-14 -6 -61 -7h-98v-1572h100q45 0 59 -9q35 -16 35 -55q0 -61 -80 -61h-643q-78 2 -78 63q0 33 33 51q18 10 60 11h102v725q-270 14 -452.5 144t-182.5 341zM887 -274h164v1572h-164v-1572z" />
<glyph unicode="&#xb7;" horiz-adv-x="563" d="M121 484q0 70 49 114.5t111 44.5q63 0 111 -46t48 -113q0 -61 -46 -110.5t-113 -49.5q-63 0 -111.5 46t-48.5 114z" />
<glyph unicode="&#xb8;" horiz-adv-x="1046" d="M209 -334h22q182 0 274.5 22.5t94.5 86.5q0 100 -194 102v123h233v-61q197 -35 197 -164q0 -109 -148.5 -146t-449.5 -37h-29v74z" />
<glyph unicode="&#xba;" horiz-adv-x="1046" d="M63 1147q0 164 115 284.5t344 120.5q211 0 334 -115.5t123 -289.5q0 -176 -123 -282.5t-336 -106.5q-209 0 -333 106.5t-124 282.5zM94 606q0 39 56 39h747q51 -2 51 -41q0 -35 -55 -35h-743q-56 0 -56 37zM326 1126q0 -51 1 -79.5t11 -74.5t29.5 -69.5t58.5 -43 t94 -19.5q115 0 164 78q33 51 33 264q0 160 -27 211q-47 86 -168 86q-55 0 -93 -17.5t-58.5 -41t-30.5 -66.5t-12 -75t-2 -85v-68z" />
<glyph unicode="&#xbb;" horiz-adv-x="1308" d="M133 33q0 20 27.5 85.5t94.5 171t153 193.5q-113 111 -194 261.5t-81 191.5q0 31 33 31q27 0 49 -41q145 -244 385 -394q49 -29 49 -49q0 -16 -49 -47q-231 -143 -385 -395q-23 -39 -49 -39q-33 0 -33 31zM530 29q0 45 77 186t198 268q-78 78 -145.5 183.5t-98.5 176 t-31 91.5q0 33 33 33q27 0 49 -41q145 -244 385 -394q49 -29 50 -49q0 -16 -48 -47q-236 -145 -387 -395q-23 -39 -49 -39q-33 0 -33 27z" />
<glyph unicode="&#xbf;" horiz-adv-x="1112" d="M129 -145q0 20 3 38.5t7 34t12.5 30.5t14.5 25.5t16.5 22.5t16.5 18.5t17 15.5t15.5 12t14.5 9l10 9q217 154 217 393v45q0 29 9.5 41t40 12t39.5 -12t9 -43q0 -2 -1 -8t-1 -11v-26q0 -135 -32.5 -238.5t-80.5 -179.5t-48 -78q-16 -39 -17 -115v-10q0 -70 6 -101.5 t37 -53t94 -21.5q168 0 283 68q-88 33 -88 123q0 55 37 91t92 36t91 -36t36 -96q0 -45 -20.5 -85.5t-67.5 -82.5t-144.5 -67t-232.5 -25q-117 0 -199 26t-119.5 69t-52 83t-14.5 87zM362 864.5q0 63.5 45.5 111.5t112.5 48q70 0 115 -48t45 -111.5t-45 -111.5t-113 -48 q-70 0 -115 48t-45 111.5z" />
<glyph unicode="&#xc0;" horiz-adv-x="1779" d="M84 0v96h43q106 0 135 10.5t39 36.5l508 1233q8 23 14 32t21.5 15.5t44.5 6.5q23 0 33 -2.5t24.5 -14.5t24.5 -37l524 -1280h199v-96q-72 6 -334 6q-283 0 -361 -6v96h195l-123 299h-549l-102 -248q-8 -8 -8 -24q0 -27 182 -27v-96q-76 6 -270 6q-7 0 -240 -6zM563 492 h467l-233 569zM571 1663q0 49 32 89t83 40q27 0 61.5 -18.5t161.5 -100.5q76 -49 125 -80l-33 -92q-41 6 -75.5 11.5t-97 15.5t-138.5 22q-119 15 -119 113z" />
<glyph unicode="&#xc1;" horiz-adv-x="1779" d="M84 0v96h43q106 0 135 10.5t39 36.5l508 1233q8 23 14 32t21.5 15.5t44.5 6.5q23 0 33 -2.5t24.5 -14.5t24.5 -37l524 -1280h199v-96q-72 6 -334 6q-283 0 -361 -6v96h195l-123 299h-549l-102 -248q-8 -8 -8 -24q0 -27 182 -27v-96q-76 6 -270 6q-7 0 -240 -6zM563 492 h467l-233 569zM676 1593q291 184 313 195q12 4 35 4q49 0 82 -41t33 -88q0 -18 -5.5 -34.5t-11.5 -28t-20.5 -20.5t-23.5 -13t-28.5 -9.5t-27.5 -7.5t-29.5 -5t-25.5 -3q-172 -29 -258 -41z" />
<glyph unicode="&#xc2;" horiz-adv-x="1779" d="M84 0v96h43q106 0 135 10.5t39 36.5l508 1233q8 23 14 32t21.5 15.5t44.5 6.5q23 0 33 -2.5t24.5 -14.5t24.5 -37l524 -1280h199v-96q-72 6 -334 6q-283 0 -361 -6v96h195l-123 299h-549l-102 -248q-8 -8 -8 -24q0 -27 182 -27v-96q-76 6 -270 6q-7 0 -240 -6zM563 492 h467l-233 569zM565 1585v2l322 256h2l321 -256v-2l-55 -78l-266 166h-2l-264 -166z" />
<glyph unicode="&#xc3;" horiz-adv-x="1779" d="M84 0v96h43q106 0 135 10.5t39 36.5l508 1233q8 23 14 32t21.5 15.5t44.5 6.5q23 0 33 -2.5t24.5 -14.5t24.5 -37l524 -1280h199v-96q-72 6 -334 6q-283 0 -361 -6v96h195l-123 299h-549l-102 -248q-8 -8 -8 -24q0 -27 182 -27v-96q-76 6 -270 6q-7 0 -240 -6zM430 1663 q10 10 34.5 35.5t34 35t30 28t30.5 25.5t29.5 18.5t35 15.5t37 7t46.5 3q68 0 202.5 -35t202.5 -35q102 0 180 70l54 -53q-10 -10 -35 -36t-34 -35t-29.5 -27.5t-31 -25.5t-30 -18.5t-34.5 -15.5t-36.5 -7t-46.5 -3q-70 0 -203 34.5t-202 34.5q-100 0 -183 -69zM563 492h467 l-233 569z" />
<glyph unicode="&#xc4;" horiz-adv-x="1779" d="M84 0v96h43q106 0 135 10.5t39 36.5l508 1233q8 23 14 32t21.5 15.5t44.5 6.5q23 0 33 -2.5t24.5 -14.5t24.5 -37l524 -1280h199v-96q-72 6 -334 6q-283 0 -361 -6v96h195l-123 299h-549l-102 -248q-8 -8 -8 -24q0 -27 182 -27v-96q-76 6 -270 6q-7 0 -240 -6z M500 1671.5q0 67.5 47 113.5t110 46q66 0 113 -45t47 -115q0 -63 -45 -111.5t-113 -48.5q-63 0 -111 46.5t-48 114zM563 492h467l-233 569zM956 1671q0 61 46.5 110.5t113.5 49.5q63 0 111.5 -46t48.5 -114q0 -66 -47 -113t-112.5 -47t-113 45t-47.5 115z" />
<glyph unicode="&#xc5;" horiz-adv-x="1779" d="M82 0v98q104 0 146 5.5t54.5 15.5t24.5 41l496 1208q-160 57 -160 234q0 111 66.5 178t177 67t178.5 -67.5t68 -177.5q0 -176 -160 -234l522 -1270h199v-98q-195 6 -324 6q-186 0 -373 -6v98h195l-123 295h-549q-104 -254 -104 -266q0 -29 176 -29v-98q-135 6 -273 6 q-94 0 -237 -6zM561 492h469l-233 569zM739 1608q0 -31 1 -49.5t9.5 -46t22.5 -43t43 -27.5t70 -12q86 0 117.5 41.5t31.5 123.5q0 31 -1 49.5t-9 46t-22.5 43t-43 28t-69.5 12.5q-88 0 -119 -42t-31 -124z" />
<glyph unicode="&#xc6;" horiz-adv-x="2131" d="M82 0v98q104 0 146 5.5t54.5 14.5t24.5 40l484 1149h-158v98h1304l62 -496h-96q-14 111 -31 172.5t-57.5 118.5t-113.5 81t-190 26h-254v-582h113q43 0 68.5 2t61.5 12.5t59.5 37t33.5 67.5q10 39 11 119h98v-576h-98q0 158 -66 205q-49 35 -168 35h-113v-529h213 q92 0 145.5 4t130.5 37t120 97q59 84 100 327h98l-94 -563h-1151v98h166v529h-362q-45 -113 -99.5 -240t-80 -187.5t-25.5 -70.5q0 -31 176 -31v-98q-135 6 -272 6q-97 0 -240 -6zM666 725h319v582h-76z" />
<glyph unicode="&#xc7;" horiz-adv-x="1699" d="M129 702q0 326 228.5 525.5t592.5 199.5q236 0 406 -139h2q137 123 155 133q10 4 19 4q37 0 37 -59v-442q0 -31 -11.5 -41.5t-37.5 -10.5h-4q-33 0 -45.5 11.5t-13.5 30t-13 64.5t-39 97q-20 37 -48 74t-77 81t-122 71.5t-159 27.5q-297 0 -444 -184q-113 -143 -113 -440 q0 -186 45 -319.5t170 -217.5q137 -92 344 -92q188 0 321.5 107.5t145.5 262.5q6 45 21 54q12 6 31 6q49 0 49 -43q0 -66 -28 -136.5t-84 -140t-154.5 -124t-225.5 -74.5v-49q197 -35 197 -162q0 -111 -146.5 -148t-478.5 -37v74h19q190 0 280 23.5t90 83.5q0 102 -194 104 v107q-72 6 -141.5 21t-156.5 53t-158 91.5t-134.5 141.5t-95.5 201q-29 93 -29 210z" />
<glyph unicode="&#xc8;" horiz-adv-x="1546" d="M80 0v96h221v1200h-221v97h1272l63 -494h-96q-10 84 -23.5 138.5t-42 107.5t-71.5 84t-113 49t-166 18h-311v-526h113q137 0 177 55.5t40 184.5h96v-576h-96q0 129 -40 184.5t-177 55.5h-113v-578h311q92 0 163 13.5t120 45t83 67.5t56.5 94.5t34.5 111.5t24 133h97 l-95 -561h-1306zM541 1663q0 49 33.5 89t80.5 40h2q27 0 51.5 -13t147.5 -91q88 -55 149 -94l-32 -92q-33 4 -312 47q-120 16 -120 114z" />
<glyph unicode="&#xc9;" horiz-adv-x="1546" d="M80 0v96h221v1200h-221v97h1272l63 -494h-96q-10 84 -23.5 138.5t-42 107.5t-71.5 84t-113 49t-166 18h-311v-526h113q137 0 177 55.5t40 184.5h96v-576h-96q0 129 -40 184.5t-177 55.5h-113v-578h311q92 0 163 13.5t120 45t83 67.5t56.5 94.5t34.5 111.5t24 133h97 l-95 -561h-1306zM678 1594q291 184 309 192q18 6 39 6h2q47 0 81 -39.5t34 -89.5q0 -16 -3 -31.5t-11.5 -25.5t-14.5 -19.5t-21.5 -15.5t-21.5 -10t-26.5 -8t-24.5 -5t-27 -5l-22 -2q-74 -12 -260 -39z" />
<glyph unicode="&#xca;" horiz-adv-x="1546" d="M80 0v96h221v1200h-221v97h1272l63 -494h-96q-10 84 -23.5 138.5t-42 107.5t-71.5 84t-113 49t-166 18h-311v-526h113q137 0 177 55.5t40 184.5h96v-576h-96q0 129 -40 184.5t-177 55.5h-113v-578h311q92 0 163 13.5t120 45t83 67.5t56.5 94.5t34.5 111.5t24 133h97 l-95 -561h-1306zM471 1587l322 256h2l319 -256l-55 -80l-264 166h-2l-267 -166z" />
<glyph unicode="&#xcb;" horiz-adv-x="1546" d="M80 0v96h221v1200h-221v97h1272l63 -494h-96q-10 84 -23.5 138.5t-42 107.5t-71.5 84t-113 49t-166 18h-311v-526h113q137 0 177 55.5t40 184.5h96v-576h-96q0 129 -40 184.5t-177 55.5h-113v-578h311q92 0 163 13.5t120 45t83 67.5t56.5 94.5t34.5 111.5t24 133h97 l-95 -561h-1306zM406 1671q0 70 48 115t109 45q63 0 111.5 -46t48.5 -114q0 -66 -45 -113t-113 -47q-63 0 -111 46t-48 114zM862 1671q0 63 46 111.5t114 48.5q63 0 111.5 -46t48.5 -114q0 -70 -49.5 -115t-110.5 -45q-63 0 -111.5 46t-48.5 114z" />
<glyph unicode="&#xcc;" horiz-adv-x="892" d="M68 0v96h233v1213h-233v96q84 -6 378.5 -6t378.5 6v-96h-233v-1213h233v-96q-84 6 -378.5 6t-378.5 -6zM162 1663q0 49 33.5 89t80.5 40q27 0 66 -20.5t168 -104.5q70 -45 115 -74l-33 -92q-41 6 -76 11.5t-97.5 15.5l-137.5 22q-119 23 -119 113z" />
<glyph unicode="&#xcd;" horiz-adv-x="892" d="M68 0v96h233v1213h-233v96q84 -6 378.5 -6t378.5 6v-96h-233v-1213h233v-96q-84 6 -378.5 6t-378.5 -6zM221 1593q291 184 309 193q18 6 39 6q47 0 81 -40t34 -89q0 -18 -5 -34.5t-11 -28t-20.5 -20.5t-23 -13t-29 -9.5t-27.5 -7.5t-30.5 -5t-25.5 -3q-172 -29 -258 -41z " />
<glyph unicode="&#xce;" horiz-adv-x="892" d="M68 0v96h233v1213h-233v96q84 -6 378.5 -6t378.5 6v-96h-233v-1213h233v-96q-84 6 -378.5 6t-378.5 -6zM125 1587l322 256l321 -256l-57 -80l-264 166l-264 -166z" />
<glyph unicode="&#xcf;" horiz-adv-x="892" d="M57 1671q0 61 46.5 110.5t113.5 49.5q63 0 111.5 -46t48.5 -114q0 -61 -46 -110.5t-114 -49.5q-63 0 -111.5 46t-48.5 114zM68 0v96h233v1213h-233v96q84 -6 378.5 -6t378.5 6v-96h-233v-1213h233v-96q-84 6 -378.5 6t-378.5 -6zM514 1671q0 61 46 109.5t114 48.5 q63 0 111.5 -46t48.5 -114q0 -61 -46.5 -109.5t-113.5 -48.5q-70 0 -115 48.5t-45 111.5z" />
<glyph unicode="&#xd0;" horiz-adv-x="1806" d="M80 0v98h221v543h-164q-57 0 -57 49q0 47 57 47h164v570h-221v98h829q371 0 566 -191q201 -195 200 -522q0 -301 -175 -482t-456 -206q-45 -4 -135 -4h-829zM582 98h270q287 0 416 152q104 125 104 401v70q0 61 -2 107t-14.5 111t-31.5 112t-58 98t-93.5 83t-136.5 53.5 t-186 21.5h-268v-570h348q61 0 61 -49q0 -47 -61 -47h-348v-543z" />
<glyph unicode="&#xd1;" horiz-adv-x="1843" d="M80 0v96h51q61 0 111 6q43 4 51 11.5t8 42.5v1153h-221v96h469q31 0 41 -4t26 -23l816 -958v829q0 35 -8.5 42t-53.5 12q-55 6 -108 6h-52v96q84 -6 277 -6q197 0 274 6v-96h-51q-61 0 -111 -6q-43 -4 -51 -11.5t-8 -42.5v-1183q0 -41 -8 -53.5t-47 -12.5q-25 0 -32 4 t-23 23l-1020 1200v-1071q0 -35 8 -42.5t53 -11.5q55 -6 109 -6h51v-96q-84 6 -277 6q-196 0 -274 -6zM463 1663q10 10 34.5 35.5t34 35t30 28t30.5 25.5t29.5 18.5t35 15.5t37 7t45.5 3q68 0 203 -35t205 -35q102 0 180 70l51 -53q-12 -12 -39.5 -41t-38 -39t-33 -29.5 t-36.5 -26t-35.5 -16.5t-44.5 -13t-49 -3q-70 0 -203 34.5t-203 34.5q-98 0 -180 -69z" />
<glyph unicode="&#xd2;" horiz-adv-x="1767" d="M131 694q0 328 204 530.5t550 202.5q340 0 545.5 -200.5t205.5 -532.5q0 -319 -202.5 -518t-550.5 -199q-344 0 -548 197.5t-204 519.5zM444 725q0 -291 84 -449q59 -109 156.5 -161t198.5 -52q225 0 346 195q94 156 94 467q0 283 -86 428q-59 96 -154.5 144.5 t-199.5 48.5q-98 0 -190.5 -44.5t-151.5 -132.5q-97 -149 -97 -444zM631 1663q0 49 33.5 89t80.5 40q27 0 58 -16.5t164 -100.5q78 -49 129 -82l-35 -92q-49 6 -135 20.5t-174 28.5q-121 17 -121 113z" />
<glyph unicode="&#xd3;" horiz-adv-x="1767" d="M131 694q0 328 204 530.5t550 202.5q340 0 545.5 -200.5t205.5 -532.5q0 -319 -202.5 -518t-550.5 -199q-344 0 -548 197.5t-204 519.5zM444 725q0 -291 84 -449q59 -109 156.5 -161t198.5 -52q225 0 346 195q94 156 94 467q0 283 -86 428q-59 96 -154.5 144.5 t-199.5 48.5q-98 0 -190.5 -44.5t-151.5 -132.5q-97 -149 -97 -444zM670 1594q291 184 309 192q18 6 39 6h2q47 0 81 -39.5t34 -89.5q0 -16 -3 -31.5t-11.5 -25.5t-14.5 -19.5t-21.5 -15.5t-21.5 -10t-26.5 -8t-24.5 -5t-27 -5l-22 -2q-74 -12 -260 -39z" />
<glyph unicode="&#xd4;" horiz-adv-x="1767" d="M131 694q0 328 204 530.5t550 202.5q340 0 545.5 -200.5t205.5 -532.5q0 -319 -202.5 -518t-550.5 -199q-344 0 -548 197.5t-204 519.5zM444 725q0 -291 84 -449q59 -109 156.5 -161t198.5 -52q225 0 346 195q94 156 94 467q0 283 -86 428q-59 96 -154.5 144.5 t-199.5 48.5q-98 0 -190.5 -44.5t-151.5 -132.5q-97 -149 -97 -444zM561 1587l322 256h2l319 -256l-55 -80l-264 166h-2l-267 -166z" />
<glyph unicode="&#xd5;" horiz-adv-x="1767" d="M131 694q0 328 204 530.5t550 202.5q340 0 545.5 -200.5t205.5 -532.5q0 -319 -202.5 -518t-550.5 -199q-344 0 -548 197.5t-204 519.5zM426 1663q10 10 34.5 35.5t34 35t30 28t30.5 25.5t29.5 18.5t35 15.5t37 7t45.5 3q68 0 203 -35t203 -35q102 0 180 70l51 -53 q-12 -12 -39.5 -41t-38 -39t-33 -29.5t-36.5 -26t-35.5 -16.5t-44 -13t-49.5 -3q-68 0 -203 34.5t-203 34.5q-98 0 -180 -69zM444 725q0 -291 84 -449q59 -109 156.5 -161t198.5 -52q225 0 346 195q94 156 94 467q0 283 -86 428q-59 96 -154.5 144.5t-199.5 48.5 q-98 0 -190.5 -44.5t-151.5 -132.5q-97 -149 -97 -444z" />
<glyph unicode="&#xd6;" horiz-adv-x="1767" d="M131 694q0 328 204 530.5t550 202.5q340 0 545.5 -200.5t205.5 -532.5q0 -319 -202.5 -518t-550.5 -199q-344 0 -548 197.5t-204 519.5zM444 725q0 -291 84 -449q59 -109 156.5 -161t198.5 -52q225 0 346 195q94 156 94 467q0 283 -86 428q-59 96 -154.5 144.5 t-199.5 48.5q-98 0 -190.5 -44.5t-151.5 -132.5q-97 -149 -97 -444zM496 1671q0 66 46 113t111 47q63 0 111.5 -46t48.5 -114q0 -70 -49 -115t-111 -45q-63 0 -110 46t-47 114zM952 1671q0 63 45 111.5t113 48.5q63 0 111.5 -46t48.5 -113.5t-47 -114t-110.5 -46.5t-112 46 t-48.5 114z" />
<glyph unicode="&#xd8;" horiz-adv-x="1830" d="M129 696q0 330 214 530.5t568 200.5q203 0 404 -84l129 185h2l65 -47l-122 -181q147 -92 228 -251.5t81 -354.5q0 -324 -213 -520.5t-570 -196.5q-203 0 -403 82l-127 -182l-70 47l123 176q-102 63 -170.5 152.5t-95.5 181.5t-35 149.5t-8 112.5zM420 692 q0 -197 25.5 -293t80.5 -176l715 1016v2q-133 111 -328 111q-135 0 -242.5 -54.5t-166.5 -154.5q-84 -140 -84 -451zM584 162q143 -111 329 -111q285 0 412 205q82 133 82 412v28q0 207 -25.5 305.5t-81.5 176.5z" />
<glyph unicode="&#xd9;" horiz-adv-x="1810" d="M80 1309v96q78 -6 366.5 -6t366.5 6v-96h-221v-852q0 -51 3 -86t22.5 -96.5t54.5 -100.5t107.5 -69.5t174.5 -30.5q88 0 165 21.5t141.5 66.5t102.5 126t38 189v772q0 35 -8.5 42t-53.5 12q-55 6 -108 6h-51v96q84 -6 276 -6q197 0 275 6v-96h-52q-61 0 -110 -6 q-43 -4 -51.5 -11.5t-8.5 -42.5v-780q0 -205 -144 -348.5t-419 -143.5q-305 0 -475 140.5t-170 355.5v836h-221zM653 1663q0 49 34 89t81 40q27 0 57.5 -16.5t163.5 -100.5q78 -49 129 -82l-35 -92q-49 6 -135 20.5t-174 28.5q-121 17 -121 113z" />
<glyph unicode="&#xda;" horiz-adv-x="1810" d="M80 1309v96q78 -6 366.5 -6t366.5 6v-96h-221v-852q0 -51 3 -86t22.5 -96.5t54.5 -100.5t107.5 -69.5t174.5 -30.5q88 0 165 21.5t141.5 66.5t102.5 126t38 189v772q0 35 -8.5 42t-53.5 12q-55 6 -108 6h-51v96q84 -6 276 -6q197 0 275 6v-96h-52q-61 0 -110 -6 q-43 -4 -51.5 -11.5t-8.5 -42.5v-780q0 -205 -144 -348.5t-419 -143.5q-305 0 -475 140.5t-170 355.5v836h-221zM790 1594q291 184 309 192q18 6 39 6h2q47 0 81 -39.5t34 -89.5q0 -16 -3 -31.5t-11.5 -25.5t-14.5 -19.5t-21.5 -15.5t-21.5 -10t-26.5 -8t-24.5 -5t-27 -5 l-22 -2q-74 -12 -260 -39z" />
<glyph unicode="&#xdb;" horiz-adv-x="1810" d="M80 1309v96q78 -6 366.5 -6t366.5 6v-96h-221v-852q0 -51 3 -86t22.5 -96.5t54.5 -100.5t107.5 -69.5t174.5 -30.5q88 0 165 21.5t141.5 66.5t102.5 126t38 189v772q0 35 -8.5 42t-53.5 12q-55 6 -108 6h-51v96q84 -6 276 -6q197 0 275 6v-96h-52q-61 0 -110 -6 q-43 -4 -51.5 -11.5t-8.5 -42.5v-780q0 -205 -144 -348.5t-419 -143.5q-305 0 -475 140.5t-170 355.5v836h-221zM629 1587l321 256h2l322 -256l-57 -80l-265 166h-2l-266 -166z" />
<glyph unicode="&#xdc;" horiz-adv-x="1810" d="M80 1309v96q78 -6 366.5 -6t366.5 6v-96h-221v-852q0 -51 3 -86t22.5 -96.5t54.5 -100.5t107.5 -69.5t174.5 -30.5q88 0 165 21.5t141.5 66.5t102.5 126t38 189v772q0 35 -8.5 42t-53.5 12q-55 6 -108 6h-51v96q84 -6 276 -6q197 0 275 6v-96h-52q-61 0 -110 -6 q-43 -4 -51.5 -11.5t-8.5 -42.5v-780q0 -205 -144 -348.5t-419 -143.5q-305 0 -475 140.5t-170 355.5v836h-221zM518 1671q0 66 46 113t112 47q63 0 111.5 -46t48.5 -114q0 -70 -49.5 -115t-110.5 -45q-63 0 -110.5 46t-47.5 114zM975 1671q0 63 45 111.5t113 48.5 q63 0 111 -46t48 -114q0 -66 -46 -113t-111 -47q-63 0 -111.5 46t-48.5 114z" />
<glyph unicode="&#xdd;" horiz-adv-x="1779" d="M39 1309v96q72 -6 338 -6q291 0 375 6v-96h-174l415 -609l383 564q4 6 15 24q-53 20 -156 21v96q76 -6 270 -6q25 0 64 1t90 3t80 2v-96h-43q-53 0 -107 -6q-57 -8 -71 -23q-4 -6 -9 -12l-481 -707v-465h223v-96q-78 6 -362 6q-287 0 -361 -6v96h222v465l-510 748h-201z M774 1593q291 186 316 195q14 4 34 4q49 0 82 -41t33 -88q0 -18 -5 -34.5t-12.5 -28t-21.5 -20.5t-23.5 -14t-29 -9.5t-27.5 -6.5t-29.5 -5t-25.5 -3q-172 -29 -258 -41z" />
<glyph unicode="&#xde;" horiz-adv-x="1478" d="M80 0v98h221v1209h-221v98q184 -6 369 -6h8q143 0 336 6v-98h-222v-150h283q137 0 238.5 -38t153.5 -100.5t77 -127t25 -131.5q0 -164 -113 -268.5t-297 -122.5q-39 -4 -117 -4h-250v-267h222v-98q-182 6 -367 6q-172 0 -346 -6zM571 463h197q152 0 214 87t62 212 q0 119 -54 208t-183 89h-236v-596z" />
<glyph unicode="&#xdf;" horiz-adv-x="1222" d="M72 0v98h143v715h-143v98h143v179q0 8 -1 22t-1 21q0 301 401 301q344 0 344 -295q0 -88 -13 -147.5t-37.5 -84t-44 -35t-49.5 -13.5t-36 -5q-66 -20 -65 -117q0 -123 127 -141q51 -8 76.5 -14.5t79 -37t89.5 -79.5q57 -80 58 -178q0 -121 -71 -209t-238 -88 q-80 0 -146 43q-61 -43 -86 -43q-35 0 -35 47v235q2 27 11.5 38.5t37.5 11.5q27 0 37.5 -11.5t14.5 -36.5q20 -111 56 -161t110 -50q90 0 126.5 44.5t36.5 107.5q0 96 -92 141q-20 10 -95 23.5t-120 42.5q-123 78 -123 240q0 117 58.5 186.5t177.5 77.5q23 2 32 12t17 54 t8 134q0 49 -5 80t-25.5 71t-74 60.5t-134.5 20.5q-63 0 -103.5 -17.5t-57 -54.5t-20.5 -65.5t-4 -77.5v-1143l-80 6z" />
<glyph unicode="&#xe0;" horiz-adv-x="1144" d="M66 221q0 293 665 322v69q0 242 -225 242q-80 0 -148 -14q45 -31 45 -101q0 -61 -38.5 -95t-90.5 -34q-47 0 -87 34t-40 95q0 188 367 189q221 0 336 -86t115 -230v-440q0 -29 4 -41t32.5 -23.5t88.5 -11.5q18 0 26 -2t17.5 -12t9.5 -33q0 -33 -14.5 -41t-51.5 -8h-98 q-76 0 -123 14.5t-64.5 43t-21.5 48t-4 52.5q-88 -170 -305 -170q-61 0 -123 9t-127.5 32.5t-105 72.5t-39.5 119zM305 223q0 -68 54.5 -115t132.5 -47q27 0 60.5 8.5t77.5 29t72.5 69.5t28.5 117v194q-45 -2 -85 -7t-107.5 -22.5t-114.5 -42t-83 -73t-36 -111.5zM360 1227 q0 49 36 89t85 40q8 0 15.5 -1t13.5 -2t14 -6.5t14.5 -9.5t18.5 -13t21.5 -17.5t27 -24.5t32.5 -30.5t41.5 -39t49.5 -45.5l80 -73l-51 -82q-47 16 -127 43q-184 61 -227.5 88t-43.5 84z" />
<glyph unicode="&#xe1;" horiz-adv-x="1144" d="M66 221q0 293 665 322v69q0 242 -225 242q-80 0 -148 -14q45 -31 45 -101q0 -61 -38.5 -95t-90.5 -34q-47 0 -87 34t-40 95q0 188 367 189q221 0 336 -86t115 -230v-440q0 -29 4 -41t32.5 -23.5t88.5 -11.5q18 0 26 -2t17.5 -12t9.5 -33q0 -33 -14.5 -41t-51.5 -8h-98 q-76 0 -123 14.5t-64.5 43t-21.5 48t-4 52.5q-88 -170 -305 -170q-61 0 -123 9t-127.5 32.5t-105 72.5t-39.5 119zM305 223q0 -68 54.5 -115t132.5 -47q27 0 60.5 8.5t77.5 29t72.5 69.5t28.5 117v194q-45 -2 -85 -7t-107.5 -22.5t-114.5 -42t-83 -73t-36 -111.5zM365 1096 q242 223 266 239q29 20 61 21q49 0 85 -40t36 -89q0 -57 -42 -83t-226 -87q-80 -29 -129 -45z" />
<glyph unicode="&#xe2;" horiz-adv-x="1144" d="M66 221q0 293 665 322v69q0 242 -225 242q-80 0 -148 -14q45 -31 45 -101q0 -61 -38.5 -95t-90.5 -34q-47 0 -87 34t-40 95q0 188 367 189q221 0 336 -86t115 -230v-440q0 -29 4 -41t32.5 -23.5t88.5 -11.5q18 0 26 -2t17.5 -12t9.5 -33q0 -33 -14.5 -41t-51.5 -8h-98 q-76 0 -123 14.5t-64.5 43t-21.5 48t-4 52.5q-88 -170 -305 -170q-61 0 -123 9t-127.5 32.5t-105 72.5t-39.5 119zM196 1044l326 304h2l323 -304l-63 -73l-260 209h-2l-262 -209zM305 223q0 -68 54.5 -115t132.5 -47q27 0 60.5 8.5t77.5 29t72.5 69.5t28.5 117v194 q-45 -2 -85 -7t-107.5 -22.5t-114.5 -42t-83 -73t-36 -111.5z" />
<glyph unicode="&#xe3;" horiz-adv-x="1144" d="M66 221q0 293 665 322v69q0 242 -225 242q-80 0 -148 -14q45 -31 45 -101q0 -61 -38.5 -95t-90.5 -34q-47 0 -87 34t-40 95q0 188 367 189q221 0 336 -86t115 -230v-440q0 -29 4 -41t32.5 -23.5t88.5 -11.5q18 0 26 -2t17.5 -12t9.5 -33q0 -33 -14.5 -41t-51.5 -8h-98 q-76 0 -123 14.5t-64.5 43t-21.5 48t-4 52.5q-88 -170 -305 -170q-61 0 -123 9t-127.5 32.5t-105 72.5t-39.5 119zM123 1124q10 10 43.5 48t41 45.5t33 30t41 27.5t39 12t49.5 7q57 0 164 -34.5t164 -34.5q49 0 80 15t74 54l55 -51q-12 -12 -44 -47t-41 -44t-34.5 -31.5 t-41 -28t-39 -12.5t-50.5 -7q-57 0 -162.5 35t-163.5 35q-49 0 -80.5 -15.5t-74.5 -54.5zM305 223q0 -68 54.5 -115t132.5 -47q27 0 60.5 8.5t77.5 29t72.5 69.5t28.5 117v194q-45 -2 -85 -7t-107.5 -22.5t-114.5 -42t-83 -73t-36 -111.5z" />
<glyph unicode="&#xe4;" horiz-adv-x="1144" d="M66 221q0 293 665 322v69q0 242 -225 242q-80 0 -148 -14q45 -31 45 -101q0 -61 -38.5 -95t-90.5 -34q-47 0 -87 34t-40 95q0 188 367 189q221 0 336 -86t115 -230v-440q0 -29 4 -41t32.5 -23.5t88.5 -11.5q18 0 26 -2t17.5 -12t9.5 -33q0 -33 -14.5 -41t-51.5 -8h-98 q-76 0 -123 14.5t-64.5 43t-21.5 48t-4 52.5q-88 -170 -305 -170q-61 0 -123 9t-127.5 32.5t-105 72.5t-39.5 119zM199 1245q0 61 46 110.5t113 49.5q63 0 110.5 -46t47.5 -114q0 -66 -46 -113t-111.5 -47t-112.5 45t-47 115zM305 223q0 -68 54.5 -115t132.5 -47 q27 0 60.5 8.5t77.5 29t72.5 69.5t28.5 117v194q-45 -2 -85 -7t-107.5 -22.5t-114.5 -42t-83 -73t-36 -111.5zM657 1245q0 66 46.5 113t111.5 47q63 0 111.5 -46t48.5 -114q0 -70 -49 -115t-111 -45q-63 0 -110.5 46t-47.5 114z" />
<glyph unicode="&#xe5;" horiz-adv-x="1144" d="M66 221q0 293 665 322v69q0 242 -225 242q-80 0 -148 -14q45 -31 45 -101q0 -61 -38.5 -95t-90.5 -34q-47 0 -87 34t-40 95q0 188 367 189q221 0 336 -86t115 -230v-440q0 -29 4 -41t32.5 -23.5t88.5 -11.5q18 0 26 -2t17.5 -12t9.5 -33q0 -33 -14.5 -41t-51.5 -8h-98 q-76 0 -123 14.5t-64.5 43t-21.5 48t-4 52.5q-88 -170 -305 -170q-61 0 -123 9t-127.5 32.5t-105 72.5t-39.5 119zM276 1175.5q0 67.5 58.5 123t187.5 55.5t186.5 -55.5t57.5 -123t-58.5 -123t-189.5 -55.5q-127 0 -184.5 55.5t-57.5 123zM305 223q0 -68 54.5 -115 t132.5 -47q27 0 60.5 8.5t77.5 29t72.5 69.5t28.5 117v194q-45 -2 -85 -7t-107.5 -22.5t-114.5 -42t-83 -73t-36 -111.5zM375 1176q0 -37 11 -59.5t34.5 -33t43 -12.5t52.5 -2q37 0 58.5 2t46 12.5t36 33t11.5 59.5q0 59 -32 82.5t-110 23.5q-76 0 -113.5 -20t-37.5 -86z " />
<glyph unicode="&#xe6;" horiz-adv-x="1699" d="M76 211q0 51 26.5 96t93 91t204 76t333.5 34v86q0 145 -69 207q-57 51 -152 51q-80 0 -154 -12q43 -43 43 -101q0 -55 -36.5 -91t-90.5 -36q-51 0 -90 34t-39 95q2 186 367 187q242 0 373 -115q133 115 342 115q117 0 200.5 -39t126.5 -104.5t61.5 -134t18.5 -144.5 q0 -27 -9 -41t-20.5 -16.5t-33.5 -2.5h-604q10 -375 305 -374q88 0 157.5 43t100.5 114q2 2 4 7.5t3 8.5t3 7t4 6t5 6t6.5 5t8.5 3t10 3t11 1q47 0 47 -38q0 -23 -21.5 -61t-62.5 -82t-119.5 -74.5t-177.5 -30.5q-227 0 -377 131q-125 -131 -409 -131q-98 0 -179 16.5 t-145.5 68.5t-64.5 136zM317 213q0 -66 51.5 -108t127.5 -42q111 0 193.5 57.5t82.5 133.5q0 10 -16.5 59t-22.5 127q-221 -12 -323 -78q-93 -59 -93 -149zM967 514h473q-2 66 -10.5 112t-29 104t-65.5 90t-112 32q-125 0 -195 -98q-57 -82 -61 -240z" />
<glyph unicode="&#xe7;" horiz-adv-x="1046" d="M78 455q0 84 26.5 162.5t84 150.5t162 116t245.5 44q358 0 358 -189q0 -57 -37.5 -92t-91 -35t-90.5 35t-37 90q0 51 39 99q-53 8 -137 8q-193 0 -244 -197q-16 -66 -16 -203q0 -113 27.5 -191.5t73.5 -115.5t91.5 -51t94.5 -14q84 0 150.5 42t99.5 117q14 37 51 37 q49 0 49 -30q0 -47 -71.5 -130t-200.5 -108v-61q197 -35 196 -164q0 -43 -24.5 -75t-73.5 -51.5t-98.5 -31.5t-128 -17.5t-131 -6.5t-134.5 -1h-37v74h56q336 0 336 107q0 102 -195 104v121q-16 2 -43 8t-94.5 36t-118.5 75t-94 134t-43 204z" />
<glyph unicode="&#xe8;" horiz-adv-x="1079" d="M66 461q0 201 134 334t371 133q211 0 326 -111q115 -115 115 -315q0 -39 -13.5 -47.5t-52.5 -8.5h-618q0 -377 290 -376q100 0 180.5 45t112.5 118q10 27 18.5 35t33.5 8q49 0 49 -36q0 -14 -11.5 -40t-41 -64t-73.5 -70.5t-119 -55t-167 -22.5q-244 0 -389 132t-145 341 zM328 514h489q-10 340 -246 340q-125 0 -194 -106q-41 -64 -49 -234zM377 1227q0 49 34.5 88t84.5 41h2q8 0 15 -1t13 -2t14.5 -6.5t14.5 -8.5t18.5 -13t21.5 -18.5t26.5 -24.5t32 -29.5t41 -38t48.5 -45.5q53 -49 80 -75l-49 -82q-305 104 -336 121q-57 43 -61 94z" />
<glyph unicode="&#xe9;" horiz-adv-x="1079" d="M66 461q0 201 134 334t371 133q211 0 326 -111q115 -115 115 -315q0 -39 -13.5 -47.5t-52.5 -8.5h-618q0 -377 290 -376q100 0 180.5 45t112.5 118q10 27 18.5 35t33.5 8q49 0 49 -36q0 -14 -11.5 -40t-41 -64t-73.5 -70.5t-119 -55t-167 -22.5q-244 0 -389 132t-145 341 zM315 1096q238 221 263 237q33 23 65 23q49 0 84 -40t35 -89q0 -57 -45 -84t-230 -90q-76 -25 -120 -41zM328 514h489q-10 340 -246 340q-125 0 -194 -106q-41 -64 -49 -234z" />
<glyph unicode="&#xea;" horiz-adv-x="1079" d="M66 461q0 201 134 334t371 133q211 0 326 -111q115 -115 115 -315q0 -39 -13.5 -47.5t-52.5 -8.5h-618q0 -377 290 -376q100 0 180.5 45t112.5 118q10 27 18.5 35t33.5 8q49 0 49 -36q0 -14 -11.5 -40t-41 -64t-73.5 -70.5t-119 -55t-167 -22.5q-244 0 -389 132t-145 341 zM211 1044l326 304h2l323 -304l-61 -71h-2l-260 207h-2l-261 -207h-2zM328 514h489q-10 340 -246 340q-125 0 -194 -106q-41 -64 -49 -234z" />
<glyph unicode="&#xeb;" horiz-adv-x="1079" d="M66 461q0 201 134 334t371 133q211 0 326 -111q115 -115 115 -315q0 -39 -13.5 -47.5t-52.5 -8.5h-618q0 -377 290 -376q100 0 180.5 45t112.5 118q10 27 18.5 35t33.5 8q49 0 49 -36q0 -14 -11.5 -40t-41 -64t-73.5 -70.5t-119 -55t-167 -22.5q-244 0 -389 132t-145 341 zM150 1245.5q0 63.5 45 111.5t112 48q63 0 111.5 -46t48.5 -113.5t-47 -114t-111 -46.5q-70 0 -114.5 48.5t-44.5 112zM328 514h489q-10 340 -246 340q-125 0 -194 -106q-41 -64 -49 -234zM606 1245q0 66 47 113t113 47q63 0 111.5 -46t48.5 -114q0 -61 -46 -110.5 t-114 -49.5q-63 0 -111.5 46t-48.5 114z" />
<glyph unicode="&#xec;" horiz-adv-x="653" d="M-9 1227q0 49 36 89t85 40q8 0 15.5 -1t13.5 -2t14 -6.5t14.5 -9.5t18.5 -13t21.5 -17.5t27 -24.5t32.5 -30.5t41.5 -39t49.5 -45.5l80 -73l-51 -82q-47 16 -127 43q-184 61 -227.5 88t-43.5 84zM96 0v96h142v633q0 57 -20.5 68.5t-115.5 11.5v96l357 17v-826h127v-96 q-221 6 -240 6q-60 0 -250 -6z" />
<glyph unicode="&#xed;" horiz-adv-x="653" d="M96 0v96h142v633q0 57 -20.5 68.5t-115.5 11.5v96l357 17v-826h127v-96q-221 6 -240 6q-60 0 -250 -6zM193 1096q242 223 266 239q29 20 61 21q51 0 85 -41t34 -88q0 -57 -42 -83t-224 -87q-80 -29 -129 -45z" />
<glyph unicode="&#xee;" horiz-adv-x="653" d="M22 1044l326 304h2l323 -304l-63 -73l-260 209h-2l-262 -209zM96 0v96h142v633q0 57 -20.5 68.5t-115.5 11.5v96l357 17v-826h127v-96q-221 6 -240 6q-60 0 -250 -6z" />
<glyph unicode="&#xef;" horiz-adv-x="784" d="M27 1245q0 61 46 110.5t113 49.5q63 0 110.5 -46t47.5 -114q0 -66 -46 -113t-111.5 -47t-112.5 45t-47 115zM162 0v98h141v637q0 45 -21.5 58.5t-95.5 13.5h-18v98l358 17v-824h127v-98q-127 6 -225 6h-8q-129 0 -258 -6zM485 1245q0 66 46.5 113t111.5 47 q63 0 111.5 -46t48.5 -114q0 -70 -49 -115t-111 -45q-63 0 -110.5 46t-47.5 114z" />
<glyph unicode="&#xf0;" d="M63 449q0 223 147.5 351t367.5 128q123 0 227 -86q-66 174 -219 321h-2q-160 -100 -189 -100q-14 0 -24 18q-10 16 -13 31q0 16 18.5 28.5t135.5 80.5q-158 98 -291 120q-51 8 -51 33q0 49 109 49q100 0 191 -25.5t143.5 -50t60.5 -24.5q16 0 96 47t94 47 q16 0 29.5 -15.5t13.5 -31.5q0 -10 -4 -17t-38 -30t-105 -59q86 -66 141 -127q209 -229 209 -535v-119q0 -141 -48 -242.5t-129 -153.5t-166 -74.5t-181 -22.5q-238 0 -380.5 126t-142.5 333zM326 440q0 -61 4 -103t20.5 -100.5t58.5 -98.5t105 -56q41 -10 72 -10 q113 0 184 73q78 82 78 301q0 121 -25.5 206t-67.5 126t-84 57.5t-87 16.5q-117 0 -189 -80q-66 -74 -69 -258v-74z" />
<glyph unicode="&#xf1;" horiz-adv-x="1306" d="M92 0v96h141v633q0 57 -21.5 68.5t-119.5 11.5v96l352 17v-222q113 221 359 222q158 0 236.5 -69t78.5 -226v-531h142v-96q-172 6 -258.5 6t-258.5 -6v96h142v553q0 111 -29 155t-84 44q-113 0 -209 -85t-96 -239v-428h141v-96q-172 6 -258 6t-258 -6zM285 1124 q10 10 43.5 48t41 45.5t33 30t41 27.5t39 12t49.5 7q57 0 164 -34.5t164 -34.5q49 0 80 15t74 54l55 -51q-12 -12 -44 -47t-41 -44t-34.5 -31.5t-41 -28t-39 -12.5t-50.5 -7q-57 0 -162.5 35t-163.5 35q-49 0 -80.5 -15.5t-74.5 -54.5z" />
<glyph unicode="&#xf2;" d="M66 446q0 211 138 346.5t384 135.5q244 0 383 -135.5t139 -346.5q0 -199 -137 -328.5t-385 -129.5t-385 129.5t-137 328.5zM328 469q0 -61 1 -93t8 -88.5t23.5 -87t44 -65.5t73.5 -50t109.5 -15t109.5 15t74 50t44 65.5t23.5 87t8.5 88.5t1 93q0 211 -43 281 q-66 104 -217 104q-164 0 -226 -119q-34 -69 -34 -266zM360 1227q0 49 36 89t85 40q8 0 15.5 -1t13.5 -2t14 -6.5t14.5 -9.5t18.5 -13t21.5 -17.5t27 -24.5t32.5 -30.5t41.5 -39t49.5 -45.5l80 -73l-51 -82q-47 16 -127 43q-184 61 -227.5 88t-43.5 84z" />
<glyph unicode="&#xf3;" d="M66 446q0 211 138 346.5t384 135.5q244 0 383 -135.5t139 -346.5q0 -199 -137 -328.5t-385 -129.5t-385 129.5t-137 328.5zM328 469q0 -61 1 -93t8 -88.5t23.5 -87t44 -65.5t73.5 -50t109.5 -15t109.5 15t74 50t44 65.5t23.5 87t8.5 88.5t1 93q0 211 -43 281 q-66 104 -217 104q-164 0 -226 -119q-34 -69 -34 -266zM365 1096q242 223 266 239q29 20 61 21q49 0 85 -40t36 -89q0 -57 -42 -83t-226 -87q-80 -29 -129 -45z" />
<glyph unicode="&#xf4;" d="M66 446q0 211 138 346.5t384 135.5q244 0 383 -135.5t139 -346.5q0 -199 -137 -328.5t-385 -129.5t-385 129.5t-137 328.5zM260 1044l326 304h2l323 -304l-63 -73l-260 209h-2l-262 -209zM328 469q0 -61 1 -93t8 -88.5t23.5 -87t44 -65.5t73.5 -50t109.5 -15t109.5 15 t74 50t44 65.5t23.5 87t8.5 88.5t1 93q0 211 -43 281q-66 104 -217 104q-164 0 -226 -119q-34 -69 -34 -266z" />
<glyph unicode="&#xf5;" d="M66 446q0 211 138 346.5t384 135.5q244 0 383 -135.5t139 -346.5q0 -199 -137 -328.5t-385 -129.5t-385 129.5t-137 328.5zM195 1124q10 10 43.5 48t41 45.5t33 30t41 27.5t39 12t49.5 7q57 0 164 -34.5t164 -34.5q49 0 80 15t74 54l55 -51q-12 -12 -44 -47t-41 -44 t-34.5 -31.5t-41 -28t-39 -12.5t-50.5 -7q-57 0 -162.5 35t-163.5 35q-49 0 -80.5 -15.5t-74.5 -54.5zM328 469q0 -61 1 -93t8 -88.5t23.5 -87t44 -65.5t73.5 -50t109.5 -15t109.5 15t74 50t44 65.5t23.5 87t8.5 88.5t1 93q0 211 -43 281q-66 104 -217 104q-164 0 -226 -119 q-34 -69 -34 -266z" />
<glyph unicode="&#xf6;" d="M66 446q0 211 138 346.5t384 135.5q244 0 383 -135.5t139 -346.5q0 -199 -137 -328.5t-385 -129.5t-385 129.5t-137 328.5zM199 1245q0 61 46 110.5t113 49.5q63 0 110.5 -46t47.5 -114q0 -66 -46 -113t-111.5 -47t-112.5 45t-47 115zM328 469q0 -61 1 -93t8 -88.5 t23.5 -87t44 -65.5t73.5 -50t109.5 -15t109.5 15t74 50t44 65.5t23.5 87t8.5 88.5t1 93q0 211 -43 281q-66 104 -217 104q-164 0 -226 -119q-34 -69 -34 -266zM657 1245q0 66 46.5 113t111.5 47q63 0 111.5 -46t48.5 -114q0 -70 -49 -115t-111 -45q-63 0 -110.5 46 t-47.5 114z" />
<glyph unicode="&#xf7;" horiz-adv-x="1830" d="M131 512q0 49 51 59q8 2 51 2h1375q33 0 39 -2q49 -12 49 -59q0 -61 -84 -61h-1403q-78 0 -78 61zM721 10q0 82 57.5 137.5t134.5 55.5q84 0 138.5 -58.5t54.5 -134.5q0 -82 -57.5 -137t-135 -55t-135 55t-57.5 137zM721 1012q0 82 57.5 137t134.5 55q84 0 138.5 -58.5 t54.5 -133.5q0 -82 -57.5 -137.5t-135 -55.5t-135 55.5t-57.5 137.5z" />
<glyph unicode="&#xf8;" d="M63 449q0 211 140.5 345t382.5 134q117 0 227 -39l148 239h2l61 -38v-3l-143 -229q74 -41 124 -99.5t70.5 -119.5t27.5 -105.5t7 -84.5q0 -209 -142.5 -334t-381.5 -125q-123 0 -224 35l-149 -244l-63 39v2l143 231q-72 39 -121 94.5t-70.5 113.5t-30 102.5t-8.5 85.5z M297 428q0 -188 61 -270l402 647q-84 47 -174 47q-156 0 -230 -100q-59 -80 -59 -297v-27zM414 106q76 -43 174 -43q82 0 140 28t86 62.5t43 93t17.5 92.5t2.5 87v47q0 63 -2.5 100t-16.5 86.5t-41 92.5h-2z" />
<glyph unicode="&#xf9;" horiz-adv-x="1306" d="M92 809v96l375 17v-699q0 -94 26.5 -128t137.5 -34q113 0 183.5 76t70.5 201v391q0 57 -21.5 68.5t-120.5 11.5v96l375 17v-746q0 -57 21.5 -68.5t120.5 -11.5v-96l-363 -12v159q-94 -160 -295 -159q-174 0 -271.5 56t-97.5 208v477q0 57 -21.5 68.5t-119.5 11.5z M417 1227q0 49 36 89t85 40q8 0 15.5 -1t13.5 -2t14 -6.5t14.5 -9.5t18.5 -13t21.5 -17.5t27 -24.5t32.5 -30.5t41.5 -39t49.5 -45.5l80 -73l-51 -82q-47 16 -127 43q-184 61 -227.5 88t-43.5 84z" />
<glyph unicode="&#xfa;" horiz-adv-x="1306" d="M92 809v96l375 17v-699q0 -94 26.5 -128t137.5 -34q113 0 183.5 76t70.5 201v391q0 57 -21.5 68.5t-120.5 11.5v96l375 17v-746q0 -57 21.5 -68.5t120.5 -11.5v-96l-363 -12v159q-94 -160 -295 -159q-174 0 -271.5 56t-97.5 208v477q0 57 -21.5 68.5t-119.5 11.5z M455 1096q242 223 266 239q29 20 61 21q51 0 85 -41t34 -88q0 -57 -42 -83t-224 -87q-80 -29 -129 -45z" />
<glyph unicode="&#xfb;" horiz-adv-x="1306" d="M92 809v96l375 17v-699q0 -94 26.5 -128t137.5 -34q113 0 183.5 76t70.5 201v391q0 57 -21.5 68.5t-120.5 11.5v96l375 17v-746q0 -57 21.5 -68.5t120.5 -11.5v-96l-363 -12v159q-94 -160 -295 -159q-174 0 -271.5 56t-97.5 208v477q0 57 -21.5 68.5t-119.5 11.5z M348 1044l326 304h2l323 -304l-63 -73l-260 209h-2l-262 -209z" />
<glyph unicode="&#xfc;" horiz-adv-x="1306" d="M92 809v96l375 17v-699q0 -94 26.5 -128t137.5 -34q113 0 183.5 76t70.5 201v391q0 57 -21.5 68.5t-120.5 11.5v96l375 17v-746q0 -57 21.5 -68.5t120.5 -11.5v-96l-363 -12v159q-94 -160 -295 -159q-174 0 -271.5 56t-97.5 208v477q0 57 -21.5 68.5t-119.5 11.5z M289 1245q0 61 46 110.5t113 49.5q63 0 110.5 -46t47.5 -114q0 -66 -46 -113t-111.5 -47t-112.5 45t-47 115zM747 1245q0 66 46.5 113t111.5 47q63 0 111.5 -46t48.5 -114q0 -70 -49 -115t-111 -45q-63 0 -110.5 46t-47.5 114z" />
<glyph unicode="&#xfd;" horiz-adv-x="1241" d="M45 -221q0 57 35 88t82 31q51 0 85 -33t34 -84q0 -80 -66 -109q23 -8 49 -8q51 0 93 21.5t74 63.5t49.5 71.5t39.5 81.5l47 98l-383 813h-131v96q20 0 110.5 -3t123.5 -3q152 0 254 6v-96h-111l260 -553l236 504q10 10 10 24q0 25 -96 25v96q129 -6 186 -6q88 0 162 6 v-96q-63 0 -95 -5t-40.5 -12.5t-16.5 -25.5l-440 -936q-47 -100 -135 -172t-197 -72q-92 0 -155.5 55.5t-63.5 133.5zM530 1096q242 223 267 239q29 20 61 21q47 0 83 -40t36 -89q0 -57 -42 -83t-226 -87q-80 -29 -129 -45z" />
<glyph unicode="&#xfe;" horiz-adv-x="1308" d="M72 -301h143v1552q-2 45 -27.5 56.5t-101.5 11.5h-14v96l364 19v-613q141 100 314 101q209 0 343 -127t134 -338q0 -213 -143.5 -340t-368.5 -127q-145 0 -266 92v-383h141v-98q-135 6 -268 6q-23 0 -250 -6v98zM446 231q0 -53 76 -110.5t168 -57.5q106 0 190.5 91.5 t84.5 304.5q0 174 -69 276.5t-183 102.5q-88 0 -160 -41t-96 -80q-8 -12 -8 -41v-430q0 -2 -1.5 -6.5t-1.5 -8.5z" />
<glyph unicode="&#xff;" horiz-adv-x="1241" d="M45 -221q0 57 35 88t82 31q51 0 85 -33t34 -84q0 -80 -66 -109q23 -8 49 -8q51 0 93 21.5t74 63.5t49.5 71.5t39.5 81.5l47 98l-383 813h-131v96q20 0 110.5 -3t123.5 -3q152 0 254 6v-96h-111l260 -553l236 504q10 10 10 24q0 25 -96 25v96q129 -6 186 -6q88 0 162 6 v-96q-63 0 -95 -5t-40.5 -12.5t-16.5 -25.5l-440 -936q-47 -100 -135 -172t-197 -72q-92 0 -155.5 55.5t-63.5 133.5zM233 1245q0 70 48.5 115t109.5 45q63 0 111.5 -46t48.5 -114q0 -66 -46 -113t-112 -47q-63 0 -111.5 46t-48.5 114zM690 1245q0 66 46 113t112 47 q63 0 111.5 -46t48.5 -114q0 -63 -45 -111.5t-113 -48.5q-63 0 -111.5 46t-48.5 114z" />
<glyph unicode="&#x100;" horiz-adv-x="1779" d="M84 0v96h43q106 0 135 10.5t39 36.5l508 1233q8 23 14 32t21.5 15.5t44.5 6.5q23 0 33 -2.5t24.5 -14.5t24.5 -37l524 -1280h199v-96q-72 6 -334 6q-283 0 -361 -6v96h195l-123 299h-549l-102 -248q-8 -8 -8 -24q0 -27 182 -27v-96q-76 6 -270 6q-7 0 -240 -6zM412 1620 v105h954v-105h-954zM563 492h467l-233 569z" />
<glyph unicode="&#x101;" horiz-adv-x="1144" d="M66 221q0 293 665 322v69q0 242 -225 242q-80 0 -148 -14q45 -31 45 -101q0 -61 -38.5 -95t-90.5 -34q-47 0 -87 34t-40 95q0 188 367 189q221 0 336 -86t115 -230v-440q0 -29 4 -41t32.5 -23.5t88.5 -11.5q18 0 26 -2t17.5 -12t9.5 -33q0 -33 -14.5 -41t-51.5 -8h-98 q-76 0 -123 14.5t-64.5 43t-21.5 48t-4 52.5q-88 -170 -305 -170q-61 0 -123 9t-127.5 32.5t-105 72.5t-39.5 119zM88 1131v106h850v-106h-850zM305 223q0 -68 54.5 -115t132.5 -47q27 0 60.5 8.5t77.5 29t72.5 69.5t28.5 117v194q-45 -2 -85 -7t-107.5 -22.5t-114.5 -42 t-83 -73t-36 -111.5z" />
<glyph unicode="&#x102;" horiz-adv-x="1779" d="M84 0v96h43q106 0 135 10.5t39 36.5l508 1233q8 23 14 32t21.5 15.5t44.5 6.5q23 0 33 -2.5t24.5 -14.5t24.5 -37l524 -1280h199v-96q-72 6 -334 6q-283 0 -361 -6v96h195l-123 299h-549l-102 -248q-8 -8 -8 -24q0 -27 182 -27v-96q-76 6 -270 6q-7 0 -240 -6zM524 1831 h74q14 -156 287 -156q281 0 293 156h73q-6 -133 -112.5 -209t-249.5 -76q-139 0 -249 73t-116 212zM563 492h467l-233 569z" />
<glyph unicode="&#x103;" horiz-adv-x="1144" d="M66 221q0 293 665 322v69q0 242 -225 242q-80 0 -148 -14q45 -31 45 -101q0 -61 -38.5 -95t-90.5 -34q-47 0 -87 34t-40 95q0 188 367 189q221 0 336 -86t115 -230v-440q0 -29 4 -41t32.5 -23.5t88.5 -11.5q18 0 26 -2t17.5 -12t9.5 -33q0 -33 -14.5 -41t-51.5 -8h-98 q-76 0 -123 14.5t-64.5 43t-21.5 48t-4 52.5q-88 -170 -305 -170q-61 0 -123 9t-127.5 32.5t-105 72.5t-39.5 119zM221 1337h74q4 -61 39 -104t85 -61.5t90 -25.5t77 -7q51 0 106.5 11t115.5 59t67 128h73q-6 -152 -114.5 -238.5t-247.5 -86.5q-143 0 -252 89t-113 236z M305 223q0 -68 54.5 -115t132.5 -47q27 0 60.5 8.5t77.5 29t72.5 69.5t28.5 117v194q-45 -2 -85 -7t-107.5 -22.5t-114.5 -42t-83 -73t-36 -111.5z" />
<glyph unicode="&#x104;" horiz-adv-x="1779" d="M82 0v98q137 0 171 9.5t50 46.5l502 1218q14 33 29.5 45.5t52.5 12.5t54 -13.5t32 -48.5l522 -1270h199v-98q-8 0 -91 2t-106 2q-47 0 -84 -37q-51 -51 -51 -106q0 -53 41 -97.5t92 -44.5q27 0 56.5 20.5t41.5 20.5q14 0 34 -14t20 -33q0 -37 -65.5 -85t-145.5 -48 q-98 0 -168 64.5t-70 150.5q0 106 115 211l-316 -6v98h195l-123 295h-549q-104 -254 -104 -266q0 -29 176 -29v-98q-135 6 -273 6q-94 0 -237 -6zM561 492h469l-233 569z" />
<glyph unicode="&#x105;" horiz-adv-x="1144" d="M63 223q0 90 67 155.5t174.5 99.5t213 49.5t213.5 15.5v55q0 254 -221 254q-80 0 -154 -12q45 -49 45 -101q0 -55 -37.5 -91t-91.5 -36q-55 0 -91 37t-36 92q0 186 369 187q106 0 188 -21.5t127 -50.5t76 -68.5t41 -66.5t15 -53q4 -25 4 -74v-404q0 -39 2 -47 q10 -37 83.5 -43t82.5 -20q10 -16 10 -31q0 -33 -17.5 -41t-50.5 -8h-94q-55 0 -89 -47t-34 -90q0 -59 42 -100.5t87 -41.5q29 0 59.5 23t43.5 23q14 0 33.5 -15.5t19.5 -34.5q0 -33 -64.5 -85t-150.5 -52q-94 0 -164 62.5t-70 152.5q0 121 137 232q-33 20 -48 44.5t-16 37 t-3 51.5q-86 -170 -305 -170q-66 0 -128.5 10t-126 33.5t-102.5 72.5t-39 117zM305 225q0 -70 54.5 -116t132.5 -46q84 0 161.5 52.5t77.5 173.5v190q-315 -20 -399 -160q-27 -47 -27 -94z" />
<glyph unicode="&#x106;" horiz-adv-x="1699" d="M131 702.5q0 319.5 223.5 522t599.5 202.5q231 0 404 -139l135 121q20 18 39 18q25 0 31 -11t6 -46v-440q0 -41 -8.5 -49.5t-47.5 -8.5q-35 0 -43 6.5t-12 36.5q-33 190 -162 303t-299 113q-262 0 -417 -157q-135 -141 -136 -472q0 -307 121 -454q147 -174 439 -174 q174 0 316 104.5t153 294.5q2 25 12 30t35 5q29 0 39 -7t10 -36q0 -188 -171 -338t-444 -150q-377 0 -600 203t-223 522.5zM733 1594q291 184 309 192q18 6 39 6h2q47 0 81 -39.5t34 -89.5q0 -16 -3 -31.5t-11.5 -25.5t-14.5 -19.5t-21.5 -15.5t-21.5 -10t-26.5 -8t-24.5 -5 t-27 -5l-22 -2q-74 -12 -260 -39z" />
<glyph unicode="&#x107;" horiz-adv-x="1046" d="M78 455q0 197 130 335t388 138q356 0 356 -189q0 -61 -39 -95t-90 -34q-47 0 -87 34t-40 95q0 57 41 95q-53 12 -133 12q-76 0 -129 -31t-78.5 -68.5t-39 -100t-15.5 -96.5t-2 -85q0 -395 285 -395q186 0 256 168q8 20 15 25t34 5q49 0 49 -28q0 -8 -8 -32t-35 -63 t-68 -72.5t-115.5 -59t-166.5 -25.5q-233 0 -370.5 130t-137.5 337zM399 1096q238 221 263 237q33 23 65 23q49 0 84 -40t35 -89q0 -57 -44 -83t-229 -89q-78 -27 -124 -43z" />
<glyph unicode="&#x108;" horiz-adv-x="1699" d="M131 702.5q0 319.5 223.5 522t599.5 202.5q231 0 404 -139l135 121q20 18 39 18q25 0 31 -11t6 -46v-440q0 -41 -8.5 -49.5t-47.5 -8.5q-35 0 -43 6.5t-12 36.5q-33 190 -162 303t-299 113q-262 0 -417 -157q-135 -141 -136 -472q0 -307 121 -454q147 -174 439 -174 q174 0 316 104.5t153 294.5q2 25 12 30t35 5q29 0 39 -7t10 -36q0 -188 -171 -338t-444 -150q-377 0 -600 203t-223 522.5zM631 1587l322 256l321 -256l-57 -80l-264 166l-264 -166z" />
<glyph unicode="&#x109;" horiz-adv-x="1046" d="M78 455q0 197 130 335t388 138q356 0 356 -189q0 -61 -39 -95t-90 -34q-47 0 -87 34t-40 95q0 57 41 95q-53 12 -133 12q-76 0 -129 -31t-78.5 -68.5t-39 -100t-15.5 -96.5t-2 -85q0 -395 285 -395q186 0 256 168q8 20 15 25t34 5q49 0 49 -28q0 -8 -8 -32t-35 -63 t-68 -72.5t-115.5 -59t-166.5 -25.5q-233 0 -370.5 130t-137.5 337zM270 1044l326 304h2l323 -304l-63 -73l-260 209h-2l-262 -209z" />
<glyph unicode="&#x10a;" horiz-adv-x="1699" d="M131 702.5q0 319.5 223.5 522t599.5 202.5q231 0 404 -139l135 121q20 18 39 18q25 0 31 -11t6 -46v-440q0 -41 -8.5 -49.5t-47.5 -8.5q-35 0 -43 6.5t-12 36.5q-33 190 -162 303t-299 113q-262 0 -417 -157q-135 -141 -136 -472q0 -307 121 -454q147 -174 439 -174 q174 0 316 104.5t153 294.5q2 25 12 30t35 5q29 0 39 -7t10 -36q0 -188 -171 -338t-444 -150q-377 0 -600 203t-223 522.5zM792 1687.5q0 65.5 46 112.5t114 47q66 0 113 -47t47 -112.5t-47.5 -112.5t-112.5 -47q-68 0 -114 47t-46 112.5z" />
<glyph unicode="&#x10b;" horiz-adv-x="1046" d="M78 455q0 197 130 335t388 138q356 0 356 -189q0 -61 -39 -95t-90 -34q-47 0 -87 34t-40 95q0 57 41 95q-53 12 -133 12q-76 0 -129 -31t-78.5 -68.5t-39 -100t-15.5 -96.5t-2 -85q0 -395 285 -395q186 0 256 168q8 20 15 25t34 5q49 0 49 -28q0 -8 -8 -32t-35 -63 t-68 -72.5t-115.5 -59t-166.5 -25.5q-233 0 -370.5 130t-137.5 337zM437 1264q0 61 46 109t113 48q63 0 111.5 -46t48.5 -113q0 -61 -46 -109.5t-114 -48.5q-70 0 -114.5 48.5t-44.5 111.5z" />
<glyph unicode="&#x10c;" horiz-adv-x="1699" d="M131 702.5q0 319.5 223.5 522t599.5 202.5q231 0 404 -139l135 121q20 18 39 18q25 0 31 -11t6 -46v-440q0 -41 -8.5 -49.5t-47.5 -8.5q-35 0 -43 6.5t-12 36.5q-33 190 -162 303t-299 113q-262 0 -417 -157q-135 -141 -136 -472q0 -307 121 -454q147 -174 439 -174 q174 0 316 104.5t153 294.5q2 25 12 30t35 5q29 0 39 -7t10 -36q0 -188 -171 -338t-444 -150q-377 0 -600 203t-223 522.5zM657 1798l25 53q317 -88 324 -88h2q2 0 319 88l25 -53q-113 -74 -236 -158q-100 -68 -110 -67q-12 0 -113 67q-123 84 -236 158z" />
<glyph unicode="&#x10d;" horiz-adv-x="1046" d="M78 455q0 197 130 335t388 138q356 0 356 -189q0 -61 -39 -95t-90 -34q-47 0 -87 34t-40 95q0 57 41 95q-53 12 -133 12q-76 0 -129 -31t-78.5 -68.5t-39 -100t-15.5 -96.5t-2 -85q0 -395 285 -395q186 0 256 168q8 20 15 25t34 5q49 0 49 -28q0 -8 -8 -32t-35 -63 t-68 -72.5t-115.5 -59t-166.5 -25.5q-233 0 -370.5 130t-137.5 337zM240 1313v2l34 45h2q307 -176 316 -176h2q10 0 313 176h2l37 -45v-2l-352 -350h-2z" />
<glyph unicode="&#x10e;" horiz-adv-x="1804" d="M80 0v96h221v1213h-221v96h881q311 0 511.5 -192.5t200.5 -522.5q0 -322 -199.5 -506t-510.5 -184h-883zM436 1798l25 53q317 -88 323 -88h2q2 0 320 88l24 -53q-113 -74 -235 -158q-100 -68 -111 -67q-12 0 -112 67q-123 84 -236 158zM580 96h299q283 0 403 172 q49 70 69.5 164t20.5 260q0 305 -88 434q-127 182 -405 183h-299v-1213z" />
<glyph unicode="&#x10f;" horiz-adv-x="1658" d="M78 453q0 213 143.5 341t370.5 128q158 0 276 -93v400q0 57 -21.5 68.5t-119.5 11.5v96l363 16v-1245q0 -57 21.5 -68.5t119.5 -11.5v-96l-375 -12v100q-125 -100 -287 -100q-225 0 -358 130t-133 335zM340 453q0 -51 1 -81t7 -83t22.5 -87t43 -70t71.5 -53.5t105 -17.5 q158 0 266 150v512q-94 125 -244 125q-145 0 -219 -107q-53 -79 -53 -288zM1184 1384.5q0 67.5 44 113.5t113 46q76 0 135.5 -57t59.5 -156q0 -152 -97.5 -260t-152.5 -108q-14 0 -25.5 12t-11.5 26.5t25.5 32t57.5 38t68 72.5t54 124q-53 -43 -111 -43q-72 0 -115.5 46 t-43.5 113.5z" />
<glyph unicode="&#x110;" horiz-adv-x="1806" d="M80 0v98h221v543h-164q-57 0 -57 49q0 47 57 47h164v570h-221v98h829q371 0 566 -191q201 -195 200 -522q0 -301 -175 -482t-456 -206q-45 -4 -135 -4h-829zM582 98h270q287 0 416 152q104 125 104 401v70q0 61 -2 107t-14.5 111t-31.5 112t-58 98t-93.5 83t-136.5 53.5 t-186 21.5h-268v-570h348q61 0 61 -49q0 -47 -61 -47h-348v-543z" />
<glyph unicode="&#x111;" horiz-adv-x="1308" d="M78 455q0 211 141 339t373 128q152 0 276 -93v236h-456v98h456v49q0 63 -18.5 79t-106.5 16h-18v98l367 16v-258h104v-98h-104v-901q2 -43 24.5 -54.5t93.5 -11.5h23v-98l-377 -10v100q-127 -100 -291 -100q-213 0 -350 126t-137 339zM340 418q0 -184 55 -260 q66 -94 195 -95q98 0 174 54.5t90 97.5q2 6 2 41v430q0 63 -78 111.5t-166 48.5q-147 0 -219 -109q-53 -78 -53 -260v-59z" />
<glyph unicode="&#x112;" horiz-adv-x="1546" d="M80 0v96h221v1200h-221v97h1272l63 -494h-96q-10 84 -23.5 138.5t-42 107.5t-71.5 84t-113 49t-166 18h-311v-526h113q137 0 177 55.5t40 184.5h96v-576h-96q0 129 -40 184.5t-177 55.5h-113v-578h311q92 0 163 13.5t120 45t83 67.5t56.5 94.5t34.5 111.5t24 133h97 l-95 -561h-1306zM303 1620v105h954v-105h-954z" />
<glyph unicode="&#x113;" horiz-adv-x="1079" d="M66 461q0 201 134 334t371 133q211 0 326 -111q115 -115 115 -315q0 -39 -13.5 -47.5t-52.5 -8.5h-618q0 -377 290 -376q100 0 180.5 45t112.5 118q10 27 18.5 35t33.5 8q49 0 49 -36q0 -14 -11.5 -40t-41 -64t-73.5 -70.5t-119 -55t-167 -22.5q-244 0 -389 132t-145 341 zM144 1131v106h850v-106h-850zM328 514h489q-10 340 -246 340q-125 0 -194 -106q-41 -64 -49 -234z" />
<glyph unicode="&#x116;" horiz-adv-x="1546" d="M80 0v96h221v1200h-221v97h1272l63 -494h-96q-10 84 -23.5 138.5t-42 107.5t-71.5 84t-113 49t-166 18h-311v-526h113q137 0 177 55.5t40 184.5h96v-576h-96q0 129 -40 184.5t-177 55.5h-113v-578h311q92 0 163 13.5t120 45t83 67.5t56.5 94.5t34.5 111.5t24 133h97 l-95 -561h-1306zM620 1687.5q0 65.5 46 112.5t114 47q66 0 113 -47t47 -112.5t-47.5 -112.5t-112.5 -47q-68 0 -114 47t-46 112.5z" />
<glyph unicode="&#x117;" horiz-adv-x="1079" d="M66 461q0 201 134 334t371 133q211 0 326 -111q115 -115 115 -315q0 -39 -13.5 -47.5t-52.5 -8.5h-618q0 -377 290 -376q100 0 180.5 45t112.5 118q10 27 18.5 35t33.5 8q49 0 49 -36q0 -14 -11.5 -40t-41 -64t-73.5 -70.5t-119 -55t-167 -22.5q-244 0 -389 132t-145 341 zM328 514h489q-10 340 -246 340q-125 0 -194 -106q-41 -64 -49 -234zM410 1264q0 61 46 109t113 48q63 0 111.5 -46t48.5 -113q0 -61 -46 -109.5t-114 -48.5q-70 0 -114.5 48.5t-44.5 111.5z" />
<glyph unicode="&#x118;" horiz-adv-x="1546" d="M80 0v98h221v1198h-221v97h1274l61 -496h-96q-16 127 -45 205t-98 129q-88 66 -320 65h-264v-524h102q41 0 66.5 3t61.5 13.5t58.5 36t32.5 68.5q8 31 9 119h98v-578h-98q0 141 -46.5 190.5t-181.5 49.5h-102v-576h313q135 2 221 30t136.5 93.5t74 138t45.5 203.5h99 l-95 -563h-145q-51 0 -88 -46t-37 -93q0 -53 41 -97.5t92 -44.5q29 0 56.5 21.5t42.5 21.5q18 0 35.5 -17t17.5 -32q0 -37 -66.5 -85t-146.5 -48q-96 0 -166 63.5t-70 151.5q0 100 109 205h-981z" />
<glyph unicode="&#x119;" horiz-adv-x="1079" d="M63 461q0 205 136.5 336t371.5 131q125 0 216.5 -39t137.5 -105.5t66.5 -135t20.5 -146.5q0 -25 -10.5 -38t-21.5 -15.5t-32 -2.5h-622q0 -205 77 -288q80 -86 218 -86q96 0 174.5 43t111.5 116q18 37 37 43q8 2 19 2q45 0 45 -38.5t-44 -95t-110 -93.5q-2 -2 -22.5 -12 t-38 -19.5t-42 -27t-41 -35.5t-28.5 -43t-12 -51q0 -51 41 -96.5t92 -45.5q27 0 56.5 21.5t41.5 21.5q14 0 33.5 -14t19.5 -33q0 -37 -64.5 -86t-146.5 -49q-98 0 -166.5 64.5t-68.5 148.5q0 98 94 197q-258 2 -398.5 135t-140.5 336zM326 514h491q-10 186 -76 264 q-61 74 -170 74q-129 0 -194 -104q-43 -66 -51 -234z" />
<glyph unicode="&#x11a;" horiz-adv-x="1546" d="M80 0v96h221v1200h-221v97h1272l63 -494h-96q-10 84 -23.5 138.5t-42 107.5t-71.5 84t-113 49t-166 18h-311v-526h113q137 0 177 55.5t40 184.5h96v-576h-96q0 129 -40 184.5t-177 55.5h-113v-578h311q92 0 163 13.5t120 45t83 67.5t56.5 94.5t34.5 111.5t24 133h97 l-95 -561h-1306zM362 1798l25 53q317 -88 324 -88h2q2 0 319 88l25 -53q-113 -74 -236 -158q-100 -68 -110 -67q-12 0 -113 67q-123 84 -236 158z" />
<glyph unicode="&#x11b;" horiz-adv-x="1079" d="M66 461q0 201 134 334t371 133q211 0 326 -111q115 -115 115 -315q0 -39 -13.5 -47.5t-52.5 -8.5h-618q0 -377 290 -376q100 0 180.5 45t112.5 118q10 27 18.5 35t33.5 8q49 0 49 -36q0 -14 -11.5 -40t-41 -64t-73.5 -70.5t-119 -55t-167 -22.5q-244 0 -389 132t-145 341 zM218 1313v2l34 45h2q307 -176 316 -176h2q10 0 313 176h2l37 -45v-2l-352 -350h-2zM328 514h489q-10 340 -246 340q-125 0 -194 -106q-41 -64 -49 -234z" />
<glyph unicode="&#x11c;" horiz-adv-x="1851" d="M131 702q0 322 224.5 523.5t596.5 201.5q227 0 404 -139l135 121q20 18 39 18q25 0 31 -11t6 -46v-440q0 -41 -8.5 -49.5t-47.5 -8.5q-35 0 -43 6.5t-12 36.5q-33 190 -162 303t-297 113q-143 0 -257.5 -49t-178.5 -129q-117 -154 -117 -448q0 -297 115 -445 q72 -92 193.5 -139t259.5 -47q111 0 184 43q80 47 80 145v207h-295v96q111 -6 420 -6q258 0 330 6v-96h-164v-412q0 -57 -29 -57q-14 0 -86 36t-115 73q-106 -131 -381 -132q-385 0 -605 205t-220 520zM631 1587l322 256l321 -256l-57 -80l-264 166l-264 -166z" />
<glyph unicode="&#x11d;" d="M66 -154q0 45 22.5 81t57 55.5t56 28.5t40.5 14q-90 72 -90 196q0 94 69 182q-49 35 -77.5 93.5t-28.5 121.5q0 123 101 213.5t306 90.5q174 0 275 -68q98 78 217 78q63 0 96 -38t33 -81q0 -37 -24.5 -62.5t-63.5 -25.5t-63.5 24.5t-24.5 63.5q0 20 8 41q-66 -6 -127 -39 q82 -88 82 -197q0 -123 -101.5 -213t-306.5 -90q-147 0 -250 54q-20 -27 -20 -68q0 -39 26.5 -79t86.5 -50q10 -2 157 -2q123 0 180.5 -2t128 -15.5t125.5 -39.5q154 -78 154 -260q0 -115 -132 -190t-390 -75q-276 0 -399 80t-123 178zM194 1044l326 304h2l323 -304l-63 -73 l-260 209h-2l-262 -209zM242 -150q0 -78 87 -133t259 -55q180 0 263 57.5t83 126.5q0 127 -295 127h-240q-157 0 -157 -123zM342 618.5q0 -38.5 1 -60t10 -58.5t27.5 -57.5t54.5 -37t87 -16.5t87 16.5t54.5 37t27.5 57.5t10 58.5t1 60t-1 60t-10 58.5t-27.5 57.5t-54.5 37 t-87 16.5t-87 -16.5t-54.5 -37t-27.5 -57.5t-10 -58.5t-1 -60z" />
<glyph unicode="&#x11e;" horiz-adv-x="1851" d="M131 702q0 100 24.5 196.5t87 194t154.5 170t240.5 118.5t333.5 46q123 0 218 -15t140 -31.5t49 -16.5q14 0 73.5 30.5t80.5 30.5q37 0 37 -51v-217q0 -37 -9.5 -48t-46.5 -11h-4q-33 0 -42 14t-21 48t-47 67q-109 102 -363 102h-6q-211 0 -364.5 -92t-198.5 -299 q-23 -94 -23 -238q0 -338 158 -483q154 -141 414 -141q104 0 183 43t79 143v205h-295v96q141 -4 426 -4q195 0 324 4v-96h-164v-420q0 -43 -31 -43q-18 0 -86 33t-111 72h-2q-123 -131 -381 -132q-375 0 -601 200.5t-226 524.5zM598 1831h76q12 -156 293 -156q270 0 284 156 h76q-6 -133 -113.5 -209t-250.5 -76q-139 0 -249 73t-116 212z" />
<glyph unicode="&#x11f;" d="M66 -154q0 45 22.5 81t57 55.5t56 28.5t40.5 14q-90 72 -90 196q0 94 69 182q-49 35 -77.5 93.5t-28.5 121.5q0 123 101 213.5t306 90.5q174 0 275 -68q98 78 217 78q63 0 96 -38t33 -81q0 -37 -24.5 -62.5t-63.5 -25.5t-63.5 24.5t-24.5 63.5q0 20 8 41q-66 -6 -127 -39 q82 -88 82 -197q0 -123 -101.5 -213t-306.5 -90q-147 0 -250 54q-20 -27 -20 -68q0 -39 26.5 -79t86.5 -50q10 -2 157 -2q123 0 180.5 -2t128 -15.5t125.5 -39.5q154 -78 154 -260q0 -115 -132 -190t-390 -75q-276 0 -399 80t-123 178zM221 1337h74q4 -61 39 -104t85 -61.5 t90 -25.5t77 -7q51 0 106.5 11t115.5 59t67 128h73q-6 -152 -114.5 -238.5t-247.5 -86.5q-143 0 -252 89t-113 236zM242 -150q0 -78 87 -133t259 -55q180 0 263 57.5t83 126.5q0 127 -295 127h-240q-157 0 -157 -123zM342 618.5q0 -38.5 1 -60t10 -58.5t27.5 -57.5t54.5 -37 t87 -16.5t87 16.5t54.5 37t27.5 57.5t10 58.5t1 60t-1 60t-10 58.5t-27.5 57.5t-54.5 37t-87 16.5t-87 -16.5t-54.5 -37t-27.5 -57.5t-10 -58.5t-1 -60z" />
<glyph unicode="&#x120;" horiz-adv-x="1851" d="M131 702q0 322 224.5 523.5t596.5 201.5q227 0 404 -139l135 121q20 18 39 18q25 0 31 -11t6 -46v-440q0 -41 -8.5 -49.5t-47.5 -8.5q-35 0 -43 6.5t-12 36.5q-33 190 -162 303t-297 113q-143 0 -257.5 -49t-178.5 -129q-117 -154 -117 -448q0 -297 115 -445 q72 -92 193.5 -139t259.5 -47q111 0 184 43q80 47 80 145v207h-295v96q111 -6 420 -6q258 0 330 6v-96h-164v-412q0 -57 -29 -57q-14 0 -86 36t-115 73q-106 -131 -381 -132q-385 0 -605 205t-220 520zM792 1687.5q0 65.5 46 112.5t114 47q66 0 113 -47t47 -112.5 t-47.5 -112.5t-112.5 -47q-68 0 -114 47t-46 112.5z" />
<glyph unicode="&#x121;" d="M66 -154q0 45 22.5 81t57 55.5t56 28.5t40.5 14q-90 72 -90 196q0 94 69 182q-49 35 -77.5 93.5t-28.5 121.5q0 123 101 213.5t306 90.5q174 0 275 -68q98 78 217 78q63 0 96 -38t33 -81q0 -37 -24.5 -62.5t-63.5 -25.5t-63.5 24.5t-24.5 63.5q0 20 8 41q-66 -6 -127 -39 q82 -88 82 -197q0 -123 -101.5 -213t-306.5 -90q-147 0 -250 54q-20 -27 -20 -68q0 -39 26.5 -79t86.5 -50q10 -2 157 -2q123 0 180.5 -2t128 -15.5t125.5 -39.5q154 -78 154 -260q0 -115 -132 -190t-390 -75q-276 0 -399 80t-123 178zM242 -150q0 -78 87 -133t259 -55 q180 0 263 57.5t83 126.5q0 127 -295 127h-240q-157 0 -157 -123zM342 618.5q0 -38.5 1 -60t10 -58.5t27.5 -57.5t54.5 -37t87 -16.5t87 16.5t54.5 37t27.5 57.5t10 58.5t1 60t-1 60t-10 58.5t-27.5 57.5t-54.5 37t-87 16.5t-87 -16.5t-54.5 -37t-27.5 -57.5t-10 -58.5 t-1 -60zM361 1264q0 61 46 109t113 48q63 0 111.5 -46t48.5 -113q0 -61 -46 -109.5t-114 -48.5q-70 0 -114.5 48.5t-44.5 111.5z" />
<glyph unicode="&#x124;" horiz-adv-x="1843" d="M80 0v96h221v1213h-221v96q78 -6 366.5 -6t366.5 6v-96h-221v-531h657v531h-221v96q78 -6 366.5 -6t366.5 6v-96h-221v-1213h221v-96q-78 6 -366.5 6t-366.5 -6v96h221v586h-657v-586h221v-96q-78 6 -366.5 6t-366.5 -6zM600 1587l322 256l321 -256l-57 -80l-264 166 l-264 -166z" />
<glyph unicode="&#x125;" horiz-adv-x="1306" d="M92 0v96h141v1133q0 57 -21.5 68.5t-119.5 11.5v96l363 16v-696h2q115 197 346 197q158 0 236.5 -69t78.5 -226v-531h142v-96q-172 6 -258.5 6t-258.5 -6v96h142v553q0 111 -29 155t-84 44q-113 0 -209 -85t-96 -239v-428h141v-96q-172 6 -258 6t-258 -6zM350 1538 l326 304h2l323 -304l-63 -73l-260 209h-2l-262 -209z" />
<glyph unicode="&#x127;" horiz-adv-x="1374" d="M35 1118q0 49 61 49h201v45q0 63 -18.5 80t-106.5 17h-18v96l366 18v-256h277q61 0 61 -49t-59 -49h-279v-348q113 201 348 201q88 0 149.5 -21.5t93.5 -51.5t49.5 -79t20.5 -82t3 -84v-506h143v-98q-135 6 -270 6q-23 0 -250 -6v98h143v539q0 63 -6 103t-33.5 73 t-76.5 33q-39 0 -84 -14.5t-97.5 -47t-87.5 -105.5t-35 -171v-410h144v-98q-135 6 -271 6q-23 0 -249 -6v98h143v971h-203q-59 0 -59 49z" />
<glyph unicode="&#x12a;" horiz-adv-x="892" d="M21 1530v106h850v-106h-850zM68 0v96h233v1213h-233v96q84 -6 378.5 -6t378.5 6v-96h-233v-1213h233v-96q-84 6 -378.5 6t-378.5 -6z" />
<glyph unicode="&#x12b;" horiz-adv-x="653" d="M-78 1131v106h850v-106h-850zM96 0v96h142v633q0 57 -20.5 68.5t-115.5 11.5v96l357 17v-826h127v-96q-221 6 -240 6q-60 0 -250 -6z" />
<glyph unicode="&#x130;" horiz-adv-x="892" d="M68 0v96h233v1213h-233v96q84 -6 378.5 -6t378.5 6v-96h-233v-1213h233v-96q-84 6 -378.5 6t-378.5 -6zM287 1762q0 61 46 109t113 48q63 0 111.5 -46t48.5 -113q0 -61 -46 -109.5t-114 -48.5q-70 0 -114.5 48.5t-44.5 111.5z" />
<glyph unicode="&#x131;" horiz-adv-x="653" d="M96 0v96h142v633q0 57 -20.5 68.5t-115.5 11.5v96l357 17v-826h127v-96q-221 6 -240 6q-60 0 -250 -6z" />
<glyph unicode="&#x134;" horiz-adv-x="1216" d="M47 233q0 76 47 117t111 41q59 0 107 -41t48 -117q0 -49 -23.5 -85.5t-45.5 -49.5l-25 -12q78 -35 166 -35q70 0 116 32t62.5 84t20.5 79.5t4 58.5v1004h-289v96q98 -6 408 -6q254 0 325 6v-96h-166v-1002q0 -156 -130 -243t-341 -87q-176 0 -285.5 69.5t-109.5 186.5z M452 1587l322 256l321 -256l-57 -80l-264 166l-264 -166z" />
<glyph unicode="&#x135;" horiz-adv-x="718" d="M-115 -223q0 55 36 92t93 37q55 0 91 -37t36 -90q0 -66 -49 -103q47 -12 80 -12q82 0 118 77t36 173v813q0 27 -2 39t-12.5 23.5t-30.5 15.5q-31 4 -111 4v96l377 17v-1008q0 -152 -112.5 -238t-258.5 -86q-129 0 -210 50.5t-81 136.5zM110 1044l326 304h2l323 -304 l-63 -73l-260 209h-2l-262 -209z" />
<glyph unicode="&#x139;" horiz-adv-x="1415" d="M80 0v96h221v1213h-221v96q78 -6 375 -6q324 0 413 6v-96h-276v-1213h211q76 0 138.5 19.5t102 47t72.5 74t49.5 81t29.5 90t16 82t10 71.5h96l-64 -561h-1173zM186 1593q291 186 316 195q14 4 35 4q49 0 81.5 -41t32.5 -88q0 -18 -5 -34.5t-11 -28t-20.5 -20.5 t-22.5 -13t-28.5 -9.5t-28 -7.5t-31 -5t-25.5 -3q-172 -29 -258 -41z" />
<glyph unicode="&#x13a;" horiz-adv-x="653" d="M96 0v96h142v1133q0 57 -21.5 68.5t-120.5 11.5v96l363 16v-1325h141v-96q-209 6 -252 6q-55 0 -252 -6zM233 1594q291 184 309 192q18 6 39 6h2q47 0 81 -39.5t34 -89.5q0 -16 -3 -31.5t-11.5 -25.5t-14.5 -19.5t-21.5 -15.5t-21.5 -10t-26.5 -8t-24.5 -5t-27 -5l-22 -2 q-74 -12 -260 -39z" />
<glyph unicode="&#x13d;" horiz-adv-x="1415" d="M80 0v98h221v1209h-221v98q195 -6 387 -6q150 0 377 4l-6 6q-6 8 -11.5 14.5t-12.5 18.5t-12 23.5t-8 27.5t-3 35q0 68 44 114t113 46q74 0 133.5 -56.5t59.5 -156.5q0 -150 -96.5 -259.5t-151.5 -109.5q-14 0 -26.5 11t-12.5 25.5t41 39t93 81t73 146.5 q-53 -41 -111 -41q-33 0 -80 18v-79h-278v-1209h192q125 0 210 38t129 110.5t63.5 143.5t32.5 173h98l-62 -563h-1175z" />
<glyph unicode="&#x13e;" horiz-adv-x="1028" d="M96 0v96h142v1133q0 57 -21.5 68.5t-120.5 11.5v96l363 16v-1325h141v-96q-209 6 -252 6q-55 0 -252 -6zM553 1384.5q0 67.5 44 113.5t114 46q76 0 135 -57t59 -156q0 -152 -97 -260t-153 -108q-14 0 -26.5 12t-12.5 26.5t26 32t58.5 38t68.5 72.5t54 124 q-53 -43 -110 -43q-72 0 -116 46t-44 113.5z" />
<glyph unicode="&#x141;" horiz-adv-x="1415" d="M80 0v98h221v465l-141 -104l-58 80q31 23 78 57q90 66 105.5 80t15.5 33v6v592h-221v98q219 -6 362 -6q213 0 428 6v-98h-278v-408l336 246l57 -80q-106 -78 -240 -176q-115 -82 -134 -99.5t-19 -35.5v-6v-650h192q125 0 210 38t129 110.5t63.5 143.5t32.5 173h98 l-62 -563h-1175z" />
<glyph unicode="&#x142;" horiz-adv-x="790" d="M133 586l168 123v520q0 49 -22.5 63.5t-102.5 14.5h-16v98l364 16v-549l140 103l57 -80l-197 -143v-654h142v-98q-133 6 -263 6q-23 0 -243 -6v98h141v490l-111 -82z" />
<glyph unicode="&#x143;" horiz-adv-x="1843" d="M80 0v96h51q61 0 111 6q43 4 51 11.5t8 42.5v1153h-221v96h469q31 0 41 -4t26 -23l816 -958v829q0 35 -8.5 42t-53.5 12q-55 6 -108 6h-52v96q84 -6 277 -6q197 0 274 6v-96h-51q-61 0 -111 -6q-43 -4 -51 -11.5t-8 -42.5v-1183q0 -41 -8 -53.5t-47 -12.5q-25 0 -32 4 t-23 23l-1020 1200v-1071q0 -35 8 -42.5t53 -11.5q55 -6 109 -6h51v-96q-84 6 -277 6q-196 0 -274 -6zM709 1594q291 184 309 192q18 6 39 6h2q47 0 81 -39.5t34 -89.5q0 -16 -3 -31.5t-11.5 -25.5t-14.5 -19.5t-21.5 -15.5t-21.5 -10t-26.5 -8t-24.5 -5t-27 -5l-22 -2 q-74 -12 -260 -39z" />
<glyph unicode="&#x144;" horiz-adv-x="1306" d="M92 0v96h141v633q0 57 -21.5 68.5t-119.5 11.5v96l352 17v-222q113 221 359 222q158 0 236.5 -69t78.5 -226v-531h142v-96q-172 6 -258.5 6t-258.5 -6v96h142v553q0 111 -29 155t-84 44q-113 0 -209 -85t-96 -239v-428h141v-96q-172 6 -258 6t-258 -6zM520 1096 q242 223 266 239q29 20 62 21q47 0 83 -40t36 -89q0 -57 -43 -84t-228 -88q-78 -27 -125 -43z" />
<glyph unicode="&#x147;" horiz-adv-x="1843" d="M80 0v96h51q61 0 111 6q43 4 51 11.5t8 42.5v1153h-221v96h469q31 0 41 -4t26 -23l816 -958v829q0 35 -8.5 42t-53.5 12q-55 6 -108 6h-52v96q84 -6 277 -6q197 0 274 6v-96h-51q-61 0 -111 -6q-43 -4 -51 -11.5t-8 -42.5v-1183q0 -41 -8 -53.5t-47 -12.5q-25 0 -32 4 t-23 23l-1020 1200v-1071q0 -35 8 -42.5t53 -11.5q55 -6 109 -6h51v-96q-84 6 -277 6q-196 0 -274 -6zM573 1798l25 53q317 -88 324 -88h2q4 0 321 88l23 -53q-113 -74 -236 -158q-100 -68 -110 -67q-12 0 -113 67q-123 84 -236 158z" />
<glyph unicode="&#x148;" horiz-adv-x="1306" d="M92 0v96h141v633q0 57 -21.5 68.5t-119.5 11.5v96l352 17v-222q113 221 359 222q158 0 236.5 -69t78.5 -226v-531h142v-96q-172 6 -258.5 6t-258.5 -6v96h142v553q0 111 -29 155t-84 44q-113 0 -209 -85t-96 -239v-428h141v-96q-172 6 -258 6t-258 -6zM259 1313v2l34 45 h2q307 -176 316 -176h2q10 0 313 176h2l37 -45v-2l-352 -350h-2z" />
<glyph unicode="&#x150;" horiz-adv-x="1767" d="M131 694q0 328 204 530.5t550 202.5q340 0 545.5 -200.5t205.5 -532.5q0 -319 -202.5 -518t-550.5 -199q-344 0 -548 197.5t-204 519.5zM444 725q0 -291 84 -449q59 -109 156.5 -161t198.5 -52q225 0 346 195q94 156 94 467q0 283 -86 428q-59 96 -154.5 144.5 t-199.5 48.5q-98 0 -190.5 -44.5t-151.5 -132.5q-97 -149 -97 -444zM571 1593q291 184 318 193q14 6 37 6h2q41 -2 74.5 -36t33.5 -95v-23q29 18 61.5 39t51 33t40 25.5t33 20.5t26 14.5t21.5 10.5t16 6t15.5 4t14.5 1q51 0 83 -40t32 -87q0 -23 -5.5 -41t-19.5 -30.5 t-23.5 -20.5t-32 -14.5t-29.5 -8.5t-32 -6l-24 -2q-164 -27 -267 -41l-22 62q-66 -14 -196 -34t-173 -28z" />
<glyph unicode="&#x151;" d="M66 446q0 211 138 346.5t384 135.5q244 0 383 -135.5t139 -346.5q0 -199 -137 -328.5t-385 -129.5t-385 129.5t-137 328.5zM299 1096q242 223 266 239q29 20 62 21q49 0 85 -40t36 -89q0 -57 -42 -83t-227 -87q-80 -29 -129 -45zM328 469q0 -61 1 -93t8 -88.5t23.5 -87 t44 -65.5t73.5 -50t109.5 -15t109.5 15t74 50t44 65.5t23.5 87t8.5 88.5t1 93q0 211 -43 281q-66 104 -217 104q-164 0 -226 -119q-34 -69 -34 -266zM692 1096q244 225 269 241q27 18 59 19q51 0 85 -41t34 -88q0 -57 -45 -84t-220 -86q-82 -27 -133 -45z" />
<glyph unicode="&#x152;" horiz-adv-x="2394" d="M170 694q0 326 212 529.5t574 203.5q66 0 191 -11t225 -11h828l63 -496h-98q-14 113 -34 176.5t-63 120t-120.5 79t-200.5 22.5h-279v-529h187q139 4 191 51.5t55 188.5h96v-578h-96q-2 152 -61.5 196t-211.5 44h-160v-582h248q96 0 154.5 5.5t139.5 41t126 105.5 q57 86 94 313h99l-95 -563h-866q-88 0 -222 -11.5t-190 -11.5q-362 0 -574 197.5t-212 519.5zM473 729q0 -180 43 -316.5t117 -212t156.5 -112.5t175.5 -37q160 0 206 80t46 328v518q0 225 -49.5 300t-198.5 75q-231 0 -363.5 -169t-132.5 -454z" />
<glyph unicode="&#x153;" horiz-adv-x="1830" d="M63 461q0 211 142.5 339t374.5 128q246 0 395 -150h2q141 150 377 150q117 0 200.5 -39t127.5 -104.5t62.5 -134t18.5 -144.5q0 -27 -9 -41t-20.5 -16.5t-31.5 -2.5h-606q10 -375 305 -374q88 0 157.5 43t100.5 114q2 2 4 7.5t3 8.5t3 7t4 6t5 6t6.5 5t8.5 3t10 3t11 1 q47 0 47 -38q0 -23 -20.5 -61t-62.5 -82t-119.5 -74.5t-176.5 -30.5q-242 0 -403 153q-141 -154 -399 -153q-233 0 -375 130t-142 341zM303 461q0 -209 66 -297q72 -100 213 -101q119 0 196 80q84 88 84 308v47q0 166 -59 250q-74 104 -221 104q-129 0 -203 -82 q-72 -82 -76 -262v-47zM1098 514h471q-2 66 -10.5 113t-29 104t-65.5 89t-112 32q-123 0 -193 -98q-57 -80 -61 -240z" />
<glyph unicode="&#x154;" horiz-adv-x="1765" d="M80 0v96h221v1213h-221v96h778q281 0 445.5 -108.5t164.5 -270.5q0 -109 -86 -198t-256 -132q197 -74 230 -239q0 -4 10 -83t12 -91q6 -45 12.5 -75t21.5 -72t45 -63.5t73 -21.5q49 0 86 37t45 105q2 16 4 24t12.5 15.5t30.5 7.5q49 0 49 -45q0 -14 -4 -36t-19.5 -54.5 t-40 -60.5t-72.5 -47.5t-110 -19.5q-195 0 -301 54q-51 25 -81.5 55.5t-43 75.5t-15.5 76.5t-3 97.5q0 123 -9 166t-57 94q-63 70 -182 70h-239v-570h221v-96q-74 6 -360.5 6t-360.5 -6zM580 739h237q96 0 164 20.5t101.5 45t51 71t19.5 74t2 74.5q0 49 -3 79t-20.5 74 t-50 68.5t-99.5 44t-161 19.5h-241v-570zM690 1594q291 184 309 192q18 6 39 6h2q47 0 81 -39.5t34 -89.5q0 -16 -3 -31.5t-11.5 -25.5t-14.5 -19.5t-21.5 -15.5t-21.5 -10t-26.5 -8t-24.5 -5t-27 -5l-22 -2q-74 -12 -260 -39z" />
<glyph unicode="&#x155;" horiz-adv-x="968" d="M76 0v96h141v633q0 57 -21.5 68.5t-119.5 11.5v96l340 17v-232q84 231 272 232q86 0 151.5 -45.5t65.5 -122.5q0 -57 -38 -91t-87 -34t-87 32.5t-38 92.5q0 55 39 94q-72 0 -125 -40t-79.5 -104.5t-39 -126t-12.5 -122.5v-359h178v-96q-74 6 -282 6q-43 0 -258 -6z M358 1096q31 29 82 75q143 133 177 159t71 26q51 0 85 -41t34 -88q0 -57 -45 -84t-219 -86q-82 -27 -133 -45z" />
<glyph unicode="&#x158;" horiz-adv-x="1765" d="M80 0v96h221v1213h-221v96h778q281 0 445.5 -108.5t164.5 -270.5q0 -109 -86 -198t-256 -132q197 -74 230 -239q0 -4 10 -83t12 -91q6 -45 12.5 -75t21.5 -72t45 -63.5t73 -21.5q49 0 86 37t45 105q2 16 4 24t12.5 15.5t30.5 7.5q49 0 49 -45q0 -14 -4 -36t-19.5 -54.5 t-40 -60.5t-72.5 -47.5t-110 -19.5q-195 0 -301 54q-51 25 -81.5 55.5t-43 75.5t-15.5 76.5t-3 97.5q0 123 -9 166t-57 94q-63 70 -182 70h-239v-570h221v-96q-74 6 -360.5 6t-360.5 -6zM416 1798l22 53q317 -88 324 -88h2q4 0 321 88l25 -53q-334 -221 -340 -223 q-4 -2 -8 -2q-12 0 -92 55q-127 86 -254 170zM580 739h237q96 0 164 20.5t101.5 45t51 71t19.5 74t2 74.5q0 49 -3 79t-20.5 74t-50 68.5t-99.5 44t-161 19.5h-241v-570z" />
<glyph unicode="&#x159;" horiz-adv-x="968" d="M76 0v96h141v633q0 57 -21.5 68.5t-119.5 11.5v96l340 17v-232q84 231 272 232q86 0 151.5 -45.5t65.5 -122.5q0 -57 -38 -91t-87 -34t-87 32.5t-38 92.5q0 55 39 94q-72 0 -125 -40t-79.5 -104.5t-39 -126t-12.5 -122.5v-359h178v-96q-74 6 -282 6q-43 0 -258 -6z M146 1313v2l34 45h2q307 -176 316 -176h2q10 0 313 176h2l37 -45v-2l-352 -350h-2z" />
<glyph unicode="&#x15a;" horiz-adv-x="1306" d="M131 35v373q0 39 7 49t42 10q16 0 25.5 -2t14.5 -8t6 -13.5t1 -23.5q6 -106 58.5 -181t133.5 -108t150.5 -45t141.5 -12q143 0 204.5 73.5t61.5 165.5q0 96 -82 179q-33 31 -73 43t-187 45q-186 41 -255 67.5t-138 95.5q-111 117 -111 273q0 174 119 292.5t340 118.5 q209 0 350 -112l92 90q25 23 41 22q25 0 31 -11t6 -46v-375q0 -37 -7 -47t-42 -10q-31 0 -38 7t-13 46q-23 131 -94.5 213t-151.5 108.5t-172 26.5q-139 0 -200.5 -66.5t-61.5 -148.5q0 -86 61.5 -141t134.5 -72l297 -63q147 -31 250 -149.5t103 -282.5q0 -176 -116 -307.5 t-349 -131.5q-258 0 -410 113l-94 -94q-20 -18 -39 -19q-25 0 -31 11.5t-6 46.5zM405 1594q291 184 309 192q18 6 39 6h2q47 0 81 -39.5t34 -89.5q0 -16 -3 -31.5t-11.5 -25.5t-14.5 -19.5t-21.5 -15.5t-21.5 -10t-26.5 -8t-24.5 -5t-27 -5l-22 -2q-74 -12 -260 -39z" />
<glyph unicode="&#x15b;" horiz-adv-x="929" d="M78 45v217q0 39 8 52.5t41 13.5q14 0 23.5 -2t15.5 -9.5t8 -12.5t6 -17.5t6 -18.5q70 -205 287 -205q231 0 232 150q0 123 -193 156q-2 0 -46 7t-64.5 11t-68.5 15.5t-76 24.5t-66.5 35.5t-60 49.5t-37 64.5t-15.5 82.5q0 268 373 269q90 0 147 -17.5t61 -17.5 q14 0 47 16.5t50 16.5q35 0 35 -52v-172q0 -29 -9.5 -41t-38.5 -12q-31 0 -41 16.5t-10 39t-16.5 55.5t-52.5 59q-57 41 -172 41q-227 0 -228 -125q0 -47 45 -77.5t98.5 -42t130 -23.5t107.5 -23q98 -29 172 -101.5t74 -182.5q0 -295 -375 -295q-150 0 -244 65h-2 q-90 -66 -116 -65q-35 0 -35 55zM307 1096q31 29 82 75q143 133 177 159t71 26q51 0 85 -41t34 -88q0 -57 -45 -84t-219 -86q-82 -27 -134 -45z" />
<glyph unicode="&#x15c;" horiz-adv-x="1306" d="M131 35v373q0 39 7 49t42 10q16 0 25.5 -2t14.5 -8t6 -13.5t1 -23.5q6 -106 58.5 -181t133.5 -108t150.5 -45t141.5 -12q143 0 204.5 73.5t61.5 165.5q0 96 -82 179q-33 31 -73 43t-187 45q-186 41 -255 67.5t-138 95.5q-111 117 -111 273q0 174 119 292.5t340 118.5 q209 0 350 -112l92 90q25 23 41 22q25 0 31 -11t6 -46v-375q0 -37 -7 -47t-42 -10q-31 0 -38 7t-13 46q-23 131 -94.5 213t-151.5 108.5t-172 26.5q-139 0 -200.5 -66.5t-61.5 -148.5q0 -86 61.5 -141t134.5 -72l297 -63q147 -31 250 -149.5t103 -282.5q0 -176 -116 -307.5 t-349 -131.5q-258 0 -410 113l-94 -94q-20 -18 -39 -19q-25 0 -31 11.5t-6 46.5zM268 1587l322 256l321 -256l-57 -80l-264 166l-264 -166z" />
<glyph unicode="&#x15d;" horiz-adv-x="927" d="M78 45v223q0 39 7 49.5t42 10.5q25 0 34 -4.5t15 -24.5q12 -43 27.5 -76t47.5 -75t88 -64.5t132 -22.5q233 0 234 154q0 43 -23 73.5t-66 48t-70.5 25t-68.5 13.5q-100 18 -139 26.5t-89 30t-89 55.5q-82 70 -82 172q0 63 22.5 112.5t62.5 77.5t79 45t89 23.5t73.5 8.5 t50.5 2q129 0 207 -39q80 39 92 39q25 0 31 -11.5t6 -46.5v-163q0 -39 -7.5 -48.5t-42.5 -9.5q-31 0 -38 8.5t-9 32.5q-16 172 -241 172q-229 0 -230 -127q0 -35 19.5 -59.5t59.5 -38.5t62.5 -20.5t67.5 -14.5q133 -23 191.5 -40t113.5 -58q113 -90 113 -217 q0 -72 -22.5 -126.5t-62.5 -85t-79 -50t-90 -26.5t-73.5 -9t-51.5 -2q-147 0 -242 65l-53 -35q-43 -31 -61 -30q-25 0 -31 12t-6 45zM128 1044l326 304h2l323 -304l-63 -73l-260 209h-2l-262 -209z" />
<glyph unicode="&#x15e;" horiz-adv-x="1308" d="M129 37v385q2 45 49 45q23 0 34 -7t12 -16.5t3 -34t6 -44.5q31 -152 166.5 -220.5t311.5 -68.5q143 0 203.5 73.5t60.5 161.5q0 137 -127 211q-41 23 -217 58.5t-221 52.5q-113 43 -197 143.5t-84 241.5q0 174 121 291.5t338 117.5q209 0 350 -114h2q102 113 137 112 q33 0 33 -51v-389q-2 -29 -12.5 -38t-36.5 -9q-29 0 -39 10t-14 37q-27 180 -145 266t-273 86q-129 0 -194.5 -62.5t-65.5 -148.5q0 -117 114 -182q45 -27 216 -61.5t202 -44.5q127 -41 220.5 -153t93.5 -269q0 -150 -84 -270.5t-256 -155.5v-51q195 -35 194 -164 q0 -106 -142.5 -144.5t-481.5 -38.5v74h14q193 0 284 23.5t91 83.5q0 100 -195 104v107q-39 4 -75 11t-63.5 17.5t-51 18.5t-43 19t-30.5 17.5t-24.5 15.5t-15.5 9q-104 -113 -133 -112q-35 0 -35 57z" />
<glyph unicode="&#x15f;" horiz-adv-x="929" d="M78 45v217q0 39 8 52.5t41 13.5q12 0 20.5 -2t13.5 -4.5t9 -10.5t5 -11t6 -17.5t7 -20.5q70 -199 285 -199q229 0 229 150q0 125 -210 160q-2 0 -40 6t-60.5 10t-65.5 15.5t-72 24.5t-65.5 34.5t-58 48.5t-37 64.5t-15.5 80.5q0 270 373 271q70 0 113.5 -9.5t63 -17.5 t29.5 -8q14 0 48 16.5t53 16.5q35 0 35 -56q0 -6 -1 -19t-1 -17v-134q0 -51 -48 -51q-29 0 -40 12.5t-11 31t-10 48t-35 56.5q-61 63 -198 63h-3q-223 0 -223 -125q0 -47 44 -77.5t94.5 -41t127 -22.5t105.5 -21q98 -27 177 -99.5t79 -188.5q0 -250 -270 -289v-57 q197 -35 196 -164q0 -43 -23.5 -75t-72.5 -51.5t-97 -31.5t-126 -17.5t-131.5 -6.5t-137.5 -1h-38v74h24q180 0 272.5 21.5t94.5 85.5q0 102 -195 104v123h8q-55 12 -123 55h-2q-94 -66 -116 -65q-35 0 -35 55z" />
<glyph unicode="&#x160;" horiz-adv-x="1306" d="M131 35v373q0 39 7 49t42 10q16 0 25.5 -2t14.5 -8t6 -13.5t1 -23.5q6 -106 58.5 -181t133.5 -108t150.5 -45t141.5 -12q143 0 204.5 73.5t61.5 165.5q0 96 -82 179q-33 31 -73 43t-187 45q-186 41 -255 67.5t-138 95.5q-111 117 -111 273q0 174 119 292.5t340 118.5 q209 0 350 -112l92 90q25 23 41 22q25 0 31 -11t6 -46v-375q0 -37 -7 -47t-42 -10q-31 0 -38 7t-13 46q-23 131 -94.5 213t-151.5 108.5t-172 26.5q-139 0 -200.5 -66.5t-61.5 -148.5q0 -86 61.5 -141t134.5 -72l297 -63q147 -31 250 -149.5t103 -282.5q0 -176 -116 -307.5 t-349 -131.5q-258 0 -410 113l-94 -94q-20 -18 -39 -19q-25 0 -31 11.5t-6 46.5zM305 1798l25 53q317 -88 321 -88h2q4 0 322 88l24 -53q-334 -221 -340 -223q-4 -2 -8 -2q-12 0 -92 55q-127 86 -254 170z" />
<glyph unicode="&#x161;" horiz-adv-x="929" d="M78 45v217q0 39 8 52.5t41 13.5q14 0 23.5 -2t15.5 -9.5t8 -12.5t6 -17.5t6 -18.5q70 -205 287 -205q231 0 232 150q0 121 -193 156q-2 0 -46 7t-64.5 11t-68.5 15.5t-76 24.5t-66.5 35.5t-60 49.5t-37 64.5t-15.5 82.5q0 268 373 269q90 0 147 -17.5t61 -17.5 q14 0 47 16.5t50 16.5q35 0 35 -52v-172q0 -29 -9.5 -41t-38.5 -12q-31 0 -42 15.5t-10 38t-15.5 55.5t-54.5 61q-57 41 -170 41h-5q-223 0 -223 -125q0 -47 45 -77.5t98.5 -42t130 -23.5t107.5 -23q98 -29 172 -101.5t74 -182.5q0 -295 -375 -295q-150 0 -244 65h-2 q-90 -66 -116 -65q-35 0 -35 55zM82 1313v2l35 45h2q307 -176 315 -176h2q10 0 314 176h2l36 -45v-2l-352 -350h-2z" />
<glyph unicode="&#x162;" horiz-adv-x="1638" d="M84 887l43 495h1380l45 -495h-98q-10 123 -26.5 189.5t-55.5 118.5t-105.5 70.5t-176.5 18.5h-125v-1186h313v-98l-344 6v-67q197 -35 196 -164q0 -43 -23.5 -75t-72.5 -51.5t-97 -31.5t-126 -17.5t-131 -6.5t-137 -1h-39v74h24q182 0 274.5 22.5t92.5 84.5 q0 102 -195 104v129l-342 -6v98h314v1186h-125q-66 0 -107 -4t-97 -26.5t-89 -67.5q-49 -63 -72 -299h-98z" />
<glyph unicode="&#x163;" horiz-adv-x="915" d="M43 813v74q102 4 173 71.5t99.5 155.5t30.5 186h96v-389h301v-98h-301v-561q0 -53 6.5 -87t34 -63.5t76.5 -29.5q47 0 87 43t40 145v102h98v-106q0 -184 -168 -256h66v-61q195 -35 195 -164q0 -43 -24 -75t-72 -51.5t-96 -31.5t-127 -17.5t-131 -6.5t-136 -1h-39v74h22 q182 0 274.5 22.5t94.5 84.5q0 102 -194 104v117q-102 14 -159 62t-69 94.5t-12 109.5v553h-166z" />
<glyph unicode="&#x164;" horiz-adv-x="1638" d="M86 889l43 493h1378l43 -493h-96q-8 86 -14 132t-27.5 106.5t-54.5 89t-92.5 49t-145.5 20.5h-155v-1190h313v-96q-111 6 -459 6t-459 -6v96h314v1190h-158q-86 0 -146.5 -21.5t-93 -50t-53 -88t-28 -105.5t-13.5 -132h-96zM471 1798l25 53q317 -88 323 -88h2q2 0 320 88 l24 -53q-113 -74 -235 -158q-100 -68 -111 -67q-12 0 -112 67q-123 84 -236 158z" />
<glyph unicode="&#x165;" horiz-adv-x="915" d="M43 813v74q102 4 174 71.5t99.5 155.5t29.5 186h96v-389h301v-98h-301v-561q0 -53 6.5 -87t34 -63.5t76.5 -29.5t88 43t39 145v102h98v-88q0 -119 -55 -192q-70 -92 -197 -92q-106 0 -175.5 24.5t-99.5 71.5t-39 87t-9 95v545h-166zM586 1460.5q0 67.5 44 113.5t113 46 q76 0 134.5 -57.5t58.5 -155.5q0 -152 -96.5 -260.5t-151.5 -108.5q-14 0 -26.5 12.5t-12.5 27t25.5 31.5t57.5 36.5t68 72t54 123.5q-49 -41 -111 -41q-70 0 -113.5 46.5t-43.5 114z" />
<glyph unicode="&#x16a;" horiz-adv-x="1810" d="M80 1309v96q78 -6 366.5 -6t366.5 6v-96h-221v-852q0 -51 3 -86t22.5 -96.5t54.5 -100.5t107.5 -69.5t174.5 -30.5q88 0 165 21.5t141.5 66.5t102.5 126t38 189v772q0 35 -8.5 42t-53.5 12q-55 6 -108 6h-51v96q84 -6 276 -6q197 0 275 6v-96h-52q-61 0 -110 -6 q-43 -4 -51.5 -11.5t-8.5 -42.5v-780q0 -205 -144 -348.5t-419 -143.5q-305 0 -475 140.5t-170 355.5v836h-221zM428 1620v105h954v-105h-954z" />
<glyph unicode="&#x16b;" horiz-adv-x="1306" d="M92 809v96l375 17v-699q0 -94 26.5 -128t137.5 -34q113 0 183.5 76t70.5 201v391q0 57 -21.5 68.5t-120.5 11.5v96l375 17v-746q0 -57 21.5 -68.5t120.5 -11.5v-96l-363 -12v159q-94 -160 -295 -159q-174 0 -271.5 56t-97.5 208v477q0 57 -21.5 68.5t-119.5 11.5z M250 1131v106h850v-106h-850z" />
<glyph unicode="&#x16c;" horiz-adv-x="1810" d="M80 1309v96q78 -6 366.5 -6t366.5 6v-96h-221v-852q0 -51 3 -86t22.5 -96.5t54.5 -100.5t107.5 -69.5t174.5 -30.5q88 0 165 21.5t141.5 66.5t102.5 126t38 189v772q0 35 -8.5 42t-53.5 12q-55 6 -108 6h-51v96q84 -6 276 -6q197 0 275 6v-96h-52q-61 0 -110 -6 q-43 -4 -51.5 -11.5t-8.5 -42.5v-780q0 -205 -144 -348.5t-419 -143.5q-305 0 -475 140.5t-170 355.5v836h-221zM540 1831h74q14 -156 291 -156q272 0 286 156h78q-8 -137 -117.5 -211t-246.5 -74t-247 74t-118 211z" />
<glyph unicode="&#x16d;" horiz-adv-x="1306" d="M92 809v96l375 17v-699q0 -94 26.5 -128t137.5 -34q113 0 183.5 76t70.5 201v391q0 57 -21.5 68.5t-120.5 11.5v96l375 17v-746q0 -57 21.5 -68.5t120.5 -11.5v-96l-363 -12v159q-94 -160 -295 -159q-174 0 -271.5 56t-97.5 208v477q0 57 -21.5 68.5t-119.5 11.5z M311 1337h74q4 -61 39 -104t85 -61.5t90 -25.5t77 -7q51 0 106.5 11t115.5 59t67 128h73q-6 -152 -114.5 -238.5t-247.5 -86.5q-143 0 -252 89t-113 236z" />
<glyph unicode="&#x16e;" horiz-adv-x="1810" d="M80 1309v96q78 -6 366.5 -6t366.5 6v-96h-221v-852q0 -51 3 -86t22.5 -96.5t54.5 -100.5t107.5 -69.5t174.5 -30.5q88 0 165 21.5t141.5 66.5t102.5 126t38 189v772q0 35 -8.5 42t-53.5 12q-55 6 -108 6h-51v96q84 -6 276 -6q197 0 275 6v-96h-52q-61 0 -110 -6 q-43 -4 -51.5 -11.5t-8.5 -42.5v-780q0 -205 -144 -348.5t-419 -143.5q-305 0 -475 140.5t-170 355.5v836h-221zM751 1659q0 72 58.5 130.5t187.5 58.5q111 0 177.5 -52.5t66.5 -136.5q0 -72 -58.5 -129t-187.5 -57q-111 0 -177.5 51t-66.5 135zM850 1661q0 -72 35.5 -93 t105.5 -21h10q43 0 67.5 4t50.5 30.5t26 77.5q0 63 -35 89t-111 26q-78 0 -113.5 -22.5t-35.5 -90.5z" />
<glyph unicode="&#x16f;" horiz-adv-x="1306" d="M92 809v96l375 17v-699q0 -94 26.5 -128t137.5 -34q113 0 183.5 76t70.5 201v391q0 57 -21.5 68.5t-120.5 11.5v96l375 17v-746q0 -57 21.5 -68.5t120.5 -11.5v-96l-363 -12v159q-94 -160 -295 -159q-174 0 -271.5 56t-97.5 208v477q0 57 -21.5 68.5t-119.5 11.5z M432 1176q0 80 65.5 129t174.5 49q131 0 189.5 -55.5t58.5 -123t-57.5 -123t-186.5 -55.5t-186.5 55.5t-57.5 123.5zM528 1176q0 -39 11.5 -61.5t38 -32t47 -11.5t61.5 -2q137 0 137 107q0 39 -11 61.5t-37.5 31.5t-47 11t-63.5 2q-136 0 -136 -106z" />
<glyph unicode="&#x170;" horiz-adv-x="1810" d="M80 1309v96q78 -6 366.5 -6t366.5 6v-96h-221v-852q0 -51 3 -86t22.5 -96.5t54.5 -100.5t107.5 -69.5t174.5 -30.5q88 0 165 21.5t141.5 66.5t102.5 126t38 189v772q0 35 -8.5 42t-53.5 12q-55 6 -108 6h-51v96q84 -6 276 -6q197 0 275 6v-96h-52q-61 0 -110 -6 q-43 -4 -51.5 -11.5t-8.5 -42.5v-780q0 -205 -144 -348.5t-419 -143.5q-305 0 -475 140.5t-170 355.5v836h-221zM594 1593q291 184 317 193q14 6 37 6h2q41 -2 75 -36t34 -95v-23q29 18 61.5 39t51 33t40 25.5t32.5 20.5t25.5 14.5t21.5 10.5t16.5 6t15.5 4t14 1 q51 0 83 -40t32 -87q0 -23 -5 -41t-19.5 -30.5t-23.5 -20.5t-31.5 -14.5t-30 -8.5t-31.5 -6l-25 -2q-164 -27 -266 -41l-23 62q-66 -14 -195.5 -34t-172.5 -28z" />
<glyph unicode="&#x171;" horiz-adv-x="1306" d="M92 809v96l375 17v-699q0 -94 26.5 -128t137.5 -34q113 0 183.5 76t70.5 201v391q0 57 -21.5 68.5t-120.5 11.5v96l375 17v-746q0 -57 21.5 -68.5t120.5 -11.5v-96l-363 -12v159q-94 -160 -295 -159q-174 0 -271.5 56t-97.5 208v477q0 57 -21.5 68.5t-119.5 11.5z M389 1096q242 223 266 239q29 20 62 21q47 0 83 -40t36 -89q0 -57 -42 -83t-227 -87q-80 -29 -129 -45zM780 1096q31 29 82 75q143 133 177 159t71 26q51 0 85 -41t34 -88q0 -57 -45 -84t-219 -86q-82 -27 -134 -45z" />
<glyph unicode="&#x178;" horiz-adv-x="1779" d="M39 1309v96q72 -6 338 -6q291 0 375 6v-96h-174l415 -609l383 564q4 6 15 24q-53 20 -156 21v96q76 -6 270 -6q25 0 64 1t90 3t80 2v-96h-43q-53 0 -107 -6q-57 -8 -71 -23q-4 -6 -9 -12l-481 -707v-465h223v-96q-78 6 -362 6q-287 0 -361 -6v96h222v465l-510 748h-201z M502 1671q0 66 45 113t112 47q63 0 111.5 -46t48.5 -114q0 -63 -45 -111.5t-112 -48.5q-63 0 -111.5 46t-48.5 114zM958 1671q0 61 46.5 110.5t113.5 49.5q63 0 110.5 -46t47.5 -114q0 -66 -46 -113t-111.5 -47t-113 45t-47.5 115z" />
<glyph unicode="&#x179;" horiz-adv-x="1437" d="M131 53q0 29 16 53l820 1203h-267q-215 0 -321.5 -96.5t-118.5 -301.5h-96l24 494h1053q27 0 38 -2t19.5 -13.5t8.5 -36t-17 -48.5l-817 -1201h287q88 0 157.5 15.5t115.5 38t81 63.5t53.5 76t31.5 91t17.5 94t8.5 100h96l-37 -582h-1087q-27 0 -38.5 2t-19.5 13t-8 38z M539 1594q291 184 309 192q18 6 39 6h2q47 0 81 -39.5t34 -89.5q0 -16 -3 -31.5t-11.5 -25.5t-14.5 -19.5t-21.5 -15.5t-21.5 -10t-26.5 -8t-24.5 -5t-27 -5l-22 -2q-74 -12 -260 -39z" />
<glyph unicode="&#x17a;" horiz-adv-x="1046" d="M66 45q0 23 18 45l571 746h-174q-156 0 -216 -62.5t-70 -222.5h-97l25 358h751q25 0 35.5 -1t20.5 -11t10 -31q0 -16 -20 -45l-568 -739h176q98 0 161 20.5t95.5 69.5t45 100.5t20.5 141.5h96l-37 -414h-778q-25 0 -36 2t-20 12.5t-9 30.5zM365 1096q244 225 268 241 q27 18 59 19q49 0 84 -40t35 -89q0 -57 -45 -84t-229 -90q-76 -25 -121 -41z" />
<glyph unicode="&#x17b;" horiz-adv-x="1437" d="M131 53q0 29 16 53l820 1203h-267q-215 0 -321.5 -96.5t-118.5 -301.5h-96l24 494h1053q27 0 38 -2t19.5 -13.5t8.5 -36t-17 -48.5l-817 -1201h287q88 0 157.5 15.5t115.5 38t81 63.5t53.5 76t31.5 91t17.5 94t8.5 100h96l-37 -582h-1087q-27 0 -38.5 2t-19.5 13t-8 38z M625 1762q0 61 46 109t113 48q63 0 111.5 -46t48.5 -113q0 -61 -46 -109.5t-114 -48.5q-70 0 -114.5 48.5t-44.5 111.5z" />
<glyph unicode="&#x17c;" horiz-adv-x="1046" d="M66 45q0 23 18 45l571 746h-174q-156 0 -216 -62.5t-70 -222.5h-97l25 358h751q25 0 35.5 -1t20.5 -11t10 -31q0 -16 -20 -45l-568 -739h176q98 0 161 20.5t95.5 69.5t45 100.5t20.5 141.5h96l-37 -414h-778q-25 0 -36 2t-20 12.5t-9 30.5zM395 1264q0 61 45 109t113 48 q70 0 115 -48t45 -111q0 -61 -45 -109.5t-113 -48.5q-70 0 -115 48.5t-45 111.5z" />
<glyph unicode="&#x17d;" horiz-adv-x="1437" d="M131 53q0 29 16 53l820 1203h-267q-215 0 -321.5 -96.5t-118.5 -301.5h-96l24 494h1053q27 0 38 -2t19.5 -13.5t8.5 -36t-17 -48.5l-817 -1201h287q88 0 157.5 15.5t115.5 38t81 63.5t53.5 76t31.5 91t17.5 94t8.5 100h96l-37 -582h-1087q-27 0 -38.5 2t-19.5 13t-8 38z M334 1798l24 53q317 -88 324 -88h2q2 0 320 88l24 -53q-113 -74 -235 -158q-100 -68 -111 -67q-12 0 -113 67q-122 84 -235 158z" />
<glyph unicode="&#x17e;" horiz-adv-x="1046" d="M66 45q0 23 18 45l571 746h-174q-156 0 -216 -62.5t-70 -222.5h-97l25 358h751q25 0 35.5 -1t20.5 -11t10 -31q0 -16 -20 -45l-568 -739h176q98 0 161 20.5t95.5 69.5t45 100.5t20.5 141.5h96l-37 -414h-778q-25 0 -36 2t-20 12.5t-9 30.5zM146 1313v2l34 45h2 q307 -176 316 -176h2q10 0 313 176h2l37 -45v-2l-352 -350h-2z" />
<glyph unicode="&#x192;" horiz-adv-x="1228" d="M45 -252q0 80 51 116t94 36t73 -26t30 -69q0 -80 -90 -133q41 -18 63 -18q61 0 94 108.5t109 516.5l98 534h-174q-37 0 -51 8t-14 33q0 55 69 55h187q4 4 14 80t35.5 174.5t68.5 157.5q88 125 252 125q98 0 164 -47t66 -123q0 -82 -52.5 -118t-93.5 -36q-43 0 -71.5 27 t-28.5 70q0 88 88 131q-41 20 -68 20q-45 0 -73 -55q-14 -29 -82 -406h221q57 0 57 -39q0 -57 -67 -57h-230l-98 -537q-63 -346 -127 -475q-47 -96 -128 -159.5t-165 -63.5q-96 2 -158.5 48t-62.5 122z" />
<glyph unicode="&#x218;" horiz-adv-x="1306" d="M131 35v373q0 39 7 49t42 10q16 0 25.5 -2t14.5 -8t6 -13.5t1 -23.5q6 -106 58.5 -181t133.5 -108t150.5 -45t141.5 -12q143 0 204.5 73.5t61.5 165.5q0 96 -82 179q-33 31 -73 43t-187 45q-186 41 -255 67.5t-138 95.5q-111 117 -111 273q0 174 119 292.5t340 118.5 q209 0 350 -112l92 90q25 23 41 22q25 0 31 -11t6 -46v-375q0 -37 -7 -47t-42 -10q-31 0 -38 7t-13 46q-23 131 -94.5 213t-151.5 108.5t-172 26.5q-139 0 -200.5 -66.5t-61.5 -148.5q0 -86 61.5 -141t134.5 -72l297 -63q147 -31 250 -149.5t103 -282.5q0 -176 -116 -307.5 t-349 -131.5q-258 0 -410 113l-94 -94q-20 -18 -39 -19q-25 0 -31 11.5t-6 46.5zM532 -238q0 47 30.5 80t80.5 33q57 0 94 -51t37 -129q0 -88 -38 -166t-77 -116t-55 -38q-27 0 -27 25q0 8 33 39t69.5 94t42.5 147q-39 -29 -77 -28q-47 0 -80 31.5t-33 78.5z" />
<glyph unicode="&#x219;" horiz-adv-x="927" d="M78 45v223q0 39 7 49.5t42 10.5q25 0 34 -4.5t15 -24.5q12 -43 27.5 -76t47.5 -75t88 -64.5t132 -22.5q233 0 234 154q0 43 -23 73.5t-66 48t-70.5 25t-68.5 13.5q-100 18 -139 26.5t-89 30t-89 55.5q-82 70 -82 172q0 63 22.5 112.5t62.5 77.5t79 45t89 23.5t73.5 8.5 t50.5 2q129 0 207 -39q80 39 92 39q25 0 31 -11.5t6 -46.5v-163q0 -39 -7.5 -48.5t-42.5 -9.5q-31 0 -38 8.5t-9 32.5q-16 172 -241 172q-229 0 -230 -127q0 -35 19.5 -59.5t59.5 -38.5t62.5 -20.5t67.5 -14.5q133 -23 191.5 -40t113.5 -58q113 -90 113 -217 q0 -72 -22.5 -126.5t-62.5 -85t-79 -50t-90 -26.5t-73.5 -9t-51.5 -2q-147 0 -242 65l-53 -35q-43 -31 -61 -30q-25 0 -31 12t-6 45zM344 -226q0 47 30.5 80t80.5 33q57 0 94 -51t37 -129q0 -88 -38 -166t-77 -116t-55 -38q-27 0 -27 25q0 8 33 39t69.5 94t42.5 147 q-39 -29 -77 -28q-47 0 -80 31.5t-33 78.5z" />
<glyph unicode="&#x21a;" horiz-adv-x="1638" d="M86 889l43 493h1378l43 -493h-96q-8 86 -14 132t-27.5 106.5t-54.5 89t-92.5 49t-145.5 20.5h-155v-1190h313v-96q-111 6 -459 6t-459 -6v96h314v1190h-158q-86 0 -146.5 -21.5t-93 -50t-53 -88t-28 -105.5t-13.5 -132h-96zM696 -215q0 47 30.5 80t80.5 33q57 0 94 -51 t37 -129q0 -88 -38 -166t-77 -116t-55 -38q-27 0 -27 25q0 8 33 39t69.5 94t42.5 147q-39 -29 -77 -28q-47 0 -80 31.5t-33 78.5z" />
<glyph unicode="&#x21b;" horiz-adv-x="915" d="M43 813v74q143 4 223 126t82 287h96v-391h299v-96h-299v-565q0 -178 119 -178q49 0 86 46t37 142v104h96v-108q0 -115 -66.5 -190.5t-180.5 -75.5q-324 0 -324 264v561h-168zM293 -226q0 47 30.5 80t80.5 33q57 0 94 -51t37 -129q0 -88 -38 -166t-77 -116t-55 -38 q-27 0 -27 25q0 8 33 39t69.5 94t42.5 147q-39 -29 -77 -28q-47 0 -80 31.5t-33 78.5z" />
<glyph unicode="&#x2c6;" d="M262 1044l326 304h2l323 -304l-63 -73l-260 209h-2l-262 -209z" />
<glyph unicode="&#x2c7;" d="M236 1313v2l34 45h2q307 -176 316 -176h2q10 0 313 176h2l37 -45v-2l-352 -350h-2z" />
<glyph unicode="&#x2d8;" d="M223 1337h74q4 -61 39 -104t85 -61.5t90 -25.5t77 -7q51 0 106.5 11t115.5 59t67 128h73q-6 -152 -114.5 -238.5t-247.5 -86.5q-143 0 -252 89t-113 236z" />
<glyph unicode="&#x2d9;" horiz-adv-x="653" d="M199 1264q0 61 46 109t113 48q63 0 111.5 -46t48.5 -113q0 -61 -46 -109.5t-114 -48.5q-70 0 -114.5 48.5t-44.5 111.5z" />
<glyph unicode="&#x2da;" horiz-adv-x="1779" d="M643 1175.5q0 67.5 59.5 123t188.5 55.5q127 0 184.5 -55.5t57.5 -122.5q0 -78 -66 -128.5t-178 -50.5q-129 0 -187.5 55.5t-58.5 123zM741 1176q0 -39 11.5 -61.5t38 -32t46 -11.5t60.5 -2t66.5 4t49 29.5t23.5 73.5q0 39 -11 61.5t-37.5 31.5t-47 11t-63.5 2 q-27 0 -46.5 -3t-42 -12.5t-35 -32.5t-12.5 -58z" />
<glyph unicode="&#x2db;" horiz-adv-x="653" d="M-10 -262q0 63 43 109.5t93 68t125 49t105 43.5q33 18 70 49l33 -55v-2q-23 -18 -91.5 -67.5t-102.5 -86t-34 -75.5q0 -29 27 -48.5t61 -19.5q86 0 158 107l62 -41q-47 -86 -129 -149.5t-189 -63.5q-100 0 -165.5 56t-65.5 126z" />
<glyph unicode="&#x2dc;" d="M195 1251q10 10 43.5 48t41 45.5t33 30t41 27.5t39 12t49.5 7q57 0 164 -34.5t164 -34.5q49 0 80 15t74 54l55 -51q-12 -12 -44 -47t-41 -44t-34.5 -31.5t-41 -28t-39 -12.5t-50.5 -7q-57 0 -162.5 35t-163.5 35q-49 0 -80.5 -15.5t-74.5 -54.5z" />
<glyph unicode="&#x2dd;" d="M301 1096q242 223 266 239q29 20 61 21q51 0 85 -41t34 -88q0 -57 -42 -83t-224 -87q-80 -29 -129 -45zM693 1096q242 223 266 239q29 20 61 21q51 0 85 -41t34 -88q0 -57 -42 -83t-224 -87q-80 -29 -129 -45z" />
<glyph unicode="&#x374;" horiz-adv-x="534" d="M143 1024q2 8 4.5 17.5t7.5 30t12 45t19.5 75.5t28.5 111l4 20q4 20 7 28.5t10.5 28t15.5 29.5t20.5 22.5t29.5 18.5t38 6q49 0 92 -36t43 -87q0 -35 -25.5 -65.5t-144.5 -147.5q-74 -72 -121 -119h-2z" />
<glyph unicode="&#x375;" horiz-adv-x="534" d="M68 -322q0 35 28.5 71t139.5 142q74 72 122 119l41 -20l-82 -322q-29 -113 -114 -112q-49 0 -92 35.5t-43 86.5z" />
<glyph unicode="&#x37a;" horiz-adv-x="329" d="M47 -172q0 33 9.5 46t37.5 13h135q35 0 44.5 -15t9.5 -58v-172q0 -43 -12.5 -73t-34 -43t-38 -18.5t-34.5 -5.5q-16 0 -33.5 5.5t-38 18.5t-33 43t-12.5 73v186z" />
<glyph unicode="&#x37e;" horiz-adv-x="739" d="M209 160q0 63 43 111t117 48q76 0 121 -69.5t45 -183.5q0 -127 -51.5 -240t-102.5 -167t-74 -54q-12 0 -24.5 11t-12.5 26q0 12 27 41.5t58.5 66.5t63.5 112t40 163q-49 -25 -90 -25q-72 0 -116 46t-44 114zM209 752q0 70 49 114.5t111 44.5q63 0 111 -46t48 -113 q0 -61 -46 -110.5t-113 -49.5q-63 0 -111.5 46t-48.5 114z" />
<glyph unicode="&#x384;" horiz-adv-x="466" d="M88 1024q12 47 26.5 103.5t21.5 88t17.5 69.5t17.5 58.5t16.5 43t17.5 33t20.5 20.5t26.5 13t33 3q49 0 92 -36t43 -85q0 -37 -30 -73.5t-142 -145.5q-72 -70 -119 -115z" />
<glyph unicode="&#x385;" horiz-adv-x="739" d="M-6 1085q0 31 26.5 55.5t92.5 24.5q59 0 87.5 -24.5t28.5 -55t-27.5 -57.5t-92.5 -27q-51 0 -83 23.5t-32 60.5zM295 1024q74 303 101.5 367.5t95.5 64.5q53 0 93 -38t40 -83q0 -37 -31 -74.5t-158 -160.5q-61 -61 -100 -99zM512 1083.5q0 30.5 27.5 56t93.5 25.5 q59 0 87 -25.5t28 -56t-27 -56.5t-92 -26q-59 0 -88 26t-29 56.5z" />
<glyph unicode="&#x386;" horiz-adv-x="1910" d="M88 1024q12 47 26.5 103.5t21.5 88t17.5 69.5t17.5 58.5t16.5 43t17.5 33t20.5 20.5t26.5 13t33 3q49 0 92 -36t43 -85q0 -37 -30 -73.5t-142 -145.5q-72 -70 -119 -115zM115 0v98q139 0 173 9.5t50 46.5l530 1218q14 33 30.5 45.5t53.5 12.5q31 0 50.5 -11.5t23.5 -19.5 t14 -31l494 -1137q10 -23 28.5 -66.5t28.5 -66.5h203v-98q-176 6 -317 6h-15q-182 0 -366 -6v98h190l-131 301h-590q-29 -72 -59.5 -140.5t-41.5 -95t-11 -36.5q0 -29 174 -29v-98q-131 6 -269 6q-120 0 -243 -6zM608 498h504l-250 579z" />
<glyph unicode="&#x387;" horiz-adv-x="739" d="M209 752q0 70 49 114.5t111 44.5q63 0 111 -46t48 -113q0 -61 -46 -110.5t-113 -49.5q-63 0 -111.5 46t-48.5 114z" />
<glyph unicode="&#x388;" horiz-adv-x="2138" d="M88 1024q12 47 26.5 103.5t21.5 88t17.5 69.5t17.5 58.5t16.5 43t17.5 33t20.5 20.5t26.5 13t33 3q49 0 92 -36t43 -85q0 -37 -30 -73.5t-142 -145.5q-72 -70 -119 -115zM586 0v98h221v1198h-221v97q117 -4 352 -4q100 0 185 2t100 2h686l63 -496h-98q-31 233 -122 316 t-318 83h-336v-524h143q139 2 179 58.5t40 181.5h99v-578h-99q0 125 -40 181.5t-179 58.5h-143v-576h301q170 0 278.5 31t175.5 137q55 90 91 297h96l-92 -563h-725q-14 0 -100.5 3t-188.5 3q-172 0 -348 -6z" />
<glyph unicode="&#x389;" horiz-adv-x="2441" d="M88 1024q12 47 26.5 103.5t21.5 88t17.5 69.5t17.5 58.5t16.5 43t17.5 33t20.5 20.5t26.5 13t33 3q49 0 92 -36t43 -85q0 -37 -30 -73.5t-142 -145.5q-72 -70 -119 -115zM586 0v98h221v1209h-221v98q188 -6 375 -6q178 0 360 6v-98h-223v-529h708v529h-221v98 q188 -6 375 -6q178 0 358 6v-98h-221v-1209h221v-98q-180 6 -358 6q-186 0 -375 -6v98h221v584h-708v-584h223v-98q-186 6 -375 6q-180 0 -360 -6z" />
<glyph unicode="&#x38a;" horiz-adv-x="1439" d="M88 1024q12 47 26.5 103.5t21.5 88t17.5 69.5t17.5 58.5t16.5 43t17.5 33t20.5 20.5t26.5 13t33 3q49 0 92 -36t43 -85q0 -37 -30 -73.5t-142 -145.5q-72 -70 -119 -115zM574 0v96h233v1213h-233v96q84 -6 378.5 -6t378.5 6v-96h-233v-1213h233v-96q-84 6 -378.5 6 t-378.5 -6z" />
<glyph unicode="&#x38c;" horiz-adv-x="2138" d="M88 1024q12 47 26.5 103.5t21.5 88t17.5 69.5t17.5 58.5t16.5 43t17.5 33t20.5 20.5t26.5 13t33 3q49 0 92 -36t43 -85q0 -37 -30 -73.5t-142 -145.5q-72 -70 -119 -115zM397 694q0 111 27.5 214.5t89 198.5t150.5 165.5t224.5 112.5t298.5 42q356 0 570.5 -200.5 t214.5 -530.5q0 -324 -214 -521.5t-577 -197.5q-358 0 -571 197.5t-213 519.5zM710 729q0 -289 90 -448q39 -70 95.5 -116t115 -65.5t98 -26.5t76.5 -7q78 0 150 23.5t141.5 79.5t116.5 165.5t59 261.5q4 57 4 145q0 289 -110 437q-57 76 -152.5 120.5t-210.5 44.5 q-113 0 -211 -46t-157 -132q-105 -147 -105 -436z" />
<glyph unicode="&#x38e;" horiz-adv-x="2435" d="M88 1024q12 47 26.5 103.5t21.5 88t17.5 69.5t17.5 58.5t16.5 43t17.5 33t20.5 20.5t26.5 13t33 3q49 0 92 -36t43 -85q0 -37 -30 -73.5t-142 -145.5q-72 -70 -119 -115zM631 1137q0 102 89 196t239 94q51 0 104 -14t129 -57t145.5 -147.5t112.5 -260.5q18 82 55 160 t94.5 152.5t146.5 120.5t194 46q147 0 237 -95t90 -195q0 -49 -51 -50q-33 0 -44 11.5t-14 26t-13.5 29.5t-56.5 26.5t-128 11.5q-147 0 -236 -100q-129 -143 -129 -420v-574h277v-98q-221 6 -438 6q-205 0 -408 -6v98h279v572q0 145 -35 251.5t-88 160t-95 76t-81 30.5 q-23 4 -68 4q-82 0 -127 -11.5t-56.5 -26.5t-14.5 -29.5t-13 -26t-41 -11.5q-55 1 -55 50z" />
<glyph unicode="&#x38f;" horiz-adv-x="2064" d="M88 1024q12 47 26.5 103.5t21.5 88t17.5 69.5t17.5 58.5t16.5 43t17.5 33t20.5 20.5t26.5 13t33 3q49 0 92 -36t43 -85q0 -37 -30 -73.5t-142 -145.5q-72 -70 -119 -115zM370 410h99q25 -137 40 -160q23 -35 115 -39h53h131q-39 80 -115.5 178t-137 170t-108.5 173.5 t-48 203.5q0 82 36 161t115.5 156.5t234.5 125.5t363 48q168 0 302.5 -32.5t216.5 -83.5t136 -119t74.5 -131.5t20.5 -126.5q0 -102 -48 -203.5t-108.5 -172.5t-138.5 -169t-117 -178h113q145 2 174 23.5t51 148.5q2 16 4 27h99l-76 -410h-424q-31 2 -43 15.5t-12 45.5 q0 135 106.5 432.5t106.5 446.5q0 117 -39 202t-106.5 128t-138.5 62.5t-152.5 19.5t-152.5 -19.5t-138.5 -62.5t-106.5 -128t-39 -204q0 -147 105.5 -446t105.5 -433q0 -31 -10 -44t-43 -15h-424z" />
<glyph unicode="&#x390;" horiz-adv-x="671" d="M-82 1085q0 31 26.5 55.5t92.5 24.5q59 0 88 -24.5t29 -55t-28 -57.5t-93 -27q-51 0 -83 23.5t-32 60.5zM168 877q0 45 51 45h152q49 0 49 -37q0 -18 -52.5 -255t-52.5 -263q0 -41 26 -72t65 -31q31 0 54 22.5t23 55.5q0 53 29 53q31 0 79 -55t48 -135 q0 -88 -63.5 -155.5t-157.5 -67.5q-174 0 -209 241q-8 61 -24.5 342t-16.5 312zM219 1024q74 303 101.5 367.5t95.5 64.5q53 0 93 -38t40 -83q0 -37 -31 -74.5t-158 -160.5q-61 -61 -100 -99zM436 1083.5q0 30.5 28 56t93 25.5q51 0 83 -22.5t32 -59.5q0 -31 -27 -56.5 t-92 -25.5q-59 0 -88 26t-29 56.5z" />
<glyph unicode="&#x391;" horiz-adv-x="1910" d="M115 0v98q139 0 173 9.5t50 46.5l530 1218q14 33 30.5 45.5t53.5 12.5q31 0 50.5 -11.5t23.5 -19.5t14 -31l494 -1137q10 -23 28.5 -66.5t28.5 -66.5h203v-98q-176 6 -317 6h-15q-182 0 -366 -6v98h190l-131 301h-590q-29 -72 -59.5 -140.5t-41.5 -95t-11 -36.5 q0 -29 174 -29v-98q-131 6 -269 6q-120 0 -243 -6zM608 498h504l-250 579z" />
<glyph unicode="&#x392;" horiz-adv-x="1802" d="M121 0v98h221v1209h-221v98q172 -6 346 -6q82 0 167 3t144 3h209q358 0 500 -154q82 -88 82 -200q0 -242 -375 -318q104 -8 199.5 -43t169 -115.5t73.5 -193.5q0 -84 -49 -172t-170 -146q-133 -63 -366 -63h-260q-57 0 -139.5 3t-186.5 3q-172 0 -344 -6zM612 98h387 q180 0 257 84t77 205t-61.5 205t-171.5 98q-25 4 -74 4h-414v-596zM612 768h328q100 0 172 28.5t104.5 76t46 90.5t13.5 88q0 100 -60.5 178t-205.5 78h-398v-539z" />
<glyph unicode="&#x393;" horiz-adv-x="1536" d="M119 0v98h221v1198h-221v97q117 -4 352 -4q98 0 183 2t100 2h587l62 -496h-96q-14 113 -34 178.5t-63 119.5t-116.5 76.5t-188.5 24.5h-274v-1198h278v-98q-213 6 -426 6q-200 0 -364 -6z" />
<glyph unicode="&#x394;" horiz-adv-x="2105" d="M154 27q0 14 16 41l772 1286q27 45 45.5 60.5t61.5 15.5q37 0 57 -10.5t43 -45.5l778 -1298q23 -39 23 -51q0 -25 -41 -25h-1704q-51 0 -51 27zM406 248h1079l-539 899h-2z" />
<glyph unicode="&#x395;" horiz-adv-x="1671" d="M119 0v98h221v1198h-221v97q117 -4 352 -4q100 0 185 2t100 2h686l63 -496h-98q-31 233 -122 316t-318 83h-336v-524h143q139 2 179 58.5t40 181.5h99v-578h-99q0 125 -40 181.5t-179 58.5h-143v-576h301q170 0 278.5 31t175.5 137q55 90 91 297h96l-92 -563h-725 q-14 0 -100.5 3t-188.5 3q-172 0 -348 -6z" />
<glyph unicode="&#x396;" horiz-adv-x="1558" d="M164 55q0 25 31 70l849 1182h-243q-80 0 -133.5 -4.5t-127 -26t-118.5 -61t-82 -117.5t-45 -189h-98l26 496h1102q33 0 49.5 -10.5t16.5 -40.5q0 -25 -33 -72l-846 -1176h315q137 2 226.5 31t142.5 91.5t77.5 145.5t33.5 210h98l-37 -584h-1139q-33 0 -49 10t-16 45z" />
<glyph unicode="&#x397;" horiz-adv-x="1974" d="M119 0v98h221v1209h-221v98q188 -6 375 -6q178 0 360 6v-98h-223v-529h708v529h-221v98q188 -6 375 -6q178 0 358 6v-98h-221v-1209h221v-98q-180 6 -358 6q-186 0 -375 -6v98h221v584h-708v-584h223v-98q-186 6 -375 6q-180 0 -360 -6z" />
<glyph unicode="&#x398;" horiz-adv-x="1968" d="M164 694q0 326 219 529.5t602 203.5q371 0 593 -201.5t222 -531.5q0 -324 -221 -520.5t-596 -196.5q-383 0 -601 201t-218 516zM455 696q0 -375 192 -530q131 -109 334 -109q72 0 137.5 13.5t139 54.5t127 108.5t89 185.5t35.5 273q0 385 -188 545q-133 115 -338 115 q-72 0 -137.5 -13.5t-139 -56.5t-127 -112.5t-89 -191.5t-35.5 -282zM594 512v387h96v-70h584v70h98v-387h-98v70h-584v-70h-96z" />
<glyph unicode="&#x399;" horiz-adv-x="972" d="M107 0v96h233v1213h-233v96q84 -6 378.5 -6t378.5 6v-96h-233v-1213h233v-96q-84 6 -378.5 6t-378.5 -6z" />
<glyph unicode="&#x39a;" horiz-adv-x="1978" d="M119 0v98h221v1209h-221v98q188 -6 375 -6q178 0 360 6v-98h-223v-662l809 643q-49 18 -140 19v98l369 -6l143 6v-98q-47 0 -80.5 -1t-59 -4.5t-40 -5.5t-28 -9t-19.5 -11t-19.5 -15.5t-21.5 -17.5q-164 -129 -279.5 -221t-149.5 -120t-54 -42l577 -717q27 -33 50.5 -39 t107.5 -6h51v-98q-178 6 -299 6q-184 0 -366 -6v98h18q115 0 115 23q0 10 -21 37l-379 471l-55 71q-27 -20 -99.5 -78.5t-96.5 -76.5q-25 -20 -29 -28.5t-4 -41.5v-377h223v-98q-186 6 -375 6q-180 0 -360 -6z" />
<glyph unicode="&#x39b;" horiz-adv-x="1773" d="M113 0v98q125 0 154.5 9.5t43.5 46.5l492 1218q12 31 29.5 44.5t52.5 13.5q37 0 54 -13.5t30 -48.5l512 -1270h178v-98q-141 6 -316 6q-186 0 -370 -6v98h194l-381 942l-370 -919q16 -8 40.5 -12.5t44 -5.5t53.5 -3t48 -2v-98q-135 6 -270 6q-88 0 -219 -6z" />
<glyph unicode="&#x39c;" horiz-adv-x="2383" d="M127 0v98q109 0 155 5.5t56 14.5t10 34v1155h-221v98h459q37 0 54 -11.5t36 -47.5l459 -967q49 -106 55 -119h2q33 78 51 115l461 971q18 37 35.5 48t54.5 11h459v-98h-221v-1209h221v-98q-180 6 -361 6h-8q-141 0 -332 -6v98h224v1145l-2 70q-18 -43 -60 -125 l-526 -1118q-33 -68 -78 -68q-23 0 -41 16.5t-22.5 25.5t-16.5 34l-573 1210v-1136q0 -20 4 -27.5t25.5 -15t65.5 -9.5t128 -2v-98q-139 6 -276.5 6t-276.5 -6z" />
<glyph unicode="&#x39d;" horiz-adv-x="1974" d="M119 0v98h6q106 0 150 5.5t54.5 14.5t10.5 34v1155h-221v98h481q39 0 72 -37l850 -958v827q0 49 -27 59.5t-164 10.5h-31v98q137 -6 277 -6q135 0 274 6v-98q-86 0 -128 -1t-64.5 -10.5t-25.5 -17.5t-3 -33v-1190q0 -55 -53 -55q-8 0 -14.5 1t-12.5 3t-12 7t-11 8.5 t-15.5 14.5t-16.5 18t-21.5 24.5t-27.5 32.5l-997 1122v-1084q2 -23 12 -30.5t57 -13t154 -5.5v-98q-139 6 -276.5 6t-276.5 -6z" />
<glyph unicode="&#x39e;" horiz-adv-x="1695" d="M131 430h98q8 -141 24.5 -166.5t96.5 -30.5q111 -4 168 -4h649q231 0 258 17q35 20 41 184h99l-21 -430h-1394zM145 975l19 407h1368l18 -407h-98q-6 111 -19.5 139.5t-52.5 32.5q-47 6 -237 6h-604q-197 0 -235 -7t-48 -52q-8 -29 -12 -119h-99zM369 510v418h98v-94h760 v94h98v-418h-98v94h-760v-94h-98z" />
<glyph unicode="&#x39f;" horiz-adv-x="1904" d="M164 694q0 111 27.5 214.5t89 198.5t150.5 165.5t224.5 112.5t298.5 42q356 0 570.5 -200.5t214.5 -530.5q0 -324 -214 -521.5t-577 -197.5q-358 0 -571 197.5t-213 519.5zM477 729q0 -289 90 -448q39 -70 95.5 -116t115 -65.5t98 -26.5t76.5 -7q78 0 150 23.5 t141.5 79.5t116.5 165.5t59 261.5q4 57 4 145q0 289 -110 437q-57 76 -152.5 120.5t-210.5 44.5q-113 0 -211 -46t-157 -132q-105 -147 -105 -436z" />
<glyph unicode="&#x3a0;" horiz-adv-x="1974" d="M119 0v98h221v1198h-221v97l393 -4l135 4h678l133 -4l393 4v-97h-221v-1198h221v-98q-180 6 -358 6q-186 0 -375 -6v98h221v1198h-708v-1198h223v-98q-186 6 -375 6q-180 0 -360 -6z" />
<glyph unicode="&#x3a1;" horiz-adv-x="1734" d="M119 0v98h221v1209h-221v98q176 -6 348 -6q102 0 182 3t135 3h170q393 0 539 -186q76 -98 76 -213q0 -66 -28 -128.5t-89 -124t-183 -99.5t-288 -38h-350v-518h223v-98q-186 6 -375 6q-180 0 -360 -6zM621 702h274q111 0 181.5 16.5t108.5 53.5t52 83t16 118v65 q-2 84 -20.5 134.5t-75.5 84.5q-82 49 -260 50h-276v-605z" />
<glyph unicode="&#x3a3;" horiz-adv-x="1830" d="M164 1356q0 49 63 49h1375l61 -496h-96q-14 92 -39 160t-69 111t-89 69.5t-118.5 38.5t-136 15.5t-165.5 3.5h-383l469 -551q29 -33 29 -54q0 -25 -39 -55l-600 -512h502q252 0 352 24.5t160 84.5q100 98 127 288h96l-61 -532h-1375q-59 0 -59 37q0 4 1 9t5 10t8 10.5 t11.5 12.5t14.5 14t19.5 17.5t22.5 18.5t26.5 22.5t30.5 26.5l486 414l-598 702q-31 35 -31 62z" />
<glyph unicode="&#x3a4;" horiz-adv-x="1769" d="M117 887l43 495h458l234 -6l299 6h457l43 -495h-99q-14 154 -37.5 228.5t-91.5 119.5q-78 49 -247 49h-146v-1186h313v-98q-242 6 -483 6q-111 0 -436 -6v98h315v1186h-147q-119 0 -188.5 -19.5t-108.5 -73.5t-53.5 -118.5t-26.5 -185.5h-98z" />
<glyph unicode="&#x3a5;" horiz-adv-x="1968" d="M164 1137q0 102 89 196t239 94q51 0 104 -14t129 -57t145.5 -147.5t112.5 -260.5q18 82 55 160t94.5 152.5t146.5 120.5t194 46q147 0 237 -95t90 -195q0 -49 -51 -50q-33 0 -44 11.5t-14 26t-13.5 29.5t-56.5 26.5t-128 11.5q-147 0 -236 -100q-129 -143 -129 -420v-574 h277v-98q-221 6 -438 6q-205 0 -408 -6v98h279v572q0 145 -35 251.5t-88 160t-95 76t-81 30.5q-23 4 -68 4q-82 0 -127 -11.5t-56.5 -26.5t-14.5 -29.5t-13 -26t-41 -11.5q-55 1 -55 50z" />
<glyph unicode="&#x3a6;" horiz-adv-x="1830" d="M164 705q0 164 168 265t436 122v215h-276v98q215 -6 432 -6q137 0 391 6v-98h-279v-213q262 -12 444.5 -118t182.5 -274q0 -162 -178 -270t-449 -121v-213h279v-98q-215 6 -430 6q-139 0 -393 -6v98h276v215q-295 23 -449.5 134t-154.5 258zM467 705q0 -57 10 -102.5 t40 -92.5t93.5 -79t157.5 -42v625q-178 -20 -239.5 -104t-61.5 -205zM1036 387q160 18 242 87t82 224q0 143 -68.5 220t-253.5 100l-2 -90v-541z" />
<glyph unicode="&#x3a7;" horiz-adv-x="1910" d="M102 0v98h151.5t81.5 14.5t38 18.5t33 41q391 487 411 510v2l-479 623h-205v98q147 -6 328 -6q190 0 381 6v-98h-166l315 -408q102 129 215 266q84 104 84 115q0 27 -172 27v98q252 -6 254 -6q66 0 332 6v-98q-133 0 -187.5 -7.5t-68.5 -15.5t-43 -45 q-342 -424 -346 -430l524 -682q16 -20 24.5 -24.5t30.5 -4.5h172v-98q-166 6 -331 6q-188 0 -377 -6v98h166l-381 496l-381 -475q57 -20 182 -21v-98q-156 6 -313 6q-138 0 -273 -6z" />
<glyph unicode="&#x3a8;" horiz-adv-x="1968" d="M166 1083q0 37 61 37h152q180 0 190 -256q2 -82 10.5 -138t33 -129t81 -123t144.5 -75v908h-279v98q256 -6 391 -6l432 6v-98h-276v-910q129 35 206 128t81 302q6 293 192 293h154q59 0 59 -37q0 -8 -3 -14t-6 -10t-10 -7t-10.5 -4t-11.5 -4l-8 -2q-23 -6 -39 -23.5 t-24.5 -35.5t-13.5 -49t-7 -48.5t-3 -49t-1 -37.5q-8 -119 -56.5 -209t-108.5 -139.5t-142 -81t-136.5 -42t-111.5 -14.5v-215h276v-98q-215 6 -430 6q-158 0 -393 -6v98h279v215q-147 14 -256 65.5t-160 110t-81 137.5t-34 124t-6 94v18q-4 80 -26.5 124t-46 50t-43 15 t-19.5 32z" />
<glyph unicode="&#x3a9;" horiz-adv-x="1830" d="M137 410h99q25 -137 40 -160q23 -35 115 -39h53h131q-39 80 -115.5 178t-137 170t-108.5 173.5t-48 203.5q0 82 36 161t115.5 156.5t234.5 125.5t363 48q168 0 302.5 -32.5t216.5 -83.5t136 -119t74.5 -131.5t20.5 -126.5q0 -102 -48 -203.5t-108.5 -172.5t-138.5 -169 t-117 -178h113q145 2 174 23.5t51 148.5q2 16 4 27h99l-76 -410h-424q-31 2 -43 15.5t-12 45.5q0 135 106.5 432.5t106.5 446.5q0 117 -39 202t-106.5 128t-138.5 62.5t-152.5 19.5t-152.5 -19.5t-138.5 -62.5t-106.5 -128t-39 -204q0 -147 105.5 -446t105.5 -433 q0 -31 -10 -44t-43 -15h-424z" />
<glyph unicode="&#x3aa;" horiz-adv-x="972" d="M49 1655q0 63 46 111.5t114 48.5q63 0 111.5 -46.5t48.5 -113.5q0 -70 -49.5 -114t-110.5 -44q-63 0 -111.5 45t-48.5 113zM106 0v98h234v1209h-234v98q197 -6 394 -6q184 0 364 6v-98h-233v-1209h233v-98q-197 6 -391 6q-35 0 -367 -6zM602 1655q0 61 46 110.5t114 49.5 q63 0 110.5 -45.5t47.5 -112.5q0 -66 -46.5 -113t-112 -47t-112.5 45t-47 113z" />
<glyph unicode="&#x3ab;" horiz-adv-x="1968" d="M164 1137q0 102 89 196t239 94q51 0 104 -14t129 -57t145.5 -147.5t112.5 -260.5q18 82 55 160t94.5 152.5t146.5 120.5t194 46q147 0 237 -95t90 -195q0 -49 -51 -50q-33 0 -44 11.5t-14 26t-13.5 29.5t-56.5 26.5t-128 11.5q-147 0 -236 -100q-129 -143 -129 -420v-574 h277v-98q-221 6 -438 6q-205 0 -408 -6v98h279v572q0 145 -35 251.5t-88 160t-95 76t-81 30.5q-23 4 -68 4q-82 0 -127 -11.5t-56.5 -26.5t-14.5 -29.5t-13 -26t-41 -11.5q-55 1 -55 50zM518 1655q0 66 46 113t111.5 47t113 -45.5t47.5 -112.5q0 -66 -46.5 -113t-111.5 -47 q-70 0 -115 47.5t-45 110.5zM1128 1654.5q0 65.5 46.5 113t112 47.5t112.5 -45.5t47 -112.5q0 -66 -46 -113t-110 -47q-70 0 -116 46t-46 111.5z" />
<glyph unicode="&#x3ac;" horiz-adv-x="1341" d="M131 457q0 229 120 347t279 118q76 0 137.5 -32t104.5 -91.5t66.5 -102.5t50.5 -106q27 59 48 113.5t32.5 85t21.5 58t15.5 40t14.5 22t17.5 11.5t24.5 2h125q53 0 53 -31q0 -29 -77 -219.5t-140 -304.5q-18 -37 -18 -45q0 -29 54 -80.5t122 -51.5q61 0 81.5 34t53.5 34 q47 0 47 -43q0 -74 -47 -149.5t-139 -75.5q-143 0 -248 225q-39 -47 -63.5 -71.5t-78 -67.5t-117 -64.5t-136.5 -21.5q-162 0 -283 117t-121 350zM229 455q0 -264 293 -265q137 0 256 185q47 72 47 96q0 8 -10 32.5t-33.5 61.5t-56.5 71t-86 58.5t-115 24.5q-135 0 -215 -56 t-80 -208zM606 1024q8 39 48 190.5t51 174.5q33 68 98 67q49 0 92 -36t43 -85q0 -37 -27.5 -71.5t-156.5 -157.5q-66 -63 -107 -105z" />
<glyph unicode="&#x3ad;" horiz-adv-x="1114" d="M131 268q0 109 86 215q-86 96 -86 217q0 90 104.5 161t370.5 71h17q182 0 276 -8.5t116.5 -18.5t22.5 -31q0 -29 -34 -167q-6 -27 -15.5 -37.5t-28 -10.5t-176 36t-241.5 36q-182 0 -240 -53q-41 -41 -41 -98q0 -14 12 -48q123 82 297 82q82 0 114 -43t32 -88 q0 -47 -34 -89t-110 -42q-176 0 -299 82q-12 -37 -12 -53q0 -20 2 -33q10 -57 38 -93t75 -51.5t86 -19.5t100 -4q164 8 246 35q80 27 166 78q20 12 39 12q25 0 24 -31q0 -2 -30 -147q-8 -35 -11.5 -43t-16.5 -19.5t-46 -23.5q-170 -63 -350 -64h-6q-203 0 -325 80t-122 211z M510 1024q2 14 7 34.5t26.5 101.5t48.5 183q29 113 115 113q49 0 91 -35t42 -88q0 -37 -31 -74.5t-147 -150.5q-68 -66 -111 -107z" />
<glyph unicode="&#x3ae;" horiz-adv-x="1286" d="M70 762q0 68 50 119t126 51q164 0 211 -240q129 240 336 240q61 0 117.5 -21.5t114.5 -73t93 -155.5t35 -252v-829q0 -53 -23.5 -86t-47 -41.5t-46.5 -8.5q-41 0 -78.5 30t-37.5 99q0 139 67.5 428t67.5 433q0 133 -37 184q-53 72 -158 72q-70 0 -121 -38t-88 -121 t-61.5 -180.5t-50.5 -252.5q-20 -139 -125 -139q-49 0 -81 29.5t-32 72.5q0 37 36 211t36 194q0 197 -107 240q-27 -68 -96 -68q-43 0 -71.5 29t-28.5 74zM664 1024l81 319q29 113 115 113q49 0 92 -36t43 -87q0 -37 -31.5 -74.5t-152.5 -154.5q-66 -63 -106 -103h-3z" />
<glyph unicode="&#x3af;" horiz-adv-x="671" d="M164 877q0 27 12 36t39 9h154q49 0 49 -37q0 -18 -52.5 -255t-52.5 -263q0 -41 26 -72t64 -31q31 0 54.5 22.5t23.5 55.5q0 53 29 53q31 0 79 -55t48 -135q0 -88 -64.5 -155.5t-158.5 -67.5q-174 0 -209 241q-6 43 -16.5 206t-16.5 304zM215 1024q74 303 101.5 367.5 t95.5 64.5q53 0 94 -38t41 -83q0 -37 -33 -76.5t-145 -148.5q-70 -66 -113 -109z" />
<glyph unicode="&#x3b0;" horiz-adv-x="1286" d="M117 844q0 49 40 80.5t87 31.5q43 0 68.5 -16t36.5 -53t13.5 -65.5t2.5 -80.5v-20q0 -104 -13.5 -206.5t-13.5 -127.5q0 -127 75.5 -210t182.5 -83q160 0 305.5 171t145.5 335q0 78 -29 138.5t-57.5 95t-28.5 49.5q0 18 14.5 32.5t32.5 14.5q31 0 84 -61.5t100 -176 t47 -233.5q0 -209 -132 -339t-357 -130q-205 0 -338 112.5t-150 307.5q0 6 -1 40.5t-4 62.5t-10 70t-25.5 89t-47.5 94q-28 49 -28 78zM201 1085q0 31 26.5 55.5t91.5 24.5q59 0 88 -24.5t29 -55t-27.5 -57.5t-93.5 -27q-51 0 -82.5 23.5t-31.5 60.5zM502 1024q2 8 4 17.5 t7 30t12 45t19.5 75.5t28.5 111l5 20q4 20 7 28.5t10 28t15 29.5t20.5 22.5t30 18.5t37.5 6q49 0 92.5 -36t43.5 -87q0 -35 -26 -65.5t-144 -147.5q-74 -72 -121 -119h-2zM719 1083q0 31 27.5 56.5t93.5 25.5q51 0 82.5 -22.5t31.5 -59.5q0 -31 -26.5 -56.5t-91.5 -25.5 q-53 0 -85 22.5t-32 59.5z" />
<glyph unicode="&#x3b1;" horiz-adv-x="1341" d="M131 457q0 229 120 347t279 118q76 0 137.5 -32t104.5 -91.5t66.5 -102.5t50.5 -106q27 59 48 113.5t32.5 85t21.5 58t15.5 40t14.5 22t17.5 11.5t24.5 2h125q53 0 53 -31q0 -29 -77 -219.5t-140 -304.5q-18 -37 -18 -45q0 -29 54 -80.5t122 -51.5q61 0 81.5 34t53.5 34 q47 0 47 -43q0 -74 -47 -149.5t-139 -75.5q-143 0 -248 225q-39 -47 -63.5 -71.5t-78 -67.5t-117 -64.5t-136.5 -21.5q-162 0 -283 117t-121 350zM229 455q0 -264 293 -265q137 0 256 185q47 72 47 96q0 8 -10 32.5t-33.5 61.5t-56.5 71t-86 58.5t-115 24.5q-135 0 -215 -56 t-80 -208z" />
<glyph unicode="&#x3b2;" horiz-adv-x="1286" d="M59 -442q0 10 17.5 94t36 233.5t18.5 315.5v766q0 106 32 190t82 135t118.5 84t136 45.5t139.5 12.5h4q180 0 285.5 -93.5t105.5 -244.5q0 -143 -112 -269q104 -59 167.5 -165.5t63.5 -237.5q0 -197 -138 -315.5t-366 -118.5q-223 0 -420 149q4 -141 20.5 -275t32 -213 t15.5 -91q0 -51 -35 -82t-84 -31t-84 32t-35 79zM227 295q0 -23 3 -32t19.5 -25.5t57.5 -42.5q121 -82 236 -82q147 0 289.5 138t142.5 294q0 100 -53.5 156.5t-92.5 56.5q-6 0 -38.5 -12.5t-88 -24.5t-116.5 -12q-59 0 -86 32.5t-27 67.5q0 37 26.5 68.5t86.5 31.5 q49 0 90 -5t43 -5q45 0 107.5 93t62.5 182q0 80 -56.5 114.5t-121.5 34.5q-35 0 -87.5 -14.5t-119 -45t-126 -92t-85.5 -143.5q-61 -182 -66 -676v-57z" />
<glyph unicode="&#x3b3;" horiz-adv-x="1478" d="M96 616q0 59 21.5 125t79 123.5t141.5 57.5q125 0 221 -117t189 -387q94 231 202.5 367.5t259.5 136.5q59 0 97.5 -40t38.5 -91q0 -49 -31 -85t-78 -44l-37 -3q-35 -4 -54.5 -10t-56 -23.5t-73.5 -54t-76 -90.5q-51 -74 -92 -161t-41 -109q0 -2 12 -71.5t24.5 -186.5 t12.5 -229q0 -76 -39 -105t-80 -29q-25 0 -47 8.5t-44.5 40t-22.5 82.5q0 72 6 148t14 135t17.5 106.5t15.5 76t6 30.5q0 14 -23.5 78.5t-63.5 148.5t-111.5 149.5t-153.5 65.5q-61 0 -92 -13t-35 -30.5t-16.5 -31t-41.5 -13.5q-49 0 -49 45z" />
<glyph unicode="&#x3b4;" horiz-adv-x="1216" d="M129 463q0 137 66.5 239.5t156.5 157.5q37 23 101 49q-293 180 -293 359q0 70 41 122t141 52q35 0 73 -5t85 -18.5t80.5 -24t95 -35t90.5 -35.5t103.5 -43t99.5 -42v-166q-25 10 -201 86t-298 121t-169 45q-51 0 -51 -88q0 -53 37 -103.5t86 -85t106.5 -62.5t89 -40 t39.5 -14q125 -49 191 -82q115 -59 199.5 -165.5t84.5 -254.5q0 -182 -135 -311t-334 -129q-207 0 -346 140t-139 333zM362 475q0 -90 24 -174t84 -149.5t148 -65.5q104 0 171 86t67 203q0 233 -244 424q-33 29 -51 28q-59 0 -129 -92t-70 -260z" />
<glyph unicode="&#x3b5;" horiz-adv-x="1171" d="M131 268q0 109 86 215q-86 96 -86 217q0 90 104.5 161t370.5 71h17q182 0 276 -8.5t116.5 -18.5t22.5 -31q0 -29 -34 -167q-6 -27 -15.5 -37.5t-28 -10.5t-176 36t-241.5 36q-182 0 -240 -53q-41 -41 -41 -98q0 -14 12 -48q123 82 297 82q82 0 114 -43t32 -88 q0 -47 -34 -89t-110 -42q-176 0 -299 82q-12 -37 -12 -53q0 -20 2 -33q10 -57 38 -93t75 -51.5t86 -19.5t100 -4q164 8 246 35q80 27 166 78q20 12 39 12q25 0 24 -31q0 -2 -30 -147q-8 -35 -11.5 -43t-16.5 -19.5t-46 -23.5q-170 -63 -350 -64h-6q-203 0 -325 80t-122 211z " />
<glyph unicode="&#x3b6;" horiz-adv-x="1216" d="M131 487q0 111 31 213.5t87 186.5t105 140t113 118q-78 -16 -117 -17q-100 0 -142 53.5t-42 125t43 104.5t88 33q51 0 85 -30t42 -73q2 -6 3 -21t3 -24.5t7 -19.5t16.5 -15.5t29.5 -5.5q72 0 247 94.5t206 94.5q45 0 80 -35t35 -84q0 -41 -29 -70.5t-73 -52t-147.5 -82 t-205.5 -133.5q-367 -260 -367 -500q0 -70 41 -123t100.5 -78.5t109.5 -37.5t89 -12h17q217 0 358 -98.5t141 -254.5q0 -145 -116.5 -232t-247.5 -87q-61 0 -86 33.5t-25 68.5q0 72 66 94q4 2 92 6.5t153.5 31t65.5 85.5q0 117 -315 117h-45q-229 0 -362.5 146t-133.5 341z " />
<glyph unicode="&#x3b7;" horiz-adv-x="1286" d="M70 762q0 68 50 119t126 51q164 0 211 -240q129 240 336 240q61 0 117.5 -21.5t114.5 -73t93 -155.5t35 -252v-829q0 -53 -23.5 -86t-47 -41.5t-46.5 -8.5q-41 0 -78.5 30t-37.5 99q0 139 67.5 428t67.5 433q0 133 -37 184q-53 72 -158 72q-70 0 -121 -38t-88 -121 t-61.5 -180.5t-50.5 -252.5q-20 -139 -125 -139q-49 0 -81 29.5t-32 72.5q0 37 36 211t36 194q0 197 -107 240q-27 -68 -96 -68q-43 0 -71.5 29t-28.5 74z" />
<glyph unicode="&#x3b8;" horiz-adv-x="1513" d="M47 629q0 113 44 203t147 90q109 0 201.5 -53.5t109.5 -147.5q4 -20 4 -62v-290q0 -49 3 -84t16.5 -80t38 -73t72.5 -48.5t114 -20.5q68 0 118 44.5t75.5 105.5t39.5 155.5t17.5 163t3.5 158.5v23q-559 111 -559 446q0 127 95 200t220 73q135 0 251 -85t181 -253 q49 -127 61 -349q86 -10 99 -24q8 -8 8 -25q0 -35 -37 -34q-6 0 -15 1t-25.5 3t-31.5 4q-4 -299 -138 -489.5t-374 -190.5q-268 0 -367.5 99t-99.5 296v270q0 98 -26.5 144.5t-61.5 46.5q-18 0 -34 -12q-12 -10 -21.5 -26.5t-14.5 -34t-8 -43t-4.5 -40t-2.5 -37t-1 -26.5 q-2 -27 -12 -37t-39 -10q-47 0 -47 49zM588 1159q0 -70 28.5 -126t71.5 -93t108.5 -68.5t123 -49t131.5 -34.5q-2 115 -6.5 187t-38 180.5t-97.5 161.5q-49 41 -104 41h-2q-76 0 -145.5 -50.5t-69.5 -148.5z" />
<glyph unicode="&#x3b9;" horiz-adv-x="727" d="M164 877q0 27 12 36t39 9h154q49 0 49 -37q0 -18 -52.5 -255t-52.5 -263q0 -41 26 -72t64 -31q31 0 54.5 22.5t23.5 55.5q0 53 29 53q31 0 79 -55t48 -135q0 -88 -64.5 -155.5t-158.5 -67.5q-174 0 -209 241q-6 43 -16.5 206t-16.5 304z" />
<glyph unicode="&#x3ba;" horiz-adv-x="1411" d="M96 762q0 68 50.5 119t127.5 51q129 0 210 -108.5t81 -295.5q0 -45 -2 -67q129 96 267.5 222t213 188.5t117.5 62.5q47 0 83 -36t36 -83q0 -14 -5 -29.5t-10 -24.5t-18.5 -22.5t-18.5 -17.5l-20 -16l-16 -13q-57 -43 -113.5 -82t-74 -49t-34 -29.5t-17.5 -33t-1 -49.5 q0 -215 148 -252q27 78 104 77q43 0 76 -28.5t33 -81.5q0 -74 -55.5 -130.5t-139.5 -56.5q-125 0 -200.5 105.5t-75.5 284.5q0 55 2 82q-66 -47 -140.5 -111t-160.5 -141.5t-107 -96.5q-96 -84 -125.5 -103.5t-62.5 -19.5q-47 0 -82 36t-35 83q0 14 5 29.5t10.5 25 t18.5 22.5t18 17.5t22 16.5l14 12q51 37 99.5 70t69 48t38.5 27.5t22.5 25.5t6.5 26.5t2 44.5q0 233 -162 268q-25 -70 -98 -70q-41 0 -71 28t-30 75z" />
<glyph unicode="&#x3bb;" horiz-adv-x="1286" d="M96 1307q0 45 35 81.5t119 36.5q117 0 207 -84t151.5 -221t112.5 -282.5t118.5 -298t141.5 -238.5q31 -37 55.5 -53.5t52 -24.5t33.5 -12q66 -33 66 -102q0 -47 -31 -83t-82 -36q-86 0 -172 155.5t-231 538.5q-55 -137 -132 -297t-128.5 -255t-63.5 -112q-16 -20 -61 -20 h-137q-49 0 -50 31q0 14 37 78.5t125 234.5t182 383l111 262l-8 15q-8 12 -16.5 25t-25 32.5t-31.5 37t-37.5 36t-45 31t-52.5 20.5t-58 8q-12 0 -35 -3t-33 -3h-2q-49 0 -82 36t-33 83z" />
<glyph unicode="&#x3bc;" horiz-adv-x="1439" d="M131 -45q0 109 25.5 280t25.5 177q0 10 -13 59t-25.5 126t-12.5 155q0 96 36 138t81 42q51 0 84 -42t33 -99q0 -49 -35 -132.5t-35 -148.5q0 -57 13.5 -117.5t42 -123t88 -102.5t136.5 -40q57 0 103.5 23.5t76 56.5t50 92t31 107.5t15.5 126t6 122.5t1 123q0 154 117 154 q16 0 32.5 -4t37 -16.5t34 -41t13.5 -69.5q0 -113 -13.5 -208t-27 -149.5t-13.5 -64.5q0 -59 40 -122.5t118 -63.5q61 0 81.5 32.5t53.5 32.5q47 0 47 -43q0 -76 -49 -150.5t-141 -74.5q-156 0 -225 217q-127 -217 -349 -217q-229 0 -356 241q-2 -23 -2 -69q0 -264 162 -453 q55 -63 61 -92q2 -10 2 -23q0 -49 -35.5 -83.5t-80.5 -34.5q-84 0 -159 138t-75 341z" />
<glyph unicode="&#x3bd;" horiz-adv-x="1273" d="M76 841.5q0 22.5 22.5 41t73.5 18.5q70 0 143.5 -36t145 -106.5t128 -193.5t83.5 -278q90 63 128 92t101.5 88t90 119.5t26.5 128.5q0 57 -23.5 101t-23.5 56q0 18 13 33t34 15q43 0 84 -93.5t41 -187.5q0 -256 -281 -492q-37 -33 -120 -94t-103.5 -61t-25.5 19.5 t-10 77.5t-23 118q-35 115 -115 228.5t-151.5 179t-142.5 123t-75 61.5q-20 20 -20 42.5z" />
<glyph unicode="&#x3be;" horiz-adv-x="1216" d="M131 416q0 264 326 420q-121 51 -121 165q0 133 119 248q-100 -14 -150 -14q-139 0 -139 84q0 43 35 84t96 41q102 0 129 -105q98 16 219 43t197 44.5t96 17.5q45 0 79 -34t34 -85q0 -45 -29 -74.5t-57 -36.5l-29 -6q-53 -10 -139 -19t-144.5 -16.5t-119 -25t-91 -53 t-30.5 -93.5q0 -94 149 -94q53 0 125 12.5t82 12.5q51 0 82 -36t31 -83q0 -39 -15.5 -62.5t-56.5 -39t-74 -21.5t-110.5 -16t-122.5 -19q-55 -10 -91 -19t-84 -30.5t-73 -59.5t-25 -91q0 -96 89.5 -152.5t234.5 -66.5q12 0 66.5 -2.5t82 -5.5t78.5 -16t99 -36 q207 -98 206 -293q0 -143 -115.5 -231t-252.5 -88q-57 0 -82 32.5t-25 67.5q0 74 64 94q8 4 96 8.5t152.5 31t64.5 85.5q0 68 -87 92.5t-247 24.5h-28q-223 0 -358.5 123t-135.5 293z" />
<glyph unicode="&#x3bf;" horiz-adv-x="1353" d="M131 455q0 205 146.5 336t400.5 131q252 0 398.5 -131.5t146.5 -333.5q0 -205 -146.5 -336t-400.5 -131q-252 0 -398.5 131t-146.5 334zM373 336q0 -109 49 -186.5t166 -77.5q166 0 279.5 156.5t113.5 355.5q0 106 -49 180t-166 74q-168 0 -280.5 -158t-112.5 -344z" />
<glyph unicode="&#x3c0;" horiz-adv-x="1318" d="M100 692q0 18 21 56q41 74 82 111.5t67.5 44.5t65.5 7h801q33 0 42 -14t9 -57v-56q0 -49 -7 -61t-42 -14h-250v-226q0 -143 48 -201.5t110 -58.5q55 0 95 39t66 39q61 0 61.5 -88t-64 -155.5t-161.5 -67.5q-80 0 -134 46t-78.5 130t-32.5 163t-8 181v199h-297v-205 q0 -133 -12.5 -247t-22.5 -158t-19 -62q-31 -84 -108 -84q-51 0 -94 39t-43 88q0 39 31.5 72.5t68.5 62.5t68.5 98.5t31.5 171.5v224h-51q-78 0 -131 -31t-66 -31q-20 0 -33.5 14.5t-13.5 30.5z" />
<glyph unicode="&#x3c1;" horiz-adv-x="1273" d="M131 225v207q0 231 137.5 360.5t368.5 129.5q229 0 367.5 -129t138.5 -338t-137.5 -337t-370.5 -128q-266 0 -416 184q31 -137 97.5 -265t115.5 -206t49 -113q0 -49 -36.5 -81.5t-82.5 -32.5q-92 0 -161 184q-31 84 -47.5 189.5t-19.5 179t-3 196.5zM217 377 q0 -66 46 -116t165 -50q61 0 157.5 17.5t206 52t187.5 101.5t78 150q0 63 -45 114.5t-164 51.5q-45 0 -134 -14t-208 -46t-204 -100.5t-85 -160.5z" />
<glyph unicode="&#x3c2;" horiz-adv-x="1206" d="M129 426q0 113 54.5 203t137 143t194.5 88t216.5 48.5t210.5 13.5q51 0 83 -24t39 -47.5t7 -48t-8 -47t-40 -45t-85 -22.5h-31q-352 0 -516 -50t-164 -183q0 -106 96.5 -173t235.5 -77q8 0 75.5 -2t128 -7.5t116.5 -19.5q195 -47 194 -203q0 -86 -65.5 -140t-140 -71.5 t-150.5 -17.5q-63 0 -89 33t-26 67q0 37 26.5 70t86.5 33h49q152 2 207 26q-90 27 -295 27h-35q-66 0 -90 2q-174 16 -298 133t-124 291z" />
<glyph unicode="&#x3c3;" horiz-adv-x="1456" d="M131 451q0 59 15.5 117.5t57.5 123t108.5 111.5t178 77.5t254.5 30.5h568q31 -2 39 -16t8 -53v-90q0 -47 -7 -60.5t-34 -13.5q-10 0 -116.5 8t-172.5 10q190 -121 191 -319q0 -166 -130 -276.5t-368 -110.5q-272 0 -432 128t-160 333zM334 453q0 -86 34.5 -187.5 t108.5 -152.5q59 -43 178 -43q94 0 170 37.5t119 95t64.5 117t21.5 108.5q0 113 -91 199t-243 86q-193 0 -277.5 -81t-84.5 -179z" />
<glyph unicode="&#x3c4;" horiz-adv-x="1183" d="M98 692q0 25 29 80t55 86q51 53 119 53h694q31 0 43.5 -10t12.5 -43v-41q0 -80 -8.5 -94t-55.5 -14h-364v-242q0 -127 48 -185.5t107 -58.5q55 0 96 39t72 39q55 0 55 -88q0 -90 -65.5 -156.5t-159.5 -66.5q-78 0 -130 43t-77.5 121.5t-35 162.5t-9.5 195v197h-219 q-59 0 -101 -31t-59 -31q-18 0 -32.5 14.5t-14.5 30.5z" />
<glyph unicode="&#x3c5;" horiz-adv-x="1341" d="M117 844q0 49 40 80.5t87 31.5q43 0 68.5 -16t36.5 -53t13.5 -65.5t2.5 -80.5v-20q0 -104 -13.5 -206.5t-13.5 -127.5q0 -127 75.5 -210t182.5 -83q160 0 305.5 171t145.5 335q0 78 -29 138.5t-57.5 95t-28.5 49.5q0 18 14.5 32.5t32.5 14.5q31 0 84 -61.5t100 -176 t47 -233.5q0 -209 -132 -339t-357 -130q-205 0 -338 112.5t-150 307.5q0 6 -1 40.5t-4 62.5t-10 70t-25.5 89t-47.5 94q-28 49 -28 78z" />
<glyph unicode="&#x3c6;" horiz-adv-x="1490" d="M131 459q0 190 110.5 336.5t198.5 146.5q49 0 84 -39t35 -86q0 -14 -3 -25.5t-8 -20.5t-10.5 -17.5t-13.5 -13.5t-14 -9t-14.5 -8t-12.5 -5t-10 -3l-6 -2q-94 -33 -155.5 -115t-61.5 -188q0 -143 101.5 -233.5t252.5 -90.5q33 0 90 8v189q0 76 1 129t8.5 126.5t18.5 124 t33.5 105.5t53.5 88t78 54.5t106 21.5q164 0 265.5 -130t101.5 -341q0 -207 -155.5 -334t-401.5 -137q8 -119 23.5 -216.5t26.5 -147.5t11 -68q0 -49 -35.5 -81t-83.5 -32q-49 0 -83.5 31.5t-34.5 81.5q0 14 10 66t25.5 151.5t23.5 214.5q-242 8 -398.5 135t-156.5 334z M793 360q0 -141 4 -235q41 16 85 40.5t102 72t103.5 102.5t77 136t31.5 169q0 111 -52 159t-118 48q-162 0 -211 -205q-22 -103 -22 -287z" />
<glyph unicode="&#x3c7;" horiz-adv-x="1421" d="M131 807q0 51 37 84t94 33t112.5 -36t96.5 -83t86 -131t70.5 -140.5t64.5 -148.5l301 471q18 27 21.5 33t14.5 17.5t20.5 13.5t25.5 2h148q63 0 63 -29q0 -16 -31 -64l-424 -657q-31 -49 -30 -61q0 -18 39 -110.5t117.5 -194t160.5 -101.5q8 0 28.5 2t29.5 2 q51 0 82.5 -34.5t31.5 -82.5q0 -51 -36.5 -83.5t-94 -32.5t-113 35.5t-96.5 83t-86 129t-70.5 139t-64.5 149.5l-321 -501q-25 -35 -64 -35q-4 0 -11 1t-11 1q-14 0 -47 -1t-48 -1h-4q-88 0 -88 28q0 16 33 66l422 657q31 49 31 59.5t-25 71t-64.5 137t-102 137t-126.5 60.5 q-8 0 -27.5 -2t-29.5 -2q-49 0 -82 35t-33 84z" />
<glyph unicode="&#x3c8;" horiz-adv-x="1546" d="M131 549q0 82 23.5 175t72.5 165t109 72q51 0 90 -40t39 -92q0 -43 -35 -72.5t-77 -48t-76.5 -73.5t-34.5 -143q0 -180 115.5 -291t283.5 -111q29 0 82 8q2 61 2 152q0 166 -7 337t-17.5 298t-20.5 229.5t-17.5 161.5t-7.5 63q0 53 35 84t82 31q51 0 85 -30.5t34 -84.5 q0 -4 -7 -66.5t-17.5 -164.5t-19.5 -229t-16.5 -289t-7.5 -314v-149q184 76 305 237.5t121 333.5q0 66 -16 121t-16 62q0 18 14 32.5t33 14.5q47 0 99 -124t52 -257q0 -242 -159.5 -391.5t-424.5 -165.5q12 -129 25.5 -218t21 -120t11.5 -52.5t4 -41.5q0 -49 -35 -81 t-84 -32t-84 31.5t-35 81.5q0 25 6.5 50t21.5 120.5t32 261.5q-262 16 -423 165.5t-161 393.5z" />
<glyph unicode="&#x3c9;" horiz-adv-x="1695" d="M143 387q0 250 297 496q57 47 72 47q23 0 64.5 -66.5t41.5 -85.5q0 -10 -9 -20t-36.5 -34t-50.5 -46q-145 -141 -145 -289q0 -113 87 -183.5t191 -70.5q76 0 144 76v4q-61 113 -62 254q0 72 36 98.5t75 26.5q37 0 73.5 -26.5t36.5 -98.5q0 -141 -61 -254v-4 q66 -76 143 -76q98 0 188.5 68.5t90.5 191.5q0 51 -10.5 102.5t-28.5 91.5t-38.5 75.5t-43 63.5t-39 46.5t-31.5 32.5l-14 12q-16 20 -16 31q0 16 22.5 48t38.5 32q31 0 197 -160q197 -188 196 -385q0 -160 -105.5 -277.5t-262.5 -117.5q-201 0 -336 147 q-131 -147 -336 -147q-162 0 -265.5 117.5t-103.5 279.5z" />
<glyph unicode="&#x3ca;" horiz-adv-x="671" d="M-143 1262q0 61 46 110t113 49q63 0 110.5 -46t47.5 -113.5t-47 -113.5t-110.5 -46t-111.5 46t-48 114zM168 877q0 45 51 45h152q49 0 49 -37q0 -18 -52.5 -255t-52.5 -263q0 -41 26 -72t65 -31q31 0 54 22.5t23 55.5q0 53 29 53q31 0 79 -55t48 -135q0 -88 -63.5 -155.5 t-157.5 -67.5q-174 0 -209 241q-8 61 -24.5 342t-16.5 312zM416 1262q0 66 46 112.5t111 46.5q70 0 115 -48t45 -111.5t-45 -111.5t-113 -48q-63 0 -111 46t-48 114z" />
<glyph unicode="&#x3cb;" horiz-adv-x="1286" d="M117 844q0 49 40 80.5t87 31.5q43 0 68.5 -16t36.5 -53t13.5 -65.5t2.5 -80.5v-20q0 -104 -13.5 -206.5t-13.5 -127.5q0 -127 75.5 -210t182.5 -83q160 0 305.5 171t145.5 335q0 78 -29 138.5t-57.5 95t-28.5 49.5q0 18 14.5 32.5t32.5 14.5q31 0 84 -61.5t100 -176 t47 -233.5q0 -209 -132 -339t-357 -130q-205 0 -338 112.5t-150 307.5q0 6 -1 40.5t-4 62.5t-10 70t-25.5 89t-47.5 94q-28 49 -28 78zM139 1262q0 61 46 110t114 49q63 0 110.5 -46t47.5 -113q0 -66 -46 -113t-112 -47q-63 0 -111.5 46t-48.5 114zM696 1262 q0 70 49.5 114.5t110.5 44.5q63 0 111.5 -46t48.5 -113q0 -61 -46 -110.5t-114 -49.5q-63 0 -111.5 46t-48.5 114z" />
<glyph unicode="&#x3cc;" horiz-adv-x="1353" d="M131 455q0 205 146.5 336t400.5 131q252 0 398.5 -131.5t146.5 -333.5q0 -205 -146.5 -336t-400.5 -131q-252 0 -398.5 131t-146.5 334zM373 336q0 -109 49 -186.5t166 -77.5q166 0 279.5 156.5t113.5 355.5q0 106 -49 180t-166 74q-168 0 -280.5 -158t-112.5 -344z M600 1024q74 303 101.5 367.5t95.5 64.5q53 0 94 -38t41 -83q0 -37 -33 -76.5t-145 -148.5q-70 -66 -113 -109z" />
<glyph unicode="&#x3cd;" horiz-adv-x="1286" d="M117 844q0 49 40 80.5t87 31.5q43 0 68.5 -16t36.5 -53t13.5 -65.5t2.5 -80.5v-20q0 -104 -13.5 -206.5t-13.5 -127.5q0 -127 75.5 -210t182.5 -83q160 0 305.5 171t145.5 335q0 78 -29 138.5t-57.5 95t-28.5 49.5q0 18 14.5 32.5t32.5 14.5q31 0 84 -61.5t100 -176 t47 -233.5q0 -209 -132 -339t-357 -130q-205 0 -338 112.5t-150 307.5q0 6 -1 40.5t-4 62.5t-10 70t-25.5 89t-47.5 94q-28 49 -28 78zM501 1024q2 8 4.5 17.5t7.5 30t12 45t19.5 75.5t28.5 111l4 20q4 20 7 28.5t10.5 28t15.5 29.5t20.5 22.5t29.5 18.5t38 6q49 0 92 -36 t43 -87q0 -35 -25.5 -65.5t-144.5 -147.5q-74 -72 -121 -119h-2z" />
<glyph unicode="&#x3ce;" horiz-adv-x="1695" d="M143 387q0 250 297 496q57 47 72 47q23 0 64.5 -66.5t41.5 -85.5q0 -10 -9 -20t-36.5 -34t-50.5 -46q-145 -141 -145 -289q0 -113 87 -183.5t191 -70.5q76 0 144 76v4q-61 113 -62 254q0 72 36 98.5t75 26.5q37 0 73.5 -26.5t36.5 -98.5q0 -141 -61 -254v-4 q66 -76 143 -76q98 0 188.5 68.5t90.5 191.5q0 51 -10.5 102.5t-28.5 91.5t-38.5 75.5t-43 63.5t-39 46.5t-31.5 32.5l-14 12q-16 20 -16 31q0 16 22.5 48t38.5 32q31 0 197 -160q197 -188 196 -385q0 -160 -105.5 -277.5t-262.5 -117.5q-201 0 -336 147 q-131 -147 -336 -147q-162 0 -265.5 117.5t-103.5 279.5zM772 1024q2 14 7 34.5t26.5 101.5t48.5 183q29 113 113 113q49 0 92 -36t43 -87q0 -37 -29 -71.5t-166 -167.5q-59 -57 -94 -93z" />
<glyph unicode="&#x3d1;" horiz-adv-x="1513" d="M47 629q0 113 44 203t147 90q109 0 201.5 -53.5t109.5 -147.5q4 -20 4 -62v-290q0 -49 3 -84t16.5 -80t38 -73t72.5 -48.5t114 -20.5q68 0 118 44.5t75.5 105.5t39.5 155.5t17.5 163t3.5 158.5v23q-559 111 -559 446q0 127 95 200t220 73q135 0 251 -85t181 -253 q49 -127 61 -349q86 -10 99 -24q8 -8 8 -25q0 -35 -37 -34q-6 0 -15 1t-25.5 3t-31.5 4q-4 -299 -138 -489.5t-374 -190.5q-268 0 -367.5 99t-99.5 296v270q0 98 -26.5 144.5t-61.5 46.5q-18 0 -34 -12q-12 -10 -21.5 -26.5t-14.5 -34t-8 -43t-4.5 -40t-2.5 -37t-1 -26.5 q-2 -27 -12 -37t-39 -10q-47 0 -47 49zM588 1159q0 -70 28.5 -126t71.5 -93t108.5 -68.5t123 -49t131.5 -34.5q-2 115 -6.5 187t-38 180.5t-97.5 161.5q-49 41 -104 41h-2q-76 0 -145.5 -50.5t-69.5 -148.5z" />
<glyph unicode="&#x3d5;" horiz-adv-x="1476" d="M131 455q0 197 132 321.5t399 141.5q-8 106 -18.5 208.5t-16.5 155.5t-6 57q0 53 33.5 84t82.5 31t83 -30.5t34 -84.5q0 -4 -6 -57t-16.5 -155.5t-18.5 -208.5q137 -8 239.5 -48.5t157 -90.5t86 -116.5t39.5 -113.5t8 -94q0 -201 -137 -326t-409 -137q8 -119 22.5 -222.5 t24.5 -154.5t10 -55q0 -53 -34 -84t-83 -31t-82.5 30.5t-33.5 84.5q0 4 10 55t24.5 154.5t22.5 222.5q-141 6 -247.5 45t-162 89t-88.5 117.5t-41 115t-8 96.5zM373 336q0 -37 3 -62.5t17.5 -67.5t42 -67.5t82.5 -46t131 -20.5q23 0 35 2q4 123 4 202q0 246 -18 537 q-150 -55 -223.5 -195.5t-73.5 -281.5zM786 276q0 -70 5 -184q158 49 234.5 192.5t76.5 288.5q0 37 -3 63t-17.5 67.5t-42 67.5t-83 46.5t-131.5 20.5h-18q-21 -277 -21 -562z" />
<glyph unicode="&#x3d8;" horiz-adv-x="1286" d="M111 979q0 190 158.5 313t371.5 123q215 0 374 -123t159 -313q0 -141 -99.5 -259t-286.5 -161v-469h230v-98q-195 6 -389 6q-37 0 -363 -6v98h232v469q-186 45 -286.5 162t-100.5 258zM401 977q0 -141 68 -238.5t174 -97.5q104 0 172 98.5t68 241.5q0 141 -66.5 238.5 t-173 97.5t-174.5 -98.5t-68 -241.5z" />
<glyph unicode="&#x3d9;" horiz-adv-x="1286" d="M141 813q0 233 171 373.5t386 140.5q188 0 316.5 -121t128.5 -321q0 -176 -101.5 -299t-248.5 -176q57 -362 57 -402q0 -78 -79 -144.5t-187 -66.5q-66 0 -109 40t-43 104q0 12 66 438q-158 35 -257.5 145.5t-99.5 288.5zM324 885q0 -182 112.5 -279.5t259.5 -97.5 q76 0 130.5 28.5t82 77t40 97.5t12.5 102q0 184 -114 281.5t-259 97.5q-76 0 -130.5 -28.5t-82 -77t-39.5 -97.5t-12 -104z" />
<glyph unicode="&#x3da;" horiz-adv-x="1968" d="M117 690q0 254 156.5 449.5t396.5 234.5q47 8 141 8h217l2 -30q18 31 60 30h716l43 -495h-96q-6 66 -10 101.5t-14.5 84.5t-23.5 75t-36.5 56.5t-56.5 45t-79 24.5t-108 10h-104v-1186h221v-98h-729q-88 0 -131 6q-244 33 -404.5 229.5t-160.5 454.5zM408 692 q0 -102 18 -199.5t58 -189.5t115 -148.5t175 -56.5q74 0 142.5 32t97.5 93q16 33 16 94q0 6 -1 16.5t-1 16.5v705q0 68 -12 98q-27 63 -97.5 97t-148.5 34q-102 0 -178 -58.5t-114 -153.5t-54 -189.5t-16 -190.5z" />
<glyph unicode="&#x3db;" horiz-adv-x="1286" d="M143 625q0 109 81 180.5t197 99t263 27.5h317q53 0 85 -11.5t53 -50.5q12 -25 12 -55q0 -45 -28.5 -81t-80.5 -36q-68 0 -272.5 52.5t-290.5 52.5q-109 0 -185.5 -42t-76.5 -138q0 -131 139 -131q55 0 202 29.5t210 29.5q70 0 98.5 -36t28.5 -79q0 -119 -139 -119 q-14 0 -44 1t-44 1q14 -61 25.5 -112t16.5 -70.5t8 -36t4 -23.5t1 -20q0 -51 -36 -80.5t-85 -29.5t-84 31.5t-35 80.5q0 18 10.5 64.5t26 111t21.5 97.5q-398 45 -398 293z" />
<glyph unicode="&#x3dc;" horiz-adv-x="1603" d="M119 0v98h221v1198h-221v97h1290l61 -496h-96q-18 135 -51 215t-94.5 121t-129 52t-188.5 11h-280v-551h110q43 0 70 3.5t63.5 13.5t60 35.5t34.5 68.5q10 39 10 119h98v-575h-98q0 139 -47 186q-49 51 -191 51h-110v-549h278v-98q-213 6 -426 6q-200 0 -364 -6z" />
<glyph unicode="&#x3dd;" horiz-adv-x="1286" d="M147 -457q-2 25 17.5 61t43 71.5t44 110.5t20.5 169v647q0 74 23.5 128t60.5 81t65 39t52 16q14 2 87 3t189.5 9.5t239.5 28.5q25 4 35 4q47 0 73.5 -30.5t26.5 -73.5t-26.5 -74t-73.5 -31q-6 0 -81 11.5t-188.5 21.5t-217.5 10q-137 0 -138 -133v-182q94 4 182.5 18.5 t139.5 26.5t63 12q43 0 70 -31.5t27 -74.5t-26 -76t-71 -33q-20 0 -56 10.5t-119 25t-210 22.5v-717q-4 -160 -127 -160q-45 0 -82 24.5t-43 65.5z" />
<glyph unicode="&#x3df;" horiz-adv-x="1011" d="M164 410v741q0 68 31.5 91.5t68.5 23.5q20 0 40 -6.5t40.5 -34t20.5 -72.5q0 -104 -63.5 -327.5t-63.5 -342.5l608 74v-739q0 -68 -32 -92.5t-69 -24.5q-20 0 -39.5 6t-40 34t-20.5 73q0 104 61.5 328.5t63.5 340.5z" />
<glyph unicode="&#x3e0;" horiz-adv-x="1941" d="M186 37l2 61h15l295 844q8 23 8 33q0 12 -31 49q-80 92 -90 107.5t-10 46.5v194q0 66 37 66q20 0 69 -58l1002 -1149q111 -127 114 -133h220v-98q-164 6 -328 6q-182 0 -363 -6v98h156l-268 305l-117 -337l-14 -46l-2 -20q-55 6 -111 6q-49 0 -100 -6l-4 37l4 61h14 l170 492l-180 209l-258 -740l-13 -39l-4 -20q-51 6 -106 6q-51 0 -105 -6z" />
<glyph unicode="&#x3e1;" horiz-adv-x="1830" d="M131 1318.5q0 22.5 7 43t35 40t75 19.5q319 -4 595.5 -118.5t461 -300t290 -420t105.5 -476.5q0 -72 -37 -99t-80 -27q-45 0 -76.5 26.5t-38.5 65.5q0 4 -2 84t-27.5 181t-88.5 241q-147 -76 -222 -138.5t-92 -154.5q0 -2 -2 -28t-7 -43t-16.5 -40.5t-36 -36t-59.5 -12.5 q-41 0 -78.5 28.5t-37.5 94.5q0 41 12 76.5t27.5 63.5t51.5 56.5t60.5 45t79.5 42t83 37t97.5 38t98.5 38.5q-94 141 -211 254q-92 -49 -288 -104.5t-265 -120.5q-43 -41 -59.5 -84t-19.5 -88t-5 -53q-25 -80 -111 -80q-43 0 -80 27.5t-37 101.5q0 125 84 204 q68 66 197 97.5t280.5 62.5t245.5 84q-63 43 -84.5 58.5t-107.5 63.5t-155.5 71.5t-183.5 49t-233 30.5l-18 2q-18 0 -26.5 1t-27 4t-28.5 10t-22.5 17.5t-17.5 26.5t-5 38.5z" />
<glyph unicode="&#x400;" horiz-adv-x="1546" d="M80 0v98h221v1209h-221v98h1274l61 -496h-96q-16 127 -45 205t-98 129q-53 39 -126 51.5t-194 12.5h-264v-529h102q55 0 90 5t76 34t53 84q8 31 9 117h98v-578h-98q0 141 -46.5 190.5t-181.5 49.5h-102v-582h315q109 2 184.5 22.5t125 53.5t81 95.5t49 126t35.5 167.5h99 l-95 -563h-1306zM541 1665q0 49 32.5 89t81.5 40q27 0 51.5 -13.5t159.5 -99.5q84 -53 140 -88l-33 -92q-57 8 -154.5 24.5t-156.5 24.5q-121 21 -121 115z" />
<glyph unicode="&#x401;" horiz-adv-x="1546" d="M80 0v98h221v1209h-221v98h1274l61 -496h-96q-16 127 -45 205t-98 129q-53 39 -126 51.5t-194 12.5h-264v-529h102q55 0 90 5t76 34t53 84q8 31 9 117h98v-578h-98q0 141 -46.5 190.5t-181.5 49.5h-102v-582h315q109 2 184.5 22.5t125 53.5t81 95.5t49 126t35.5 167.5h99 l-95 -563h-1306zM406 1671q0 66 46 113t111 47q63 0 111.5 -46t48.5 -114q0 -66 -46 -112t-112 -46q-70 0 -114.5 47.5t-44.5 110.5zM862 1671q0 66 47 113t113 47q63 0 111.5 -46t48.5 -114q0 -66 -47.5 -113t-112.5 -47q-68 0 -114 49.5t-46 110.5z" />
<glyph unicode="&#x402;" horiz-adv-x="1964" d="M84 909l61 496h1362l45 -377h-98q-23 178 -90.5 228.5t-237.5 50.5h-161v-582q147 207 487 207q100 0 171 -11.5t138.5 -44t102 -101t34.5 -173.5v-182q0 -211 -126.5 -327t-315.5 -116q-127 0 -216 72t-89 178q0 68 44 113t114 45q68 0 112.5 -45t44.5 -113 q0 -113 -116 -151q55 -23 98 -23q102 0 154 94q31 61 34 234v225q0 129 -43 190.5t-186 61.5q-158 0 -289 -73.5t-151 -206.5q-2 -12 -2 -66v-414h110v-98q-150 6 -303 6q-2 0 -414 -6v98h314v1209h-109q-66 0 -105.5 -3.5t-97 -26t-92.5 -65.5q-57 -70 -86 -303h-98z" />
<glyph unicode="&#x403;" horiz-adv-x="1415" d="M80 0v98h221v1209h-221v98h1175l62 -496h-98q-14 111 -31 171.5t-56.5 118.5t-112.5 82t-188 26h-239v-1209h278v-98q-211 6 -426 6q-202 0 -364 -6zM612 1593q49 31 125 80q131 84 165 102.5t61 18.5q47 0 80.5 -40t33.5 -89q0 -72 -61.5 -96.5t-286.5 -55.5 q-55 -8 -84 -12z" />
<glyph unicode="&#x404;" horiz-adv-x="1699" d="M129 696q0 328 228.5 529.5t594.5 201.5q231 0 408 -118q150 111 172 116q37 0 37 -51v-375q0 -29 -12.5 -40t-38.5 -11h-2q-27 0 -39.5 7.5t-15.5 18.5t-11 42t-20 59q-41 92 -147.5 173t-274.5 81q-139 0 -260 -51t-197 -152q-96 -129 -109 -370q117 51 254 51 q111 0 193 -26.5t143.5 -53.5t120.5 -27t119.5 20.5t62.5 20.5q33 0 33 -36q0 -31 -31.5 -53.5t-113.5 -57.5q-137 -61 -238 -62q-74 0 -215 70t-238 70q-37 0 -88 -15q23 -295 174.5 -438t397.5 -143q166 0 300 77.5t152 217.5q0 4 1 14t2.5 15.5t4.5 13.5t8 11t14 6t24 3 q27 0 36 -10t9 -33q0 -168 -168 -291t-443 -123q-373 0 -600 197.5t-227 521.5z" />
<glyph unicode="&#x405;" horiz-adv-x="1306" d="M131 35v373q0 39 7 49t42 10q16 0 25.5 -2t14.5 -8t6 -13.5t1 -23.5q6 -106 58.5 -181t133.5 -108t150.5 -45t141.5 -12q143 0 204.5 73.5t61.5 165.5q0 96 -82 179q-33 31 -73 43t-187 45q-186 41 -255 67.5t-138 95.5q-111 117 -111 273q0 174 119 292.5t340 118.5 q209 0 350 -112l92 90q25 23 41 22q25 0 31 -11t6 -46v-375q0 -37 -7 -47t-42 -10q-31 0 -38 7t-13 46q-23 131 -94.5 213t-151.5 108.5t-172 26.5q-139 0 -200.5 -66.5t-61.5 -148.5q0 -86 61.5 -141t134.5 -72l297 -63q147 -31 250 -149.5t103 -282.5q0 -176 -116 -307.5 t-349 -131.5q-258 0 -410 113l-94 -94q-20 -18 -39 -19q-25 0 -31 11.5t-6 46.5z" />
<glyph unicode="&#x406;" horiz-adv-x="892" d="M68 0v96h233v1213h-233v96q84 -6 378.5 -6t378.5 6v-96h-233v-1213h233v-96q-84 6 -378.5 6t-378.5 -6z" />
<glyph unicode="&#x407;" horiz-adv-x="892" d="M57 1671q0 61 46.5 109.5t113.5 48.5q63 0 111.5 -46t48.5 -114q0 -61 -46 -109.5t-114 -48.5q-70 0 -115 48.5t-45 111.5zM68 0v96h233v1213h-233v96q84 -6 378.5 -6t378.5 6v-96h-233v-1213h233v-96q-84 6 -378.5 6t-378.5 -6zM514 1671q0 61 46 110.5t114 49.5 q70 0 115 -48t45 -112q0 -61 -46.5 -110.5t-113.5 -49.5q-70 0 -115 48.5t-45 111.5z" />
<glyph unicode="&#x408;" horiz-adv-x="1216" d="M47 233q0 76 47 117t111 41q59 0 107 -41t48 -117q0 -49 -23.5 -85.5t-45.5 -49.5l-25 -12q78 -35 166 -35q70 0 116 32t62.5 84t20.5 79.5t4 58.5v1004h-289v96q98 -6 408 -6q254 0 325 6v-96h-166v-1002q0 -156 -130 -243t-341 -87q-176 0 -285.5 69.5t-109.5 186.5z " />
<glyph unicode="&#x409;" horiz-adv-x="2527" d="M63 223q0 74 47.5 118t110.5 44q66 0 111 -43t45 -113q0 -96 -96 -147q55 -6 57 -6q59 0 101 24.5t82 99t63.5 208t38 358.5t14.5 541h-231v98h1357v-98h-221v-519q197 37 334 37q143 0 249.5 -40t162 -105.5t81 -133t25.5 -138.5q0 -166 -107.5 -275.5t-289.5 -128.5 q-35 -4 -107 -4h-862v98h223v1209h-516q0 -535 -42 -823.5t-125 -397.5t-234 -109q-127 0 -199 70t-72 176zM1542 98h299q129 0 183.5 91.5t54.5 218.5q0 139 -70 224t-203 85q-96 0 -264 -27v-592z" />
<glyph unicode="&#x40a;" horiz-adv-x="2527" d="M80 0v98h221v1209h-221v98q186 -6 375 -6q180 0 360 6v-98h-223v-529h659v529h-221v98q186 -6 375 -6q180 0 360 6v-98h-221v-519q197 37 334 37q143 0 249.5 -40t162 -105.5t80 -133t24.5 -138.5q0 -166 -106.5 -275.5t-288.5 -128.5q-35 -4 -107 -4h-862v98h221v584 h-659v-584h223v-98q-188 6 -375 6q-178 0 -360 -6zM1544 98h299q129 0 183.5 91.5t54.5 218.5q0 139 -71 224t-204 85q-94 0 -262 -27v-592z" />
<glyph unicode="&#x40b;" horiz-adv-x="1798" d="M84 909l61 496h1293l45 -377h-99q-12 94 -35.5 150.5t-70.5 84t-97.5 36t-138.5 8.5h-180v-490l2 -86q125 190 383 191q96 0 165 -19.5t105.5 -49.5t57 -77t26 -87t5.5 -97v-494h166v-98q-152 6 -267 6h-6q-147 0 -295 -6v98h166v535q0 104 -30.5 158.5t-127.5 54.5 q-51 0 -105 -15.5t-112.5 -50.5t-95.5 -105.5t-37 -164.5v-412h168v-98q-160 6 -319 6q-178 0 -361 -6v98h221v1209h-67q-174 0 -235.5 -85t-86.5 -313h-98z" />
<glyph unicode="&#x40c;" horiz-adv-x="1845" d="M80 0v96h221v1213h-221v96q78 -6 366.5 -6t366.5 6v-96h-221v-656l758 633q-8 2 -9 4q0 4 -18 8q-51 10 -119 11v96q74 -6 299 -6q127 0 209 6v-96h-35q-147 0 -192 -37l-492 -410l553 -725q20 -27 41 -34t99 -7h59v-96q-76 6 -299 6q-276 0 -361 -6v96q113 0 150 17 q-10 23 -16 28l-422 555l-205 -170v-430h221v-96q-78 6 -366.5 6t-366.5 -6zM807 1593q295 186 313 195q14 6 37 6q51 0 83 -41t32 -88q0 -16 -3 -31.5t-11.5 -26t-14.5 -19.5t-21.5 -15t-21.5 -10t-26.5 -8.5t-24.5 -5.5t-27 -5l-22 -2q-172 -29 -258 -41z" />
<glyph unicode="&#x40d;" horiz-adv-x="1845" d="M80 0v98h221v1209h-221v98q186 -6 375 -6q180 0 360 6v-98h-223v-891l2 -131l655 1022h-219v98q186 -6 375 -6q180 0 360 6v-98h-221v-1209h221v-98q-188 6 -374 6q-178 0 -361 -6v98h221v1022l-655 -1022h219v-98q-188 6 -375 6q-178 0 -360 -6zM670 1665q0 49 32.5 89 t81.5 40q27 0 51.5 -13.5t159.5 -99.5q84 -53 140 -88l-33 -92q-57 8 -154.5 24.5t-156.5 24.5q-121 19 -121 115z" />
<glyph unicode="&#x40e;" horiz-adv-x="1779" d="M63 1307v98q166 -6 299 -6h13q188 0 373 6v-98h-173l527 -779l315 754q-45 25 -186 25v98q133 -6 262 -6q117 0 233 6v-98q-121 0 -152.5 -9.5t-47.5 -46.5l-314 -753q-37 -86 -64.5 -143.5t-78.5 -136.5t-105.5 -126t-134 -81t-174.5 -34q-141 0 -225 79t-84 175 q0 70 46 115t111.5 45t112 -44t46.5 -114q0 -98 -97 -145q49 -14 88 -14q180 0 285 127q12 14 33 43v2l-719 1061h-189zM610 1751q0 66 44 109t103.5 43t103.5 -42t44 -106q0 -78 -82 -133q74 -14 164 -14q109 0 162 14q-82 47 -82 133q0 63 45 105.5t102 42.5 q59 0 104.5 -42t45.5 -108q0 -111 -108.5 -181.5t-268.5 -70.5t-268.5 69.5t-108.5 180.5z" />
<glyph unicode="&#x40f;" horiz-adv-x="1845" d="M80 0v106h221v1201h-221v98q182 -6 360 -6q186 0 375 6v-98h-223v-1201h659v1201h-221v98q186 -6 375 -6q180 0 360 6v-98h-221v-1201h221v-106h-657q-25 0 -37 -5t-26.5 -30.5t-30.5 -79.5q-43 -150 -43 -284h-99q0 111 -27.5 234.5t-62.5 152.5q-14 12 -47 12h-655z " />
<glyph unicode="&#x410;" horiz-adv-x="1779" d="M84 0v96h43q106 0 135 10.5t39 36.5l508 1233q8 23 14 32t21.5 15.5t44.5 6.5q23 0 33 -2.5t24.5 -14.5t24.5 -37l524 -1280h199v-96q-72 6 -334 6q-283 0 -361 -6v96h195l-123 299h-549l-102 -248q-8 -8 -8 -24q0 -27 182 -27v-96q-76 6 -270 6q-7 0 -240 -6zM563 492 h467l-233 569z" />
<glyph unicode="&#x411;" horiz-adv-x="1675" d="M80 0v98h221v1209h-221v98h1270l61 -496h-96q-29 223 -113 310.5t-317 87.5h-314v-521q197 39 396 39q164 0 282.5 -40t179 -106.5t87 -133t26.5 -135.5q0 -61 -20.5 -122t-66.5 -123.5t-137 -106.5t-216 -54q-37 -4 -115 -4h-907zM571 98h373q154 0 219.5 94.5 t65.5 215.5q0 53 -15.5 103t-49.5 98t-101.5 78t-161.5 30q-145 0 -330 -29v-590z" />
<glyph unicode="&#x412;" horiz-adv-x="1675" d="M80 0v96h221v1213h-221v96h889q238 0 373 -101.5t135 -250.5q0 -119 -94.5 -205t-260.5 -115q184 -14 302 -110.5t118 -241.5q0 -160 -134 -270.5t-378 -110.5h-950zM569 96h377q70 0 124 18.5t84 51.5t49.5 63.5t26.5 68.5t9 54.5t2 30.5q0 137 -67 223q-70 88 -207 88 h-398v-598zM569 768h320q143 0 220 80t77 205q0 41 -10.5 81t-34 81.5t-74.5 67.5t-125 26h-373v-541z" />
<glyph unicode="&#x413;" horiz-adv-x="1415" d="M80 0v98h221v1209h-221v98h1175l62 -496h-98q-14 111 -31 171.5t-56.5 118.5t-112.5 82t-188 26h-239v-1209h278v-98q-211 6 -426 6q-202 0 -364 -6z" />
<glyph unicode="&#x414;" horiz-adv-x="1845" d="M-4 -399l61 505h144q29 0 61 27q115 98 191.5 231.5t115.5 295t53.5 309t18.5 338.5h-223v98h1347v-98h-221v-1201h244l61 -505h-96q-18 139 -45 213.5t-94 124.5q-86 61 -285 61h-840q-82 0 -142 -12.5t-101 -40t-66.5 -56t-43 -83t-25 -95.5t-17.5 -112h-98zM377 106 h876v1201h-516q-12 -444 -86.5 -714t-273.5 -487z" />
<glyph unicode="&#x415;" horiz-adv-x="1546" d="M80 0v98h221v1209h-221v98h1274l61 -496h-96q-16 127 -45 205t-98 129q-53 39 -126 51.5t-194 12.5h-264v-529h102q55 0 90 5t76 34t53 84q8 31 9 117h98v-578h-98q0 141 -46.5 190.5t-181.5 49.5h-102v-582h315q109 2 184.5 22.5t125 53.5t81 95.5t49 126t35.5 167.5h99 l-95 -563h-1306z" />
<glyph unicode="&#x416;" horiz-adv-x="2797" d="M96 0v98h51q80 0 104.5 7.5t49.5 37.5l549 719l-488 406q-20 16 -34.5 22t-61.5 11.5t-137 5.5v98l143 -6l367 6v-98l-80 -4l-47 -9l-18 -8l757 -633v654h-221v98q184 -6 371 -6q184 0 364 6v-98h-223v-654l758 633q-27 10 -146 21v98l369 -6l143 6v-98q-55 0 -93 -2 t-60.5 -4.5t-40.5 -10.5t-23.5 -10t-22 -16.5t-22.5 -20.5q-158 -131 -265 -220t-141 -117.5t-52 -43.5l548 -719q27 -33 50.5 -39t105.5 -6h47v-98q-182 6 -301 6q-178 0 -356 -6v98h8q131 0 131 23q0 12 -233 315q-119 156 -199 260l-205 -170v-428h223v-98q-188 6 -374 6 q-178 0 -361 -6v98h221v428l-204 170l-410 -538q-20 -31 -21 -37q0 -23 125 -23h15v-98q-178 6 -359 6q-119 0 -301 -6z" />
<glyph unicode="&#x417;" horiz-adv-x="1439" d="M117 379q0 47 51 47q23 0 34 -3t16 -12.5t6 -19.5t4 -32.5t8 -41.5q59 -242 442 -241q104 0 180 30.5t112 81t51 98.5t15 99t-14 98t-50 98.5t-116 82t-192 30.5h-146q-20 0 -30.5 1t-19.5 10.5t-9 25.5q0 37 65 37h129q178 0 254 87t76 196q0 106 -69.5 192t-227.5 86 q-145 0 -264 -63.5t-156 -204.5q-4 -18 -9 -48t-9 -35t-16.5 -12.5t-36.5 -7.5q-33 0 -42.5 13.5t-9.5 42.5v350q0 61 37 61q23 0 84.5 -39.5t79.5 -39.5q6 0 44 20t119 40.5t191 20.5q127 0 228.5 -24.5t165 -63.5t105.5 -90t59.5 -100t17.5 -98q0 -229 -356 -318 q186 -31 303.5 -122t117.5 -228q0 -68 -31.5 -133.5t-100 -129t-204 -103.5t-319.5 -40q-319 0 -459 140q-53 53 -80.5 124.5t-27.5 137.5z" />
<glyph unicode="&#x418;" horiz-adv-x="1845" d="M80 0v98h221v1209h-221v98q186 -6 375 -6q180 0 360 6v-98h-223v-891l2 -131l655 1022h-219v98q186 -6 375 -6q180 0 360 6v-98h-221v-1209h221v-98q-188 6 -374 6q-178 0 -361 -6v98h221v1022l-655 -1022h219v-98q-188 6 -375 6q-178 0 -360 -6z" />
<glyph unicode="&#x419;" horiz-adv-x="1845" d="M80 0v98h221v1209h-221v98q186 -6 375 -6q180 0 360 6v-98h-223v-891l2 -131l655 1022h-219v98q186 -6 375 -6q180 0 360 6v-98h-221v-1209h221v-98q-188 6 -374 6q-178 0 -361 -6v98h221v1022l-655 -1022h219v-98q-188 6 -375 6q-178 0 -360 -6zM545 1751q0 63 45 107.5 t104 44.5q63 0 105.5 -44t42.5 -104q0 -86 -82 -133q86 -14 160 -14q109 0 165 14q-82 47 -81 133q0 61 44 104.5t103 43.5t103 -41t44 -109q0 -113 -107.5 -182.5t-267 -69.5t-269 69.5t-109.5 180.5z" />
<glyph unicode="&#x41a;" horiz-adv-x="1845" d="M80 0v96h221v1213h-221v96q78 -6 366.5 -6t366.5 6v-96h-221v-656l758 633q-8 2 -9 4q0 4 -18 8q-51 10 -119 11v96q74 -6 299 -6q127 0 209 6v-96h-35q-147 0 -192 -37l-492 -410l553 -725q20 -27 41 -34t99 -7h59v-96q-76 6 -299 6q-276 0 -361 -6v96q113 0 150 17 q-10 23 -16 28l-422 555l-205 -170v-430h221v-96q-78 6 -366.5 6t-366.5 -6z" />
<glyph unicode="&#x41b;" horiz-adv-x="1845" d="M63 223q0 74 47.5 118t110.5 44q66 0 111 -43t45 -113q0 -96 -96 -147q55 -6 57 -6q59 0 101 24.5t82 99t63.5 208t38 358.5t14.5 541h-231v98h1357v-98h-221v-1209h221v-98q-186 6 -374 6q-180 0 -361 -6v98h223v1209h-516q0 -535 -42 -823.5t-125 -397.5t-234 -109 q-127 0 -199 70t-72 176z" />
<glyph unicode="&#x41c;" horiz-adv-x="2234" d="M82 0v96h51q61 0 111 6q43 4 51 11.5t8 42.5v1153h-221v96h455q27 0 39 -2t26 -13.5t25 -35.5l491 -1084l492 1084q16 35 33.5 43t56.5 8h452v-96h-221v-1213h221v-96q-74 6 -350 6q-274 0 -348 -6v96h221v1213h-2l-571 -1260q-23 -49 -66 -49t-65 51l-557 1231h-2v-1126 q0 -35 8 -42.5t53 -11.5q55 -6 109 -6h51v-96q-84 6 -277 6q-196 0 -274 -6z" />
<glyph unicode="&#x41d;" horiz-adv-x="1845" d="M80 0v98h221v1209h-221v98q186 -6 375 -6q180 0 360 6v-98h-223v-529h659v529h-221v98q186 -6 375 -6q180 0 360 6v-98h-221v-1209h221v-98q-188 6 -374 6q-178 0 -361 -6v98h221v584h-659v-584h223v-98q-188 6 -375 6q-178 0 -360 -6z" />
<glyph unicode="&#x41e;" horiz-adv-x="1767" d="M131 694q0 328 204 530.5t550 202.5q340 0 545.5 -200.5t205.5 -532.5q0 -319 -202.5 -518t-550.5 -199q-344 0 -548 197.5t-204 519.5zM444 725q0 -291 84 -449q59 -109 156.5 -161t198.5 -52q225 0 346 195q94 156 94 467q0 283 -86 428q-59 96 -154.5 144.5 t-199.5 48.5q-98 0 -190.5 -44.5t-151.5 -132.5q-97 -149 -97 -444z" />
<glyph unicode="&#x41f;" horiz-adv-x="1845" d="M80 0v98h221v1209h-221v98h1685v-98h-221v-1209h221v-98q-188 6 -374 6q-178 0 -361 -6v98h221v1209h-659v-1209h223v-98q-188 6 -375 6q-178 0 -360 -6z" />
<glyph unicode="&#x420;" horiz-adv-x="1609" d="M80 0v96h221v1213h-221v96h854q250 0 396.5 -112.5t146.5 -287t-150.5 -281t-372.5 -106.5h-362v-522h221v-96q-78 6 -366.5 6t-366.5 -6zM580 702h274q63 0 113.5 10.5t83 24t55 40t34 48t16.5 58.5t6 59.5t1 63.5q0 49 -2 74.5t-9 67.5t-26.5 65.5t-52.5 48t-88 36 t-129 11.5h-276v-607z" />
<glyph unicode="&#x421;" horiz-adv-x="1699" d="M131 702.5q0 319.5 223.5 522t599.5 202.5q231 0 404 -139l135 121q20 18 39 18q25 0 31 -11t6 -46v-440q0 -41 -8.5 -49.5t-47.5 -8.5q-35 0 -43 6.5t-12 36.5q-33 190 -162 303t-299 113q-262 0 -417 -157q-135 -141 -136 -472q0 -307 121 -454q147 -174 439 -174 q174 0 316 104.5t153 294.5q2 25 12 30t35 5q29 0 39 -7t10 -36q0 -188 -171 -338t-444 -150q-377 0 -600 203t-223 522.5z" />
<glyph unicode="&#x422;" horiz-adv-x="1638" d="M84 909l43 496h1380l45 -496h-98q-10 123 -26.5 189.5t-55.5 119t-105.5 71t-176.5 18.5h-125v-1209h313v-98q-242 6 -485 6q-109 0 -435 -6v98h314v1209h-125q-66 0 -107 -4.5t-97 -27t-89 -67.5q-49 -63 -72 -299h-98z" />
<glyph unicode="&#x423;" horiz-adv-x="1779" d="M63 1307v98q166 -6 299 -6h13q188 0 373 6v-98h-173l527 -779l315 754q-45 25 -186 25v98q133 -6 262 -6q117 0 233 6v-98q-121 0 -152.5 -9.5t-47.5 -46.5l-314 -753q-37 -86 -64.5 -143.5t-78.5 -136.5t-105.5 -126t-134 -81t-174.5 -34q-141 0 -225 79t-84 175 q0 70 46 115t111.5 45t112 -44t46.5 -114q0 -98 -97 -145q49 -14 88 -14q180 0 285 127q12 14 33 43v2l-719 1061h-189z" />
<glyph unicode="&#x424;" horiz-adv-x="1961" d="M129 731q0 211 154 332q168 129 563 137v107h-279v98q215 -6 432 -6q135 0 392 6v-98h-277v-107q715 -10 715 -469q0 -186 -117 -303q-164 -164 -598 -168v-162h277v-98q-215 6 -430 6q-137 0 -394 -6v98h279v162q-442 4 -600 168q-117 117 -117 303zM432 729 q0 -197 87 -288t327 -105v790q-236 -14 -325 -107t-89 -290zM1114 336q233 14 323.5 105t90.5 288t-87 289t-327 108v-790z" />
<glyph unicode="&#x425;" horiz-adv-x="1779" d="M70 0v96h59q63 0 125 6q47 4 60.5 10.5t27.5 24.5l414 543l-455 629h-201v96q72 -6 332 -6q287 0 371 6v-96h-170l293 -404l270 359q2 2 8 11t8 11q-72 23 -188 23v96q74 -6 311 -6q188 0 275 6v-96h-60q-70 0 -118 -6q-53 -4 -66.5 -9.5t-30.5 -27.5l-344 -453l518 -717 h201v-96q-72 6 -332 6q-287 0 -370 -6v96h170l-357 494l-338 -449q-2 -2 -8 -11t-8 -11q72 -23 188 -23v-96q-74 6 -311 6q-188 0 -274 -6z" />
<glyph unicode="&#x426;" horiz-adv-x="1845" d="M80 0v106h221v1201h-221v98q182 -6 360 -6q186 0 375 6v-98h-223v-1201h659v1201h-221v98q186 -6 375 -6q180 0 360 6v-98h-221v-1201h244l61 -505h-98q-18 141 -46 218t-97 124q-84 57 -283 57h-1245z" />
<glyph unicode="&#x427;" horiz-adv-x="1845" d="M80 1307v98q186 -6 375 -6q180 0 360 6v-98h-223v-396q0 -248 188 -247q252 0 471 94v549h-221v98q186 -6 375 -6q180 0 360 6v-98h-221v-1209h221v-98q-188 6 -374 6q-178 0 -361 -6v98h221v576q-197 -98 -475 -99q-178 0 -298 78t-156 156q-20 41 -21 117v381h-221z " />
<glyph unicode="&#x428;" horiz-adv-x="2725" d="M80 0v106h221v1201h-221v98q186 -6 375 -6q180 0 360 6v-98h-223v-1201h625v1201h-222v98q188 -6 375 -6q178 0 359 6v-98h-222v-1201h625v1201h-221v98q186 -6 375 -6q176 0 358 6v-98h-221v-1201h221v-106h-2564z" />
<glyph unicode="&#x429;" horiz-adv-x="2725" d="M80 0v106h221v1201h-221v98q182 -6 360 -6q186 0 375 6v-98h-223v-1201h625v1201h-222v98q188 -6 375 -6q178 0 359 6v-98h-222v-1201h625v1201h-221v98q186 -6 375 -6q176 0 358 6v-98h-221v-1201h243l64 -505h-98q-23 180 -66 254q-49 86 -139 118q-74 27 -225 27 h-2122z" />
<glyph unicode="&#x42a;" horiz-adv-x="2062" d="M84 909l43 496h940v-98h-111v-521q197 39 396 39h8q262 0 415.5 -114.5t153.5 -302.5q0 -66 -22.5 -128.5t-70.5 -122t-138 -101.5t-211 -52q-37 -4 -113 -4h-909v98h223v1209h-141q-92 0 -154.5 -16.5t-100.5 -42t-60.5 -80t-32 -108.5t-17.5 -151h-98zM956 98h373 q154 0 220.5 94.5t66.5 215.5q0 133 -83 221t-247 88q-145 0 -330 -29v-590z" />
<glyph unicode="&#x42b;" horiz-adv-x="2304" d="M80 0v98h221v1209h-221v98q184 -6 369 -6h8q143 0 336 6v-98h-222v-521q197 39 396 39q164 0 282.5 -40t179 -106.5t87 -133t26.5 -135.5q0 -61 -20.5 -122t-66.5 -123.5t-137 -106.5t-216 -54q-37 -4 -115 -4h-907zM571 98h373q154 0 219.5 94.5t65.5 215.5 q0 53 -15.5 103t-49.5 98t-101.5 78t-161.5 30q-145 0 -330 -29v-590zM1473 0v98h223v1209h-223v98q186 -6 374 -6q35 0 361 6v-98h-221v-1209h221v-98q-180 6 -361 6q-188 0 -374 -6z" />
<glyph unicode="&#x42c;" horiz-adv-x="1675" d="M80 0v98h221v1209h-221v98q184 -6 369 -6h8q143 0 336 6v-98h-222v-521q197 39 396 39q164 0 282.5 -40t179 -106.5t87 -133t26.5 -135.5q0 -61 -20.5 -122t-66.5 -123.5t-137 -106.5t-216 -54q-37 -4 -115 -4h-907zM571 98h373q154 0 219.5 94.5t65.5 215.5 q0 53 -15.5 103t-49.5 98t-101.5 78t-161.5 30q-145 0 -330 -29v-590z" />
<glyph unicode="&#x42d;" horiz-adv-x="1699" d="M129 391q0 43 49 43q33 0 41 -11t11 -49t18 -71q43 -104 162.5 -165.5t273.5 -61.5q295 0 449 200q96 129 118 353q-221 -106 -362 -107q-98 0 -232.5 71t-203.5 71q-23 0 -53.5 -8.5t-39.5 -8.5q-31 0 -30 37q0 57 102.5 85t173.5 28q123 0 249 -54.5t208 -54.5 q80 0 192 41q-2 172 -53 296t-138 186.5t-178 90t-196 27.5q-164 0 -286.5 -89t-157.5 -230q0 -4 -2 -11.5t-2 -10.5t-3 -10t-5.5 -10t-6.5 -7.5t-10 -6.5t-15 -4t-20 -2q-33 0 -43 12.5t-10 43.5v368q0 53 37 53q4 0 8 -1t9 -3t10.5 -5t14.5 -9t16 -11t20.5 -15.5t25 -19.5 t32 -24.5t36.5 -27.5q168 119 405 118q377 0 601.5 -204.5t224.5 -526.5q0 -324 -227.5 -521.5t-600.5 -197.5q-256 0 -434 116t-178 298z" />
<glyph unicode="&#x42e;" horiz-adv-x="2607" d="M80 0v98h221v1209h-221v98q186 -6 375 -6q35 0 360 6v-98h-223v-564h379q31 350 240.5 517t510.5 167q346 0 550 -202.5t204 -528.5q0 -324 -205 -521.5t-547 -197.5q-332 0 -535.5 183.5t-217.5 484.5h-379v-547h223v-98q-180 6 -360 6q-189 0 -375 -6zM1282 723 q0 -383 154 -539q119 -119 286 -118q102 0 207 55t168 194q66 143 66 402q0 276 -78 418q-37 66 -88 111.5t-106.5 64t-94.5 25.5t-74 7q-221 0 -338 -169q-102 -150 -102 -451z" />
<glyph unicode="&#x42f;" horiz-adv-x="1845" d="M96 0v98q80 0 122 5.5t54.5 10.5t32.5 19l467 535q-150 23 -253 73t-145 109t-57.5 102t-15.5 82q0 88 59.5 165t167.5 126q174 80 488 80h747v-98h-221v-1209h221v-98q-184 6 -368 6q-141 0 -355 -6v98h222v557h-146q-23 0 -34 -8t-42 -45l-401 -479q8 -18 23.5 -21.5 t99.5 -3.5h16v-98q-188 6 -372 6q-126 0 -310 -6zM614 1032q0 -168 95.5 -230.5t314.5 -62.5h238v568h-236q-274 0 -358 -93q-54 -57 -54 -182z" />
<glyph unicode="&#x430;" horiz-adv-x="1144" d="M66 221q0 293 665 322v69q0 242 -225 242q-80 0 -148 -14q45 -31 45 -101q0 -61 -38.5 -95t-90.5 -34q-47 0 -87 34t-40 95q0 188 367 189q221 0 336 -86t115 -230v-440q0 -29 4 -41t32.5 -23.5t88.5 -11.5q18 0 26 -2t17.5 -12t9.5 -33q0 -33 -14.5 -41t-51.5 -8h-98 q-76 0 -123 14.5t-64.5 43t-21.5 48t-4 52.5q-88 -170 -305 -170q-61 0 -123 9t-127.5 32.5t-105 72.5t-39.5 119zM305 223q0 -68 54.5 -115t132.5 -47q27 0 60.5 8.5t77.5 29t72.5 69.5t28.5 117v194q-45 -2 -85 -7t-107.5 -22.5t-114.5 -42t-83 -73t-36 -111.5z" />
<glyph unicode="&#x431;" d="M63 471v55q0 188 13.5 309t50.5 224.5t107.5 165t181.5 94.5q80 23 228.5 40t285.5 52q45 10 67 10q47 0 47 -49q0 -59 -38.5 -110.5t-92.5 -69.5q-47 -16 -152.5 -22.5t-195.5 -12.5t-187 -56t-149 -149q-37 -72 -55 -188q158 164 412 164q240 0 382 -133t142 -346 q0 -207 -140.5 -333t-383.5 -126q-72 0 -139.5 12t-139 46t-124 86t-86.5 139t-34 198zM326 459q0 -55 2 -87t8 -85.5t23.5 -85t45 -64.5t73.5 -49t110 -16q127 0 194 78q43 49 54.5 123.5t11.5 197.5v16q0 182 -37 250q-61 115 -225 115q-123 0 -193 -74q-68 -72 -67 -291 v-28z" />
<glyph unicode="&#x432;" d="M72 0v74h34q76 0 92.5 8t16.5 37v669q0 33 -19.5 41.5t-91.5 8.5h-32v73h553q160 0 252 -32q82 -31 124.5 -81t42.5 -110q0 -115 -202 -182q-8 -4 -11 -4q135 -37 200 -98.5t65 -137.5q0 -102 -90.5 -184t-303.5 -82h-630zM449 121q0 -33 12 -40t69 -7h103q117 0 165 57 t48 139t-41 139.5t-139 57.5h-217v-346zM449 535h126q129 0 179.5 47t50.5 108q0 59 -38 103.5t-138 44.5h-101q-53 0 -65 -7.5t-14 -33.5v-262z" />
<glyph unicode="&#x433;" horiz-adv-x="1015" d="M68 0v74h34q74 0 91.5 8t17.5 37v669q0 33 -19.5 41.5t-91.5 8.5h-32v73h862l26 -358h-98q-6 82 -16.5 125t-37 85t-79.5 58.5t-141 16.5h-56q-47 0 -63 -6.5t-18.5 -13.5t-2.5 -42v-655q0 -33 19.5 -40t120.5 -7h37v-74q-147 6 -293 6q-129 0 -260 -6z" />
<glyph unicode="&#x434;" horiz-adv-x="1308" d="M8 -332l37 406h51q31 0 52.5 5t57.5 27.5t75 67.5q160 182 159 608q0 39 -15 47.5t-99 8.5h-25v73h936v-73h-35q-72 0 -89 -8.5t-17 -36.5v-670q0 -33 19.5 -41t109.5 -8h35l36 -406h-98q-18 199 -74.5 265.5t-234.5 66.5h-481q-94 0 -151.5 -17.5t-87.5 -65.5t-41 -98 t-22 -151h-98zM326 90q0 -16 61 -16h412q25 0 36 2t19 12t8 33v674q-2 27 -13 35t-46 8h-189q-47 -2 -54 -4.5t-19 -16.5h-2q-4 -109 -9.5 -165t-21.5 -162.5t-52 -191.5t-91 -157q-6 -8 -16.5 -19t-16.5 -18.5t-6 -13.5z" />
<glyph unicode="&#x435;" horiz-adv-x="1079" d="M66 461q0 201 134 334t371 133q211 0 326 -111q115 -115 115 -315q0 -39 -13.5 -47.5t-52.5 -8.5h-618q0 -377 290 -376q100 0 180.5 45t112.5 118q10 27 18.5 35t33.5 8q49 0 49 -36q0 -14 -11.5 -40t-41 -64t-73.5 -70.5t-119 -55t-167 -22.5q-244 0 -389 132t-145 341 zM328 514h489q-10 340 -246 340q-125 0 -194 -106q-41 -64 -49 -234z" />
<glyph unicode="&#x436;" horiz-adv-x="1961" d="M39 0v74q74 0 100.5 11t67.5 58l375 424q-55 39 -126 90.5t-96.5 69.5t-66.5 46t-56.5 34t-44 16.5t-49 12.5t-53.5 2v73q80 -6 164 -6q104 0 209 6v-73q-33 -8 -35 -25l2 -10l8 -10l29 -25l397 -283v308q-2 31 -20.5 38t-79.5 7h-43v73q119 -6 242 -6q135 0 266 6v-73 h-47q-59 0 -77 -7.5t-20 -37.5v-316l406 289l33 25l6 10l4 10q-2 18 -35 27v73q104 -6 211 -6q55 0 160 6v-73q-29 0 -48.5 -3.5t-38 -5.5t-41 -14t-38.5 -20.5t-54 -35t-66 -46t-90 -64.5t-114 -82l375 -424q45 -51 68.5 -60t99.5 -9v-74q-111 6 -221 6q-127 0 -250 -6v74 q61 2 61 24q0 16 -88 117q-20 23 -75 84q-80 90 -133 152h-3q-27 -20 -55.5 -41t-38.5 -28t-20 -16.5t-12.5 -17.5t-2.5 -22v-199q0 -37 18.5 -45t100.5 -8h25v-74q-221 6 -246 6q-131 0 -262 -6v74h29q74 0 93 6t21 33v254l-119 84h-2q-233 -264 -265 -302t-32 -51 q0 -20 62 -24v-74q-127 6 -252 6q-119 0 -217 -6z" />
<glyph unicode="&#x437;" horiz-adv-x="1046" d="M53 229q0 41 45 41q29 0 40.5 -13t11.5 -31.5t13 -47t44 -51.5q74 -55 239 -55h9q260 0 260 196q0 199 -264 199h-50q-55 0 -69 16q-8 12 -8 21q0 31 65 31h31q244 0 276 129q4 20 4 30q0 158 -243 158q-233 0 -289 -164q-10 -25 -20.5 -33t-34.5 -8q-33 0 -41.5 16.5 t-8.5 69.5v137q0 55 35 56q18 0 57.5 -21.5t55.5 -21.5q8 0 32.5 11t81 22.5t144.5 11.5h12q256 0 357.5 -71t101.5 -161q0 -23 -8 -44t-19.5 -37.5t-33 -32t-36 -24.5t-41 -19.5t-37.5 -14.5t-36 -12l-24 -8q86 -20 143 -53t79.5 -71t31 -63.5t8.5 -50.5q0 -102 -86 -176 q-115 -100 -416 -100q-256 0 -350 96q-62 61 -62 143z" />
<glyph unicode="&#x438;" horiz-adv-x="1308" d="M68 0v74h34q76 0 92.5 8t16.5 37v669q0 33 -19.5 41.5t-93.5 8.5h-30v73q123 -6 247 -6q135 0 271 6v-73h-29q-84 0 -98.5 -9.5t-14.5 -52.5v-543q16 25 50 70l340 475q20 29 20 37q0 23 -92 23h-41v73q135 -6 270 -6q125 0 248 6v-73h-35q-74 0 -91 -8.5t-17 -36.5v-670 q0 -33 18.5 -41t89.5 -8h35v-74q-135 6 -270 6q-20 0 -248 -6v74h20q88 0 104.5 7t16.5 42v553q-16 -25 -49 -70l-340 -473q-20 -27 -20 -39q0 -20 77 -20h56v-74q-135 6 -269 6q-22 0 -249 -6z" />
<glyph unicode="&#x439;" horiz-adv-x="1308" d="M68 0v74h34q76 0 92.5 8t16.5 37v669q0 33 -19.5 41.5t-93.5 8.5h-30v73q123 -6 247 -6q135 0 271 6v-73h-29q-84 0 -98.5 -9.5t-14.5 -52.5v-543q16 25 50 70l340 475q20 29 20 37q0 23 -92 23h-41v73q135 -6 270 -6q125 0 248 6v-73h-35q-74 0 -91 -8.5t-17 -36.5v-670 q0 -33 18.5 -41t89.5 -8h35v-74q-135 6 -270 6q-20 0 -248 -6v74h20q88 0 104.5 7t16.5 42v553q-16 -25 -49 -70l-340 -473q-20 -27 -20 -39q0 -20 77 -20h56v-74q-135 6 -269 6q-22 0 -249 -6zM276 1257q0 66 44.5 109t103.5 43t103 -42t44 -105q0 -88 -82 -136 q86 -14 160 -14q100 0 166 16q-82 47 -82 134q0 63 44 105t103.5 42t104.5 -42t45 -110q0 -111 -108.5 -181t-268 -70t-268.5 70t-109 181z" />
<glyph unicode="&#x43a;" horiz-adv-x="1308" d="M68 0v74h34q76 0 92.5 8t16.5 37v669q0 33 -19.5 41.5t-91.5 8.5h-32v73q133 -6 266 -6q121 0 241 6v-73h-24q-78 0 -97.5 -7.5t-21.5 -37.5v-314l404 287l32 25l9 10l2 10q-2 18 -35 27v73q104 -6 211 -6q55 0 159 6v-73q-33 0 -54 -3.5t-49 -13.5t-44 -17t-57 -35 t-68 -47.5t-95.5 -68.5t-121.5 -88q23 -23 375 -422q45 -49 70.5 -59t97.5 -10v-74q-109 6 -219 6q-123 0 -250 -6v74h4q55 0 55 28q0 12 -45 64.5t-124 139.5t-126 145l-131 -93v-245q2 -27 22.5 -33t96.5 -6h24v-74q-221 6 -245 6q-129 0 -262 -6z" />
<glyph unicode="&#x43b;" horiz-adv-x="1308" d="M45 164q0 55 35 88t84 33q47 0 83 -34t36 -85q0 -39 -33 -84q47 2 71.5 11t52 46t40 110t20.5 198.5t8 318.5v16q0 37 -17 46.5t-99 9.5h-33v73h946v-73h-33h-35.5t-26.5 -2t-19.5 -2t-13.5 -5.5t-8 -6.5t-5 -9t-2 -10v-14.5v-16.5v-649q0 -33 18.5 -41t89.5 -8h35v-74 q-135 6 -270 6q-20 0 -248 -6v74h27q82 0 98 9t16 46v655q0 35 -12 44.5t-55 9.5h-197q-39 0 -49 -14.5t-10 -71.5v-97q0 -383 -60.5 -527t-230.5 -144q-106 0 -154.5 56t-48.5 124z" />
<glyph unicode="&#x43c;" horiz-adv-x="1568" d="M84 0v74q70 0 101.5 13t36.5 27.5t5 49.5v624q0 33 -19.5 41.5t-90.5 8.5h-33v73h332q41 0 58.5 -13t39.5 -60l279 -617q16 37 278 619q20 45 37.5 58t58.5 13h316v-73h-35q-72 0 -89.5 -8.5t-17.5 -36.5v-670q0 -33 18.5 -41t88.5 -8h35v-74q-127 6 -250 6h-8 q-98 0 -226 -6v74h33q78 0 93.5 8t15.5 45v698q-6 -14 -19.5 -42.5t-19.5 -43.5l-291 -645q-39 -92 -82 -92q-6 0 -12 2t-10.5 3t-9.5 6t-9 8.5t-8 10.5t-6 11t-7 13.5t-6.5 13.5t-6.5 15t-7 15l-311 688v-636q0 -29 6 -43.5t38 -24.5t97 -10v-74q-100 6 -201 6 q-96 0 -192 -6z" />
<glyph unicode="&#x43d;" horiz-adv-x="1308" d="M68 0v74h34q76 0 92.5 8t16.5 37v669q0 35 -19.5 42.5t-93.5 7.5h-30v73q123 -6 247 -6q135 0 271 6v-73h-23q-84 0 -101.5 -9.5t-17.5 -50.5v-243h418v262q-2 29 -21.5 35t-97.5 6h-22v73q135 -6 270 -6q125 0 248 6v-73h-37q-72 0 -89 -8.5t-17 -36.5v-672 q0 -33 18.5 -40t89.5 -7h35v-74q-135 6 -270 6q-20 0 -248 -6v74h27q76 0 94 7t20 40v346h-418v-346q2 -33 19.5 -40t95.5 -7h27v-74q-135 6 -269 6q-22 0 -249 -6z" />
<glyph unicode="&#x43e;" d="M66 446q0 211 138 346.5t384 135.5q244 0 383 -135.5t139 -346.5q0 -199 -137 -328.5t-385 -129.5t-385 129.5t-137 328.5zM328 469q0 -61 1 -93t8 -88.5t23.5 -87t44 -65.5t73.5 -50t109.5 -15t109.5 15t74 50t44 65.5t23.5 87t8.5 88.5t1 93q0 211 -43 281 q-66 104 -217 104q-164 0 -226 -119q-34 -69 -34 -266z" />
<glyph unicode="&#x43f;" horiz-adv-x="1308" d="M68 0v74h34q76 0 92.5 8t16.5 37v669q0 35 -19.5 42.5t-93.5 7.5h-30v73h1171v-73h-37q-72 0 -89 -8.5t-17 -36.5v-670q0 -33 18.5 -41t89.5 -8h35v-74q-135 6 -270 6q-20 0 -248 -6v74h20q88 0 104.5 8t16.5 49v664q-2 29 -15 36t-69 7h-266q-45 0 -56.5 -9.5 t-11.5 -37.5v-652v-17v-13.5t2.5 -10.5t4.5 -9t8 -6t13 -5t18.5 -2t24.5 -2h34h37v-74q-135 6 -269 6q-22 0 -249 -6z" />
<glyph unicode="&#x440;" horiz-adv-x="1308" d="M72 -301h143v1036q0 45 -22.5 58.5t-98.5 13.5h-22v98l364 17v-101q141 100 314 101q209 0 343 -127t134 -338q0 -213 -143.5 -340t-368.5 -127q-145 0 -266 92v-383h141v-98q-135 6 -268 6q-23 0 -250 -6v98zM446 231q0 -53 76 -110.5t168 -57.5q106 0 190.5 91.5 t84.5 304.5q0 174 -69 276.5t-183 102.5q-88 0 -160 -41t-96 -80q-8 -12 -8 -41v-430q0 -2 -1.5 -6.5t-1.5 -8.5z" />
<glyph unicode="&#x441;" horiz-adv-x="1046" d="M78 455q0 197 130 335t388 138q356 0 356 -189q0 -61 -39 -95t-90 -34q-47 0 -87 34t-40 95q0 57 41 95q-53 12 -133 12q-76 0 -129 -31t-78.5 -68.5t-39 -100t-15.5 -96.5t-2 -85q0 -395 285 -395q186 0 256 168q8 20 15 25t34 5q49 0 49 -28q0 -8 -8 -32t-35 -63 t-68 -72.5t-115.5 -59t-166.5 -25.5q-233 0 -370.5 130t-137.5 337z" />
<glyph unicode="&#x442;" horiz-adv-x="1114" d="M57 553l25 358h948l25 -358h-99q-4 63 -8 91t-17 74t-33.5 65.5t-61.5 36t-101 16.5q-43 0 -53 -8.5t-10 -36.5v-670q0 -33 23.5 -40t135.5 -7h43v-74q-166 6 -333 6q-33 0 -303 -6v74h43q113 0 135 7t22 40v667q0 31 -10 39.5t-53 8.5q-59 0 -99 -16.5t-61.5 -35 t-35 -65.5t-15.5 -72.5t-8 -93.5h-99z" />
<glyph unicode="&#x443;" horiz-adv-x="1243" d="M45 -221q0 55 35 87t84 32t84 -33t35 -84q0 -68 -64 -109q25 -6 49 -6q35 0 66 11.5t56.5 34t45 43t39 55t28.5 53t24.5 53.5t17.5 41q16 37 16 41q0 14 -8 33l-348 737q-25 51 -40 60.5t-93 9.5h-19v73q115 -6 232 -6q129 0 254 6v-73h-13q-92 0 -92 -27q0 -10 64 -143 q96 -205 190 -406h2q31 72 95.5 205t106.5 223t42 103q0 41 -96 45v73q96 -6 188 -6q82 0 162 6v-73q-57 0 -91 -13.5t-43.5 -26t-21.5 -38.5l-416 -883q-137 -287 -352 -287q-98 0 -158.5 58.5t-60.5 130.5z" />
<glyph unicode="&#x444;" horiz-adv-x="1830" d="M78 457q0 211 145.5 338t366.5 127q113 0 215 -68v385q-2 45 -26.5 56.5t-100.5 11.5h-16v98l364 16v-567q102 68 215 68q221 0 366.5 -127t145.5 -338q0 -219 -152.5 -343t-369.5 -124q-111 0 -205 69v-360h143v-98q-133 6 -264 6q-23 0 -243 -6v98h143v360 q-94 -70 -207 -69q-225 0 -372.5 127t-147.5 340zM340 455q0 -205 87 -298.5t191 -93.5q68 0 127.5 46.5t59.5 105.5v471q0 53 -43 94q-61 57 -139 58h-5q-104 0 -191 -90t-87 -293zM1026 227q0 -25 1 -34t9 -25t27 -37q61 -68 149 -68q104 0 190.5 93.5t86.5 298.5 q0 201 -87 292t-192 91q-68 0 -125 -40t-59 -98v-473z" />
<glyph unicode="&#x445;" horiz-adv-x="1243" d="M45 0v74q31 0 55.5 3t42 4t35 8t24.5 9t19 12.5t14.5 11.5t14.5 13l12 15l256 286l-293 348q-33 39 -53 46.5t-88 7.5h-29v73q113 -6 226 -6q123 0 245 6v-73l-51 -7l-31 -10q12 -18 203 -241q39 45 74 85t53.5 59t32.5 35.5t18 24t4 15.5q0 33 -71 39v73q104 -6 211 -6 q96 0 188 6v-73q-72 0 -116 -12.5t-59 -23.5t-40 -38l-231 -260v-2l315 -373q23 -27 27 -31t23.5 -14t40 -10h67.5h14v-74q-111 6 -219 6q-127 0 -252 -6v74q74 2 74 22q0 6 -219 264q-29 -33 -61 -67.5t-50 -55t-37.5 -42t-30 -32.5t-18.5 -22.5t-11 -17.5t-3 -10 q0 -35 73 -39v-74q-104 6 -208 6q-97 0 -191 -6z" />
<glyph unicode="&#x446;" horiz-adv-x="1308" d="M68 0v74h34q76 0 92.5 8t16.5 37v669q0 35 -18.5 42.5t-92.5 7.5h-32v73q123 -6 247 -6q135 0 271 6v-73h-27q-82 0 -98.5 -9.5t-16.5 -48.5v-663q2 -29 15.5 -36t66.5 -7h269q45 0 56 9t11 36v669q0 33 -18.5 41.5t-91.5 8.5h-31v73q135 -6 270 -6q125 0 248 6v-73h-37 q-72 0 -89 -8.5t-17 -36.5v-670q0 -33 19.5 -41t109.5 -8h35l36 -406h-96q-12 129 -33.5 194.5t-81.5 100.5q-61 37 -202 37h-815z" />
<glyph unicode="&#x447;" horiz-adv-x="1308" d="M68 838v73q123 -6 247 -6q135 0 271 6v-73h-35q-76 0 -91.5 -10.5t-15.5 -57.5v-149q0 -170 117 -170q150 0 301 71v275q-2 29 -21.5 35t-97.5 6h-22v73q135 -6 270 -6q125 0 248 6v-73h-37q-72 0 -89 -8.5t-17 -36.5v-672q0 -33 18.5 -40t89.5 -7h35v-74q-135 6 -270 6 q-20 0 -248 -6v74h31q74 0 91 6t19 39v334q-150 -70 -315 -70q-57 0 -110.5 10t-108 35t-87 74t-32.5 116q0 4 1 11.5t1 11.5v129q0 49 -16.5 58.5t-104.5 9.5h-22z" />
<glyph unicode="&#x448;" horiz-adv-x="1927" d="M68 0v74h34q76 0 92.5 8t16.5 37v669q0 35 -19.5 42.5t-93.5 7.5h-30v73q123 -6 247 -6q135 0 271 6v-73h-35q-72 0 -89.5 -8.5t-17.5 -36.5v-672q0 -33 14.5 -40t69.5 -7h236q53 0 66.5 7t15.5 36v663q0 23 -1 30t-11.5 16.5t-33 10.5t-67.5 1h-28v73q135 -6 270 -6 q125 0 248 6v-73h-29q-82 0 -97.5 -9.5t-15.5 -48.5v-663q2 -29 15.5 -36t66.5 -7h221q23 0 36.5 1t25.5 0t17 3t10.5 5t6.5 9t2 10t1 15.5v19.5v651q0 35 -18.5 42.5t-92.5 7.5h-31v73q123 -6 248 -6q135 0 271 6v-73h-35q-74 0 -91.5 -8.5t-17.5 -36.5v-670 q0 -33 18.5 -41t90.5 -8h35v-74h-1792z" />
<glyph unicode="&#x449;" horiz-adv-x="1927" d="M68 0v74h34q76 0 92.5 8t16.5 37v669q0 35 -19.5 42.5t-93.5 7.5h-30v73q123 -6 247 -6q135 0 271 6v-73h-27q-82 0 -98.5 -9.5t-16.5 -48.5v-663q2 -29 15.5 -36t66.5 -7h222q23 0 36 1t25 0t17 3t10.5 5t6.5 9t2 10t1 15.5v19.5v651q0 33 -18.5 41.5t-92.5 8.5h-30v73 q135 -6 270 -6q125 0 248 6v-73h-29q-82 0 -97.5 -9.5t-15.5 -48.5v-663q2 -29 15.5 -36t66.5 -7h221q23 0 36.5 1t25.5 0t17 3t10.5 5t6.5 9t2 10t1 15.5v19.5v651q0 35 -18.5 42.5t-92.5 7.5h-31v73q123 -6 248 -6q135 0 271 6v-73h-29q-78 0 -96.5 -8.5t-18.5 -34.5v-672 q0 -33 19.5 -41t109.5 -8h35l39 -406h-98q-14 139 -35 200.5t-82 96.5q-59 35 -197 35h-1439z" />
<glyph unicode="&#x44a;" horiz-adv-x="1406" d="M57 553l25 358h661v-73h-8q-23 0 -33 -1t-20 -10.5t-10 -29.5v-262h223q127 0 217 -25t134 -67t62.5 -83t18.5 -86q0 -113 -96 -186.5t-250 -85.5q-31 -2 -92 -2h-592v74h35q72 0 89 8t17 35v676q0 25 -11 34t-52 9q-59 0 -99 -16.5t-61.5 -35t-35 -65.5t-15.5 -72.5 t-8 -93.5h-99zM672 123q0 -27 8 -34t29 -7h120q74 0 124.5 20.5t73 53t30.5 61.5t8 57q0 23 -4 45.5t-19.5 50t-40 48t-69.5 35t-105 14.5h-155v-344z" />
<glyph unicode="&#x44b;" horiz-adv-x="1699" d="M68 0v74h34q76 0 92.5 8t16.5 37v669q0 35 -19.5 42.5t-93.5 7.5h-30v73q123 -6 247 -6q135 0 271 6v-73h-23q-84 0 -101.5 -8.5t-17.5 -49.5v-245h222q127 0 217 -25t134 -67t62.5 -83t18.5 -86q0 -113 -95.5 -186.5t-248.5 -85.5q-31 -2 -95 -2h-591zM444 123 q0 -27 7.5 -34t27.5 -7h123q72 0 123 20.5t72.5 53t30 60.5t8.5 58q0 23 -4.5 45.5t-19.5 50t-39.5 48t-70 35t-104.5 14.5h-154v-344zM1112 0v74h37q23 0 38 1t27.5 1t19.5 5t11 5t6 9t3 10t1 16.5v19.5v647q0 33 -18 41.5t-90 8.5h-35v73q125 -6 252 -6q135 0 266 6v-73 h-33q-74 0 -91 -8.5t-17 -34.5v-674q0 -33 18.5 -40t89.5 -7h33v-74q-131 6 -266 6h-6q-107 0 -246 -6z" />
<glyph unicode="&#x44c;" d="M68 0v74h34q76 0 92.5 8t16.5 37v669q0 35 -19.5 42.5t-93.5 7.5h-30v73q123 -6 247 -6q135 0 271 6v-73h-23q-84 0 -101.5 -8.5t-17.5 -49.5v-245h222q127 0 217 -25t134 -67t62.5 -83t18.5 -86q0 -113 -95.5 -186.5t-248.5 -85.5q-31 -2 -95 -2h-591zM444 123 q0 -27 7.5 -34t27.5 -7h123q72 0 123 20.5t72.5 53t30 60.5t8.5 58q0 23 -4.5 45.5t-19.5 50t-39.5 48t-70 35t-104.5 14.5h-154v-344z" />
<glyph unicode="&#x44d;" horiz-adv-x="1046" d="M63 719v151q0 49 33 50q23 0 115 -56q121 63 248 64q225 0 365.5 -130t140.5 -341t-138.5 -339t-369.5 -128q-106 0 -188.5 32.5t-122.5 77.5t-59 81t-19 57q0 31 45 30q27 0 37 -10q2 -2 20 -36t42 -64.5t78 -58t126 -27.5q168 0 241 139q45 86 45 242 q-152 -74 -221 -74q-61 0 -128.5 47t-102.5 47q-6 0 -14.5 -1t-12.5 -1q-29 0 -28 21q0 41 67.5 61t118.5 20q70 0 139.5 -29.5t114.5 -29.5q31 0 67 8q-10 190 -96 266q-66 55 -155 56q-25 0 -55.5 -5t-76 -19.5t-86 -48.5t-65.5 -83q-12 -27 -21.5 -34t-31.5 -7h-6 q-31 0 -38.5 14.5t-7.5 57.5z" />
<glyph unicode="&#x44e;" horiz-adv-x="1765" d="M68 0v74h34q76 0 92.5 8t16.5 37v669q0 35 -19.5 42.5t-93.5 7.5h-30v73q123 -6 247 -6q135 0 271 6v-73h-23q-84 0 -101.5 -8.5t-17.5 -49.5v-245h218q29 182 165 287.5t351 105.5q238 0 380 -133t142 -346q0 -209 -142.5 -334t-383.5 -125q-72 0 -139.5 12t-138.5 46 t-123 85t-86 137t-34 197h-209v-346q2 -33 19.5 -40t95.5 -7h27v-74q-135 6 -269 6q-22 0 -249 -6zM915 459q0 -55 2.5 -91t9.5 -87.5t24.5 -83t45 -63.5t73.5 -47t108 -15q127 0 194 78q43 49 54.5 123.5t11.5 197.5v16q0 178 -39 250q-61 115 -223 115q-125 0 -195 -74 q-66 -70 -66 -291v-28z" />
<glyph unicode="&#x44f;" horiz-adv-x="1243" d="M39 0v74q76 2 109.5 20.5t80.5 71.5l246 283q-184 25 -264 89t-80 146q0 115 143 174q135 53 394 53h501v-73h-34q-74 0 -90.5 -8.5t-16.5 -36.5v-670q0 -33 18.5 -41t90.5 -8h32v-74q-133 6 -262 6q-23 0 -243 -6v74h36q66 0 84.5 7t20.5 38v321h-49q-27 0 -37 -6 t-31 -33q-213 -260 -229 -278q-10 -20 -10 -29q0 -20 59 -20h10v-74q-129 6 -260 6q-108 0 -219 -6zM393 682q2 -111 69.5 -142.5t244.5 -31.5h98v289q-2 27 -12.5 33t-32.5 6h-105q-164 0 -213 -32t-49 -122z" />
<glyph unicode="&#x450;" horiz-adv-x="1079" d="M66 461q0 201 134 334t371 133q211 0 326 -111q115 -115 115 -315q0 -39 -13.5 -47.5t-52.5 -8.5h-618q0 -377 290 -376q100 0 180.5 45t112.5 118q10 27 18.5 35t33.5 8q49 0 49 -36q0 -14 -11.5 -40t-41 -64t-73.5 -70.5t-119 -55t-167 -22.5q-244 0 -389 132t-145 341 zM328 514h489q-10 340 -246 340q-125 0 -194 -106q-41 -64 -49 -234zM377 1227q0 49 36 89t85 40q35 0 63.5 -21.5t161.5 -146.5q61 -57 100 -92l-49 -84q-47 16 -125 43q-184 61 -228 88t-44 84z" />
<glyph unicode="&#x451;" horiz-adv-x="1079" d="M66 461q0 201 134 334t371 133q211 0 326 -111q115 -115 115 -315q0 -39 -13.5 -47.5t-52.5 -8.5h-618q0 -377 290 -376q100 0 180.5 45t112.5 118q10 27 18.5 35t33.5 8q49 0 49 -36q0 -14 -11.5 -40t-41 -64t-73.5 -70.5t-119 -55t-167 -22.5q-244 0 -389 132t-145 341 zM150 1245q0 61 46 110.5t113 49.5q70 0 114 -48t44 -111.5t-45 -112t-113 -48.5q-70 0 -114.5 48.5t-44.5 111.5zM328 514h489q-10 340 -246 340q-125 0 -194 -106q-41 -64 -49 -234zM606 1245q0 61 46 109.5t114 48.5q63 0 111.5 -46t48.5 -114q0 -61 -46 -109.5 t-114 -48.5q-70 0 -115 48.5t-45 111.5z" />
</font>
</defs>
</svg>
