<?xml version="1.0" standalone="no"?>
<!DOCTYPE svg PUBLIC "-//W3C//DTD SVG 1.1//EN" "http://www.w3.org/Graphics/SVG/1.1/DTD/svg11.dtd" >
<svg xmlns="http://www.w3.org/2000/svg" xmlns:xlink="http://www.w3.org/1999/xlink" version="1.1">
<metadata></metadata>
<defs>
<font id="cmu_typewriter_text_variablMd" horiz-adv-x="1552" >
<font-face units-per-em="2048" ascent="1638" descent="-410" />
<missing-glyph horiz-adv-x="716" />
<glyph unicode="&#xfb00;" horiz-adv-x="1253" d="M33 63.5q0 63.5 76 63.5h118v629h-86q-82 0 -82 63q0 61 74 62h94v94q0 86 33 131q41 59 149.5 107.5t284.5 48.5h6q98 0 146.5 -12.5t87.5 -47.5h4q80 59 205 60q111 0 153.5 -37t42.5 -86q0 -37 -25.5 -62.5t-62.5 -25.5q-35 0 -60.5 23.5t-27.5 60.5h-28 q-68 0 -118 -37t-50 -109v-108h172q74 0 73 -60q0 -66 -71 -65h-174v-629h170q72 0 71.5 -63.5t-75.5 -63.5h-433q-72 0 -71 63q0 23 15 42.5t54 21.5h125v850q0 49 4 70q-37 33 -34 81q-66 8 -109 9q-135 0 -210 -34t-97 -75q-6 -14 -6 -57v-90h174q72 0 71 -60 q0 -66 -73 -65h-172v-629h116q76 0 76 -63.5t-74 -63.5h-383q-73 0 -73 63.5z" />
<glyph unicode="&#xfb01;" horiz-adv-x="1193" d="M33 63.5q0 63.5 76 63.5h118v629h-86q-82 0 -82 63q0 61 74 62h94v106q0 78 47.5 135.5t122 85t147 41t140.5 13.5q162 0 222.5 -49.5t60.5 -114.5q0 -43 -28 -68.5t-64.5 -25.5t-63.5 25.5t-27 66.5q0 8 4 28q-49 12 -116 13q-123 0 -197 -34t-96 -73q-8 -14 -8 -57v-92 h522q35 0 52.5 -15.5t19.5 -29t2 -37.5v-672h116q76 0 76 -63.5t-74 -63.5h-383q-72 0 -71 63q0 39 31 56q14 8 57 8h104v629h-452v-629h116q76 0 76 -63.5t-74 -63.5h-383q-73 0 -73 63.5z" />
<glyph unicode="&#xfb02;" horiz-adv-x="1193" d="M33 63.5q0 63.5 76 63.5h118v629h-86q-82 0 -82 63q0 61 74 62h94v110q0 121 128 196t339 75q78 0 125 -7l49 -6q2 0 6.5 1t6.5 1v-6q20 4 26 4q59 0 60 -73v-1049h116q76 0 76 -63.5t-74 -63.5h-383q-72 0 -71 63q0 39 31 56q14 8 57 8h104v629h-452v-629h116 q76 0 76 -63.5t-74 -63.5h-383q-73 0 -73 63.5zM371 881h452v188q-27 31 -32 61q-55 6 -111 7h-6q-109 0 -206 -36t-97 -116v-104z" />
<glyph unicode="&#xfb03;" horiz-adv-x="1792" d="M33 63.5q0 63.5 76 63.5h116v629h-84q-84 0 -84 63q0 61 76 62h92v108q0 76 45 132.5t119 85t147.5 42t149.5 13.5q184 0 252 -82q143 82 336 82q287 0 287 -164q0 -41 -27 -67.5t-63.5 -26.5t-63.5 26.5t-27 65.5q0 8 4 28q-49 12 -116 13q-123 0 -198 -35t-97 -74 q-8 -14 -8 -55v-92h524q35 0 52.5 -15.5t19.5 -29t2 -37.5v-672h116q76 0 76 -63.5t-74 -63.5h-383q-72 0 -71.5 63.5t73.5 63.5h119v629h-454v-629h118q74 0 74 -63.5t-72 -63.5h-383q-74 0 -73.5 63.5t76.5 63.5h116v629h-452v-629h118q74 0 74 -63.5t-72 -63.5h-383 q-73 0 -73 63.5zM369 881h452v77l2 62q-39 35 -39 74q0 18 2 30q-49 12 -114 13h-4q-121 0 -195 -34t-96 -73q-8 -14 -8 -45v-104z" />
<glyph unicode="&#xfb04;" horiz-adv-x="1792" d="M33 63.5q0 63.5 76 63.5h116v629h-84q-84 0 -84 63q0 61 76 62h92v104q0 137 134.5 207t334.5 70q109 0 163 -15.5t91 -62.5q131 78 344 78q82 0 125 -6.5t47 -6.5q2 0 6.5 1t6.5 1v-6q20 4 26 4q59 0 60 -73v-1049h116q76 0 76 -63.5t-74 -63.5h-383q-72 0 -71.5 63.5 t73.5 63.5h119v629h-454v-629h118q74 0 74 -63.5t-72 -63.5h-383q-74 0 -73.5 63.5t76.5 63.5h116v629h-452v-629h118q74 0 74 -63.5t-72 -63.5h-383q-73 0 -73 63.5zM369 881h452v77q0 49 6 89q-39 35 -36 81q-43 8 -109 9h-8q-63 0 -128 -11.5t-121 -48.5t-56 -92v-104z M965 881h454v188q-16 16 -23 30.5t-6 20.5t-4.5 10.5t-16.5 5.5t-42 1h-55q-47 0 -95.5 -7.5t-98.5 -22.5t-81.5 -47t-31.5 -75v-104z" />
<glyph horiz-adv-x="0" />
<glyph unicode="&#xd;" horiz-adv-x="681" />
<glyph unicode=" "  horiz-adv-x="716" />
<glyph unicode="&#x09;" horiz-adv-x="716" />
<glyph unicode="&#xa0;" horiz-adv-x="716" />
<glyph unicode="!" horiz-adv-x="598" d="M195 102q0 45 30.5 74t71.5 29q45 0 73.5 -31t28.5 -72q0 -39 -29.5 -70.5t-72.5 -31.5q-45 0 -73.5 30.5t-28.5 71.5zM195 1165q0 53 32.5 81t69.5 28q39 0 70.5 -27.5t31.5 -83.5l-18 -721q-2 -68 -76 -67h-14q-29 0 -45.5 6t-22.5 25.5t-7 32t-3 48.5z" />
<glyph unicode="&#x22;" horiz-adv-x="1075" d="M264 1178q0 45 27.5 69.5t64.5 24.5q35 0 62.5 -24.5t27.5 -69.5l-24 -424q-6 -68 -41 -78q-10 -4 -25 -4q-57 0 -65 76q-4 59 -10.5 166.5t-11.5 182.5t-5 81zM625 1186q0 35 26.5 60.5t65.5 25.5q31 0 60.5 -22.5t29.5 -71.5q0 -6 -5 -80t-11.5 -179.5t-10.5 -164.5 q-2 -25 -4 -37t-17.5 -28.5t-43.5 -16.5q-63 0 -64 76q-6 96 -13 208.5t-10 166t-3 63.5z" />
<glyph unicode="#" horiz-adv-x="1792" d="M119 471.5q0 63.5 78 63.5h354l76 182h-434q-43 0 -58.5 21.5t-15.5 41.5q0 63 82 64h481q156 373 164 383q18 23 49 22q25 0 43 -17.5t18 -43.5q0 -14 -137 -344h336q156 373 164 383q18 23 49 22q25 0 43.5 -17.5t18.5 -43.5q0 -14 -138 -344h289q88 0 88 -63.5 t-78 -63.5h-354l-76 -182h434q43 0 58.5 -21.5t15.5 -42.5q0 -63 -82 -63h-479q-154 -367 -166 -385q-18 -23 -47 -23q-27 0 -45.5 18.5t-18.5 44.5q0 14 140 345h-336q-154 -367 -166 -385q-18 -23 -49 -23q-27 0 -44.5 18.5t-17.5 44.5q0 14 140 345h-291q-88 0 -88 63.5z M688 535h336l78 182h-338z" />
<glyph unicode="$" horiz-adv-x="1075" d="M119 344q0 53 28.5 75.5t61.5 22.5q39 0 65.5 -25.5t26.5 -64.5q0 -25 -12.5 -45t-12.5 -33q0 -14 9.5 -38.5t58.5 -63.5t129 -53v471q-113 23 -189.5 66.5t-109.5 97t-44 92.5t-11 78q0 113 89 212t265 124v77q0 18 1 25.5t5 25t18.5 25.5t39.5 8q63 0 63 -82v-79 q164 -18 259 -101.5t95 -226.5q0 -51 -29.5 -74.5t-62.5 -23.5q-37 0 -63.5 25.5t-26.5 66.5q0 14 4 27.5t8 19.5t11 14l6 6q-45 121 -201 140v-422q174 -29 264 -133.5t90 -225.5q0 -127 -95 -231.5t-259 -126.5v-80q0 -84 -63.5 -84t-63.5 82v80q-160 12 -257 110.5 t-97 241.5zM252 934q0 -63 56.5 -119.5t164.5 -77.5v393q-100 -14 -160.5 -71t-60.5 -125zM600 121q104 18 162.5 83.5t58.5 137.5t-56 135.5t-165 85.5v-442z" />
<glyph unicode="%" horiz-adv-x="1792" d="M119 1024q0 168 88 282.5t211 114.5t211 -113.5t88 -285.5q0 -168 -88 -282.5t-211 -114.5t-211 113.5t-88 285.5zM233 1022q0 -115 56.5 -193.5t128 -78.5t128 78.5t56.5 195.5q0 115 -56.5 193.5t-128 78.5t-128 -78.5t-56.5 -195.5zM346 -98q0 20 21 53l942 1429 q25 37 63 37q31 0 51.5 -21.5t20.5 -49.5q0 -25 -21 -54l-940 -1423q-27 -43 -65 -43q-29 0 -50.5 21.5t-21.5 50.5zM1073 229q0 168 88 283t211 115t211 -114t88 -286q0 -168 -88 -282.5t-211 -114.5t-211 113.5t-88 285.5zM1188 227q0 -115 56 -193.5t128 -78.5t128 79 t56 195q0 115 -56 194t-128 79t-128 -79t-56 -196z" />
<glyph unicode="&#x26;" horiz-adv-x="1671" d="M90 283q0 135 121 223q27 20 117 82.5t102 70.5q-70 164 -70 322q0 137 88.5 215t194.5 78q113 0 180.5 -87t67.5 -194q0 -90 -74 -177t-235 -204q96 -178 276 -336q90 88 156.5 182.5t189.5 299.5h-155q-82 0 -82 61q0 29 15 44.5t28.5 17.5t38.5 2h434q25 0 38 -2 t28.5 -17.5t15.5 -44.5q0 -61 -82 -61h-142l-170 -275q-37 -59 -100 -141q-63 -86 -117 -139q147 -100 295 -101q70 0 125.5 29t63.5 84q6 68 57 68q8 0 17.5 -2t24.5 -18.5t15 -45.5q0 -92 -83 -166t-220 -74q-182 0 -387 142q-178 -141 -383 -142q-162 0 -275.5 86.5 t-113.5 219.5zM231 287q0 -78 73 -131.5t177 -53.5q143 0 287 99q-57 47 -143 149q-94 113 -138 195q-156 -100 -206 -146t-50 -112zM475 981q0 -127 51 -252q250 172 250 264q0 55 -34.5 105.5t-98.5 50.5q-57 0 -112.5 -41t-55.5 -127z" />
<glyph unicode="'" horiz-adv-x="598" d="M205 1178q0 43 27.5 68.5t64.5 25.5q39 0 64.5 -25.5t25.5 -68.5q0 -6 -5 -80t-11 -179.5t-11 -164.5q0 -2 -1 -9.5t-1 -11.5t-1 -12t-3 -12t-5 -10.5t-8 -10.5t-11 -8t-14.5 -6t-18.5 -2t-18.5 2t-14.5 6t-11 8t-8 10.5t-6 11.5t-4.5 11t-1.5 10v10l-2 7 q-4 59 -10 166.5t-11 182.5t-5 81z" />
<glyph unicode="(" horiz-adv-x="835" d="M174 627q0 147 44 282t106.5 225.5t132 158t122 98t72.5 30.5q35 0 49.5 -19.5t14.5 -37.5q0 -14 -6.5 -25.5t-13.5 -16.5t-27 -19q-129 -88 -212 -213t-112 -237t-29 -226q0 -190 85 -371.5t264 -302.5q23 -16 30.5 -21.5t14 -16.5t6.5 -26q0 -18 -14.5 -37.5 t-49.5 -19.5q-41 0 -138 79t-173 185q-166 238 -166 531z" />
<glyph unicode=")" horiz-adv-x="835" d="M119 -111q0 31 47 62q188 127 270 310t82 366q0 66 -11 135t-44 169.5t-114 202t-197 179.5q-33 20 -33 51q0 18 15.5 37.5t47.5 19.5q41 0 138.5 -78.5t173.5 -185.5q166 -238 165 -530q0 -147 -44 -282.5t-106.5 -225.5t-132 -157.5t-121.5 -98.5t-73 -31 q-33 0 -48 19.5t-15 37.5z" />
<glyph unicode="*" horiz-adv-x="1075" d="M139 438q0 18 9.5 32.5t16.5 20t25 15.5l222 121l-224 121q-49 27 -49 65q0 25 19.5 46.5t48.5 21.5q18 0 47 -19l221 -129q-6 80 -6 248q0 86 67.5 86t67.5 -86q0 -168 -6 -248l254 148q82 0 82 -68q0 -37 -51 -68l-221 -120q14 -8 70 -37t103.5 -53.5t69.5 -40.5 q29 -14 29 -56q0 -25 -19.5 -46t-48.5 -21q-20 0 -75 32q-174 104 -193 115q6 -80 6 -248q0 -86 -67.5 -86t-67.5 86q0 168 6 248l-254 -147q-82 -1 -82 67z" />
<glyph unicode="+" horiz-adv-x="1671" d="M119 625q0 66 88 65h565v563q0 27 4 41q14 47 59.5 47t59.5 -47q4 -14 4 -41v-563h557q94 0 94 -65q0 -45 -45 -60q-6 -2 -41 -2h-565v-565q0 -88 -63 -88q-45 0 -60 47q-4 14 -4 41v565h-565q-35 0 -41 2q-47 15 -47 60z" />
<glyph unicode="," horiz-adv-x="595" d="M178 -221q0 27 31 53q78 63 90 168q-45 4 -70.5 28.5t-28.5 42t-3 31.5q0 43 28.5 73t73.5 30q53 0 90 -46t37 -139q0 -121 -68.5 -213t-113.5 -92q-25 0 -45.5 20.5t-20.5 43.5z" />
<glyph unicode="-" horiz-adv-x="716" d="M23 442q0 61 73 62h428q70 0 70 -64q0 -61 -72 -61h-428q-71 0 -71 63z" />
<glyph unicode="." horiz-adv-x="598" d="M195 102q0 45 30.5 74t71.5 29q45 0 73.5 -31t28.5 -72q0 -39 -29.5 -70.5t-72.5 -31.5q-45 0 -73.5 30.5t-28.5 71.5z" />
<glyph unicode="/" horiz-adv-x="1075" d="M119 -109q0 18 18 56l690 1423q29 51 64 51q25 0 43 -17.5t18 -43.5q0 -16 -14 -49l-690 -1428q-29 -53 -66 -53q-25 0 -44 17t-19 44z" />
<glyph unicode="0" horiz-adv-x="1075" d="M102 627q0 47 1 79.5t9.5 105.5t24 127t47 120.5t76.5 110.5t115.5 74t161.5 30q434 0 434 -649q0 -47 -1 -80t-9.5 -105.5t-23.5 -127t-47 -121t-77 -110.5t-115.5 -74t-160.5 -30q-435 1 -435 650zM244 645q0 -543 292.5 -543t292.5 543q0 504 -292.5 504t-292.5 -504z " />
<glyph unicode="1" horiz-adv-x="1075" d="M215 1085q0 59 59 64q168 8 244 90q29 35 57 35q61 0 62 -84v-1065h186q25 0 38 -2t28.5 -17.5t15.5 -44.5q0 -61 -82 -61h-514q-82 0 -82 61q0 29 15.5 44.5t29 17.5t37.5 2h187v948q-92 -49 -209 -49q-72 0 -72 61z" />
<glyph unicode="2" horiz-adv-x="1075" d="M106 63q0 29 31 56l453 381q236 197 235 374q0 129 -95 202t-230 73q-84 0 -150.5 -43t-89.5 -115q29 -23 29 -65q0 -41 -28 -66.5t-62 -25.5q-33 0 -63 23.5t-30 74.5q0 135 114 238.5t290 103.5q193 0 325 -109.5t132 -290.5q0 -211 -224 -409q-49 -45 -202.5 -172 t-202.5 -168h487q0 37 2 52.5t18.5 29.5t51.5 14q47 0 58.5 -21.5t11.5 -62.5v-53q0 -49 -16.5 -66.5t-65.5 -17.5h-695q-84 0 -84 63z" />
<glyph unicode="3" horiz-adv-x="1075" d="M90 279q0 47 26.5 71.5t65.5 24.5t64.5 -26.5t25.5 -63.5q0 -39 -24 -64q35 -63 123 -91t170 -28q133 0 217 77t84 177q0 98 -83 177t-224 79h-95q-25 0 -38 2t-28.5 17.5t-15.5 44.5q0 41 26 51t122 16q123 6 190 62q86 70 86 178q0 70 -68.5 118t-172.5 48 q-164 0 -228 -64q18 -18 19 -55q0 -41 -28 -66.5t-62.5 -25.5t-63 24.5t-28.5 71.5q0 109 103 174.5t286 65.5q170 0 277.5 -85t107.5 -204q0 -86 -44 -167t-128 -134q104 -47 167.5 -134t63.5 -194q0 -150 -124 -264.5t-318 -114.5q-193 0 -322 83.5t-129 218.5z" />
<glyph unicode="4" horiz-adv-x="1075" d="M59 428q0 45 19 72l467 733q18 31 32.5 37t53.5 6h57q51 0 67.5 -16.5t16.5 -67.5v-721h160q25 0 38 -2t28.5 -17.5t15.5 -43.5q0 -61 -82 -62h-160v-221h127q25 0 38 -2t28.5 -17.5t15.5 -44.5q0 -61 -82 -61h-369q-82 0 -81 61q0 29 15 44.5t28.5 17.5t37.5 2h127v221 h-516q-49 0 -65.5 16.5t-16.5 65.5zM203 471h454v715z" />
<glyph unicode="5" horiz-adv-x="1075" d="M106 291q0 53 30 75.5t63 22.5q35 0 62.5 -24.5t27.5 -67.5q0 -39 -27 -66q66 -129 246 -129q131 0 224 83t93 204q0 109 -70.5 196t-189.5 87q-172 0 -258 -103q-25 -31 -61 -30q-31 0 -46.5 15t-17.5 28.5t-2 40.5v544q0 49 16.5 66.5t65.5 17.5h551q25 0 38 -2 t28.5 -17t15.5 -44q0 -61 -82 -62h-491v-389q111 59 245 60q174 0 287 -123t113 -285q0 -170 -133.5 -291t-325.5 -121q-170 0 -286 92.5t-116 221.5z" />
<glyph unicode="6" horiz-adv-x="1075" d="M109 612q0 297 164.5 479.5t383.5 182.5q137 0 205 -62.5t68 -148.5q0 -45 -26.5 -70.5t-65.5 -25.5t-64.5 26.5t-25.5 63.5q0 39 20 59q-33 33 -113 33q-143 0 -262 -125t-139 -332q131 119 305 119q170 0 288 -121t118 -295q0 -180 -126 -299t-298 -119q-82 0 -155 33 t-137.5 101.5t-102 197.5t-37.5 303zM270 455q0 -20 6 -64l-2 -18l2 -8q2 -6 5.5 -18.5t5.5 -18.5q74 -225 254 -226q115 0 198.5 82t83.5 211q0 119 -76.5 204t-197.5 85q-117 0 -198 -66.5t-81 -162.5z" />
<glyph unicode="7" horiz-adv-x="1075" d="M90 1114v86q0 27 2 41t18.5 28.5t49.5 14.5q53 0 65 -33h676q25 0 38 -2t28.5 -17t15.5 -44q0 -20 -7 -30.5t-38 -39.5q-47 -47 -94 -101t-113.5 -155.5t-116 -212t-86 -267.5t-39.5 -323q0 -41 -20 -61.5t-49 -20.5q-72 0 -72 97q0 98 17.5 209.5t60.5 256t132 299 t214 287.5h-541q0 -37 -2 -52t-18 -29.5t-51 -14.5q-47 0 -58.5 21.5t-11.5 62.5z" />
<glyph unicode="8" horiz-adv-x="1075" d="M90 356q0 111 82 197t203 121q-121 39 -188.5 111.5t-67.5 160.5q0 129 119.5 228.5t298 99.5t298 -98.5t119.5 -229.5q0 -88 -66.5 -159.5t-189.5 -112.5q121 -35 203 -121t82 -197q0 -152 -128 -265.5t-318 -113.5q-188 0 -317.5 113.5t-129.5 265.5zM231 358 q0 -106 89.5 -181t216.5 -75t216 75t89 181q0 100 -85 177t-220 77q-133 0 -219.5 -78t-86.5 -176zM260 944q0 -86 82 -146.5t194.5 -60.5t194.5 60.5t82 146.5q0 82 -80 143.5t-196 61.5q-119 0 -198 -61.5t-79 -143.5z" />
<glyph unicode="9" horiz-adv-x="1075" d="M109 856q0 180 129 299t305 119q78 0 148.5 -31t134 -99.5t101.5 -198.5t38 -306q0 -293 -156 -477.5t-367 -184.5q-92 0 -156.5 23t-92 59.5t-39 67.5t-11.5 61q0 45 27 71t65.5 26t64.5 -27t26 -63q0 -35 -19 -58q45 -35 135 -35q145 0 253 132.5t124 324.5 q-131 -119 -305 -119q-170 0 -287.5 121t-117.5 295zM250 856q0 -119 76.5 -204t197.5 -85q123 0 202 70t79 160q0 10 -4 33.5t-4 27.5q0 6 1 11t1 8q0 8 -8.5 36.5t-27 72.5t-42.5 75q-70 88 -178 88q-117 0 -205 -82t-88 -211z" />
<glyph unicode=":" horiz-adv-x="595" d="M197 102q0 43 29.5 73t72.5 30t72.5 -30t29.5 -73t-29.5 -72.5t-72.5 -29.5t-72.5 29.5t-29.5 72.5zM197 780q0 43 29.5 73t72.5 30t72.5 -30t29.5 -73t-29.5 -72.5t-72.5 -29.5t-72.5 29.5t-29.5 72.5z" />
<glyph unicode=";" horiz-adv-x="598" d="M178 -221q0 27 31 53q78 63 90 168q-45 4 -70.5 28.5t-28.5 42t-3 31.5q0 43 28.5 73t73.5 30q53 0 90 -46t37 -139q0 -121 -68.5 -213t-113.5 -92q-25 0 -45.5 20.5t-20.5 43.5zM195 778q0 39 29.5 71t72.5 32q45 0 73.5 -31t28.5 -72t-28.5 -71.5t-71.5 -30.5 q-45 0 -74.5 30.5t-29.5 71.5z" />
<glyph unicode="&#x3c;" horiz-adv-x="1671" d="M178 627q0 43 72 69l1139 424q25 8 41 8q25 0 43 -17t18 -44q0 -47 -74 -72l-995 -370q41 -12 61 -21l934 -348l8 -2q6 -2 11.5 -4t13.5 -6t15.5 -10.5t13.5 -13.5t9 -16t3 -22q0 -20 -16.5 -39.5t-44.5 -19.5q-14 0 -39 8l-1141 424q-72 25 -72 72z" />
<glyph unicode="=" horiz-adv-x="1671" d="M119 471q0 20 16.5 42t52.5 22h1282q80 0 80 -63.5t-84 -63.5h-1265q-33 0 -52.5 13t-24.5 25.5t-5 24.5zM119 780q0 63 84 64h1263q84 0 84 -63.5t-75 -63.5h-1280q-43 0 -59.5 21.5t-16.5 41.5z" />
<glyph unicode="&#x3e;" horiz-adv-x="1671" d="M178 1067q0 29 20.5 45t43.5 16q14 0 39 -8l1138 -424q72 -25 72 -69q0 -47 -70 -72l-1140 -424q-25 -8 -39 -8q-25 0 -43.5 18.5t-18.5 42.5q0 23 12.5 37.5t22.5 19.5t37 15l995 371q-20 6 -61 22l-934 346q-25 8 -36 14.5t-24.5 22t-13.5 35.5z" />
<glyph unicode="?" horiz-adv-x="1013" d="M119 1014q0 102 95 176t273 74q121 0 206 -26t126 -68t58.5 -80.5t17.5 -79.5q0 -123 -123 -195q-98 -59 -155.5 -133t-57.5 -188v-35q0 -51 -17.5 -66.5t-64.5 -15.5q-57 0 -69.5 20.5t-12.5 85.5q0 55 7.5 95t34 99.5t90 120t163.5 120.5q63 43 64 92q0 55 -66.5 92 t-200.5 37q-147 0 -206 -72q20 -25 20 -57q0 -41 -27.5 -66.5t-62.5 -25.5q-37 0 -64.5 25.5t-27.5 70.5zM375 102q0 43 29.5 73t72.5 30t73 -30t30 -73t-30 -72.5t-73 -29.5t-72.5 29.5t-29.5 72.5z" />
<glyph unicode="@" horiz-adv-x="1433" d="M119 627q0 262 209 449.5t503 187.5q481 0 482 -617q0 -209 -121 -319.5t-266 -110.5q-158 0 -271.5 119t-113.5 291q0 168 112.5 287.5t274.5 119.5q115 0 213 -67q-41 86 -111 125q-80 47 -199 47q-246 0 -422 -150.5t-176 -363.5q0 -207 175.5 -359.5t425.5 -152.5 q178 0 333 88q33 20 68 20q78 0 78 -57q0 -25 -13.5 -37t-44.5 -29q-195 -111 -419 -110q-301 0 -509 188.5t-208 450.5zM655 625q0 -115 79 -199t194 -84q109 0 189.5 83t80.5 202q0 115 -79 198.5t-193 83.5q-109 0 -190 -82.5t-81 -201.5z" />
<glyph unicode="A" d="M84 63q0 61 82 62h94l387 1083q12 31 32.5 47.5t35 18.5t41.5 2h39q29 0 43 -2t33.5 -18.5t31.5 -49.5l387 -1081h94q25 0 38.5 -2t28.5 -17.5t15 -44.5q0 -61 -82 -61h-325q-84 0 -84 63q0 61 84 62h82l-82 227h-567l-82 -227h82q83 0 83 -62.5t-83 -62.5h-326 q-25 0 -38 2t-28.5 17t-15.5 44zM537 477h477l-240 668z" />
<glyph unicode="B" horiz-adv-x="1492" d="M94 61q0 29 15.5 44.5t29 17.5t37.5 2h111v1001h-111q-82 0 -82 62q0 29 15.5 44t29 17t37.5 2h662q201 0 338 -95t137 -222q0 -102 -91.5 -175t-213.5 -104q170 -31 267 -117.5t97 -195.5q0 -137 -137 -239.5t-340 -102.5h-719q-82 0 -82 61zM428 125h410 q162 0 277.5 63.5t115.5 157.5q0 96 -105.5 169t-255.5 73h-442v-463zM428 713h340q176 0 289.5 65.5t113.5 153.5q0 78 -97 136t-240 58h-406v-413z" />
<glyph unicode="C" d="M119 627q0 262 206.5 454.5t510.5 192.5q272 0 434 -127q27 57 37 76q12 29 24 40t39 11q61 0 62 -84v-285q0 -27 -2.5 -41t-19.5 -28.5t-50 -14.5q-57 0 -68 47q-10 43 -19 68t-44 68t-92 75q-119 70 -287 70q-250 0 -420 -155.5t-170 -366.5q0 -213 170 -369t424 -156 q176 0 291 58q47 23 77.5 49.5t44 55t17.5 45t6 42.5q4 59 70 60q72 0 72 -68q0 -160 -161 -263.5t-431 -103.5q-309 0 -515 193t-206 457z" />
<glyph unicode="D" horiz-adv-x="1611" d="M94 61q0 29 15.5 44.5t29 17.5t37.5 2h111v1001h-111q-82 0 -82 62q0 29 15.5 44t29 17t37.5 2h660q270 0 462.5 -187t192.5 -450q0 -252 -191.5 -433t-463.5 -181h-660q-82 0 -82 61zM428 125h371q231 0 391 144.5t160 346.5q0 205 -159 357.5t-394 152.5h-369v-1001z " />
<glyph unicode="E" horiz-adv-x="1433" d="M94 61q0 29 15.5 44.5t29 17.5t37.5 2h111v1001h-111q-82 0 -82 62q0 29 15.5 44t29 17t37.5 2h1055q51 0 66.5 -17t15.5 -67v-149q0 -27 -2 -41t-19.5 -28.5t-50.5 -14.5q-47 0 -58.5 21.5t-11.5 62.5v108h-743v-415h408q0 51 3 70.5t18 32.5t50 13q47 0 58.5 -21.5 t11.5 -62.5v-190q0 -27 -2 -41t-18.5 -28.5t-49.5 -14.5q-49 0 -60 22.5t-11 94.5h-408v-461h803v141q0 27 2 41.5t19.5 28.5t50.5 14q47 0 58 -21.5t11 -62.5v-182q0 -49 -16.5 -66.5t-65.5 -17.5h-1114q-82 0 -82 61z" />
<glyph unicode="F" horiz-adv-x="1372" d="M94 61q0 29 15.5 44.5t29 17.5t37.5 2h111v1001h-111q-82 0 -82 62q0 29 15.5 44t29 17t37.5 2h1024q51 0 66.5 -17t15.5 -67v-149q0 -27 -2 -41t-19.5 -28.5t-50.5 -14.5q-47 0 -58 21.5t-11 62.5v108h-713v-438h395q0 51 3 70.5t18.5 33t50.5 13.5q47 0 58.5 -21.5 t11.5 -62.5v-191q0 -27 -2 -41t-18.5 -28.5t-49.5 -14.5q-49 0 -60.5 23t-11.5 94h-395v-438h160q25 0 38 -2t28.5 -17.5t15.5 -44.5q0 -61 -82 -61h-412q-82 0 -82 61z" />
<glyph unicode="G" horiz-adv-x="1671" d="M119 627q0 262 206.5 454.5t510.5 192.5q272 0 434 -127q27 57 37 76q12 29 24 40t39 11q61 0 62 -84v-285q0 -27 -2.5 -41t-19.5 -28.5t-50 -14.5q-57 0 -68 47q-10 43 -19 68t-44 68t-92 75q-119 70 -287 70q-248 0 -419 -154.5t-171 -369.5t171 -369t411 -154 q166 0 289.5 91.5t152.5 234.5h-180q-25 0 -38 2t-28.5 17.5t-15.5 44.5q0 61 82 61h393q84 0 84 -64q0 -61 -84 -61h-65v-344q0 -27 -2.5 -41t-18.5 -28.5t-49 -14.5t-50.5 14.5t-19.5 28.5t-2 41v74q-180 -180 -459 -181q-295 0 -503.5 191t-208.5 459z" />
<glyph unicode="H" d="M94 61q0 29 15.5 44.5t29 17.5t37.5 2h111v1001h-111q-82 0 -82 62q0 29 15.5 44t29 17t37.5 2h363q25 0 38 -2t28.5 -17t15.5 -44q0 -61 -82 -62h-111v-413h694v413h-110q-82 0 -82 62q0 29 15.5 44t28.5 17t38 2h362q25 0 38 -2t28.5 -17t15.5 -44q0 -61 -82 -62h-110 v-1001h110q25 0 38 -2t28.5 -17.5t15.5 -44.5q0 -61 -82 -61h-362q-82 0 -82 61q0 29 15.5 44.5t28.5 17.5t38 2h110v463h-694v-463h111q25 0 38 -2t28.5 -17.5t15.5 -44.5q0 -61 -82 -61h-363q-82 0 -82 61z" />
<glyph unicode="I" horiz-adv-x="716" d="M84 61q0 29 15.5 44.5t28.5 17.5t38 2h121v1001h-121q-82 0 -82 62q0 29 15.5 44t28.5 17t38 2h383q25 0 38 -2t28.5 -17t15.5 -44q0 -61 -82 -62h-121v-1001h121q25 0 38 -2t28.5 -17.5t15.5 -44.5q0 -61 -82 -61h-383q-82 0 -82 61z" />
<glyph unicode="J" horiz-adv-x="1075" d="M145 203q0 47 27 71.5t65.5 24.5t64.5 -26.5t26 -63.5q0 -33 -17 -53q59 -53 174 -54q25 0 50.5 5.5t65.5 20.5t65.5 56t25.5 103v839h-168q-84 0 -84 64q0 61 84 61h371q84 0 84 -61q0 -63 -84 -64h-61v-852q0 -135 -102.5 -216t-246.5 -81q-152 0 -246 64t-94 162z" />
<glyph unicode="K" horiz-adv-x="1611" d="M109 61q0 29 15 44.5t28.5 17.5t37.5 2h111v1001h-111q-81 0 -81 61q0 30 15 45t28.5 17t37.5 2h336q25 0 38.5 -2t28.5 -17t15 -44q0 -61 -82 -62h-110v-589l725 589q-45 0 -63.5 2t-34 16.5t-15.5 45.5q0 61 82 61h297q84 0 84 -63q0 -61 -84 -62h-82l-487 -395 l526 -606h74q84 0 84 -64q0 -61 -84 -61h-258q-82 0 -82 61q0 31 15 45.5t34.5 16.5t64.5 2l-464 534l-332 -270v-264h110q25 0 38.5 -2t28.5 -17.5t15 -44.5q0 -61 -82 -61h-336q-81 0 -81 61z" />
<glyph unicode="L" horiz-adv-x="1312" d="M94 61q0 29 15.5 44.5t29 17.5t37.5 2h111v1001h-111q-82 0 -82 62q0 29 15.5 44t29 17t37.5 2h412q25 0 38 -2t28.5 -17t15.5 -44q0 -61 -82 -62h-160v-1001h653v141q0 29 2 43.5t19.5 27.5t50.5 13q47 0 58.5 -21.5t11.5 -62.5v-182q0 -49 -16.5 -66.5t-65.5 -17.5 h-965q-82 0 -82 61z" />
<glyph unicode="M" horiz-adv-x="1910" d="M109 61q0 29 15 44.5t28.5 17.5t37.5 2h111v1001h-111q-81 0 -81 61q0 30 15 45t28.5 17t37.5 2h197q51 0 74.5 -15t44.5 -60l448 -1022l449 1026q14 33 36.5 50t38 19t44.5 2h196q25 0 38 -2t28.5 -17t15.5 -44q0 -61 -82 -62h-110v-1001h110q25 0 38 -2t28.5 -17.5 t15.5 -44.5q0 -61 -82 -61h-336q-25 0 -38 2t-28.5 17.5t-15.5 43.5q0 61 82 62h111v991h-2l-447 -1022q-33 -71 -88 -71h-2q-59 0 -90 75l-446 1018h-2v-991h110q25 0 38.5 -2t28.5 -17.5t15 -44.5q0 -61 -82 -61h-336q-81 0 -81 61z" />
<glyph unicode="N" d="M109 61q0 29 15 44.5t28.5 17.5t37.5 2h111v1001h-111q-81 0 -81 61q0 30 15 45t28.5 17t37.5 2h195q29 0 45 -2t41 -18.5t43 -48.5l619 -1078h2v1022h-111q-82 0 -82 62q0 29 15.5 44t28.5 17t38 2h336q25 0 38 -2t28.5 -17t15.5 -44q0 -61 -82 -62h-111v-1042 q0 -53 -16 -68.5t-68 -15.5q-29 0 -45 2t-40.5 18.5t-43.5 49.5l-618 1077h-2v-1022h110q25 0 38.5 -2t28.5 -17.5t15 -44.5q0 -61 -82 -61h-336q-81 0 -81 61z" />
<glyph unicode="O" horiz-adv-x="1671" d="M119 627q0 262 208 454.5t509 192.5q299 0 507.5 -190.5t208.5 -458.5q0 -262 -207.5 -455t-508.5 -193q-299 0 -508 191t-209 459zM260 649q0 -223 168 -385t407.5 -162t407.5 162t168 385q0 205 -168 352.5t-407.5 147.5t-407.5 -147.5t-168 -352.5z" />
<glyph unicode="P" horiz-adv-x="1433" d="M94 61q0 29 15.5 44.5t29 17.5t37.5 2h111v1001h-111q-82 0 -82 62q0 29 15.5 44t29 17t37.5 2h631q215 0 360.5 -111.5t145.5 -263t-145.5 -263t-360.5 -111.5h-379v-377h111q25 0 38 -2t28.5 -17.5t15.5 -44.5q0 -61 -82 -61h-363q-82 0 -82 61zM428 627h344 q166 0 282.5 74.5t116.5 175.5q0 102 -115.5 175.5t-283.5 73.5h-344v-499z" />
<glyph unicode="Q" horiz-adv-x="1671" d="M119 627q0 262 208 454.5t509 192.5q299 0 507.5 -190.5t208.5 -458.5q0 -43 -6 -87t-28.5 -111t-60.5 -126t-108.5 -125.5t-164.5 -118.5l221 -243q45 -49 45 -64q0 -35 -64 -35q-37 0 -54 6.5t-40 30.5l-202 223l-31 33q-6 0 -15 -4q-106 -27 -208 -27q-299 0 -508 191 t-209 459zM260 625q0 -213 167 -368t409 -155q68 0 129 13l-166 190q0 23 8 32t19.5 11t37.5 2q35 0 44.5 -3t27.5 -19q8 -8 25.5 -28.5t52.5 -58.5t78 -83q143 63 231 190t88 279q0 213 -167 367.5t-408 154.5q-240 0 -408 -153.5t-168 -370.5z" />
<glyph unicode="R" d="M94 61q0 29 15.5 44.5t29 17.5t37.5 2h111v1001h-111q-82 0 -82 62q0 29 15.5 44t29 17t37.5 2h549q225 0 391 -100t166 -244q0 -84 -62.5 -157.5t-172.5 -120.5q76 -37 114 -94q29 -43 35 -78t6 -127q0 -49 1 -73t6 -59.5t16.5 -52t33 -30t54.5 -13.5q35 0 60.5 24 t29.5 69q6 61 70 61q72 0 71 -63q0 -80 -64.5 -148t-166.5 -68q-131 0 -199 93q-37 51 -45 98t-8 154q0 98 -11.5 129.5t-70.5 64.5q-94 47 -258 47h-293v-438h111q25 0 38 -2t28.5 -17.5t15.5 -44.5q0 -61 -82 -61h-363q-82 0 -82 61zM428 688h279q170 0 302 62.5 t132 156.5t-132 156.5t-302 62.5h-279v-438z" />
<glyph unicode="S" horiz-adv-x="1193" d="M119 61v271q0 27 2 41t19.5 28.5t49.5 14.5q31 0 47.5 -12.5t18.5 -23.5t4 -32q8 -125 113 -188q100 -57 274 -58q133 0 213 70t80 160q0 39 -16.5 75.5t-31.5 53t-18 16.5q-47 41 -84.5 54.5t-140.5 35.5l-88 19q-113 25 -158 36t-94 33.5t-90 61.5q-100 96 -100 221 q0 135 118.5 235.5t303.5 100.5q209 0 331 -105q25 72 36.5 88.5t43.5 16.5q61 0 62 -84v-270q0 -27 -2 -41.5t-19.5 -28.5t-50.5 -14q-29 0 -44 10t-19.5 21.5t-8.5 33.5q-47 248 -331 248q-125 0 -206 -61.5t-81 -141.5q0 -82 67.5 -131t135.5 -63l303 -64 q137 -29 226 -127t89 -221q0 -143 -116.5 -253t-311.5 -110q-250 0 -385 99q-16 -47 -23.5 -62.5t-20.5 -26t-36 -10.5q-61 0 -61 84z" />
<glyph unicode="T" d="M78 1018v149q0 51 16.5 67.5t67.5 16.5h1229q51 0 66.5 -17t15.5 -67v-149q0 -27 -2.5 -41t-19.5 -28.5t-50 -14.5q-47 0 -58.5 21.5t-11.5 62.5v108h-485v-1001h190q84 0 84 -64q0 -61 -84 -61h-522q-84 0 -84 63q0 61 84 62h191v1001h-486v-108q0 -27 -2 -41 t-19.5 -28.5t-50.5 -14.5q-47 0 -58 21.5t-11 62.5z" />
<glyph unicode="U" d="M94 1188q0 29 15.5 44t29 17t37.5 2h363q25 0 38 -2t28.5 -17t15.5 -44q0 -61 -82 -62h-111v-692q0 -160 107.5 -246t240.5 -86q129 0 237.5 86t108.5 246v692h-110q-82 0 -82 62q0 29 15.5 44t28.5 17t38 2h362q25 0 38 -2t28.5 -17t15.5 -44q0 -61 -82 -62h-110v-704 q0 -188 -143.5 -316.5t-346.5 -128.5q-199 0 -343 127t-144 318v704h-111q-82 1 -82 62z" />
<glyph unicode="V" d="M57 1190q0 61 82 61h316q84 0 84 -63q0 -61 -84 -62h-80l401 -1022l400 1022h-80q-84 0 -84 62q0 63 84 63h315q25 0 38 -2t28.5 -17t15.5 -44q0 -61 -82 -62h-84l-420 -1071q-12 -33 -30.5 -49t-35 -19t-46.5 -3h-39q-55 0 -76 15t-37 58l-420 1069h-84q-25 0 -38 2 t-28.5 17.5t-15.5 44.5z" />
<glyph unicode="W" horiz-adv-x="2150" d="M49 1190q0 61 84 61h277q84 0 84 -63q0 -61 -84 -62h-86l311 -1038l330 1094q14 47 36.5 58t73.5 11q31 0 46.5 -2t35 -18.5t29.5 -48.5l327 -1094l312 1038h-86q-84 0 -84 62q0 63 84 63h276q84 0 84 -63q0 -61 -84 -62h-69l-322 -1073q-14 -47 -39.5 -58t-71.5 -11 q-55 0 -75.5 14t-34.5 63l-330 1090l-328 -1092q-16 -51 -38.5 -63t-71.5 -12q-80 0 -103 45l-329 1097h-70q-84 1 -84 64z" />
<glyph unicode="X" d="M86 61q0 63 84 64h100l410 539l-375 462h-100q-84 0 -84 64q0 61 84 61h319q84 0 84 -63q0 -61 -84 -62h-39l275 -344l256 344h-45q-84 0 -84 64q0 61 84 61h319q84 0 84 -63q0 -61 -84 -62h-100l-350 -462l434 -539h102q84 0 84 -64q0 -61 -84 -61h-321q-82 0 -82 61 q0 29 15.5 44.5t28.5 17.5t38 2h43l-338 434l-318 -434h47q84 0 84 -64q0 -61 -84 -61h-319q-84 0 -84 61z" />
<glyph unicode="Y" d="M61 1190q0 61 84 61h320q84 0 84 -63q0 -61 -84 -62h-47l356 -483l359 483h-48q-84 0 -84 64q0 61 84 61h320q84 0 84 -63q0 -61 -84 -62h-98l-461 -626v-375h110q25 0 38.5 -2t28.5 -17.5t15 -44.5q0 -61 -82 -61h-362q-82 0 -82 61q0 29 15.5 44.5t28.5 17.5t38 2h111 v375l-461 626h-99q-84 1 -84 64z" />
<glyph unicode="Z" horiz-adv-x="1312" d="M119 70q0 37 24 63l852 993h-704v-108q0 -27 -2 -41t-19.5 -28.5t-50.5 -14.5q-47 0 -58 21.5t-11 62.5v149q0 51 16 67.5t67 16.5h877q27 0 41 -2t28.5 -18.5t14.5 -48.5q0 -37 -25 -64l-852 -993h748v147q0 27 2 41.5t19.5 28.5t50.5 14q47 0 58 -21.5t11 -62.5v-188 q0 -49 -16 -66.5t-66 -17.5h-921q-27 0 -41.5 2t-28.5 18.5t-14 49.5z" />
<glyph unicode="[" horiz-adv-x="608" d="M225 -92v1440q0 74 74 73h186q76 0 76 -63.5t-74 -63.5h-118v-1339h120q72 0 72 -61q0 -63 -76 -64h-184q-76 0 -76 78z" />
<glyph unicode="\" horiz-adv-x="1075" d="M119 1358q0 27 20.5 45t42.5 18q8 0 15.5 -2t12.5 -4t10 -7l8 -8t7.5 -11.5t6.5 -10.5t6 -10t4 -10l682 -1407q18 -37 18 -60q0 -27 -18.5 -44t-42.5 -17q-43 0 -74 68l-680 1409q-18 43 -18 51z" />
<glyph unicode="]" horiz-adv-x="608" d="M45 -109q0 63 72 64h121v1339h-121q-72 0 -72 63.5t76 63.5h178q51 0 66.5 -17.5t15.5 -60.5v-1439q0 -74 -74 -74h-186q-76 0 -76 61z" />
<glyph unicode="^" horiz-adv-x="1314" d="M205 946q0 39 65 66q373 145 385 145h2q12 0 383 -145q66 -23 66 -64q0 -20 -16.5 -52t-51.5 -32h-2q-18 0 -193 76t-188 76q-6 0 -183 -76t-200 -76q-35 0 -51 31t-16 51z" />
<glyph unicode="_" horiz-adv-x="1671" d="M178 -123q0 14 4 27.5t25.5 29t56.5 15.5h1143q35 0 55.5 -15.5t24.5 -30t4 -26.5q0 -25 -18.5 -48.5t-61.5 -23.5h-1143q-90 0 -90 72z" />
<glyph unicode="`" horiz-adv-x="1075" d="M221 1237q0 31 21.5 51.5t48.5 20.5h4q12 0 305 -127q57 -27 57 -64q0 -27 -19.5 -54.5t-47.5 -27.5h-2q-10 0 -303 127q-20 10 -28.5 15.5t-22 22t-13.5 36.5z" />
<glyph unicode="a" horiz-adv-x="1044" d="M109 262q0 139 158.5 220t437.5 85q0 104 -68 156.5t-184 52.5q-51 0 -76 -2t-30 -6t-5 -16q-2 -49 -29.5 -72t-60.5 -23q-39 0 -65.5 25t-26.5 70q0 149 287 149h4q197 0 296 -95t99 -222v-443q37 -16 115 -16q81 0 81 -61q0 -32 -15 -46t-32.5 -16t-52.5 -2 q-170 0 -215 66q-113 -78 -291 -78q-143 0 -235 80.5t-92 193.5zM250 262q0 -61 56 -105t147 -44q100 0 172 32q37 16 55 41t21.5 41.5t3.5 46.5v172q-227 -8 -341 -59t-114 -125z" />
<glyph unicode="b" horiz-adv-x="1193" d="M35 1188q0 29 15.5 44t28.5 17t38 2h170q51 0 66.5 -17t15.5 -67v-383q127 111 297 111q182 0 309 -133t127 -320q0 -190 -136.5 -322t-322.5 -132q-162 0 -274 121q0 -33 -1 -48.5t-7.5 -32t-21.5 -22.5t-40 -6q-33 0 -50.5 14.5t-19.5 28.5t-2 41v1042h-110 q-82 1 -82 62zM369 399q0 -98 73.5 -192t192.5 -94q131 0 228.5 95t97.5 234q0 133 -88.5 230.5t-219.5 97.5q-111 0 -197.5 -69.5t-86.5 -163.5v-138z" />
<glyph unicode="c" horiz-adv-x="954" d="M90 442q0 74 25.5 149t79 147.5t149.5 117.5t221 45q305 0 305 -149q0 -43 -26.5 -69t-65.5 -26q-88 0 -90 101q0 18 -123 18q-96 0 -166.5 -37t-104.5 -94t-48.5 -107.5t-14.5 -95.5q0 -139 95.5 -234t226.5 -95q145 0 203 123q10 29 24.5 37t42.5 8q72 0 72 -58 q0 -18 -16.5 -52t-52 -78t-111.5 -74.5t-174 -30.5q-190 0 -320.5 134t-130.5 320z" />
<glyph unicode="d" horiz-adv-x="1193" d="M90 440q0 190 134 322.5t325 132.5q156 0 274 -104v335h-110q-25 0 -38 2t-28.5 17.5t-15.5 44.5q0 61 82 61h170q51 0 66.5 -17t15.5 -67v-1042h110q25 0 38 -2t28.5 -17.5t15.5 -44.5q0 -61 -82 -61h-170q-51 0 -66.5 17.5t-15.5 66.5v35q-121 -131 -297 -131 q-178 0 -307 132t-129 320zM231 440q0 -135 89.5 -231t216.5 -96q123 0 204.5 94t81.5 196v136q0 92 -78.5 161.5t-185.5 69.5q-133 0 -230.5 -96.5t-97.5 -233.5z" />
<glyph unicode="e" horiz-adv-x="954" d="M78 446q0 186 125 320.5t305 134.5q182 0 284.5 -122t102.5 -312q0 -27 -6 -43t-19.5 -23.5t-24.5 -8.5t-32 -1h-590q20 -123 114.5 -200.5t213.5 -77.5q154 0 205 123q10 29 24.5 37t42.5 8q72 0 72 -58q0 -63 -93 -149t-263 -86q-193 0 -327 134t-134 324zM225 514h525 q-10 143 -80 202.5t-162 59.5q-102 0 -182.5 -73.5t-100.5 -188.5z" />
<glyph unicode="f" horiz-adv-x="655" d="M35 61q0 29 15.5 44.5t28.5 17.5t38 2h110v633h-88q-82 0 -82 61q0 63 84 64h86v108q0 127 94.5 200t225.5 73q194 0 194 -122q0 -42 -27.5 -66.5t-60 -24.5t-54 21.5t-29 39.5t-7.5 27q-35 0 -57.5 -3t-59 -16.5t-57 -49.5t-20.5 -91v-96h166q25 0 38 -2t28 -17.5 t15 -44.5q0 -61 -81 -61h-166v-633h159q25 0 38.5 -2t28.5 -17.5t15 -44.5q0 -61 -82 -61h-411q-82 0 -82 61z" />
<glyph unicode="g" horiz-adv-x="1075" d="M59 -168q0 162 152 254q-47 63 -47 147q0 80 41 140q-66 84 -66 194q0 133 98.5 230.5t239.5 97.5q109 0 199 -61q95 71 214 71h3q76 0 112.5 -33.5t36.5 -76.5q0 -41 -25.5 -62.5t-55.5 -21.5q-23 0 -47.5 16t-32.5 53q-68 -6 -119 -35q53 -88 53 -178 q0 -137 -98.5 -233t-239.5 -96q-109 0 -184 51q-12 -31 -12 -58q0 -43 24 -73q25 -29 68 -29q16 -4 59 -4h143q186 0 297 -59q72 -39 107 -103.5t35 -130.5q0 -129 -139.5 -215t-338 -86t-338 85t-139.5 216zM178 -168q0 -70 104.5 -124t254 -54t254 54t104.5 124 q0 61 -35 100t-108.5 54.5t-125 18.5t-145.5 3q-117 0 -149.5 -4t-69.5 -29q-84 -53 -84 -143zM281 565q0 -82 57 -143.5t139 -61.5q80 0 138.5 60.5t58.5 146.5q0 82 -57.5 143.5t-139.5 61.5q-80 0 -138 -60.5t-58 -146.5z" />
<glyph unicode="h" horiz-adv-x="1193" d="M35 61q0 29 15.5 44.5t28.5 17.5t38 2h110v1001h-110q-82 0 -82 62q0 29 15.5 44t28.5 17t38 2h170q51 0 66.5 -17t15.5 -67v-389q127 117 301 117q295 0 295 -299v-471h110q25 0 38 -2t28.5 -17.5t15.5 -44.5q0 -61 -82 -61h-362q-25 0 -38 2t-28.5 17.5t-15.5 43.5 q0 61 82 62h110v459q0 96 -32.5 141t-133.5 45q-63 0 -125.5 -24.5t-112.5 -92t-50 -168.5v-360h110q25 0 38 -2t28.5 -17.5t15.5 -44.5q0 -61 -82 -61h-362q-82 0 -82 61z" />
<glyph unicode="i" horiz-adv-x="595" d="M35 61q0 29 15.5 44.5t28.5 17.5t38 2h110v633h-100q-84 0 -84 63q0 61 84 62h160q51 0 66.5 -17.5t15.5 -66.5v-674h90q84 0 84 -64q0 -61 -82 -61h-344q-82 0 -82 61zM164 1151q0 43 29.5 72.5t72.5 29.5t73 -29.5t30 -72.5t-30 -72.5t-73 -29.5t-72.5 29.5t-29.5 72.5 z" />
<glyph unicode="j" horiz-adv-x="655" d="M-94 -311q0 43 27.5 68.5t64.5 25.5q90 0 90 -109q0 -6 2 -6q8 -10 62 -10q135 0 135 254v846h-129q-84 0 -84 63q0 61 84 62h188q51 0 66.5 -17.5t15.5 -66.5v-895q0 -84 -23.5 -163t-91 -143.5t-168.5 -64.5q-111 0 -175 42t-64 114zM223 1151q0 43 30 72.5t73 29.5 t72.5 -29.5t29.5 -72.5t-29.5 -72.5t-72.5 -29.5t-73 29.5t-30 72.5z" />
<glyph unicode="k" horiz-adv-x="1134" d="M49 61q0 29 15.5 44.5t28.5 17.5t38 2h111v1001h-111q-82 0 -82 62q0 29 15.5 44t28.5 17t38 2h143q51 0 66.5 -17t15.5 -67v-725l357 316h-82q-82 0 -82 61q0 29 15.5 44.5t28.5 17.5t38 2h336q84 0 84 -64q0 -61 -84 -61h-80l-266 -236l321 -397h72q84 0 84 -64 q0 -61 -84 -61h-258q-25 0 -38 2t-28.5 17.5t-15.5 43.5q0 61 82 62h39l-260 321l-179 -157v-164h111q25 0 38 -2t28.5 -17.5t15.5 -44.5q0 -61 -82 -61h-336q-82 0 -82 61z" />
<glyph unicode="l" horiz-adv-x="595" d="M35 61q0 29 15.5 44.5t28.5 17.5t38 2h110v1001h-110q-82 0 -82 62q0 29 15.5 44t28.5 17t38 2h170q51 0 66.5 -17t15.5 -67v-1042h110q25 0 38 -2t28.5 -17.5t15.5 -44.5q0 -61 -82 -61h-362q-82 0 -82 61z" />
<glyph unicode="m" horiz-adv-x="1792" d="M35 61q0 29 15.5 44.5t28.5 17.5t38 2h110v633h-110q-82 0 -82 61q0 29 15.5 44.5t28.5 17.5t38 2h170q57 0 69.5 -20.5t12.5 -84.5q129 117 301 117q203 0 268 -145q137 145 330 145q297 0 297 -299v-471h110q25 0 38 -2t28.5 -17.5t15.5 -44.5q0 -61 -82 -61h-362 q-82 0 -82 61q0 29 15.5 44.5t28.5 17.5t38 2h110v459q0 98 -33.5 142t-134.5 44q-104 0 -196 -69.5t-92 -215.5v-360h110q25 0 38 -2t28.5 -17.5t15.5 -44.5q0 -61 -82 -61h-362q-82 0 -82 61q0 29 15.5 44.5t28.5 17.5t38 2h110v459q0 98 -33.5 142t-134.5 44 q-104 0 -196 -69.5t-92 -215.5v-360h110q25 0 38 -2t28.5 -17.5t15.5 -44.5q0 -61 -82 -61h-362q-82 0 -82 61z" />
<glyph unicode="n" horiz-adv-x="1193" d="M35 61q0 29 15.5 44.5t28.5 17.5t38 2h110v633h-110q-82 0 -82 61q0 29 15.5 44.5t28.5 17.5t38 2h170q57 0 69.5 -20.5t12.5 -84.5q127 117 301 117q295 0 295 -299v-471h110q25 0 38 -2t28.5 -17.5t15.5 -44.5q0 -61 -82 -61h-362q-25 0 -38 2t-28.5 17.5t-15.5 43.5 q0 61 82 62h110v459q0 96 -32.5 141t-133.5 45q-63 0 -125.5 -24.5t-112.5 -92t-50 -168.5v-360h110q25 0 38 -2t28.5 -17.5t15.5 -44.5q0 -61 -82 -61h-362q-82 0 -82 61z" />
<glyph unicode="o" horiz-adv-x="1075" d="M78 442q0 188 134 323.5t324.5 135.5t324.5 -135t134 -324q0 -190 -134 -322t-324.5 -132t-324.5 132t-134 322zM219 457q0 -141 92 -242.5t226 -101.5q131 0 224 101t93 243q0 135 -94 227t-223 92t-223.5 -92t-94.5 -227z" />
<glyph unicode="p" horiz-adv-x="1193" d="M35 -393q0 29 15.5 44t28.5 17t38 2h110v1088h-110q-82 0 -82 61q0 29 15.5 44.5t28.5 17.5t38 2h170q57 0 69.5 -19.5t12.5 -79.5q127 111 297 111q182 0 309 -133t127 -320q0 -190 -136.5 -322t-322.5 -132q-162 0 -274 121v-439h110q25 0 38 -2t28.5 -17.5t15.5 -43.5 q0 -61 -82 -62h-362q-82 1 -82 62zM369 399q0 -98 73.5 -192t192.5 -94q131 0 228.5 95t97.5 234q0 133 -88.5 230.5t-219.5 97.5q-111 0 -197.5 -69.5t-86.5 -163.5v-138z" />
<glyph unicode="q" horiz-adv-x="1134" d="M90 440q0 190 136 322.5t323 132.5q154 0 274 -121v37q0 27 2 41t19.5 28.5t50.5 14.5q47 0 58.5 -21.5t11.5 -62.5v-1141h110q25 0 38 -2t28.5 -17.5t15.5 -43.5q0 -61 -82 -62h-362q-25 0 -38 2t-28.5 17.5t-15.5 44.5q0 61 82 61h110v447q-133 -129 -297 -129 q-178 0 -307 132t-129 320zM231 440q0 -135 89.5 -231t216.5 -96q123 0 204.5 93t81.5 193v76q0 111 -74.5 203t-191.5 92q-131 0 -228.5 -95.5t-97.5 -234.5z" />
<glyph unicode="r" horiz-adv-x="835" d="M35 61q0 29 15.5 44.5t28.5 17.5t38 2h110v633h-110q-82 0 -82 61q0 29 15.5 44.5t28.5 17.5t38 2h170q57 0 69.5 -20.5t12.5 -92.5q106 125 252 125q72 0 112.5 -40t40.5 -87q0 -39 -25.5 -63.5t-60.5 -24.5q-29 0 -56.5 19.5t-29.5 68.5q-76 -8 -130 -67.5 t-78.5 -140.5t-24.5 -175v-260h159q25 0 38.5 -2t28.5 -17.5t15 -44.5q0 -61 -82 -61h-411q-82 0 -82 61z" />
<glyph unicode="s" horiz-adv-x="847" d="M72 72v196q0 27 2 41.5t19.5 28.5t49.5 14q57 0 70 -51q12 -41 23.5 -67.5t35 -57.5t63.5 -47t95 -16q25 0 49.5 3t69.5 14t72.5 44t27.5 82q0 55 -46 90t-109 49q-35 0 -125 23q-297 55 -297 241q0 35 13 72t47 78t106.5 66.5t177.5 25.5q113 0 184 -41q14 41 59 41 q61 0 62 -84v-141q0 -27 -2 -41t-19.5 -28.5t-50.5 -14.5q-29 0 -45 11t-19 23.5t-5 30.5q-2 23 -7.5 37.5t-20.5 37t-51 33.5t-89 11q-109 0 -162 -32.5t-53 -84.5q0 -57 61 -81.5t207 -51.5q309 -57 309 -270q0 -104 -82 -186t-264 -82q-137 0 -223 69q-16 -69 -70 -69h-2 q-61 0 -61 84z" />
<glyph unicode="t" horiz-adv-x="835" d="M39 819q0 63 84 64h104v168q0 27 2 41t19.5 28.5t50.5 14.5q47 0 58.5 -21.5t11.5 -62.5v-168h227q25 0 38 -2t28.5 -17.5t15.5 -44.5q0 -61 -82 -61h-227v-494q0 -151 99 -151h1q43 0 73.5 37.5t30.5 107.5q0 25 2.5 38t18.5 27.5t49 14.5t50.5 -14.5t19.5 -27.5t2 -40 q0 -117 -75 -192.5t-179 -75.5q-90 0 -162 61.5t-72 202.5v506h-106q-82 0 -82 61z" />
<glyph unicode="u" horiz-adv-x="1193" d="M35 819q0 29 15.5 44.5t28.5 17.5t38 2h170q51 0 66.5 -17.5t15.5 -66.5v-551q0 -33 3 -49.5t19.5 -40t57 -34.5t106.5 -11q37 0 74 6t85 24.5t78.5 64.5t30.5 114v436h-110q-25 0 -38 2t-28.5 17.5t-15.5 43.5q0 61 82 62h170q51 0 66.5 -17.5t15.5 -66.5v-674h110 q25 0 38 -2t28.5 -17.5t15.5 -44.5q0 -61 -82 -61h-170q-27 0 -40 2t-27.5 19.5t-14.5 50.5q-109 -84 -280 -84q-315 0 -316 248v522h-110q-82 0 -82 61z" />
<glyph unicode="v" horiz-adv-x="1134" d="M53 819q0 29 15.5 44.5t29 17.5t37.5 2h287q84 0 84 -64q0 -61 -84 -61h-84l229 -672l228 672h-84q-84 0 -84 63q0 61 84 62h286q25 0 38.5 -2t28.5 -17.5t15 -44.5q0 -61 -82 -61h-82l-235 -697q-14 -47 -41 -58t-72 -11q-33 0 -48 2t-34.5 18.5t-31.5 50.5l-236 695 h-82q-82 0 -82 61z" />
<glyph unicode="w" d="M47 821q0 61 84 62h277q84 0 84 -64q0 -61 -84 -61h-91l179 -652l190 703q12 41 30.5 57.5t63.5 16.5q33 0 53.5 -12.5t26.5 -23.5t12 -36l189 -688l172 635h-90q-84 0 -84 63q0 61 84 62h276q84 0 84 -64q0 -61 -84 -61h-67l-191 -697q-12 -47 -35.5 -58t-70.5 -11 q-61 0 -80 18.5t-35 81.5q-57 209 -84 314l-78 331q-6 -61 -49 -234t-84 -318.5t-45 -153.5q-20 -39 -100 -39q-35 0 -51.5 3t-34 19.5t-27.5 51.5l-188 692h-68q-84 0 -84 63z" />
<glyph unicode="x" horiz-adv-x="1134" d="M57 61q0 63 84 64h103l258 332l-244 301h-102q-84 0 -84 63q0 61 84 62h286q25 0 38.5 -2t28.5 -17.5t15 -44.5q0 -61 -82 -61h-43l162 -205l154 205h-45q-84 0 -84 63q0 61 84 62h286q25 0 38.5 -2t28.5 -17.5t15 -44.5q0 -61 -82 -61h-102l-236 -301l269 -332h102 q84 0 84 -64q0 -61 -84 -61h-287q-25 0 -38 2t-28 17.5t-15 43.5q0 61 81 62h48l-191 256l-182 -256h51q25 0 38 -2t28.5 -17.5t15.5 -44.5q0 -61 -82 -61h-287q-84 0 -84 61z" />
<glyph unicode="y" horiz-adv-x="1134" d="M41 -299q0 41 24.5 65.5t65.5 24.5q37 0 62.5 -24.5t25.5 -65.5q0 -10 -2 -20.5t-2 -12.5q0 -10 31 -10q178 0 243 215q41 117 46 127l-310 758h-84q-84 0 -84 63q0 61 84 62h287q25 0 38 -2t28.5 -17.5t15.5 -44.5q0 -61 -82 -61h-78l195 -488q33 -86 47 -129l201 617 h-84q-82 0 -82 61q0 29 15 44.5t28.5 17.5t38.5 2h288q25 0 38.5 -2t28.5 -17.5t15 -44.5q0 -61 -82 -61h-82l-317 -928q-39 -113 -133 -205t-223 -92q-86 0 -143.5 50t-57.5 118z" />
<glyph unicode="z" horiz-adv-x="954" d="M59 72q0 27 7 41l591 645h-426v-53q0 -27 -2 -41.5t-19 -28.5t-50 -14q-47 0 -58.5 21.5t-11.5 62.5v94q0 51 16.5 67.5t67.5 16.5h600q27 0 41 -2t28.5 -19.5t14.5 -50.5q0 -25 -6 -41l-592 -645h463v78q0 27 2 41t19.5 28.5t50.5 14.5q47 0 58 -21.5t11 -62.5v-119 q0 -49 -16.5 -66.5t-65.5 -17.5h-639q-27 0 -41 2t-28.5 19.5t-14.5 50.5z" />
<glyph unicode="{" horiz-adv-x="1075" d="M115 625q0 51 45 61q2 0 35.5 1t72.5 6t82 15.5t75 33t38 55.5q2 14 2 41v325q0 125 96 190.5t324 67.5q72 0 71 -61q0 -47 -35.5 -57.5t-112.5 -12.5t-134 -26q-66 -27 -66 -97v-329q0 -147 -119 -211v-2q119 -66 119 -211v-322q0 -27 1 -38t18.5 -32.5t54.5 -35.5 q53 -20 128 -23.5t110.5 -13.5t35.5 -55q0 -61 -67 -64h-23q-217 4 -309 69.5t-92 186.5v328q0 27 -2 41t-19.5 36.5t-52.5 36.5q-55 25 -130 28t-110.5 13.5t-35.5 55.5z" />
<glyph unicode="|" horiz-adv-x="598" d="M225 -86v1413q0 23 2 35q4 23 23.5 41t46.5 18q12 0 26.5 -4t30 -24.5t15.5 -55.5v-1413q0 -25 -2 -37q-4 -20 -22.5 -38.5t-47.5 -18.5q-12 0 -26.5 5t-30 25.5t-15.5 53.5z" />
<glyph unicode="}" horiz-adv-x="1075" d="M115 -106q0 43 35 57q4 2 80.5 5t146 23.5t84.5 67.5q4 14 4 47v320q0 41 4 69.5t31.5 70.5t81.5 71v2q-117 63 -117 198v332q0 29 -4 44.5t-26.5 40t-84 37.5t-162.5 15q-74 0 -73 64q0 61 67 63h25q219 -4 310 -69.5t91 -188.5v-325q0 -20 1 -27.5t7.5 -30t22.5 -34 t45 -25.5t80 -22.5t119 -10.5h2q72 0 71 -61q0 -51 -45 -62q-2 0 -52 -4t-98 -10t-95.5 -31.5t-55.5 -64.5q-2 -14 -2 -41v-326q0 -143 -111.5 -199.5t-310.5 -58.5q-71 1 -71 64z" />
<glyph unicode="~" horiz-adv-x="1314" d="M178 1069q0 23 41 64q131 119 258 118q80 0 194.5 -55t168.5 -55q68 0 139.5 54t89.5 54q23 0 43.5 -19.5t20.5 -43.5q0 -31 -35 -60q-133 -123 -262 -122q-78 0 -196 56t-169 56q-66 0 -137.5 -55t-89.5 -55q-25 0 -45.5 19t-20.5 44z" />
<glyph unicode="&#xa1;" horiz-adv-x="598" d="M195 -367l20 719q0 68 74 68q33 0 47 -2t29.5 -18.5t15.5 -49.5l18 -719q0 -51 -31.5 -79.5t-70.5 -28.5q-35 0 -68.5 25.5t-33.5 84.5zM195 692q0 45 30.5 74t71.5 29q45 0 73.5 -31t28.5 -72q0 -39 -29.5 -70.5t-72.5 -31.5q-45 0 -73.5 30.5t-28.5 71.5z" />
<glyph unicode="&#xa2;" horiz-adv-x="1075" d="M88 440q0 170 124 299t320 156v149q2 70 63.5 70t61.5 -67v-148q63 -2 106.5 -6t103 -17.5t91 -46t31.5 -81.5q0 -39 -26.5 -66t-65.5 -27q-35 0 -63.5 26t-26.5 79l-70 8l-80 4v-655q72 8 117 27.5t62.5 42t30 44t28.5 36t47 14.5q37 0 53.5 -17.5t16.5 -40.5 q0 -20 -18.5 -54t-56.5 -73t-110.5 -69.5t-167.5 -34.5l-2 -2v-148q0 -70 -61 -69.5t-64 69.5v150q-197 25 -320.5 153.5t-123.5 294.5zM231 442.5q0 -108.5 80 -199.5t221 -120v645q-143 -25 -222 -121t-79 -204.5z" />
<glyph unicode="&#xa3;" horiz-adv-x="1374" d="M119 106q0 143 239 144q72 0 150 -14q16 45 16 98v229h-153q-70 2 -70 63.5t70 61.5h153v234q-4 156 108.5 251t260.5 95q156 0 258 -98.5t102 -223.5q0 -53 -29.5 -75.5t-62.5 -22.5q-37 0 -63.5 24.5t-26.5 65.5q0 31 27 66q-20 59 -75.5 98t-129.5 39 q-78 0 -151.5 -52.5t-73.5 -168.5v-232h206q78 0 78 -63q0 -61 -82 -62h-202v-229q0 -80 -21 -133q18 -6 79.5 -23.5t82 -22.5t63.5 -15.5t74 -13.5t64 -3q45 0 77.5 13.5t48 35t23.5 39.5t12 39l3 18q16 41 67 41q72 0 72 -65q0 -94 -83 -174t-226 -80q-72 0 -174.5 23.5 t-178.5 46t-82 22.5q-8 0 -40.5 -22.5t-93 -46t-140.5 -23.5q-176 -1 -176 116z" />
<glyph unicode="&#xa5;" d="M61 1187.5q0 63.5 72 63.5h340q76 0 76 -63.5t-72 -63.5h-57l258 -348l16 -14l23 -4h143l268 366h-51q-78 0 -78 66q0 61 82 61h332q74 0 74 -63.5t-74 -63.5h-82q-20 -2 -41 -24q-16 -20 -254 -342h348q45 -2 61.5 -22.5t16.5 -41.5q0 -61 -78 -61h-417 q-18 0 -28.5 -11.5t-68.5 -89.5q-25 -35 -24 -57v-24h522q94 0 94 -66q0 -61 -80 -61h-536v-197h119q76 0 75.5 -63.5t-73.5 -63.5h-383q-74 0 -74 63q0 37 33 56q14 8 57 8h102v197h-524q-8 -2 -16 -2q-39 0 -57.5 20t-18.5 43q0 66 86 66h530v24q0 23 -7 35t-54 74 q-27 37 -34 43t-23 6h-422q-74 0 -74 61.5t76 63.5h348q-250 340 -264 354q-12 10 -31 12h-74q-82 0 -82 63.5z" />
<glyph unicode="&#xa7;" horiz-adv-x="956" d="M147 410q0 166 150 268q-150 106 -150 266q0 127 93.5 222.5t234.5 95.5q123 0 211 -75t88 -181q0 -41 -23.5 -59.5t-48.5 -18.5q-57 0 -69 55l-2 10q0 10 -3 22.5t-9.5 29t-17.5 32t-27.5 28.5t-42 21.5t-58.5 8.5q-86 0 -147.5 -57.5t-61.5 -133.5q0 -53 39 -97 t78 -63.5t109.5 -48t84.5 -35.5q227 -115 228 -313q0 -168 -150 -268q150 -106 150 -266q0 -129 -93.5 -223.5t-234.5 -94.5q-123 0 -210 76t-87 180q0 41 23.5 59.5t48.5 18.5q55 0 67 -55l2 -11q0 -8 2.5 -17t6.5 -24.5t11 -29t19.5 -26.5t27.5 -23.5t39 -16.5t52 -6 q80 0 145.5 55.5t65.5 137.5q0 53 -38 96t-79 63.5t-108.5 48t-85.5 35.5q-230 115 -230 314zM264 410q0 -66 59.5 -118t114 -72.5t72.5 -20.5q51 0 114.5 51t63.5 135q0 66 -59.5 118t-113.5 73.5t-73 21.5q-49 0 -113.5 -51t-64.5 -137z" />
<glyph unicode="&#xa8;" horiz-adv-x="1075" d="M225 1147q0 43 30 73.5t73 30.5q41 0 71.5 -29.5t30.5 -72.5t-29.5 -72.5t-72.5 -29.5q-41 0 -72 28.5t-31 71.5zM643 1147q0 43 29.5 73.5t72.5 30.5q41 0 72 -29.5t31 -72.5t-28.5 -72.5t-74 -29.5t-74 29.5t-28.5 70.5z" />
<glyph unicode="&#xa9;" horiz-adv-x="2387" d="M119 483q0 188 83 364.5t224 307.5t342 210t426 79q299 0 547 -132t388 -353.5t140 -477.5q0 -252 -139 -472t-388 -353t-550 -133q-297 0 -545 131t-388 351t-140 478zM262 483.5q0 -331.5 269.5 -575.5t662.5 -244t662.5 244t269.5 575q0 217 -120 404.5t-336 301.5 t-476 114q-391 0 -661.5 -244t-270.5 -575.5zM596 438q0 190 170 325.5t418 135.5q190 0 338 -74q41 59 61 70q10 4 25 4q63 0 63 -72v-198q0 -76 -67 -76h-2q-20 0 -33 2t-21 12.5t-11 13.5t-9 22.5t-6 21.5q-16 49 -61.5 81.5t-101.5 45t-92 16.5t-67 4 q-203 0 -332 -102.5t-129 -231.5q0 -127 128 -231.5t337 -104.5q113 0 212.5 30t109.5 108q2 10 2 14t5 17.5t11 19.5t20.5 12t34.5 6q72 0 72 -65q0 -45 -19.5 -87t-68.5 -85t-150.5 -69t-244.5 -26q-262 0 -427 138.5t-165 322.5z" />
<glyph unicode="&#xaa;" horiz-adv-x="956" d="M55 506q0 51 56 61h704l2 2q80 0 80 -63.5t-78 -63.5h-688q-43 2 -59.5 23t-16.5 41zM106 911q0 86 108 130t370 51v12q0 111 -55.5 160t-120.5 49l-68 -6v-19q0 -43 -26.5 -68.5t-63.5 -25.5t-63.5 26.5t-26.5 67.5q0 152 250 152q125 0 221 -86t96 -254v-256 q47 -6 94 -6h35q35 0 51.5 -19.5t16.5 -44.5q0 -63 -76 -63h-35q-82 0 -129 9t-59.5 18.5t-26.5 27.5q-98 -66 -221 -66q-125 0 -198 64.5t-73 146.5zM250 915q12 -88 141 -88q37 0 75 9.5t77 43t41 89.5q-240 -3 -334 -54z" />
<glyph unicode="&#xab;" horiz-adv-x="1433" d="M240 451q0 14 4 23t15 17.5t17.5 12.5t27 12t26.5 12q223 106 368 289q6 8 16.5 21.5t14.5 18.5t11.5 13.5t10.5 11.5t9 8t10 6t10 2t15 1q57 0 61 -55q0 -49 -131 -185.5t-268 -207.5v-2q133 -70 266 -206.5t133 -189.5q0 -25 -18.5 -39t-42.5 -14q-27 0 -41.5 13.5 t-53.5 64.5q-160 199 -391 303q-57 25 -67 51q-2 9 -2 19zM598 451q0 14 4 23t15.5 17.5t17.5 12.5t26.5 12t26.5 12q223 106 369 289q6 8 16 21.5t14.5 18.5t11.5 13.5t10 11.5t9 8t10.5 6t10.5 2t14 1q57 0 61 -55q0 -49 -131 -185.5t-268 -207.5v-2q133 -70 266 -206.5 t133 -189.5q0 -25 -18 -39t-43 -14q-27 0 -41 13.5t-53 64.5q-160 199 -391 303q-57 25 -68 51q-2 9 -2 19z" />
<glyph unicode="&#xac;" horiz-adv-x="1433" d="M119 666q0 14 5 27.5t25.5 28.5t55.5 15h1024q84 0 84 -90v-483q0 -37 -15.5 -58.5t-29 -25.5t-27.5 -4q-74 0 -72 92v426h-962q-88 0 -88 72z" />
<glyph unicode="&#xad;" horiz-adv-x="716" d="M23 442q0 61 73 62h428q70 0 70 -64q0 -61 -72 -61h-428q-71 0 -71 63z" />
<glyph unicode="&#xae;" horiz-adv-x="2387" d="M119 483q0 188 83 364.5t224 307.5t342 210t426 79q299 0 547 -132t388 -353.5t140 -477.5q0 -252 -139 -472t-388 -353t-550 -133q-297 0 -545 131t-388 351t-140 478zM262 483.5q0 -331.5 269.5 -575.5t662.5 -244t662.5 244t269.5 575q0 217 -120 404.5t-336 301.5 t-476 114q-391 0 -661.5 -244t-270.5 -575.5zM571 63.5q0 63.5 76 63.5h117v623h-121q-72 0 -72 63.5t72 63.5h463q268 0 401 -80t133 -172q0 -111 -161 -183v-2q84 -57 84 -164v-81q0 -90 94 -91q68 0 78 68q4 39 18 54.5t55 15.5h4q68 0 68 -64q0 -70 -59.5 -135.5 t-161.5 -65.5q-90 0 -165 49.5t-75 172.5v65q0 29 -5 43.5t-29.5 32.5t-88 26.5t-170.5 8.5h-219v-248h117q76 0 76 -63.5t-72 -63.5h-385q-72 0 -72 63.5zM907 502h193q158 0 277.5 31.5t119.5 91.5q0 57 -115.5 91t-279.5 34h-195v-248z" />
<glyph unicode="&#xaf;" horiz-adv-x="1075" d="M147 1208q0 66 72 66h635q70 0 70 -66q0 -63 -74 -63h-633q-70 2 -70 63z" />
<glyph unicode="&#xb0;" horiz-adv-x="716" d="M119 1012q0 102 71.5 170.5t165.5 68.5q96 0 168 -69.5t72 -169.5q0 -102 -70.5 -170t-167.5 -68q-104 0 -171.5 71t-67.5 167zM262 1012q0 -41 28.5 -67.5t67.5 -26.5t67 28.5t28 67.5q0 41 -29 67.5t-68 26.5t-66.5 -28.5t-27.5 -67.5z" />
<glyph unicode="&#xb1;" horiz-adv-x="1671" d="M119 160q0 72 88 71h557v502h-547q-33 0 -49 6q-49 16 -49 66q2 72 88 72h557v565q0 39 22.5 58.5t49.5 19.5q72 0 71 -97v-546h547q96 0 96 -72q0 -49 -47 -66q-16 -6 -49 -6h-547v-502h557q35 0 56.5 -15t25.5 -28.5t4 -27.5q0 -72 -90 -72h-1255q-35 0 -56.5 15.5 t-25.5 30t-4 26.5z" />
<glyph unicode="&#xb4;" horiz-adv-x="1075" d="M414 1118q0 8 2 16.5t7 14.5t8 10t11.5 8t10.5 6.5t12 6.5l10 4q287 125 299 125h4q27 0 49.5 -20.5t22.5 -51.5q0 -49 -62 -74q-291 -127 -305 -127q-31 0 -50 27.5t-19 54.5z" />
<glyph unicode="&#xb5;" horiz-adv-x="1193" d="M33 -391.5q0 63.5 76 63.5h118v1084h-123q-72 0 -71 63q0 61 76 62h194q68 0 68 -82v-549q0 -33 3 -48.5t18.5 -40t56 -35.5t108.5 -11q115 0 184.5 49t79.5 115q2 16 2 51v426h-125q-39 2 -54 21.5t-15 41.5q0 61 76 62h186q76 0 76 -72v-682h120q72 0 72 -63.5 t-74 -63.5h-192q-70 2 -70 72q-113 -82 -280 -82q-98 0 -172 24v-342h116q76 0 76 -63.5t-74 -63.5h-383q-73 0 -73 63.5z" />
<glyph unicode="&#xb6;" horiz-adv-x="1314" d="M119 791q0 80 32.5 158.5t98 147t177.5 111.5t253 43h487q84 0 84 -71q0 -43 -39 -64q-18 -8 -57 -8h-82v-1419h94q84 0 84 -72t-86 -72h-620q-35 0 -55.5 15.5t-24.5 29t-4 27.5q0 57 59 70q12 2 35 2h84v641q-125 10 -238.5 60t-197.5 156t-84 245zM782 -311h150v1419 h-150v-1419z" />
<glyph unicode="&#xb7;" horiz-adv-x="598" d="M195 448q0 45 30.5 74t71.5 29q45 0 73.5 -31t28.5 -72q0 -39 -29.5 -70.5t-72.5 -31.5q-45 0 -73.5 30.5t-28.5 71.5z" />
<glyph unicode="&#xb8;" horiz-adv-x="956" d="M225 -362q0 61 76 61h43q238 4 238 80q0 41 -31 60.5t-71 24.5t-44 7q-33 18 -33 68v90q0 25 1.5 37t17.5 31.5t49 19.5h4q33 0 50.5 -15.5t19.5 -29t2 -35.5v-57q8 -2 19.5 -5.5t43 -18.5t55 -35.5t43 -58.5t19.5 -83q0 -47 -17.5 -83t-53 -56.5t-71.5 -35t-91.5 -20.5 t-92 -8t-94.5 -2h-10q-72 1 -72 64z" />
<glyph unicode="&#xba;" horiz-adv-x="956" d="M55 506q0 51 56 61q12 2 41 2h665q80 0 80 -63.5t-78 -63.5h-688q-43 2 -59.5 23t-16.5 41zM76 1067q0 147 115.5 259t285.5 112q162 0 281 -106.5t119 -264.5q0 -147 -116 -257t-286 -110q-164 0 -281.5 105.5t-117.5 261.5zM221 1077q0 -102 75 -177t181.5 -75t181 76 t74.5 178q0 94 -72.5 164t-183.5 70q-109 0 -182.5 -70t-73.5 -166z" />
<glyph unicode="&#xbb;" horiz-adv-x="1433" d="M215 57q0 47 131 183.5t270 208.5v2q-131 68 -266 205t-135 186q0 25 18.5 41t45.5 16q6 0 12 -1t11 -3t9 -4t9.5 -8t9.5 -9.5t10 -10.5t9 -12t10.5 -14.5t11.5 -15.5q160 -199 391 -303q2 0 10 -4t11 -5t11.5 -5t12.5 -7t10 -9.5t9 -11.5t5.5 -12t2.5 -15 q0 -10 -2.5 -17.5t-8.5 -14.5t-11 -11.5t-15.5 -10.5t-16.5 -8t-19 -8t-20 -8q-219 -104 -366 -289q-6 -8 -16.5 -21.5t-14.5 -18.5t-11 -13.5t-10.5 -11.5t-9.5 -8t-10 -6t-10 -2t-14 -1q-25 0 -44.5 16t-19.5 41zM573 57q0 49 135.5 186.5t266.5 205.5v2 q-135 70 -267.5 206t-132.5 189q0 25 18.5 39t43.5 14q6 0 12 -1t11.5 -3t9.5 -4t9 -8t9 -9.5t10.5 -10.5t9.5 -12t10 -14.5t11 -15.5q160 -199 391 -303q2 0 10.5 -4t11.5 -5t11 -5t12 -7t10.5 -9.5t9.5 -11.5t5 -12t2 -15q0 -10 -2 -17.5t-8 -14.5t-11.5 -11.5 t-15.5 -10.5t-16 -8t-19.5 -8t-19.5 -8q-219 -104 -367 -289q-6 -8 -16 -21.5t-14.5 -18.5t-11.5 -13.5t-10 -11.5t-9 -8t-10.5 -6t-10.5 -2t-14 -1q-29 0 -46.5 17t-17.5 40z" />
<glyph unicode="&#xbf;" horiz-adv-x="1015" d="M119 -211q0 111 88 180l26 23q29 20 34 25.5t30 28t32 35.5t24.5 41t23.5 52.5t12 59t6 71.5v33q0 29 3 43t21.5 26.5t55.5 12.5h10q43 0 58.5 -18.5t15.5 -55.5v-49q0 -94 -38 -177t-76.5 -124t-93 -85t-56.5 -46q-33 -33 -33 -74q0 -51 46 -91t165 -40q176 0 258 72v2 q-18 31 -18 57q0 37 26.5 62.5t63.5 25.5t64.5 -27.5t27.5 -68.5q0 -96 -95 -172t-323 -76q-106 0 -182 25.5t-112 67.5t-50 81t-14 80zM375 692q0 45 30.5 74t71.5 29q45 0 74 -31t29 -72q0 -39 -30 -70.5t-73 -31.5q-45 0 -73.5 30.5t-28.5 71.5z" />
<glyph unicode="&#xc0;" d="M84 63q0 61 82 62h94l387 1083q12 31 32.5 47.5t35 18.5t41.5 2h39q29 0 43 -2t33.5 -18.5t31.5 -49.5l387 -1081h94q25 0 38.5 -2t28.5 -17.5t15 -44.5q0 -61 -82 -61h-325q-84 0 -84 63q0 61 84 62h82l-82 227h-567l-82 -227h82q84 0 83 -64q0 -61 -83 -61h-326 q-25 0 -38 2t-28.5 17t-15.5 44zM512 1581q0 27 19.5 49.5t49.5 22.5q10 0 314 -102q59 -20 59 -62q0 -25 -15.5 -54.5t-49.5 -29.5h-3q-12 0 -307 101q-67 22 -67 75zM537 477h477l-240 668z" />
<glyph unicode="&#xc1;" d="M84 63q0 61 82 62h94l387 1083q12 31 32.5 47.5t35 18.5t41.5 2h39q29 0 43 -2t33.5 -18.5t31.5 -49.5l387 -1081h94q25 0 38.5 -2t28.5 -17.5t15 -44.5q0 -61 -82 -61h-325q-84 0 -84 63q0 61 84 62h82l-82 227h-567l-82 -227h82q84 0 83 -64q0 -61 -83 -61h-326 q-25 0 -38 2t-28.5 17t-15.5 44zM537 477h477l-240 668zM537 1489q0 20 13.5 34.5t22.5 19t30 10.5q295 100 307 100q27 0 48 -20.5t21 -51.5q0 -53 -65 -73q-303 -102 -311 -103q-35 0 -50.5 29.5t-15.5 54.5z" />
<glyph unicode="&#xc2;" d="M84 63q0 61 82 62h94l387 1083q12 31 32.5 47.5t35 18.5t41.5 2h39q29 0 43 -2t33.5 -18.5t31.5 -49.5l387 -1081h94q25 0 38.5 -2t28.5 -17.5t15 -44.5q0 -61 -82 -61h-325q-84 0 -84 63q0 61 84 62h82l-82 227h-567l-82 -227h82q84 0 83 -64q0 -61 -83 -61h-326 q-25 0 -38 2t-28.5 17t-15.5 44zM414 1427q0 33 37 60q262 193 278 199q6 2 19 2h4q18 0 149 -99q80 -59 137 -100q43 -31 43 -62q0 -25 -23.5 -51t-49.5 -26q-18 0 -47 20.5t-121 93.5q-57 45 -92 74h-3q-33 -27 -64.5 -51.5t-51 -40.5t-39 -31.5t-30.5 -25t-22.5 -17.5 t-16.5 -11t-12 -6t-11 -4t-11 -1q-29 0 -51 26t-22 51zM537 477h477l-240 668z" />
<glyph unicode="&#xc3;" d="M84 63q0 61 82 62h94l387 1083q12 31 32.5 47.5t35 18.5t41.5 2h39q29 0 43 -2t33.5 -18.5t31.5 -49.5l387 -1081h94q25 0 38.5 -2t28.5 -17.5t15 -44.5q0 -61 -82 -61h-325q-84 0 -84 63q0 61 84 62h82l-82 227h-567l-82 -227h82q84 0 83 -64q0 -61 -83 -61h-326 q-25 0 -38 2t-28.5 17t-15.5 44zM358 1477q0 41 89.5 120.5t179.5 79.5q72 0 168 -63.5t133 -63.5q49 0 112.5 62.5t83.5 62.5q25 0 46.5 -17.5t21.5 -43.5q0 -41 -88 -121t-178 -80q-74 0 -170.5 64.5t-132.5 64.5q-39 0 -77 -31.5t-69 -64.5t-53 -33q-27 0 -46.5 20.5 t-19.5 43.5zM537 477h477l-240 668z" />
<glyph unicode="&#xc4;" d="M84 63q0 61 82 62h94l387 1083q12 31 32.5 47.5t35 18.5t41.5 2h39q29 0 43 -2t33.5 -18.5t31.5 -49.5l387 -1081h94q25 0 38.5 -2t28.5 -17.5t15 -44.5q0 -61 -82 -61h-325q-84 0 -84 63q0 61 84 62h82l-82 227h-567l-82 -227h82q84 0 83 -64q0 -61 -83 -61h-326 q-25 0 -38 2t-28.5 17t-15.5 44zM465 1575q0 39 29.5 70.5t72.5 31.5q41 0 72 -29.5t31 -72.5t-31 -72.5t-72 -29.5q-45 0 -73.5 30.5t-28.5 71.5zM537 477h477l-240 668zM883 1575q0 43 29.5 72.5t70.5 29.5q45 0 74.5 -31.5t29.5 -70.5t-29.5 -70.5t-72.5 -31.5 q-41 0 -71.5 29.5t-30.5 72.5z" />
<glyph unicode="&#xc5;" d="M84 63.5q0 63.5 86 63.5h88l379 1055q-129 82 -129 241q0 111 68.5 191t168.5 80q96 0 168 -78t72 -195q0 -127 -82 -204l389 -1090h90q25 0 41.5 -3t29.5 -17.5t13 -43.5q0 -63 -71 -63h-344q-76 0 -76 61q0 66 76 66h88l-78 223h-569l-80 -223h90q74 0 73.5 -63.5 t-73.5 -63.5h-344q-74 0 -74 63.5zM537 475h477l-238 668zM627 1423q0 -61 35.5 -103t85.5 -42q51 0 84.5 45t33.5 100q0 57 -33.5 101.5t-84.5 44.5q-45 0 -83 -40t-38 -106z" />
<glyph unicode="&#xc6;" horiz-adv-x="1910" d="M90 63.5q0 63.5 76 63.5h104l439 997h-41q-76 0 -76 66q0 61 72 61h1054q72 0 72 -75v-175q0 -70 -68 -69h-2q-72 0 -73 67v125h-543v-411h297v41q0 74 67 73h5q18 0 29 -2t26.5 -19.5t15.5 -51.5v-211q0 -74 -67 -74h-9q-68 0 -67 76v41h-297v-459h602v154q2 72 72 71h6 q66 0 65 -78v-198q0 -20 -2 -33.5t-20.5 -28t-52.5 -14.5h-885q-74 0 -74 63.5t80 63.5h66v248h-426l-109 -248h76q82 0 82 -66q0 -61 -76 -61h-344q-74 0 -74 63.5zM592 500h369v624h-97z" />
<glyph unicode="&#xc7;" d="M119 625q0 264 206.5 456.5t510.5 192.5q254 0 434 -127q35 80 52 103.5t48 23.5q61 0 62 -80v-303q0 -72 -68 -72h-2q-35 0 -51.5 13.5t-19.5 33t-17 56t-39 69.5q-119 156 -385 156q-248 0 -418 -154.5t-170 -365.5t169 -367t423 -156q178 0 302 62.5t132 175.5 q6 72 68 72h4q72 0 72 -72q0 -113 -91 -205q-127 -129 -434 -157q90 -23 134 -78.5t44 -120.5q0 -100 -90 -156q-86 -51 -323 -51h-13q-76 0 -75 64q0 61 71 61h9q147 2 211.5 19.5t64.5 62.5q0 33 -28.5 53.5t-65.5 26.5q-2 0 -16.5 1t-22.5 4t-20.5 10t-18.5 20.5t-6 33.5 q0 29 12 50q-264 14 -459.5 199.5t-195.5 445.5z" />
<glyph unicode="&#xc8;" horiz-adv-x="1433" d="M94 61q0 29 15.5 44.5t29 17.5t37.5 2h111v1001h-111q-82 0 -82 62q0 29 15.5 44t29 17t37.5 2h1055q51 0 66.5 -17t15.5 -67v-149q0 -27 -2 -41t-19.5 -28.5t-50.5 -14.5q-47 0 -58.5 21.5t-11.5 62.5v108h-743v-415h408q0 51 3 70.5t18 32.5t50 13q47 0 58.5 -21.5 t11.5 -62.5v-190q0 -27 -2 -41t-18.5 -28.5t-49.5 -14.5q-49 0 -60 22.5t-11 94.5h-408v-461h803v141q0 27 2 41.5t19.5 28.5t50.5 14q47 0 58 -21.5t11 -62.5v-182q0 -49 -16.5 -66.5t-65.5 -17.5h-1114q-82 0 -82 61zM512 1581q0 27 19.5 49.5t49.5 22.5q10 0 314 -102 q59 -20 59 -62q0 -25 -15.5 -54.5t-49.5 -29.5h-3q-12 0 -307 101q-67 22 -67 75z" />
<glyph unicode="&#xc9;" horiz-adv-x="1433" d="M94 61q0 29 15.5 44.5t29 17.5t37.5 2h111v1001h-111q-82 0 -82 62q0 29 15.5 44t29 17t37.5 2h1055q51 0 66.5 -17t15.5 -67v-149q0 -27 -2 -41t-19.5 -28.5t-50.5 -14.5q-47 0 -58.5 21.5t-11.5 62.5v108h-743v-415h408q0 51 3 70.5t18 32.5t50 13q47 0 58.5 -21.5 t11.5 -62.5v-190q0 -27 -2 -41t-18.5 -28.5t-49.5 -14.5q-49 0 -60 22.5t-11 94.5h-408v-461h803v141q0 27 2 41.5t19.5 28.5t50.5 14q47 0 58 -21.5t11 -62.5v-182q0 -49 -16.5 -66.5t-65.5 -17.5h-1114q-82 0 -82 61zM565 1489q0 20 13.5 34.5t22.5 19t30 10.5 q295 100 307 100q27 0 48 -20.5t21 -51.5q0 -53 -65 -73q-303 -102 -311 -103q-35 0 -50.5 29.5t-15.5 54.5z" />
<glyph unicode="&#xca;" horiz-adv-x="1433" d="M94 61q0 29 15.5 44.5t29 17.5t37.5 2h111v1001h-111q-82 0 -82 62q0 29 15.5 44t29 17t37.5 2h1055q51 0 66.5 -17t15.5 -67v-149q0 -27 -2 -41t-19.5 -28.5t-50.5 -14.5q-47 0 -58.5 21.5t-11.5 62.5v108h-743v-415h408q0 51 3 70.5t18 32.5t50 13q47 0 58.5 -21.5 t11.5 -62.5v-190q0 -27 -2 -41t-18.5 -28.5t-49.5 -14.5q-49 0 -60 22.5t-11 94.5h-408v-461h803v141q0 27 2 41.5t19.5 28.5t50.5 14q47 0 58 -21.5t11 -62.5v-182q0 -49 -16.5 -66.5t-65.5 -17.5h-1114q-82 0 -82 61zM383 1427q0 33 37 60q262 193 278 199q6 2 19 2h4 q18 0 149 -99q80 -59 138 -100q43 -31 43 -62q0 -25 -23.5 -51t-50.5 -26q-18 0 -47 20.5t-121 93.5q-57 45 -92 74h-2q-33 -25 -62.5 -49.5t-50 -40.5t-39 -31.5t-31 -24t-22.5 -16.5t-16.5 -12t-11.5 -8t-9 -5t-7 -1h-9q-29 0 -51.5 26t-22.5 51z" />
<glyph unicode="&#xcb;" horiz-adv-x="1433" d="M94 61q0 29 15.5 44.5t29 17.5t37.5 2h111v1001h-111q-82 0 -82 62q0 29 15.5 44t29 17t37.5 2h1055q51 0 66.5 -17t15.5 -67v-149q0 -27 -2 -41t-19.5 -28.5t-50.5 -14.5q-47 0 -58.5 21.5t-11.5 62.5v108h-743v-415h408q0 51 3 70.5t18 32.5t50 13q47 0 58.5 -21.5 t11.5 -62.5v-190q0 -27 -2 -41t-18.5 -28.5t-49.5 -14.5q-49 0 -60 22.5t-11 94.5h-408v-461h803v141q0 27 2 41.5t19.5 28.5t50.5 14q47 0 58 -21.5t11 -62.5v-182q0 -49 -16.5 -66.5t-65.5 -17.5h-1114q-82 0 -82 61zM401 1575q0 39 31 70.5t72 31.5t71.5 -29.5 t30.5 -72.5t-28.5 -72.5t-69.5 -29.5q-45 0 -76 29.5t-31 72.5zM823 1575q0 43 29 72.5t69 29.5q45 0 75 -31.5t30 -70.5q0 -41 -29.5 -71.5t-75.5 -30.5q-41 0 -69.5 29.5t-28.5 72.5z" />
<glyph unicode="&#xcc;" horiz-adv-x="716" d="M84 61q0 29 15.5 44.5t28.5 17.5t38 2h121v1001h-121q-82 0 -82 62q0 29 15.5 44t28.5 17t38 2h383q25 0 38 -2t28.5 -17t15.5 -44q0 -61 -82 -62h-121v-1001h121q25 0 38 -2t28.5 -17.5t15.5 -44.5q0 -61 -82 -61h-383q-82 0 -82 61zM123 1581q0 29 20.5 50.5t49.5 21.5 q10 0 313 -103q61 -23 61 -61q0 -25 -16 -54.5t-51 -29.5h-2q-6 0 -308 102q-67 23 -67 74z" />
<glyph unicode="&#xcd;" horiz-adv-x="716" d="M84 61q0 29 15.5 44.5t28.5 17.5t38 2h121v1001h-121q-82 0 -82 62q0 29 15.5 44t28.5 17t38 2h383q25 0 38 -2t28.5 -17t15.5 -44q0 -61 -82 -62h-121v-1001h121q25 0 38 -2t28.5 -17.5t15.5 -44.5q0 -61 -82 -61h-383q-82 0 -82 61zM108 1489q0 20 13.5 34.5t22.5 19 t30 10.5q295 100 307 100q27 0 48 -20.5t21 -51.5q0 -53 -65 -73q-303 -102 -311 -103q-35 0 -50.5 29.5t-15.5 54.5z" />
<glyph unicode="&#xce;" horiz-adv-x="716" d="M23 1427q0 29 43 62q51 37 124 92q109 80 129.5 93.5t36.5 13.5h4q14 0 117 -74q96 -70 174 -127q39 -29 39 -60q0 -25 -22.5 -51t-51.5 -26h-2q-16 0 -51 25.5t-205 162.5h-2q-53 -43 -127 -100q-80 -66 -97 -77t-36 -11q-27 0 -50 26t-23 51zM84 61q0 29 15.5 44.5 t28.5 17.5t38 2h121v1001h-121q-82 0 -82 62q0 29 15.5 44t28.5 17t38 2h383q25 0 38 -2t28.5 -17t15.5 -44q0 -61 -82 -62h-121v-1001h121q25 0 38 -2t28.5 -17.5t15.5 -44.5q0 -61 -82 -61h-383q-82 0 -82 61z" />
<glyph unicode="&#xcf;" horiz-adv-x="716" d="M45 1575q0 43 30.5 72.5t71.5 29.5t72 -29.5t31 -72.5t-30 -72.5t-70 -29.5q-45 0 -75 29.5t-30 72.5zM84 61q0 29 15.5 44.5t28.5 17.5t38 2h121v1001h-121q-82 0 -82 62q0 29 15.5 44t28.5 17t38 2h383q25 0 38 -2t28.5 -17t15.5 -44q0 -61 -82 -62h-121v-1001h121 q25 0 38 -2t28.5 -17.5t15.5 -44.5q0 -61 -82 -61h-383q-82 0 -82 61zM463 1575q0 43 29.5 72.5t72.5 29.5q41 0 72 -29.5t31 -72.5t-31 -72.5t-72 -29.5q-45 0 -73.5 30.5t-28.5 71.5z" />
<glyph unicode="&#xd0;" horiz-adv-x="1611" d="M92 63.5q0 63.5 76 63.5h119v424h-127q-68 2 -68 63q0 63 78 64h117v446h-125q-70 2 -70 64q0 63 74 63h653q301 0 486.5 -192.5t185.5 -444.5q0 -244 -172 -414.5t-414 -195.5q-33 -4 -98 -4h-643q-72 0 -72 63.5zM430 127h342q160 0 277 51q121 53 210 169t89 267 q0 193 -137.5 338.5t-342.5 167.5q-33 4 -98 4h-340v-446h389q74 0 74 -63.5t-74 -63.5h-389v-424z" />
<glyph unicode="&#xd1;" d="M109 61q0 29 15 44.5t28.5 17.5t37.5 2h111v1001h-111q-82 0 -81 62q0 29 15 44t28.5 17t37.5 2h195q29 0 45 -2t41 -18.5t43 -48.5l619 -1078h2v1022h-111q-82 0 -82 62q0 29 15.5 44t28.5 17t38 2h336q25 0 38 -2t28.5 -17t15.5 -44q0 -61 -82 -62h-111v-1042 q0 -53 -16 -68.5t-68 -15.5q-29 0 -45 2t-40.5 18.5t-43.5 49.5l-618 1077h-2v-1022h110q25 0 38.5 -2t28.5 -17.5t15 -44.5q0 -61 -82 -61h-336q-81 0 -81 61zM358 1477q0 41 89.5 120.5t179.5 79.5q72 0 168 -63.5t133 -63.5q49 0 112.5 62.5t83.5 62.5q25 0 46.5 -17.5 t21.5 -43.5q0 -41 -88 -121t-178 -80q-74 0 -170.5 64.5t-130.5 64.5q-39 0 -78 -31.5t-70 -64.5t-53 -33q-27 0 -46.5 20.5t-19.5 43.5z" />
<glyph unicode="&#xd2;" horiz-adv-x="1671" d="M119 627q0 262 208 454.5t509 192.5q299 0 507.5 -190.5t208.5 -458.5q0 -262 -207.5 -455t-508.5 -193q-299 0 -508 191t-209 459zM260 649q0 -223 168 -385t407.5 -162t407.5 162t168 385q0 205 -168 352.5t-407.5 147.5t-407.5 -147.5t-168 -352.5zM633 1581 q0 27 19.5 49.5t49.5 22.5q10 0 314 -102q59 -20 59 -62q0 -25 -15.5 -54.5t-49.5 -29.5h-3q-12 0 -307 101q-67 22 -67 75z" />
<glyph unicode="&#xd3;" horiz-adv-x="1671" d="M119 627q0 262 208 454.5t509 192.5q299 0 507.5 -190.5t208.5 -458.5q0 -262 -207.5 -455t-508.5 -193q-299 0 -508 191t-209 459zM260 649q0 -223 168 -385t407.5 -162t407.5 162t168 385q0 205 -168 352.5t-407.5 147.5t-407.5 -147.5t-168 -352.5zM596 1489 q0 20 13.5 34.5t22.5 19t30 10.5q295 100 307 100q27 0 48 -20.5t21 -51.5q0 -53 -65 -73q-303 -102 -311 -103q-35 0 -50.5 29.5t-15.5 54.5z" />
<glyph unicode="&#xd4;" horiz-adv-x="1671" d="M119 627q0 262 208 454.5t509 192.5q299 0 507.5 -190.5t208.5 -458.5q0 -262 -207.5 -455t-508.5 -193q-299 0 -508 191t-209 459zM260 649q0 -223 168 -385t407.5 -162t407.5 162t168 385q0 205 -168 352.5t-407.5 147.5t-407.5 -147.5t-168 -352.5zM502 1430 q0 29 39 57q61 45 145 106q94 70 113.5 82.5t36.5 12.5h4q16 0 118 -76q94 -68 170 -123q41 -29 41 -62q0 -25 -22.5 -51t-50.5 -26q-18 0 -47 20.5t-121 93.5q-57 45 -92 74q-29 -23 -58.5 -46.5t-48 -38.5t-38 -30.5t-31 -24.5t-22.5 -17.5t-18.5 -13.5l-13.5 -9t-11 -5 t-9 -2t-11 -1q-27 0 -50 27.5t-23 52.5z" />
<glyph unicode="&#xd5;" horiz-adv-x="1671" d="M119 627q0 262 208 454.5t509 192.5q299 0 507.5 -190.5t208.5 -458.5q0 -262 -207.5 -455t-508.5 -193q-299 0 -508 191t-209 459zM260 649q0 -223 168 -385t407.5 -162t407.5 162t168 385q0 205 -168 352.5t-407.5 147.5t-407.5 -147.5t-168 -352.5zM418 1477 q0 41 89 120.5t179 79.5q72 0 168 -63.5t133 -63.5q49 0 112.5 62.5t84.5 62.5q25 0 46 -17.5t21 -43.5q0 -41 -89 -121t-177 -80q-72 0 -170 64.5t-133 64.5q-39 0 -77 -31.5t-68.5 -63.5t-53.5 -32q-27 0 -46 19.5t-19 42.5z" />
<glyph unicode="&#xd6;" horiz-adv-x="1671" d="M119 627q0 262 208 454.5t509 192.5q299 0 507.5 -190.5t208.5 -458.5q0 -262 -207.5 -455t-508.5 -193q-299 0 -508 191t-209 459zM260 649q0 -223 168 -385t407.5 -162t407.5 162t168 385q0 205 -168 352.5t-407.5 147.5t-407.5 -147.5t-168 -352.5zM524 1575 q0 39 30 70.5t73 31.5q41 0 71.5 -29.5t30.5 -72.5t-30.5 -72.5t-71.5 -29.5q-45 0 -74 30.5t-29 71.5zM942 1575q0 43 29.5 72.5t70.5 29.5q45 0 75 -30.5t30 -71.5q0 -45 -31 -73.5t-72 -28.5q-45 0 -73.5 29.5t-28.5 72.5z" />
<glyph unicode="&#xd8;" horiz-adv-x="1671" d="M119 625q0 264 208 456.5t509 192.5q178 0 333 -76q16 27 131 184q33 43 64 43q23 0 43 -18t20 -45q0 -4 -1 -9t-4 -11.5t-6 -12.5t-10 -17.5t-14.5 -20.5t-19.5 -27.5t-23.5 -34t-31 -43t-37.5 -51.5q125 -88 198.5 -223.5t73.5 -284.5q0 -262 -206.5 -456t-511.5 -194 q-176 0 -334 74q-4 -6 -11.5 -16t-18.5 -25.5t-39 -52.5t-62 -86q-35 -45 -62 -45q-23 0 -44 17.5t-21 43.5q0 16 14 40t70 100q39 55 65 90q-111 76 -191.5 208t-80.5 300zM236 625q0 -121 60 -228.5t167 -181.5l633 881q-123 51 -260 51q-254 0 -427 -155.5t-173 -366.5z M573 154q131 -51 263 -52q248 0 424 153t176 370q0 242 -228 409h-2z" />
<glyph unicode="&#xd9;" d="M94 1188q0 29 15.5 44t29 17t37.5 2h363q25 0 38 -2t28.5 -17t15.5 -44q0 -61 -82 -62h-111v-692q0 -160 107.5 -246t240.5 -86q129 0 237.5 86t108.5 246v692h-110q-82 0 -82 62q0 29 15.5 44t28.5 17t38 2h362q25 0 38 -2t28.5 -17t15.5 -44q0 -61 -82 -62h-110v-704 q0 -188 -143.5 -316.5t-346.5 -128.5q-199 0 -343 127t-144 318v704h-111q-82 1 -82 62zM572 1581q0 27 19.5 49.5t49.5 22.5q10 0 314 -102q59 -20 59 -62q0 -25 -15.5 -54.5t-49.5 -29.5h-3q-12 0 -307 101q-67 22 -67 75z" />
<glyph unicode="&#xda;" d="M94 1188q0 29 15.5 44t29 17t37.5 2h363q25 0 38 -2t28.5 -17t15.5 -44q0 -61 -82 -62h-111v-692q0 -160 107.5 -246t240.5 -86q129 0 237.5 86t108.5 246v692h-110q-82 0 -82 62q0 29 15.5 44t28.5 17t38 2h362q25 0 38 -2t28.5 -17t15.5 -44q0 -61 -82 -62h-110v-704 q0 -188 -143.5 -316.5t-346.5 -128.5q-199 0 -343 127t-144 318v704h-111q-82 1 -82 62zM627 1489q0 20 13.5 34.5t22.5 19t30 10.5q295 100 307 100q27 0 48 -20.5t21 -51.5q0 -53 -65 -73q-303 -102 -311 -103q-35 0 -50.5 29.5t-15.5 54.5z" />
<glyph unicode="&#xdb;" d="M94 1188q0 29 15.5 44t29 17t37.5 2h363q25 0 38 -2t28.5 -17t15.5 -44q0 -61 -82 -62h-111v-692q0 -160 107.5 -246t240.5 -86q129 0 237.5 86t108.5 246v692h-110q-82 0 -82 62q0 29 15.5 44t28.5 17t38 2h362q25 0 38 -2t28.5 -17t15.5 -44q0 -61 -82 -62h-110v-704 q0 -188 -143.5 -316.5t-346.5 -128.5q-199 0 -343 127t-144 318v704h-111q-82 1 -82 62zM442 1427q0 33 37 60q262 193 279 199q6 2 18 2h4q18 0 150 -99q80 -59 137 -100q43 -31 43 -62q0 -25 -23.5 -51t-50.5 -26q-18 0 -46.5 20.5t-121.5 93.5q-57 45 -92 74h-2 q-33 -27 -64.5 -51.5t-51 -40.5t-39 -31.5t-30.5 -25t-22.5 -17.5t-16.5 -11t-12.5 -6t-11.5 -4t-10 -1q-29 0 -51.5 26t-22.5 51z" />
<glyph unicode="&#xdc;" d="M94 1188q0 29 15.5 44t29 17t37.5 2h363q25 0 38 -2t28.5 -17t15.5 -44q0 -61 -82 -62h-111v-692q0 -160 107.5 -246t240.5 -86q129 0 237.5 86t108.5 246v692h-110q-82 0 -82 62q0 29 15.5 44t28.5 17t38 2h362q25 0 38 -2t28.5 -17t15.5 -44q0 -61 -82 -62h-110v-704 q0 -188 -143.5 -316.5t-346.5 -128.5q-199 0 -343 127t-144 318v704h-111q-82 1 -82 62zM465 1575q0 41 28.5 71.5t71.5 30.5q41 0 72 -29.5t31 -72.5t-30 -72.5t-71 -29.5q-45 0 -73.5 31.5t-28.5 70.5zM883 1575q0 43 29.5 72.5t70.5 29.5q45 0 74.5 -31.5t29.5 -70.5 t-29.5 -70.5t-72.5 -31.5q-41 0 -71.5 29.5t-30.5 72.5z" />
<glyph unicode="&#xdd;" d="M61 1190q0 61 84 61h320q84 0 84 -63q0 -61 -84 -62h-47l356 -483l359 483h-48q-84 0 -84 64q0 61 84 61h320q84 0 84 -63q0 -61 -84 -62h-98l-461 -626v-375h110q25 0 38.5 -2t28.5 -17.5t15 -44.5q0 -61 -82 -61h-362q-82 0 -82 61q0 29 15.5 44.5t28.5 17.5t38 2h111 v375l-461 626h-99q-84 1 -84 64zM625 1489q0 20 13.5 34.5t22.5 19t30 10.5q295 100 307 100q27 0 48 -20.5t21 -51.5q0 -53 -65 -73q-303 -102 -311 -103q-35 0 -50.5 29.5t-15.5 54.5z" />
<glyph unicode="&#xde;" horiz-adv-x="1314" d="M92 63.5q0 63.5 76 63.5h119v997h-117q-78 0 -78 63.5t74 63.5h383q74 0 74 -63.5t-76 -63.5h-117v-86h313q197 0 323 -107.5t126 -248.5q0 -57 -25.5 -115.5t-78 -115t-148.5 -91t-221 -34.5h-289v-199h117q76 0 76 -63.5t-74 -63.5h-383q-74 0 -74 63.5zM430 451h232 q199 0 293 73.5t94 157.5q0 94 -97.5 161.5t-234.5 67.5h-287v-460z" />
<glyph unicode="&#xdf;" horiz-adv-x="1075" d="M33 61q0 66 71 66h121v629h-116q-76 0 -76 61.5t67 63.5h125v145q0 236 363 236q109 0 186.5 -21.5t113.5 -58.5t51 -73t15 -75q0 -104 -56 -180t-167 -82q-55 -4 -88 -24q-29 -43 -29 -89q0 -39 11.5 -63.5t35 -37.5t43 -19.5t51 -11.5t46.5 -9q84 -23 142 -92.5 t58 -169.5q0 -121 -74.5 -193.5t-201.5 -72.5q-63 0 -119 30q-18 -31 -55 -30q-61 0 -62 71v207q-2 74 72 74h4q39 0 53.5 -21.5t20.5 -72.5t20 -84q23 -49 68 -49q59 0 103 32.5t44 108.5q0 49 -40 102q-45 37 -112 48.5t-89 21.5q-59 25 -102.5 86t-43.5 143 q0 100 56.5 166t161.5 74q104 0 104 129q0 111 -225 111h-4q-178 0 -207 -80q-4 -12 -4 -37v-944q0 -33 -13.5 -51.5t-27 -21.5t-35.5 -3h-187q-73 0 -73 61z" />
<glyph unicode="&#xe0;" horiz-adv-x="1044" d="M109 262q0 139 158.5 220t437.5 85q0 104 -68 156.5t-184 52.5q-51 0 -76 -2t-30 -6t-5 -16q-2 -49 -29.5 -72t-60.5 -23q-39 0 -65.5 25t-26.5 70q0 150 291 149q197 0 296 -95t99 -222v-443q37 -16 115 -16q82 0 81 -62q0 -31 -15 -45t-32.5 -16t-52.5 -2 q-170 0 -215 66q-113 -78 -291 -78q-143 0 -235 80.5t-92 193.5zM250 262q0 -61 56 -105t147 -44q100 0 172 32q37 16 55 41t21.5 41.5t3.5 46.5v172q-227 -8 -341 -59t-114 -125zM342 1237q0 31 21.5 51.5t48.5 20.5h4q12 0 305 -127q57 -27 57 -64q0 -27 -19.5 -54.5 t-47.5 -27.5h-2q-10 0 -303 127q-20 10 -28.5 15.5t-22 22t-13.5 36.5z" />
<glyph unicode="&#xe1;" horiz-adv-x="1044" d="M109 262q0 139 158.5 220t437.5 85q0 104 -68 156.5t-184 52.5q-51 0 -76 -2t-30 -6t-5 -16q-2 -49 -29.5 -72t-60.5 -23q-39 0 -65.5 25t-26.5 70q0 150 291 149q197 0 296 -95t99 -222v-443q37 -16 115 -16q82 0 81 -62q0 -31 -15 -45t-32.5 -16t-52.5 -2 q-170 0 -215 66q-113 -78 -291 -78q-143 0 -235 80.5t-92 193.5zM250 262q0 -61 56 -105t147 -44q100 0 172 32q37 16 55 41t21.5 41.5t3.5 46.5v172q-227 -8 -341 -59t-114 -125zM295 1118q0 8 2 16.5t7 14.5t8 10t11.5 8t10.5 6.5t12 6.5l10 4q287 125 306 125 q27 0 48 -20.5t21 -51.5q0 -49 -61 -74q-291 -127 -308 -127q-31 0 -49 27.5t-18 54.5z" />
<glyph unicode="&#xe2;" horiz-adv-x="1044" d="M109 262q0 139 158.5 220t437.5 85q0 104 -68 156.5t-184 52.5q-51 0 -76 -2t-30 -6t-5 -16q-2 -49 -29.5 -72t-60.5 -23q-39 0 -65.5 25t-26.5 70q0 150 291 149q197 0 296 -95t99 -222v-443q37 -16 115 -16q82 0 81 -62q0 -31 -15 -45t-32.5 -16t-52.5 -2 q-170 0 -215 66q-113 -78 -291 -78q-143 0 -235 80.5t-92 193.5zM144 1079q0 33 45 62q258 172 272 176q6 2 15 2h2q14 0 49 -21.5t235 -154.5q47 -29 47 -66q0 -23 -21.5 -50.5t-49.5 -27.5h-4q-23 0 -133.5 82t-124.5 82q-10 0 -64 -39q-162 -117 -180 -123q-8 -2 -17 -2 q-29 0 -50 27.5t-21 52.5zM250 262q0 -61 56 -105t147 -44q100 0 172 32q37 16 55 41t21.5 41.5t3.5 46.5v172q-227 -8 -341 -59t-114 -125z" />
<glyph unicode="&#xe3;" horiz-adv-x="1044" d="M109 262q0 139 158.5 220t437.5 85q0 104 -68 156.5t-184 52.5q-51 0 -76 -2t-30 -6t-5 -16q-2 -49 -29.5 -72t-60.5 -23q-39 0 -65.5 25t-26.5 70q0 150 291 149q197 0 296 -95t99 -222v-443q37 -16 115 -16q82 0 81 -62q0 -31 -15 -45t-32.5 -16t-52.5 -2 q-170 0 -215 66q-113 -78 -291 -78q-143 0 -235 80.5t-92 193.5zM180 1071q0 29 33 57q133 123 225 123q47 0 87 -27.5t68 -55t48 -27.5q37 0 101.5 54t84.5 54q25 0 45.5 -18.5t20.5 -44.5q0 -25 -33 -58q-129 -123 -227 -122q-47 0 -86 27.5t-66.5 54t-48.5 26.5 q-35 0 -101.5 -54t-86.5 -54q-27 0 -45.5 20t-18.5 45zM250 262q0 -61 56 -105t147 -44q100 0 172 32q37 16 55 41t21.5 41.5t3.5 46.5v172q-227 -8 -341 -59t-114 -125z" />
<glyph unicode="&#xe4;" horiz-adv-x="1044" d="M109 262q0 139 158.5 220t437.5 85q0 104 -68 156.5t-184 52.5q-51 0 -76 -2t-30 -6t-5 -16q-2 -49 -29.5 -72t-60.5 -23q-39 0 -65.5 25t-26.5 70q0 150 291 149q197 0 296 -95t99 -222v-443q37 -16 115 -16q82 0 81 -62q0 -31 -15 -45t-32.5 -16t-52.5 -2 q-170 0 -215 66q-113 -78 -291 -78q-143 0 -235 80.5t-92 193.5zM225 1147q0 43 30 73.5t73 30.5q41 0 71.5 -29.5t30.5 -72.5t-29.5 -72.5t-72.5 -29.5q-41 0 -72 28.5t-31 71.5zM250 262q0 -61 56 -105t147 -44q100 0 172 32q37 16 55 41t21.5 41.5t3.5 46.5v172 q-227 -8 -341 -59t-114 -125zM643 1147q0 43 29.5 73.5t72.5 30.5q41 0 72 -29.5t31 -72.5t-28.5 -72.5t-74 -29.5t-74 29.5t-28.5 70.5z" />
<glyph unicode="&#xe5;" horiz-adv-x="1044" d="M109 262q0 139 158.5 220t437.5 85q0 104 -68 156.5t-184 52.5q-51 0 -76 -2t-30 -6t-5 -16q-2 -49 -29.5 -72t-60.5 -23q-39 0 -65.5 25t-26.5 70q0 150 291 149q197 0 296 -95t99 -222v-443q37 -16 115 -16q82 0 81 -62q0 -31 -15 -45t-32.5 -16t-52.5 -2 q-170 0 -215 66q-113 -78 -291 -78q-143 0 -235 80.5t-92 193.5zM238 1147q0 74 69.5 126t169.5 52q96 0 167 -51t71 -127q0 -68 -66.5 -123t-173.5 -55q-96 0 -166.5 51t-70.5 127zM250 262q0 -61 56 -105t147 -44q100 0 172 32q37 16 55 41t21.5 41.5t3.5 46.5v172 q-227 -8 -341 -59t-114 -125zM358 1149q0 -47 37 -77t82 -30q51 0 84 32t33 73t-32 73.5t-85 32.5q-55 0 -87 -32.5t-32 -71.5z" />
<glyph unicode="&#xe6;" d="M106 244q0 76 56.5 131t151 82.5t190.5 41t201 13.5v57q2 102 -68 152.5t-176 50.5q-72 0 -121 -8v-14q0 -41 -26.5 -68t-63.5 -27t-63.5 26t-26.5 69q0 84 78.5 116.5t228.5 32.5q133 0 216 -50t120 -112q147 162 327 162q172 0 266.5 -123t94.5 -311q0 -74 -72 -74 h-567q25 -135 120 -205.5t197 -70.5q129 0 177 110q0 2 2 8.5t4 9.5t6 10t9 11t12 8t16.5 6.5t21.5 2.5q72 0 74 -56q-2 -72 -92 -153.5t-240 -81.5q-199 0 -346 157q-43 -84 -147.5 -120.5t-229.5 -36.5q-152 0 -241 77t-89 177zM250 244q0 -53 56 -91t147 -38 q152 0 235 67q27 35 27 72q0 55 -8 133q-127 -4 -220.5 -18.5t-142.5 -36t-71.5 -43.5t-22.5 -45zM854 516h492q-12 139 -75 197.5t-143 58.5q-92 0 -169.5 -66.5t-104.5 -189.5z" />
<glyph unicode="&#xe7;" horiz-adv-x="956" d="M88 440q0 184 128 321.5t327 137.5h24q303 0 303 -147q0 -39 -25.5 -68t-66.5 -29q-35 0 -62.5 27t-27.5 66v16q-57 8 -137 8q-150 0 -235 -100.5t-85 -229.5q0 -133 91.5 -229t232.5 -96q135 0 186 96q2 6 8.5 19.5t10.5 19.5t11 14t19.5 11.5t30.5 3.5q29 0 47.5 -12.5 t21.5 -24t3 -19.5q0 -14 -11.5 -42.5t-39 -67.5t-90 -73t-146.5 -48v-14q72 -18 126 -68.5t54 -130.5q0 -94 -81 -150q-86 -57 -324 -57h-23q-74 0 -73 61q0 41 34 58q12 6 97.5 7t155 17.5t69.5 63.5q0 27 -24.5 49.5t-69.5 30.5q-4 0 -14.5 1t-15.5 2t-13 3t-11.5 4 t-9.5 6t-9 10.5t-6 15.5t-4 20t-1 26v47q-172 29 -273.5 157.5t-101.5 286.5z" />
<glyph unicode="&#xe8;" horiz-adv-x="954" d="M78 446q0 186 125 320.5t305 134.5q182 0 284.5 -122t102.5 -312q0 -27 -6 -43t-19.5 -23.5t-24.5 -8.5t-32 -1h-590q20 -123 114.5 -200.5t213.5 -77.5q154 0 205 123q10 29 24.5 37t42.5 8q72 0 72 -58q0 -63 -93 -149t-263 -86q-193 0 -327 134t-134 324zM225 514h525 q-10 143 -80 202.5t-162 59.5q-102 0 -182.5 -73.5t-100.5 -188.5zM340 1237q0 31 21.5 51.5t48.5 20.5h4q12 0 305 -127q57 -27 57 -64q0 -27 -19.5 -54.5t-47.5 -27.5h-2q-10 0 -303 127q-20 10 -28.5 15.5t-22 22t-13.5 36.5z" />
<glyph unicode="&#xe9;" horiz-adv-x="954" d="M78 446q0 186 125 320.5t305 134.5q182 0 284.5 -122t102.5 -312q0 -27 -6 -43t-19.5 -23.5t-24.5 -8.5t-32 -1h-590q20 -123 114.5 -200.5t213.5 -77.5q154 0 205 123q10 29 24.5 37t42.5 8q72 0 72 -58q0 -63 -93 -149t-263 -86q-193 0 -327 134t-134 324zM225 514h525 q-10 143 -80 202.5t-162 59.5q-102 0 -182.5 -73.5t-100.5 -188.5zM236 1118q0 20 12 34.5t19 18t28 13.5q287 125 305 125q27 0 48.5 -20.5t21.5 -51.5q0 -49 -62 -74q-291 -127 -305 -127q-31 0 -49 27.5t-18 54.5z" />
<glyph unicode="&#xea;" horiz-adv-x="954" d="M78 446q0 186 125 320.5t305 134.5q182 0 284.5 -122t102.5 -312q0 -27 -6 -43t-19.5 -23.5t-24.5 -8.5t-32 -1h-590q20 -123 114.5 -200.5t213.5 -77.5q154 0 205 123q10 29 24.5 37t42.5 8q72 0 72 -58q0 -63 -93 -149t-263 -86q-193 0 -327 134t-134 324zM143 1079 q0 33 45 62q258 172 273 176q6 2 14 2h2q16 0 174 -105q68 -45 111 -73q47 -31 47 -64q0 -23 -21.5 -50.5t-50.5 -27.5h-4q-23 0 -133.5 82t-124.5 82q-10 0 -63 -39q-162 -117 -181 -123q-8 -2 -16 -2q-29 0 -50.5 27.5t-21.5 52.5zM225 514h525q-10 143 -80 202.5 t-162 59.5q-102 0 -182.5 -73.5t-100.5 -188.5z" />
<glyph unicode="&#xeb;" horiz-adv-x="954" d="M78 446q0 186 125 320.5t305 134.5q182 0 284.5 -122t102.5 -312q0 -27 -6 -43t-19.5 -23.5t-24.5 -8.5t-32 -1h-590q20 -123 114.5 -200.5t213.5 -77.5q154 0 205 123q10 29 24.5 37t42.5 8q72 0 72 -58q0 -63 -93 -149t-263 -86q-193 0 -327 134t-134 324zM164 1147 q0 43 30.5 73.5t71.5 30.5t72 -29.5t31 -72.5t-30 -72.5t-73 -29.5q-45 0 -73.5 29.5t-28.5 70.5zM225 514h525q-10 143 -80 202.5t-162 59.5q-102 0 -182.5 -73.5t-100.5 -188.5zM582 1147q0 43 29.5 73.5t72.5 30.5q45 0 73.5 -30.5t28.5 -71.5q0 -43 -28.5 -72.5 t-73.5 -29.5t-73.5 29.5t-28.5 70.5z" />
<glyph unicode="&#xec;" horiz-adv-x="598" d="M-14 1237q0 31 21.5 51.5t47.5 20.5h4q12 0 306 -127q57 -27 57 -62q0 -20 -16.5 -52t-51.5 -32h-4q-8 0 -301 127q-63 29 -63 74zM35 63.5q0 63.5 76 63.5h116v629h-114q-33 2 -51.5 19.5t-18.5 41.5q0 63 74 64h180q20 0 32.5 -3.5t27 -20.5t14.5 -50v-680h98 q76 0 76 -63.5t-74 -63.5h-362q-74 0 -74 63.5z" />
<glyph unicode="&#xed;" horiz-adv-x="595" d="M35 61q0 29 15.5 44.5t28.5 17.5t38 2h110v633h-100q-84 0 -84 63q0 61 84 62h160q51 0 66.5 -17.5t15.5 -66.5v-674h90q84 0 84 -64q0 -61 -82 -61h-344q-82 0 -82 61zM115 1118q0 41 61 66q285 125 303 125q31 0 51.5 -21.5t20.5 -50.5q0 -45 -62 -74 q-289 -127 -305 -127q-35 0 -52 31t-17 51z" />
<glyph unicode="&#xee;" horiz-adv-x="598" d="M-33 1079q0 31 45 62q258 172 273 176q6 2 14 2h2q16 0 174 -105q68 -45 113 -73q45 -31 45 -64q0 -20 -21.5 -49t-50.5 -29h-4q-23 0 -133.5 82t-124.5 82q-10 0 -63 -39q-23 -14 -45.5 -30.5t-36 -26.5t-28.5 -21.5t-23.5 -16.5t-17.5 -11t-15.5 -9t-11.5 -5.5 t-10 -3.5t-9 -1q-29 0 -50.5 28.5t-21.5 51.5zM35 63.5q0 63.5 76 63.5h116v629h-114q-33 2 -50.5 19.5t-17.5 41.5q0 63 72 64h182q20 0 32.5 -3.5t26 -20.5t13.5 -50v-680h100q74 0 74 -63.5t-74 -63.5h-362q-74 0 -74 63.5z" />
<glyph unicode="&#xef;" horiz-adv-x="716" d="M45 1149q0 43 30.5 72.5t71.5 29.5q45 0 74 -30.5t29 -71.5q0 -39 -30 -70.5t-73 -31.5q-41 0 -71.5 29.5t-30.5 72.5zM94 61q0 29 15.5 44.5t29 17.5t37.5 2h111v633h-101q-84 0 -84 63q0 61 84 62h160q51 0 66.5 -17.5t15.5 -66.5v-674h90q84 0 84 -64q0 -61 -82 -61 h-344q-82 0 -82 61zM463 1149q0 39 29.5 70.5t72.5 31.5q41 0 72 -29.5t31 -72.5t-31 -72.5t-72 -29.5q-45 0 -73.5 31.5t-28.5 70.5z" />
<glyph unicode="&#xf0;" horiz-adv-x="1075" d="M76 440.5q0 184.5 132 321.5t329 137q117 0 237 -68q-70 117 -209 211q-92 -51 -106 -51q-25 0 -45.5 21.5t-20.5 50.5q0 27 19 47q-82 23 -154 23q-37 0 -70.5 -4.5t-37.5 -4.5q-25 0 -42.5 17.5t-17.5 40.5q0 80 180 80q70 0 137.5 -14.5t107.5 -30t44 -15.5 q12 0 52 23.5t63 23.5q25 0 44 -23.5t19 -49.5q0 -35 -41 -56q299 -225 299 -575v-88q2 -207 -137 -337t-323 -130q-195 0 -327 133t-132 317.5zM219 457q0 -141 93.5 -241.5t222.5 -100.5q137 0 227 104.5t90 229t-91 224t-226 99.5q-125 0 -220.5 -89t-95.5 -226z" />
<glyph unicode="&#xf1;" horiz-adv-x="1193" d="M35 61q0 29 15.5 44.5t28.5 17.5t38 2h110v633h-110q-82 0 -82 61q0 29 15.5 44.5t28.5 17.5t38 2h170q57 0 69.5 -20.5t12.5 -84.5q127 117 301 117q295 0 295 -299v-471h110q25 0 38 -2t28.5 -17.5t15.5 -44.5q0 -61 -82 -61h-362q-25 0 -38 2t-28.5 17.5t-15.5 43.5 q0 61 82 62h110v459q0 96 -32.5 141t-133.5 45q-63 0 -125.5 -24.5t-112.5 -92t-50 -168.5v-360h110q25 0 38 -2t28.5 -17.5t15.5 -44.5q0 -61 -82 -61h-362q-82 0 -82 61zM240 1071q0 27 34 57q133 123 226 123q49 0 87 -27.5t65.5 -55t47.5 -27.5q35 0 101.5 54t87.5 54 q25 0 44 -18.5t19 -45t-30 -57.5q-129 -123 -228 -122q-63 0 -122.5 54t-79.5 54q-35 0 -101.5 -54t-87.5 -54q-27 0 -45 20t-18 45z" />
<glyph unicode="&#xf2;" horiz-adv-x="1075" d="M78 442q0 188 134 323.5t324.5 135.5t324.5 -135t134 -324q0 -190 -134 -322t-324.5 -132t-324.5 132t-134 322zM219 457q0 -141 92 -242.5t226 -101.5q131 0 224 101t93 243q0 135 -94 227t-223 92t-223.5 -92t-94.5 -227zM340 1237q0 31 21.5 51.5t48.5 20.5h4 q12 0 305 -127q57 -27 57 -64q0 -27 -19.5 -54.5t-47.5 -27.5h-2q-10 0 -303 127q-20 10 -28.5 15.5t-22 22t-13.5 36.5z" />
<glyph unicode="&#xf3;" horiz-adv-x="1075" d="M78 442q0 188 134 323.5t324.5 135.5t324.5 -135t134 -324q0 -190 -134 -322t-324.5 -132t-324.5 132t-134 322zM219 457q0 -141 92 -242.5t226 -101.5q131 0 224 101t93 243q0 135 -94 227t-223 92t-223.5 -92t-94.5 -227zM295 1118q0 20 12 34.5t19.5 18t27.5 13.5 q287 125 305 125q27 0 48.5 -20.5t21.5 -51.5q0 -49 -61 -74q-291 -127 -306 -127q-31 0 -49 27.5t-18 54.5z" />
<glyph unicode="&#xf4;" horiz-adv-x="1075" d="M78 442q0 188 134 323.5t324.5 135.5t324.5 -135t134 -324q0 -190 -134 -322t-324.5 -132t-324.5 132t-134 322zM203 1079q0 33 45 62q258 172 272 176q6 2 15 2h2q14 0 49 -21.5t235 -154.5q47 -29 47 -66q0 -23 -21.5 -50.5t-49.5 -27.5h-4q-23 0 -133.5 82t-124.5 82 q-10 0 -64 -39q-162 -117 -180 -123q-8 -2 -17 -2q-29 0 -50 27.5t-21 52.5zM219 457q0 -141 92 -242.5t226 -101.5q131 0 224 101t93 243q0 135 -94 227t-223 92t-223.5 -92t-94.5 -227z" />
<glyph unicode="&#xf5;" horiz-adv-x="1075" d="M78 442q0 188 134 323.5t324.5 135.5t324.5 -135t134 -324q0 -190 -134 -322t-324.5 -132t-324.5 132t-134 322zM178 1071q0 27 35 57q133 123 225 123q47 0 86 -27.5t66.5 -55t48.5 -27.5q37 0 102.5 54t85.5 54q25 0 45.5 -18.5t20.5 -44.5q0 -25 -33 -58 q-129 -123 -227 -122q-63 0 -122.5 54t-80.5 54q-35 0 -100.5 -54t-85.5 -54q-27 0 -46.5 21t-19.5 44zM219 457q0 -141 92 -242.5t226 -101.5q131 0 224 101t93 243q0 135 -94 227t-223 92t-223.5 -92t-94.5 -227z" />
<glyph unicode="&#xf6;" horiz-adv-x="1075" d="M78 442q0 188 134 323.5t324.5 135.5t324.5 -135t134 -324q0 -190 -134 -322t-324.5 -132t-324.5 132t-134 322zM219 457q0 -141 92 -242.5t226 -101.5q131 0 224 101t93 243q0 135 -94 227t-223 92t-223.5 -92t-94.5 -227zM223 1147q0 43 30 73.5t73 30.5 q41 0 71.5 -29.5t30.5 -72.5t-29.5 -72.5t-72.5 -29.5q-41 0 -72 28.5t-31 71.5zM641 1147q0 43 29.5 73.5t72.5 30.5q41 0 72 -29.5t31 -72.5t-28.5 -72.5t-74 -29.5t-74 29.5t-28.5 70.5z" />
<glyph unicode="&#xf7;" horiz-adv-x="1671" d="M119 625q0 14 5 28.5t24.5 28.5t52.5 14h1263q86 0 86 -69q0 -14 -4 -27.5t-24.5 -29t-55.5 -15.5h-1259q-51 0 -69.5 22.5t-18.5 47.5zM719 272q0 47 33.5 82t81 35t82 -33.5t34.5 -83.5q0 -47 -33.5 -80.5t-80.5 -33.5q-45 0 -81 33.5t-36 80.5zM719 979q0 47 33.5 81 t81 34t82 -33t34.5 -82q0 -47 -33.5 -82t-80.5 -35q-45 0 -81 34t-36 83z" />
<glyph unicode="&#xf8;" horiz-adv-x="1075" d="M86 -225q0 18 109 202q39 68 63 111q-168 131 -168 352q0 193 132 326t315 133q68 0 172 -35q4 10 14 26.5t45 75t82 142.5q2 2 9 15.5t11 18.5t11.5 13t16.5 11t22 3q23 0 44 -17t21 -44q0 -18 -26.5 -65.5t-71.5 -122t-70 -123.5q164 -135 164 -357q0 -190 -131 -320 t-313 -130q-92 0 -170 33q-160 -274 -172 -291q-16 -18 -41 -18.5t-46.5 17t-21.5 44.5zM207 440q0 -147 115 -245l323 559q-55 18 -108 18q-133 0 -231.5 -95.5t-98.5 -236.5zM430 133q55 -18 105 -18q139 0 235 97t96 228q0 139 -110 250h-2z" />
<glyph unicode="&#xf9;" horiz-adv-x="1193" d="M35 819q0 29 15.5 44.5t28.5 17.5t38 2h170q51 0 66.5 -17.5t15.5 -66.5v-551q0 -33 3 -49.5t19.5 -40t57 -34.5t106.5 -11q37 0 74 6t85 24.5t78.5 64.5t30.5 114v436h-110q-25 0 -38 2t-28.5 17.5t-15.5 43.5q0 61 82 62h170q51 0 66.5 -17.5t15.5 -66.5v-674h110 q25 0 38 -2t28.5 -17.5t15.5 -44.5q0 -61 -82 -61h-170q-27 0 -40 2t-27.5 19.5t-14.5 50.5q-109 -84 -280 -84q-315 0 -316 248v522h-110q-82 0 -82 61zM371 1237q0 31 21.5 51.5t48.5 20.5h4q12 0 305 -127q57 -27 57 -64q0 -27 -19.5 -54.5t-47.5 -27.5h-2 q-10 0 -303 127q-20 10 -28.5 15.5t-22 22t-13.5 36.5z" />
<glyph unicode="&#xfa;" horiz-adv-x="1193" d="M35 819q0 29 15.5 44.5t28.5 17.5t38 2h170q51 0 66.5 -17.5t15.5 -66.5v-551q0 -33 3 -49.5t19.5 -40t57 -34.5t106.5 -11q37 0 74 6t85 24.5t78.5 64.5t30.5 114v436h-110q-25 0 -38 2t-28.5 17.5t-15.5 43.5q0 61 82 62h170q51 0 66.5 -17.5t15.5 -66.5v-674h110 q25 0 38 -2t28.5 -17.5t15.5 -44.5q0 -61 -82 -61h-170q-27 0 -40 2t-27.5 19.5t-14.5 50.5q-109 -84 -280 -84q-315 0 -316 248v522h-110q-82 0 -82 61zM356 1118q0 20 12.5 34.5t19.5 18t28 13.5q287 125 305 125q27 0 48.5 -20.5t21.5 -51.5q0 -49 -62 -74 q-291 -127 -305 -127q-31 0 -49.5 27.5t-18.5 54.5z" />
<glyph unicode="&#xfb;" horiz-adv-x="1193" d="M35 819q0 29 15.5 44.5t28.5 17.5t38 2h170q51 0 66.5 -17.5t15.5 -66.5v-551q0 -33 3 -49.5t19.5 -40t57 -34.5t106.5 -11q37 0 74 6t85 24.5t78.5 64.5t30.5 114v436h-110q-25 0 -38 2t-28.5 17.5t-15.5 43.5q0 61 82 62h170q51 0 66.5 -17.5t15.5 -66.5v-674h110 q25 0 38 -2t28.5 -17.5t15.5 -44.5q0 -61 -82 -61h-170q-27 0 -40 2t-27.5 19.5t-14.5 50.5q-109 -84 -280 -84q-315 0 -316 248v522h-110q-82 0 -82 61zM264 1079q0 33 45 62q258 172 272 176q6 2 15 2h2q14 0 49 -21.5t235 -154.5q47 -29 47 -66q0 -23 -21.5 -50.5 t-49.5 -27.5h-4q-23 0 -133.5 82t-124.5 82q-10 0 -64 -39q-162 -117 -180 -123q-8 -2 -17 -2q-29 0 -50 27.5t-21 52.5z" />
<glyph unicode="&#xfc;" horiz-adv-x="1193" d="M35 819q0 29 15.5 44.5t28.5 17.5t38 2h170q51 0 66.5 -17.5t15.5 -66.5v-551q0 -33 3 -49.5t19.5 -40t57 -34.5t106.5 -11q37 0 74 6t85 24.5t78.5 64.5t30.5 114v436h-110q-25 0 -38 2t-28.5 17.5t-15.5 43.5q0 61 82 62h170q51 0 66.5 -17.5t15.5 -66.5v-674h110 q25 0 38 -2t28.5 -17.5t15.5 -44.5q0 -61 -82 -61h-170q-27 0 -40 2t-27.5 19.5t-14.5 50.5q-109 -84 -280 -84q-315 0 -316 248v522h-110q-82 0 -82 61zM285 1149q0 43 29.5 72.5t72.5 29.5q39 0 70.5 -29.5t31.5 -72.5t-28.5 -72.5t-73.5 -29.5q-41 0 -71.5 29.5 t-30.5 72.5zM702 1147q0 43 31 73.5t72 30.5t71.5 -29.5t30.5 -72.5t-29.5 -72.5t-70.5 -29.5q-45 0 -75 30.5t-30 69.5z" />
<glyph unicode="&#xfd;" horiz-adv-x="1134" d="M41 -299q0 41 24.5 65.5t65.5 24.5q37 0 62.5 -24.5t25.5 -65.5q0 -10 -2 -20.5t-2 -12.5q0 -10 31 -10q178 0 243 215q41 117 46 127l-310 758h-84q-84 0 -84 63q0 61 84 62h287q25 0 38 -2t28.5 -17.5t15.5 -44.5q0 -61 -82 -61h-78l195 -488q33 -86 47 -129l201 617 h-84q-82 0 -82 61q0 29 15 44.5t28.5 17.5t38.5 2h288q25 0 38.5 -2t28.5 -17.5t15 -44.5q0 -61 -82 -61h-82l-317 -928q-39 -113 -133 -205t-223 -92q-86 0 -143.5 50t-57.5 118zM444 1118q0 8 2.5 16.5t7.5 14.5t8 10t11 8t10 6.5t13 6.5l10 4q287 125 305 125 q27 0 48.5 -20.5t21.5 -51.5q0 -49 -62 -74q-291 -127 -307 -127q-31 0 -49.5 27.5t-18.5 54.5z" />
<glyph unicode="&#xfe;" horiz-adv-x="1193" d="M32.5 1187.5q0.5 63.5 76.5 63.5h186q37 0 55.5 -16t19.5 -28.5t1 -35.5v-389q131 111 295 111q182 0 310 -131t128 -320q0 -186 -136.5 -319t-324.5 -133q-158 0 -272 119v-437h116q76 0 76 -63.5t-74 -63.5h-383q-73 0 -73 63.5t76 63.5h118v1452h-123 q-72 0 -71.5 63.5zM371 391q0 -86 71.5 -181t190.5 -95q129 0 228.5 93t99.5 232q0 129 -86.5 227.5t-219.5 98.5q-115 0 -199.5 -69.5t-84.5 -151.5v-154z" />
<glyph unicode="&#xff;" horiz-adv-x="1134" d="M41 -299q0 41 24.5 65.5t65.5 24.5q37 0 62.5 -24.5t25.5 -65.5q0 -10 -2 -20.5t-2 -12.5q0 -10 31 -10q178 0 243 215q41 117 46 127l-310 758h-84q-84 0 -84 63q0 61 84 62h287q25 0 38 -2t28.5 -17.5t15.5 -44.5q0 -61 -82 -61h-78l195 -488q33 -86 47 -129l201 617 h-84q-82 0 -82 61q0 29 15 44.5t28.5 17.5t38.5 2h288q25 0 38.5 -2t28.5 -17.5t15 -44.5q0 -61 -82 -61h-82l-317 -928q-39 -113 -133 -205t-223 -92q-86 0 -143.5 50t-57.5 118zM254 1147q0 43 30 73.5t73 30.5q41 0 71.5 -29.5t30.5 -72.5t-29.5 -72.5t-72.5 -29.5 q-41 0 -72 28.5t-31 71.5zM672 1147q0 43 29.5 73.5t72.5 30.5q41 0 72 -29.5t31 -72.5t-28.5 -72.5t-74 -29.5t-74 29.5t-28.5 70.5z" />
<glyph unicode="&#x100;" d="M84 63q0 61 82 62h94l387 1083q12 31 32.5 47.5t35 18.5t41.5 2h39q29 0 43 -2t33.5 -18.5t31.5 -49.5l387 -1081h94q25 0 38.5 -2t28.5 -17.5t15 -44.5q0 -61 -82 -61h-325q-84 0 -84 63q0 61 84 62h82l-82 227h-567l-82 -227h82q84 0 83 -64q0 -61 -83 -61h-326 q-25 0 -38 2t-28.5 17t-15.5 44zM117 1575q0 14 4 27.5t25.5 29t56.5 15.5h1143q35 0 55.5 -15.5t24.5 -30t4 -26.5q0 -25 -18.5 -48.5t-61.5 -23.5h-1143q-90 0 -90 72zM537 477h477l-240 668z" />
<glyph unicode="&#x101;" horiz-adv-x="1044" d="M63 1208q0 66 72 66h635q70 0 70 -66q0 -63 -74 -63h-633q-70 2 -70 63zM109 262q0 139 158.5 220t437.5 85q0 104 -68 156.5t-184 52.5q-51 0 -76 -2t-30 -6t-5 -16q-2 -49 -29.5 -72t-60.5 -23q-39 0 -65.5 25t-26.5 70q0 150 291 149q197 0 296 -95t99 -222v-443 q37 -16 115 -16q82 0 81 -62q0 -31 -15 -45t-32.5 -16t-52.5 -2q-170 0 -215 66q-113 -78 -291 -78q-143 0 -235 80.5t-92 193.5zM250 262q0 -61 56 -105t147 -44q100 0 172 32q37 16 55 41t21.5 41.5t3.5 46.5v172q-227 -8 -341 -59t-114 -125z" />
<glyph unicode="&#x102;" d="M84 63q0 61 82 62h94l387 1083q12 31 32.5 47.5t35 18.5t41.5 2h39q29 0 43 -2t33.5 -18.5t31.5 -49.5l387 -1081h94q25 0 38.5 -2t28.5 -17.5t15 -44.5q0 -61 -82 -61h-325q-84 0 -84 63q0 61 84 62h82l-82 227h-567l-82 -227h82q84 0 83 -64q0 -61 -83 -61h-326 q-25 0 -38 2t-28.5 17t-15.5 44zM385 1614q0 29 17.5 46t46.5 17q18 0 31.5 -6t19.5 -18.5t8 -21.5t4 -21.5t2 -14.5q12 -55 75.5 -91t158.5 -38q84 0 154.5 36t78.5 108q0 68 63 67q25 0 44.5 -15t19.5 -50q0 -115 -102.5 -196t-257.5 -81q-158 0 -260.5 83t-102.5 196z M537 477h477l-240 668z" />
<glyph unicode="&#x103;" horiz-adv-x="1044" d="M109 262q0 139 158.5 220t437.5 85q0 104 -68 156.5t-184 52.5q-51 0 -76 -2t-30 -6t-5 -16q-2 -49 -29.5 -72t-60.5 -23q-39 0 -65.5 25t-26.5 70q0 150 291 149q197 0 296 -95t99 -222v-443q37 -16 115 -16q82 0 81 -62q0 -31 -15 -45t-32.5 -16t-52.5 -2 q-170 0 -215 66q-113 -78 -291 -78q-143 0 -235 80.5t-92 193.5zM176 1245q0 29 17.5 46.5t44.5 17.5q14 0 26 -5.5t18.5 -11.5t10.5 -16t6 -16.5t4 -14.5v-8q23 -84 232 -84q195 0 229 72q2 4 5 20.5t7 28.5t19.5 23.5t38.5 11.5q29 0 46 -17.5t17 -46.5q0 -86 -84 -155.5 t-276.5 -69.5t-276.5 69.5t-84 155.5zM250 262q0 -61 56 -105t147 -44q100 0 172 32q37 16 55 41t21.5 41.5t3.5 46.5v172q-227 -8 -341 -59t-114 -125z" />
<glyph unicode="&#x104;" d="M84 63.5q0 63.5 76 63.5h98l381 1061q16 49 36.5 68.5t67.5 19.5h66q70 0 96 -72l387 -1077h101q76 0 75.5 -63.5t-77.5 -63.5h-13q-57 0 -127.5 -69.5t-70.5 -135.5q0 -61 46 -103t97 -42q53 0 87 55t67 55q25 0 45 -16t22 -43q0 -47 -62.5 -112.5t-160.5 -65.5 q-104 0 -187 77.5t-83 188.5q0 113 94 211h-94q-76 0 -76 63.5t74 63.5h90l-78 223h-569l-80 -223h90q74 0 73.5 -63.5t-71.5 -63.5h-342q-78 0 -78 63.5zM537 475h477l-238 668z" />
<glyph unicode="&#x105;" horiz-adv-x="1044" d="M106 264q0 86 58.5 149.5t155 94.5t190.5 45t192 14q2 109 -70.5 157t-170.5 48q-70 0 -121 -8v-12q0 -43 -24.5 -70t-65.5 -27q-37 0 -63.5 27t-26.5 68q0 113 141 139q55 10 139 10h13l84 -4q27 -4 58.5 -12.5t78.5 -32t83 -56t62.5 -91t26.5 -132.5v-430 q37 -14 127 -14h2q35 0 51 -19.5t16 -44.5q0 -63 -71 -63h-33q-53 0 -123 -67.5t-70 -137.5q0 -59 45.5 -102t96.5 -43q41 0 65.5 28.5t43 56t46.5 27.5q25 0 45.5 -18t20.5 -43q0 -45 -62.5 -111.5t-160.5 -66.5q-104 0 -187.5 80t-83.5 188q0 137 138 246l-27 29 q-129 -76 -289 -76q-152 0 -241 84t-89 190zM250 264q0 -63 58.5 -106t142.5 -43q53 0 105 10t99 46t47 93v182q-199 -4 -325.5 -53t-126.5 -129z" />
<glyph unicode="&#x106;" d="M119 627q0 262 206.5 454.5t510.5 192.5q272 0 434 -127q27 57 37 76q12 29 24 40t39 11q61 0 62 -84v-285q0 -27 -2.5 -41t-19.5 -28.5t-50 -14.5q-57 0 -68 47q-10 43 -19 68t-44 68t-92 75q-119 70 -287 70q-250 0 -420 -155.5t-170 -366.5q0 -213 170 -369t424 -156 q176 0 291 58q47 23 77.5 49.5t44 55t17.5 45t6 42.5q4 59 70 60q72 0 72 -68q0 -160 -161 -263.5t-431 -103.5q-309 0 -515 193t-206 457zM625 1489q0 20 13.5 34.5t22.5 19t30 10.5q295 100 307 100q27 0 48 -20.5t21 -51.5q0 -53 -65 -73q-303 -102 -311 -103 q-35 0 -50.5 29.5t-15.5 54.5z" />
<glyph unicode="&#x107;" horiz-adv-x="954" d="M90 442q0 74 25.5 149t79 147.5t149.5 117.5t221 45q305 0 305 -149q0 -43 -26.5 -69t-65.5 -26q-88 0 -90 101q0 18 -123 18q-96 0 -166.5 -37t-104.5 -94t-48.5 -107.5t-14.5 -95.5q0 -139 95.5 -234t226.5 -95q145 0 203 123q10 29 24.5 37t42.5 8q72 0 72 -58 q0 -18 -16.5 -52t-52 -78t-111.5 -74.5t-174 -30.5q-190 0 -320.5 134t-130.5 320zM324 1118q0 8 2 16.5t7 14.5t8 10t11 8t10.5 6.5t12.5 6.5l10 4q287 125 305 125q27 0 48.5 -20.5t21.5 -51.5q0 -49 -62 -74q-291 -127 -305 -127q-31 0 -50 27.5t-19 54.5z" />
<glyph unicode="&#x108;" d="M119 627q0 262 206.5 454.5t510.5 192.5q272 0 434 -127q27 57 37 76q12 29 24 40t39 11q61 0 62 -84v-285q0 -27 -2.5 -41t-19.5 -28.5t-50 -14.5q-57 0 -68 47q-10 43 -19 68t-44 68t-92 75q-119 70 -287 70q-250 0 -420 -155.5t-170 -366.5q0 -213 170 -369t424 -156 q176 0 291 58q47 23 77.5 49.5t44 55t17.5 45t6 42.5q4 59 70 60q72 0 72 -68q0 -160 -161 -263.5t-431 -103.5q-309 0 -515 193t-206 457zM502 1427q0 37 37 60q266 201 295 201q14 0 65 -31q43 -33 109 -80q121 -88 141 -107.5t20 -42t-23.5 -50t-49.5 -27.5 q-12 0 -23.5 5t-32 20.5t-42 32.5t-68.5 55t-96 75q-31 -23 -59.5 -46.5t-48 -38.5t-38 -30.5t-31 -24.5t-23.5 -17.5t-17.5 -13.5t-13.5 -9t-11 -5l-8 -2t-8 -1q-29 0 -51.5 26t-22.5 51z" />
<glyph unicode="&#x109;" horiz-adv-x="954" d="M90 442q0 74 25.5 149t79 147.5t149.5 117.5t221 45q305 0 305 -149q0 -43 -26.5 -69t-65.5 -26q-88 0 -90 101q0 18 -123 18q-96 0 -166.5 -37t-104.5 -94t-48.5 -107.5t-14.5 -95.5q0 -139 95.5 -234t226.5 -95q145 0 203 123q10 29 24.5 37t42.5 8q72 0 72 -58 q0 -18 -16.5 -52t-52 -78t-111.5 -74.5t-174 -30.5q-190 0 -320.5 134t-130.5 320zM232 1079q0 33 45 62q258 172 272 176q6 2 15 2h2q14 0 49 -21.5t235 -154.5q47 -29 47 -66q0 -23 -21.5 -50.5t-49.5 -27.5h-4q-23 0 -133.5 82t-124.5 82q-10 0 -64 -39 q-162 -117 -180 -123q-8 -2 -17 -2q-29 0 -50 27.5t-21 52.5z" />
<glyph unicode="&#x10a;" d="M119 627q0 262 206.5 454.5t510.5 192.5q272 0 434 -127q27 57 37 76q12 29 24 40t39 11q61 0 62 -84v-285q0 -27 -2.5 -41t-19.5 -28.5t-50 -14.5q-57 0 -68 47q-10 43 -19 68t-44 68t-92 75q-119 70 -287 70q-250 0 -420 -155.5t-170 -366.5q0 -213 170 -369t424 -156 q176 0 291 58q47 23 77.5 49.5t44 55t17.5 45t6 42.5q4 59 70 60q72 0 72 -68q0 -160 -161 -263.5t-431 -103.5q-309 0 -515 193t-206 457zM733 1479q0 43 32 72.5t71 29.5q41 0 71.5 -29.5t30.5 -72.5t-29.5 -73t-68.5 -30q-45 0 -76 30t-31 73z" />
<glyph unicode="&#x10b;" horiz-adv-x="954" d="M90 442q0 74 25.5 149t79 147.5t149.5 117.5t221 45q305 0 305 -149q0 -43 -26.5 -69t-65.5 -26q-88 0 -90 101q0 18 -123 18q-96 0 -166.5 -37t-104.5 -94t-48.5 -107.5t-14.5 -95.5q0 -139 95.5 -234t226.5 -95q145 0 203 123q10 29 24.5 37t42.5 8q72 0 72 -58 q0 -18 -16.5 -52t-52 -78t-111.5 -74.5t-174 -30.5q-190 0 -320.5 134t-130.5 320zM463 1149q0 43 31 72.5t72 29.5t71.5 -29.5t30.5 -72.5t-30.5 -72.5t-69.5 -29.5q-45 0 -75 29.5t-30 72.5z" />
<glyph unicode="&#x10c;" d="M119 627q0 262 206.5 454.5t510.5 192.5q272 0 434 -127q27 57 37 76q12 29 24 40t39 11q61 0 62 -84v-285q0 -27 -2.5 -41t-19.5 -28.5t-50 -14.5q-57 0 -68 47q-10 43 -19 68t-44 68t-92 75q-119 70 -287 70q-250 0 -420 -155.5t-170 -366.5q0 -213 170 -369t424 -156 q176 0 291 58q47 23 77.5 49.5t44 55t17.5 45t6 42.5q4 59 70 60q72 0 72 -68q0 -160 -161 -263.5t-431 -103.5q-309 0 -515 193t-206 457zM553 1587.5q0 24.5 18.5 42t40.5 17.5q18 0 38 -15.5t89 -77.5q37 -33 62 -55l47 -43h2q14 14 168 152q47 39 67 39q23 0 41.5 -17.5 t18.5 -42.5q0 -27 -29 -55q-190 -182 -217 -205.5t-49.5 -23.5t-49 23.5t-216.5 205.5q-31 31 -31 55.5z" />
<glyph unicode="&#x10d;" horiz-adv-x="954" d="M90 442q0 74 25.5 149t79 147.5t149.5 117.5t221 45q305 0 305 -149q0 -43 -26.5 -69t-65.5 -26q-88 0 -90 101q0 18 -123 18q-96 0 -166.5 -37t-104.5 -94t-48.5 -107.5t-14.5 -95.5q0 -139 95.5 -234t226.5 -95q145 0 203 123q10 29 24.5 37t42.5 8q72 0 72 -58 q0 -18 -16.5 -52t-52 -78t-111.5 -74.5t-174 -30.5q-190 0 -320.5 134t-130.5 320zM193 1249q0 25 18 42.5t41 17.5q27 0 126 -79t109 -79q12 0 111.5 79t126.5 79q25 0 43 -19.5t18 -40.5q0 -23 -16 -40t-108 -93q-72 -59 -121 -100q-31 -25 -52 -25h-6q-12 0 -42.5 23.5 t-207.5 171.5q-40 32 -40 63z" />
<glyph unicode="&#x10e;" horiz-adv-x="1611" d="M94 61q0 29 15.5 44.5t29 17.5t37.5 2h111v1001h-111q-82 0 -82 62q0 29 15.5 44t29 17t37.5 2h660q270 0 462.5 -187t192.5 -450q0 -252 -191.5 -433t-463.5 -181h-660q-82 0 -82 61zM428 125h371q231 0 391 144.5t160 346.5q0 205 -159 357.5t-394 152.5h-369v-1001z M430 1589q0 23 18.5 40.5t40.5 17.5q18 0 38 -14.5t89 -78.5q37 -35 62 -55l47 -43h2q14 14 168 152q47 39 68 39q23 0 41 -17.5t18 -42.5q0 -27 -29 -55q-190 -182 -216.5 -205.5t-49 -23.5t-49.5 23.5t-217 205.5q-31 30 -31 57z" />
<glyph unicode="&#x10f;" horiz-adv-x="1429" d="M90 440q0 190 134 322.5t325 132.5q156 0 274 -104v335h-110q-25 0 -38 2t-28.5 17.5t-15.5 44.5q0 61 82 61h170q51 0 66.5 -17t15.5 -67v-1042h110q25 0 38 -2t28.5 -17.5t15.5 -44.5q0 -61 -82 -61h-170q-51 0 -66.5 17.5t-15.5 66.5v35q-121 -131 -297 -131 q-178 0 -307 132t-129 320zM231 440q0 -135 89.5 -231t216.5 -96q123 0 204.5 94t81.5 196v136q0 92 -78.5 161.5t-185.5 69.5q-133 0 -230.5 -96.5t-97.5 -233.5zM1010 967q0 12 5 23t13 18.5t16.5 11.5t14.5 8l6 2q37 18 59 60q-53 4 -75.5 38.5t-22.5 65.5 q0 43 29.5 71.5t74.5 28.5q57 0 94.5 -45t37.5 -108q0 -102 -69 -171t-120 -69q-23 0 -43 19.5t-20 46.5z" />
<glyph unicode="&#x110;" horiz-adv-x="1611" d="M92 63.5q0 63.5 76 63.5h119v424h-127q-68 2 -68 63q0 63 78 64h117v446h-125q-70 2 -70 64q0 63 74 63h653q301 0 486.5 -192.5t185.5 -444.5q0 -244 -172 -414.5t-414 -195.5q-33 -4 -98 -4h-643q-72 0 -72 63.5zM430 127h342q160 0 277 51q121 53 210 169t89 267 q0 193 -137.5 338.5t-342.5 167.5q-33 4 -98 4h-340v-446h389q74 0 74 -63.5t-74 -63.5h-389v-424z" />
<glyph unicode="&#x111;" horiz-adv-x="1193" d="M88 438q0 186 134 320.5t325 134.5q152 0 274 -102v155h-444q-76 0 -76 62q0 63 76 63h444v53h-121q-72 0 -71.5 63.5t76.5 63.5h184q37 0 54.5 -15t19.5 -28.5t2 -40.5v-96h125q70 -2 69 -63q0 -37 -33 -56q-10 -6 -57 -6h-104v-819h122q72 0 72 -63.5t-72 -63.5h-190 q-37 0 -55.5 16.5t-19.5 27.5t-1 36v39q-129 -129 -295 -129q-184 0 -311 134t-127 314zM231 440q0 -137 90.5 -231t213.5 -94q117 0 201.5 90t84.5 205v137q0 80 -77.5 149.5t-184.5 69.5q-133 0 -230.5 -93.5t-97.5 -232.5z" />
<glyph unicode="&#x112;" horiz-adv-x="1433" d="M76 1575q0 14 4 27.5t25.5 29t56.5 15.5h1143q35 0 55.5 -15.5t24.5 -30t4 -26.5q0 -25 -18.5 -48.5t-61.5 -23.5h-1143q-90 0 -90 72zM94 61q0 29 15.5 44.5t29 17.5t37.5 2h111v1001h-111q-82 0 -82 62q0 29 15.5 44t29 17t37.5 2h1055q51 0 66.5 -17t15.5 -67v-149 q0 -27 -2 -41t-19.5 -28.5t-50.5 -14.5q-47 0 -58.5 21.5t-11.5 62.5v108h-743v-415h408q0 51 3 70.5t18 32.5t50 13q47 0 58.5 -21.5t11.5 -62.5v-190q0 -27 -2 -41t-18.5 -28.5t-49.5 -14.5q-49 0 -60 22.5t-11 94.5h-408v-461h803v141q0 27 2 41.5t19.5 28.5t50.5 14 q47 0 58 -21.5t11 -62.5v-182q0 -49 -16.5 -66.5t-65.5 -17.5h-1114q-82 0 -82 61z" />
<glyph unicode="&#x113;" horiz-adv-x="954" d="M78 446q0 186 125 320.5t305 134.5q182 0 284.5 -122t102.5 -312q0 -27 -6 -43t-19.5 -23.5t-24.5 -8.5t-32 -1h-590q20 -123 114.5 -200.5t213.5 -77.5q154 0 205 123q10 29 24.5 37t42.5 8q72 0 72 -58q0 -63 -93 -149t-263 -86q-193 0 -327 134t-134 324zM121 1208 q0 66 72 66h635q70 0 70 -66q0 -63 -74 -63h-633q-70 2 -70 63zM225 514h525q-10 143 -80 202.5t-162 59.5q-102 0 -182.5 -73.5t-100.5 -188.5z" />
<glyph unicode="&#x116;" horiz-adv-x="1433" d="M94 61q0 29 15.5 44.5t29 17.5t37.5 2h111v1001h-111q-82 0 -82 62q0 29 15.5 44t29 17t37.5 2h1055q51 0 66.5 -17t15.5 -67v-149q0 -27 -2 -41t-19.5 -28.5t-50.5 -14.5q-47 0 -58.5 21.5t-11.5 62.5v108h-743v-415h408q0 51 3 70.5t18 32.5t50 13q47 0 58.5 -21.5 t11.5 -62.5v-190q0 -27 -2 -41t-18.5 -28.5t-49.5 -14.5q-49 0 -60 22.5t-11 94.5h-408v-461h803v141q0 27 2 41.5t19.5 28.5t50.5 14q47 0 58 -21.5t11 -62.5v-182q0 -49 -16.5 -66.5t-65.5 -17.5h-1114q-82 0 -82 61zM631 1479q0 43 32 72.5t71 29.5q41 0 71.5 -29.5 t30.5 -72.5t-29.5 -73t-68.5 -30q-45 0 -76 30t-31 73z" />
<glyph unicode="&#x117;" horiz-adv-x="954" d="M78 446q0 186 125 320.5t305 134.5q182 0 284.5 -122t102.5 -312q0 -27 -6 -43t-19.5 -23.5t-24.5 -8.5t-32 -1h-590q20 -123 114.5 -200.5t213.5 -77.5q154 0 205 123q10 29 24.5 37t42.5 8q72 0 72 -58q0 -63 -93 -149t-263 -86q-193 0 -327 134t-134 324zM225 514h525 q-10 143 -80 202.5t-162 59.5q-102 0 -182.5 -73.5t-100.5 -188.5zM405 1149q0 43 31 72.5t72 29.5t71.5 -29.5t30.5 -72.5t-30.5 -72.5t-69.5 -29.5q-45 0 -75 29.5t-30 72.5z" />
<glyph unicode="&#x118;" horiz-adv-x="1433" d="M92 63.5q0 63.5 76 63.5h119v997h-117q-78 0 -78 63.5t76 63.5h1071q35 0 53.5 -16t19.5 -28.5t1 -35.5v-167q2 -72 -68 -72h-4q-70 0 -72 67v125h-739v-413h406v41q0 76 65 75h6q18 0 29.5 -2t26 -20.5t14.5 -52.5v-209q0 -74 -68 -74h-6q-68 0 -67 76v41h-406v-459h799 v154q0 72 67 71h4q72 0 72 -76v-202q0 -23 -3 -35t-20.5 -25.5t-50.5 -13.5h-106q-53 0 -125 -67.5t-72 -139.5q0 -59 44 -101t98 -42q51 0 88 55t67 55q27 0 46.5 -17t19.5 -44q0 -43 -62.5 -109.5t-160.5 -66.5q-104 0 -187.5 77.5t-83.5 188.5q0 113 94 211h-788 q-78 0 -78 63.5z" />
<glyph unicode="&#x119;" horiz-adv-x="956" d="M76 444q0 190 127 322.5t303 132.5q164 0 275.5 -110.5t111.5 -325.5q0 -72 -78 -72h-592q25 -135 122 -205.5t204 -70.5q76 0 127 33.5t72 78.5q12 29 26 41.5t45 12.5q72 0 72 -56q0 -74 -88 -149q-29 -25 -113 -77t-124 -98t-40 -108q0 -59 44 -101t98 -42 q41 0 64.5 27.5t43 55t47.5 27.5q27 0 46.5 -17t19.5 -44q0 -43 -61.5 -109.5t-161.5 -66.5q-104 0 -187.5 77.5t-83.5 188.5q0 104 86 203q-174 18 -289.5 148t-115.5 304zM225 516h520q-12 139 -81.5 197.5t-157.5 58.5q-92 0 -173 -65.5t-108 -190.5z" />
<glyph unicode="&#x11a;" horiz-adv-x="1433" d="M94 61q0 29 15.5 44.5t29 17.5t37.5 2h111v1001h-111q-82 0 -82 62q0 29 15.5 44t29 17t37.5 2h1055q51 0 66.5 -17t15.5 -67v-149q0 -27 -2 -41t-19.5 -28.5t-50.5 -14.5q-47 0 -58.5 21.5t-11.5 62.5v108h-743v-415h408q0 51 3 70.5t18 32.5t50 13q47 0 58.5 -21.5 t11.5 -62.5v-190q0 -27 -2 -41t-18.5 -28.5t-49.5 -14.5q-49 0 -60 22.5t-11 94.5h-408v-461h803v141q0 27 2 41.5t19.5 28.5t50.5 14q47 0 58 -21.5t11 -62.5v-182q0 -49 -16.5 -66.5t-65.5 -17.5h-1114q-82 0 -82 61zM401 1589q0 23 18.5 40.5t41.5 17.5q18 0 37.5 -15.5 t89.5 -77.5q37 -33 61 -55l47 -43h2q14 14 168 152q47 39 68 39q23 0 41 -17.5t18 -42t-30 -55.5q-190 -182 -217 -205.5t-49.5 -23.5t-49 23.5t-217.5 205.5q-29 28 -29 57z" />
<glyph unicode="&#x11b;" horiz-adv-x="954" d="M78 446q0 186 125 320.5t305 134.5q182 0 284.5 -122t102.5 -312q0 -27 -6 -43t-19.5 -23.5t-24.5 -8.5t-32 -1h-590q20 -123 114.5 -200.5t213.5 -77.5q154 0 205 123q10 29 24.5 37t42.5 8q72 0 72 -58q0 -63 -93 -149t-263 -86q-193 0 -327 134t-134 324zM209 1249 q0 25 18.5 42.5t40.5 17.5q27 0 126.5 -79t109.5 -79q12 0 111.5 79t125.5 79q25 0 42.5 -19.5t17.5 -40.5q0 -23 -18.5 -42t-116.5 -101q-66 -53 -109 -90q-31 -25 -51 -25h-8q-16 0 -154 117q-57 47 -94 78q-41 32 -41 63zM225 514h525q-10 143 -80 202.5t-162 59.5 q-102 0 -182.5 -73.5t-100.5 -188.5z" />
<glyph unicode="&#x11c;" horiz-adv-x="1671" d="M119 627q0 262 206.5 454.5t510.5 192.5q272 0 434 -127q27 57 37 76q12 29 24 40t39 11q61 0 62 -84v-285q0 -27 -2.5 -41t-19.5 -28.5t-50 -14.5q-57 0 -68 47q-10 43 -19 68t-44 68t-92 75q-119 70 -287 70q-248 0 -419 -154.5t-171 -369.5t171 -369t411 -154 q166 0 289.5 91.5t152.5 234.5h-180q-25 0 -38 2t-28.5 17.5t-15.5 44.5q0 61 82 61h393q84 0 84 -64q0 -61 -84 -61h-65v-344q0 -27 -2.5 -41t-18.5 -28.5t-49 -14.5t-50.5 14.5t-19.5 28.5t-2 41v74q-180 -180 -459 -181q-295 0 -503.5 191t-208.5 459zM502 1427 q0 37 37 60q266 201 295 201q14 0 65 -31q43 -33 109 -80q121 -88 141 -107.5t20 -42t-23.5 -50t-49.5 -27.5q-12 0 -23.5 5t-32 20.5t-42 32.5t-68.5 55t-96 75q-31 -23 -59.5 -46.5t-48 -38.5t-38 -30.5t-31 -24.5t-23.5 -17.5t-17.5 -13.5t-13.5 -9t-11 -5l-8 -2t-8 -1 q-29 0 -51.5 26t-22.5 51z" />
<glyph unicode="&#x11d;" horiz-adv-x="1075" d="M59 -168q0 162 152 254q-47 63 -47 147q0 80 41 140q-66 84 -66 194q0 133 98.5 230.5t239.5 97.5q109 0 199 -61q96 72 217 71q76 0 112.5 -33.5t36.5 -76.5q0 -41 -25.5 -62.5t-55.5 -21.5q-23 0 -47.5 16t-32.5 53q-68 -6 -119 -35q53 -88 53 -178q0 -137 -98.5 -233 t-239.5 -96q-109 0 -184 51q-12 -31 -12 -58q0 -43 24 -73q25 -29 68 -29q16 -4 59 -4h143q186 0 297 -59q72 -39 107 -103.5t35 -130.5q0 -129 -139.5 -215t-338 -86t-338 85t-139.5 216zM142 1079q0 33 45 62q258 172 272 176q6 2 15 2h2q14 0 49 -21.5t235 -154.5 q47 -29 47 -66q0 -23 -21.5 -50.5t-49.5 -27.5h-4q-23 0 -133.5 82t-124.5 82q-10 0 -64 -39q-162 -117 -180 -123q-8 -2 -17 -2q-29 0 -50 27.5t-21 52.5zM178 -168q0 -70 104.5 -124t254 -54t254 54t104.5 124q0 61 -35 100t-108.5 54.5t-125 18.5t-145.5 3 q-117 0 -149.5 -4t-69.5 -29q-84 -53 -84 -143zM281 565q0 -82 57 -143.5t139 -61.5q80 0 138.5 60.5t58.5 146.5q0 82 -57.5 143.5t-139.5 61.5q-80 0 -138 -60.5t-58 -146.5z" />
<glyph unicode="&#x11e;" horiz-adv-x="1671" d="M119 625q0 262 204.5 455.5t518.5 193.5q311 0 446 -51q51 51 82 51q23 0 42.5 -15.5t19.5 -54.5v-108q0 -23 -1 -30t-6.5 -25.5t-19.5 -25.5t-39 -7h-10q-31 0 -46.5 14t-22.5 33.5t-45 42t-105 35.5q-86 14 -254 14q-279 0 -450 -160t-171 -362q0 -215 170 -369 t410 -154q164 0 286.5 91.5t153.5 232.5h-190q-35 0 -53.5 19.5t-18.5 44t17.5 43t45.5 18.5h430q35 0 51.5 -19.5t16.5 -44.5q0 -63 -72 -63q-2 0 -6 2h-2h-69v-350q0 -23 -3.5 -37t-20.5 -26.5t-50 -12.5h-2q-68 0 -68 80v76q-178 -178 -457 -179q-297 0 -504.5 192 t-207.5 456zM473 1614q0 29 16.5 46t45.5 17q18 0 31.5 -6t19.5 -18.5t9 -21.5t5 -21.5t2 -14.5q12 -55 75.5 -91t158.5 -38q84 0 154.5 36t78.5 108q0 68 64 67q27 0 45 -17.5t18 -47.5q0 -115 -103.5 -196t-258.5 -81q-158 0 -259.5 83t-101.5 196z" />
<glyph unicode="&#x11f;" horiz-adv-x="1075" d="M59 -168q0 162 152 254q-47 63 -47 147q0 80 41 140q-66 84 -66 194q0 133 98.5 230.5t239.5 97.5q109 0 199 -61q96 72 217 71q76 0 112.5 -33.5t36.5 -76.5q0 -41 -25.5 -62.5t-55.5 -21.5q-23 0 -47.5 16t-32.5 53q-68 -6 -119 -35q53 -88 53 -178q0 -137 -98.5 -233 t-239.5 -96q-109 0 -184 51q-12 -31 -12 -58q0 -43 24 -73q25 -29 68 -29q16 -4 59 -4h143q186 0 297 -59q72 -39 107 -103.5t35 -130.5q0 -129 -139.5 -215t-338 -86t-338 85t-139.5 216zM174 1245q0 29 18.5 46.5t45.5 17.5q12 0 22 -3t17.5 -9.5t11.5 -12.5t7 -14 t4 -13.5t3 -11.5v-8q23 -84 232 -84q195 0 229 72q2 4 5 20.5t7 28.5t19.5 23.5t38.5 11.5q29 0 46 -17.5t17 -46.5q0 -86 -84 -155.5t-276.5 -69.5t-277.5 69.5t-85 155.5zM178 -168q0 -70 104.5 -124t254 -54t254 54t104.5 124q0 61 -35 100t-108.5 54.5t-125 18.5 t-145.5 3q-117 0 -149.5 -4t-69.5 -29q-84 -53 -84 -143zM281 565q0 -82 57 -143.5t139 -61.5q80 0 138.5 60.5t58.5 146.5q0 82 -57.5 143.5t-139.5 61.5q-80 0 -138 -60.5t-58 -146.5z" />
<glyph unicode="&#x120;" horiz-adv-x="1671" d="M119 627q0 262 206.5 454.5t510.5 192.5q272 0 434 -127q27 57 37 76q12 29 24 40t39 11q61 0 62 -84v-285q0 -27 -2.5 -41t-19.5 -28.5t-50 -14.5q-57 0 -68 47q-10 43 -19 68t-44 68t-92 75q-119 70 -287 70q-248 0 -419 -154.5t-171 -369.5t171 -369t411 -154 q166 0 289.5 91.5t152.5 234.5h-180q-25 0 -38 2t-28.5 17.5t-15.5 44.5q0 61 82 61h393q84 0 84 -64q0 -61 -84 -61h-65v-344q0 -27 -2.5 -41t-18.5 -28.5t-49 -14.5t-50.5 14.5t-19.5 28.5t-2 41v74q-180 -180 -459 -181q-295 0 -503.5 191t-208.5 459zM733 1479 q0 43 32 72.5t71 29.5q41 0 71.5 -29.5t30.5 -72.5t-29.5 -73t-68.5 -30q-45 0 -76 30t-31 73z" />
<glyph unicode="&#x121;" horiz-adv-x="1075" d="M59 -168q0 162 152 254q-47 63 -47 147q0 80 41 140q-66 84 -66 194q0 133 98.5 230.5t239.5 97.5q109 0 199 -61q96 72 217 71q76 0 112.5 -33.5t36.5 -76.5q0 -41 -25.5 -62.5t-55.5 -21.5q-23 0 -47.5 16t-32.5 53q-68 -6 -119 -35q53 -88 53 -178q0 -137 -98.5 -233 t-239.5 -96q-109 0 -184 51q-12 -31 -12 -58q0 -43 24 -73q25 -29 68 -29q16 -4 59 -4h143q186 0 297 -59q72 -39 107 -103.5t35 -130.5q0 -129 -139.5 -215t-338 -86t-338 85t-139.5 216zM178 -168q0 -70 104.5 -124t254 -54t254 54t104.5 124q0 61 -35 100t-108.5 54.5 t-125 18.5t-145.5 3q-117 0 -149.5 -4t-69.5 -29q-84 -53 -84 -143zM281 565q0 -82 57 -143.5t139 -61.5q80 0 138.5 60.5t58.5 146.5q0 82 -57.5 143.5t-139.5 61.5q-80 0 -138 -60.5t-58 -146.5zM373 1149q0 43 31 72.5t72 29.5t71.5 -29.5t30.5 -72.5t-30.5 -72.5 t-69.5 -29.5q-45 0 -75 29.5t-30 72.5z" />
<glyph unicode="&#x124;" d="M94 61q0 29 15.5 44.5t29 17.5t37.5 2h111v1001h-111q-82 0 -82 62q0 29 15.5 44t29 17t37.5 2h363q25 0 38 -2t28.5 -17t15.5 -44q0 -61 -82 -62h-111v-413h694v413h-110q-82 0 -82 62q0 29 15.5 44t28.5 17t38 2h362q25 0 38 -2t28.5 -17t15.5 -44q0 -61 -82 -62h-110 v-1001h110q25 0 38 -2t28.5 -17.5t15.5 -44.5q0 -61 -82 -61h-362q-82 0 -82 61q0 29 15.5 44.5t28.5 17.5t38 2h110v463h-694v-463h111q25 0 38 -2t28.5 -17.5t15.5 -44.5q0 -61 -82 -61h-363q-82 0 -82 61zM441 1427q0 37 37 60q266 201 295 201q14 0 65 -31 q43 -33 109 -80q121 -88 141 -107.5t20 -42t-23.5 -50t-49.5 -27.5q-12 0 -23.5 5t-32 20.5t-42 32.5t-68.5 55t-96 75q-31 -23 -59.5 -46.5t-48 -38.5t-38 -30.5t-31 -24.5t-23.5 -17.5t-17.5 -13.5t-13.5 -9t-11 -5l-8 -2t-8 -1q-29 0 -51.5 26t-22.5 51z" />
<glyph unicode="&#x125;" horiz-adv-x="1193" d="M35 61q0 29 15.5 44.5t28.5 17.5t38 2h110v1001h-110q-82 0 -82 62q0 29 15.5 44t28.5 17t38 2h170q51 0 66.5 -17t15.5 -67v-389q127 117 301 117q295 0 295 -299v-471h110q25 0 38 -2t28.5 -17.5t15.5 -44.5q0 -61 -82 -61h-362q-25 0 -38 2t-28.5 17.5t-15.5 43.5 q0 61 82 62h110v459q0 96 -32.5 141t-133.5 45q-63 0 -125.5 -24.5t-112.5 -92t-50 -168.5v-360h110q25 0 38 -2t28.5 -17.5t15.5 -44.5q0 -61 -82 -61h-362q-82 0 -82 61zM263 1429q0 33 45 62q258 172 272 176q6 2 15 2h2q14 0 49 -21.5t235 -154.5q47 -29 47 -66 q0 -23 -21.5 -50.5t-49.5 -27.5h-4q-23 0 -133.5 82t-124.5 82q-10 0 -64 -39q-162 -117 -180 -123q-8 -2 -17 -2q-29 0 -50 27.5t-21 52.5z" />
<glyph unicode="&#x12a;" horiz-adv-x="716" d="M-31 1439q0 66 72 66h635q70 0 70 -66q0 -63 -74 -63h-633q-70 2 -70 63zM84 61q0 29 15.5 44.5t28.5 17.5t38 2h121v1001h-121q-82 0 -82 62q0 29 15.5 44t28.5 17t38 2h383q25 0 38 -2t28.5 -17t15.5 -44q0 -61 -82 -62h-121v-1001h121q25 0 38 -2t28.5 -17.5 t15.5 -44.5q0 -61 -82 -61h-383q-82 0 -82 61z" />
<glyph unicode="&#x12b;" horiz-adv-x="595" d="M-88 1208q0 66 72 66h635q70 0 70 -66q0 -63 -74 -63h-633q-70 2 -70 63zM35 61q0 29 15.5 44.5t28.5 17.5t38 2h110v633h-100q-84 0 -84 63q0 61 84 62h160q51 0 66.5 -17.5t15.5 -66.5v-674h90q84 0 84 -64q0 -61 -82 -61h-344q-82 0 -82 61z" />
<glyph unicode="&#x130;" horiz-adv-x="716" d="M84 61q0 29 15.5 44.5t28.5 17.5t38 2h121v1001h-121q-82 0 -82 62q0 29 15.5 44t28.5 17t38 2h383q25 0 38 -2t28.5 -17t15.5 -44q0 -61 -82 -62h-121v-1001h121q25 0 38 -2t28.5 -17.5t15.5 -44.5q0 -61 -82 -61h-383q-82 0 -82 61zM254 1534q0 43 31 72.5t72 29.5 t71.5 -29.5t30.5 -72.5t-30.5 -72.5t-69.5 -29.5q-45 0 -75 29.5t-30 72.5z" />
<glyph unicode="&#x131;" horiz-adv-x="595" d="M35 61q0 29 15.5 44.5t28.5 17.5t38 2h110v633h-100q-84 0 -84 63q0 61 84 62h160q51 0 66.5 -17.5t15.5 -66.5v-674h90q84 0 84 -64q0 -61 -82 -61h-344q-82 0 -82 61z" />
<glyph unicode="&#x134;" horiz-adv-x="1075" d="M145 203q0 47 27 71.5t65.5 24.5t64.5 -26.5t26 -63.5q0 -33 -17 -53q59 -53 174 -54q25 0 50.5 5.5t65.5 20.5t65.5 56t25.5 103v839h-168q-84 0 -84 64q0 61 84 61h371q84 0 84 -61q0 -63 -84 -64h-61v-852q0 -135 -102.5 -216t-246.5 -81q-152 0 -246 64t-94 162z M428 1427q0 37 37 60q266 201 295 201q14 0 65 -31q43 -33 109 -80q121 -88 141 -107.5t20 -42t-23.5 -50t-49.5 -27.5q-12 0 -23.5 5t-32 20.5t-42 32.5t-68.5 55t-96 75q-31 -23 -59.5 -46.5t-48 -38.5t-38 -30.5t-31 -24.5t-23.5 -17.5t-17.5 -13.5t-13.5 -9t-11 -5 l-8 -2t-8 -1q-29 0 -51.5 26t-22.5 51z" />
<glyph unicode="&#x135;" horiz-adv-x="655" d="M-94 -311q0 43 27.5 68.5t64.5 25.5q90 0 90 -109q0 -6 2 -6q8 -10 62 -10q135 0 135 254v846h-129q-84 0 -84 63q0 61 84 62h188q51 0 66.5 -17.5t15.5 -66.5v-895q0 -84 -23.5 -163t-91 -143.5t-168.5 -64.5q-111 0 -175 42t-64 114zM23 1079q0 33 45 62 q258 172 272 176q6 2 15 2h2q14 0 49 -21.5t235 -154.5q47 -29 47 -66q0 -23 -21.5 -50.5t-49.5 -27.5h-4q-23 0 -133.5 82t-124.5 82q-10 0 -64 -39q-162 -117 -180 -123q-8 -2 -17 -2q-29 0 -50 27.5t-21 52.5z" />
<glyph unicode="&#x139;" horiz-adv-x="1312" d="M94 61q0 29 15.5 44.5t29 17.5t37.5 2h111v1001h-111q-82 0 -82 62q0 29 15.5 44t29 17t37.5 2h412q25 0 38 -2t28.5 -17t15.5 -44q0 -61 -82 -62h-160v-1001h653v141q0 29 2 43.5t19.5 27.5t50.5 13q47 0 58.5 -21.5t11.5 -62.5v-182q0 -49 -16.5 -66.5t-65.5 -17.5 h-965q-82 0 -82 61zM135 1489q0 20 13.5 34.5t22.5 19t30 10.5q295 100 307 100q27 0 48 -20.5t21 -51.5q0 -53 -65 -73q-303 -102 -311 -103q-35 0 -50.5 29.5t-15.5 54.5z" />
<glyph unicode="&#x13a;" horiz-adv-x="595" d="M35 61q0 29 15.5 44.5t28.5 17.5t38 2h110v1001h-110q-82 0 -82 62q0 29 15.5 44t28.5 17t38 2h170q51 0 66.5 -17t15.5 -67v-1042h110q25 0 38 -2t28.5 -17.5t15.5 -44.5q0 -61 -82 -61h-362q-82 0 -82 61zM147 1489q0 20 13.5 34.5t22.5 19t30 10.5q295 100 307 100 q27 0 48 -20.5t21 -51.5q0 -53 -65 -73q-303 -102 -311 -103q-35 0 -50.5 29.5t-15.5 54.5z" />
<glyph unicode="&#x13d;" horiz-adv-x="1312" d="M94 61q0 29 15.5 44.5t29 17.5t37.5 2h111v1001h-111q-82 0 -82 62q0 29 15.5 44t29 17t37.5 2h412q25 0 38 -2t28.5 -17t15.5 -44q0 -61 -82 -62h-160v-1001h653v141q0 29 2 43.5t19.5 27.5t50.5 13q47 0 58.5 -21.5t11.5 -62.5v-182q0 -49 -16.5 -66.5t-65.5 -17.5 h-965q-82 0 -82 61zM825 1069q0 20 9.5 31.5t38 28t42.5 26.5l25 39q-43 2 -69.5 31.5t-26.5 70.5q0 43 28.5 73t73.5 30q57 0 94 -45t37 -109q0 -102 -68.5 -170.5t-119.5 -68.5q-23 0 -43.5 18t-20.5 45z" />
<glyph unicode="&#x13e;" horiz-adv-x="831" d="M35 61q0 29 15.5 44.5t28.5 17.5t38 2h110v1001h-110q-82 0 -82 62q0 29 15.5 44t28.5 17t38 2h170q51 0 66.5 -17t15.5 -67v-1042h110q25 0 38 -2t28.5 -17.5t15.5 -44.5q0 -61 -82 -61h-362q-82 0 -82 61zM412 967q0 20 9 31.5t36.5 26.5t44.5 28l16 20l10 17 q-53 4 -75.5 38.5t-22.5 65.5q0 43 29.5 71.5t75.5 28.5q57 0 94 -45t37 -108q0 -102 -69 -171t-120 -69q-23 0 -44 19.5t-21 46.5z" />
<glyph unicode="&#x141;" horiz-adv-x="1314" d="M92 63q0 39 33 56q18 8 59 8h103v391q-88 -68 -111 -67q-25 0 -44 20.5t-19 44.5q0 14 7 26.5t47 45.5t120 88v448h-125q-70 2 -70 64q0 14 4 26.5t22.5 24.5t47.5 12h430q74 0 74 -63.5t-70 -63.5h-170v-340q45 35 113 86q117 90 140.5 105.5t39.5 15.5q27 0 45 -20.5 t18 -45t-21.5 -44t-168.5 -129.5q-82 -61 -135 -103q-20 -16 -25.5 -23.5t-5.5 -25.5v-473h649v154q2 72 70 71h8q66 0 66 -69v-209q0 -20 -3 -33.5t-21.5 -27t-51.5 -13.5h-979q-76 0 -76 63z" />
<glyph unicode="&#x142;" horiz-adv-x="722" d="M92 63.5q0 63.5 76 63.5h117v446q-68 -51 -90 -51q-27 0 -45.5 20.5t-18.5 45.5q0 14 6 24.5t40 39t108 81.5v391h-121q-72 0 -72 63.5t74 63.5h188q35 0 53.5 -16t19.5 -27.5t1 -36.5v-329q90 70 117 69q25 0 42 -21.5t17 -43.5q0 -29 -39 -60q-127 -96 -133 -106 q-4 -6 -4 -27v-526h119q74 0 74 -63.5t-72 -63.5h-383q-74 0 -74 63.5z" />
<glyph unicode="&#x143;" d="M109 61q0 29 15 44.5t28.5 17.5t37.5 2h111v1001h-111q-82 0 -81 62q0 29 15 44t28.5 17t37.5 2h195q29 0 45 -2t41 -18.5t43 -48.5l619 -1078h2v1022h-111q-82 0 -82 62q0 29 15.5 44t28.5 17t38 2h336q25 0 38 -2t28.5 -17t15.5 -44q0 -61 -82 -62h-111v-1042 q0 -53 -16 -68.5t-68 -15.5q-29 0 -45 2t-40.5 18.5t-43.5 49.5l-618 1077h-2v-1022h110q25 0 38.5 -2t28.5 -17.5t15 -44.5q0 -61 -82 -61h-336q-81 0 -81 61zM537 1489q0 20 13.5 34.5t22.5 19t30 10.5q295 100 307 100q27 0 48 -20.5t21 -51.5q0 -53 -65 -73 q-303 -102 -311 -103q-35 0 -50.5 29.5t-15.5 54.5z" />
<glyph unicode="&#x144;" horiz-adv-x="1193" d="M35 61q0 29 15.5 44.5t28.5 17.5t38 2h110v633h-110q-82 0 -82 61q0 29 15.5 44.5t28.5 17.5t38 2h170q57 0 69.5 -20.5t12.5 -84.5q127 117 301 117q295 0 295 -299v-471h110q25 0 38 -2t28.5 -17.5t15.5 -44.5q0 -61 -82 -61h-362q-25 0 -38 2t-28.5 17.5t-15.5 43.5 q0 61 82 62h110v459q0 96 -32.5 141t-133.5 45q-63 0 -125.5 -24.5t-112.5 -92t-50 -168.5v-360h110q25 0 38 -2t28.5 -17.5t15.5 -44.5q0 -61 -82 -61h-362q-82 0 -82 61zM416 1118q0 20 12 34.5t19.5 18t27.5 13.5q287 125 305 125q27 0 48.5 -20.5t21.5 -51.5 q0 -49 -62 -74q-291 -127 -305 -127q-31 0 -49 27.5t-18 54.5z" />
<glyph unicode="&#x147;" d="M109 61q0 29 15 44.5t28.5 17.5t37.5 2h111v1001h-111q-82 0 -81 62q0 29 15 44t28.5 17t37.5 2h195q29 0 45 -2t41 -18.5t43 -48.5l619 -1078h2v1022h-111q-82 0 -82 62q0 29 15.5 44t28.5 17t38 2h336q25 0 38 -2t28.5 -17t15.5 -44q0 -61 -82 -62h-111v-1042 q0 -53 -16 -68.5t-68 -15.5q-29 0 -45 2t-40.5 18.5t-43.5 49.5l-618 1077h-2v-1022h110q25 0 38.5 -2t28.5 -17.5t15 -44.5q0 -61 -82 -61h-336q-81 0 -81 61zM479 1589q0 23 18.5 40.5t41.5 17.5q18 0 37.5 -15.5t89.5 -77.5q37 -33 61 -55l49 -43h2q14 14 168 152 q47 39 68 39q23 0 41 -17.5t18 -42t-31 -55.5q-190 -182 -216.5 -205.5t-49 -23.5t-49.5 23.5t-217 205.5q-31 30 -31 57z" />
<glyph unicode="&#x148;" horiz-adv-x="1193" d="M35 61q0 29 15.5 44.5t28.5 17.5t38 2h110v633h-110q-82 0 -82 61q0 29 15.5 44.5t28.5 17.5t38 2h170q57 0 69.5 -20.5t12.5 -84.5q127 117 301 117q295 0 295 -299v-471h110q25 0 38 -2t28.5 -17.5t15.5 -44.5q0 -61 -82 -61h-362q-25 0 -38 2t-28.5 17.5t-15.5 43.5 q0 61 82 62h110v459q0 96 -32.5 141t-133.5 45q-63 0 -125.5 -24.5t-112.5 -92t-50 -168.5v-360h110q25 0 38 -2t28.5 -17.5t15.5 -44.5q0 -61 -82 -61h-362q-82 0 -82 61zM195 1249q0 25 18 42.5t41 17.5q27 0 126 -79t109 -79q12 0 111.5 79t126.5 79q25 0 42 -19.5 t17 -40.5q0 -23 -16 -40t-108 -93q-72 -59 -121 -100q-31 -25 -52 -25h-6q-12 0 -42.5 23.5t-207.5 171.5q-38 30 -38 63z" />
<glyph unicode="&#x150;" horiz-adv-x="1671" d="M119 627q0 262 208 454.5t509 192.5q299 0 507.5 -190.5t208.5 -458.5q0 -262 -207.5 -455t-508.5 -193q-299 0 -508 191t-209 459zM260 649q0 -223 168 -385t407.5 -162t407.5 162t168 385q0 205 -168 352.5t-407.5 147.5t-407.5 -147.5t-168 -352.5zM506 1489 q0 31 30.5 47t163.5 61q82 27 136 45q37 10 43 11q31 0 50 -20.5t19 -55.5v-18q279 94 289 94q29 0 49.5 -21.5t20.5 -50.5q0 -51 -68 -74q-303 -102 -311 -102q-29 0 -48.5 27.5t-17.5 66.5q-279 -94 -291 -94q-33 0 -49 30.5t-16 53.5z" />
<glyph unicode="&#x151;" horiz-adv-x="1075" d="M78 442q0 188 134 323.5t324.5 135.5t324.5 -135t134 -324q0 -190 -134 -322t-324.5 -132t-324.5 132t-134 322zM219 457q0 -141 92 -242.5t226 -101.5q131 0 224 101t93 243q0 135 -94 227t-223 92t-223.5 -92t-94.5 -227zM233 1118q0 29 24 44.5t163 74.5q74 33 121 53 q41 18 59 19q31 0 50.5 -21.5t19.5 -50.5q0 -31 -29 -59q305 129 315 131q31 0 51.5 -21.5t20.5 -50.5q0 -51 -65 -76q-285 -125 -304 -125q-27 0 -47 24.5t-20 55.5q0 18 22 49q-295 -129 -309 -129h-2q-35 0 -52.5 31t-17.5 51z" />
<glyph unicode="&#x152;" horiz-adv-x="2150" d="M119 624.5q0 264.5 208 457t507 192.5q51 0 153.5 -11.5t183.5 -11.5h785q74 0 74 -77q0 -2 -1 -5.5t-1 -5.5v-145q0 -25 -2.5 -38t-17.5 -30.5t-46 -17.5h-8q-70 0 -70 74q0 2 1 8t1 8v102h-669v-411h454v41q0 74 66 73h6q18 0 29.5 -2t25.5 -19.5t14 -51.5v-211 q0 -74 -67 -74h-6q-68 0 -68 76v41h-454v-459h729v149q0 76 67 76h8q70 0 68 -73v-203q0 -33 -13.5 -51.5t-27.5 -21.5t-35 -3h-837q-82 0 -186.5 -11.5t-155.5 -11.5q-299 0 -507 191.5t-208 456zM262 647q0 -213 162 -379t422 -166h52t48 6.5t50.5 18.5t37 39t27.5 63 q12 55 12 183v411v30v35t-1 33.5t-2 37t-4 34t-7 34.5t-9.5 29.5t-13.5 28t-18 21.5q-45 43 -158 43q-283 0 -440.5 -153.5t-157.5 -348.5z" />
<glyph unicode="&#x153;" horiz-adv-x="1671" d="M76 442q0 193 132 325t312 132q123 0 220.5 -60.5t150.5 -144.5h2q61 98 154.5 151.5t199.5 53.5q174 0 268.5 -124t94.5 -312q0 -72 -74 -72h-567q25 -133 121 -204.5t198 -71.5q61 0 107.5 31.5t66.5 78.5l4 13q6 10 7.5 12t8.5 10t13 11t17.5 6.5t25.5 3.5 q70 0 70 -56q0 -70 -91.5 -152.5t-240.5 -82.5q-115 0 -217.5 55t-163.5 152h-2q-51 -86 -149.5 -146.5t-223.5 -60.5q-182 0 -313 132t-131 320zM219 457q0 -145 89 -243.5t212 -98.5q121 0 211 98t90 244q0 135 -90 225t-211 90t-211 -90t-90 -225zM973 516h491 q-27 256 -217 256q-90 0 -168.5 -65.5t-105.5 -190.5z" />
<glyph unicode="&#x154;" d="M94 61q0 29 15.5 44.5t29 17.5t37.5 2h111v1001h-111q-82 0 -82 62q0 29 15.5 44t29 17t37.5 2h549q225 0 391 -100t166 -244q0 -84 -62.5 -157.5t-172.5 -120.5q76 -37 114 -94q29 -43 35 -78t6 -127q0 -49 1 -73t6 -59.5t16.5 -52t33 -30t54.5 -13.5q35 0 60.5 24 t29.5 69q6 61 70 61q72 0 71 -63q0 -80 -64.5 -148t-166.5 -68q-131 0 -199 93q-37 51 -45 98t-8 154q0 98 -11.5 129.5t-70.5 64.5q-94 47 -258 47h-293v-438h111q25 0 38 -2t28.5 -17.5t15.5 -44.5q0 -61 -82 -61h-363q-82 0 -82 61zM428 688h279q170 0 302 62.5 t132 156.5t-132 156.5t-302 62.5h-279v-438zM537 1489q0 20 13.5 34.5t22.5 19t30 10.5q295 100 307 100q27 0 48 -20.5t21 -51.5q0 -53 -65 -73q-303 -102 -311 -103q-35 0 -50.5 29.5t-15.5 54.5z" />
<glyph unicode="&#x155;" horiz-adv-x="835" d="M35 61q0 29 15.5 44.5t28.5 17.5t38 2h110v633h-110q-82 0 -82 61q0 29 15.5 44.5t28.5 17.5t38 2h170q57 0 69.5 -20.5t12.5 -92.5q106 125 252 125q72 0 112.5 -40t40.5 -87q0 -39 -25.5 -63.5t-60.5 -24.5q-29 0 -56.5 19.5t-29.5 68.5q-76 -8 -130 -67.5 t-78.5 -140.5t-24.5 -175v-260h159q25 0 38.5 -2t28.5 -17.5t15 -44.5q0 -61 -82 -61h-411q-82 0 -82 61zM264 1118q0 8 2 16.5t7.5 14.5t8.5 10t11 8t10 6.5t12 6.5l11 4q287 125 305 125q27 0 48 -20.5t21 -51.5q0 -49 -61 -74q-291 -127 -307 -127q-31 0 -49.5 27.5 t-18.5 54.5z" />
<glyph unicode="&#x158;" d="M94 61q0 29 15.5 44.5t29 17.5t37.5 2h111v1001h-111q-82 0 -82 62q0 29 15.5 44t29 17t37.5 2h549q225 0 391 -100t166 -244q0 -84 -62.5 -157.5t-172.5 -120.5q76 -37 114 -94q29 -43 35 -78t6 -127q0 -49 1 -73t6 -59.5t16.5 -52t33 -30t54.5 -13.5q35 0 60.5 24 t29.5 69q6 61 70 61q72 0 71 -63q0 -80 -64.5 -148t-166.5 -68q-131 0 -199 93q-37 51 -45 98t-8 154q0 98 -11.5 129.5t-70.5 64.5q-94 47 -258 47h-293v-438h111q25 0 38 -2t28.5 -17.5t15.5 -44.5q0 -61 -82 -61h-363q-82 0 -82 61zM367 1587.5q0 24.5 18 42t43 17.5 q6 0 10 -1t10.5 -4.5t11.5 -6.5t13 -9t16.5 -13t21.5 -19.5t26.5 -25t35 -31.5t41.5 -38l50 -43h2q14 14 168 152q47 39 67 39q23 0 41.5 -17.5t18.5 -42t-31 -55.5q-190 -182 -217 -205.5t-49.5 -23.5t-49 23.5t-217.5 205.5q-30 31 -30 55.5zM428 688h279q170 0 302 62.5 t132 156.5t-132 156.5t-302 62.5h-279v-438z" />
<glyph unicode="&#x159;" horiz-adv-x="835" d="M35 61q0 29 15.5 44.5t28.5 17.5t38 2h110v633h-110q-82 0 -82 61q0 29 15.5 44.5t28.5 17.5t38 2h170q57 0 69.5 -20.5t12.5 -92.5q106 125 252 125q72 0 112.5 -40t40.5 -87q0 -39 -25.5 -63.5t-60.5 -24.5q-29 0 -56.5 19.5t-29.5 68.5q-76 -8 -130 -67.5 t-78.5 -140.5t-24.5 -175v-260h159q25 0 38.5 -2t28.5 -17.5t15 -44.5q0 -61 -82 -61h-411q-82 0 -82 61zM164 1249q0 25 18.5 42.5t40.5 17.5q27 0 127.5 -79t110.5 -79q12 0 111.5 79t125.5 79q25 0 42.5 -19.5t17.5 -40.5q0 -23 -16.5 -40t-108.5 -93q-72 -59 -121 -100 q-31 -25 -51 -25h-6q-12 0 -43 23.5t-207 171.5q-41 32 -41 63z" />
<glyph unicode="&#x15a;" horiz-adv-x="1193" d="M119 61v271q0 27 2 41t19.5 28.5t49.5 14.5q31 0 47.5 -12.5t18.5 -23.5t4 -32q8 -125 113 -188q100 -57 274 -58q133 0 213 70t80 160q0 39 -16.5 75.5t-31.5 53t-18 16.5q-47 41 -84.5 54.5t-140.5 35.5l-88 19q-113 25 -158 36t-94 33.5t-90 61.5q-100 96 -100 221 q0 135 118.5 235.5t303.5 100.5q209 0 331 -105q25 72 36.5 88.5t43.5 16.5q61 0 62 -84v-270q0 -27 -2 -41.5t-19.5 -28.5t-50.5 -14q-29 0 -44 10t-19.5 21.5t-8.5 33.5q-47 248 -331 248q-125 0 -206 -61.5t-81 -141.5q0 -82 67.5 -131t135.5 -63l303 -64 q137 -29 226 -127t89 -221q0 -143 -116.5 -253t-311.5 -110q-250 0 -385 99q-16 -47 -23.5 -62.5t-20.5 -26t-36 -10.5q-61 0 -61 84zM328 1489q0 20 13.5 34.5t22.5 19t30 10.5q295 100 307 100q27 0 48 -20.5t21 -51.5q0 -53 -65 -73q-303 -102 -311 -103 q-35 0 -50.5 29.5t-15.5 54.5z" />
<glyph unicode="&#x15b;" horiz-adv-x="847" d="M72 63v193q0 33 2 49.5t19.5 31.5t51.5 15q37 0 56 -22q2 -2 23.5 -67.5t69.5 -106.5t138 -41q217 0 217 139q0 84 -110 125q-33 12 -135.5 27.5t-181.5 49t-122 101.5q-29 47 -28 100q0 41 13 79t47 77t106.5 62.5t175.5 23.5q109 0 186 -39q23 39 64 39q25 0 42 -18.5 t17 -53.5v-153q0 -84 -72 -84q-39 0 -54 18.5t-19.5 45t-13.5 54t-47 46t-109 18.5q-209 0 -209 -117q0 -82 166 -110q12 -2 51 -9.5t48 -9.5t38.5 -8t38 -9t31 -9t32.5 -11.5t26.5 -13.5t29 -17t26.5 -20q90 -74 90 -182q0 -47 -14 -88t-48 -84t-106.5 -68.5t-175.5 -25.5 q-131 0 -227 67q-12 -35 -27.5 -51t-44.5 -16q-61 -1 -61 73zM242 1118q0 8 2 16.5t7 14.5t8 10t11.5 8t10.5 6.5t12 6.5l10 4q287 125 305 125q27 0 48.5 -20.5t21.5 -51.5q0 -49 -62 -74q-291 -127 -307 -127q-31 0 -49 27.5t-18 54.5z" />
<glyph unicode="&#x15c;" horiz-adv-x="1193" d="M119 61v271q0 27 2 41t19.5 28.5t49.5 14.5q31 0 47.5 -12.5t18.5 -23.5t4 -32q8 -125 113 -188q100 -57 274 -58q133 0 213 70t80 160q0 39 -16.5 75.5t-31.5 53t-18 16.5q-47 41 -84.5 54.5t-140.5 35.5l-88 19q-113 25 -158 36t-94 33.5t-90 61.5q-100 96 -100 221 q0 135 118.5 235.5t303.5 100.5q209 0 331 -105q25 72 36.5 88.5t43.5 16.5q61 0 62 -84v-270q0 -27 -2 -41.5t-19.5 -28.5t-50.5 -14q-29 0 -44 10t-19.5 21.5t-8.5 33.5q-47 248 -331 248q-125 0 -206 -61.5t-81 -141.5q0 -82 67.5 -131t135.5 -63l303 -64 q137 -29 226 -127t89 -221q0 -143 -116.5 -253t-311.5 -110q-250 0 -385 99q-16 -47 -23.5 -62.5t-20.5 -26t-36 -10.5q-61 0 -61 84zM207 1427q0 37 37 60q266 201 295 201q14 0 65 -31q43 -33 109 -80q121 -88 141 -107.5t20 -42t-23.5 -50t-49.5 -27.5q-12 0 -23.5 5 t-32 20.5t-42 32.5t-68.5 55t-96 75q-31 -23 -59.5 -46.5t-48 -38.5t-38 -30.5t-31 -24.5t-23.5 -17.5t-17.5 -13.5t-13.5 -9t-11 -5l-8 -2t-8 -1q-29 0 -51.5 26t-22.5 51z" />
<glyph unicode="&#x15d;" horiz-adv-x="847" d="M72 72v196q0 27 2 41.5t19.5 28.5t49.5 14q57 0 70 -51q12 -41 23.5 -67.5t35 -57.5t63.5 -47t95 -16q25 0 49.5 3t69.5 14t72.5 44t27.5 82q0 55 -46 90t-109 49q-35 0 -125 23q-297 55 -297 241q0 35 13 72t47 78t106.5 66.5t177.5 25.5q113 0 184 -41q14 41 59 41 q61 0 62 -84v-141q0 -27 -2 -41t-19.5 -28.5t-50.5 -14.5q-29 0 -45 11t-19 23.5t-5 30.5q-2 23 -7.5 37.5t-20.5 37t-51 33.5t-89 11q-109 0 -162 -32.5t-53 -84.5q0 -57 61 -81.5t207 -51.5q309 -57 309 -270q0 -104 -82 -186t-264 -82q-137 0 -223 69q-16 -70 -72 -69 q-61 0 -61 84zM82 1079q0 33 45 62q258 172 272 176q6 2 15 2h2q14 0 49 -21.5t235 -154.5q47 -29 47 -66q0 -23 -21.5 -50.5t-49.5 -27.5h-4q-23 0 -133.5 82t-124.5 82q-10 0 -64 -39q-162 -117 -180 -123q-8 -2 -17 -2q-29 0 -50 27.5t-21 52.5z" />
<glyph unicode="&#x15e;" horiz-adv-x="1193" d="M119 55v287q0 74 71 74q43 0 58.5 -19.5t13.5 -47t12.5 -70.5t49.5 -78q98 -98 323 -99q131 0 211 70t80 158q0 61 -41 116.5t-115 85.5q-35 14 -201.5 48t-199.5 45q-100 33 -181 113.5t-81 201.5q0 133 119.5 233.5t302.5 100.5q195 0 331 -103q16 57 31 80t49 23 q61 0 62 -78v-289q0 -74 -70 -73h-2q-47 0 -65 36q-2 2 -9.5 39t-25 72t-49 76t-97 65.5t-155.5 24.5q-127 0 -207 -61.5t-80 -141.5q0 -113 143 -172q41 -16 205 -49t195 -43q113 -35 194.5 -124t81.5 -216q0 -27 -5 -57.5t-25.5 -78.5t-56.5 -89t-104.5 -79t-160.5 -56 q74 -16 129 -66.5t55 -132.5q0 -100 -86 -154q-88 -53 -325 -53h-13q-76 0 -75 64q0 49 45 59q6 2 92 2t152.5 18.5t66.5 63.5q0 14 -6 28.5t-34 32t-73 21.5q-66 0 -65 67q0 25 12 50q-195 8 -338 96q0 -2 -4 -14.5t-5 -15.5t-4 -14.5t-6 -15.5t-7.5 -12t-9.5 -11t-11 -7 t-14.5 -6.5t-16.5 -2.5q-61 0 -61 78z" />
<glyph unicode="&#x15f;" horiz-adv-x="847" d="M72 63v181q0 31 1 45t8 31.5t22.5 24.5t41.5 7q37 0 56 -22q8 -12 22.5 -53t29.5 -73t64.5 -59.5t124.5 -27.5q207 0 207 137q0 111 -215 149q-4 0 -40 7.5t-50 10.5t-51 11t-55.5 17.5t-49 23.5t-47 31.5t-35 40t-26.5 51.5t-8 61q0 41 13 79t47 77t106.5 62.5 t175.5 23.5q109 0 186 -39q23 39 59 39q23 0 43.5 -15.5t20.5 -56.5v-153q0 -8 -1 -21.5t-18.5 -37t-50.5 -23.5q-35 0 -52 13t-19 33.5t-9.5 43.5t-18.5 43t-48 33.5t-98 13.5q-209 0 -209 -115q0 -39 42 -67.5t88 -38.5t117.5 -21.5t92.5 -17.5q92 -23 164.5 -87.5 t72.5 -168.5q0 -41 -10 -78t-38 -79t-87 -70.5t-145 -36.5v-12q8 -2 19 -5.5t42 -18.5t54.5 -35.5t43 -58.5t19.5 -83q0 -137 -158 -182q-78 -23 -248 -23h-28q-29 0 -47.5 17.5t-18.5 43.5q0 43 33 58q10 4 96 5t156.5 18.5t70.5 64.5q0 29 -27.5 51.5t-68.5 28.5 q-2 0 -18.5 2t-18.5 3t-14 4t-14 9t-8.5 15.5t-7.5 22.5t-1 32v47q-84 16 -147 61q-12 -35 -27.5 -51t-44.5 -16q-61 -1 -61 73z" />
<glyph unicode="&#x160;" horiz-adv-x="1193" d="M119 61v271q0 27 2 41t19.5 28.5t49.5 14.5q31 0 47.5 -12.5t18.5 -23.5t4 -32q8 -125 113 -188q100 -57 274 -58q133 0 213 70t80 160q0 39 -16.5 75.5t-31.5 53t-18 16.5q-47 41 -84.5 54.5t-140.5 35.5l-88 19q-113 25 -158 36t-94 33.5t-90 61.5q-100 96 -100 221 q0 135 118.5 235.5t303.5 100.5q209 0 331 -105q25 72 36.5 88.5t43.5 16.5q61 0 62 -84v-270q0 -27 -2 -41.5t-19.5 -28.5t-50.5 -14q-29 0 -44 10t-19.5 21.5t-8.5 33.5q-47 248 -331 248q-125 0 -206 -61.5t-81 -141.5q0 -82 67.5 -131t135.5 -63l303 -64 q137 -29 226 -127t89 -221q0 -143 -116.5 -253t-311.5 -110q-250 0 -385 99q-16 -47 -23.5 -62.5t-20.5 -26t-36 -10.5q-61 0 -61 84zM301 1587q0 25 18.5 42.5t40.5 17.5q18 0 38 -15.5t89 -77.5q37 -33 62 -55l47 -43h2q14 14 168 152q47 39 68 39q23 0 41 -17.5t18 -42 t-31 -55.5q-190 -182 -217 -205.5t-49.5 -23.5t-49 23.5t-216.5 205.5q-29 28 -29 55z" />
<glyph unicode="&#x161;" horiz-adv-x="847" d="M72 63v193q0 33 2 49.5t19.5 31.5t51.5 15q37 0 56 -22q2 -2 23.5 -67.5t69.5 -106.5t138 -41q217 0 217 139q0 51 -42 86t-88 46t-126 25.5t-106 20.5q-86 23 -150.5 78t-64.5 147q0 41 13 79t47 77t106.5 62.5t175.5 23.5q109 0 186 -39q23 39 64 39q25 0 42 -18.5 t17 -53.5v-153q0 -84 -72 -84q-39 0 -54 18.5t-19.5 45t-13.5 54t-47 46t-109 18.5q-209 0 -209 -117q0 -61 86 -86.5t212 -51t189 -79.5q90 -74 90 -182q0 -47 -14 -88t-48 -84t-106.5 -68.5t-175.5 -25.5q-131 0 -227 67q-12 -35 -27.5 -51t-44.5 -16q-61 -1 -61 73z M100 1249q0 25 18.5 42.5t41.5 17.5q27 0 126 -79t109 -79q12 0 111.5 79t126.5 79q25 0 42 -19.5t17 -40.5q0 -23 -18.5 -42t-116.5 -101q-66 -53 -108 -90q-31 -25 -52 -25h-8q-16 0 -153 117q-57 47 -95 78q-41 32 -41 63z" />
<glyph unicode="&#x162;" d="M76 1001v173q0 78 71 77h1254q72 0 72 -71v-174q0 -74 -70 -74q-23 0 -37 4t-25.5 20.5t-11.5 49.5v118h-483v-997h207q33 0 50 -18.5t17 -45.5q0 -63 -76 -63h-198v-20q8 -2 19.5 -5.5t43 -18.5t55 -35.5t43 -57.5t19.5 -82q0 -133 -147 -180q-88 -27 -261 -27h-24 q-70 0 -70 64q0 39 35 55q10 4 95 5t156 18.5t71 64.5q0 66 -97 80q-2 0 -18 2t-18.5 3t-14.5 4t-14 8t-8 14.5t-7.5 22.5t-1.5 32v53h-204q-33 0 -50.5 18.5t-17.5 42.5q0 66 76 66h196v997h-483v-118q0 -74 -67 -74h-11q-65 -1 -65 69z" />
<glyph unicode="&#x163;" horiz-adv-x="835" d="M39 817q0 63 76 64h110v180q0 72 72 72h2q70 0 70 -72v-180h239q70 0 70 -62q0 -63 -70 -63h-239v-510q2 -63 22.5 -96t73.5 -33q55 0 80.5 45t25.5 84q0 20 1 29.5t6.5 28t22.5 26.5t44 8q70 0 70 -84q0 -78 -42 -148.5t-130 -103.5v-22q8 -2 19 -5.5t42 -18.5 t54.5 -35.5t43 -58.5t19.5 -83q0 -137 -158 -182q-78 -23 -248 -23h-28q-31 0 -49.5 18.5t-18.5 45.5q0 39 35 55q12 6 97 7t156 17.5t71 63.5q0 27 -27 50.5t-70 29.5q-4 0 -14 1t-15.5 2t-13.5 3t-11 4l-9 6t-9 10.5t-6.5 15.5t-4.5 20t-1 26v47q-172 35 -172 270v490 h-110q-76 0 -76 61z" />
<glyph unicode="&#x164;" d="M78 1018v149q0 51 16.5 67.5t67.5 16.5h1229q51 0 66.5 -17t15.5 -67v-149q0 -27 -2.5 -41t-19.5 -28.5t-50 -14.5q-47 0 -58.5 21.5t-11.5 62.5v108h-485v-1001h190q84 0 84 -64q0 -61 -84 -61h-522q-84 0 -84 63q0 61 84 62h191v1001h-486v-108q0 -27 -2 -41 t-19.5 -28.5t-50.5 -14.5q-47 0 -58 21.5t-11 62.5zM477 1589q0 23 19.5 40.5t42.5 17.5q18 0 37.5 -15.5t89.5 -77.5q37 -33 61 -55l47 -43h2q14 14 168 152q47 39 68 39q23 0 41 -17.5t18 -42t-31 -55.5q-190 -182 -216.5 -205.5t-49 -23.5t-49.5 23.5t-217 205.5 q-31 30 -31 57z" />
<glyph unicode="&#x165;" horiz-adv-x="835" d="M39 817q0 63 76 64h110v180q0 72 72 72h2q70 0 70 -72v-180h239q70 0 70 -64q0 -61 -72 -61h-237v-498q0 -68 19.5 -104.5t76.5 -36.5q27 0 47 12t31.5 30.5t17.5 40t8 40t4 32.5v15q8 51 70 51q72 0 72 -76q0 -123 -76 -197.5t-180 -74.5q-233 0 -234 274v492h-110 q-76 0 -76 61zM500 952q0 12 6 23.5t14 18.5t16.5 11.5t14.5 6.5l6 4q37 18 59 59q-43 2 -70.5 32t-27.5 71q0 43 30 72.5t75 29.5q57 0 94 -45t37 -109q0 -102 -69 -170.5t-120 -68.5q-23 0 -44 19t-21 46z" />
<glyph unicode="&#x16a;" d="M94 1188q0 29 15.5 44t29 17t37.5 2h363q25 0 38 -2t28.5 -17t15.5 -44q0 -61 -82 -62h-111v-692q0 -160 107.5 -246t240.5 -86q129 0 237.5 86t108.5 246v692h-110q-82 0 -82 62q0 29 15.5 44t28.5 17t38 2h362q25 0 38 -2t28.5 -17t15.5 -44q0 -61 -82 -62h-110v-704 q0 -188 -143.5 -316.5t-346.5 -128.5q-199 0 -343 127t-144 318v704h-111q-82 1 -82 62zM117 1575q0 14 4 27.5t25.5 29t56.5 15.5h1143q35 0 55.5 -15.5t24.5 -30t4 -26.5q0 -25 -18.5 -48.5t-61.5 -23.5h-1143q-90 0 -90 72z" />
<glyph unicode="&#x16b;" horiz-adv-x="1193" d="M35 819q0 29 15.5 44.5t28.5 17.5t38 2h170q51 0 66.5 -17.5t15.5 -66.5v-551q0 -33 3 -49.5t19.5 -40t57 -34.5t106.5 -11q37 0 74 6t85 24.5t78.5 64.5t30.5 114v436h-110q-25 0 -38 2t-28.5 17.5t-15.5 43.5q0 61 82 62h170q51 0 66.5 -17.5t15.5 -66.5v-674h110 q25 0 38 -2t28.5 -17.5t15.5 -44.5q0 -61 -82 -61h-170q-27 0 -40 2t-27.5 19.5t-14.5 50.5q-109 -84 -280 -84q-315 0 -316 248v522h-110q-82 0 -82 61zM209 1208q0 66 72 66h635q70 0 70 -66q0 -63 -74 -63h-633q-70 2 -70 63z" />
<glyph unicode="&#x16c;" d="M94 1188q0 29 15.5 44t29 17t37.5 2h363q25 0 38 -2t28.5 -17t15.5 -44q0 -61 -82 -62h-111v-692q0 -160 107.5 -246t240.5 -86q129 0 237.5 86t108.5 246v692h-110q-82 0 -82 62q0 29 15.5 44t28.5 17t38 2h362q25 0 38 -2t28.5 -17t15.5 -44q0 -61 -82 -62h-110v-704 q0 -188 -143.5 -316.5t-346.5 -128.5q-199 0 -343 127t-144 318v704h-111q-82 1 -82 62zM414 1614q0 29 16.5 46t45.5 17q18 0 31.5 -6t19.5 -18.5t9 -21.5t5 -21.5t2 -14.5q12 -57 78 -93t156 -36q84 0 153.5 36t79.5 108q6 68 64 67q29 0 46 -17.5t17 -47.5 q0 -115 -104.5 -196t-257.5 -81q-158 0 -259.5 82t-101.5 197z" />
<glyph unicode="&#x16d;" horiz-adv-x="1193" d="M35 819q0 29 15.5 44.5t28.5 17.5t38 2h170q51 0 66.5 -17.5t15.5 -66.5v-551q0 -33 3 -49.5t19.5 -40t57 -34.5t106.5 -11q37 0 74 6t85 24.5t78.5 64.5t30.5 114v436h-110q-25 0 -38 2t-28.5 17.5t-15.5 43.5q0 61 82 62h170q51 0 66.5 -17.5t15.5 -66.5v-674h110 q25 0 38 -2t28.5 -17.5t15.5 -44.5q0 -61 -82 -61h-170q-27 0 -40 2t-27.5 19.5t-14.5 50.5q-109 -84 -280 -84q-315 0 -316 248v522h-110q-82 0 -82 61zM236 1245q0 29 18.5 46.5t45.5 17.5q12 0 22 -3t17.5 -9.5t11.5 -12.5t7 -14t4 -13.5t3 -11.5v-8q23 -84 232 -84 q195 0 229 72q2 4 5 20.5t7 28.5t19.5 23.5t38.5 11.5q29 0 46 -17.5t17 -46.5q0 -86 -84 -155.5t-276.5 -69.5t-277.5 69.5t-85 155.5z" />
<glyph unicode="&#x16e;" d="M94 1188q0 29 15.5 44t29 17t37.5 2h363q25 0 38 -2t28.5 -17t15.5 -44q0 -61 -82 -62h-111v-692q0 -160 107.5 -246t240.5 -86q129 0 237.5 86t108.5 246v692h-110q-82 0 -82 62q0 29 15.5 44t28.5 17t38 2h362q25 0 38 -2t28.5 -17t15.5 -44q0 -61 -82 -62h-110v-704 q0 -188 -143.5 -316.5t-346.5 -128.5q-199 0 -343 127t-144 318v704h-111q-82 1 -82 62zM537 1452q0 104 71.5 173t165.5 69t167 -69t73 -173t-72 -174t-166 -70t-166.5 70t-72.5 174zM657 1452q0 -45 34 -81t85 -36t84 35t33 82q0 43 -32 80t-85 37t-86 -37t-33 -80z" />
<glyph unicode="&#x16f;" horiz-adv-x="1193" d="M35 819q0 29 15.5 44.5t28.5 17.5t38 2h170q51 0 66.5 -17.5t15.5 -66.5v-551q0 -33 3 -49.5t19.5 -40t57 -34.5t106.5 -11q37 0 74 6t85 24.5t78.5 64.5t30.5 114v436h-110q-25 0 -38 2t-28.5 17.5t-15.5 43.5q0 61 82 62h170q51 0 66.5 -17.5t15.5 -66.5v-674h110 q25 0 38 -2t28.5 -17.5t15.5 -44.5q0 -61 -82 -61h-170q-27 0 -40 2t-27.5 19.5t-14.5 50.5q-109 -84 -280 -84q-315 0 -316 248v522h-110q-82 0 -82 61zM357 1147q0 74 69.5 126t169.5 52q96 0 167 -51t71 -127q0 -74 -71 -126t-169 -52q-96 0 -166.5 52t-70.5 126z M477 1149q0 -47 36 -77t81 -30q51 0 86 31t35 74q0 39 -34 72.5t-87 33.5q-45 0 -81 -28.5t-36 -75.5z" />
<glyph unicode="&#x170;" d="M94 1188q0 29 15.5 44t29 17t37.5 2h363q25 0 38 -2t28.5 -17t15.5 -44q0 -61 -82 -62h-111v-692q0 -160 107.5 -246t240.5 -86q129 0 237.5 86t108.5 246v692h-110q-82 0 -82 62q0 29 15.5 44t28.5 17t38 2h362q25 0 38 -2t28.5 -17t15.5 -44q0 -61 -82 -62h-110v-704 q0 -188 -143.5 -316.5t-346.5 -128.5q-199 0 -343 127t-144 318v704h-111q-82 1 -82 62zM445 1487q0 33 33.5 50.5t175.5 64.5q76 25 123 41q37 10 43 10q31 0 50 -20.5t19 -55.5q0 -4 -1 -10t-1 -8q279 94 291 94q29 0 49.5 -21.5t20.5 -50.5q0 -53 -68 -75 q-297 -100 -311 -101q-29 0 -48.5 28t-17.5 66q-279 -94 -293 -94q-33 0 -49 29.5t-16 52.5z" />
<glyph unicode="&#x171;" horiz-adv-x="1193" d="M35 819q0 29 15.5 44.5t28.5 17.5t38 2h170q51 0 66.5 -17.5t15.5 -66.5v-551q0 -33 3 -49.5t19.5 -40t57 -34.5t106.5 -11q37 0 74 6t85 24.5t78.5 64.5t30.5 114v436h-110q-25 0 -38 2t-28.5 17.5t-15.5 43.5q0 61 82 62h170q51 0 66.5 -17.5t15.5 -66.5v-674h110 q25 0 38 -2t28.5 -17.5t15.5 -44.5q0 -61 -82 -61h-170q-27 0 -40 2t-27.5 19.5t-14.5 50.5q-109 -84 -280 -84q-315 0 -316 248v522h-110q-82 0 -82 61zM295 1118q0 29 23.5 44.5t162.5 74.5q74 33 121 53q41 18 60 19q31 0 50 -21.5t19 -50.5q0 -31 -29 -59 q305 129 316 131q31 0 50 -21.5t19 -50.5q0 -51 -63 -76q-285 -125 -303 -125q-27 0 -47.5 24.5t-20.5 55.5q0 18 23 49q-295 -129 -309 -129h-5q-35 0 -51 31t-16 51z" />
<glyph unicode="&#x178;" d="M61 1190q0 61 84 61h320q84 0 84 -63q0 -61 -84 -62h-47l356 -483l359 483h-48q-84 0 -84 64q0 61 84 61h320q84 0 84 -63q0 -61 -84 -62h-98l-461 -626v-375h110q25 0 38.5 -2t28.5 -17.5t15 -44.5q0 -61 -82 -61h-362q-82 0 -82 61q0 29 15.5 44.5t28.5 17.5t38 2h111 v375l-461 626h-99q-84 1 -84 64zM463 1575q0 39 29.5 70.5t72.5 31.5q41 0 72 -29.5t31 -72.5t-30 -72.5t-71 -29.5q-45 0 -74.5 30.5t-29.5 71.5zM881 1575q0 41 29.5 71.5t72.5 30.5q45 0 73.5 -31.5t28.5 -70.5t-29.5 -70.5t-72.5 -31.5q-41 0 -71.5 29.5t-30.5 72.5z " />
<glyph unicode="&#x179;" horiz-adv-x="1312" d="M119 70q0 37 24 63l852 993h-704v-108q0 -27 -2 -41t-19.5 -28.5t-50.5 -14.5q-47 0 -58 21.5t-11 62.5v149q0 51 16 67.5t67 16.5h877q27 0 41 -2t28.5 -18.5t14.5 -48.5q0 -37 -25 -64l-852 -993h748v147q0 27 2 41.5t19.5 28.5t50.5 14q47 0 58 -21.5t11 -62.5v-188 q0 -49 -16 -66.5t-66 -17.5h-921q-27 0 -41.5 2t-28.5 18.5t-14 49.5zM446 1489q0 20 13.5 34.5t22.5 19t30 10.5q295 100 307 100q27 0 48 -20.5t21 -51.5q0 -53 -65 -73q-303 -102 -311 -103q-35 0 -50.5 29.5t-15.5 54.5z" />
<glyph unicode="&#x17a;" horiz-adv-x="954" d="M59 72q0 27 7 41l591 645h-426v-53q0 -27 -2 -41.5t-19 -28.5t-50 -14q-47 0 -58.5 21.5t-11.5 62.5v94q0 51 16.5 67.5t67.5 16.5h600q27 0 41 -2t28.5 -19.5t14.5 -50.5q0 -25 -6 -41l-592 -645h463v78q0 27 2 41t19.5 28.5t50.5 14.5q47 0 58 -21.5t11 -62.5v-119 q0 -49 -16.5 -66.5t-65.5 -17.5h-639q-27 0 -41 2t-28.5 19.5t-14.5 50.5zM295 1118q0 8 2 16.5t7 14.5t8 10t11.5 8t10.5 6.5t12 6.5l10 4q287 125 306 125q27 0 48 -20.5t21 -51.5q0 -49 -61 -74q-291 -127 -305 -127q-31 0 -50.5 27.5t-19.5 54.5z" />
<glyph unicode="&#x17b;" horiz-adv-x="1312" d="M119 70q0 37 24 63l852 993h-704v-108q0 -27 -2 -41t-19.5 -28.5t-50.5 -14.5q-47 0 -58 21.5t-11 62.5v149q0 51 16 67.5t67 16.5h877q27 0 41 -2t28.5 -18.5t14.5 -48.5q0 -37 -25 -64l-852 -993h748v147q0 27 2 41.5t19.5 28.5t50.5 14q47 0 58 -21.5t11 -62.5v-188 q0 -49 -16 -66.5t-66 -17.5h-921q-27 0 -41.5 2t-28.5 18.5t-14 49.5zM612 1534q0 43 31 72.5t72 29.5t71.5 -29.5t30.5 -72.5t-30.5 -72.5t-69.5 -29.5q-45 0 -75 29.5t-30 72.5z" />
<glyph unicode="&#x17c;" horiz-adv-x="954" d="M59 72q0 27 7 41l591 645h-426v-53q0 -27 -2 -41.5t-19 -28.5t-50 -14q-47 0 -58.5 21.5t-11.5 62.5v94q0 51 16.5 67.5t67.5 16.5h600q27 0 41 -2t28.5 -19.5t14.5 -50.5q0 -25 -6 -41l-592 -645h463v78q0 27 2 41t19.5 28.5t50.5 14.5q47 0 58 -21.5t11 -62.5v-119 q0 -49 -16.5 -66.5t-65.5 -17.5h-639q-27 0 -41 2t-28.5 19.5t-14.5 50.5zM403 1149q0 43 31 72.5t72 29.5t71.5 -29.5t30.5 -72.5t-30.5 -72.5t-69.5 -29.5q-45 0 -75 29.5t-30 72.5z" />
<glyph unicode="&#x17d;" horiz-adv-x="1312" d="M119 70q0 37 24 63l852 993h-704v-108q0 -27 -2 -41t-19.5 -28.5t-50.5 -14.5q-47 0 -58 21.5t-11 62.5v149q0 51 16 67.5t67 16.5h877q27 0 41 -2t28.5 -18.5t14.5 -48.5q0 -37 -25 -64l-852 -993h748v147q0 27 2 41.5t19.5 28.5t50.5 14q47 0 58 -21.5t11 -62.5v-188 q0 -49 -16 -66.5t-66 -17.5h-921q-27 0 -41.5 2t-28.5 18.5t-14 49.5zM373 1589q0 23 19.5 40.5t41.5 17.5q18 0 38 -14.5t89 -78.5q37 -35 62 -55l47 -43h2q14 14 168 152q47 39 67 39q23 0 41.5 -17.5t18.5 -42t-31 -55.5q-190 -182 -217 -205.5t-49.5 -23.5t-49 23.5 t-217.5 205.5q-30 30 -30 57z" />
<glyph unicode="&#x17e;" horiz-adv-x="954" d="M59 72q0 27 7 41l591 645h-426v-53q0 -27 -2 -41.5t-19 -28.5t-50 -14q-47 0 -58.5 21.5t-11.5 62.5v94q0 51 16.5 67.5t67.5 16.5h600q27 0 41 -2t28.5 -19.5t14.5 -50.5q0 -25 -6 -41l-592 -645h463v78q0 27 2 41t19.5 28.5t50.5 14.5q47 0 58 -21.5t11 -62.5v-119 q0 -49 -16.5 -66.5t-65.5 -17.5h-639q-27 0 -41 2t-28.5 19.5t-14.5 50.5zM178 1249q0 25 18.5 42.5t41.5 17.5q27 0 126 -79t109 -79q12 0 111.5 79t126.5 79q25 0 42 -19.5t17 -40.5q0 -23 -16.5 -40t-108.5 -93q-72 -59 -121 -100q-31 -25 -49 -25h-8q-16 0 -154 117 q-57 47 -94 78q-41 32 -41 63z" />
<glyph unicode="&#x192;" horiz-adv-x="655" d="M35 61q0 29 15.5 44.5t28.5 17.5t38 2h110v633h-88q-82 0 -82 61q0 63 84 64h86v108q0 127 94.5 200t225.5 73q195 0 194 -123q0 -41 -27.5 -65.5t-60 -24.5t-54 21.5t-29 39.5t-7.5 27q-35 0 -57.5 -3t-59 -16.5t-57 -49.5t-20.5 -91v-96h166q25 0 38 -2t28 -17.5 t15 -44.5q0 -61 -81 -61h-166v-633h159q25 0 38.5 -2t28.5 -17.5t15 -44.5q0 -61 -82 -61h-411q-82 0 -82 61z" />
<glyph unicode="&#x218;" horiz-adv-x="1193" d="M119 61v271q0 27 2 41t19.5 28.5t49.5 14.5q31 0 47.5 -12.5t18.5 -23.5t4 -32q8 -125 113 -188q100 -57 274 -58q133 0 213 70t80 160q0 39 -16.5 75.5t-31.5 53t-18 16.5q-47 41 -84.5 54.5t-140.5 35.5l-88 19q-113 25 -158 36t-94 33.5t-90 61.5q-100 96 -100 221 q0 135 118.5 235.5t303.5 100.5q209 0 331 -105q25 72 36.5 88.5t43.5 16.5q61 0 62 -84v-270q0 -27 -2 -41.5t-19.5 -28.5t-50.5 -14q-29 0 -44 10t-19.5 21.5t-8.5 33.5q-47 248 -331 248q-125 0 -206 -61.5t-81 -141.5q0 -82 67.5 -131t135.5 -63l303 -64 q137 -29 226 -127t89 -221q0 -143 -116.5 -253t-311.5 -110q-250 0 -385 99q-16 -47 -23.5 -62.5t-20.5 -26t-36 -10.5q-61 0 -61 84zM510 -422q0 14 39 55.5t45 98.5q-31 2 -51.5 21.5t-20.5 50t20.5 51t51.5 20.5q33 0 60.5 -29.5t27.5 -99.5q0 -84 -47 -148.5t-80 -64.5 q-14 0 -29.5 13.5t-15.5 31.5z" />
<glyph unicode="&#x219;" horiz-adv-x="847" d="M72 72v196q0 27 2 41.5t19.5 28.5t49.5 14q57 0 70 -51q12 -41 23.5 -67.5t35 -57.5t63.5 -47t95 -16q25 0 49.5 3t69.5 14t72.5 44t27.5 82q0 55 -46 90t-109 49q-35 0 -125 23q-297 55 -297 241q0 35 13 72t47 78t106.5 66.5t177.5 25.5q113 0 184 -41q14 41 59 41 q61 0 62 -84v-141q0 -27 -2 -41t-19.5 -28.5t-50.5 -14.5q-29 0 -45 11t-19 23.5t-5 30.5q-2 23 -7.5 37.5t-20.5 37t-51 33.5t-89 11q-109 0 -162 -32.5t-53 -84.5q0 -57 61 -81.5t207 -51.5q309 -57 309 -270q0 -104 -82 -186t-264 -82q-137 0 -223 69q-16 -70 -72 -69 q-61 0 -61 84zM338 -410q0 14 39 55.5t45 98.5q-31 2 -51.5 21.5t-20.5 50t20.5 51t51.5 20.5q33 0 60.5 -29.5t27.5 -99.5q0 -84 -47 -148.5t-80 -64.5q-14 0 -29.5 13.5t-15.5 31.5z" />
<glyph unicode="&#x21a;" d="M78 1018v149q0 51 16.5 67.5t67.5 16.5h1229q51 0 66.5 -17t15.5 -67v-149q0 -27 -2.5 -41t-19.5 -28.5t-50 -14.5q-47 0 -58.5 21.5t-11.5 62.5v108h-485v-1001h190q84 0 84 -64q0 -61 -84 -61h-522q-84 0 -84 63q0 61 84 62h191v1001h-486v-108q0 -27 -2 -41 t-19.5 -28.5t-50.5 -14.5q-47 0 -58 21.5t-11 62.5zM688 -400q0 14 39 55.5t45 98.5q-31 2 -51.5 21.5t-20.5 50t20.5 51t51.5 20.5q33 0 60.5 -29.5t27.5 -99.5q0 -84 -47 -148.5t-80 -64.5q-14 0 -29.5 13.5t-15.5 31.5z" />
<glyph unicode="&#x21b;" horiz-adv-x="835" d="M39 819q0 63 84 64h104v168q0 27 2 41t19.5 28.5t50.5 14.5q47 0 58.5 -21.5t11.5 -62.5v-168h227q25 0 38 -2t28.5 -17.5t15.5 -44.5q0 -61 -82 -61h-227v-494q0 -152 100 -151q43 0 73.5 37.5t30.5 107.5q0 25 2.5 38t18.5 27.5t49 14.5t50.5 -14.5t19.5 -27.5t2 -40 q0 -117 -75 -192.5t-179 -75.5q-90 0 -162 61.5t-72 202.5v506h-106q-82 0 -82 61zM291 -410q0 14 39 55.5t45 98.5q-31 2 -51.5 21.5t-20.5 50t20.5 51t51.5 20.5q33 0 60.5 -29.5t27.5 -99.5q0 -84 -47 -148.5t-80 -64.5q-14 0 -29.5 13.5t-15.5 31.5z" />
<glyph unicode="&#x2c6;" horiz-adv-x="1075" d="M205 1079q0 33 45 62q258 172 272 176q6 2 15 2h2q14 0 49 -21.5t235 -154.5q47 -29 47 -66q0 -23 -21.5 -50.5t-49.5 -27.5h-4q-23 0 -133.5 82t-124.5 82q-10 0 -64 -39q-162 -117 -180 -123q-8 -2 -17 -2q-29 0 -50 27.5t-21 52.5z" />
<glyph unicode="&#x2c7;" horiz-adv-x="1075" d="M242 1249q0 25 18.5 42.5t40.5 17.5q27 0 126 -79t110 -79q12 0 110 78t127 80q25 0 42.5 -18.5t17.5 -41t-20.5 -43t-131.5 -112.5q-57 -47 -94 -78q-31 -25 -51 -25h-7q-12 0 -42.5 23.5t-206.5 171.5q-39 30 -39 63z" />
<glyph unicode="&#x2d8;" horiz-adv-x="1075" d="M174 1245q0 29 18.5 46.5t45.5 17.5q12 0 22 -3t17.5 -9.5t11.5 -12.5t7 -14t4 -13.5t3 -11.5v-8q23 -84 232 -84q195 0 229 72q2 4 5 20.5t7 28.5t19.5 23.5t38.5 11.5q29 0 46 -17.5t17 -46.5q0 -86 -84 -155.5t-276.5 -69.5t-277.5 69.5t-85 155.5z" />
<glyph unicode="&#x2d9;" horiz-adv-x="598" d="M223 1149q0 43 31 72.5t72 29.5t71.5 -29.5t30.5 -72.5t-30.5 -72.5t-69.5 -29.5q-45 0 -75 29.5t-30 72.5z" />
<glyph unicode="&#x2da;" d="M537 1147q0 74 69.5 126t169.5 52q96 0 167 -51t71 -127q0 -74 -71 -126t-169 -52q-96 0 -166.5 52t-70.5 126zM657 1149q0 -47 36 -77t81 -30q51 0 86 31t35 74q0 39 -34 72.5t-87 33.5q-45 0 -81 -28.5t-36 -75.5z" />
<glyph unicode="&#x2db;" horiz-adv-x="598" d="M41 -215q0 78 56.5 133t149.5 103.5t111 64.5q35 29 57.5 29t40 -16.5t17.5 -41.5q0 -31 -45 -66.5t-98.5 -64t-98.5 -66.5t-45 -73q2 -18 23.5 -32.5t56.5 -14.5q51 0 89 35t66 69.5t50.5 34.5t44 -18.5t21.5 -44.5q0 -47 -84 -128t-197 -81q-86 0 -150.5 50t-64.5 128z " />
<glyph unicode="&#x2dc;" horiz-adv-x="1075" d="M180 1071q0 29 33 57q133 123 225 123q47 0 87 -27.5t68 -55t48 -27.5q37 0 101.5 54t84.5 54q25 0 45.5 -18.5t20.5 -44.5q0 -25 -33 -58q-129 -123 -227 -122q-63 0 -120.5 54t-80.5 54q-35 0 -101.5 -54t-86.5 -54q-27 0 -45.5 20t-18.5 45z" />
<glyph unicode="&#x2dd;" horiz-adv-x="1075" d="M236 1118q0 37 57 64q291 127 307 127q31 0 51.5 -21.5t20.5 -50.5q0 -31 -29 -59q305 129 315 131q31 0 51.5 -21.5t20.5 -50.5q0 -51 -65 -76q-287 -125 -303 -125q-27 0 -47.5 24.5t-20.5 55.5q0 18 22 49q-295 -129 -309 -129h-2q-35 0 -52 31t-17 51z" />
<glyph unicode="&#x400;" horiz-adv-x="1433" d="M94 61q0 29 15.5 44.5t29 17.5t37.5 2h111v1001h-111q-82 0 -82 62q0 29 15.5 44t29 17t37.5 2h1055q51 0 66.5 -17t15.5 -67v-149q0 -27 -2 -41t-19.5 -28.5t-50.5 -14.5q-47 0 -58.5 21.5t-11.5 62.5v108h-743v-415h408q0 51 3 70.5t18 32.5t50 13q47 0 58.5 -21.5 t11.5 -62.5v-190q0 -27 -2 -41t-18.5 -28.5t-49.5 -14.5q-49 0 -60 22.5t-11 94.5h-408v-461h803v141q0 27 2 41.5t19.5 28.5t50.5 14q47 0 58 -21.5t11 -62.5v-182q0 -49 -16.5 -66.5t-65.5 -17.5h-1114q-82 0 -82 61zM512 1581q0 27 19.5 49.5t49.5 22.5q10 0 314 -102 q59 -20 59 -62q0 -25 -15.5 -54.5t-49.5 -29.5h-3q-12 0 -307 101q-67 22 -67 75z" />
<glyph unicode="&#x401;" horiz-adv-x="1433" d="M94 61q0 29 15.5 44.5t29 17.5t37.5 2h111v1001h-111q-82 0 -82 62q0 29 15.5 44t29 17t37.5 2h1055q51 0 66.5 -17t15.5 -67v-149q0 -27 -2 -41t-19.5 -28.5t-50.5 -14.5q-47 0 -58.5 21.5t-11.5 62.5v108h-743v-415h408q0 51 3 70.5t18 32.5t50 13q47 0 58.5 -21.5 t11.5 -62.5v-190q0 -27 -2 -41t-18.5 -28.5t-49.5 -14.5q-49 0 -60 22.5t-11 94.5h-408v-461h803v141q0 27 2 41.5t19.5 28.5t50.5 14q47 0 58 -21.5t11 -62.5v-182q0 -49 -16.5 -66.5t-65.5 -17.5h-1114q-82 0 -82 61zM404 1575q0 45 30.5 74t71.5 29q45 0 73.5 -31 t28.5 -72q0 -39 -29.5 -70.5t-72.5 -31.5q-45 0 -73.5 30.5t-28.5 71.5zM824 1575q0 45 30.5 74t71.5 29q45 0 73.5 -31t28.5 -72q0 -39 -29.5 -70.5t-72.5 -31.5q-45 0 -73.5 30.5t-28.5 71.5z" />
<glyph unicode="&#x402;" horiz-adv-x="1851" d="M76 997v181q0 43 18.5 58t57.5 15h1247q45 0 59.5 -19.5t14.5 -55.5v-105q0 -82 -68 -82h-4q-35 0 -51.5 16.5t-18.5 30t-2 39.5v49h-483v-360q166 141 434 141q225 0 319.5 -86t94.5 -246v-174q0 -188 -122 -305t-282 -117q-115 0 -190.5 52.5t-75.5 136.5 q0 41 26.5 67.5t65.5 26.5q37 0 63.5 -25.5t26.5 -64.5q0 -12 -10 -43q39 -23 96 -23q106 0 177 78t79 180q2 20 2 62v145q2 104 -56 156.5t-228 52.5q-178 0 -289 -68.5t-127 -166.5q-4 -20 -4 -62v-354h28q33 0 50.5 -18.5t17.5 -45.5q0 -61 -68 -63h-372q-72 0 -72 63.5 t72 63.5h200v997h-483v-118q0 -74 -69 -74h-9q-63 -1 -65 65z" />
<glyph unicode="&#x403;" horiz-adv-x="1314" d="M92 61q0 25 16.5 44.5t53.5 21.5h125v997h-117q-78 0 -78 63.5t74 63.5h985q35 0 52.5 -16t18.5 -28.5t1 -35.5v-167q2 -72 -68 -72h-2q-72 0 -74 67v125h-649v-997h168q72 0 72 -63.5t-74 -63.5h-430q-74 0 -74 61zM506 1489q0 20 13.5 34.5t22.5 19t30 10.5 q295 100 307 100q27 0 48 -20.5t21 -51.5q0 -53 -65 -73q-303 -102 -311 -103q-35 0 -50.5 29.5t-15.5 54.5z" />
<glyph unicode="&#x404;" d="M119 625q0 262 205.5 455.5t513.5 193.5q254 0 432 -115q4 10 13 26.5t12 24t10.5 18.5t11.5 16t11 12.5t12.5 10.5t13.5 5t16 2q61 0 62 -78v-266l2 -4v-11q0 -72 -72 -71h-2q-41 0 -57.5 23.5t-21.5 57t-43 81t-110 84.5q-115 57 -276 57q-217 0 -390 -126t-198 -333 h895q74 0 74 -61q0 -63 -74 -64h-889q39 -197 200 -329t386 -132q59 0 123.5 9.5t134.5 30t118 64.5t56 105q0 2 1 13.5t2 16.5t4 14.5t8.5 13.5t13.5 10t20.5 8t28.5 2q66 0 66 -74q0 -55 -29 -110t-92.5 -108.5t-184 -86.5t-284.5 -33q-317 0 -520 195t-203 453z" />
<glyph unicode="&#x405;" horiz-adv-x="1193" d="M119 61v271q0 27 2 41t19.5 28.5t49.5 14.5q31 0 47.5 -12.5t18.5 -23.5t4 -32q8 -125 113 -188q100 -57 274 -58q133 0 213 70t80 160q0 39 -16.5 75.5t-31.5 53t-18 16.5q-47 41 -84.5 54.5t-140.5 35.5l-88 19q-113 25 -158 36t-94 33.5t-90 61.5q-100 96 -100 221 q0 135 118.5 235.5t303.5 100.5q209 0 331 -105q25 72 36.5 88.5t43.5 16.5q61 0 62 -84v-270q0 -27 -2 -41.5t-19.5 -28.5t-50.5 -14q-29 0 -44 10t-19.5 21.5t-8.5 33.5q-47 248 -331 248q-125 0 -206 -61.5t-81 -141.5q0 -82 67.5 -131t135.5 -63l303 -64 q137 -29 226 -127t89 -221q0 -143 -116.5 -253t-311.5 -110q-250 0 -385 99q-16 -47 -23.5 -62.5t-20.5 -26t-36 -10.5q-61 0 -61 84z" />
<glyph unicode="&#x406;" horiz-adv-x="716" d="M84 61q0 29 15.5 44.5t28.5 17.5t38 2h121v1001h-121q-82 0 -82 62q0 29 15.5 44t28.5 17t38 2h383q25 0 38 -2t28.5 -17t15.5 -44q0 -61 -82 -62h-121v-1001h121q25 0 38 -2t28.5 -17.5t15.5 -44.5q0 -61 -82 -61h-383q-82 0 -82 61z" />
<glyph unicode="&#x407;" horiz-adv-x="716" d="M45 1575q0 43 31 72.5t72 29.5t71.5 -29.5t30.5 -72.5t-30.5 -72.5t-69.5 -29.5q-45 0 -75 29.5t-30 72.5zM84 61q0 29 15.5 44.5t28.5 17.5t38 2h121v1001h-121q-82 0 -82 62q0 29 15.5 44t28.5 17t38 2h383q25 0 38 -2t28.5 -17t15.5 -44q0 -61 -82 -62h-121v-1001h121 q25 0 38 -2t28.5 -17.5t15.5 -44.5q0 -61 -82 -61h-383q-82 0 -82 61zM463 1575q0 43 31 72.5t72 29.5t71.5 -29.5t30.5 -72.5t-30.5 -72.5t-69.5 -29.5q-45 0 -75 29.5t-30 72.5z" />
<glyph unicode="&#x408;" horiz-adv-x="1075" d="M145 203q0 47 27 71.5t65.5 24.5t64.5 -26.5t26 -63.5q0 -33 -17 -53q59 -53 174 -54q25 0 50.5 5.5t65.5 20.5t65.5 56t25.5 103v839h-168q-84 0 -84 64q0 61 84 61h371q84 0 84 -61q0 -63 -84 -64h-61v-852q0 -135 -102.5 -216t-246.5 -81q-152 0 -246 64t-94 162z" />
<glyph unicode="&#x409;" horiz-adv-x="2299" d="M57 166q0 49 31 71.5t62 22.5q39 0 64.5 -26.5t25.5 -63.5q0 -23 -17 -55q39 -23 72 -23q94 0 154.5 177t80 393.5t19.5 461.5h-133q-70 2 -70 64q0 63 76 63h1022q72 0 72 -63.5t-76 -63.5h-117v-411h399q121 0 214.5 -36t142.5 -92.5t72.5 -114.5t23.5 -114 q0 -135 -118 -245.5t-326 -110.5h-670q-74 0 -74 61q0 66 68 66h125v997h-514q0 -1147 -371 -1147q-106 0 -172 52.5t-66 136.5zM1323 127h356q158 0 255.5 69.5t97.5 161.5q0 84 -90.5 157t-272.5 73h-346v-461z" />
<glyph unicode="&#x40a;" horiz-adv-x="2299" d="M92 63.5q0 63.5 76 63.5h117v997h-117q-76 0 -76 63.5t74 63.5h381q74 0 74 -63.5t-76 -63.5h-117v-411h752v411h-117q-76 0 -76 63.5t72 63.5h383q74 0 74 -63.5t-76 -63.5h-117v-411h399q121 0 213.5 -36t141.5 -91.5t73.5 -113.5t24.5 -114q0 -137 -118 -247.5 t-326 -110.5h-670q-74 0 -74 61q0 66 68 66h125v461h-752v-461h119q74 0 74 -63.5t-72 -63.5h-383q-74 0 -74 63.5zM1323 127h354q158 0 256.5 69.5t98.5 162t-98.5 161t-254.5 68.5h-356v-461z" />
<glyph unicode="&#x40b;" horiz-adv-x="1642" d="M76 1004v174q0 74 76 73h1136q66 0 66 -69v-111q0 -82 -68 -82h-4q-72 0 -72 74v61h-483v-354q137 123 340 123q328 0 328 -311v-455h65q80 0 80 -63.5t-76 -63.5h-282q-74 0 -74 61q0 66 72 66h71v446q0 45 -5 73t-22.5 59.5t-60.5 46t-110 14.5q-45 0 -94.5 -11.5 t-104.5 -40t-91 -89t-36 -144.5v-354h66q80 0 79.5 -63.5t-73.5 -63.5h-336q-72 0 -72 63q0 39 31 56q14 8 57 8h105v997h-365v-118q0 -74 -67 -74h-9q-67 0 -67 72z" />
<glyph unicode="&#x40c;" horiz-adv-x="1611" d="M109 61q0 29 15 44.5t28.5 17.5t37.5 2h111v1001h-111q-82 0 -81 62q0 29 15 44t28.5 17t37.5 2h336q25 0 38.5 -2t28.5 -17t15 -44q0 -61 -82 -62h-110v-589l725 589q-45 0 -63.5 2t-34 16.5t-15.5 45.5q0 61 82 61h297q84 0 84 -63q0 -61 -84 -62h-82l-487 -395 l526 -606h74q84 0 84 -64q0 -61 -84 -61h-258q-82 0 -82 61q0 31 15 45.5t34.5 16.5t64.5 2l-464 534l-332 -270v-264h110q25 0 38.5 -2t28.5 -17.5t15 -44.5q0 -61 -82 -61h-336q-81 0 -81 61zM655 1489q0 20 13.5 34.5t22.5 19t30 10.5q295 100 307 100q27 0 48 -20.5 t21 -51.5q0 -53 -65 -73q-303 -102 -311 -103q-35 0 -50.5 29.5t-15.5 54.5z" />
<glyph unicode="&#x40d;" horiz-adv-x="1611" d="M92 63q0 37 33 56q14 8 57 8h105v997h-119q-76 0 -76 63.5t74 63.5h356q74 0 74 -63q0 -37 -33 -55q-14 -8 -57 -9h-105v-927l2 -54l43 68l228 315l442 598h-29q-74 0 -73.5 63.5t78.5 63.5h352q74 0 74 -63q0 -37 -33 -55q-14 -8 -58 -9h-102v-997h117q76 0 76 -63.5 t-74 -63.5h-354q-74 0 -74 63q0 39 31 56q14 8 59 8h102v981l-45 -68l-227 -315l-440 -598h26q41 0 57.5 -20.5t16.5 -43.5q0 -63 -78 -63h-352q-74 0 -74 63zM602 1581q0 27 19.5 49.5t49.5 22.5q10 0 314 -102q59 -20 59 -62q0 -25 -15.5 -54.5t-49.5 -29.5h-3 q-12 0 -307 101q-67 22 -67 75z" />
<glyph unicode="&#x40e;" d="M78 1187.5q0 63.5 72 63.5h319q78 0 78 -63.5t-72 -63.5h-65l303 -473q162 -256 184 -299l289 772h-90q-78 0 -78 62q0 66 74 65h331q72 0 72 -63.5t-82 -63.5h-74l-276 -735q-23 -59 -46.5 -107.5t-66.5 -107.5t-95 -100t-131 -69t-173 -28q-129 0 -217 62.5t-88 163.5 q0 51 29.5 73.5t62.5 22.5q37 0 63.5 -25.5t26.5 -64.5q0 -25 -14 -51v-2q59 -43 143 -43q39 0 72 4t55.5 9t44 15.5t32.5 16.5t24.5 19t17.5 18.5t12 18.5t10 15l-563 871q-18 25 -37 24h-69q-78 0 -78 63.5zM467 1548q0 12 4 29q-4 10 -4 35q0 41 28.5 71.5t73.5 30.5 t74 -30.5t29 -71.5q0 -55 -49 -88q53 -14 155 -15h8q106 0 148 15q-49 33 -49 88q0 41 28.5 71.5t73.5 30.5t74 -30.5t29 -71.5q0 -18 -7 -35q6 -25 7 -29q0 -57 -43 -100q-70 -70 -271 -70h-22q-162 0 -224.5 51t-62.5 119z" />
<glyph unicode="&#x40f;" horiz-adv-x="1611" d="M92 63.5q0 63.5 76 63.5h119v997h-117q-78 0 -78 63.5t74 63.5h383q74 0 74 -63q0 -37 -33 -55q-14 -8 -58 -9h-102v-997h752v997h-117q-78 0 -78 62q0 66 74 65h383q74 0 74 -63.5t-76 -63.5h-117v-997h115q78 0 78 -63.5t-74 -63.5h-580v-274q-2 -37 -20.5 -51.5 t-38.5 -14.5q-57 0 -57 76v264h-584q-72 0 -72 63.5z" />
<glyph unicode="&#x410;" d="M84 63q0 61 82 62h94l387 1083q12 31 32.5 47.5t35 18.5t41.5 2h39q29 0 43 -2t33.5 -18.5t31.5 -49.5l387 -1081h94q25 0 38.5 -2t28.5 -17.5t15 -44.5q0 -61 -82 -61h-325q-84 0 -84 63q0 61 84 62h82l-82 227h-567l-82 -227h82q84 0 83 -64q0 -61 -83 -61h-326 q-25 0 -38 2t-28.5 17t-15.5 44zM537 477h477l-240 668z" />
<glyph unicode="&#x411;" horiz-adv-x="1492" d="M92 63q0 61 70 64h125v997h-117q-78 0 -78 63.5t74 63.5h1014q74 0 73 -80v-167q2 -72 -67 -72h-2q-72 0 -74 67v125h-680v-411h442q250 0 375 -112t125 -243q0 -139 -132 -248.5t-359 -109.5h-719q-35 0 -52.5 18t-17.5 45zM430 127h399q172 0 286 67.5t114 161.5 q0 84 -103.5 158t-306.5 74h-389v-461z" />
<glyph unicode="&#x412;" horiz-adv-x="1492" d="M94 61q0 29 15.5 44.5t29 17.5t37.5 2h111v1001h-111q-82 0 -82 62q0 29 15.5 44t29 17t37.5 2h662q201 0 338 -95t137 -222q0 -102 -91.5 -175t-213.5 -104q170 -31 267 -117.5t97 -195.5q0 -137 -137 -239.5t-340 -102.5h-719q-82 0 -82 61zM428 125h410 q162 0 277.5 63.5t115.5 157.5q0 96 -105.5 169t-255.5 73h-442v-463zM428 713h340q176 0 289.5 65.5t113.5 153.5q0 78 -97 136t-240 58h-406v-413z" />
<glyph unicode="&#x413;" horiz-adv-x="1314" d="M92 61q0 25 16.5 44.5t53.5 21.5h125v997h-117q-78 0 -78 63.5t74 63.5h985q35 0 52.5 -16t18.5 -28.5t1 -35.5v-167q2 -72 -68 -72h-2q-72 0 -74 67v125h-649v-997h168q72 0 72 -63.5t-74 -63.5h-430q-74 0 -74 61z" />
<glyph unicode="&#x414;" horiz-adv-x="1611" d="M74 53q0 74 71 74h37q35 0 56 16q96 80 160.5 186.5t95 241t43 258t14.5 295.5h-117q-78 0 -78 63.5t74 63.5h1014q74 0 74 -63q0 -37 -31 -55q-14 -8 -60 -9h-102v-997h137q20 0 34.5 -3t28 -22.5t13.5 -54.5v-317q0 -29 -12.5 -45.5t-24.5 -20.5t-22 -4 q-23 0 -39.5 15.5t-18.5 39.5v285h-1231v-248q0 -92 -59 -92q-57 0 -57 72v321zM387 127h795v997h-514q-2 -18 -5.5 -112t-7.5 -150.5t-19 -159t-38 -179.5t-64.5 -169t-97.5 -166z" />
<glyph unicode="&#x415;" horiz-adv-x="1433" d="M94 61q0 29 15.5 44.5t29 17.5t37.5 2h111v1001h-111q-82 0 -82 62q0 29 15.5 44t29 17t37.5 2h1055q51 0 66.5 -17t15.5 -67v-149q0 -27 -2 -41t-19.5 -28.5t-50.5 -14.5q-47 0 -58.5 21.5t-11.5 62.5v108h-743v-415h408q0 51 3 70.5t18 32.5t50 13q47 0 58.5 -21.5 t11.5 -62.5v-190q0 -27 -2 -41t-18.5 -28.5t-49.5 -14.5q-49 0 -60 22.5t-11 94.5h-408v-461h803v141q0 27 2 41.5t19.5 28.5t50.5 14q47 0 58 -21.5t11 -62.5v-182q0 -49 -16.5 -66.5t-65.5 -17.5h-1114q-82 0 -82 61z" />
<glyph unicode="&#x416;" horiz-adv-x="2508" d="M88 63.5q0 63.5 76 63.5h61q20 0 37 20l510 584q-27 20 -246 197.5t-227 183.5q-16 12 -57 12h-54q-35 0 -52 18.5t-17 43.5q0 12 4 25.5t21.5 26.5t45.5 13h320q35 0 53.5 -17t18.5 -44q0 -66 -74 -66h-39l725 -585v585h-117q-76 0 -76 63.5t74 63.5h355 q74 0 73.5 -63.5t-76.5 -63.5h-116v-585l723 585h-39q-37 0 -55.5 18.5t-18.5 43.5q0 12 4 24.5t21.5 26.5t48.5 14h319q29 0 46.5 -13t21.5 -25.5t4 -24.5q0 -27 -17.5 -45.5t-50.5 -18.5h-57h-17.5t-13.5 -1t-10 -2t-10 -6t-11.5 -7t-15.5 -12.5t-20 -16.5 q-410 -334 -430 -348l510 -584q20 -20 36 -20h62q74 0 74 -63.5t-70 -63.5h-283q-72 0 -71.5 63.5t73.5 63.5h41l-463 530l-331 -268v-262h116q76 0 76 -63.5t-73 -63.5h-355q-74 0 -74 63.5t76 63.5h117v262l-334 268l-461 -530h41q72 0 72 -66q0 -61 -70 -61h-282 q-72 0 -72 63.5z" />
<glyph unicode="&#x417;" horiz-adv-x="1314" d="M106 346q0 68 72 68h2q29 0 45.5 -11.5t19.5 -23.5t6 -40t7 -40q53 -197 401 -197q184 0 302 75t118 169q0 88 -114.5 165t-311.5 77h-166q-70 0 -69 63q0 61 76 62h149q197 0 299 84q76 61 76 133q0 88 -102.5 152.5t-253.5 64.5q-319 0 -379 -219q-2 -10 -7.5 -39 t-9.5 -39t-21.5 -21.5t-45.5 -11.5q-68 0 -68 76v309q0 39 18.5 55.5t43.5 16.5q10 0 18 -3t15 -7t16.5 -13.5t15.5 -16.5t20.5 -23.5t24.5 -26.5h2q131 90 357 90q215 0 358 -100.5t143 -241.5q0 -174 -213 -277q272 -111 273 -311q0 -150 -159 -258.5t-405 -108.5 q-133 0 -235 27t-160.5 66t-95.5 91t-49.5 97t-12.5 88z" />
<glyph unicode="&#x418;" horiz-adv-x="1611" d="M92 63q0 37 33 56q14 8 57 8h105v997h-119q-76 0 -76 63.5t74 63.5h356q74 0 74 -63q0 -37 -33 -55q-14 -8 -57 -9h-105v-927l2 -54l43 68l228 315l442 598h-29q-74 0 -73.5 63.5t78.5 63.5h352q74 0 74 -63q0 -37 -33 -55q-14 -8 -58 -9h-102v-997h117q76 0 76 -63.5 t-74 -63.5h-354q-74 0 -74 63q0 39 31 56q14 8 59 8h102v981l-45 -68l-227 -315l-440 -598h26q41 0 57.5 -20.5t16.5 -43.5q0 -63 -78 -63h-352q-74 0 -74 63z" />
<glyph unicode="&#x419;" horiz-adv-x="1611" d="M92 63q0 37 33 56q14 8 57 8h105v997h-119q-76 0 -76 63.5t74 63.5h356q74 0 74 -63q0 -37 -33 -55q-14 -8 -57 -9h-105v-927l2 -54l43 68l228 315l442 598h-29q-74 0 -73.5 63.5t78.5 63.5h352q74 0 74 -63q0 -37 -33 -55q-14 -8 -58 -9h-102v-997h117q76 0 76 -63.5 t-74 -63.5h-354q-74 0 -74 63q0 39 31 56q14 8 59 8h102v981l-45 -68l-227 -315l-440 -598h26q41 0 57.5 -20.5t16.5 -43.5q0 -63 -78 -63h-352q-74 0 -74 63zM494 1548q0 4 6 29q-6 16 -6 35q0 39 29.5 70.5t72.5 31.5t72.5 -31.5t29.5 -70.5q0 -53 -49 -88q53 -14 156 -15 h10q104 0 146 15q-49 31 -50 88q0 45 31 73.5t72 28.5q43 0 72.5 -31.5t29.5 -70.5q0 -18 -6 -35q6 -25 6 -29q0 -57 -41 -98q-68 -72 -268 -72h-21q-166 0 -229 51t-63 119z" />
<glyph unicode="&#x41a;" horiz-adv-x="1611" d="M109 61q0 29 15 44.5t28.5 17.5t37.5 2h111v1001h-111q-82 0 -81 62q0 29 15 44t28.5 17t37.5 2h336q25 0 38.5 -2t28.5 -17t15 -44q0 -61 -82 -62h-110v-589l725 589q-45 0 -63.5 2t-34 16.5t-15.5 45.5q0 61 82 61h297q84 0 84 -63q0 -61 -84 -62h-82l-487 -395 l526 -606h74q84 0 84 -64q0 -61 -84 -61h-258q-82 0 -82 61q0 31 15 45.5t34.5 16.5t64.5 2l-464 534l-332 -270v-264h110q25 0 38.5 -2t28.5 -17.5t15 -44.5q0 -61 -82 -61h-336q-81 0 -81 61z" />
<glyph unicode="&#x41b;" horiz-adv-x="1611" d="M57 166q0 41 27 67.5t65.5 26.5t64.5 -26.5t26 -63.5q0 -23 -17 -55q31 -20 74 -21q231 0 252 971v59h-133q-70 2 -70 64q0 63 74 63h1024q74 0 74 -63.5t-76 -63.5h-119v-997h119q76 0 76 -63.5t-80 -63.5h-373q-78 0 -78 63q0 37 33 56q14 8 57 8h103v997h-514v-65 q-12 -582 -104.5 -832t-266.5 -250q-106 0 -172 52.5t-66 136.5z" />
<glyph unicode="&#x41c;" horiz-adv-x="1910" d="M109 61q0 29 15 44.5t28.5 17.5t37.5 2h111v1001h-111q-82 0 -81 62q0 29 15 44t28.5 17t37.5 2h197q51 0 74.5 -15t44.5 -60l448 -1022l449 1026q14 33 36.5 50t38 19t44.5 2h196q25 0 38 -2t28.5 -17t15.5 -44q0 -61 -82 -62h-110v-1001h110q25 0 38 -2t28.5 -17.5 t15.5 -44.5q0 -61 -82 -61h-336q-25 0 -38 2t-28.5 17.5t-15.5 43.5q0 61 82 62h111v991h-2l-447 -1022q-33 -72 -90 -71q-59 0 -90 75l-446 1018h-2v-991h110q25 0 38.5 -2t28.5 -17.5t15 -44.5q0 -61 -82 -61h-336q-81 0 -81 61z" />
<glyph unicode="&#x41d;" horiz-adv-x="1611" d="M92 63.5q0 63.5 76 63.5h119v997h-119q-76 0 -76 63.5t74 63.5h383q74 0 74 -63q0 -37 -33 -55q-14 -8 -58 -9h-102v-411h752v411h-117q-78 0 -78 62q0 66 74 65h383q74 0 74 -63.5t-76 -63.5h-117v-997h117q76 0 76 -63.5t-74 -63.5h-383q-74 0 -74 63q0 37 33 56 q14 8 57 8h105v461h-752v-461h115q78 0 78 -63.5t-74 -63.5h-383q-74 0 -74 63.5z" />
<glyph unicode="&#x41e;" horiz-adv-x="1671" d="M119 627q0 262 208 454.5t509 192.5q299 0 507.5 -190.5t208.5 -458.5q0 -262 -207.5 -455t-508.5 -193q-299 0 -508 191t-209 459zM260 649q0 -223 168 -385t407.5 -162t407.5 162t168 385q0 205 -168 352.5t-407.5 147.5t-407.5 -147.5t-168 -352.5z" />
<glyph unicode="&#x41f;" horiz-adv-x="1611" d="M92 63.5q0 63.5 76 63.5h119v997h-117q-78 0 -78 63.5t76 63.5h1278q72 0 72 -63.5t-76 -63.5h-117v-997h117q76 0 76 -63.5t-74 -63.5h-383q-74 0 -74 63q0 37 33 56q14 8 57 8h105v997h-752v-997h115q78 0 78 -63.5t-74 -63.5h-383q-74 0 -74 63.5z" />
<glyph unicode="&#x420;" horiz-adv-x="1433" d="M94 61q0 29 15.5 44.5t29 17.5t37.5 2h111v1001h-111q-82 0 -82 62q0 29 15.5 44t29 17t37.5 2h631q215 0 360.5 -111.5t145.5 -263t-145.5 -263t-360.5 -111.5h-379v-377h111q25 0 38 -2t28.5 -17.5t15.5 -44.5q0 -61 -82 -61h-363q-82 0 -82 61zM428 627h344 q166 0 282.5 74.5t116.5 175.5q0 102 -115.5 175.5t-283.5 73.5h-344v-499z" />
<glyph unicode="&#x421;" d="M119 627q0 262 206.5 454.5t510.5 192.5q272 0 434 -127q27 57 37 76q12 29 24 40t39 11q61 0 62 -84v-285q0 -27 -2.5 -41t-19.5 -28.5t-50 -14.5q-57 0 -68 47q-10 43 -19 68t-44 68t-92 75q-119 70 -287 70q-250 0 -420 -155.5t-170 -366.5q0 -213 170 -369t424 -156 q176 0 291 58q47 23 77.5 49.5t44 55t17.5 45t6 42.5q4 59 70 60q72 0 72 -68q0 -160 -161 -263.5t-431 -103.5q-309 0 -515 193t-206 457z" />
<glyph unicode="&#x422;" d="M78 1018v149q0 51 16.5 67.5t67.5 16.5h1229q51 0 66.5 -17t15.5 -67v-149q0 -27 -2.5 -41t-19.5 -28.5t-50 -14.5q-47 0 -58.5 21.5t-11.5 62.5v108h-485v-1001h190q84 0 84 -64q0 -61 -84 -61h-522q-84 0 -84 63q0 61 84 62h191v1001h-486v-108q0 -27 -2 -41 t-19.5 -28.5t-50.5 -14.5q-47 0 -58 21.5t-11 62.5z" />
<glyph unicode="&#x423;" d="M78 1187.5q0 63.5 72 63.5h319q78 0 78 -63.5t-72 -63.5h-65l303 -473q162 -256 184 -299l289 772h-90q-78 0 -78 62q0 66 74 65h331q72 0 72 -63.5t-82 -63.5h-74l-276 -735q-23 -59 -46.5 -107.5t-66.5 -107.5t-95 -100t-131 -69t-173 -28q-129 0 -217 62.5t-88 163.5 q0 51 29.5 73.5t62.5 22.5q37 0 63.5 -25.5t26.5 -64.5q0 -25 -14 -51v-2q59 -43 143 -43q39 0 72 4t55.5 9t44 15.5t32.5 16.5t24.5 19t17.5 18.5t12 18.5t10 15l-563 871q-18 25 -37 24h-69q-78 0 -78 63.5z" />
<glyph unicode="&#x424;" horiz-adv-x="1792" d="M119 651q0 88 46 168t126 127q170 98 532 105v73h-170q-72 0 -71 64q0 23 14 42t49 21h496q35 0 51 -19.5t16 -43.5q0 -63 -71 -64h-170v-73q360 -6 530 -105q74 -43 123 -119.5t49 -175.5q0 -174 -141 -276q-162 -115 -561 -125v-123h170q70 0 69 -64q0 -61 -61 -63 h-494q-70 2 -69 63q0 63 71 64h170v123q-399 10 -561 125q-143 104 -143 276zM262 651q0 -53 24.5 -95t58.5 -69.5t89 -48t99.5 -31t110 -17.5t97 -9t82.5 -4v547q-561 -9 -561 -273zM967 377q559 12 559 274q0 61 -32 110.5t-87 77t-111.5 46t-125 27t-106.5 10.5t-77 2 h-20v-547z" />
<glyph unicode="&#x425;" d="M86 61q0 63 84 64h100l410 539l-375 462h-100q-84 0 -84 64q0 61 84 61h319q84 0 84 -63q0 -61 -84 -62h-39l275 -344l256 344h-45q-84 0 -84 64q0 61 84 61h319q84 0 84 -63q0 -61 -84 -62h-100l-350 -462l434 -539h102q84 0 84 -64q0 -61 -84 -61h-321q-82 0 -82 61 q0 29 15.5 44.5t28.5 17.5t38 2h43l-338 434l-318 -434h47q84 0 84 -64q0 -61 -84 -61h-319q-84 0 -84 61z" />
<glyph unicode="&#x426;" horiz-adv-x="1611" d="M92 63q0 23 15.5 42.5t54.5 21.5h125v997h-117q-78 0 -78 63.5t74 63.5h383q74 0 74 -63q0 -37 -33 -55q-14 -8 -58 -9h-102v-997h752v997h-117q-78 0 -78 62q0 66 74 65h383q74 0 74 -63.5t-76 -63.5h-117v-997h137q20 0 33.5 -3t27 -21.5t13.5 -53.5v-319 q0 -29 -12.5 -45.5t-23.5 -20.5t-21 -4q-23 0 -39.5 15.5t-18.5 39.5v285h-1251q-78 0 -78 63z" />
<glyph unicode="&#x427;" horiz-adv-x="1611" d="M92 1187.5q0 63.5 74 63.5h383q74 0 74 -63q0 -37 -33 -55q-14 -8 -58 -9h-102v-280q0 -63 21 -105q63 -119 215 -118h516v503h-117q-78 0 -78 62q0 66 74 65h383q74 0 74 -63.5t-76 -63.5h-117v-997h117q76 0 76 -63.5t-74 -63.5h-383q-74 0 -74 63q0 37 33 56 q14 8 57 8h105v369h-500q-164 0 -279.5 86t-115.5 264v278h-119q-76 0 -76 63.5z" />
<glyph unicode="&#x428;" horiz-adv-x="2359" d="M92 63q0 23 15.5 42.5t54.5 21.5h125v997h-117q-78 0 -78 63.5t76 63.5h354q74 0 74 -63.5t-76 -63.5h-119v-997h719v997h-116q-76 0 -76 63.5t73 63.5h355q74 0 74 -63.5t-76 -63.5h-117v-997h719v997h-117q-78 0 -78 63.5t74 63.5h356q74 0 74 -63.5t-76 -63.5h-118 v-997h124q68 -2 68 -64q0 -63 -70 -63h-2031q-37 0 -53.5 19t-16.5 44z" />
<glyph unicode="&#x429;" horiz-adv-x="2359" d="M92 63q0 23 15.5 42.5t54.5 21.5h125v997h-117q-78 0 -78 63.5t76 63.5h354q74 0 74 -63.5t-76 -63.5h-119v-997h719v997h-116q-76 0 -76 63.5t73 63.5h355q74 0 74 -63.5t-76 -63.5h-117v-997h719v997h-117q-78 0 -78 63.5t74 63.5h356q74 0 74 -63.5t-76 -63.5h-118 v-997h137q20 0 34.5 -3t28 -22.5t13.5 -54.5v-319q0 -68 -58 -68q-23 0 -39 16.5t-18 40.5q-2 12 -2 37v246h-1997q-78 0 -78 63z" />
<glyph unicode="&#x42a;" horiz-adv-x="1910" d="M76 1006v168q0 78 69 77h723q74 0 74 -63.5t-72 -63.5h-24v-411h444q131 0 231.5 -35t156 -90.5t83 -114.5t27.5 -117q0 -139 -132 -247.5t-358 -108.5h-716q-72 0 -72 63q0 61 68 64h124v997h-483v-125q-2 -68 -69 -67h-7q-67 0 -67 74zM846 127h401q170 0 284 68.5 t114 160.5q0 84 -102.5 158t-307.5 74h-389v-461z" />
<glyph unicode="&#x42b;" horiz-adv-x="2029" d="M92 63q0 61 68 64h125v997h-113q-80 0 -80 63.5t74 63.5h381q74 0 74 -63.5t-76 -63.5h-117v-411h442q131 0 231.5 -35t157 -90.5t84 -114.5t27.5 -117q0 -139 -132 -247.5t-357 -108.5h-715q-74 0 -74 63zM428 127h401q170 0 284 68.5t114 160.5q0 84 -102.5 158 t-307.5 74h-389v-461zM1405 63.5q0 63.5 76 63.5h116v997h-118q-74 0 -74 63.5t74 63.5h381q74 0 73 -63q0 -37 -32 -55q-14 -8 -58 -9h-102v-997h117q76 0 75.5 -63.5t-73.5 -63.5h-381q-74 0 -74 63.5z" />
<glyph unicode="&#x42c;" horiz-adv-x="1492" d="M92 63q0 61 70 64h125v997h-117q-78 0 -78 63.5t74 63.5h383q74 0 74 -63.5t-76 -63.5h-117v-411h442q250 0 375 -112t125 -243q0 -139 -132 -248.5t-359 -109.5h-719q-35 0 -52.5 18t-17.5 45zM430 127h399q172 0 286 67.5t114 161.5q0 84 -103.5 158t-306.5 74h-389 v-461z" />
<glyph unicode="&#x42d;" d="M119 324q0 66 67 65h11q16 0 28.5 -5t19.5 -12t11 -17.5t5 -17.5t1 -18l2 -8q8 -72 78 -121t160 -68.5t192 -19.5q219 0 384 129t204 332h-891q-74 0 -74 62q0 63 74 63h895q-23 195 -187.5 327t-400.5 132q-156 0 -276.5 -58.5t-153.5 -166.5q-2 -4 -6 -21.5t-7 -23 t-11 -15.5t-21.5 -14t-34.5 -4h-2q-69 0 -67 82v4v266q0 78 61 78q29 0 43.5 -16.5t44.5 -75.5q8 -14 13 -23q178 115 432 115q307 0 513 -193.5t206 -455.5q0 -256 -202 -452t-521 -196q-100 0 -195.5 16.5t-189 52.5t-149.5 107.5t-56 170.5z" />
<glyph unicode="&#x42e;" horiz-adv-x="2387" d="M92 63.5q0 63.5 76 63.5h117v997h-117q-76 0 -76 63.5t74 63.5h381q74 0 74 -63.5t-76 -63.5h-117v-436h410q31 254 233.5 420t478.5 166q303 0 510 -193.5t207 -456t-207 -455t-510 -192.5q-268 0 -475 163t-237 423h-410v-436h119q74 0 74 -63.5t-72 -63.5h-383 q-74 0 -74 63.5zM979 647q0 -219 166 -382t405 -163q242 0 408 164t166 383q0 205 -167 351.5t-407 146.5q-233 0 -402 -143.5t-169 -356.5z" />
<glyph unicode="&#x42f;" horiz-adv-x="1611" d="M88 63.5q0 63.5 74 63.5h45h14h10.5t8.5 2l6 3t6 4t6 5t7 8.5t9 10.5l375 424q-166 31 -288.5 122t-122.5 209q0 123 162.5 229.5t490.5 106.5h553q74 0 74 -63q0 -61 -70 -64h-125v-997h119q76 0 76 -63.5t-74 -63.5h-383q-74 0 -74 63q0 37 33 56q14 8 57 8h103v436 h-373q-18 0 -35 -18l-371 -418h39q35 0 54.5 -18.5t19.5 -45.5q0 -63 -74 -63h-278q-74 0 -74 63.5zM381 915q0 -100 151.5 -163.5t374.5 -63.5h273v436h-275q-223 0 -373.5 -58.5t-150.5 -150.5z" />
<glyph unicode="&#x430;" horiz-adv-x="1044" d="M109 262q0 139 158.5 220t437.5 85q0 104 -68 156.5t-184 52.5q-51 0 -76 -2t-30 -6t-5 -16q-2 -49 -29.5 -72t-60.5 -23q-39 0 -65.5 25t-26.5 70q0 150 291 149q197 0 296 -95t99 -222v-443q37 -16 115 -16q82 0 81 -62q0 -31 -15 -45t-32.5 -16t-52.5 -2 q-170 0 -215 66q-113 -78 -291 -78q-143 0 -235 80.5t-92 193.5zM250 262q0 -61 56 -105t147 -44q100 0 172 32q37 16 55 41t21.5 41.5t3.5 46.5v172q-227 -8 -341 -59t-114 -125z" />
<glyph unicode="&#x431;" horiz-adv-x="1075" d="M76 451q0 160 16.5 280.5t58.5 229t121.5 175t196.5 87.5q27 4 154 11t236.5 12t115.5 5q63 0 63 -63q0 -12 -3 -22.5t-9 -17.5t-13 -12.5t-18.5 -8.5t-20.5 -5t-25.5 -4t-26 -2t-27.5 -1t-27 -1q-53 -4 -118.5 -7t-97 -4t-72.5 -4t-60.5 -6t-43 -6.5t-38 -9.5t-29 -14 t-30.5 -19q-94 -68 -133 -247q133 102 289 102q186 0 323 -132t137 -325q0 -184 -133 -318t-327 -134q-184 0 -321.5 128t-137.5 333zM219 455q0 -141 94.5 -240.5t223.5 -99.5t222 100t93 242q0 137 -95 226t-222 89t-221.5 -90t-94.5 -227z" />
<glyph unicode="&#x432;" horiz-adv-x="1075" d="M33 63.5q0 63.5 76 63.5h116v629h-116q-76 0 -76 61q0 63 71 64h412q8 0 25.5 1t25.5 1q193 0 289 -73t96 -157q0 -94 -147 -166q197 -82 196 -215q0 -102 -96 -187t-268 -85h-533q-71 0 -71 63.5zM342 127h231q143 0 214 46t71 101.5t-63.5 102.5t-194.5 47h-258v-297z M342 547h168q133 0 216 29.5t83 76.5t-66.5 75t-167.5 28h-233v-209z" />
<glyph unicode="&#x433;" horiz-adv-x="956" d="M33 61q0 63 69 66h123v629h-116q-76 0 -76 61q0 63 71 64h719q76 0 76 -72v-121q0 -72 -74 -72q-27 0 -42 8.5t-20 26t-6 24.5t-1 25v56h-387v-629h170q72 0 71.5 -63.5t-73.5 -63.5h-431q-73 0 -73 61z" />
<glyph unicode="&#x434;" horiz-adv-x="1193" d="M27 45q0 25 2 37t20.5 28.5t54.5 16.5h39q27 0 58 20q119 80 157.5 231.5t38.5 377.5h-116q-76 0 -76 61q0 63 71 64h797q72 0 72 -64q0 -37 -33 -55q-14 -6 -57 -6h-103v-629h127q39 0 58.5 -12.5t22.5 -25.5t3 -38v-260q0 -74 -57 -74q-35 0 -51 33q-6 10 -6 49v201 h-906v-199v-9t-3 -19.5t-9 -25.5t-18.5 -20.5t-28.5 -9.5q-57 0 -57 78v250zM354 127h482v629h-322q-2 -264 -45 -401.5t-115 -227.5z" />
<glyph unicode="&#x435;" horiz-adv-x="954" d="M78 446q0 186 125 320.5t305 134.5q182 0 284.5 -122t102.5 -312q0 -27 -6 -43t-19.5 -23.5t-24.5 -8.5t-32 -1h-590q20 -123 114.5 -200.5t213.5 -77.5q154 0 205 123q10 29 24.5 37t42.5 8q72 0 72 -58q0 -63 -93 -149t-263 -86q-193 0 -327 134t-134 324zM225 514h525 q-10 143 -80 202.5t-162 59.5q-102 0 -182.5 -73.5t-100.5 -188.5z" />
<glyph unicode="&#x436;" horiz-adv-x="1792" d="M35 63.5q0 63.5 74 63.5h45q12 0 19 1t12 1t9.5 3t6.5 4t7 7.5t9 10.5l328 366q-39 33 -79 64.5t-64.5 51t-48 39t-38 30t-27 21.5t-20.5 15t-15 8.5t-14.5 5.5t-11.5 1h-14h-61q-68 0 -68 63q0 61 70 62h321q72 0 72 -60q0 -66 -74 -65h-37l400 -322v322h-117 q-76 0 -76 61q0 63 74 64h354q74 0 74 -64q0 -61 -76 -61h-117v-322l400 322h-37q-74 0 -74 63q0 61 72 62h321q35 0 53.5 -18.5t18.5 -43.5q0 -63 -72 -63h-73q-16 0 -46 -21.5t-131 -101.5q-84 -68 -141 -115q338 -375 346 -381q12 -10 47 -10h52q35 0 50 -19.5t15 -44.5 q0 -63 -72 -63h-280q-37 0 -54.5 18.5t-17.5 42.5q0 66 72 66h39l-287 319q-45 -39 -85 -70.5t-58.5 -44t-33.5 -25.5t-19.5 -21.5t-4.5 -22.5v-135h117q76 0 76 -63.5t-74 -63.5h-354q-74 0 -74 63.5t76 63.5h117v135v2q0 20 -25 43q-14 12 -70 55q-61 49 -106 84 l-287 -319h39q72 0 72 -63.5t-72 -63.5h-281q-71 0 -71 63.5z" />
<glyph unicode="&#x437;" horiz-adv-x="956" d="M47 233q0 66 74 66h2q37 0 50 -19.5t18.5 -46t18.5 -53t66.5 -46t145.5 -19.5h8q166 0 237.5 48t71.5 107q0 63 -77.5 108.5t-227.5 45.5h-63q-74 0 -74 61.5t76 61.5h90q115 0 183.5 34.5t68.5 80.5q0 25 -21.5 48t-91.5 42.5t-176 19.5h-8q-82 0 -130 -13.5 t-62.5 -33.5t-22.5 -39.5t-23.5 -33t-50.5 -13.5q-72 0 -70 80v4v102q0 39 19.5 55.5t42.5 16.5q31 0 74 -31q82 33 221 33q279 0 385 -106q57 -57 57 -131q0 -102 -149 -170q174 -82 174 -224q0 -109 -103.5 -193.5t-355.5 -84.5q-219 0 -311 94q-66 65 -66 149z" />
<glyph unicode="&#x438;" horiz-adv-x="1193" d="M45 63q0 37 33 56q14 8 57 8h105v629h-117q-78 0 -78 61q0 63 76 64h354q74 0 74 -62q0 -63 -76 -63h-119v-531l2 -82q31 82 394 613h-35q-74 0 -74 63q0 61 76 62h354q74 0 74 -64q0 -37 -33 -55q-10 -6 -57 -6h-105v-629h119q76 0 76 -63.5t-74 -63.5h-354 q-74 0 -74 63q0 39 31 56q14 8 57 8h105v528l-2 82q-29 -78 -394 -610h35q74 0 74 -63.5t-78 -63.5h-352q-74 0 -74 63z" />
<glyph unicode="&#x439;" horiz-adv-x="1193" d="M45 63q0 37 33 56q14 8 57 8h105v629h-117q-78 0 -78 61q0 63 76 64h354q74 0 74 -62q0 -63 -76 -63h-119v-531l2 -82q31 82 394 613h-35q-74 0 -74 63q0 61 76 62h354q74 0 74 -64q0 -37 -33 -55q-10 -6 -57 -6h-105v-629h119q76 0 76 -63.5t-74 -63.5h-354 q-74 0 -74 63q0 39 31 56q14 8 57 8h105v528l-2 82q-29 -78 -394 -610h35q74 0 74 -63.5t-78 -63.5h-352q-74 0 -74 63zM285 1180q0 12 4 28q-4 10 -4 35q0 41 27.5 70.5t72.5 29.5t73.5 -30.5t28.5 -71.5q0 -55 -47 -88q45 -14 158 -14h6q100 0 148 16q-49 31 -50 86 q0 41 29 71.5t74 30.5t72.5 -29.5t27.5 -70.5q0 -25 -4 -35q6 -25 6 -28q0 -55 -43 -101q-66 -70 -280 -69q-113 0 -206 40t-93 130z" />
<glyph unicode="&#x43a;" horiz-adv-x="1193" d="M45 63.5q0 63.5 76 63.5h119v629h-117q-78 0 -78 61q0 63 76 64h354q74 0 74 -62q0 -63 -76 -63h-119v-322l402 322h-39q-37 0 -54.5 17.5t-17.5 43.5q0 63 72 64h319q35 0 53.5 -18.5t18.5 -43.5q0 -63 -72 -63h-73q-16 0 -41 -17.5t-113 -89.5q-92 -76 -162 -131 q39 -43 131 -146.5t149.5 -167t63.5 -67.5q12 -10 47 -10h52q35 0 50 -19.5t15 -44.5q0 -63 -72 -63h-280q-72 0 -72 61q0 66 72 66h41l-289 319q-43 -39 -84 -70.5t-59.5 -45t-34 -26.5t-19.5 -21.5t-4 -22.5v-133h117q78 0 78 -63.5t-76 -63.5h-354q-74 0 -74 63.5z" />
<glyph unicode="&#x43b;" horiz-adv-x="1193" d="M41 139q0 39 24.5 65.5t63.5 26.5t63.5 -25.5t24.5 -62.5q0 -18 -6 -37q33 -4 53 5q47 18 78 108t41 217t13 192.5t3 127.5h-120q-82 0 -82 61q0 63 73 64h805q72 0 72 -62q0 -39 -33 -57q-14 -6 -59 -6h-103v-629h119q76 0 76 -63.5t-80 -63.5h-348q-74 0 -74 63 q0 39 31 56q14 8 57 8h105v629h-318q0 -233 -22.5 -391t-64.5 -238t-89 -111.5t-113 -31.5q-88 0 -139 43.5t-51 111.5z" />
<glyph unicode="&#x43c;" horiz-adv-x="1433" d="M45 63.5q0 63.5 76 63.5h119v629h-125q-70 2 -70 63.5t72 61.5h227q72 0 100 -74l271 -655q4 12 13 32.5t13 32.5l244 590q31 74 102 74h224q72 0 71.5 -61.5t-67.5 -63.5h-125v-629h117q76 0 75.5 -63.5t-73.5 -63.5h-355q-74 0 -73.5 63.5t75.5 63.5h117v612 q-10 -27 -31 -75l-237 -576q-33 -76 -90 -76q-61 0 -88 70l-273 657v-612h117q78 0 78 -63.5t-76 -63.5h-354q-74 0 -74 63.5z" />
<glyph unicode="&#x43d;" horiz-adv-x="1193" d="M45 63.5q0 63.5 76 63.5h119v629h-117q-78 0 -78 61q0 63 76 64h354q74 0 74 -62q0 -63 -76 -63h-119v-209h482v209h-117q-78 0 -78 61q0 63 76 64h354q74 0 74 -62q0 -63 -76 -63h-119v-629h119q76 0 76 -63.5t-74 -63.5h-354q-74 0 -74 63q0 39 31 56q14 8 57 8h105 v297h-482v-297h117q78 0 78 -63.5t-76 -63.5h-354q-74 0 -74 63.5z" />
<glyph unicode="&#x43e;" horiz-adv-x="1075" d="M78 442q0 188 134 323.5t324.5 135.5t324.5 -135t134 -324q0 -190 -134 -322t-324.5 -132t-324.5 132t-134 322zM219 457q0 -141 92 -242.5t226 -101.5q131 0 224 101t93 243q0 135 -94 227t-223 92t-223.5 -92t-94.5 -227z" />
<glyph unicode="&#x43f;" horiz-adv-x="1193" d="M45 63.5q0 63.5 76 63.5h119v629h-117q-78 0 -78 63q0 61 72 62h954q74 0 74 -64q0 -37 -33 -55q-14 -6 -59 -6h-103v-629h119q76 0 76 -63.5t-74 -63.5h-354q-74 0 -74 63q0 39 31 56q14 8 57 8h105v629h-482v-629h117q78 0 78 -63.5t-76 -63.5h-354q-74 0 -74 63.5z " />
<glyph unicode="&#x440;" horiz-adv-x="1193" d="M35 -393q0 29 15.5 44t28.5 17t38 2h110v1088h-110q-82 0 -82 61q0 29 15.5 44.5t28.5 17.5t38 2h170q57 0 69.5 -19.5t12.5 -79.5q127 111 297 111q182 0 309 -133t127 -320q0 -190 -136.5 -322t-322.5 -132q-162 0 -274 121v-439h110q25 0 38 -2t28.5 -17.5t15.5 -43.5 q0 -61 -82 -62h-362q-82 1 -82 62zM369 399q0 -98 73.5 -192t192.5 -94q131 0 228.5 95t97.5 234q0 133 -88.5 230.5t-219.5 97.5q-111 0 -197.5 -69.5t-86.5 -163.5v-138z" />
<glyph unicode="&#x441;" horiz-adv-x="954" d="M90 442q0 74 25.5 149t79 147.5t149.5 117.5t221 45q305 0 305 -149q0 -43 -26.5 -69t-65.5 -26q-88 0 -90 101q0 18 -123 18q-96 0 -166.5 -37t-104.5 -94t-48.5 -107.5t-14.5 -95.5q0 -139 95.5 -234t226.5 -95q145 0 203 123q10 29 24.5 37t42.5 8q72 0 72 -58 q0 -18 -16.5 -52t-52 -78t-111.5 -74.5t-174 -30.5q-190 0 -320.5 134t-130.5 320z" />
<glyph unicode="&#x442;" horiz-adv-x="1075" d="M53 700v103q0 18 1 26.5t7.5 22.5t23.5 21.5t44 7.5h811q23 0 36 -2t28.5 -19.5t15.5 -50.5v-121q0 -72 -70 -72q-74 0 -73 74v66h-269v-629h199q74 0 74 -63.5t-72 -63.5h-547q-70 2 -69 63q0 63 71 64h201v629h-268v-66q0 -74 -70 -74h-6q-68 0 -68 84z" />
<glyph unicode="&#x443;" horiz-adv-x="1134" d="M41 -299q0 41 24.5 65.5t65.5 24.5q37 0 62.5 -24.5t25.5 -65.5q0 -10 -2 -20.5t-2 -12.5q0 -10 31 -10q178 0 243 215q41 117 46 127l-310 758h-84q-84 0 -84 63q0 61 84 62h287q25 0 38 -2t28.5 -17.5t15.5 -44.5q0 -61 -82 -61h-78l195 -488q33 -86 47 -129l201 617 h-84q-82 0 -82 61q0 29 15 44.5t28.5 17.5t38.5 2h288q25 0 38.5 -2t28.5 -17.5t15 -44.5q0 -61 -82 -61h-82l-317 -928q-39 -113 -133 -205t-223 -92q-86 0 -143.5 50t-57.5 118z" />
<glyph unicode="&#x444;" horiz-adv-x="1671" d="M88 440q0 188 138.5 320.5t324.5 132.5q113 0 211 -80v311h-121q-72 0 -72 62q0 66 76 65h186q35 0 53.5 -16t19.5 -28.5t1 -35.5v-358q98 80 211 80q184 0 323.5 -130t139.5 -323q0 -188 -138 -319t-325 -131q-119 0 -211 86v-404h117q76 0 76 -63.5t-72 -63.5h-383 q-74 0 -74 63.5t76 63.5h117v404q-92 -86 -209 -86q-184 0 -324.5 128.5t-140.5 321.5zM231 440q0 -135 98.5 -230t231.5 -95q88 0 144.5 83t56.5 187v172q2 63 -52.5 136t-148.5 73q-131 0 -230.5 -94.5t-99.5 -231.5zM905 385q0 -96 52.5 -183t148.5 -87q127 0 228.5 93 t101.5 232.5t-100.5 232.5t-229.5 93q-92 0 -147.5 -72.5t-53.5 -136.5v-172z" />
<glyph unicode="&#x445;" horiz-adv-x="1134" d="M57 63.5q0 63.5 74 63.5h88q20 2 41 25q12 12 242 305l-242 299h-113q-76 0 -75 61q0 63 75 64h302q76 0 75 -62q0 -63 -73 -63h-50l160 -203l152 203h-56q-72 0 -71 63q0 61 76 62h303q74 0 73 -62q0 -63 -73 -63h-113l-234 -301q12 -14 78 -95t123.5 -151t65.5 -76 t26 -6h88q74 0 74 -64q0 -23 -15.5 -43t-53.5 -20h-310q-76 0 -76 63.5t78 63.5h52l-187 252l-180 -252h53q78 0 78 -63.5t-80 -63.5h-301q-74 0 -74 63.5z" />
<glyph unicode="&#x446;" horiz-adv-x="1193" d="M45 63.5q0 63.5 76 63.5h119v629h-117q-78 0 -78 61q0 63 76 64h354q74 0 74 -62q0 -63 -76 -63h-119v-629h482v629h-117q-78 0 -78 61q0 63 76 64h354q74 0 74 -62q0 -63 -76 -63h-119v-629h129q39 0 58.5 -12.5t22.5 -25.5t3 -38v-260q0 -74 -57 -74t-57 82v201h-930 q-74 0 -74 63.5z" />
<glyph unicode="&#x447;" horiz-adv-x="1193" d="M45 817q0 63 76 64h354q74 0 74 -62q0 -63 -76 -63h-119v-131q0 -158 158 -158h324v289h-117q-78 0 -78 61q0 63 76 64h354q74 0 74 -62q0 -63 -76 -63h-119v-629h119q76 0 76 -63.5t-74 -63.5h-354q-74 0 -74 63q0 39 31 56q14 8 57 8h105v217h-314q-2 0 -6 -1t-6 -1 q-115 0 -193.5 72.5t-78.5 210.5q0 2 1 8t1 10v113h-117q-78 0 -78 61z" />
<glyph unicode="&#x448;" horiz-adv-x="1732" d="M45 63q0 37 33 56q18 8 59 8h103v629h-117q-78 0 -78 61q0 63 76 64h354q74 0 74 -62q0 -63 -78 -63h-117v-629h451v629h-117q-76 0 -76 61q0 63 74 64h354q74 0 74 -62q0 -63 -76 -63h-116v-629h450v629h-117q-76 0 -75 61q0 63 73 64h355q74 0 73 -62q0 -63 -75 -63 h-117v-629h123q70 -2 69 -64q0 -63 -73 -63h-1485q-78 0 -78 63z" />
<glyph unicode="&#x449;" horiz-adv-x="1732" d="M45 63q0 61 70 64h125v629h-117q-78 0 -78 61q0 63 76 64h354q74 0 74 -64q0 -61 -78 -61h-117v-629h451v629h-117q-76 0 -76 61q0 63 74 64h354q74 0 74 -64q0 -61 -76 -61h-116v-629h450v629h-117q-76 0 -75 63q0 61 71 62h357q74 0 73 -62q0 -39 -32 -57 q-10 -6 -58 -6h-102v-629h127q39 0 58.5 -12.5t22.5 -25.5t3 -38v-260q0 -74 -57.5 -74t-57.5 82v201h-1464q-76 0 -76 63z" />
<glyph unicode="&#x44a;" horiz-adv-x="1314" d="M53 690v115q0 74 68 76h504q66 0 65 -62q0 -25 -16.5 -44t-50.5 -19h-27v-209h252q193 0 293 -87t100 -186q0 -102 -98.5 -188t-298.5 -86h-488q-70 0 -69 61q0 66 78 66h114v629h-282v-60q0 -23 -2 -36t-19.5 -28.5t-52.5 -15.5h-4q-66 0 -66 74zM596 127h219 q141 0 212 46t71 101.5t-71 102.5t-212 47h-219v-297z" />
<glyph unicode="&#x44b;" d="M47 61q0 66 78 66h115v629h-117q-76 0 -76 61q0 63 74 64h354q74 0 74 -64q0 -61 -76 -61h-117v-209h254q193 0 292 -87t99 -186q0 -102 -98 -188t-299 -86h-485q-72 0 -72 61zM356 127h219q141 0 212 46t71 101.5t-70.5 102.5t-212.5 47h-219v-297zM1001 63q0 37 33 56 q14 8 58 8h102v629h-117q-76 0 -76 61q0 63 74 64h355q74 0 73 -64q0 -61 -76 -61h-116v-629h116q76 0 76 -63.5t-73 -63.5h-355q-74 0 -74 63z" />
<glyph unicode="&#x44c;" horiz-adv-x="1075" d="M47 61q0 66 78 66h115v629h-117q-76 0 -76 61q0 63 74 64h354q74 0 74 -64q0 -61 -76 -61h-117v-209h254q193 0 292 -87t99 -186q0 -102 -98 -188t-299 -86h-485q-72 0 -72 61zM356 127h219q141 0 212 46t71 101.5t-70.5 102.5t-212.5 47h-219v-297z" />
<glyph unicode="&#x44d;" horiz-adv-x="956" d="M59 715v94q0 84 62 84q25 0 76 -37q88 43 217 43q188 0 319 -134t131 -325q0 -182 -128 -316t-320 -134q-96 0 -170 29.5t-111 71.5t-55.5 77t-18.5 55q0 57 72 58q33 0 45 -11q6 -4 27.5 -47t67.5 -75.5t128 -32.5q129 0 220.5 91t99.5 218h-375q-72 0 -72 61.5t82 61.5 h349q-37 111 -118 168t-175 57q-66 0 -112 -15.5t-63.5 -31.5t-33 -39.5t-17.5 -26.5q-18 -18 -59 -18q-68 0 -68 74z" />
<glyph unicode="&#x44e;" horiz-adv-x="1611" d="M33 63.5q0 63.5 76 63.5h116v629h-116q-76 0 -76 61q0 63 71 64h375q82 0 82 -64q0 -61 -76 -61h-116v-209h258q33 141 153.5 246.5t292.5 105.5q193 0 326 -136t133 -323q0 -184 -131 -317t-328 -133q-172 0 -308 115.5t-151 318.5h-245v-297h118q74 0 74 -63.5 t-72 -63.5h-383q-73 0 -73 63.5zM758 455q0 -141 93 -240.5t222 -99.5t222.5 100t93.5 242q0 137 -94.5 226t-221.5 89t-221 -90t-94 -227z" />
<glyph unicode="&#x44f;" horiz-adv-x="1165" d="M35 63.5q0 63.5 76 63.5h63q16 0 39 21.5t121 132.5q68 78 115 129q-123 18 -211 78.5t-88 160.5q0 90 97 161t333 71h479q70 0 69 -64q0 -39 -30 -55q-10 -6 -60 -6h-102v-629h117q76 0 75.5 -63.5t-73.5 -63.5h-383q-72 0 -72 63q0 39 31 56q14 8 59 8h103v270h-183 q-20 0 -63 -47q-8 -10 -199 -223h39q74 0 74 -64q0 -14 -4 -26t-22.5 -24.5t-47.5 -12.5h-281q-71 0 -71 63.5zM293 647q0 -127 403 -127h97v236h-160q-340 0 -340 -109z" />
<glyph unicode="&#x450;" horiz-adv-x="954" d="M78 446q0 186 125 320.5t305 134.5q182 0 284.5 -122t102.5 -312q0 -27 -6 -43t-19.5 -23.5t-24.5 -8.5t-32 -1h-590q20 -123 114.5 -200.5t213.5 -77.5q154 0 205 123q10 29 24.5 37t42.5 8q72 0 72 -58q0 -63 -93 -149t-263 -86q-193 0 -327 134t-134 324zM225 514h525 q-10 143 -80 202.5t-162 59.5q-102 0 -182.5 -73.5t-100.5 -188.5zM340 1237q0 31 21.5 51.5t48.5 20.5h4q12 0 305 -127q57 -27 57 -64q0 -27 -19.5 -54.5t-47.5 -27.5h-2q-10 0 -303 127q-20 10 -28.5 15.5t-22 22t-13.5 36.5z" />
<glyph unicode="&#x451;" horiz-adv-x="954" d="M78 446q0 186 125 320.5t305 134.5q182 0 284.5 -122t102.5 -312q0 -27 -6 -43t-19.5 -23.5t-24.5 -8.5t-32 -1h-590q20 -123 114.5 -200.5t213.5 -77.5q154 0 205 123q10 29 24.5 37t42.5 8q72 0 72 -58q0 -63 -93 -149t-263 -86q-193 0 -327 134t-134 324zM164 1149 q0 39 29.5 70.5t72.5 31.5q45 0 74 -30.5t29 -71.5q0 -39 -30 -70.5t-73 -31.5q-45 0 -73.5 30.5t-28.5 71.5zM225 514h525q-10 143 -80 202.5t-162 59.5q-102 0 -182.5 -73.5t-100.5 -188.5zM582 1147q0 45 30.5 73.5t71.5 28.5q45 0 73.5 -30.5t28.5 -71.5 q0 -39 -29.5 -71t-72.5 -32q-45 0 -73.5 31t-28.5 72z" />
<glyph unicode="&#x452;" horiz-adv-x="1134" d="M-16 1036.5q0 63.5 71 63.5h174v24h-125q-33 2 -51 19.5t-18 42.5q0 66 76 65h180q55 0 68.5 -21.5t13.5 -60.5v-69h624q76 0 76 -63.5t-76 -63.5h-624v-201q139 121 325 121q317 0 318 -311v-136q0 -385 -174 -643t-404 -258q-31 0 -48 19.5t-17 44.5q0 35 28 51 q8 6 47 9t90.5 24.5t106.5 77.5q86 86 153.5 249.5t73.5 407.5v143q0 47 -4 74t-20.5 58.5t-57 47t-104.5 15.5q-47 0 -96 -13.5t-100.5 -42t-84 -88t-32.5 -141.5v-354h116q76 0 76 -63.5t-71 -63.5h-377q-80 0 -80 63.5t74 63.5h118v846h-174q-71 0 -71 63.5z" />
<glyph unicode="&#x453;" horiz-adv-x="925" d="M33 61q0 63 69 66h123v629h-116q-76 0 -76 61q0 63 71 64h719q76 0 76 -72v-121q0 -72 -74 -72q-27 0 -42 8.5t-20 26t-6 24.5t-1 25v56h-387v-629h170q72 0 71.5 -63.5t-73.5 -63.5h-431q-73 0 -73 61zM236 1118q0 20 12 34.5t19 18t28 13.5q287 125 305 125 q27 0 48.5 -20.5t21.5 -51.5q0 -49 -62 -74q-291 -127 -305 -127q-31 0 -49 27.5t-18 54.5z" />
<glyph unicode="&#x454;" horiz-adv-x="944" d="M76 440q0 193 132 326t316 133q123 0 211 -55q57 49 84 49q61 0 62 -72v-141q0 -29 -2 -42t-20.5 -28.5t-55.5 -15.5q-33 0 -49.5 18.5t-23.5 44t-37.5 55t-86.5 48.5q-41 12 -82 12q-92 0 -172 -57.5t-116 -167.5h354q76 0 76 -61.5t-78 -61.5h-369q8 -133 102.5 -221 t217.5 -88q147 0 196 112q23 53 72 54q41 0 57.5 -18.5t16.5 -37.5q0 -23 -17.5 -57.5t-54.5 -76.5t-111.5 -71.5t-171.5 -29.5q-193 0 -321.5 133t-128.5 317z" />
<glyph unicode="&#x455;" horiz-adv-x="847" d="M72 72v196q0 27 2 41.5t19.5 28.5t49.5 14q57 0 70 -51q12 -41 23.5 -67.5t35 -57.5t63.5 -47t95 -16q25 0 49.5 3t69.5 14t72.5 44t27.5 82q0 55 -46 90t-109 49q-35 0 -125 23q-297 55 -297 241q0 35 13 72t47 78t106.5 66.5t177.5 25.5q113 0 184 -41q14 41 59 41 q61 0 62 -84v-141q0 -27 -2 -41t-19.5 -28.5t-50.5 -14.5q-29 0 -45 11t-19 23.5t-5 30.5q-2 23 -7.5 37.5t-20.5 37t-51 33.5t-89 11q-109 0 -162 -32.5t-53 -84.5q0 -57 61 -81.5t207 -51.5q309 -57 309 -270q0 -104 -82 -186t-264 -82q-137 0 -223 69q-16 -70 -72 -69 q-61 0 -61 84z" />
<glyph unicode="&#x456;" horiz-adv-x="595" d="M35 61q0 29 15.5 44.5t28.5 17.5t38 2h110v633h-100q-84 0 -84 63q0 61 84 62h160q51 0 66.5 -17.5t15.5 -66.5v-674h90q84 0 84 -64q0 -61 -82 -61h-344q-82 0 -82 61zM164 1151q0 43 29.5 72.5t72.5 29.5t73 -29.5t30 -72.5t-30 -72.5t-73 -29.5t-72.5 29.5t-29.5 72.5 z" />
<glyph unicode="&#x457;" horiz-adv-x="595" d="M-12 1146q0 45 30.5 74t71.5 29q45 0 73.5 -31t28.5 -72q0 -39 -29.5 -70.5t-72.5 -31.5q-45 0 -73.5 30.5t-28.5 71.5zM37 61q0 29 15.5 44.5t28.5 17.5t38 2h110v633h-100q-84 0 -84 63q0 61 84 62h160q51 0 66.5 -17.5t15.5 -66.5v-674h90q84 0 84 -64q0 -61 -82 -61 h-344q-82 0 -82 61zM406 1146q0 45 30.5 74t71.5 29q45 0 73.5 -31t28.5 -72q0 -39 -29.5 -70.5t-72.5 -31.5q-45 0 -73.5 30.5t-28.5 71.5z" />
<glyph unicode="&#x458;" horiz-adv-x="655" d="M-94 -311q0 43 27.5 68.5t64.5 25.5q90 0 90 -109q0 -6 2 -6q8 -10 62 -10q135 0 135 254v846h-129q-84 0 -84 63q0 61 84 62h188q51 0 66.5 -17.5t15.5 -66.5v-895q0 -84 -23.5 -163t-91 -143.5t-168.5 -64.5q-111 0 -175 42t-64 114zM223 1151q0 43 30 72.5t73 29.5 t72.5 -29.5t29.5 -72.5t-29.5 -72.5t-72.5 -29.5t-73 29.5t-30 72.5z" />
<glyph unicode="&#x459;" horiz-adv-x="1642" d="M41 139q0 41 25.5 66.5t62.5 25.5q39 0 63.5 -25.5t24.5 -62.5q0 -18 -6 -37q33 -4 53 5q47 18 78 108t41 218t13 193.5t3 125.5h-120q-82 0 -82 61q0 63 73 64h805q72 0 72 -64q0 -37 -33 -55q-14 -6 -59 -6h-103v-209h226q178 0 285.5 -82t107.5 -191 q0 -100 -99.5 -187t-297.5 -87h-459q-72 2 -72 63q0 35 33 56q14 8 57 8h105v629h-318q0 -295 -38 -470t-98 -238.5t-153 -63.5q-96 0 -143 48t-47 107zM952 127h191q139 0 210.5 46t71.5 101q0 53 -68.5 101.5t-217.5 48.5h-187v-297z" />
<glyph unicode="&#x45a;" horiz-adv-x="1642" d="M45 63.5q0 63.5 76 63.5h119v629h-117q-78 0 -78 61q0 63 76 64h354q74 0 74 -62q0 -63 -76 -63h-119v-209h482v209h-117q-78 0 -78 61q0 63 76 64h354q74 0 74 -62q0 -63 -76 -63h-119v-209h226q178 0 285.5 -82t107.5 -191q0 -100 -99.5 -187t-298.5 -87h-458 q-72 2 -72 63q0 35 33 56q14 8 57 8h105v297h-482v-297h117q78 0 78 -63.5t-76 -63.5h-354q-74 0 -74 63.5zM950 127h191q141 0 210.5 46t71.5 101q0 53 -69.5 101.5t-216.5 48.5h-187v-297z" />
<glyph unicode="&#x45b;" horiz-adv-x="1193" d="M-16 1036.5q0 63.5 71 63.5h174v24h-125q-70 2 -69 62q0 66 76 65h180q55 0 68.5 -21.5t13.5 -60.5v-69h510q72 0 71 -66q0 -61 -75 -61h-506v-195q127 115 301 115q295 0 295 -307v-459h116q76 0 76 -63.5t-74 -63.5h-382q-72 0 -72 63q0 39 31 56q14 8 57 8h104v444 q0 47 -3 73t-17 58.5t-50 48t-93 15.5q-111 0 -216 -84q-49 -59 -61 -97t-12 -118v-340h116q76 0 76 -63.5t-73 -63.5h-383q-74 0 -74 63.5t76 63.5h118v846h-174q-71 0 -71 63.5z" />
<glyph unicode="&#x45c;" horiz-adv-x="1193" d="M45 63.5q0 63.5 76 63.5h119v629h-117q-78 0 -78 61q0 63 76 64h354q74 0 74 -62q0 -63 -76 -63h-119v-322l402 322h-39q-37 0 -54.5 17.5t-17.5 43.5q0 63 72 64h319q35 0 53.5 -18.5t18.5 -43.5q0 -63 -72 -63h-73q-16 0 -41 -17.5t-113 -89.5q-92 -76 -162 -131 q39 -43 131 -146.5t149.5 -167t63.5 -67.5q12 -10 47 -10h52q35 0 50 -19.5t15 -44.5q0 -63 -72 -63h-280q-72 0 -72 61q0 66 72 66h41l-289 319q-43 -39 -84 -70.5t-59.5 -45t-34 -26.5t-19.5 -21.5t-4 -22.5v-133h117q78 0 78 -63.5t-76 -63.5h-354q-74 0 -74 63.5z M354 1118q0 20 12.5 34.5t19.5 18t28 13.5q287 125 305 125q27 0 48 -20.5t21 -51.5q0 -49 -61 -74q-291 -127 -305 -127q-31 0 -49.5 27.5t-18.5 54.5z" />
<glyph unicode="&#x45d;" horiz-adv-x="1193" d="M45 63q0 37 33 56q14 8 57 8h105v629h-117q-78 0 -78 61q0 63 76 64h354q74 0 74 -62q0 -63 -76 -63h-119v-531l2 -82q31 82 394 613h-35q-74 0 -74 63q0 61 76 62h354q74 0 74 -64q0 -37 -33 -55q-10 -6 -57 -6h-105v-629h119q76 0 76 -63.5t-74 -63.5h-354 q-74 0 -74 63q0 39 31 56q14 8 57 8h105v528l-2 82q-29 -78 -394 -610h35q74 0 74 -63.5t-78 -63.5h-352q-74 0 -74 63zM371 1237q0 31 21.5 51.5t48.5 20.5h4q12 0 305 -127q57 -27 57 -64q0 -27 -19.5 -54.5t-47.5 -27.5h-2q-10 0 -303 127q-20 10 -28.5 15.5t-22 22 t-13.5 36.5z" />
<glyph unicode="&#x45e;" horiz-adv-x="1134" d="M41 -299q0 41 24.5 65.5t65.5 24.5q37 0 62.5 -24.5t25.5 -65.5q0 -10 -2 -20.5t-2 -12.5q0 -10 31 -10q178 0 243 215q41 117 46 127l-310 758h-84q-84 0 -84 63q0 61 84 62h287q25 0 38 -2t28.5 -17.5t15.5 -44.5q0 -61 -82 -61h-78l195 -488q33 -86 47 -129l201 617 h-84q-82 0 -82 61q0 29 15 44.5t28.5 17.5t38.5 2h288q25 0 38.5 -2t28.5 -17.5t15 -44.5q0 -61 -82 -61h-82l-317 -928q-39 -113 -133 -205t-223 -92q-86 0 -143.5 50t-57.5 118zM256 1180v61q0 41 28.5 71.5t73.5 30.5q49 0 76 -32.5t27 -67.5q0 -51 -49 -90 q45 -14 157 -14h6q100 0 148 16q-49 35 -49 86q0 45 30.5 73.5t71.5 28.5t73 -30.5t30 -75.5v-57q0 -170 -316 -170q-205 0 -272 75q-35 40 -35 95z" />
<glyph unicode="&#x45f;" horiz-adv-x="1193" d="M45 63q0 63 76 64h119v629h-117q-78 0 -78 61q0 63 76 64h354q74 0 74 -62q0 -63 -76 -63h-119v-629h482v629h-117q-78 0 -78 61q0 63 76 64h354q74 0 74 -62q0 -63 -76 -63h-117v-629h115q78 0 78 -64q0 -23 -15.5 -42t-54.5 -21h-422v-197q0 -41 -8 -55 q-18 -31 -49 -31q-59 0 -59 86v197h-422q-37 0 -53.5 19t-16.5 44z" />
<glyph unicode="&#x460;" horiz-adv-x="2150" d="M119 627q0 272 166 459.5t395 187.5q141 0 207.5 -63.5t66.5 -147.5q0 -45 -27.5 -70.5t-64.5 -25.5q-41 0 -65.5 26.5t-24.5 63.5q0 27 19 57q-49 33 -113 33q-168 0 -292 -151.5t-124 -370.5q0 -211 119 -367t301 -156q215 0 301 91q18 20 18 55v276h-22q-74 0 -74 64 q0 61 70 61h196q70 0 70 -59q0 -66 -72 -66h-24v-276q0 -35 18 -55q86 -90 303 -91q182 0 300 156t118 367q0 219 -123 370.5t-291 151.5q-63 0 -112 -33q18 -31 18 -57q0 -39 -27.5 -64.5t-64.5 -25.5q-39 0 -64.5 26.5t-25.5 69.5q0 82 66.5 146.5t205.5 64.5 q229 0 395.5 -187.5t166.5 -459.5q0 -264 -152 -457t-387 -193q-289 0 -414 140h-2q-123 -139 -416 -140q-236 0 -387 193t-151 457z" />
<glyph unicode="&#x461;" horiz-adv-x="1671" d="M88 440q0 195 133 327t318 132q121 0 168 -45t47 -104q0 -39 -24.5 -65t-63.5 -26q-37 0 -62.5 25t-25.5 64q0 12 2 20q-29 4 -45 4q-121 0 -212.5 -94t-91.5 -238q0 -133 86 -229t213 -96q92 0 158 32.5t74 69.5v203h-23q-74 0 -73.5 63.5t71.5 63.5h195q70 0 69 -60 q0 -68 -73 -67h-23v-187q0 -43 65.5 -80.5t168.5 -37.5q127 0 212 96t85 229q0 135 -87 233.5t-216 98.5q-14 0 -43 -4q2 -8 2 -20q0 -39 -26 -64t-62 -25q-39 0 -64 26t-25 65q0 59 47.5 104t167.5 45q193 0 321 -136t128 -323q0 -182 -119 -316t-303 -134q-207 0 -321 121 h-2q-109 -121 -322 -121q-184 0 -304 134t-120 316z" />
<glyph unicode="&#x462;" horiz-adv-x="1732" d="M76 1038v101q2 70 74 69h374v86h-116q-78 0 -78 63.5t73 63.5h383q74 0 74 -63.5t-76 -63.5h-116v-86h673q72 0 72 -78v-100q0 -78 -70 -78q-74 0 -73 78v51h-602v-368h442q250 0 375 -112t125 -243q0 -139 -131 -248.5t-359 -109.5h-719q-35 0 -53 18.5t-18 42.5 q0 23 14 43.5t55 22.5h125v954h-305v-51q0 -16 -1 -24.5t-7 -23.5t-22.5 -22.5t-43.5 -7.5h-2q-67 0 -67 86zM668 127h401q172 0 284.5 67.5t112.5 161.5q0 82 -99 157t-308 75h-391v-461z" />
<glyph unicode="&#x463;" horiz-adv-x="1075" d="M39 819.5q0 61.5 70 61.5h131v411q0 43 19.5 58.5t39.5 15.5q10 0 21.5 -4t23.5 -21.5t12 -48.5v-411h226q72 0 71 -62q0 -63 -80 -63h-217v-209h252q193 0 293 -87t100 -186q0 -102 -98 -188t-299 -86h-487q-70 0 -70 61q0 66 78 66h115v629h-131q-70 2 -70 63.5z M356 127h219q141 0 212 46t71 101.5t-70.5 102.5t-212.5 47h-219v-297z" />
<glyph unicode="&#x464;" horiz-adv-x="2269" d="M92 63.5q0 63.5 76 63.5h117v997h-117q-76 0 -76 63.5t72 63.5h375q82 0 82 -63.5t-76 -63.5h-117v-436h410q29 246 228.5 416t485.5 170q256 0 435 -115q6 10 15 28.5t13 27t11.5 20.5t12.5 17t12 11.5t15.5 8.5t18.5 2q61 0 61 -78v-266v-4q2 -6 2 -11q0 -70 -71 -69 h-2q-41 0 -57.5 23.5t-21.5 57.5t-43 80t-110 83q-115 57 -276 57q-221 0 -392 -125t-196 -334h895q74 0 74 -63q0 -61 -72 -62h-891q37 -195 197.5 -328t392.5 -133q59 0 121.5 9.5t131 30t117 63.5t56.5 102q0 2 1 10.5t2 13.5l3 15t6 16.5t11.5 13.5t18.5 10t25 3h5 q74 0 73 -67q0 -57 -27.5 -112.5t-90 -110t-184.5 -88.5t-288 -34q-291 0 -489.5 169t-228.5 417h-410v-436h119q74 0 74 -63.5t-72 -63.5h-375q-82 0 -82 63.5z" />
<glyph unicode="&#x465;" horiz-adv-x="1505" d="M33 63.5q0 63.5 76 63.5h116v629h-116q-76 0 -76 61q0 63 71 64h375q82 0 82 -64q0 -61 -76 -61h-116v-209h268q4 14 11 37.5t41 84t78 107.5t127 85t181 38q117 0 211 -55q55 49 84 49q61 0 62 -72v-141q0 -29 -2.5 -42t-20.5 -28.5t-55 -15.5q-33 0 -49.5 18.5 t-23.5 44t-38 55t-86 48.5q-39 12 -84 12q-92 0 -171 -57.5t-116 -167.5h355q76 0 76 -61.5t-78 -61.5h-369q8 -133 102.5 -221t217.5 -88q145 0 194 112q12 31 26.5 42.5t47.5 11.5q72 0 72 -58q0 -23 -17.5 -57.5t-54.5 -76.5t-112 -70.5t-171 -28.5q-166 0 -299 113.5 t-149 320.5h-258v-297h118q74 0 74 -63.5t-72 -63.5h-374q-82 0 -82 63.5z" />
<glyph unicode="&#x466;" horiz-adv-x="1837" d="M92 63.5q0 63.5 76 63.5h104l504 1077q33 72 111 72h61q37 0 61.5 -14.5t34 -28.5t25.5 -49l494 -1057h104q76 0 76 -63.5t-74 -63.5h-289q-74 0 -73.5 63.5t71.5 63.5h25l-154 330h-264v-330h57q78 0 78 -63.5t-76 -63.5h-256q-74 0 -73.5 63.5t78.5 63.5h57v330h-264 l-156 -330h27q35 0 53 -18.5t18 -42.5q0 -66 -73 -66h-289q-74 0 -74 63.5zM645 584h545l-272 583z" />
<glyph unicode="&#x467;" horiz-adv-x="1478" d="M66 63q0 63 75 64h107l19.5 39l19.5 39l319 618q39 72 115 72h33q51 0 74.5 -20.5t48.5 -69.5l309 -600q6 -12 20.5 -39t20.5 -39h100q82 0 82 -66q0 -61 -68 -61h-245q-74 0 -74 66q0 25 17.5 43t52.5 18h4l-84 160h-207v-160h41q76 0 76 -63.5t-74 -63.5h-221 q-74 0 -74 61q0 66 74 66h43v160h-209l-82 -160h4q35 0 52.5 -18.5t17.5 -45.5q0 -63 -74 -63h-248q-29 0 -47 17t-18 46zM526 412h422l-211 409h-2z" />
<glyph unicode="&#x468;" horiz-adv-x="2553" d="M92 63q0 39 31 56q14 8 59 8h105v997h-117q-78 0 -78 63.5t72 63.5h387q72 0 72 -63.5t-76 -63.5h-117v-540h774l31 69l248 533q25 53 47 71.5t76 18.5h59q39 0 64.5 -16.5t32.5 -28.5t24 -47l491 -1057h107q76 0 76 -63.5t-74 -63.5h-289q-74 0 -74 63.5t72 63.5h25 l-154 330h-264v-330h57q78 0 78 -63.5t-76 -63.5h-256q-74 0 -73.5 63.5t77.5 63.5h58v330h-264l-156 -330h27q72 0 71.5 -63.5t-74.5 -63.5h-288q-74 0 -74 63.5t78 63.5h102l154 330h-713v-330h117q76 0 76 -63.5t-74 -63.5h-383q-74 0 -74 63zM1362 584h545l-273 583h-2z " />
<glyph unicode="&#x469;" horiz-adv-x="2045" d="M33 63.5q0 63.5 76 63.5h116v629h-116q-76 0 -76 61q0 63 71 64h375q82 0 82 -64q0 -61 -76 -61h-116v-344h594q2 4 204 397q29 57 55.5 71.5t77.5 14.5h23q49 0 72.5 -19.5t46.5 -62.5l319 -623q4 -6 15.5 -28.5t17.5 -34.5h102q80 0 80 -66q0 -61 -67 -61h-244 q-74 0 -74 66q0 61 68 61h4l-82 160h-207v-160h41q74 0 74 -63.5t-74 -63.5h-221q-74 0 -74 63.5t76 63.5h41v160h-207l-84 -160h4q35 0 52.5 -18.5t17.5 -45.5q0 -63 -74 -63h-248q-31 0 -47 18.5t-16 44.5q0 63 80 64h102l82 160h-530v-160h118q74 0 74 -63.5t-72 -63.5 h-383q-73 0 -73 63.5zM1094 412h424l-211 409h-2z" />
<glyph unicode="&#x46a;" horiz-adv-x="2150" d="M35 63q0 63 74 64h57q20 0 41 27q283 389 291 399q129 143 456 160l-434 444q-49 49 -49 70q0 25 37 24h1122q45 0 45 -24q0 -16 -49 -70l-434 -444q213 -10 319.5 -61.5t178.5 -151.5l249 -346q23 -27 41 -27h58q74 0 73.5 -63.5t-69.5 -63.5h-281q-74 0 -73 61 q0 66 71 66h58q-76 104 -172 238q-121 168 -140 178h-2q-78 45 -373 45v-461h66q80 0 80 -63.5t-76 -63.5h-256q-74 0 -74 63.5t72 63.5h74v461q-332 0 -393 -62q-8 -8 -293 -399h53q76 0 76 -63.5t-74 -63.5h-279q-41 0 -56 20t-15 43zM670 1124l389 -399l14 -6l14 6 l392 399h-809z" />
<glyph unicode="&#x46b;" horiz-adv-x="1792" d="M35 63.5q0 63.5 76 63.5h45q35 0 53 20q29 35 85 102.5t73.5 87t58.5 61.5t65.5 54.5t70.5 35t95.5 33.5t116.5 22l-379 270q-49 37 -49 55q0 14 33 15q2 0 8 -1t8 -1h1018q16 0 23.5 -5.5t1.5 -17.5t-17.5 -23.5t-105.5 -79t-301 -212.5q68 -10 117 -21.5t95 -35 t69.5 -35t67.5 -55.5t59.5 -61.5t72.5 -87t84 -100.5q18 -20 53 -20h47q74 0 74 -63.5t-72 -63.5h-278q-74 0 -74 61q0 66 74 66h45l-174 211q-25 31 -40 42t-87 26.5t-195 17.5v-297h66q80 0 80 -63.5t-76 -63.5h-260q-72 0 -72 63.5t80 63.5h66v297q-123 -2 -195 -17.5 t-87 -26.5t-40 -42l-174 -211h45q74 0 74 -63.5t-74 -63.5h-276q-74 0 -74 63.5zM645 754q150 -49 196 -88t54 -119q2 25 9 46t13.5 36.5t25 31t28.5 23.5t37.5 20.5t39 16.5t47 17.5t48.5 17.5h-498v-2z" />
<glyph unicode="&#x46c;" horiz-adv-x="2867" d="M92 63.5q0 63.5 76 63.5h117v997h-117q-76 0 -76 63.5t74 63.5h381q74 0 74 -63.5t-76 -63.5h-117v-411h1241l-432 444q-51 51 -51 70q0 25 43 24h1118q45 0 45 -24q0 -16 -49 -70l-434 -446q215 -10 320.5 -60.5t176.5 -150.5l250 -346q23 -27 41 -27h58 q74 0 73.5 -63.5t-71.5 -63.5h-279q-76 0 -76 61q0 66 74 66h57q-76 104 -172 238q-121 168 -139 178h-2q-78 45 -373 45v-461h68q78 0 78 -63.5t-74 -63.5h-256q-76 0 -76 63.5t72 63.5h72v461q-330 0 -392 -62q-8 -8 -292 -399h51q78 0 78 -63.5t-72 -63.5h-281 q-72 0 -71.5 63.5t73.5 63.5h43q25 0 31 3t23 24q289 399 319 426l8 8h-821v-461h119q74 0 74 -63.5t-72 -63.5h-383q-74 0 -74 63.5zM1386 1124l390 -399l14 -6l12 6l391 399h-807z" />
<glyph unicode="&#x46d;" horiz-adv-x="2418" d="M33 63.5q0 63.5 76 63.5h116v629h-116q-76 0 -76 61q0 63 71 64h383q74 0 74 -64q0 -61 -76 -61h-116v-209h968l56 2q-31 20 -369 262q-49 33 -49 55q0 14 37 15h1007q4 0 8.5 1t8.5 1q33 0 32.5 -16.5t-49.5 -53.5l-379 -270q68 -10 117 -21.5t95 -35t70 -35t68 -55.5 t59 -61.5t72.5 -87t84.5 -100.5q18 -20 55 -20h45q74 0 74 -63.5t-72 -63.5h-278q-74 0 -74 61q0 66 74 66h45l-174 211q-25 31 -40.5 42t-87 26.5t-194.5 17.5v-297h68q78 0 77.5 -63.5t-73.5 -63.5h-256q-76 0 -76 63.5t72 63.5h71v297q-123 -2 -194.5 -17.5t-87 -26.5 t-39.5 -42l-174 -211h45q74 0 73.5 -63.5t-71.5 -63.5h-281q-72 0 -71.5 63.5t73.5 63.5h43q33 0 43 6q16 10 111.5 129t148.5 162h-712v-297h118q74 0 74 -63.5t-72 -63.5h-383q-73 0 -73 63.5zM1272 754q150 -49 195.5 -88t54.5 -119q2 25 9 46t13 36.5t24.5 31t29 23.5 t38 20.5t39 16.5t47 17.5t47.5 17.5h-497v-2z" />
<glyph unicode="&#x46e;" horiz-adv-x="1193" d="M45 -276q0 53 22.5 95t64.5 68.5t61.5 34.5t54.5 21l524 176q100 35 148.5 87t48.5 134q0 133 -106.5 190.5t-254.5 57.5h-121q-70 2 -69.5 63.5t67.5 61.5h125q154 0 221.5 70.5t67.5 150.5q0 86 -64.5 149.5t-232.5 63.5q-233 0 -313 -117q25 -33 24 -63 q0 -39 -27.5 -64.5t-64.5 -25.5q-39 0 -64.5 26.5t-25.5 69.5q0 119 95.5 192.5t224.5 94.5q-43 37 -89.5 74.5t-72 57t-48 40t-31.5 35t-9 30.5q0 10 4 21.5t22.5 22.5t48.5 11h123h13.5t11.5 -2t11 -4t14.5 -8t16.5 -12t22.5 -18.5t28.5 -23.5t38 -31.5t47 -39.5h2l14 17 q16 14 27.5 23t32 26.5t41 29t44 23.5t49.5 18t50 6q33 0 52.5 -20t19.5 -49q0 -37 -35 -51q-6 -2 -29.5 -5.5t-44 -19.5t-49.5 -59l-53 -86q100 -14 170 -57.5t99.5 -98.5t39.5 -97t10 -79q0 -94 -51 -165t-119 -110v-2q109 -41 170.5 -127t61.5 -204q0 -145 -86 -224 t-232 -129q-532 -178 -559 -194q-43 -29 -43 -64q0 -29 17.5 -41t38 -14t38 -16.5t17.5 -46.5q0 -25 -16.5 -43.5t-47.5 -18.5q-72 0 -129 53.5t-57 135.5z" />
<glyph unicode="&#x46f;" horiz-adv-x="894" d="M14 748q0 143 334 143l-268 215h139q20 0 68 -37q12 -10 47 -37q55 -45 94 -76q12 14 46 60.5t53.5 70t52 46t61.5 22.5q14 0 26.5 -13.5t69.5 -86.5q-39 -2 -63.5 -8.5t-78.5 -45t-114 -110.5q154 -6 223.5 -77t69.5 -155q0 -94 -98 -159v-2q145 -68 145 -234 q0 -152 -139 -223q-76 -39 -342 -104q-25 -6 -45 -13q-137 -35 -137 -145q0 -45 27.5 -81t74.5 -36q31 0 69 23.5t54 23.5q23 0 43 -20.5t20 -44.5q0 -41 -63.5 -75t-124.5 -34q-104 0 -169.5 74t-65.5 178q0 92 57 169t176 107q291 74 328 89q94 55 102 120q0 51 -24.5 84 t-71.5 46.5t-86 17.5t-98 4h-113q-68 0 -68 61.5t74 61.5h84q125 0 186.5 35.5t61.5 79.5q0 41 -51.5 72.5t-151.5 31.5h-59q-115 -4 -172 -12q0 -51 -30 -75t-61 -24q-37 0 -64.5 26t-27.5 67z" />
<glyph unicode="&#x470;" horiz-adv-x="1671" d="M119 924q0 63 71 63h9q90 0 150.5 -55t74.5 -133q2 -8 5 -60.5t15.5 -88.5t43 -84t101 -79.5t175.5 -44.5v682h-170q-72 0 -72 62q0 66 70 65h493q31 -2 47.5 -20.5t16.5 -42.5q0 -63 -72 -64h-170v-682q90 10 154.5 37t96.5 58.5t52.5 73.5t23.5 72t6 67.5t5 48.5 q14 78 74.5 133t153.5 55h10q68 0 67 -63q0 -25 -10 -39.5t-21.5 -17.5t-31 -6t-23.5 -5q-49 -14 -66.5 -56t-16.5 -91.5t-25.5 -122t-89.5 -133.5q-125 -123 -359 -136v-190h170q72 0 72 -64q0 -59 -64 -63h-493q-70 2 -70 63q0 63 72 64h170v190q-80 4 -147.5 21.5 t-114.5 44.5t-84 58.5t-59.5 68.5t-38 70.5t-22.5 68.5t-10 58.5t-5 44.5v20q-10 43 -38 63.5t-55.5 22.5t-49 16.5t-21.5 49.5z" />
<glyph unicode="&#x471;" horiz-adv-x="1374" d="M59 829q0 25 16.5 44.5t51.5 19.5q78 0 146.5 -59.5t68.5 -153.5q0 -8 -15.5 -131t-15.5 -176q0 -225 303 -256v1007h-125q-68 0 -67.5 63.5t74.5 63.5h190q72 0 72 -69v-1065q303 29 303 256q0 53 -15.5 175t-15.5 134q0 94 69.5 152.5t145.5 58.5q35 0 50.5 -19.5 t15.5 -44.5q0 -14 -5.5 -26t-11.5 -18.5t-15 -10.5t-16.5 -6t-13.5 -2l-8 -2q-29 -6 -48 -28.5t-19 -49.5q0 -14 15 -133t15 -180q0 -66 -19.5 -122t-64.5 -114.5t-138 -97.5t-224 -49v-318h116q76 0 76 -63.5t-71 -63.5h-385q-72 0 -72 63.5t74 63.5h118v318 q-131 10 -224 49t-138 97.5t-64.5 115.5t-19.5 121q0 61 14.5 178t14.5 133q0 39 -21.5 57.5t-47.5 21.5t-47.5 18t-21.5 48z" />
<glyph unicode="&#x472;" horiz-adv-x="1671" d="M119 627q0 262 206.5 454.5t512.5 192.5q297 0 504.5 -191.5t207.5 -457.5q0 -262 -206.5 -455t-509.5 -193q-299 0 -507 192t-208 458zM266 588q23 -195 181.5 -340.5t388.5 -145.5q233 0 390.5 146.5t178.5 339.5h-1139zM268 713h1135q-25 184 -187.5 309t-379.5 125 q-227 0 -385 -129t-183 -305z" />
<glyph unicode="&#x473;" horiz-adv-x="956" d="M76 440q0 197 119.5 331t279.5 134q168 0 283.5 -137t115.5 -327.5t-116.5 -327t-282.5 -136.5q-162 0 -280.5 132t-118.5 331zM219 424q8 -154 87 -237t169 -83t169 82t87 238h-512zM231 547h488q-29 111 -96.5 171t-145.5 60q-80 0 -148.5 -59t-97.5 -172z" />
<glyph unicode="&#x474;" horiz-adv-x="1732" d="M55 1187.5q0 63.5 72 63.5h332q80 0 80 -63.5t-82 -63.5h-80l397 -1018q6 16 19.5 49t19.5 50l336 862q45 113 130 160t173 47q92 0 154.5 -43t62.5 -111q0 -41 -25.5 -65.5t-64.5 -24.5q-37 0 -64.5 23.5t-27.5 66.5q0 18 2 27h-31q-29 0 -51.5 -2t-37.5 -10.5 t-25.5 -12.5t-19.5 -18t-12 -19.5t-11.5 -26t-10.5 -24.5l-377 -966q-18 -49 -40.5 -66.5t-69.5 -17.5h-58q-49 0 -69.5 19.5t-38.5 62.5l-389 993l-25 65h-92q-76 0 -76 63.5z" />
<glyph unicode="&#x475;" horiz-adv-x="1255" d="M51 819q0 61 76 62h334q74 0 74 -64q0 -61 -76 -61h-92l200 -625q25 72 71 221.5t82 258t48 132.5q33 63 99.5 106.5t154.5 43.5q68 0 129 -28.5t61 -92.5q0 -41 -25.5 -65.5t-64.5 -24.5t-63.5 23.5t-28.5 62.5q-8 -2 -25.5 -4t-22.5 -4t-17.5 -4t-16.5 -4t-12 -6.5 t-11 -9.5t-9.5 -11t-9.5 -15.5t-8 -20.5t-9 -25l-195 -609q-23 -72 -96 -71h-59q-14 0 -25.5 2t-22 6t-16.5 8t-12 12t-10 12.5t-8.5 14.5t-5.5 14t-5 15.5t-4 13.5l-215 674h-86q-78 0 -78 63z" />
<glyph unicode="&#x476;" horiz-adv-x="1732" d="M55 1187.5q0 63.5 72 63.5h332q80 0 80 -63.5t-82 -63.5h-80l397 -1018q6 16 19.5 49t19.5 50l336 862q45 113 130 160t173 47q92 0 154.5 -43t62.5 -111q0 -41 -25.5 -65.5t-64.5 -24.5q-37 0 -64.5 23.5t-27.5 66.5q0 18 2 27h-31q-29 0 -51.5 -2t-37.5 -10.5 t-25.5 -12.5t-19.5 -18t-12 -19.5t-11.5 -26t-10.5 -24.5l-377 -966q-18 -49 -40.5 -66.5t-69.5 -17.5h-58q-49 0 -69.5 19.5t-38.5 62.5l-389 993l-25 65h-92q-76 0 -76 63.5zM303 1581q0 29 19.5 50.5t50.5 21.5q14 0 289 -94v18q0 35 19 55.5t50 20.5q16 0 316 -103 q57 -16 57 -61q0 -23 -15.5 -53.5t-50.5 -30.5h-2q-14 0 -291 94q2 -33 -16 -63.5t-49 -30.5h-2q-6 0 -309 102q-66 21 -66 74z" />
<glyph unicode="&#x477;" horiz-adv-x="1255" d="M51 819q0 61 76 62h334q74 0 74 -64q0 -61 -76 -61h-92l200 -625q25 72 71 221.5t82 258t48 132.5q33 63 99.5 106.5t154.5 43.5q68 0 129 -28.5t61 -92.5q0 -41 -25.5 -65.5t-64.5 -24.5t-63.5 23.5t-28.5 62.5q-8 -2 -25.5 -4t-22.5 -4t-17.5 -4t-16.5 -4t-12 -6.5 t-11 -9.5t-9.5 -11t-9.5 -15.5t-8 -20.5t-9 -25l-195 -609q-23 -72 -96 -71h-59q-14 0 -25.5 2t-22 6t-16.5 8t-12 12t-10 12.5t-8.5 14.5t-5.5 14t-5 15.5t-4 13.5l-215 674h-86q-78 0 -78 63zM76 1237q0 29 19.5 50.5t49.5 21.5q6 0 13.5 -1t18.5 -6.5t24.5 -10.5t40 -16 t53.5 -23.5t73 -33t95 -40.5q-29 27 -29 61q0 29 19.5 49.5t50.5 20.5h4q6 0 301 -127q59 -25 59 -64q0 -25 -18.5 -53.5t-48.5 -28.5q-16 0 -68.5 22.5t-127.5 57.5t-120 51q25 -18 25 -47q0 -10 -5 -27.5t-22.5 -37t-42.5 -19.5h-2q-14 0 -299 125l-8 2q-6 4 -12 7.5 t-14.5 9.5t-14.5 13t-10 18.5t-4 25.5z" />
<glyph unicode="&#x47a;" horiz-adv-x="2029" d="M119 625q0 86 18.5 164.5t72.5 166.5t140 153t233.5 111t338.5 52q0 43 26.5 69.5t65.5 26.5q31 0 60.5 -21.5t31.5 -74.5q190 -6 337.5 -52t233.5 -111t140.5 -153t73 -166.5t18.5 -164.5t-18.5 -165t-73 -166t-140.5 -151.5t-233.5 -110.5t-337.5 -52q0 -41 -25.5 -69 t-66.5 -28q-39 0 -65.5 27t-26.5 70q-190 6 -338 52t-234 110.5t-140 151.5t-72.5 166t-18.5 165zM262 649q0 -72 15.5 -138.5t61.5 -139t117.5 -128t193.5 -94t282 -45.5q2 25 3 54.5t2 47t3 39t4 34t5 25.5t8.5 20.5t13.5 13.5t17 8t24 2l2 -2l4 2q16 0 28.5 -4 t19.5 -15.5t12 -22.5t7 -35.5t3.5 -44t3.5 -56.5t4 -66q158 6 280.5 45t194 93.5t117 128t61.5 140.5t16 138q0 135 -61.5 235.5t-163.5 155t-212.5 80t-231.5 27.5q-2 -29 -4 -67t-3.5 -57t-3.5 -43t-7 -35t-12 -22.5t-19.5 -15.5t-28.5 -4h-6q-47 0 -58.5 33t-17.5 137 q-2 47 -4 74q-135 -2 -252 -32t-212 -87t-150.5 -154.5t-55.5 -224.5z" />
<glyph unicode="&#x47b;" horiz-adv-x="1314" d="M76 442q0 203 131 322t358 131q0 41 25.5 67.5t64.5 26.5q80 0 88 -94h2q227 -12 357.5 -131t130.5 -322q0 -29 -3 -56.5t-13.5 -75.5t-36 -90t-63.5 -85t-102.5 -76.5t-148.5 -50.5q-41 -8 -123 -16q0 -39 -24.5 -66.5t-63.5 -27.5t-64.5 26.5t-25.5 67.5 q-80 8 -141.5 22.5t-130 46t-118.5 91t-77 143.5q-22 77 -22 147zM219 457q0 -51 14.5 -100.5t49 -102.5t109.5 -90t183 -45q6 125 21 149q16 29 57 29h4q47 0 58.5 -29.5t15.5 -113.5q2 -23 2 -35q109 8 183.5 45t109.5 90t49.5 102.5t14.5 100.5q0 53 -15.5 99t-52.5 93 t-110.5 80t-178.5 41q0 -12 -1 -33.5t-2 -33t-2 -28t-3 -25.5t-6 -20.5t-9 -17.5t-12.5 -12t-17.5 -8t-23 -2h-4q-55 0 -67 59q-6 25 -11 121q-199 -18 -277.5 -107t-78.5 -206z" />
<glyph unicode="&#x47c;" horiz-adv-x="2150" d="M119 627q0 272 166 459.5t395 187.5q141 0 207.5 -63.5t66.5 -147.5q0 -45 -27.5 -70.5t-64.5 -25.5q-41 0 -65.5 26.5t-24.5 63.5q0 27 19 57q-49 33 -113 33q-168 0 -292 -151.5t-124 -370.5q0 -211 119 -367t301 -156q215 0 301 91q18 20 18 55v276h-22q-74 0 -74 64 q0 61 70 61h196q70 0 70 -59q0 -66 -72 -66h-24v-276q0 -35 18 -55q86 -90 303 -91q182 0 300 156t118 367q0 219 -123 370.5t-291 151.5q-63 0 -112 -33q18 -31 18 -57q0 -39 -27.5 -64.5t-64.5 -25.5q-39 0 -64.5 26.5t-25.5 69.5q0 82 66.5 146.5t205.5 64.5 q229 0 395.5 -187.5t166.5 -459.5q0 -264 -152 -457t-387 -193q-289 0 -414 140h-2q-123 -139 -416 -140q-236 0 -387 193t-151 457zM496 1395q0 16 11 47t48 77t93.5 84.5t159.5 67.5t234 29q309 0 455 -144q2 -2 16.5 -17t22.5 -23.5t27.5 -21.5t38 -21.5t48 -14.5 t64.5 -8q74 0 74 -66q0 -61 -68 -61q-43 0 -83 6t-70.5 18.5t-54 23.5t-45 28.5t-33 28t-25.5 25.5t-16 17q-104 104 -349 105h-6q-37 0 -75.5 -4t-107.5 -18.5t-125 -53.5t-85 -96q-2 -6 -7 -17.5t-7 -15.5t-7.5 -11t-9.5 -10t-11 -7.5t-16 -5.5t-22 -1q-29 0 -46 13.5 t-20 25t-3 21.5zM864 1309q0 72 57.5 131t143.5 59q66 0 122 -40t56 -99q0 -51 -51 -113.5t-88 -62.5q-27 0 -46.5 19.5t-19.5 43.5q0 16 7.5 26.5t28 32t36.5 46.5q-25 14 -47 14q-27 0 -49.5 -17.5t-26.5 -43.5q0 -8 -2 -20.5t-17.5 -30t-39.5 -17.5q-23 0 -43.5 19.5 t-20.5 52.5z" />
</font>
</defs>
</svg>
