<?xml version="1.0" standalone="no"?>
<!DOCTYPE svg PUBLIC "-//W3C//DTD SVG 1.1//EN" "http://www.w3.org/Graphics/SVG/1.1/DTD/svg11.dtd" >
<svg xmlns="http://www.w3.org/2000/svg" xmlns:xlink="http://www.w3.org/1999/xlink" version="1.1">
<metadata></metadata>
<defs>
<font id="cmu_brightroman" horiz-adv-x="1075" >
<font-face units-per-em="2048" ascent="1638" descent="-410" />
<missing-glyph horiz-adv-x="681" />
<glyph unicode="&#xfb00;" horiz-adv-x="1253" d="M57 864v103h174v131q0 53 2.5 79.5t29 83t79.5 101.5q94 78 233 78q72 0 168 -17v-116q-94 29 -174 28q-82 0 -146.5 -33.5t-64.5 -113.5v-221h256v-103h-252v-864h-131v864h-174zM829 0v1122q0 150 99.5 234t242.5 84q74 0 170 -17v-116q-94 29 -174 28 q-82 0 -146.5 -33.5t-64.5 -113.5v-221h256v-103h-254v-864h-129z" />
<glyph unicode="&#xfb01;" horiz-adv-x="1126" d="M57 864v103h174v157q0 156 83 236t192 80q59 0 125 -17v-118q-78 31 -129 30q-53 0 -98.5 -32.5t-45.5 -114.5v-221h273v-103h-269v-864h-131v864h-174zM829 0v967h129v-967h-129zM829 1294v129h129v-129h-129z" />
<glyph unicode="&#xfb02;" horiz-adv-x="1126" d="M57 864v103h174v157q0 156 83 236t192 80q59 0 125 -17v-116q-74 29 -127 28q-55 0 -100.5 -33.5t-45.5 -113.5v-221h273v-103h-269v-864h-131v864h-174zM829 0v1423h129v-1423h-129z" />
<glyph unicode="&#xfb03;" horiz-adv-x="1724" d="M57 864v103h174v157q0 150 90.5 233t215.5 83q74 0 149 -17v-116q-90 29 -147 28q-72 0 -126.5 -33.5t-54.5 -113.5v-221h273v-103h-269v-864h-131v864h-174zM829 0v1112q0 78 15 125q23 78 89 140.5t171 62.5q25 0 73 -6.5t52 -10.5v-116q-72 29 -129 28 q-53 0 -98.5 -32.5t-45.5 -114.5v-221h273v-103h-271v-864h-129zM1427 0v967h129v-967h-129zM1427 1294v129h129v-129h-129z" />
<glyph unicode="&#xfb04;" horiz-adv-x="1724" d="M57 864v103h174v157q0 150 90.5 233t215.5 83q74 0 149 -17v-116q-90 29 -147 28q-72 0 -126.5 -33.5t-54.5 -113.5v-221h273v-103h-269v-864h-131v864h-174zM829 0v1116q0 168 84 246t187 78q61 0 129 -17v-116q-74 29 -129.5 28.5t-99.5 -33t-44 -114.5v-221h273v-103 h-271v-864h-129zM1427 0v1423h129v-1423h-129z" />
<glyph horiz-adv-x="0" />
<glyph unicode="&#xd;" horiz-adv-x="681" />
<glyph unicode=" "  horiz-adv-x="681" />
<glyph unicode="&#x09;" horiz-adv-x="681" />
<glyph unicode="&#xa0;" horiz-adv-x="681" />
<glyph unicode="!" horiz-adv-x="665" d="M252 0v160h160v-160h-160zM252 1423h160l-17 -1061h-127z" />
<glyph unicode="&#x22;" d="M290 1423h134l-15 -632h-104l-13 557zM649 1423h134l-15 -632h-104l-13 557z" />
<glyph unicode="#" horiz-adv-x="1792" d="M121 324q0 51 67 51h363l96 332h-452q-74 0 -74 51q0 53 69 53h488l158 543q14 68 59 67q23 0 36 -17.5t13 -31.5q0 -8 -160 -561h379l158 543q14 68 59 67q49 0 50 -51q0 -16 -7 -35l-151 -524h327q72 0 72 -53q0 -51 -67 -51h-365l-96 -332h454q74 0 74 -51 q0 -53 -72 -54h-487l-158 -544q-12 -66 -59 -66t-47 51q0 23 4 35l154 524h-379l-158 -544q-12 -66 -59 -66q-49 0 -50 51q0 16 7 35l151 524h-328q-69 1 -69 54zM657 375h379l97 332h-379z" />
<glyph unicode="$" d="M94 125l21 119q96 -72 171.5 -105t196.5 -45v584q-96 20 -167.5 60t-108.5 82t-58.5 93.5t-25.5 82t-4 61.5q0 141 99 249.5t265 129.5v100h105v-98q160 -4 330 -113l-21 -113q-59 39 -87 54.5t-90.5 37t-131.5 25.5v-528q74 -14 119 -35q102 -43 173.5 -142.5 t71.5 -230.5q0 -154 -103.5 -270.5t-260.5 -134.5v-101h-105v99q-211 16 -389 139zM240 1075q0 -25 7 -52.5t27.5 -68.5t74.5 -75.5t134 -53.5v502q-121 -20 -182 -94t-61 -158zM588 96q104 18 173.5 95t69.5 184q0 88 -56 167t-187 111v-557z" />
<glyph unicode="%" horiz-adv-x="1792" d="M119 1124q0 182 91 297t208 115q123 0 211 -120t88 -294q0 -170 -87 -290.5t-210 -120.5q-119 0 -210 116.5t-91 296.5zM244 1124q0 -182 61 -254q45 -55 113 -55q78 0 128 92t50 217q0 135 -52 221.5t-126 86.5q-45 0 -86 -32t-62 -89q-26 -70 -26 -187zM381 -72 q0 8 18 45l934 1534q20 27 41 27q16 0 27.5 -11.5t11.5 -27.5q0 -14 -29 -61l-927 -1524q-14 -23 -37 -23q-16 0 -27.5 12.5t-11.5 28.5zM1073 299q0 170 88 291t211 121t211 -121t88 -293q0 -170 -87 -290t-210 -120q-119 0 -210 116t-91 296zM1200 299q0 -182 62 -254 q45 -55 110 -55q78 0 129 92t51 217q0 135 -53 222t-127 87q-45 0 -86 -31.5t-61 -89.5q-25 -65 -25 -188z" />
<glyph unicode="&#x26;" horiz-adv-x="1603" d="M88 293q0 35 5 62.5t22.5 58t31 50t51.5 56.5t59.5 56.5t81.5 70.5t93 80q-70 209 -70 352q0 162 77 269.5t200 107.5q111 0 182.5 -91t71.5 -206q0 -170 -320 -442q111 -221 353 -481q35 25 72.5 62.5t101 114t124 199.5t99.5 271l109 -29q-109 -412 -422 -692 q70 -45 121 -65.5t129 -20.5q96 0 223 41v-115q-119 -37 -226 -37q-178 0 -348 127q-186 -127 -424 -127q-172 0 -284.5 96.5t-112.5 231.5zM221 305q0 -90 72 -160.5t190 -70.5q162 0 342 92q-119 125 -195.5 223t-152.5 240q-27 -20 -73 -62.5t-60 -54.5 q-43 -37 -58.5 -52.5t-40 -60.5t-24.5 -94zM471 1141q0 -150 59 -324q244 203 244 340q0 39 -10 80t-44 79t-85 38q-59 0 -111.5 -53.5t-52.5 -159.5z" />
<glyph unicode="'" horiz-adv-x="598" d="M231 1423h134l-15 -632h-104l-13 557z" />
<glyph unicode="(" horiz-adv-x="835" d="M186 541q0 653 426 995h103q-98 -92 -148 -156q-250 -326 -250 -835q0 -637 388 -991q8 -6 10 -9h-103q-215 174 -320.5 432.5t-105.5 563.5z" />
<glyph unicode=")" horiz-adv-x="835" d="M119 -455q125 113 196 226q201 313 201 774q0 637 -385 981q-10 8 -12 10h102q215 -172 320.5 -429t105.5 -562q0 -285 -98 -550t-328 -450h-102z" />
<glyph unicode="*" d="M158 903q8 31 34.5 46.5t290.5 146.5q-291 143 -305 155q-14 10 -20 37q14 53 53 53h4q14 0 115 -71q98 -70 178 -127q-2 39 -9 128t-11.5 145.5t-4.5 62.5q0 23 11.5 36t21.5 16t21 3q29 0 39 -15.5t10 -60.5q0 -18 -23 -315q39 27 75 52.5t59.5 42.5t46 33.5t36 26 t26.5 18.5t19 13t12.5 7t10.5 4t8 1h2q47 0 55 -55q-6 -27 -26 -41q-12 -8 -299 -149q291 -143 305 -156q14 -10 20 -37q-14 -53 -53 -53h-4q-16 0 -149 94q-84 59 -144 103q2 -39 9.5 -128.5t11.5 -145.5t4 -62q0 -33 -17.5 -44.5t-33.5 -11.5q-29 0 -40.5 16.5t-11.5 61.5 q0 16 23 314q-268 -190 -283 -195q-4 -2 -10 -2h-2q-47 0 -55 53z" />
<glyph unicode="+" horiz-adv-x="1314" d="M121 541q0 53 69 53h414v412q0 72 53 71q51 0 52 -69v-414h413q70 0 70 -53q0 -51 -66 -52h-417v-413q0 -72 -54 -72q-51 0 -51 70v415h-411q-72 1 -72 52z" />
<glyph unicode="," horiz-adv-x="598" d="M217 0v160h162v-101l-2 -59l-78 -227h-82l49 227h-49z" />
<glyph unicode="-" horiz-adv-x="716" d="M23 432v103h573v-103h-573z" />
<glyph unicode="." horiz-adv-x="598" d="M217 0v160h160v-160h-160z" />
<glyph unicode="/" d="M121 -403q0 6 10 43l711 1830q25 63 61 64q20 0 35.5 -13.5t15.5 -35.5q0 -14 -18 -62l-700 -1804q-14 -37 -22.5 -49t-27.5 -21q-8 -2 -12 -4h-2h-2q-20 0 -34.5 16t-14.5 36z" />
<glyph unicode="0" d="M106 635v33q0 66 2.5 112.5t10.5 125.5t28.5 139.5t51 125t83 111.5t121.5 72q59 23 134 22q57 0 111 -14t113.5 -59.5t103.5 -116t73 -193.5t29 -284q0 -170 -12.5 -277.5t-57.5 -212.5q-59 -139 -158.5 -196.5t-201.5 -57.5q-57 0 -111.5 14.5t-114 59.5t-103.5 115.5 t-73 194.5t-29 286zM238 772q0 -12 1 -27.5t1 -17.5v-39q0 -119 3 -192.5t25.5 -171t63.5 -152.5q80 -102 205 -102q131 0 208 108q39 55 60.5 153.5t25 170t3.5 190.5v35q0 2 1 16.5t1 26.5q0 287 -88 401q-76 102 -211 103q-139 0 -215 -109q-84 -121 -84 -393z" />
<glyph unicode="1" d="M215 1139v104q242 0 381 133h33v-1274h268v-102h-670v102h269v1096q-119 -59 -281 -59z" />
<glyph unicode="2" d="M88 1032q102 344 420 344h2q199 -2 328 -120.5t129 -299.5q0 -78 -27 -146.5t-86 -133t-91 -94t-104 -86.5q-98 -80 -134 -111t-302 -270h744v-115h-861v109l433 391q147 129 218.5 229t71.5 225q0 139 -100 226.5t-250 87.5q-137 0 -205.5 -86t-109.5 -242z" />
<glyph unicode="3" d="M90 209q0 4 1 10t6 28.5t12 53.5q70 -96 167 -152.5t153 -66.5t110 -10q137 0 219 84t82 217q0 131 -78 211t-195 88l-69 2h-142v102q190 14 240 33q76 29 134 99.5t58 166.5q0 90 -66.5 144.5t-176.5 54.5q-233 0 -363 -232l-63 91q152 244 426 243q160 0 269.5 -88 t109.5 -213q0 -96 -58.5 -191.5t-191.5 -156.5q152 -41 230.5 -140.5t78.5 -215.5q0 -158 -124 -282t-318 -124q-92 0 -180.5 32t-144.5 74t-91 81t-35 57z" />
<glyph unicode="4" d="M59 371v110l566 879h155v-881h234v-108h-234v-371h-129v371h-592zM193 479h464v764q-27 -70 -143 -256z" />
<glyph unicode="5" d="M96 166l60 96q131 -190 350 -190q125 0 220 79.5t95 268.5q0 100 -24.5 171t-65.5 105.5t-81 49t-83 14.5q-180 0 -266 -152h-115v733h709v-108h-584v-471q113 102 258 102q162 0 280 -131t118 -315q0 -186 -134.5 -319.5t-328.5 -133.5q-244 0 -408 201z" />
<glyph unicode="6" d="M111 659q0 324 165.5 520.5t387.5 196.5h4q109 0 227 -39v-106q-135 43 -231 43h-5q-186 0 -299.5 -156.5t-113.5 -410.5q0 -4 1 -13.5t1 -13.5q49 102 148.5 173t228.5 71q139 0 233 -129q104 -145 105 -344q0 -205 -125 -347q-121 -139 -297 -139q-57 0 -111.5 16.5 t-114 63.5t-103.5 122t-72.5 201.5t-28.5 290.5zM254 444q6 -70 19.5 -123t42 -115.5t86 -98t139.5 -35.5q143 0 221 104q43 59 54 118.5t11 164.5q0 68 -4 109.5t-29.5 100t-72.5 99.5q-63 53 -168 53q-129 0 -213 -96t-84 -227q0 -37 2 -54h-4z" />
<glyph unicode="7" d="M88 1229v112h895v-108q-215 -225 -356.5 -545.5t-141.5 -703.5h-137q0 346 139.5 671.5t407.5 573.5h-807z" />
<glyph unicode="8" d="M88 371q0 115 78 211t233 143q-109 27 -194.5 106.5t-85.5 194.5q0 139 119.5 244.5t298.5 105.5q174 0 295.5 -102.5t121.5 -245.5q0 -94 -62.5 -169t-160.5 -116l-59 -18q117 -29 214 -122t97 -232q0 -164 -130 -285t-318 -121q-190 0 -318.5 123t-128.5 283zM223 371 q0 -145 87 -222t225 -77q143 0 228 78.5t85 222.5q0 145 -89 223t-224 78q-125 0 -218.5 -72.5t-93.5 -230.5zM242 1026q0 -102 72.5 -176t220.5 -74q135 0 214.5 66.5t79.5 183.5q0 96 -65.5 172t-224.5 76q-164 0 -230.5 -76t-66.5 -172z" />
<glyph unicode="9" d="M111 897q0 205 135 346q125 133 297 133q57 0 109.5 -15t110.5 -61.5t101 -120t71 -202.5t28 -297q0 -305 -150.5 -510t-370.5 -205q-152 0 -286 94l53 95l22 -15q23 -16 37.5 -24.5t42 -19.5t60 -17t69.5 -6q100 0 178 50t122 133t65.5 179t21.5 201v29 q-47 -102 -148 -174t-230 -72q-137 0 -232 129q-106 143 -106 350zM246 850q0 -133 63.5 -230.5t212.5 -97.5q129 0 213 97.5t84 230.5q0 31 -2 47h4q-14 211 -94 294t-184 83q-145 0 -228 -107q-70 -90 -69 -264v-53z" />
<glyph unicode=":" horiz-adv-x="598" d="M217 0v160h160v-160h-160zM217 807v160h160v-160h-160z" />
<glyph unicode=";" horiz-adv-x="598" d="M217 0v160h162v-101l-2 -59l-78 -227h-82l49 227h-49zM217 807v160h160v-160h-160z" />
<glyph unicode="&#x3c;" horiz-adv-x="1314" d="M180 541q4 23 11.5 33t39.5 30l811 524q25 14 41 15q20 0 35 -15.5t15 -35.5q0 -29 -52 -62l-637 -412q-53 -37 -118 -75v-2q41 -25 118 -78l637 -412q51 -33 52 -61q0 -20 -14.5 -35.5t-35.5 -15.5q-23 0 -71 34l-781 504q-33 20 -40 30.5t-11 33.5z" />
<glyph unicode="=" horiz-adv-x="1314" d="M121 340q0 53 63 53h946q61 -2 62 -53q0 -49 -68 -49h-936q-67 0 -67 49zM121 737q0 53 65 54h944q61 -2 62 -54q0 -49 -68 -49h-936q-67 0 -67 49z" />
<glyph unicode="&#x3e;" horiz-adv-x="1314" d="M180 -10q0 29 51 61l635 412q63 43 121 78v2q-82 49 -121 75l-635 412q-51 33 -51 62q0 20 14.5 35.5t34.5 15.5q16 0 41 -15l809 -524q49 -31 54 -63q-4 -33 -54 -64l-809 -524q-25 -14 -41 -14q-20 0 -34.5 15.5t-14.5 35.5z" />
<glyph unicode="?" horiz-adv-x="1015" d="M119 1331q170 109 366 109q119 0 205 -30t128 -79t59.5 -98t17.5 -100q0 -39 -9 -75t-21.5 -59.5t-33 -47t-33 -35t-31.5 -27t-22 -17.5q-205 -178 -204 -436v-74h-127q0 12 -1 37t-1 37q0 106 23.5 195.5t65.5 152t76.5 99.5t79.5 73.5t52 42.5q55 55 55 140 q0 111 -70.5 153.5t-197.5 42.5q-188 0 -338 -112zM397 0v160h160v-160h-160z" />
<glyph unicode="@" horiz-adv-x="1433" d="M119 711q0 309 214 519t501 210q186 0 305 -109q174 -156 174 -606q0 -219 -120 -345t-269 -126q-160 0 -274.5 133t-114.5 324q0 197 116.5 326.5t272.5 129.5q117 0 221 -80q-84 248 -314 248q-231 0 -409 -179t-178 -445q0 -248 169 -436.5t429 -188.5 q88 0 166.5 18.5t134 41t59.5 22.5q14 2 43 2h68q-195 -186 -475 -186q-293 0 -506 211t-213 516zM659 713q0 -147 78 -251t187 -104q106 0 185 101.5t79 251.5q0 147 -78 250.5t-186 103.5q-115 0 -190 -106.5t-75 -245.5z" />
<glyph unicode="A" horiz-adv-x="1382" d="M59 0l553 1440h156l553 -1440h-150l-165 430h-650l-163 -430h-134zM399 539h566l-250 659l-33 92z" />
<glyph unicode="B" horiz-adv-x="1406" d="M203 0v1423h459q150 0 265 -35.5t176.5 -92t92.5 -116t31 -114.5q0 -33 -12.5 -67.5t-46 -85t-114.5 -95.5t-200 -74q178 -25 305 -123t127 -235q0 -147 -135 -254.5t-326 -126.5q-37 -4 -108 -4h-514zM340 109h328q244 0 363.5 87t119.5 191q0 45 -26.5 93t-82 96.5 t-160 80t-239.5 31.5h-301l-2 -80v-499zM340 791h264q139 6 210 20t157 68q125 78 125 182q0 92 -122 172t-366 80h-266l-2 -74v-448z" />
<glyph unicode="C" horiz-adv-x="1374" d="M166 710.5q0 194.5 83 363.5t241.5 275.5t355.5 106.5q195 0 395 -70l-27 -141q-63 35 -99 51.5t-111.5 34t-159.5 17.5q-229 0 -382 -187.5t-153 -449.5q0 -258 151.5 -447.5t385.5 -189.5q104 0 185 21.5t110.5 36.5t111.5 67l11 -119q-74 -41 -115 -60.5t-121 -37 t-182 -17.5q-197 0 -355.5 106.5t-241.5 275.5t-83 363.5z" />
<glyph unicode="D" horiz-adv-x="1527" d="M201 0v1423h520q168 0 303 -66.5t216 -174t124 -231.5t43 -251q0 -281 -174 -475t-414 -221q-35 -4 -106 -4h-512zM342 109h344q133 0 237.5 38.5t168 99t103.5 141.5t55.5 157t15.5 155q0 82 -15.5 160t-55.5 162t-103.5 146.5t-168 103.5t-237.5 41h-344v-1204z" />
<glyph unicode="E" horiz-adv-x="1280" d="M201 0v1419h958v-108h-815v-518h756v-109h-756v-569h846v-115h-989z" />
<glyph unicode="F" horiz-adv-x="1220" d="M201 0v1419h929v-108h-786v-547h696v-109h-696v-655h-143z" />
<glyph unicode="G" horiz-adv-x="1433" d="M166 711q0 195 83 363.5t240.5 275t354.5 106.5h4q211 0 422 -98l-25 -141q-61 41 -99 62t-121 45t-177 24q-236 0 -387.5 -188.5t-151.5 -448.5q0 -266 154.5 -451.5t376.5 -185.5q133 0 315 55v434h-321v109h454v-606q-223 -100 -446 -101q-285 0 -480.5 218.5 t-195.5 527.5z" />
<glyph unicode="H" horiz-adv-x="1449" d="M201 0v1423h143v-628h760v628h143v-1423h-143v686h-760v-686h-143z" />
<glyph unicode="I" horiz-adv-x="546" d="M201 0v1423h143v-1423h-143z" />
<glyph unicode="J" horiz-adv-x="989" d="M88 51l23 129q151 -108 287 -108h3q84 0 144.5 22.5t88.5 50t43 70.5t16 61.5t1 45.5v1101h142v-1106q0 -82 -22.5 -144t-59.5 -101t-87.5 -63.5t-101.5 -34t-108 -9.5q-181 0 -369 86z" />
<glyph unicode="K" horiz-adv-x="1441" d="M205 0v1423h135v-798l815 798h166l-573 -563l604 -860h-156l-541 768l-315 -309v-459h-135z" />
<glyph unicode="L" horiz-adv-x="1161" d="M201 0v1423h143v-1314h727v-109h-870z" />
<glyph unicode="M" horiz-adv-x="1808" d="M207 0v1423h188l414 -1015l94 -242l29 82l475 1175h190v-1423h-129v1290l-159 -409l-346 -846h-123l-430 1059l-74 196v-1290h-129z" />
<glyph unicode="N" horiz-adv-x="1449" d="M205 0v1423h201l710 -1304v1304h129v-1423h-201l-710 1305v-1305h-129z" />
<glyph unicode="O" horiz-adv-x="1603" d="M119 709q0 315 201.5 531t480.5 216q276 0 479 -216t203 -531.5t-203 -529.5t-479.5 -214t-479 215.5t-202.5 528.5zM262 735q0 -295 160 -478t379 -183q217 0 377.5 180t160.5 481q0 283 -160.5 449t-377.5 166t-378 -165t-161 -450z" />
<glyph unicode="P" horiz-adv-x="1347" d="M201 0v1423h487q188 0 322 -73q102 -57 159.5 -147.5t57.5 -190.5q0 -66 -30 -133.5t-89 -131t-168 -103.5t-248 -40h-348v-604h-143zM342 711h324q127 0 217 28.5t132 77.5t59.5 95t17.5 100q0 51 -17.5 98t-60.5 96t-132 78t-216 29h-324v-602z" />
<glyph unicode="Q" horiz-adv-x="1603" d="M119 709q0 315 201.5 531t480 216t480.5 -216t202 -531q0 -203 -90 -372t-234 -261l264 -303h-168l-204 243q-125 -51 -248 -51q-276 0 -480 213.5t-204 530.5zM260 711q0 -276 154.5 -457.5t386.5 -181.5q82 0 174 30l-248 297h150l208 -239q127 88 192.5 232.5 t65.5 316.5q0 276 -155.5 458.5t-386.5 182.5q-240 0 -390.5 -186.5t-150.5 -452.5z" />
<glyph unicode="R" horiz-adv-x="1374" d="M201 0v1423h471q154 0 271.5 -37.5t181 -98t95 -124t31.5 -125.5q0 -102 -69.5 -184t-154.5 -123t-171 -55l457 -676h-144l-442 659h-385v-659h-141zM342 764h324q229 0 344 78q108 73 108 194q0 100 -86 181t-280 94q-29 2 -88 2h-322v-549z" />
<glyph unicode="S" horiz-adv-x="1193" d="M94 109l25 141q227 -168 471 -168q160 0 256 88t96 199q0 80 -52 150.5t-147 107.5q-47 18 -177 43.5t-227 70.5t-161 138q-61 86 -61 190q0 150 133 268.5t352 118.5q203 0 393 -98l-24 -141q-59 41 -92 60t-111 42.5t-166 23.5q-158 0 -256 -76.5t-98 -181.5 q0 -72 50 -134t142 -97q37 -12 171 -43t169 -45q147 -55 220 -162.5t73 -220.5q0 -166 -137 -292t-348 -126q-258 1 -494 144z" />
<glyph unicode="T" horiz-adv-x="1484" d="M76 1309v108h1329v-108h-592v-1309h-143v1309h-594z" />
<glyph unicode="U" horiz-adv-x="1417" d="M201 506v917h143v-927q0 -266 166 -369q86 -53 201 -53q57 0 111.5 15t118 56t102 130.5t38.5 216.5v931h133v-927q0 -248 -154.5 -389.5t-348.5 -141.5q-188 0 -331.5 123t-172.5 309q-6 37 -6 109z" />
<glyph unicode="V" horiz-adv-x="1382" d="M29 1423h151l490 -1216l26 -74l178 451l340 839h136l-580 -1433h-160z" />
<glyph unicode="W" horiz-adv-x="1980" d="M29 1423h139l260 -868q106 -365 117 -422l20 88l111 385l244 817h143l225 -741q145 -500 156 -549q6 39 129 457l250 833h125l-435 -1433h-147l-313 1046l-58 203l-10 51l-16 -78l-105 -360l-258 -862h-143z" />
<glyph unicode="X" horiz-adv-x="1382" d="M29 0l571 752l-541 671h174l441 -563l422 563h164l-512 -673l602 -750h-174l-502 651l-479 -651h-166z" />
<glyph unicode="Y" horiz-adv-x="1382" d="M4 1423h174l520 -723l521 723h155l-614 -854v-569h-142v569z" />
<glyph unicode="Z" horiz-adv-x="1314" d="M119 0v74l882 1243h-851v106h1044v-71l-883 -1243h895v-109h-1087z" />
<glyph unicode="[" horiz-adv-x="602" d="M231 -455v1991h322v-102h-193v-1786h193v-103h-322z" />
<glyph unicode="\" d="M121 1483q0 18 12 33.5t31 17.5h14q8 -2 15.5 -6t12.5 -8t10 -13.5t6 -13.5t6 -17.5t8 -17.5l700 -1804q16 -37 16 -57q0 -47 -55 -50q-12 2 -29 15q-12 14 -34 71l-703 1811q-10 31 -10 39z" />
<glyph unicode="]" horiz-adv-x="602" d="M47 -352h193v1786h-193v102h322v-1991h-322v103z" />
<glyph unicode="^" horiz-adv-x="1314" d="M283 967l321 303h105l321 -303h-102l-273 243l-270 -243h-102z" />
<glyph unicode="_" horiz-adv-x="1673" d="M180 -500q0 41 56 41h1183q72 0 72 -41t-57 -41h-1196q-58 0 -58 41z" />
<glyph unicode="`" d="M207 1366h133l307 -264h-84q-20 0 -96 57q-14 12 -260 207z" />
<glyph unicode="a" horiz-adv-x="1007" d="M113 236q0 51 26.5 99t87 96t184.5 78t298 34v86q0 133 -56 196q-59 72 -151 72q-76 0 -147.5 -21.5t-95 -36t-81.5 -48.5l-10 114q166 88 336 88q154 0 240.5 -95t95.5 -212l2 -70v-616h-129v141q-126 -157 -356 -157h-3h-14q-113 0 -170 82t-57 170zM240 240 q0 -74 64.5 -114t146.5 -40q37 0 75.5 9t82.5 29.5t72 66t28 106.5v182q-207 -2 -338 -67.5t-131 -171.5z" />
<glyph unicode="b" horiz-adv-x="1058" d="M164 0v1423h129v-594q127 154 307 154q152 0 256.5 -144.5t104.5 -351.5q0 -213 -118 -358t-282 -145q-158 0 -264 151v-135h-133zM295 268q0 -66 59.5 -124t143.5 -58q55 0 107 18.5t105.5 59.5t86 123t32.5 196q0 119 -31.5 204t-82.5 124t-98.5 54.5t-94.5 15.5 q-109 0 -186 -84q-31 -41 -35 -50.5t-4 -44.5v-405q0 -6 -1 -14.5t-1 -14.5z" />
<glyph unicode="c" horiz-adv-x="956" d="M94 485q0 205 127 356.5t326 151.5q106 0 172.5 -18.5t163.5 -69.5l-21 -112q-61 37 -93 52t-89 28.5t-133 13.5q-145 0 -232.5 -108.5t-87.5 -291.5q2 -195 95.5 -296t220.5 -101q84 0 158.5 26.5t106.5 49t77 61.5l10 -114q-158 -129 -354 -129q-186 0 -316.5 145 t-130.5 356z" />
<glyph unicode="d" horiz-adv-x="1058" d="M94 483q0 217 117 358.5t270 141.5q164 0 281 -143v583h129v-1423h-131v86l-2 64q-113 -166 -291 -166q-158 0 -265.5 148t-107.5 351zM227 483q0 -119 32 -202.5t82 -122.5t97 -55.5t94 -16.5q115 0 191 100q6 10 14 22.5t11.5 17.5t6.5 14.5t4 20.5t1 28v432 q0 59 -62.5 109.5t-146.5 50.5q-33 0 -70 -8.5t-84 -34t-82.5 -66.5t-61.5 -117t-26 -172z" />
<glyph unicode="e" horiz-adv-x="956" d="M86 492q0 201 121 350t301 149q63 0 121.5 -19.5t120 -66.5t99.5 -148.5t38 -244.5h-678v-16q0 -186 100.5 -298t231.5 -112q174 0 331 141l11 -112q-158 -131 -342 -131q-188 0 -321.5 146.5t-133.5 361.5zM219 594h557q-14 156 -93 225.5t-175 69.5q-104 0 -185 -84 t-104 -211z" />
<glyph unicode="f" horiz-adv-x="657" d="M57 864v103h174v131q0 53 2.5 79.5t29 83t79.5 101.5q94 78 233 78q72 0 168 -17v-116q-91 28 -169 28h-5q-82 0 -146.5 -33.5t-64.5 -113.5v-221h256v-103h-252v-864h-131v864h-174z" />
<glyph unicode="g" horiz-adv-x="1058" d="M94 485q0 211 122 354.5t282 143.5q166 0 264 -178v178h129v-965q0 -178 -103.5 -286.5t-261.5 -108.5q-188 0 -379 92v111q61 -31 99.5 -48.5t116 -34.5t159.5 -17q96 0 167 73.5t71 225.5v159l-2 72q-33 -84 -101.5 -152.5t-181.5 -68.5q-154 0 -267.5 130t-113.5 320z M227 485q0 -150 93.5 -249t211.5 -99q63 0 110.5 35t71 93.5t35 118.5t11.5 128h2v135q0 74 -53.5 154t-151.5 80q-131 0 -230.5 -115t-99.5 -281z" />
<glyph unicode="h" horiz-adv-x="1058" d="M164 0v1423h129v-561l2 -88q33 78 107.5 143.5t195.5 65.5q82 0 140.5 -24.5t87 -57.5t45 -86t18.5 -87t2 -83v-645h-131v637q0 37 -1 59.5t-13.5 61.5t-35 62.5t-68.5 42t-112 18.5q-92 0 -162.5 -75t-70.5 -269v-537h-133z" />
<glyph unicode="i" horiz-adv-x="460" d="M164 0v967h129v-967h-129zM164 1292v129h129v-129h-129z" />
<glyph unicode="j" horiz-adv-x="520" d="M-156 -299l29 104q92 -55 176 -55q133 0 170 86q6 16 6 51v1080h131v-1059q0 -137 -96 -213q-68 -53 -164 -53q-127 0 -252 59zM225 1292v129h129v-129h-129z" />
<glyph unicode="k" horiz-adv-x="997" d="M168 0v1423h123v-921l461 465h161l-362 -365l410 -602h-142l-352 516l-178 -178v-338h-121z" />
<glyph unicode="l" horiz-adv-x="460" d="M164 0v1423h129v-1423h-129z" />
<glyph unicode="m" horiz-adv-x="1654" d="M164 0v967h127v-199q33 80 109.5 147.5t199.5 67.5q84 0 142.5 -23.5t87 -64.5t38 -64.5t17.5 -58.5q2 -6 2 -8q37 84 112.5 151.5t198.5 67.5q82 0 140.5 -25.5t87 -57.5t44 -86t17.5 -87t2 -82v-645h-131v637q0 37 -2 59.5t-14.5 61.5t-35 62.5t-68.5 42t-112 18.5 q-111 0 -172 -90.5t-61 -237.5v-553h-133v637q0 37 -1 59.5t-13.5 61.5t-35 62.5t-68.5 42t-112 18.5q-111 0 -173 -90.5t-62 -237.5q0 -4 1 -8t1 -8v-537h-133z" />
<glyph unicode="n" horiz-adv-x="1058" d="M164 0v967h127v-199q39 90 116.5 152.5t190.5 62.5q82 0 140.5 -25.5t87 -58.5t45 -86t18.5 -86t2 -82v-645h-131v637q0 37 -1 59.5t-13.5 61.5t-35 62.5t-68.5 42t-112 18.5q-92 0 -162.5 -75t-70.5 -269v-537h-133z" />
<glyph unicode="o" d="M82 483q0 215 134 361.5t321 146.5q190 0 321 -150.5t131 -357.5q0 -215 -135 -357t-317 -142q-188 0 -321.5 146t-133.5 353zM213 508q0 -127 34 -215t88 -129t103 -57.5t99 -16.5q53 0 105 19.5t103.5 62.5t82 128t30.5 202q0 111 -30.5 190.5t-82 120.5t-103.5 58.5 t-105.5 17.5t-105.5 -17.5t-103.5 -57.5t-83 -118.5t-31.5 -187.5z" />
<glyph unicode="p" horiz-adv-x="1058" d="M164 -342v1309h129v-140q129 156 311 156q150 0 253.5 -144.5t103.5 -351.5q0 -223 -122 -363t-278 -140q-72 0 -136.5 35.5t-80.5 56t-47 59.5v-477h-133zM297 266q0 -63 58.5 -121.5t142.5 -58.5q133 0 232 115.5t99 283.5q0 162 -92 278t-219 116q-106 0 -180 -82 q-31 -39 -36 -50.5t-5 -46.5v-434z" />
<glyph unicode="q" horiz-adv-x="1058" d="M94 481q0 211 119 356.5t283 145.5q57 0 104 -18.5t81 -54.5t47 -53t34 -52v178h129v-1325h-131v428l-2 72q-18 -33 -45 -65t-93.5 -70.5t-144.5 -38.5q-154 0 -267.5 142t-113.5 355zM227 481q0 -166 90.5 -280.5t219.5 -114.5q92 0 158.5 70.5t66.5 148.5v340 q-4 86 -59.5 160t-145.5 74q-127 0 -228.5 -111t-101.5 -287z" />
<glyph unicode="r" horiz-adv-x="708" d="M164 0v967h123v-156l2 -96q16 41 44.5 82t74 85t115 71.5t153.5 29.5v-115q-66 -2 -129.5 -22.5t-122.5 -63.5t-95 -119.5t-36 -179.5v-483h-129z" />
<glyph unicode="s" horiz-adv-x="823" d="M59 80l21 119q172 -109 344 -109q125 0 178 51.5t53 116.5q0 61 -44 100t-97 58q-23 6 -119 23.5t-162.5 48t-113.5 94.5q-47 66 -47 139q0 47 15 89t50 86t107.5 70.5t175.5 26.5h6q156 0 311 -69l-20 -113q-158 80 -311 80q-121 0 -168.5 -48t-47.5 -106q0 -45 33 -85 t96 -58q12 -4 110.5 -23.5t133.5 -31.5q86 -31 148.5 -99.5t62.5 -169.5q0 -111 -79 -198.5t-269.5 -87.5t-366.5 96z" />
<glyph unicode="t" horiz-adv-x="776" d="M39 864v103h197v276h124v-276h318v-103h-318v-581q0 -193 117 -193q25 0 47.5 3t42 10.5t34.5 13.5t30.5 16t24 15.5t19.5 15.5t13 10l27 -100q-145 -90 -312 -90q-170 0 -170 284v596h-194z" />
<glyph unicode="u" horiz-adv-x="1058" d="M164 272v695h133v-717q0 -94 35 -132t153 -38q115 0 195 72.5t80 205.5v609h131v-967h-129v176q-53 -90 -150.5 -141t-210.5 -51q-80 0 -131 25.5t-72.5 74.5t-27.5 89t-6 99z" />
<glyph unicode="v" horiz-adv-x="937" d="M29 967h131l309 -834l309 834h129l-364 -973h-152z" />
<glyph unicode="w" horiz-adv-x="1417" d="M29 967h129q203 -666 243 -834q6 45 84 305l160 529h119q217 -723 248 -834l32 121l216 713h124l-297 -973h-147l-154 510q-82 299 -88 332q-16 -117 -239 -842h-133z" />
<glyph unicode="x" horiz-adv-x="937" d="M0 0l403 498v2l-391 467h148l303 -375l293 375h145l-381 -469l418 -498h-147l-328 424h-2l-316 -424h-145z" />
<glyph unicode="y" horiz-adv-x="937" d="M29 967h133l213 -529q88 -233 104 -305q14 98 299 834h129l-403 -1047q-23 -59 -42.5 -97t-53 -85t-81.5 -71.5t-108 -24.5q-74 0 -160 14l-10 115q94 -25 170 -25q33 0 60.5 14.5t43 26.5t36 53t25.5 55.5t28 71.5q8 23 8 35q0 10 -12 39z" />
<glyph unicode="z" horiz-adv-x="921" d="M59 0v70l621 796h-590v101h768v-68l-618 -797h626v-102h-807z" />
<glyph unicode="{" d="M127 489v103q129 2 229.5 55t112.5 160l2 49v428q0 252 399 252h76v-102h-51q-180 0 -236.5 -38t-56.5 -126v-420q0 -84 -35 -146.5t-89 -93t-92 -44t-75 -19.5l-59 -6q45 -2 96 -15.5t112.5 -43t101.5 -95t40 -156.5v-419q0 -31 2 -45.5t12.5 -39t37 -40t69.5 -25.5 q68 -14 223 -14v-103h-76q-195 0 -291 61.5t-106 149.5q-2 18 -2 56v413q-4 74 -18 107q-35 74 -124 114.5t-202 42.5z" />
<glyph unicode="|" horiz-adv-x="598" d="M256 -395v1870q0 59 41 59t41 -59v-1870q0 -57 -41 -57t-41 57z" />
<glyph unicode="}" d="M127 -352h51q180 0 236.5 38t56.5 126v419q0 266 350 310q-45 2 -95 15t-112.5 43t-102.5 95.5t-40 155.5v420q0 41 -6 63.5t-32.5 49t-90 39t-166.5 12.5h-49v102h76q195 0 291 -62.5t106 -150.5q2 -18 2 -53v-414q4 -76 19 -108q35 -74 124 -114t201 -42v-103 q-129 -2 -229.5 -56t-112.5 -159l-2 -49v-413q0 -33 -3 -56.5t-24.5 -66.5t-60.5 -71t-119 -50.5t-192 -22.5h-76v103z" />
<glyph unicode="~" horiz-adv-x="1314" d="M178 1206q2 102 82 158.5t180 56.5q80 0 218.5 -56t209.5 -56q147 0 162 114h105q-2 -102 -82 -159.5t-181 -57.5q-80 0 -219 56.5t-211 56.5q-29 0 -57.5 -5t-63 -33t-40.5 -75h-103z" />
<glyph unicode="&#xa1;" horiz-adv-x="665" d="M252 -342l14 952l2 107h127l17 -1010v-49h-160zM252 922v159h160v-159h-160z" />
<glyph unicode="&#xa2;" d="M94 483.5q0 186.5 124 334t327 171.5v158h102v-156q164 -2 354 -86l-18 -112q-109 53 -173.5 71.5t-162.5 20.5v-793q106 8 184 39t173 96l10 -114q-172 -117 -367 -127v-156h-102v156q-199 20 -325 165.5t-126 332zM227 485q0 -152 83 -262t235 -131v791 q-145 -18 -231.5 -128t-86.5 -270z" />
<glyph unicode="&#xa3;" horiz-adv-x="1374" d="M119 117q0 74 75.5 121t190.5 47q61 0 137 -21q8 53 8 178v217h-174v105h174v283q0 217 115 330.5t250 113.5q162 0 260 -132t98 -280q0 -63 -59 -73q-18 4 -26.5 7t-19.5 16t-15 38h-11q-4 141 -66.5 230t-162.5 89q-109 0 -172 -88q-59 -82 -59 -264v-270h233v-105 h-233v-278q0 -90 -23 -160q25 -10 76 -33.5t73.5 -34t62.5 -26.5t65.5 -22.5t57.5 -12.5t60 -6q66 0 106 52t42 147h131q-8 -137 -101 -217q-96 -84 -227 -84q-78 0 -150.5 25.5t-254.5 109.5q-117 -135 -281 -135q-78 0 -129 37t-51 96zM246 119q0 -33 55 -33q98 0 172 74 q-90 23 -135 22q-35 0 -57.5 -14t-28.5 -26.5t-6 -22.5z" />
<glyph unicode="&#xa5;" horiz-adv-x="1382" d="M-43 461q0 51 68 51h596v57l-197 275h-387q-80 0 -80 51t63 53h328l-342 475h174l342 -475h357l342 475h155l-342 -475h328q63 -2 63 -53t-71 -51h-396l-196 -275v-57h581q37 0 46 -2q37 -10 36 -49q0 -53 -67 -53q-2 0 -6 1t-6 1h-584v-410h-141v410h-584q-2 0 -5 -1 t-7 -1q-68 0 -68 53zM598 844l102 -144l105 144h-207z" />
<glyph unicode="&#xa7;" horiz-adv-x="956" d="M94 -215l21 117l12 -13q14 -14 19.5 -19t21.5 -19.5t26.5 -21.5t31 -20.5t37 -20.5t41 -16.5t48 -14.5t53 -9t60.5 -4q100 0 155.5 68.5t55.5 150.5q0 47 -19.5 86t-57.5 66.5t-71.5 45t-85 41t-75.5 36.5q-219 121 -220 315q0 176 168 281q-168 117 -168 284 q0 127 93.5 224.5t242.5 97.5q168 0 316 -115l-21 -113q-51 43 -79.5 62.5t-87 40t-128.5 20.5q-102 0 -154.5 -70.5t-52.5 -146.5q0 -49 19.5 -87t57.5 -66.5t72 -46t86 -41t77 -35.5q217 -119 217 -314q0 -178 -168 -282q168 -117 168 -283q0 -127 -93.5 -224t-244.5 -97 q-125 0 -208 37.5t-165 105.5zM274 557q0 -78 59.5 -137.5t113 -81t71.5 -21.5q49 0 103.5 62.5t54.5 146.5q0 80 -60.5 139.5t-119.5 79.5l-62 19q-51 0 -105.5 -63.5t-54.5 -143.5z" />
<glyph unicode="&#xa8;" d="M262 1216v129h129v-129h-129zM680 1216v129h129v-129h-129z" />
<glyph unicode="&#xa9;" horiz-adv-x="2234" d="M119 539q0 213 81 405.5t216 329.5t318.5 217t381.5 80q264 0 493.5 -134t367 -373t137.5 -523q0 -289 -139.5 -527.5t-369 -370.5t-491.5 -132q-197 0 -380 78.5t-318 214t-216 328t-81 407.5zM201 539q0 -262 127 -481.5t335.5 -342.5t450.5 -123q246 0 456 123 t336 342t126 484q0 199 -76 377t-201 301.5t-292 196.5t-345 73q-182 0 -351 -73t-293 -198.5t-198.5 -302.5t-74.5 -376zM567 498q0 221 203 376.5t500 155.5q156 0 311 -49l-25 -141q-49 27 -73.5 39t-85 27.5t-129.5 15.5q-244 0 -400.5 -130t-156.5 -294 q0 -168 156.5 -296t406.5 -128q80 0 139.5 13t88 26.5t93.5 52.5l11 -121q-68 -33 -100.5 -46t-93 -23.5t-142.5 -10.5q-301 0 -502 159t-201 374z" />
<glyph unicode="&#xaa;" horiz-adv-x="956" d="M68 633q0 53 65 53h682q72 0 72 -53q0 -51 -68 -51q-4 0 -8 1t-8 1h-672q-63 2 -63 49zM113 915q0 33 25.5 56.5t45 30t56.5 16.5q147 37 350 37v121q0 115 -35 201.5t-117 86.5q-63 0 -122.5 -24.5t-80 -41t-57.5 -48.5l-10 114q129 96 276 97q119 0 199 -104.5 t80 -274.5v-414h-131v90q-106 -106 -316 -106q-82 0 -122.5 54t-40.5 109zM242 913q14 -59 143 -59q160 0 197 84q8 16 8 55q-309 0 -344 -57l-4 -12v-11z" />
<glyph unicode="&#xab;" horiz-adv-x="1433" d="M238 512l518 512h102l-487 -512l487 -512h-102zM596 512l518 512h103l-488 -512l488 -512h-103z" />
<glyph unicode="&#xac;" horiz-adv-x="1314" d="M121 696q0 41 67 41h949q57 0 57 -61v-400q0 -63 -41 -63t-41 61v381h-932q-59 0 -59 41z" />
<glyph unicode="&#xad;" horiz-adv-x="716" d="M23 432v103h573v-103h-573z" />
<glyph unicode="&#xae;" horiz-adv-x="2234" d="M119 539q0 213 81 405.5t216 329.5t318.5 217t381.5 80q264 0 493.5 -134t367 -373t137.5 -523q0 -289 -139.5 -527.5t-369 -370.5t-491.5 -132q-197 0 -380 78.5t-318 214t-216 328t-81 407.5zM201 539q0 -262 127 -481.5t335.5 -342.5t450.5 -123q246 0 456 123 t336 342t126 484q0 199 -76 377t-201 301.5t-292 196.5t-345 73q-182 0 -351 -73t-293 -198.5t-198.5 -302.5t-74.5 -376zM686 0v995h461q285 0 425 -87t140 -189q0 -27 -12 -55.5t-46 -68.5t-115 -77t-198 -59l433 -459h-144l-416 449l-63 -3h-324v-446h-141zM827 551h314 q139 0 200.5 8t126.5 35q100 41 109 125q-2 23 -6 35t-18.5 34.5t-50.5 41t-93 34.5q-76 23 -235 23h-347v-336z" />
<glyph unicode="&#xaf;" d="M147 1270v110h777v-110h-777z" />
<glyph unicode="&#xb0;" horiz-adv-x="716" d="M119 1184q0 100 69.5 168.5t167.5 68.5q102 0 171 -70.5t69 -164.5q0 -100 -69.5 -170t-168.5 -70q-102 0 -170.5 72t-68.5 166zM201 1184q0 -61 44 -108.5t111 -47.5q63 0 109.5 45t46.5 111q0 61 -44 108t-112 47q-63 0 -109 -44.5t-46 -110.5z" />
<glyph unicode="&#xb1;" horiz-adv-x="1314" d="M121 223q0 20 18 33q12 8 58 8h419v414h-440q-55 0 -55 41t57 41h438v432q0 63 41 63t41 -65v-430h437q57 0 57 -41t-57 -41h-437v-414h443q43 0 51 -35v-12q-4 -33 -53 -35h-959q-59 0 -59 41z" />
<glyph unicode="&#xb4;" d="M424 1102l307 264h133q-311 -246 -327 -256q-14 -8 -35 -8h-78z" />
<glyph unicode="&#xb5;" horiz-adv-x="1058" d="M164 -342v1309h133v-717q0 -94 35 -132t153 -38q115 0 195 72.5t80 205.5v609h131v-967h-129v176q-53 -90 -149.5 -141t-211.5 -51q-49 0 -104 16v-342h-133z" />
<glyph unicode="&#xb6;" horiz-adv-x="1314" d="M119 963q0 184 148.5 322t414.5 138h508q31 0 42 -7t19 -25q2 -20 -9 -34t-44 -16h-123v-1620q0 -61 -41 -61t-41 61v1620h-149v-1603q0 -78 -41 -78t-41 57v783q-147 4 -286.5 47t-248 151.5t-108.5 264.5z" />
<glyph unicode="&#xb7;" horiz-adv-x="528" d="M199 446v129h129v-129h-129z" />
<glyph unicode="&#xb8;" horiz-adv-x="956" d="M268 -334l158 297h102l-141 -297h-119z" />
<glyph unicode="&#xba;" horiz-adv-x="956" d="M68 633q0 53 65 53h682q70 0 70 -53q0 -51 -66 -51q-4 0 -8 1t-8 1h-672q-63 2 -63 49zM82 1149q0 168 113.5 290t281.5 122q160 0 277.5 -118t117.5 -292q0 -164 -114.5 -281.5t-280.5 -117.5q-160 0 -277.5 113.5t-117.5 283.5zM215 1165q0 -92 26.5 -156.5t69.5 -95 t83 -43t83 -12.5t83 12.5t84 42t69.5 95t25.5 159.5q0 156 -78.5 223.5t-183.5 67.5q-106 0 -184 -66.5t-78 -226.5z" />
<glyph unicode="&#xbb;" horiz-adv-x="1433" d="M215 0l490 512l-490 512h102l519 -512l-519 -512h-102zM573 0l490 512l-490 512h103l518 -512l-518 -512h-103z" />
<glyph unicode="&#xbf;" horiz-adv-x="1015" d="M119 -51q0 39 7 72.5t16.5 56t25.5 46t26.5 34t30 29t23.5 22.5q166 168 166 436v72h127q0 -12 1 -36t1 -36q0 -129 -36 -239.5t-71 -160.5t-89 -107.5t-56 -59.5q-39 -49 -39 -133q0 -115 56.5 -158t166.5 -43q199 0 381 115l39 -109q-203 -109 -416 -108 q-106 0 -182 29.5t-113 79.5t-51 98.5t-14 99.5zM397 922v159h160v-159h-160z" />
<glyph unicode="&#xc0;" horiz-adv-x="1382" d="M59 0l553 1440h156l553 -1440h-150l-165 430h-650l-163 -430h-134zM399 539h566l-250 659l-33 92zM399 1741h158q2 0 6 1t6 1q23 0 242 -117q78 -43 129 -70h-127q-16 0 -119.5 46.5t-197.5 93.5z" />
<glyph unicode="&#xc1;" horiz-adv-x="1382" d="M59 0l553 1440h156l553 -1440h-150l-165 430h-650l-163 -430h-134zM399 539h566l-250 659l-33 92zM438 1557l307 162l47 20l31 2h158q-399 -182 -416 -184h-127z" />
<glyph unicode="&#xc2;" horiz-adv-x="1382" d="M59 0l553 1440h156l553 -1440h-150l-165 430h-650l-163 -430h-134zM358 1489l268 348h129l244 -348h-104l-217 266l-215 -266h-105zM399 539h566l-250 659l-33 92z" />
<glyph unicode="&#xc3;" horiz-adv-x="1382" d="M59 0l553 1440h156l553 -1440h-150l-165 430h-650l-163 -430h-134zM332 1489q2 152 57 242t146 90q47 0 89 -36t67.5 -78t65.5 -78t83 -36q18 0 37 6l16 11q18 18 26.5 31.5t17.5 58.5t9 121h103q0 -150 -55.5 -241t-145.5 -91q-49 0 -91 36t-67.5 78t-65.5 77.5 t-85 35.5q-37 0 -59.5 -22.5t-31 -64.5t-10.5 -69.5t-2 -70.5h-104zM399 539h566l-250 659l-33 92z" />
<glyph unicode="&#xc4;" horiz-adv-x="1382" d="M59 0l553 1440h156l553 -1440h-150l-165 430h-650l-163 -430h-134zM399 539h566l-250 659l-33 92zM418 1671v129h129v-129h-129zM836 1671v129h129v-129h-129z" />
<glyph unicode="&#xc5;" horiz-adv-x="1382" d="M59 0l523 1358q-141 74 -142 225q0 96 65.5 170t168.5 78h4q104 0 172 -75t68 -173q0 -25 -4.5 -46t-10.5 -39.5t-14 -34t-18.5 -29t-19.5 -23.5t-19.5 -17.5t-16.5 -12.5t-12 -9l-6 -4l524 -1368h-150l-165 430h-650l-163 -430h-134zM399 539h566l-250 659l-33 92z M559 1587q0 -29 3 -49t13.5 -46t36 -39t66.5 -13q121 0 121 139q0 31 -3 49.5t-12.5 45t-36 41t-67.5 14.5q-121 -1 -121 -142z" />
<glyph unicode="&#xc6;" horiz-adv-x="1826" d="M59 0l607 1423h1040v-110h-688v-518h629v-109h-629v-571h719v-115h-860v461h-488l-194 -461h-136zM436 569h441v744h-123z" />
<glyph unicode="&#xc7;" horiz-adv-x="1374" d="M166 710.5q0 194.5 83 363.5t241.5 275.5t355.5 106.5q195 0 395 -70l-27 -141q-63 35 -99 51.5t-111.5 34t-159.5 17.5q-229 0 -382 -187.5t-153 -449.5q0 -258 151.5 -447.5t385.5 -189.5q104 0 185 21.5t110.5 36.5t111.5 67l11 -119q-74 -41 -115 -60.5t-121 -37 t-182 -17.5q-197 0 -355.5 106.5t-241.5 275.5t-83 363.5zM624 -334l158 297h102l-141 -297h-119z" />
<glyph unicode="&#xc8;" horiz-adv-x="1280" d="M201 0v1419h958v-108h-815v-518h756v-109h-756v-569h846v-115h-989zM305 1741h158q2 0 6 1t6 1q23 0 242 -117q78 -43 129 -70h-127q-16 0 -119.5 46.5t-198.5 93.5z" />
<glyph unicode="&#xc9;" horiz-adv-x="1280" d="M201 0v1419h958v-108h-815v-518h756v-109h-756v-569h846v-115h-989zM434 1557l307 162l47 20l31 2h158q-399 -182 -416 -184h-127z" />
<glyph unicode="&#xca;" horiz-adv-x="1280" d="M201 0v1419h958v-108h-815v-518h756v-109h-756v-569h846v-115h-989zM276 1489l269 348h104l269 -348h-105l-217 266l-215 -266h-105z" />
<glyph unicode="&#xcb;" horiz-adv-x="1280" d="M201 0v1419h958v-108h-815v-518h756v-109h-756v-569h846v-115h-989zM323 1671v129h129v-129h-129zM741 1671v129h129v-129h-129z" />
<glyph unicode="&#xcc;" horiz-adv-x="546" d="M-47 1741h158q2 0 6 1t6 1q18 0 63 -22.5t310 -164.5h-129q-16 0 -120 46.5t-198 93.5zM203 0v1423h143v-1423h-143z" />
<glyph unicode="&#xcd;" horiz-adv-x="546" d="M111 1556q82 43 190 101q119 63 142.5 73.5t48.5 10.5h43q10 0 32.5 1t32.5 1q35 0 53 -2q-399 -182 -415 -185h-127zM201 0v1423h143v-1423h-143z" />
<glyph unicode="&#xce;" horiz-adv-x="546" d="M-47 1489l268 348h105l268 -348h-102l-220 266l-217 -266h-102zM201 0v1423h143v-1423h-143z" />
<glyph unicode="&#xcf;" horiz-adv-x="546" d="M0 1671v129h129v-129h-129zM203 0v1423h143v-1423h-143zM418 1671v129h129v-129h-129z" />
<glyph unicode="&#xd0;" horiz-adv-x="1527" d="M-25 645v105h228v673h520q168 0 303 -66.5t216 -174t124 -231.5t43 -251q0 -283 -174 -476t-414 -220q-35 -4 -106 -4h-512v645h-228zM344 109h344q133 0 237.5 38.5t167 99t103.5 141.5t56.5 157t15.5 155q0 82 -15.5 160t-55.5 162t-103.5 146.5t-168 103.5t-237.5 41 h-344v-563h408v-105h-408v-536z" />
<glyph unicode="&#xd1;" horiz-adv-x="1449" d="M205 0v1423h201l710 -1304v1304h129v-1423h-201l-710 1305v-1305h-129zM367 1489q2 170 63.5 251t136.5 81q49 0 91 -36t68 -78t65.5 -78t85.5 -36q25 0 43 10.5t29.5 33t17.5 40t9 52l4 46t1 46.5h102q-4 -176 -66.5 -254t-137.5 -78q-47 0 -89 36t-68 78t-66 77.5 t-85 35.5q-102 0 -102 -227h-102z" />
<glyph unicode="&#xd2;" horiz-adv-x="1603" d="M119 709q0 315 201.5 531t480.5 216q276 0 479 -216t203 -531.5t-203 -529.5t-479.5 -214t-479 215.5t-202.5 528.5zM262 735q0 -295 160 -478t379 -183q217 0 377.5 180t160.5 481q0 283 -160.5 449t-377.5 166t-378 -165t-161 -450zM510 1741h158q2 0 6 1t6 1 q23 0 242 -117q78 -43 129 -70h-127q-16 0 -120 46.5t-198 93.5z" />
<glyph unicode="&#xd3;" horiz-adv-x="1603" d="M119 709q0 315 201.5 531t480.5 216q276 0 479 -216t203 -531.5t-203 -529.5t-479.5 -214t-479 215.5t-202.5 528.5zM262 735q0 -295 160 -478t379 -183q217 0 377.5 180t160.5 481q0 283 -160.5 449t-377.5 166t-378 -165t-161 -450zM549 1557l307 162l47 20l31 2h158 q-399 -182 -416 -184h-127z" />
<glyph unicode="&#xd4;" horiz-adv-x="1603" d="M119 709q0 315 201.5 531t480.5 216q276 0 479 -216t203 -531.5t-203 -529.5t-479.5 -214t-479 215.5t-202.5 528.5zM262 735q0 -295 160 -478t379 -183q217 0 377.5 180t160.5 481q0 283 -160.5 449t-377.5 166t-378 -165t-161 -450zM481 1489l269 348h104l268 -348 h-104l-217 266l-215 -266h-105z" />
<glyph unicode="&#xd5;" horiz-adv-x="1603" d="M119 709q0 315 201.5 531t480.5 216q276 0 479 -216t203 -531.5t-203 -529.5t-479.5 -214t-479 215.5t-202.5 528.5zM262 735q0 -295 160 -478t379 -183q217 0 377.5 180t160.5 481q0 283 -160.5 449t-377.5 166t-378 -165t-161 -450zM442 1489q2 145 55.5 237.5 t145.5 94.5h2q47 0 89 -36t67.5 -78t65.5 -78t85 -36q25 0 43.5 10.5t29.5 33t17.5 40t9.5 52l4 46t1 46.5h102q-2 -152 -57 -242t-146 -90q-49 0 -91 36t-67.5 78t-64.5 77.5t-84 35.5q-35 0 -56.5 -20.5t-30.5 -57t-12 -67.5t-3 -70v-12h-105z" />
<glyph unicode="&#xd6;" horiz-adv-x="1603" d="M119 709q0 315 201.5 531t480.5 216q276 0 479 -216t203 -531.5t-203 -529.5t-479.5 -214t-479 215.5t-202.5 528.5zM262 735q0 -295 160 -478t379 -183q217 0 377.5 180t160.5 481q0 283 -160.5 449t-377.5 166t-378 -165t-161 -450zM528 1671v129h129v-129h-129z M946 1671v129h129v-129h-129z" />
<glyph unicode="&#xd8;" horiz-adv-x="1673" d="M119 709q0 315 212 531t505 216q195 0 372 -108l129 188l88 -59l-131 -191v-2q127 -106 192.5 -260t65.5 -315q0 -311 -213 -527.5t-503 -216.5q-201 0 -373 109l-129 -189l-88 60l131 192q-109 90 -183.5 240t-74.5 332zM254 711q0 -315 184 -486l711 1039 q-147 90 -313 90q-258 0 -420 -180t-162 -463zM522 158q150 -88 314 -88q252 0 416.5 177t164.5 462q0 295 -184 487z" />
<glyph unicode="&#xd9;" horiz-adv-x="1417" d="M201 506v917h143v-927q0 -266 166 -369q86 -53 201 -53q57 0 111.5 15t118 56t102 130.5t38.5 216.5v931h133v-927q0 -248 -154.5 -389.5t-348.5 -141.5q-188 0 -331.5 123t-172.5 309q-6 37 -6 109zM416 1741h159q2 0 5.5 1t5.5 1q18 0 63 -22.5t309 -164.5h-127 q-16 0 -120.5 46.5t-198.5 93.5z" />
<glyph unicode="&#xda;" horiz-adv-x="1417" d="M201 506v917h143v-927q0 -266 166 -369q86 -53 201 -53q57 0 111.5 15t118 56t102 130.5t38.5 216.5v931h133v-927q0 -248 -154.5 -389.5t-348.5 -141.5q-188 0 -331.5 123t-172.5 309q-6 37 -6 109zM545 1557l307 162l47 20l31 2h158q-399 -182 -416 -184h-127z" />
<glyph unicode="&#xdb;" horiz-adv-x="1417" d="M201 506v917h143v-927q0 -266 166 -369q86 -53 201 -53q57 0 111.5 15t118 56t102 130.5t38.5 216.5v931h133v-927q0 -248 -154.5 -389.5t-348.5 -141.5q-188 0 -331.5 123t-172.5 309q-6 37 -6 109zM389 1489l268 348h101l272 -348h-102l-217 266l-217 -266h-105z" />
<glyph unicode="&#xdc;" horiz-adv-x="1417" d="M201 506v917h143v-927q0 -266 166 -369q86 -53 201 -53q57 0 111.5 15t118 56t102 130.5t38.5 216.5v931h133v-927q0 -248 -154.5 -389.5t-348.5 -141.5q-188 0 -331.5 123t-172.5 309q-6 37 -6 109zM434 1671v129h129v-129h-129zM852 1671v129h129v-129h-129z" />
<glyph unicode="&#xdd;" horiz-adv-x="1382" d="M4 1423h174l520 -723l521 723h155l-614 -854v-569h-142v569zM527 1557l307 162l47 20l31 2h158q-399 -182 -416 -184h-127z" />
<glyph unicode="&#xde;" horiz-adv-x="1228" d="M203 0v1423h137v-256h303q125 -2 211 -39q102 -43 178 -139t76 -221q0 -47 -13.5 -97t-49 -105.5t-87 -98.5t-137.5 -70.5t-190 -27.5h-291v-369h-137zM340 479h235q203 0 300.5 92.5t97.5 196.5q0 115 -111.5 202t-304.5 87h-215l-2 -78v-500z" />
<glyph unicode="&#xdf;" horiz-adv-x="1007" d="M164 0v1151q0 55 12 90q31 90 128 144.5t218 54.5q152 0 257.5 -77t105.5 -185q0 -82 -62.5 -156t-171.5 -115v-2q133 -72 213 -212t80 -302q0 -168 -109.5 -287.5t-279.5 -119.5q-94 0 -201 30l35 99q106 -27 168 -27q117 0 186.5 82t69.5 223q0 190 -106.5 329.5 t-294.5 143.5v103q178 2 260 66.5t82 142.5q0 63 -51.5 111t-184.5 48q-96 0 -152.5 -36.5t-68.5 -92.5q-4 -20 -4 -59v-1147h-129z" />
<glyph unicode="&#xe0;" horiz-adv-x="1007" d="M113 236q0 51 26.5 99t87 96t184.5 78t298 34v86q0 133 -56 196q-59 72 -151 72q-76 0 -147.5 -21.5t-95 -36t-81.5 -48.5l-10 114q166 88 336 88q154 0 240.5 -95t95.5 -212l2 -70v-616h-129v141q-127 -158 -359 -157h-14q-113 0 -170 82t-57 170zM240 240 q0 -74 64.5 -114t146.5 -40q37 0 75.5 9t82.5 29.5t72 66t28 106.5v182q-207 -2 -338 -67.5t-131 -171.5zM328 1366h133l307 -264h-84q-20 0 -96 57q-14 12 -260 207z" />
<glyph unicode="&#xe1;" horiz-adv-x="1007" d="M113 236q0 51 26.5 99t87 96t184.5 78t298 34v86q0 133 -56 196q-59 72 -151 72q-76 0 -147.5 -21.5t-95 -36t-81.5 -48.5l-10 114q166 88 336 88q154 0 240.5 -95t95.5 -212l2 -70v-616h-129v141q-127 -158 -359 -157h-14q-113 0 -170 82t-57 170zM240 240 q0 -74 64.5 -114t146.5 -40q37 0 75.5 9t82.5 29.5t72 66t28 106.5v182q-207 -2 -338 -67.5t-131 -171.5zM305 1102l307 264h133q-311 -246 -327 -256q-14 -8 -35 -8h-78z" />
<glyph unicode="&#xe2;" horiz-adv-x="1007" d="M113 236q0 51 26.5 99t87 96t184.5 78t298 34v86q0 133 -56 196q-59 72 -151 72q-76 0 -147.5 -21.5t-95 -36t-81.5 -48.5l-10 114q166 88 336 88q154 0 240.5 -95t95.5 -212l2 -70v-616h-129v141q-127 -158 -359 -157h-14q-113 0 -170 82t-57 170zM195 1100l266 282h153 l220 -282h-105l-217 217l-215 -217h-102zM240 240q0 -74 64.5 -114t146.5 -40q37 0 75.5 9t82.5 29.5t72 66t28 106.5v182q-207 -2 -338 -67.5t-131 -171.5z" />
<glyph unicode="&#xe3;" horiz-adv-x="1007" d="M113 236q0 51 26.5 99t87 96t184.5 78t298 34v86q0 133 -56 196q-59 72 -151 72q-76 0 -147.5 -21.5t-95 -36t-81.5 -48.5l-10 114q166 88 336 88q154 0 240.5 -95t95.5 -212l2 -70v-616h-129v141q-127 -158 -359 -157h-14q-113 0 -170 82t-57 170zM178 1163 q4 90 62.5 146.5t144.5 56.5h4q53 -2 151.5 -51t145.5 -49q94 0 107 100h102q-4 -96 -66.5 -149.5t-138.5 -53.5q-59 0 -156.5 49.5t-146.5 49.5q-92 0 -104 -99h-105zM240 240q0 -74 64.5 -114t146.5 -40q37 0 75.5 9t82.5 29.5t72 66t28 106.5v182q-207 -2 -338 -67.5 t-131 -171.5z" />
<glyph unicode="&#xe4;" horiz-adv-x="1007" d="M113 236q0 51 26.5 99t87 96t184.5 78t298 34v86q0 133 -56 196q-59 72 -151 72q-76 0 -147.5 -21.5t-95 -36t-81.5 -48.5l-10 114q166 88 336 88q154 0 240.5 -95t95.5 -212l2 -70v-616h-129v141q-127 -158 -359 -157h-14q-113 0 -170 82t-57 170zM227 1216v129h129 v-129h-129zM240 240q0 -74 64.5 -114t146.5 -40q37 0 75.5 9t82.5 29.5t72 66t28 106.5v182q-207 -2 -338 -67.5t-131 -171.5zM645 1216v129h129v-129h-129z" />
<glyph unicode="&#xe5;" horiz-adv-x="1007" d="M113 236q0 51 26.5 99t87 96t184.5 78t298 34v86q0 133 -56 196q-59 72 -151 72q-76 0 -147.5 -21.5t-95 -36t-81.5 -48.5l-10 114q166 88 336 88q154 0 240.5 -95t95.5 -212l2 -70v-616h-129v141q-127 -158 -359 -157h-14q-113 0 -170 82t-57 170zM240 240 q0 -74 64.5 -114t146.5 -40q37 0 75.5 9t82.5 29.5t72 66t28 106.5v182q-207 -2 -338 -67.5t-131 -171.5zM274 1210q0 68 70 117t170 49q109 0 173.5 -52t64.5 -113.5t-67 -114t-173 -52.5q-109 0 -173.5 51.5t-64.5 114.5zM395 1210q0 -49 25.5 -72.5t89.5 -25.5l12 2h15.5 t15.5 1t17 3t15.5 6t15.5 8.5t12.5 11.5t10.5 16t6 21.5t3 26.5q0 102 -115 103q-123 -1 -123 -101z" />
<glyph unicode="&#xe6;" horiz-adv-x="1552" d="M115 238q0 41 15 80.5t57 81.5t105.5 75t171 54.5t245.5 23.5v76q0 2 -1 18.5t-1 19.5t-1 18t-2.5 20.5t-3.5 18.5t-4 20.5t-6 19.5t-9 20.5t-12 18.5t-16 20q-61 74 -151 74q-78 0 -149.5 -22.5t-96.5 -36t-78 -47.5l-10 114q168 88 338 88q195 0 299 -178q2 -4 4 -6 q129 182 328 182q59 0 114.5 -19.5t111.5 -67.5t90 -148.5t34 -243.5h-645q0 -213 103.5 -319.5t223.5 -106.5q170 0 301 141l9 -112q-137 -131 -312 -131q-223 0 -358 190q-113 -190 -471 -190q-115 0 -169 84t-54 170zM242 242q0 -68 60 -112t149 -44q27 0 62.5 6 t86.5 24.5t85 64.5t34 112q0 2 -10 178q-201 -2 -334 -62.5t-133 -166.5zM852 594h522q-25 176 -100 244q-55 51 -137 51q-92 0 -175 -79t-110 -216z" />
<glyph unicode="&#xe7;" horiz-adv-x="956" d="M94 485q0 205 127 356.5t326 151.5q106 0 172.5 -18.5t163.5 -69.5l-21 -112q-6 4 -23.5 14t-23.5 14t-23.5 12.5t-25.5 12.5t-25.5 11t-31 10t-33 8.5t-37.5 6.5t-41 3t-47 2q-154 0 -239 -111.5t-85 -290.5q2 -193 94.5 -294t221.5 -101q84 0 158.5 26.5t106.5 49 t77 61.5l10 -114q-158 -129 -354 -129q-186 0 -316.5 146t-130.5 355zM328 -334l157 297h103l-142 -297h-118z" />
<glyph unicode="&#xe8;" horiz-adv-x="956" d="M86 492q0 201 121 350t301 149q63 0 121.5 -19.5t120 -66.5t99.5 -148.5t38 -244.5h-678v-16q0 -186 100.5 -298t231.5 -112q174 0 331 141l11 -112q-158 -131 -342 -131q-188 0 -321.5 146.5t-133.5 361.5zM219 594h557q-14 156 -93 225.5t-175 69.5q-104 0 -185 -84 t-104 -211zM328 1366h133l307 -264h-84q-20 0 -96 57q-14 12 -260 207z" />
<glyph unicode="&#xe9;" horiz-adv-x="956" d="M86 492q0 201 121 350t301 149q63 0 121.5 -19.5t120 -66.5t99.5 -148.5t38 -244.5h-678v-16q0 -186 100.5 -298t231.5 -112q174 0 331 141l11 -112q-158 -131 -342 -131q-188 0 -321.5 146.5t-133.5 361.5zM219 594h557q-14 156 -93 225.5t-175 69.5q-104 0 -185 -84 t-104 -211zM246 1102l307 264h133q-311 -246 -327 -256q-14 -8 -35 -8h-78z" />
<glyph unicode="&#xea;" horiz-adv-x="956" d="M86 492q0 201 121 350t301 149q63 0 121.5 -19.5t120 -66.5t99.5 -148.5t38 -244.5h-678v-16q0 -186 100.5 -298t231.5 -112q174 0 331 141l11 -112q-158 -131 -342 -131q-188 0 -321.5 146.5t-133.5 361.5zM156 1100l266 282h107l266 -282h-102l-217 217l-218 -217h-102 zM219 594h557q-14 156 -93 225.5t-175 69.5q-104 0 -185 -84t-104 -211z" />
<glyph unicode="&#xeb;" horiz-adv-x="956" d="M86 492q0 201 121 350t301 149q63 0 121.5 -19.5t120 -66.5t99.5 -148.5t38 -244.5h-678v-16q0 -186 100.5 -298t231.5 -112q174 0 331 141l11 -112q-158 -131 -342 -131q-188 0 -321.5 146.5t-133.5 361.5zM203 1216v129h129v-129h-129zM219 594h557q-14 156 -93 225.5 t-175 69.5q-104 0 -185 -84t-104 -211zM621 1216v129h129v-129h-129z" />
<glyph unicode="&#xec;" horiz-adv-x="460" d="M-100 1366h133l307 -264h-84q-20 0 -96 57q-14 12 -260 207zM166 0v967h129v-967h-129z" />
<glyph unicode="&#xed;" horiz-adv-x="460" d="M57 1102l308 264h133q-311 -246 -328 -256q-14 -8 -35 -8h-78zM164 0v967h129v-967h-129z" />
<glyph unicode="&#xee;" horiz-adv-x="460" d="M-90 1100l266 282h107l266 -282h-102l-217 217l-218 -217h-102zM166 0v967h129v-967h-129z" />
<glyph unicode="&#xef;" horiz-adv-x="579" d="M17 1214v129h129v-129h-129zM225 0v967h129v-967h-129zM435 1214v129h129v-129h-129z" />
<glyph unicode="&#xf0;" d="M82 483q0 207 132 357.5t323 150.5q109 0 221 -63q-90 156 -238 268l-162 -90l-57 102l102 58v2q-143 66 -256 78q10 10 23.5 21t21 17.5t15.5 13.5t13 10t10.5 6t10.5 4t11 1q37 0 102.5 -22.5t112.5 -44.5l47 -23l160 94l59 -102l-110 -64q31 -20 65.5 -50.5t92 -97.5 t101.5 -142.5t76.5 -188t32.5 -233.5v-17q0 -92 -8 -137q-29 -164 -150.5 -285.5t-295.5 -121.5q-182 0 -318.5 143t-136.5 356zM215 500q0 -115 30.5 -200t82 -128t103.5 -62.5t106 -19.5q145 0 233 108.5t88 293.5q0 182 -88 289.5t-235 107.5q-53 0 -104.5 -18.5 t-103 -58.5t-82 -120.5t-30.5 -191.5z" />
<glyph unicode="&#xf1;" horiz-adv-x="1058" d="M164 0v967h127v-199q39 90 116.5 152.5t190.5 62.5q82 0 140.5 -25.5t87 -58.5t45 -86t18.5 -86t2 -82v-645h-131v637q0 37 -1 59.5t-13.5 61.5t-35 62.5t-68.5 42t-112 18.5q-92 0 -162.5 -75t-70.5 -269v-537h-133zM170 1163q4 90 63.5 146.5t143.5 56.5 q57 0 154.5 -50t146.5 -50q92 0 104 100h105q-4 -96 -66.5 -149.5t-138.5 -53.5q-59 0 -156.5 49.5t-146.5 49.5q-94 0 -107 -99h-102z" />
<glyph unicode="&#xf2;" d="M82 483q0 215 134 361.5t321 146.5q190 0 321 -150.5t131 -357.5q0 -215 -135 -357t-317 -142q-188 0 -321.5 146t-133.5 353zM213 508q0 -127 34 -215t88 -129t103 -57.5t99 -16.5q53 0 105 19.5t103.5 62.5t82 128t30.5 202q0 111 -30.5 190.5t-82 120.5t-103.5 58.5 t-105.5 17.5t-105.5 -17.5t-103.5 -57.5t-83 -118.5t-31.5 -187.5zM328 1366h133l307 -264h-84q-20 0 -96 57q-14 12 -260 207z" />
<glyph unicode="&#xf3;" d="M82 483q0 215 134 361.5t321 146.5q190 0 321 -150.5t131 -357.5q0 -215 -135 -357t-317 -142q-188 0 -321.5 146t-133.5 353zM213 508q0 -127 34 -215t88 -129t103 -57.5t99 -16.5q53 0 105 19.5t103.5 62.5t82 128t30.5 202q0 111 -30.5 190.5t-82 120.5t-103.5 58.5 t-105.5 17.5t-105.5 -17.5t-103.5 -57.5t-83 -118.5t-31.5 -187.5zM424 1102l307 264h133q-311 -246 -327 -256q-14 -8 -35 -8h-78z" />
<glyph unicode="&#xf4;" d="M82 483q0 215 134 361.5t321 146.5q190 0 321 -150.5t131 -357.5q0 -215 -135 -357t-317 -142q-188 0 -321.5 146t-133.5 353zM213 508q0 -127 34 -215t88 -129t103 -57.5t99 -16.5q53 0 105 19.5t103.5 62.5t82 128t30.5 202q0 111 -30.5 190.5t-82 120.5t-103.5 58.5 t-105.5 17.5t-105.5 -17.5t-103.5 -57.5t-83 -118.5t-31.5 -187.5zM217 1100l266 282h107l266 -282h-102l-217 217l-218 -217h-102z" />
<glyph unicode="&#xf5;" d="M82 483q0 215 134 361.5t321 146.5q190 0 321 -150.5t131 -357.5q0 -215 -135 -357t-317 -142q-188 0 -321.5 146t-133.5 353zM178 1163q4 90 63.5 146.5t143.5 56.5q57 0 154.5 -50t146.5 -50q92 0 105 100h104q-4 -96 -66.5 -149.5t-138.5 -53.5q-59 0 -156.5 49.5 t-146.5 49.5q-94 0 -106 -99h-103zM213 508q0 -127 34 -215t88 -129t103 -57.5t99 -16.5q53 0 105 19.5t103.5 62.5t82 128t30.5 202q0 111 -30.5 190.5t-82 120.5t-103.5 58.5t-105.5 17.5t-105.5 -17.5t-103.5 -57.5t-83 -118.5t-31.5 -187.5z" />
<glyph unicode="&#xf6;" d="M82 483q0 215 134 361.5t321 146.5q190 0 321 -150.5t131 -357.5q0 -215 -135 -357t-317 -142q-188 0 -321.5 146t-133.5 353zM213 508q0 -127 34 -215t88 -129t103 -57.5t99 -16.5q53 0 105 19.5t103.5 62.5t82 128t30.5 202q0 111 -30.5 190.5t-82 120.5t-103.5 58.5 t-105.5 17.5t-105.5 -17.5t-103.5 -57.5t-83 -118.5t-31.5 -187.5zM262 1216v129h129v-129h-129zM680 1216v129h129v-129h-129z" />
<glyph unicode="&#xf7;" horiz-adv-x="1314" d="M121 539q0 43 61 43h953q57 0 57 -41t-55 -41h-961q-55 0 -55 39zM535 160q0 29 11 43t18 15t30 3h121q39 0 50 -14t11 -45v-121q0 -31 -10 -45t-45 -16h-129q-37 2 -46 16t-9 43v98q0 2 -1 10.5t-1 12.5zM537 918v126q0 57 55 58h123q33 0 47 -11.5t14 -46.5v-96 q0 -4 1 -13t1 -13q0 -27 -10 -42.5t-20.5 -17.5t-26.5 -2h-127q-57 1 -57 58z" />
<glyph unicode="&#xf8;" d="M86 483q0 215 134 361.5t317 146.5q106 0 206 -57l136 229h2l88 -51l-142 -240v-2q160 -154 160 -387q0 -207 -131 -353t-319 -146q-94 0 -205 53l-137 -234l-91 54l144 243q-162 143 -162 383zM211 494q0 -121 21.5 -181.5t70.5 -122.5l389 658q-78 41 -155 41 q-53 0 -105.5 -19.5t-105 -60.5t-84 -122.5t-31.5 -192.5zM383 123q86 -37 154 -37q55 0 107 19.5t103.5 60.5t83 122t31.5 191q0 82 -18.5 150.5t-30.5 88t-41 62.5z" />
<glyph unicode="&#xf9;" horiz-adv-x="1058" d="M164 272v695h133v-717q0 -94 35 -132t153 -38q115 0 195 72.5t80 205.5v609h131v-967h-129v176q-53 -90 -150.5 -141t-210.5 -51q-80 0 -131 25.5t-72.5 74.5t-27.5 89t-6 99zM287 1366h133l307 -264h-84q-20 0 -96 57q-14 12 -260 207z" />
<glyph unicode="&#xfa;" horiz-adv-x="1058" d="M164 272v695h133v-717q0 -94 35 -132t153 -38q115 0 195 72.5t80 205.5v609h131v-967h-129v176q-53 -90 -150.5 -141t-210.5 -51q-80 0 -131 25.5t-72.5 74.5t-27.5 89t-6 99zM297 1102l307 264h133q-311 -246 -327 -256q-14 -8 -35 -8h-78z" />
<glyph unicode="&#xfb;" horiz-adv-x="1058" d="M164 272v695h133v-717q0 -94 35 -132t153 -38q115 0 195 72.5t80 205.5v609h131v-967h-129v176q-53 -90 -150.5 -141t-210.5 -51q-80 0 -131 25.5t-72.5 74.5t-27.5 89t-6 99zM209 1100l266 282h107l266 -282h-102l-217 217l-218 -217h-102z" />
<glyph unicode="&#xfc;" horiz-adv-x="1058" d="M164 272v695h133v-717q0 -94 35 -132t153 -38q115 0 195 72.5t80 205.5v609h131v-967h-129v176q-53 -90 -150.5 -141t-210.5 -51q-80 0 -131 25.5t-72.5 74.5t-27.5 89t-6 99zM254 1216v129h129v-129h-129zM672 1216v129h129v-129h-129z" />
<glyph unicode="&#xfd;" horiz-adv-x="937" d="M29 967h133l213 -529q88 -233 104 -305q14 98 299 834h129l-403 -1047q-23 -59 -42.5 -97t-53 -85t-81.5 -71.5t-108 -24.5q-74 0 -160 14l-10 115q94 -25 170 -25q33 0 60.5 14.5t43 26.5t36 53t25.5 55.5t28 71.5q8 23 8 35q0 10 -12 39zM356 1102l307 264h133 q-311 -246 -327 -256q-14 -8 -35 -8h-78z" />
<glyph unicode="&#xfe;" horiz-adv-x="1058" d="M164 -342v1765h129v-596q129 156 311 156q150 0 253.5 -144.5t103.5 -351.5q0 -223 -122 -363t-278 -140q-72 0 -136.5 35.5t-80.5 56t-47 59.5v-477h-133zM297 266q0 -63 58.5 -121.5t142.5 -58.5q133 0 232 115.5t99 283.5q0 162 -92 278t-219 116q-106 0 -180 -82 q-31 -39 -36 -50.5t-5 -46.5v-434z" />
<glyph unicode="&#xff;" horiz-adv-x="937" d="M29 967h133l213 -529q88 -233 104 -305q14 98 299 834h129l-403 -1047q-23 -59 -42.5 -97t-53 -85t-81.5 -71.5t-108 -24.5q-74 0 -160 14l-10 115q94 -25 170 -25q33 0 60.5 14.5t43 26.5t36 53t25.5 55.5t28 71.5q8 23 8 35q0 10 -12 39zM195 1214v129h129v-129h-129z M613 1214v129h129v-129h-129z" />
<glyph unicode="&#x100;" horiz-adv-x="1382" d="M59 0l553 1440h156l553 -1440h-150l-165 430h-650l-163 -430h-134zM273 1680v108h836v-108h-836zM399 539h566l-250 659l-33 92z" />
<glyph unicode="&#x101;" horiz-adv-x="1007" d="M113 236q0 51 26.5 99t87 96t184.5 78t298 34v86q0 133 -56 196q-59 72 -151 72q-76 0 -147.5 -21.5t-95 -36t-81.5 -48.5l-10 114q166 88 336 88q154 0 240.5 -95t95.5 -212l2 -70v-616h-129v141q-127 -158 -359 -157h-14q-113 0 -170 82t-57 170zM114 1143v110h777 v-110h-777zM240 240q0 -74 64.5 -114t146.5 -40q37 0 75.5 9t82.5 29.5t72 66t28 106.5v182q-207 -2 -338 -67.5t-131 -171.5z" />
<glyph unicode="&#x102;" horiz-adv-x="1382" d="M59 0l553 1440h156l553 -1440h-150l-165 430h-650l-163 -430h-134zM330 1821h102q6 -102 80 -160.5t168 -58.5t167 58t79 161h104q-4 -150 -108.5 -241t-241.5 -91t-241.5 91t-108.5 241zM399 539h566l-250 659l-33 92z" />
<glyph unicode="&#x103;" horiz-adv-x="1007" d="M113 236q0 51 26.5 99t87 96t184.5 78t298 34v86q0 133 -56 196q-59 72 -151 72q-76 0 -147.5 -21.5t-95 -36t-81.5 -48.5l-10 114q166 88 336 88q154 0 240.5 -95t95.5 -212l2 -70v-616h-129v141q-127 -158 -359 -157h-14q-113 0 -170 82t-57 170zM186 1366h105 q4 -53 32.5 -91t71.5 -55.5t77 -23.5t65 -6q43 0 91 10t100 53t56 113h103q-4 -135 -109.5 -212t-240.5 -77q-137 0 -242 77t-109 212zM240 240q0 -74 64.5 -114t146.5 -40q37 0 75.5 9t82.5 29.5t72 66t28 106.5v182q-207 -2 -338 -67.5t-131 -171.5z" />
<glyph unicode="&#x104;" horiz-adv-x="1382" d="M59 0l553 1440h156l553 -1440h-6q-29 0 -39 -4t-45 -25q-123 -74 -123 -149q0 -14 2 -23q33 -53 115 -53q57 0 153 31l27 -99q-119 -55 -219 -55q-88 0 -143.5 40t-55.5 106q0 63 55.5 125.5t128.5 105.5l-165 430h-650l-163 -430h-134zM399 539h566l-250 659l-33 92z " />
<glyph unicode="&#x105;" horiz-adv-x="1007" d="M113 236q0 51 26.5 99t87 96t184.5 78t298 34v86q0 133 -56 196q-59 72 -151 72q-76 0 -147.5 -21.5t-95 -36t-81.5 -48.5l-10 114q166 88 336 88q154 0 240.5 -95t95.5 -212l2 -70v-616h-33l-8 -4q-8 -4 -17.5 -10t-22.5 -14.5t-26.5 -17.5t-27 -20.5t-25.5 -23.5 t-21.5 -25.5t-14.5 -29t-5 -29.5q0 -33 28.5 -55.5t90.5 -22.5q76 0 160 29l26 -99q-123 -55 -219 -55q-88 0 -143.5 41t-55.5 104.5t54.5 126t130.5 105.5v141q-127 -158 -361 -157h-14q-113 0 -169 82t-56 170zM240 240q0 -68 60 -111t149 -43q92 0 176 49t84 162v182 q-207 -2 -338 -67.5t-131 -171.5z" />
<glyph unicode="&#x106;" horiz-adv-x="1374" d="M166 710.5q0 194.5 83 363.5t241.5 275.5t355.5 106.5q195 0 395 -70l-27 -141q-63 35 -99 51.5t-111.5 34t-159.5 17.5q-229 0 -382 -187.5t-153 -449.5q0 -258 151.5 -447.5t385.5 -189.5q104 0 185 21.5t110.5 36.5t111.5 67l11 -119q-74 -41 -115 -60.5t-121 -37 t-182 -17.5q-197 0 -355.5 106.5t-241.5 275.5t-83 363.5zM522 1557l307 162l47 20l31 2h158q-399 -182 -416 -184h-127z" />
<glyph unicode="&#x107;" horiz-adv-x="956" d="M94 485q0 205 127 356.5t326 151.5q106 0 172.5 -18.5t163.5 -69.5l-21 -112q-61 37 -93 52t-89 28.5t-133 13.5q-145 0 -232.5 -108.5t-87.5 -291.5q2 -195 95.5 -296t220.5 -101q84 0 158.5 26.5t106.5 49t77 61.5l10 -114q-158 -129 -354 -129q-186 0 -316.5 145 t-130.5 356zM336 1102l307 264h133q-311 -246 -327 -256q-14 -8 -35 -8h-78z" />
<glyph unicode="&#x108;" horiz-adv-x="1374" d="M166 710.5q0 194.5 83 363.5t241.5 275.5t355.5 106.5q195 0 395 -70l-27 -141q-63 35 -99 51.5t-111.5 34t-159.5 17.5q-229 0 -382 -187.5t-153 -449.5q0 -258 151.5 -447.5t385.5 -189.5q104 0 185 21.5t110.5 36.5t111.5 67l11 -119q-74 -41 -115 -60.5t-121 -37 t-182 -17.5q-197 0 -355.5 106.5t-241.5 275.5t-83 363.5zM526 1489l268 348h129l244 -348h-104l-217 266l-215 -266h-105z" />
<glyph unicode="&#x109;" horiz-adv-x="956" d="M94 485q0 205 127 356.5t326 151.5q106 0 172.5 -18.5t163.5 -69.5l-21 -112q-61 37 -93 52t-89 28.5t-133 13.5q-145 0 -232.5 -108.5t-87.5 -291.5q2 -195 95.5 -296t220.5 -101q84 0 158.5 26.5t106.5 49t77 61.5l10 -114q-158 -129 -354 -129q-186 0 -316.5 145 t-130.5 356zM227 1100l266 282h107l266 -282h-102l-217 217l-218 -217h-102z" />
<glyph unicode="&#x10a;" horiz-adv-x="1374" d="M166 710.5q0 194.5 83 363.5t241.5 275.5t355.5 106.5q195 0 395 -70l-27 -141q-63 35 -99 51.5t-111.5 34t-159.5 17.5q-229 0 -382 -187.5t-153 -449.5q0 -258 151.5 -447.5t385.5 -189.5q104 0 185 21.5t110.5 36.5t111.5 67l11 -119q-74 -41 -115 -60.5t-121 -37 t-182 -17.5q-197 0 -355.5 106.5t-241.5 275.5t-83 363.5zM766 1561v160h160v-160h-160z" />
<glyph unicode="&#x10b;" horiz-adv-x="956" d="M94 485q0 205 127 356.5t326 151.5q106 0 172.5 -18.5t163.5 -69.5l-21 -112q-61 37 -93 52t-89 28.5t-133 13.5q-145 0 -232.5 -108.5t-87.5 -291.5q2 -195 95.5 -296t220.5 -101q84 0 158.5 26.5t106.5 49t77 61.5l10 -114q-158 -129 -354 -129q-186 0 -316.5 145 t-130.5 356zM467 1264v160h160v-160h-160z" />
<glyph unicode="&#x10c;" horiz-adv-x="1374" d="M166 710.5q0 194.5 83 363.5t241.5 275.5t355.5 106.5q195 0 395 -70l-27 -141q-63 35 -99 51.5t-111.5 34t-159.5 17.5q-229 0 -382 -187.5t-153 -449.5q0 -258 151.5 -447.5t385.5 -189.5q104 0 185 21.5t110.5 36.5t111.5 67l11 -119q-74 -41 -115 -60.5t-121 -37 t-182 -17.5q-197 0 -355.5 106.5t-241.5 275.5t-83 363.5zM522 1821h105l209 -246l209 246h102l-254 -332h-115z" />
<glyph unicode="&#x10d;" horiz-adv-x="956" d="M94 485q0 205 127 356.5t326 151.5q106 0 172.5 -18.5t163.5 -69.5l-21 -112q-61 37 -93 52t-89 28.5t-133 13.5q-145 0 -232.5 -108.5t-87.5 -291.5q2 -195 95.5 -296t220.5 -101q84 0 158.5 26.5t106.5 49t77 61.5l10 -114q-158 -129 -354 -129q-186 0 -316.5 145 t-130.5 356zM233 1366h105l201 -201l198 201h105l-252 -268h-105z" />
<glyph unicode="&#x10e;" horiz-adv-x="1527" d="M201 0v1423h520q168 0 303 -66.5t216 -174t124 -231.5t43 -251q0 -281 -174 -475t-414 -221q-35 -4 -106 -4h-512zM291 1821h105l209 -246l209 246h102l-254 -332h-115zM342 109h344q133 0 237.5 38.5t168 99t103.5 141.5t55.5 157t15.5 155q0 82 -15.5 160t-55.5 162 t-103.5 146.5t-168 103.5t-237.5 41h-344v-1204z" />
<glyph unicode="&#x10f;" horiz-adv-x="1314" d="M94 483q0 217 117 358.5t270 141.5q164 0 281 -143v583h129v-1423h-131v86l-2 64q-113 -166 -291 -166q-158 0 -265.5 148t-107.5 351zM227 483q0 -119 32 -202.5t82 -122.5t97 -55.5t94 -16.5q115 0 191 100q6 10 14 22.5t11.5 17.5t6.5 14.5t4 20.5t1 28v432 q0 59 -62.5 109.5t-146.5 50.5q-33 0 -70 -8.5t-84 -34t-82.5 -66.5t-61.5 -117t-26 -172zM1010 1190l49 151h-49v162h159v-133q-2 -20 -6 -35.5t-11 -27t-25.5 -46t-36.5 -71.5h-80z" />
<glyph unicode="&#x110;" horiz-adv-x="1527" d="M-25 645v105h228v673h520q168 0 303 -66.5t216 -174t124 -231.5t43 -251q0 -283 -174 -476t-414 -220q-35 -4 -106 -4h-512v645h-228zM344 109h344q133 0 237.5 38.5t167 99t103.5 141.5t56.5 157t15.5 155q0 82 -15.5 160t-55.5 162t-103.5 146.5t-168 103.5t-237.5 41 h-344v-563h408v-105h-408v-536z" />
<glyph unicode="&#x111;" horiz-adv-x="1058" d="M94 483q0 217 117 358.5t270 141.5q164 0 281 -143v303h-402v104h402v176h129v-176h233v-104h-233v-1143h-131v86l-2 64q-113 -166 -291 -166q-158 0 -265.5 148t-107.5 351zM227 483q0 -119 32 -202.5t82 -122.5t97 -55.5t94 -16.5q115 0 191 100q6 10 14 22.5 t11.5 17.5t6.5 14.5t4 20.5t1 28v432q0 59 -62.5 109.5t-146.5 50.5q-33 0 -70 -8.5t-84 -34t-82.5 -66.5t-61.5 -117t-26 -172z" />
<glyph unicode="&#x112;" horiz-adv-x="1280" d="M201 0v1419h958v-108h-815v-518h756v-109h-756v-569h846v-115h-989zM279 1680v108h836v-108h-836z" />
<glyph unicode="&#x113;" horiz-adv-x="956" d="M86 492q0 201 121 350t301 149q63 0 121.5 -19.5t120 -66.5t99.5 -148.5t38 -244.5h-678v-16q0 -186 100.5 -298t231.5 -112q174 0 331 141l11 -112q-158 -131 -342 -131q-188 0 -321.5 146.5t-133.5 361.5zM118 1143v110h777v-110h-777zM219 594h557q-14 156 -93 225.5 t-175 69.5q-104 0 -185 -84t-104 -211z" />
<glyph unicode="&#x116;" horiz-adv-x="1280" d="M201 0v1419h958v-108h-815v-518h756v-109h-756v-569h846v-115h-989zM617 1561v160h160v-160h-160z" />
<glyph unicode="&#x117;" horiz-adv-x="956" d="M86 492q0 201 121 350t301 149q63 0 121.5 -19.5t120 -66.5t99.5 -148.5t38 -244.5h-678v-16q0 -186 100.5 -298t231.5 -112q174 0 331 141l11 -112q-158 -131 -342 -131q-188 0 -321.5 146.5t-133.5 361.5zM219 594h557q-14 156 -93 225.5t-175 69.5q-104 0 -185 -84 t-104 -211zM428 1264v160h160v-160h-160z" />
<glyph unicode="&#x118;" horiz-adv-x="1280" d="M201 0v1419h958v-108h-815v-518h756v-109h-756v-569h846v-115h-121q-59 0 -132 -63.5t-73 -114.5q0 -29 27 -52.5t90 -23.5q61 0 154 31l28 -99q-119 -55 -219 -55q-88 0 -143.5 41t-55.5 105q0 115 183 231h-727z" />
<glyph unicode="&#x119;" horiz-adv-x="956" d="M86 489q0 211 125 356.5t297 145.5q66 0 125 -20.5t119.5 -68.5t97.5 -148.5t37 -241.5h-678v-16q0 -186 100.5 -298t231.5 -112q176 0 331 141l11 -112q-53 -43 -150.5 -104.5t-140.5 -102.5t-43 -88q0 -29 27.5 -51.5t91.5 -22.5q66 0 157 31l27 -99q-123 -55 -217 -55 q-88 0 -144.5 41t-56.5 105q0 109 162 219q-41 -4 -59 -4q-180 0 -315.5 144t-135.5 361zM219 594h557q-14 156 -93 225.5t-175 69.5q-104 0 -185 -84t-104 -211z" />
<glyph unicode="&#x11a;" horiz-adv-x="1280" d="M201 0v1419h958v-108h-815v-518h756v-109h-756v-569h846v-115h-989zM334 1821h105l209 -246l209 246h102l-254 -332h-115z" />
<glyph unicode="&#x11b;" horiz-adv-x="956" d="M86 492q0 201 121 350t301 149q63 0 121.5 -19.5t120 -66.5t99.5 -148.5t38 -244.5h-678v-16q0 -186 100.5 -298t231.5 -112q174 0 331 141l11 -112q-158 -131 -342 -131q-188 0 -321.5 146.5t-133.5 361.5zM202 1366h105l201 -201l198 201h105l-252 -268h-105zM219 594 h557q-14 156 -93 225.5t-175 69.5q-104 0 -185 -84t-104 -211z" />
<glyph unicode="&#x11c;" horiz-adv-x="1433" d="M166 711q0 195 83 363.5t240.5 275t354.5 106.5h4q211 0 422 -98l-25 -141q-61 41 -99 62t-121 45t-177 24q-236 0 -387.5 -188.5t-151.5 -448.5q0 -266 154.5 -451.5t376.5 -185.5q133 0 315 55v434h-321v109h454v-606q-223 -100 -446 -101q-285 0 -480.5 218.5 t-195.5 527.5zM524 1489l268 348h129l244 -348h-104l-217 266l-215 -266h-105z" />
<glyph unicode="&#x11d;" horiz-adv-x="1058" d="M94 485q0 211 122 354.5t282 143.5q166 0 264 -178v178h129v-965q0 -178 -103.5 -286.5t-261.5 -108.5q-188 0 -379 92v111q61 -31 99.5 -48.5t116 -34.5t159.5 -17q96 0 167 73.5t71 225.5v159l-2 72q-33 -84 -101.5 -152.5t-181.5 -68.5q-154 0 -267.5 130t-113.5 320z M172 1100l266 282h107l266 -282h-102l-217 217l-218 -217h-102zM227 485q0 -150 93.5 -249t211.5 -99q63 0 110.5 35t71 93.5t35 118.5t11.5 128h2v135q0 74 -53.5 154t-151.5 80q-131 0 -230.5 -115t-99.5 -281z" />
<glyph unicode="&#x11e;" horiz-adv-x="1433" d="M166 711q0 195 83 363.5t240.5 275t354.5 106.5h4q211 0 422 -98l-25 -141q-61 41 -99 62t-121 45t-177 24q-236 0 -387.5 -188.5t-151.5 -448.5q0 -266 154.5 -451.5t376.5 -185.5q133 0 315 55v434h-321v109h454v-606q-223 -100 -446 -101q-285 0 -480.5 218.5 t-195.5 527.5zM483 1821h105q6 -104 80.5 -161.5t167.5 -57.5q94 0 166.5 58t78.5 161h103q-4 -150 -107.5 -241t-242.5 -91q-137 0 -242 91t-109 241z" />
<glyph unicode="&#x11f;" horiz-adv-x="1058" d="M94 485q0 211 122 354.5t282 143.5q166 0 264 -178v178h129v-965q0 -178 -103.5 -286.5t-261.5 -108.5q-188 0 -379 92v111q61 -31 99.5 -48.5t116 -34.5t159.5 -17q96 0 167 73.5t71 225.5v159l-2 72q-33 -84 -101.5 -152.5t-181.5 -68.5q-154 0 -267.5 130t-113.5 320z M211 1423h104q6 -100 80 -156.5t166 -56.5q98 0 170 57.5t78 155.5h104q-4 -147 -109.5 -236t-242.5 -89q-139 0 -242.5 90t-107.5 235zM227 485q0 -150 93.5 -249t211.5 -99q63 0 110.5 35t71 93.5t35 118.5t11.5 128h2v135q0 74 -53.5 154t-151.5 80q-131 0 -230.5 -115 t-99.5 -281z" />
<glyph unicode="&#x120;" horiz-adv-x="1433" d="M166 711q0 195 83 363.5t240.5 275t354.5 106.5h4q211 0 422 -98l-25 -141q-61 41 -99 62t-121 45t-177 24q-236 0 -387.5 -188.5t-151.5 -448.5q0 -266 154.5 -451.5t376.5 -185.5q133 0 315 55v434h-321v109h454v-606q-223 -100 -446 -101q-285 0 -480.5 218.5 t-195.5 527.5zM764 1561v160h160v-160h-160z" />
<glyph unicode="&#x121;" horiz-adv-x="1058" d="M94 485q0 211 122 354.5t282 143.5q166 0 264 -178v178h129v-965q0 -178 -103.5 -286.5t-261.5 -108.5q-188 0 -379 92v111q61 -31 99.5 -48.5t116 -34.5t159.5 -17q96 0 167 73.5t71 225.5v159l-2 72q-33 -84 -101.5 -152.5t-181.5 -68.5q-154 0 -267.5 130t-113.5 320z M227 485q0 -150 93.5 -249t211.5 -99q63 0 110.5 35t71 93.5t35 118.5t11.5 128h2v135q0 74 -53.5 154t-151.5 80q-131 0 -230.5 -115t-99.5 -281zM412 1264v160h160v-160h-160z" />
<glyph unicode="&#x124;" horiz-adv-x="1449" d="M201 0v1423h143v-628h760v628h143v-1423h-143v686h-760v-686h-143zM405 1489l268 348h129l244 -348h-104l-217 266l-215 -266h-105z" />
<glyph unicode="&#x125;" horiz-adv-x="1058" d="M164 0v1423h129v-561l2 -88q33 78 107.5 143.5t195.5 65.5q82 0 140.5 -24.5t87 -57.5t45 -86t18.5 -87t2 -83v-645h-131v637q0 37 -1 59.5t-13.5 61.5t-35 62.5t-68.5 42t-112 18.5q-92 0 -162.5 -75t-70.5 -269v-537h-133zM209 1532l266 282h107l266 -282h-102 l-217 217l-218 -217h-102z" />
<glyph unicode="&#x127;" horiz-adv-x="1185" d="M53 1092v104h238v227h131v-227h301v-104h-301v-318q33 76 108.5 142.5t196.5 66.5q82 0 140.5 -24.5t87 -57.5t45 -86t18.5 -87t2 -83v-645h-133v637q0 37 -1 59.5t-13.5 61.5t-35 62.5t-68.5 42t-112 18.5q-92 0 -162.5 -75t-70.5 -269v-537h-133v1092h-238z" />
<glyph unicode="&#x12a;" horiz-adv-x="546" d="M-117 1559v110h777v-110h-777zM201 0v1423h143v-1423h-143z" />
<glyph unicode="&#x12b;" horiz-adv-x="460" d="M-160 1143v110h777v-110h-777zM164 0v967h129v-967h-129z" />
<glyph unicode="&#x130;" horiz-adv-x="546" d="M192 1602v160h160v-160h-160zM201 0v1423h143v-1423h-143z" />
<glyph unicode="&#x131;" horiz-adv-x="460" d="M164 0v967h129v-967h-129z" />
<glyph unicode="&#x134;" horiz-adv-x="989" d="M88 51l23 129q152 -109 290 -108q84 0 144.5 22.5t88.5 50t43 70.5t16 61.5t1 45.5v1101h142v-1106q0 -82 -22.5 -144t-59.5 -101t-87.5 -63.5t-101.5 -34t-108 -9.5q-181 0 -369 86zM446 1489l268 348h129l244 -348h-104l-217 266l-215 -266h-105z" />
<glyph unicode="&#x135;" horiz-adv-x="520" d="M-156 -299l37 104q90 -55 172 -55q55 0 102.5 22.5t63.5 63.5q6 16 6 51v1080h131v-1059q0 -137 -96 -213q-68 -53 -164 -53q-127 0 -252 59zM-29 1100l266 282h107l266 -282h-102l-217 217l-218 -217h-102z" />
<glyph unicode="&#x139;" horiz-adv-x="1161" d="M39 1556q82 43 190 101q119 63 142.5 73.5t48.5 10.5h43q12 0 32.5 1t32.5 1q35 0 54 -2q-399 -182 -416 -185h-127zM201 0v1423h143v-1314h727v-109h-870z" />
<glyph unicode="&#x13a;" horiz-adv-x="460" d="M68 1556q82 43 190 101q119 63 142.5 73.5t48.5 10.5h43q12 0 32.5 1t32.5 1q35 0 53 -2q-397 -182 -415 -185h-127zM164 0v1423h129v-1423h-129z" />
<glyph unicode="&#x13d;" horiz-adv-x="1161" d="M201 0v1423h143v-1314h727v-109h-870zM764 1270l49 153h-49v160h160v-133q-2 -20 -6.5 -35.5t-11.5 -27t-25.5 -46t-36.5 -71.5h-80z" />
<glyph unicode="&#x13e;" horiz-adv-x="718" d="M164 0v1423h129v-1423h-129zM412 1190l49 151h-49v162h161v-133q-2 -18 -7 -33.5t-12 -29t-25.5 -47t-36.5 -70.5h-80z" />
<glyph unicode="&#x141;" horiz-adv-x="1339" d="M164 571l215 179v673h143v-553l289 244l70 -84l-359 -301v-620h725v-109h-868v608l-146 -121z" />
<glyph unicode="&#x142;" horiz-adv-x="643" d="M49 582l205 172v669h129v-561l164 137l65 -77l-229 -195v-727h-129v618l-139 -116z" />
<glyph unicode="&#x143;" horiz-adv-x="1449" d="M205 0v1423h201l710 -1304v1304h129v-1423h-201l-710 1305v-1305h-129zM473 1557l307 162l47 20l31 2h158q-399 -182 -416 -184h-127z" />
<glyph unicode="&#x144;" horiz-adv-x="1058" d="M164 0v967h127v-199q39 90 116.5 152.5t190.5 62.5q82 0 140.5 -25.5t87 -58.5t45 -86t18.5 -86t2 -82v-645h-131v637q0 37 -1 59.5t-13.5 61.5t-35 62.5t-68.5 42t-112 18.5q-92 0 -162.5 -75t-70.5 -269v-537h-133zM356 1102l307 264h133q-311 -246 -327 -256 q-14 -8 -35 -8h-78z" />
<glyph unicode="&#x147;" horiz-adv-x="1449" d="M205 0v1423h201l710 -1304v1304h129v-1423h-201l-710 1305v-1305h-129zM411 1821h105l209 -246l209 246h102l-254 -332h-115z" />
<glyph unicode="&#x148;" horiz-adv-x="1058" d="M141 1366h105l201 -201l198 201h105l-252 -268h-105zM164 0v967h127v-199q39 90 116.5 152.5t190.5 62.5q82 0 140.5 -25.5t87 -58.5t45 -86t18.5 -86t2 -82v-645h-131v637q0 37 -1 59.5t-13.5 61.5t-35 62.5t-68.5 42t-112 18.5q-92 0 -162.5 -75t-70.5 -269v-537h-133z " />
<glyph unicode="&#x150;" horiz-adv-x="1603" d="M119 709q0 315 201.5 531t480.5 216q276 0 479 -216t203 -531.5t-203 -529.5t-479.5 -214t-479 215.5t-202.5 528.5zM262 735q0 -295 160 -478t379 -183q217 0 377.5 180t160.5 481q0 283 -160.5 449t-377.5 166t-378 -165t-161 -450zM459 1557l307 162l47 20l31 2h158 q-399 -182 -416 -184h-127zM817 1557l307 162l47 20l31 2h158q-399 -182 -416 -184h-127z" />
<glyph unicode="&#x151;" d="M82 483q0 215 134 361.5t321 146.5q190 0 321 -150.5t131 -357.5q0 -215 -135 -357t-317 -142q-188 0 -321.5 146t-133.5 353zM213 508q0 -127 34 -215t88 -129t103 -57.5t99 -16.5q53 0 105 19.5t103.5 62.5t82 128t30.5 202q0 111 -30.5 190.5t-82 120.5t-103.5 58.5 t-105.5 17.5t-105.5 -17.5t-103.5 -57.5t-83 -118.5t-31.5 -187.5zM246 1102l307 264h133q-311 -246 -327 -256q-14 -8 -35 -8h-78zM604 1102l307 264h133q-311 -246 -327 -256q-14 -8 -35 -8h-78z" />
<glyph unicode="&#x152;" horiz-adv-x="2064" d="M33 709q0 319 214 533t496 214q57 0 144.5 -16.5t263.5 -16.5h793v-110h-814v-518h754v-109h-754v-571h844v-115h-817q-166 0 -259 -17.5t-153 -17.5q-285 0 -498.5 214.5t-213.5 529.5zM174 737q0 -276 169 -471.5t411 -195.5q68 0 111.5 15t68 40t37 75t15.5 96t3 130 v551q0 225 -43 301t-178 76q-141 0 -257 -54.5t-187.5 -143.5t-110.5 -196.5t-39 -222.5z" />
<glyph unicode="&#x153;" horiz-adv-x="1673" d="M82 487q0 211 130 357.5t308 146.5q129 0 225.5 -69.5t147.5 -163.5h2q47 92 142.5 162.5t217.5 70.5q47 0 91.5 -11t93.5 -43t85 -83t59.5 -139t23.5 -203h-647q0 -213 103 -319.5t224 -106.5q160 0 301 141l10 -112q-102 -90 -200 -117q-53 -14 -113 -14 q-246 0 -391 239q-76 -135 -179.5 -187t-195.5 -52q-176 0 -307 145t-131 358zM209 500q0 -221 96 -317.5t215 -96.5q51 0 101.5 19.5t99.5 62.5t78.5 129t29.5 203q0 111 -29.5 191.5t-79.5 121.5t-99.5 58.5t-100.5 17.5q-119 0 -215 -90t-96 -299zM971 594h524 q-6 43 -10 62.5t-21.5 72.5t-40 81t-66.5 53.5t-102 25.5q-94 0 -176.5 -81t-107.5 -214z" />
<glyph unicode="&#x154;" horiz-adv-x="1374" d="M201 0v1423h471q154 0 271.5 -37.5t181 -98t95 -124t31.5 -125.5q0 -102 -69.5 -184t-154.5 -123t-171 -55l457 -676h-144l-442 659h-385v-659h-141zM342 764h324q229 0 344 78q109 74 108 196q0 98 -86 179t-280 94q-29 2 -88 2h-322v-549zM391 1556l309 162l43 21l33 2 h158q-57 -27 -150 -70q-246 -115 -268 -115h-125z" />
<glyph unicode="&#x155;" horiz-adv-x="708" d="M164 0v967h123v-156l2 -96q16 41 44.5 82t74 85t115 71.5t153.5 29.5v-115q-66 -2 -129.5 -22.5t-122.5 -63.5t-95 -119.5t-36 -179.5v-483h-129zM176 1102l307 264h133q-311 -246 -327 -256q-14 -8 -35 -8h-78z" />
<glyph unicode="&#x158;" horiz-adv-x="1374" d="M201 0v1423h471q154 0 271.5 -37.5t181 -98t95 -124t31.5 -125.5q0 -102 -69.5 -184t-154.5 -123t-171 -55l457 -676h-144l-442 659h-385v-659h-141zM331 1821h105l209 -246l209 246h102l-254 -332h-115zM342 764h324q229 0 344 78q109 74 108 196q0 98 -86 179t-280 94 q-29 2 -88 2h-322v-549z" />
<glyph unicode="&#x159;" horiz-adv-x="708" d="M147 1366h105l201 -201l198 201h105l-252 -268h-105zM164 0v967h123v-156l2 -96q16 41 44.5 82t74 85t115 71.5t153.5 29.5v-115q-66 -2 -129.5 -22.5t-122.5 -63.5t-95 -119.5t-36 -179.5v-483h-129z" />
<glyph unicode="&#x15a;" horiz-adv-x="1193" d="M94 109l25 141q227 -168 471 -168q160 0 256 88t96 199q0 80 -52 150.5t-147 107.5q-47 18 -177 43.5t-227 70.5t-161 138q-61 86 -61 190q0 150 133 268.5t352 118.5q203 0 393 -98l-24 -141q-59 41 -92 60t-111 42.5t-166 23.5q-158 0 -256 -76.5t-98 -181.5 q0 -72 50 -134t142 -97q37 -12 171 -43t169 -45q147 -55 220 -162.5t73 -220.5q0 -166 -137 -292t-348 -126q-258 1 -494 144zM314 1557l307 162l47 20l31 2h158q-399 -182 -416 -184h-127z" />
<glyph unicode="&#x15b;" horiz-adv-x="823" d="M59 80l21 119q172 -109 344 -109q231 0 231 166q0 61 -43 101t-92 54.5t-127 30t-104 23.5q-92 29 -154.5 96.5t-62.5 161.5q0 270 350 270q156 0 315 -69l-20 -113q-154 80 -316 80q-211 0 -211 -152q0 -102 129 -145q12 -4 110.5 -23.5t133.5 -31.5q80 -29 145.5 -95.5 t65.5 -175.5q0 -285 -346 -284q-193 0 -369 96zM252 1102l307 264h133q-311 -246 -327 -256q-14 -8 -35 -8h-78z" />
<glyph unicode="&#x15c;" horiz-adv-x="1193" d="M94 109l25 141q227 -168 471 -168q160 0 256 88t96 199q0 80 -52 150.5t-147 107.5q-47 18 -177 43.5t-227 70.5t-161 138q-61 86 -61 190q0 150 133 268.5t352 118.5q203 0 393 -98l-24 -141q-59 41 -92 60t-111 42.5t-166 23.5q-158 0 -256 -76.5t-98 -181.5 q0 -72 50 -134t142 -97q37 -12 171 -43t169 -45q147 -55 220 -162.5t73 -220.5q0 -166 -137 -292t-348 -126q-258 1 -494 144zM283 1489l268 348h129l244 -348h-104l-217 266l-215 -266h-105z" />
<glyph unicode="&#x15d;" horiz-adv-x="823" d="M59 80l21 119q172 -109 344 -109q125 0 178 51.5t53 116.5q0 61 -44 100t-97 58q-23 6 -119 23.5t-162.5 48t-113.5 94.5q-47 66 -47 139q0 47 15 89t50 86t107.5 70.5t175.5 26.5h6q156 0 311 -69l-20 -113q-158 80 -311 80q-121 0 -168.5 -48t-47.5 -106q0 -45 33 -85 t96 -58q12 -4 110.5 -23.5t133.5 -31.5q86 -31 148.5 -99.5t62.5 -169.5q0 -111 -79 -198.5t-269.5 -87.5t-366.5 96zM98 1100l266 282h107l266 -282h-102l-217 217l-218 -217h-102z" />
<glyph unicode="&#x15e;" horiz-adv-x="1193" d="M94 109l25 141q227 -168 471 -168q160 0 256 88t96 199q0 80 -52 150.5t-147 107.5q-47 18 -177 43.5t-227 70.5t-161 138q-61 86 -61 190q0 156 136 271.5t349 115.5q203 0 393 -98l-24 -141q-59 41 -92 60t-111 42.5t-166 23.5q-158 0 -256 -76.5t-98 -181.5 q0 -72 50 -134t142 -97q33 -12 170.5 -44t169.5 -44q147 -55 220 -162.5t73 -220.5q0 -168 -137 -293t-348 -125q-258 1 -494 144zM387 -334l158 297h102l-141 -297h-119z" />
<glyph unicode="&#x15f;" horiz-adv-x="823" d="M59 80l21 119q172 -109 344 -109q231 0 231 166q0 61 -43 101t-92 54.5t-127 30t-104 23.5q-92 29 -154.5 95.5t-62.5 162.5q0 270 350 270q156 0 315 -69l-20 -113q-154 80 -316 80q-211 0 -211 -152q0 -102 129 -145q12 -4 110.5 -23.5t133.5 -31.5q80 -29 145.5 -95.5 t65.5 -175.5q0 -285 -346 -284q-193 0 -369 96zM215 -334l158 297h102l-141 -297h-119z" />
<glyph unicode="&#x160;" horiz-adv-x="1193" d="M94 109l25 141q227 -168 471 -168q160 0 256 88t96 199q0 80 -52 150.5t-147 107.5q-47 18 -177 43.5t-227 70.5t-161 138q-61 86 -61 190q0 150 133 268.5t352 118.5q203 0 393 -98l-24 -141q-59 41 -92 60t-111 42.5t-166 23.5q-158 0 -256 -76.5t-98 -181.5 q0 -72 50 -134t142 -97q37 -12 171 -43t169 -45q147 -55 220 -162.5t73 -220.5q0 -166 -137 -292t-348 -126q-258 1 -494 144zM282 1821h105l209 -246l209 246h102l-254 -332h-115z" />
<glyph unicode="&#x161;" horiz-adv-x="823" d="M59 80l21 119q172 -109 344 -109q231 0 231 166q0 137 -225 178l-37 8q-37 6 -43 8.5t-38.5 10.5t-44 13t-38 17.5t-42 23.5t-35 28.5t-33.5 38.5q-47 59 -47 141q0 270 350 270q156 0 315 -69l-20 -113q-154 80 -316 80q-211 0 -211 -154q0 -104 129 -143 q12 -4 111.5 -24.5t134.5 -32.5q86 -33 147.5 -101.5t61.5 -169.5q0 -283 -346 -282q-193 0 -369 96zM100 1366h105l201 -201l198 201h105l-252 -268h-105z" />
<glyph unicode="&#x162;" horiz-adv-x="1484" d="M76 1309v108h1329v-108h-592v-1309h-143v1309h-594zM532 -334l158 297h102l-141 -297h-119z" />
<glyph unicode="&#x163;" horiz-adv-x="776" d="M39 864v103h197v276h124v-276h318v-103h-318v-590q0 -184 117 -184q113 0 211 84l27 -100q-150 -90 -314 -90q-57 0 -94 25.5t-51 73.5t-18.5 86t-4.5 93v602h-194zM260 -334l158 297h102l-141 -297h-119z" />
<glyph unicode="&#x164;" horiz-adv-x="1484" d="M76 1309v108h1329v-108h-592v-1309h-143v1309h-594zM428 1821h105l209 -246l209 246h102l-254 -332h-115z" />
<glyph unicode="&#x165;" horiz-adv-x="776" d="M39 864v103h197v276h124v-276h318v-103h-318v-590q0 -184 117 -184q113 0 211 84l27 -100q-150 -90 -314 -90q-57 0 -94 25.5t-51 74.5t-18.5 86t-4.5 92v602h-194zM598 1092l49 151h-49v160h160v-131q-2 -20 -6 -35.5t-11.5 -27t-26 -46.5t-36.5 -71h-80z" />
<glyph unicode="&#x16a;" horiz-adv-x="1417" d="M201 506v917h143v-927q0 -266 166 -369q86 -53 201 -53q57 0 111.5 15t118 56t102 130.5t38.5 216.5v931h133v-927q0 -248 -154.5 -389.5t-348.5 -141.5q-188 0 -331.5 123t-172.5 309q-6 37 -6 109zM291 1680v108h836v-108h-836z" />
<glyph unicode="&#x16b;" horiz-adv-x="1058" d="M139 1143v110h777v-110h-777zM164 272v695h133v-717q0 -94 35 -132t153 -38q115 0 195 72.5t80 205.5v609h131v-967h-129v176q-53 -90 -150.5 -141t-210.5 -51q-80 0 -131 25.5t-72.5 74.5t-27.5 89t-6 99z" />
<glyph unicode="&#x16c;" horiz-adv-x="1417" d="M201 506v917h143v-927q0 -266 166 -369q86 -53 201 -53q57 0 111.5 15t118 56t102 130.5t38.5 216.5v931h133v-927q0 -248 -154.5 -389.5t-348.5 -141.5q-188 0 -331.5 123t-172.5 309q-6 37 -6 109zM358 1821h105q6 -104 79.5 -161.5t168.5 -57.5q84 0 161.5 55 t83.5 164h103q-2 -150 -107.5 -241t-244.5 -91q-135 0 -241 92.5t-108 239.5z" />
<glyph unicode="&#x16d;" horiz-adv-x="1058" d="M164 272v695h133v-717q0 -94 35 -132t153 -38q115 0 195 72.5t80 205.5v609h131v-967h-129v176q-53 -90 -150.5 -141t-210.5 -51q-80 0 -131 25.5t-72.5 74.5t-27.5 89t-6 99zM178 1366h103q4 -70 56 -113t100.5 -53t91.5 -10q31 0 64.5 6t76.5 23.5t71.5 55.5t32.5 91 h105q-4 -135 -109.5 -212t-240.5 -77q-133 0 -240 78t-111 211z" />
<glyph unicode="&#x16e;" horiz-adv-x="1417" d="M201 506v917h143v-927q0 -266 166 -369q86 -53 201 -53q57 0 111.5 15t118 56t102 130.5t38.5 216.5v931h133v-927q0 -248 -154.5 -389.5t-348.5 -141.5q-188 0 -331.5 123t-172.5 309q-6 37 -6 109zM471 1610q0 88 68.5 154.5t171.5 66.5q94 0 166.5 -61.5t72.5 -159.5 q0 -88 -68.5 -156t-170.5 -68q-104 0 -172 68t-68 156zM590 1608q0 -57 25.5 -88t91.5 -31q70 0 96 29.5t26 91.5q0 57 -25.5 88t-90.5 31q-68 0 -95.5 -27.5t-27.5 -93.5z" />
<glyph unicode="&#x16f;" horiz-adv-x="1058" d="M164 272v695h133v-717q0 -94 35 -132t153 -38q115 0 195 72.5t80 205.5v609h131v-967h-129v176q-53 -90 -150.5 -141t-210.5 -51q-80 0 -131 25.5t-72.5 74.5t-27.5 89t-6 99zM289 1210q0 63 66.5 114.5t172.5 51.5q109 0 173.5 -52t64.5 -113.5t-65.5 -114t-174 -52.5 t-173 52.5t-64.5 113.5zM409 1210q0 -55 30 -75.5t85 -22.5h14.5t17.5 1t17.5 2t18.5 4t16 8.5t16.5 12.5t11.5 16t8 22.5t3 29.5q0 55 -29.5 77t-85.5 24q-25 0 -38 -2t-36.5 -9.5t-36 -30t-12.5 -57.5z" />
<glyph unicode="&#x170;" horiz-adv-x="1417" d="M201 506v917h143v-927q0 -266 166 -369q86 -53 201 -53q57 0 111.5 15t118 56t102 130.5t38.5 216.5v931h133v-927q0 -248 -154.5 -389.5t-348.5 -141.5q-188 0 -331.5 123t-172.5 309q-6 37 -6 109zM367 1557l307 162l47 20l31 2h158q-399 -182 -416 -184h-127z M725 1557l307 162l47 20l31 2h158q-399 -182 -416 -184h-127z" />
<glyph unicode="&#x171;" horiz-adv-x="1058" d="M164 272v695h133v-717q0 -94 35 -132t153 -38q115 0 195 72.5t80 205.5v609h131v-967h-129v176q-53 -90 -150.5 -141t-210.5 -51q-80 0 -131 25.5t-72.5 74.5t-27.5 89t-6 99zM238 1102l307 264h133q-311 -246 -327 -256q-14 -8 -35 -8h-78zM594 1102l307 264h133 q-311 -246 -327 -256q-14 -8 -35 -8h-78z" />
<glyph unicode="&#x178;" horiz-adv-x="1382" d="M4 1423h174l520 -723l521 723h155l-614 -854v-569h-142v569zM416 1671v129h129v-129h-129zM834 1671v129h129v-129h-129z" />
<glyph unicode="&#x179;" horiz-adv-x="1314" d="M119 0v74l882 1243h-851v106h1044v-71l-883 -1243h895v-109h-1087zM434 1557l307 162l47 20l31 2h158q-399 -182 -416 -184h-127z" />
<glyph unicode="&#x17a;" horiz-adv-x="921" d="M59 0v70l621 796h-590v101h768v-68l-618 -797h626v-102h-807zM305 1102l307 264h133q-311 -246 -327 -256q-14 -8 -35 -8h-78z" />
<glyph unicode="&#x17b;" horiz-adv-x="1314" d="M119 0v74l882 1243h-851v106h1044v-71l-883 -1243h895v-109h-1087zM637 1602v160h160v-160h-160z" />
<glyph unicode="&#x17c;" horiz-adv-x="921" d="M59 0v70l621 796h-590v101h768v-68l-618 -797h626v-102h-807zM428 1264v160h160v-160h-160z" />
<glyph unicode="&#x17d;" horiz-adv-x="1314" d="M119 0v74l882 1243h-851v106h1044v-71l-883 -1243h895v-109h-1087zM350 1821h105l209 -246l209 246h102l-254 -332h-115z" />
<glyph unicode="&#x17e;" horiz-adv-x="921" d="M59 0v70l621 796h-590v101h768v-68l-618 -797h626v-102h-807zM170 1366h105l201 -201l198 201h105l-252 -268h-105z" />
<glyph unicode="&#x192;" horiz-adv-x="1331" d="M37 -299l57 104q74 -55 160 -55q57 0 111.5 24.5t76.5 67.5q8 14 17 52l205 970h-177l25 103h172q6 29 14.5 64.5t12.5 52t9 38t7 30.5t5 20.5t6 19.5t7.5 15t8.5 18q39 74 132 144.5t240 70.5q37 0 168 -17l-24 -116q-82 29 -168 28q-162 0 -225 -96q-12 -18 -66 -272 h258l-25 -103h-249l-193 -899q-4 -12 -8 -37.5t-8 -41t-11.5 -36t-17.5 -36.5q-27 -57 -102.5 -114.5t-180.5 -57.5q-124 0 -237 59z" />
<glyph unicode="&#x218;" horiz-adv-x="1193" d="M94 109l25 141q227 -168 471 -168q160 0 256 88t96 199q0 80 -52 150.5t-147 107.5q-47 18 -177 43.5t-227 70.5t-161 138q-61 86 -61 190q0 150 133 268.5t352 118.5q203 0 393 -98l-24 -141q-59 41 -92 60t-111 42.5t-166 23.5q-158 0 -256 -76.5t-98 -181.5 q0 -72 50 -134t142 -97q37 -12 171 -43t169 -45q147 -55 220 -162.5t73 -220.5q0 -166 -137 -292t-348 -126q-258 1 -494 144zM527 -137h112v-72l-2 -41l-55 -157h-55l35 157h-35v113z" />
<glyph unicode="&#x219;" horiz-adv-x="823" d="M59 80l21 119q172 -109 344 -109q125 0 178 51.5t53 116.5q0 61 -44 100t-97 58q-23 6 -119 23.5t-162.5 48t-113.5 94.5q-47 66 -47 139q0 47 15 89t50 86t107.5 70.5t175.5 26.5h6q156 0 311 -69l-20 -113q-158 80 -311 80q-121 0 -168.5 -48t-47.5 -106q0 -45 33 -85 t96 -58q12 -4 110.5 -23.5t133.5 -31.5q86 -31 148.5 -99.5t62.5 -169.5q0 -111 -79 -198.5t-269.5 -87.5t-366.5 96zM361 -119h112v-72l-2 -41l-55 -157h-55l35 157h-35v113z" />
<glyph unicode="&#x21a;" horiz-adv-x="1484" d="M76 1309v108h1329v-108h-592v-1309h-143v1309h-594zM684 -102h112v-72l-2 -41l-55 -157h-55l35 157h-35v113z" />
<glyph unicode="&#x21b;" horiz-adv-x="776" d="M39 864v103h197v276h124v-276h318v-103h-318v-581q0 -193 117 -193q25 0 47.5 3t42 10.5t34.5 13.5t30.5 16t24 15.5t19.5 15.5t13 10l27 -100q-145 -90 -312 -90q-170 0 -170 284v596h-194zM322 -119h112v-72l-2 -41l-55 -157h-55l35 157h-35v113z" />
<glyph unicode="&#x2c6;" d="M217 1100l266 282h107l266 -282h-102l-217 217l-218 -217h-102z" />
<glyph unicode="&#x2c7;" d="M233 1366h105l201 -201l198 201h105l-252 -268h-105z" />
<glyph unicode="&#x2d8;" d="M186 1366h103q4 -70 56 -113t100.5 -53t91.5 -10q31 0 64.5 6t76.5 23.5t71.5 55.5t32.5 91h105q-4 -135 -109.5 -212t-240.5 -77q-133 0 -240 78t-111 211z" />
<glyph unicode="&#x2d9;" horiz-adv-x="598" d="M248 1264v160h160v-160h-160z" />
<glyph unicode="&#x2da;" horiz-adv-x="1382" d="M451 1210q0 63 66.5 114.5t172.5 51.5q109 0 173.5 -52t64.5 -113.5t-65.5 -114t-174 -52.5t-173 52.5t-64.5 113.5zM571 1210q0 -55 30 -75.5t85 -22.5h14.5t17.5 1t17.5 2t18.5 4t16 8.5t16.5 12.5t11.5 16t8 22.5t3 29.5q0 55 -29.5 77t-85.5 24q-25 0 -38 -2 t-36.5 -9.5t-36 -30t-12.5 -57.5z" />
<glyph unicode="&#x2db;" horiz-adv-x="598" d="M-37 -233q0 70 56.5 121t152.5 103t139 89q39 -61 47 -80q-39 -33 -100 -63.5t-76 -38.5q-80 -49 -80 -105q0 -12 2 -18q23 -47 84 -47q90 0 164 114l86 -59q-39 -72 -107.5 -126t-156.5 -54q-92 0 -151.5 49t-59.5 115z" />
<glyph unicode="&#x2dc;" d="M178 1096q4 94 65.5 148t141.5 54q57 0 154.5 -49t146.5 -49q96 0 107 100h102q-4 -94 -65.5 -149t-143.5 -55q-53 2 -152.5 51t-146.5 49q-94 0 -106 -100h-103z" />
<glyph unicode="&#x2dd;" d="M246 1102l307 264h133q-311 -246 -327 -256q-14 -8 -35 -8h-78zM604 1102l307 264h133q-311 -246 -327 -256q-14 -8 -35 -8h-78z" />
<glyph unicode="&#x374;" horiz-adv-x="417" d="M53 1059l168 364h131l-196 -364h-103z" />
<glyph unicode="&#x375;" horiz-adv-x="417" d="M82 -365l197 365h102l-166 -365h-133z" />
<glyph unicode="&#x37a;" horiz-adv-x="239" d="M51 -131h133v-260q0 -84 -65 -84q-68 0 -68 82v262z" />
<glyph unicode="&#x37e;" horiz-adv-x="598" d="M217 0v160h162v-101l-2 -59l-78 -227h-82l49 227h-49zM217 807v160h160v-160h-160z" />
<glyph unicode="&#x384;" horiz-adv-x="358" d="M6 1059l168 364h131l-196 -364h-103z" />
<glyph unicode="&#x385;" horiz-adv-x="598" d="M47 1075v121h121v-121h-121zM186 1059l168 364h131l-196 -364h-103zM426 1075v121h121v-121h-121z" />
<glyph unicode="&#x386;" horiz-adv-x="1382" d="M6 1059l168 364h131l-196 -364h-103zM59 0l553 1440h156l553 -1440h-150l-165 430h-650l-163 -430h-134zM399 539h566l-250 659l-33 92z" />
<glyph unicode="&#x387;" horiz-adv-x="598" d="M217 807v160h160v-160h-160z" />
<glyph unicode="&#x388;" horiz-adv-x="1638" d="M6 1059l168 364h131l-196 -364h-103zM559 0v1419h958v-108h-815v-518h756v-109h-756v-569h846v-115h-989z" />
<glyph unicode="&#x389;" horiz-adv-x="1808" d="M6 1059l168 364h131l-196 -364h-103zM559 0v1423h143v-628h760v628h143v-1423h-143v686h-760v-686h-143z" />
<glyph unicode="&#x38a;" horiz-adv-x="905" d="M6 1059l168 364h131l-196 -364h-103zM559 0v1423h143v-1423h-143z" />
<glyph unicode="&#x38c;" horiz-adv-x="1781" d="M6 1059l168 364h131l-196 -364h-103zM297 709q0 315 201.5 531t480.5 216q276 0 479 -216t203 -531.5t-203 -529.5t-479.5 -214t-479 215.5t-202.5 528.5zM440 735q0 -295 160 -478t379 -183q217 0 377.5 180t160.5 481q0 283 -160.5 449t-377.5 166t-378 -165t-161 -450 z" />
<glyph unicode="&#x38e;" horiz-adv-x="2031" d="M6 1059l168 364h131l-196 -364h-103zM477 1137q4 141 101 230t229 89q88 0 157.5 -43t108.5 -100.5t67.5 -136t38.5 -129t15 -97.5q4 47 14 97.5t39 129t67.5 136t108.5 100.5t158 43q131 0 228 -89t101 -230h-133q-2 41 -12 78.5t-57 82.5t-125 52q-33 -2 -44.5 -3 t-55.5 -17.5t-69.5 -42t-58 -81t-53.5 -133.5q-37 -143 -37 -411v-662h-143v659q0 102 -5 184.5t-21.5 175.5t-46 157.5t-81 111.5t-123.5 58l-41 4q-59 -6 -101 -32t-60.5 -62.5t-24.5 -64.5t-8 -54h-133z" />
<glyph unicode="&#x38f;" horiz-adv-x="1730" d="M6 1059l168 364h131l-196 -364h-103zM272 0v115h391q-29 104 -93 222t-123.5 201t-105.5 193.5t-46 214.5q0 215 193.5 362.5t465.5 147.5q266 0 461 -146.5t195 -363.5q0 -133 -73 -269t-168 -285.5t-128 -276.5h391v-115h-508q2 98 37 199.5t85 189.5t100.5 176 t85 186.5t34.5 192.5q0 178 -146.5 294t-365.5 116q-223 0 -369.5 -116t-146.5 -294q0 -92 35 -191.5t85 -186.5t100 -176t85 -190.5t37 -199.5h-508z" />
<glyph unicode="&#x390;" horiz-adv-x="567" d="M-78 1075v121h121v-121h-121zM61 1059l168 364h131l-196 -364h-103zM90 250v719h131l2 -2v-670q0 -6 -1 -20.5t-1 -20.5q0 -94 35 -130t72 -36q39 0 70.5 40t33.5 126h92q-6 -141 -72.5 -206.5t-144.5 -65.5q-90 0 -153.5 72.5t-63.5 193.5zM301 1075v121h121v-121h-121z " />
<glyph unicode="&#x391;" horiz-adv-x="1382" d="M59 0l553 1440h156l553 -1440h-150l-165 430h-650l-163 -430h-134zM399 539h566l-250 659l-33 92z" />
<glyph unicode="&#x392;" horiz-adv-x="1406" d="M203 0v1423h459q150 0 265 -35.5t176.5 -92t92.5 -116t31 -114.5q0 -33 -12.5 -67.5t-46 -85t-114.5 -95.5t-200 -74q178 -25 305 -123t127 -235q0 -147 -135 -254.5t-326 -126.5q-37 -4 -108 -4h-514zM340 109h328q244 0 363.5 87t119.5 191q0 45 -26.5 93t-82 96.5 t-160 80t-239.5 31.5h-301l-2 -80v-499zM340 791h264q139 6 210 20t157 68q125 78 125 182q0 92 -122 172t-366 80h-266l-2 -74v-448z" />
<glyph unicode="&#x393;" horiz-adv-x="1161" d="M201 0v1419h870v-108h-727v-1311h-143z" />
<glyph unicode="&#x394;" horiz-adv-x="1792" d="M88 0l725 1440h162l725 -1440h-1612zM295 135h1175l-585 1165h-2z" />
<glyph unicode="&#x395;" horiz-adv-x="1280" d="M201 0v1419h958v-108h-815v-518h756v-109h-756v-569h846v-115h-989z" />
<glyph unicode="&#x396;" horiz-adv-x="1314" d="M119 0v74l882 1243h-851v106h1044v-71l-883 -1243h895v-109h-1087z" />
<glyph unicode="&#x397;" horiz-adv-x="1449" d="M201 0v1423h143v-628h760v628h143v-1423h-143v686h-760v-686h-143z" />
<glyph unicode="&#x398;" horiz-adv-x="1673" d="M119 709q0 315 212 531t504.5 216t504.5 -217t212 -530q0 -315 -212 -529.5t-504 -214.5q-289 0 -503 215.5t-214 528.5zM256 709q0 -266 162 -451.5t418 -185.5q246 0 412.5 180t166.5 457q0 274 -165 459.5t-414 185.5q-242 0 -411 -182t-169 -463zM377 645v135h917 v-135h-917z" />
<glyph unicode="&#x399;" horiz-adv-x="546" d="M201 0v1423h143v-1423h-143z" />
<glyph unicode="&#x39a;" horiz-adv-x="1441" d="M205 0v1423h135v-798l815 798h166l-573 -563l604 -860h-156l-541 768l-315 -309v-459h-135z" />
<glyph unicode="&#x39b;" horiz-adv-x="1263" d="M59 0l494 1440h156l493 -1440h-151l-244 711q-145 436 -186 579l-21 -73l-117 -357l-293 -860h-131z" />
<glyph unicode="&#x39c;" horiz-adv-x="1808" d="M207 0v1423h188l414 -1015l94 -242l29 82l475 1175h190v-1423h-129v1290l-159 -409l-346 -846h-123l-430 1059l-74 196v-1290h-129z" />
<glyph unicode="&#x39d;" horiz-adv-x="1449" d="M205 0v1423h201l710 -1304v1304h129v-1423h-201l-710 1305v-1305h-129z" />
<glyph unicode="&#x39e;" horiz-adv-x="1433" d="M88 0v121h1253v-121h-1253zM100 1296v121h1229v-121h-1229zM238 676v121h954v-121h-954z" />
<glyph unicode="&#x39f;" horiz-adv-x="1603" d="M119 709q0 315 201.5 531t480.5 216q276 0 479 -216t203 -531.5t-203 -529.5t-479.5 -214t-479 215.5t-202.5 528.5zM262 735q0 -295 160 -478t379 -183q217 0 377.5 180t160.5 481q0 283 -160.5 449t-377.5 166t-378 -165t-161 -450z" />
<glyph unicode="&#x3a0;" horiz-adv-x="1449" d="M201 0v1419h1046v-1419h-143v1311h-760v-1311h-143z" />
<glyph unicode="&#x3a1;" horiz-adv-x="1347" d="M201 0v1423h487q188 0 322 -73q102 -57 159.5 -147.5t57.5 -190.5q0 -66 -30 -133.5t-89 -131t-168 -103.5t-248 -40h-348v-604h-143zM342 711h324q127 0 217 28.5t132 77.5t59.5 95t17.5 100q0 51 -17.5 98t-60.5 96t-132 78t-216 29h-324v-602z" />
<glyph unicode="&#x3a3;" horiz-adv-x="1552" d="M119 0l489 696l-489 617v110h1313v-110h-1129l475 -600l-416 -598h1070v-115h-1313z" />
<glyph unicode="&#x3a4;" horiz-adv-x="1484" d="M76 1309v108h1329v-108h-592v-1309h-143v1309h-594z" />
<glyph unicode="&#x3a5;" horiz-adv-x="1673" d="M119 1137q4 141 101 230t229 89q88 0 157.5 -43t108.5 -100.5t67.5 -136t38.5 -129t15 -97.5q4 47 14 97.5t39 129t67.5 136t108.5 100.5t158 43q131 0 228 -89t101 -230h-133q-2 41 -12 78.5t-57 82.5t-125 52q-33 -2 -44.5 -3t-55.5 -17.5t-69.5 -42t-58 -81 t-53.5 -133.5q-37 -143 -37 -411v-662h-143v659q0 102 -5 184.5t-21.5 175.5t-46 157.5t-81 111.5t-123.5 58l-41 4q-59 -6 -101 -32t-60.5 -62.5t-24.5 -64.5t-8 -54h-133z" />
<glyph unicode="&#x3a6;" horiz-adv-x="1552" d="M119 711q0 195 169 335t417 160v217h137v-217q242 -16 416 -159.5t174 -335.5q0 -195 -172.5 -337.5t-417.5 -158.5v-215h-137v215q-266 23 -426 170.5t-160 325.5zM260 713q0 -158 117 -266.5t328 -127.5v785q-125 -10 -217.5 -53t-139.5 -102.5t-67.5 -118 t-20.5 -117.5zM842 319q193 10 320.5 116t127.5 276q0 168 -126 274.5t-320 118.5l-2 -103v-682z" />
<glyph unicode="&#x3a7;" horiz-adv-x="1382" d="M29 0l571 752l-541 671h174l441 -563l422 563h164l-512 -673l602 -750h-174l-502 651l-479 -651h-166z" />
<glyph unicode="&#x3a8;" horiz-adv-x="1673" d="M119 1143v104h112q41 0 67 -5t58.5 -39t49.5 -97q14 -49 17 -151.5t11 -192.5t35 -184.5t100.5 -163t194.5 -92.5v1101h137v-1101q336 66 344 520v12q4 209 33 285q35 96 117 106q16 2 51 2h106v-104q-55 -4 -92 -36t-52 -87t-21.5 -104.5t-8.5 -116t-6 -92.5 q-4 -29 -8 -52.5t-19.5 -74t-35 -90t-56 -89t-83 -84t-116 -63.5t-153.5 -37v-217h-137v217q-471 55 -475 651v19q-16 246 -170 256z" />
<glyph unicode="&#x3a9;" horiz-adv-x="1552" d="M94 0v115h391q-29 104 -93 222t-123.5 201t-105.5 193.5t-46 214.5q0 215 193.5 362.5t465.5 147.5q266 0 461 -146.5t195 -363.5q0 -133 -73 -269t-168 -285.5t-128 -276.5h391v-115h-508q2 98 37 199.5t85 189.5t100.5 176t85 186.5t34.5 192.5q0 178 -146.5 294 t-365.5 116q-223 0 -369.5 -116t-146.5 -294q0 -92 35 -191.5t85 -186.5t100 -176t85 -190.5t37 -199.5h-508z" />
<glyph unicode="&#x3aa;" horiz-adv-x="546" d="M53 1520v160h160v-160h-160zM199 0v1423h143v-1423h-143zM330 1520v160h160v-160h-160z" />
<glyph unicode="&#x3ab;" horiz-adv-x="1673" d="M119 1137q4 141 101 230t229 89q88 0 157.5 -43t108.5 -100.5t67.5 -136t38.5 -129t15 -97.5q4 47 14 97.5t39 129t67.5 136t108.5 100.5t158 43q131 0 228 -89t101 -230h-133q-2 41 -12 78.5t-57 82.5t-125 52q-33 -2 -44.5 -3t-55.5 -17.5t-69.5 -42t-58 -81 t-53.5 -133.5q-37 -143 -37 -411v-662h-143v659q0 102 -5 184.5t-21.5 175.5t-46 157.5t-81 111.5t-123.5 58l-41 4q-59 -6 -101 -32t-60.5 -62.5t-24.5 -64.5t-8 -54h-133zM604 1520v160h160v-160h-160zM907 1520v160h160v-160h-160z" />
<glyph unicode="&#x3ac;" horiz-adv-x="1361" d="M88 483q0 209 117 354.5t282 145.5q66 0 123.5 -29.5t96 -70.5t73.5 -105.5t53.5 -114t38.5 -112.5l60 156l92 276h133q-121 -381 -219 -590q-12 -27 -2 -55q76 -225 158 -225q16 0 26 9t12.5 17t2.5 13h133q-4 -80 -56.5 -124t-117.5 -44q-43 0 -83 19.5t-62.5 37.5 t-50.5 62t-34 57.5t-26 56.5q-152 -233 -349 -233q-164 0 -282.5 145t-118.5 354zM221 471q2 -104 27.5 -180t68.5 -113t84 -52t84 -15q127 0 250 172q47 76 47 88q0 14 -18 82q-20 72 -28.5 100.5t-30 88.5t-40 89t-45 63.5t-60.5 49t-75 14.5q-45 0 -86 -16.5t-82 -51 t-66.5 -104.5t-29.5 -166v-49zM526 1059l168 364h131l-196 -364h-103z" />
<glyph unicode="&#x3ad;" horiz-adv-x="925" d="M88 291q0 158 182 225q-88 53 -118 100q-33 51 -33 113q0 113 99 183.5t245 70.5q211 0 342 -131l-92 -92h-2q-109 92 -248 92q-92 0 -153.5 -41t-61.5 -104q0 -143 317 -144v-102h-16q-68 0 -111 -3t-101 -15.5t-88 -45t-30 -84.5q0 -74 65.5 -136t184.5 -62 q31 0 59.5 3t49 8t42 13t35 14.5t28.5 15.5t22.5 14t17.5 14.5t12 9.5l92 -92q-139 -131 -360 -131q-160 0 -269.5 89t-109.5 218zM348 1059l168 364h131l-196 -364h-103z" />
<glyph unicode="&#x3ae;" horiz-adv-x="1105" d="M59 811q2 90 54.5 140t117.5 50q37 0 67 -16t45 -34.5t27.5 -52.5t15.5 -46t9 -41q14 27 32.5 53.5t53.5 60t86 55t111 21.5q135 0 235.5 -116.5t100.5 -325.5v-901h-131v899q0 289 -240 313q-182 -14 -227 -211q-8 -33 -8 -120v-539h-134v608q0 221 -34 258l-9 4l-8 2 q-31 -10 -37 -61h-127zM506 1059l168 364h131l-196 -364h-103z" />
<glyph unicode="&#x3af;" horiz-adv-x="567" d="M57 1059l168 364h131l-196 -364h-103zM88 250v719h131l2 -2v-670q0 -6 -1 -20.5t-1 -20.5q0 -94 35 -130t72 -36q39 0 70.5 40t33.5 126h92q-6 -139 -72.5 -205.5t-144.5 -66.5q-84 0 -150.5 69.5t-66.5 196.5z" />
<glyph unicode="&#x3b0;" d="M88 967h148q68 -156 84 -292t21 -235.5t44 -177.5q74 -145 209 -145q115 0 186.5 105.5t71.5 269.5q0 227 -129 475h149q111 -231 111 -478q0 -211 -108.5 -358t-280.5 -147q-160 0 -261.5 124.5t-123.5 294.5q-2 16 -4 119t-26.5 201.5t-90.5 243.5zM272 1075v121h121 v-121h-121zM411 1059l168 364h131l-196 -364h-103zM651 1075v121h121v-121h-121z" />
<glyph unicode="&#x3b1;" horiz-adv-x="1361" d="M88 483q0 209 117 354.5t282 145.5q66 0 123.5 -29.5t96 -70.5t73.5 -105.5t53.5 -114t38.5 -112.5l60 156l92 276h133q-121 -381 -219 -590q-12 -27 -2 -55q76 -225 158 -225q16 0 26 9t12.5 17t2.5 13h133q-4 -80 -56.5 -124t-117.5 -44q-43 0 -83 19.5t-62.5 37.5 t-50.5 62t-34 57.5t-26 56.5q-152 -233 -349 -233q-164 0 -282.5 145t-118.5 354zM221 471q2 -104 27.5 -180t68.5 -113t84 -52t84 -15q127 0 250 172q47 76 47 88q0 14 -18 82q-20 72 -28.5 100.5t-30 88.5t-40 89t-45 63.5t-60.5 49t-75 14.5q-45 0 -86 -16.5t-82 -51 t-66.5 -104.5t-29.5 -166v-49z" />
<glyph unicode="&#x3b2;" d="M88 -246v1186q0 84 4 140.5t26.5 131t62.5 119.5t116 77t184 32q182 0 289 -76t107 -272q0 -113 -57.5 -176.5t-147.5 -106.5q311 -72 311 -403q0 -188 -135 -305t-309 -117q-195 0 -318 204v-434h-133zM221 492q0 -104 21 -168q31 -96 105.5 -168t189.5 -72 q125 0 220 89t95 233q0 72 -19.5 127t-44 89.5t-71.5 60.5t-80 38t-94.5 19.5t-86 8.5t-83.5 3v86q70 4 116 11t117.5 40t106.5 88q31 47 30 110q0 145 -69.5 203t-192.5 58q-53 0 -96 -14.5t-69.5 -34t-46 -56.5t-29 -64.5t-13.5 -77.5t-5 -78t-1 -81v-450z" />
<glyph unicode="&#x3b3;" horiz-adv-x="1193" d="M59 809q4 86 57.5 130t119.5 44q41 0 80.5 -22.5t64.5 -49t51.5 -73.5t35.5 -67.5t26 -59.5q84 -203 114 -326q135 328 241.5 461t254.5 137v-131q-104 -4 -169 -78t-134 -229q-47 -104 -80 -206.5t-43 -153t-10 -66.5q23 -207 22 -316q0 -43 -18.5 -67.5t-37 -30.5 t-38.5 -6q-18 0 -36.5 6t-37 30.5t-18.5 67.5q0 117 31 324q0 18 -19.5 122.5t-54.5 244t-94.5 248t-126.5 108.5q-12 0 -20.5 -4t-13.5 -9.5t-7 -11.5t-4 -10l-2 -6h-134z" />
<glyph unicode="&#x3b4;" horiz-adv-x="1015" d="M88 459q0 170 95.5 304t246.5 165q-33 20 -83 50t-71.5 43t-54.5 35.5t-46 36t-27.5 34t-19.5 42t-5 48.5q0 74 54 138t136 64q43 0 97.5 -27.5t257.5 -152.5q121 -76 198 -123l-53 -90h-2q-446 274 -469 283q-12 4 -25 4q-39 0 -64.5 -29t-25.5 -63q0 -14 5.5 -26.5 t11.5 -22t19 -19.5t19.5 -14t21.5 -13.5t18 -9.5l399 -242l-2 -6q92 -61 148.5 -170.5t56.5 -238.5q0 -201 -125 -338t-295 -137q-166 0 -291 136t-125 339zM219 446q0 -152 79 -255t204 -103q127 0 209 114.5t82 270.5q0 150 -79 254t-202 104h-4q-113 0 -201 -110.5 t-88 -274.5z" />
<glyph unicode="&#x3b5;" horiz-adv-x="925" d="M88 291q0 158 182 225q-88 53 -118 100q-33 51 -33 113q0 113 99 183.5t245 70.5q211 0 342 -131l-92 -92h-2q-109 92 -248 92q-92 0 -153.5 -41t-61.5 -104q0 -143 317 -144v-102h-16q-68 0 -111 -3t-101 -15.5t-88 -45t-30 -84.5q0 -74 65.5 -136t184.5 -62 q31 0 59.5 3t49 8t42 13t35 14.5t28.5 15.5t22.5 14t17.5 14.5t12 9.5l92 -92q-139 -131 -360 -131q-160 0 -269.5 89t-109.5 218z" />
<glyph unicode="&#x3b6;" horiz-adv-x="1015" d="M88 514q0 354 385 678h-51q-45 2 -87 12t-95.5 35t-86 78t-34.5 131h131q4 -147 172 -148q164 0 422 146l67 -113q-156 -92 -266 -173t-213.5 -183.5t-157 -218t-53.5 -244.5q0 -158 73 -260t175 -119q12 -2 73.5 -4t120 -8t121 -23.5t101.5 -59.5t39 -106 q0 -109 -108.5 -150.5t-309.5 -41.5v125h2q199 4 246 24q37 18 37 43q0 66 -244 66h-21q-115 0 -202.5 50t-137 129t-74 165t-24.5 170z" />
<glyph unicode="&#x3b7;" horiz-adv-x="1105" d="M59 811q2 90 54.5 140t117.5 50q37 0 67 -16t45 -34.5t27.5 -52.5t15.5 -46t9 -41q14 27 32.5 53.5t53.5 60t86 55t111 21.5q135 0 235.5 -116.5t100.5 -325.5v-901h-131v899q0 289 -240 313q-182 -14 -227 -211q-8 -33 -8 -120v-539h-134v608q0 221 -34 258l-9 4l-8 2 q-31 -10 -37 -61h-127z" />
<glyph unicode="&#x3b8;" d="M88 709q0 319 119 525t328 206q117 0 205.5 -64.5t140 -172t77 -232.5t25.5 -258q0 -123 -21.5 -241t-69.5 -232.5t-140.5 -185t-216.5 -70.5q-211 0 -329 208t-118 517zM221 692q2 -141 23.5 -248.5t53.5 -168t75 -98.5t81 -50t81 -12q55 0 103 22.5t99 79.5t82 179 t33 296h-631zM221 797h629q-37 510 -315.5 510t-313.5 -510z" />
<glyph unicode="&#x3b9;" horiz-adv-x="598" d="M88 250v719h131l2 -2v-670q0 -6 -1 -20.5t-1 -20.5q0 -94 35 -130t72 -36q39 0 70.5 40t33.5 126h92q-6 -141 -72.5 -206.5t-144.5 -65.5q-90 0 -153.5 72.5t-63.5 193.5z" />
<glyph unicode="&#x3ba;" horiz-adv-x="1038" d="M119 0v969h133v-465q383 371 410 389q2 4 10 8q90 63 207 66v-119q-106 -4 -193 -90l-268 -258l500 -500h-189l-405 408l-72 -70v-338h-133z" />
<glyph unicode="&#x3bb;" d="M59 0l408 909q10 25 10 35q0 8 -21.5 59.5t-56 117t-93 116.5t-120.5 51q-27 0 -45 -12t-59 -49l-23 131q74 66 140 65q137 0 230 -117.5t183 -334.5l404 -971h-144l-321 774l-348 -774h-144z" />
<glyph unicode="&#x3bc;" horiz-adv-x="1193" d="M88 -342v1311h131l2 -2v-518q0 -6 -1 -14.5t-1 -14.5q0 -141 93.5 -223t207.5 -82q117 0 198 74.5t97 172.5q4 27 4 84v523h131l2 -2v-777q0 -8 1 -22t14.5 -36.5t38.5 -22.5q51 0 51 57v14h92q0 -4 1 -14t1 -16q0 -20 -6 -43t-22.5 -51.5t-52.5 -49t-87 -24.5 q-47 4 -79 22.5t-48 49t-23.5 53t-13.5 57.5q-96 -166 -301 -182q-117 10 -188 61q-61 45 -109 121v-506h-133z" />
<glyph unicode="&#x3bd;" horiz-adv-x="1015" d="M0 967h180q23 -18 40.5 -36t30.5 -37.5t21.5 -29.5t17.5 -31.5t11 -25.5t10 -29l8 -24l203 -596q14 20 80 106t106 145.5t78.5 152.5t38.5 171q0 20 -32 234h133q29 -180 28 -209q0 -94 -44 -208t-92 -188.5t-132 -195.5t-113 -166h-133l-237 690q-35 100 -64.5 141.5 t-138.5 135.5z" />
<glyph unicode="&#x3be;" horiz-adv-x="1015" d="M88 434q0 301 318 477q-145 59 -146 205q0 70 59 141q-63 8 -106 29t-61.5 51.5t-25.5 56t-7 60.5h131q6 -43 33.5 -58.5t87.5 -19.5h24q111 2 418 78l31 -127q-117 -29 -198 -44t-105.5 -17t-45 -6.5t-44.5 -14.5q-88 -39 -89 -119q0 -76 84 -100.5t347 -24.5v-131 q-238 -2 -405 -122.5t-167 -309.5q0 -111 63.5 -192.5t159.5 -106.5q16 -4 107.5 -9t166.5 -14.5t140.5 -55.5t65.5 -126q0 -78 -79 -137t-276 -61v127q115 0 159 9t60 46l3 16q-6 35 -57.5 50.5t-186.5 15.5h-23q-203 0 -319.5 132t-116.5 302z" />
<glyph unicode="&#x3bf;" horiz-adv-x="1134" d="M88 483q0 211 141.5 355.5t335.5 144.5q197 0 337 -145.5t140 -354.5q0 -211 -141 -355t-336 -144q-197 0 -337 145t-140 354zM221 483.5q0 -147.5 97.5 -258t246.5 -110.5q141 0 243.5 106.5t102.5 262t-102 262t-244 106.5q-147 0 -245.5 -110.5t-98.5 -258z" />
<glyph unicode="&#x3c0;" horiz-adv-x="1253" d="M35 928q131 39 305 39h821v-127h-293v-641q0 -92 119 -93q49 0 79 18.5t34 37.5l4 18h92q-4 -92 -72.5 -144t-156.5 -52q-84 0 -151.5 48t-76.5 126q-2 20 -2 61v621h-293v-856h-133v856q-113 -2 -237 -39z" />
<glyph unicode="&#x3c1;" horiz-adv-x="1015" d="M88 -342v795q0 178 64 299q49 94 138 162.5t214 68.5q182 0 301 -148.5t119 -351.5q0 -201 -118 -350t-300 -149q-160 0 -285 131v-457h-133zM221 481q0 -152 76 -271.5t211 -119.5q125 0 205 114.5t80 280.5q0 154 -77 274t-210 120q-127 0 -206 -115t-79 -283z" />
<glyph unicode="&#x3c2;" horiz-adv-x="956" d="M84 428q0 72 19.5 140.5t74.5 143t139 129t225.5 90.5t321.5 36v-131q-195 0 -332 -40t-201.5 -106.5t-90 -131t-25.5 -136.5q0 -109 63.5 -194t161.5 -99q10 -2 67.5 -3t112 -8t114 -23.5t95 -55.5t35.5 -96q0 -178 -319 -189h-10v127q195 0 194 62q0 35 -55.5 46 t-143.5 11t-108 4q-143 20 -240.5 140t-97.5 284z" />
<glyph unicode="&#x3c3;" horiz-adv-x="1224" d="M88 475q0 186 120 325.5t296 162.5q31 4 92 4h567v-131h-272q152 -156 151 -361q0 -209 -141 -350t-335.5 -141t-336 141t-141.5 350zM221 475.5q0 -153.5 101.5 -257t242.5 -103.5q139 0 242.5 103.5t103.5 257t-103 257t-242.5 103.5t-242 -103.5t-102.5 -257z" />
<glyph unicode="&#x3c4;" horiz-adv-x="985" d="M0 926q80 27 122 34t128 7h643v-127h-387v-639q0 -25 2 -35q10 -57 63 -57q49 0 66 71h92q-4 -96 -59.5 -146t-118.5 -50q-74 0 -122 52t-54 120q-2 20 -2 63v621h-123q-96 0 -201 -37z" />
<glyph unicode="&#x3c5;" d="M88 967h148q68 -156 84 -292t21 -235.5t44 -177.5q74 -145 209 -145q115 0 186.5 105.5t71.5 269.5q0 227 -129 475h149q111 -231 111 -478q0 -211 -108.5 -358t-280.5 -147q-160 0 -261.5 124.5t-123.5 294.5q-2 16 -4 119t-26.5 201.5t-90.5 243.5z" />
<glyph unicode="&#x3c6;" horiz-adv-x="1253" d="M88 494q0 250 121 473h147q-162 -240 -161 -475q0 -166 109.5 -271.5t254.5 -126.5v508q0 195 94.5 288t206.5 93q86 0 148.5 -50t93.5 -129t45 -157t14 -153q0 -217 -139 -348.5t-330 -157.5v-330h-133v330q-223 29 -347 173.5t-124 332.5zM692 94q154 20 253 125 t110 236l2 47q0 59 -7.5 114.5t-25.5 120t-59 103.5t-103 39q-74 0 -120 -64.5t-50 -163.5v-557z" />
<glyph unicode="&#x3c7;" horiz-adv-x="1193" d="M88 -358l432 675q-121 295 -214 416t-193 121q-16 0 -25 -2v131q2 0 22.5 3t30.5 3q59 0 115.5 -30.5t95.5 -68.5t83 -104.5t63.5 -104.5t52.5 -101q33 -66 55 -125l340 528h156l-432 -676q119 -293 213 -413.5t194 -120.5q16 0 25 2l2 -60v-73q-37 -4 -55 -4 q-123 0 -221.5 111.5t-186.5 295.5q-37 76 -57 127l-340 -530h-156z" />
<glyph unicode="&#x3c8;" horiz-adv-x="1253" d="M88 588q0 186 59 379h134q-86 -203 -86 -381q0 -170 86 -302t229 -178l55 -14v1331h119v-1331q129 31 203 94q59 51 102 129q68 123 68 271q0 178 -86 381h131q59 -188 59 -379q0 -246 -140 -411t-337 -189v-330h-119v330q-197 25 -337 189.5t-140 410.5z" />
<glyph unicode="&#x3c9;" horiz-adv-x="1433" d="M84 412q0 287 270 555h158q-135 -143 -186 -222q-109 -168 -109 -335q0 -137 60.5 -228.5t156.5 -91.5q84 0 152.5 80t68.5 260v184h121v-184q0 -180 68.5 -260t152.5 -80q96 0 156.5 91t60.5 229q0 113 -53 228.5t-103 175.5t-120 134q-12 12 -18 19h157 q270 -268 271 -555q0 -174 -99.5 -301t-251.5 -127q-170 0 -282 184q-96 -184 -281 -184q-152 0 -251 127t-99 301z" />
<glyph unicode="&#x3ca;" horiz-adv-x="567" d="M-92 1120v160h160v-160h-160zM90 250v719h131l2 -2v-670q0 -6 -1 -20.5t-1 -20.5q0 -94 35 -130t72 -36q39 0 70.5 40t33.5 126h92q-6 -141 -72.5 -206.5t-144.5 -65.5q-90 0 -153.5 72.5t-63.5 193.5zM276 1120v160h160v-160h-160z" />
<glyph unicode="&#x3cb;" d="M88 967h148q68 -156 84 -292t21 -235.5t44 -177.5q74 -145 209 -145q115 0 186.5 105.5t71.5 269.5q0 227 -129 475h149q111 -231 111 -478q0 -211 -108.5 -358t-280.5 -147q-160 0 -261.5 124.5t-123.5 294.5q-2 16 -4 119t-26.5 201.5t-90.5 243.5zM260 1120v160h160 v-160h-160zM629 1120v160h160v-160h-160z" />
<glyph unicode="&#x3cc;" horiz-adv-x="1134" d="M88 483q0 211 141.5 355.5t335.5 144.5q197 0 337 -145.5t140 -354.5q0 -211 -141 -355t-336 -144q-197 0 -337 145t-140 354zM221 483.5q0 -147.5 97.5 -258t246.5 -110.5q141 0 243.5 106.5t102.5 262t-102 262t-244 106.5q-147 0 -245.5 -110.5t-98.5 -258zM454 1059 l168 364h131l-196 -364h-103z" />
<glyph unicode="&#x3cd;" d="M88 967h148q68 -156 84 -292t21 -235.5t44 -177.5q74 -145 209 -145q115 0 186.5 105.5t71.5 269.5q0 227 -129 475h149q111 -231 111 -478q0 -211 -108.5 -358t-280.5 -147q-160 0 -261.5 124.5t-123.5 294.5q-2 16 -4 119t-26.5 201.5t-90.5 243.5zM411 1059l168 364 h131l-196 -364h-103z" />
<glyph unicode="&#x3ce;" horiz-adv-x="1433" d="M84 412q0 287 270 555h158q-135 -143 -186 -222q-109 -168 -109 -335q0 -137 60.5 -228.5t156.5 -91.5q84 0 152.5 80t68.5 260v184h121v-184q0 -180 68.5 -260t152.5 -80q96 0 156.5 91t60.5 229q0 113 -53 228.5t-103 175.5t-120 134q-12 12 -18 19h157 q270 -268 271 -555q0 -174 -99.5 -301t-251.5 -127q-170 0 -282 184q-96 -184 -281 -184q-152 0 -251 127t-99 301zM604 1059l168 364h131l-196 -364h-103z" />
<glyph unicode="&#x3d1;" d="M88 709q0 319 119 525t328 206q117 0 205.5 -64.5t140 -172t77 -232.5t25.5 -258q0 -123 -21.5 -241t-69.5 -232.5t-140.5 -185t-216.5 -70.5q-211 0 -329 208t-118 517zM221 692q2 -141 23.5 -248.5t53.5 -168t75 -98.5t81 -50t81 -12q55 0 103 22.5t99 79.5t82 179 t33 296h-631zM221 797h629q-37 510 -315.5 510t-313.5 -510z" />
<glyph unicode="&#x3d8;" d="M72 1001q0 182 136 310.5t328.5 128.5t330 -128t137.5 -311q0 -154 -106.5 -279.5t-289.5 -154.5v-567h-143v567q-182 29 -287.5 154.5t-105.5 279.5zM215 1001q0 -125 93 -216t228.5 -91t228.5 92.5t93 214.5q0 125 -93 215.5t-228.5 90.5t-228.5 -91.5t-93 -214.5z" />
<glyph unicode="&#x3d9;" d="M121 905q0 199 139 311.5t311 112.5q162 0 270.5 -104.5t108.5 -272.5q0 -152 -83 -253t-208 -144v-522q0 -68 -52 -105t-103 -37q-35 0 -62.5 23t-27.5 78v547q-125 25 -209 120.5t-84 245.5zM236 952q0 -162 99 -250t236 -88q127 0 197 81t70 212q0 164 -102.5 251 t-233.5 87q-125 0 -195.5 -81t-70.5 -212z" />
<glyph unicode="&#x3da;" horiz-adv-x="1673" d="M76 709q0 162 50 310t160.5 261t262.5 133q31 4 92 4h432v-1417h-434q-154 0 -262 66q-141 88 -221 264t-80 379zM219 711q0 -168 55.5 -312.5t161.5 -214.5q78 -51 203 -51h10q233 0 281 10v1131q-47 10 -281 10h-8q-145 0 -231 -72q-92 -76 -141.5 -211.5t-49.5 -289.5 z" />
<glyph unicode="&#x3db;" d="M119 698q0 51 22.5 99.5t77.5 96.5t171 77.5t278 29.5h286v-131l-96 -2q-76 2 -181.5 11.5t-137.5 9.5q-176 0 -246 -58.5t-70 -134.5q0 -57 30 -94t86 -52t105.5 -20.5t120.5 -5.5q27 0 79 1t79 1v-131l-107 2l13 -397h-133l12 408q-389 52 -389 290z" />
<glyph unicode="&#x3dc;" horiz-adv-x="1220" d="M201 0v1419h929v-108h-786v-547h696v-109h-696v-655h-143z" />
<glyph unicode="&#x3dd;" d="M119 -342v1090q0 119 64.5 169t150.5 50h620v-131h-612q-27 0 -42 -3.5t-31.5 -25t-16.5 -59.5v-236h420v-133h-420v-721h-133z" />
<glyph unicode="&#x3df;" horiz-adv-x="835" d="M119 410v784h127q0 -115 -11.5 -325t-13.5 -357l494 102v-784h-125q0 115 10 326t12 356z" />
<glyph unicode="&#x3e0;" horiz-adv-x="1374" d="M72 0l313 1040l-145 191v190l1073 -1421h-144l-383 508l-151 -508h-113l185 614l-242 318l-281 -932h-112z" />
<glyph unicode="&#x3e1;" horiz-adv-x="1552" d="M90 512q0 98 45 168t124 112t162 71.5t185.5 67.5t165.5 79l49 34v3q-176 125 -348 187t-383 62v127q281 0 536 -113.5t438 -304t290.5 -453.5t107.5 -552h-133q0 135 -26.5 263t-53 195.5t-71.5 164.5q-94 -53 -134 -80t-97.5 -74t-80 -98.5t-24.5 -114.5h-131 q2 186 213 332q51 37 202 123q-14 25 -29.5 46t-26.5 37.5t-28.5 37t-26.5 31.5t-27.5 30.5t-26 28t-30 31l-28.5 28.5q-70 -53 -199 -98t-227 -74t-176 -103.5t-80 -193.5h-131z" />
<glyph unicode="&#x400;" horiz-adv-x="1280" d="M201 0v1423h958v-110h-815v-518h756v-109h-756v-571h846v-115h-989zM305 1743h189l352 -187h-127q-16 0 -119.5 47.5t-198.5 92.5z" />
<glyph unicode="&#x401;" horiz-adv-x="1280" d="M201 0v1423h958v-110h-815v-518h756v-109h-756v-571h846v-115h-989zM407 1669v129h129v-129h-129zM825 1669v129h129v-129h-129z" />
<glyph unicode="&#x402;" horiz-adv-x="1783" d="M76 1313v110h1329v-110h-592v-557q51 92 164 168.5t295 76.5q117 0 200.5 -24.5t128 -58t69 -88t29.5 -95.5t5 -96v-166q0 -98 -14 -160q-35 -137 -149 -242.5t-296 -105.5q-123 0 -282 35l30 117q131 -47 254 -47q45 0 84 7t85 31.5t79 65.5t55.5 113.5t22.5 171.5 q0 12 -1 34.5t-1 32.5v92q0 4 1 14.5t1 14.5q0 123 -90 187.5t-312 64.5q-158 0 -249 -87t-107 -198q-2 -12 -2 -73v-541h-143v1313h-594z" />
<glyph unicode="&#x403;" horiz-adv-x="1161" d="M201 0v1423h870v-110h-727v-1313h-143zM375 1556l354 187h189q-10 -6 -343 -162q-10 -4 -21 -10t-14 -7t-10.5 -3t-14.5 -3.5t-19 -1.5h-121z" />
<glyph unicode="&#x404;" horiz-adv-x="1374" d="M166 710.5q0 194.5 83 363.5t241.5 275.5t355.5 106.5q195 0 395 -70l-27 -141q-61 33 -95 49.5t-111.5 35t-165.5 18.5q-201 0 -354.5 -158t-176.5 -424h768v-111h-768q25 -268 177.5 -424.5t353.5 -156.5q33 0 63.5 2t53 4t49 8t41 8t39 13.5t32.5 14.5t34 17.5 t31 16.5t34.5 20.5t33.5 20.5l11 -119q-78 -43 -118 -61.5t-119 -36t-181 -17.5q-197 0 -355.5 106.5t-241.5 275.5t-83 363.5z" />
<glyph unicode="&#x405;" horiz-adv-x="1193" d="M94 109l25 141q227 -168 471 -168q160 0 256 88t96 199q0 80 -52 150.5t-147 107.5q-47 18 -177 43.5t-227 70.5t-161 138q-61 86 -61 190q0 150 133 268.5t352 118.5q203 0 393 -98l-24 -141q-59 41 -92 60t-111 42.5t-166 23.5q-158 0 -256 -76.5t-98 -181.5 q0 -72 50 -134t142 -97q37 -12 171 -43t169 -45q147 -55 220 -162.5t73 -220.5q0 -166 -137 -292t-348 -126q-258 1 -494 144z" />
<glyph unicode="&#x406;" horiz-adv-x="546" d="M201 0v1423h143v-1423h-143z" />
<glyph unicode="&#x407;" horiz-adv-x="546" d="M0 1669v129h129v-129h-129zM203 0v1423h143v-1423h-143zM418 1669v129h129v-129h-129z" />
<glyph unicode="&#x408;" horiz-adv-x="989" d="M88 51l23 129q152 -109 290 -108q84 0 144.5 22.5t88.5 50t43 70.5t16 61.5t1 45.5v1101h142v-1106q0 -82 -22.5 -144t-59.5 -101t-87.5 -63.5t-101.5 -34t-108 -9.5q-181 0 -369 86z" />
<glyph unicode="&#x409;" horiz-adv-x="2191" d="M41 0v109h80q51 0 81.5 9t70.5 46t72 123t58 223q74 391 74 913h774v-628h320q131 0 231.5 -39t156.5 -100.5t84 -128t28 -130.5q0 -66 -28 -131t-83 -126.5t-157.5 -100.5t-235.5 -39h-459v1313h-518q0 -498 -92 -916q-29 -127 -66 -211t-83 -121.5t-86 -51t-91 -13.5 h-131zM1251 109h269q197 0 306 89t109 199q0 104 -106.5 196.5t-315.5 92.5h-262v-577z" />
<glyph unicode="&#x40a;" horiz-adv-x="2181" d="M201 0v1423h143v-628h752v628h143v-628h320q131 0 232 -39t157.5 -100.5t84 -128t27.5 -130.5q0 -154 -121.5 -264t-293.5 -129q-31 -4 -93 -4h-456v686h-752v-686h-143zM1239 109h266q209 0 314.5 92t105.5 196.5t-106.5 196.5t-315.5 92h-262l-2 -80v-497z" />
<glyph unicode="&#x40b;" horiz-adv-x="1642" d="M78 1313v110h1278v-110h-627v-543q37 78 121 146.5t215 68.5q90 0 154.5 -25.5t95.5 -59.5t48 -88t20 -88t3 -85v-639h-133v633q-2 109 -30 153q-59 94 -238 95q-39 0 -78 -13.5t-82 -47.5t-69.5 -107.5t-26.5 -175.5v-537h-143v1313h-508z" />
<glyph unicode="&#x40c;" horiz-adv-x="1441" d="M205 0v1423h135v-798l815 798h166l-573 -563l604 -860h-156l-541 768l-315 -309v-459h-135zM559 1556l352 187h191l-344 -162q-12 -4 -24.5 -11t-16.5 -8t-12.5 -3.5t-24.5 -2.5h-121z" />
<glyph unicode="&#x40d;" horiz-adv-x="1441" d="M201 0v1423h135v-1241l2 -67l704 1308h197v-1423h-135v1241l-2 68l-705 -1309h-196zM428 1743h190l353 -187h-129q-16 0 -120 47.5t-198 92.5z" />
<glyph unicode="&#x40e;" horiz-adv-x="1382" d="M29 1423h155l375 -675q180 -336 201 -379l24 69l127 297l299 688h140l-402 -921q-4 -10 -24.5 -58.5t-30.5 -70t-31.5 -67.5t-40 -74.5t-43 -64.5t-51.5 -61.5t-55 -46.5q-88 -59 -236 -59h-104v109h114q150 0 224 98q23 29 6 57zM346 1821h105q6 -94 78.5 -144.5 t166.5 -50.5q84 0 163 47t85 148h103q-4 -139 -108.5 -223.5t-242 -84.5t-242 84.5t-108.5 223.5z" />
<glyph unicode="&#x40f;" horiz-adv-x="1441" d="M201 0v1423h143v-1310h752v1310h143v-1423h-457v-342h-125v342h-456z" />
<glyph unicode="&#x410;" horiz-adv-x="1382" d="M59 0l553 1440h156l553 -1440h-150l-165 430h-650l-163 -430h-134zM399 539h566l-250 659l-33 92z" />
<glyph unicode="&#x411;" horiz-adv-x="1406" d="M203 0v1423h964v-110h-827v-518h381q147 0 262 -39t177.5 -100.5t94 -128t31.5 -130.5q0 -66 -30.5 -131t-94 -126.5t-179.5 -100.5t-265 -39h-514zM340 109h326q203 0 335 75q150 84 150 213q0 104 -122 196.5t-361 92.5h-326l-2 -80v-497z" />
<glyph unicode="&#x412;" horiz-adv-x="1406" d="M203 0v1423h459q150 0 265 -35.5t176.5 -92t92.5 -116t31 -114.5q0 -33 -12.5 -67.5t-46 -85t-114.5 -95.5t-200 -74q178 -25 305 -123t127 -235q0 -147 -135 -254.5t-326 -126.5q-37 -4 -108 -4h-514zM340 109h328q244 0 363.5 87t119.5 191q0 45 -26.5 93t-82 96.5 t-160 80t-239.5 31.5h-301l-2 -80v-499zM340 791h264q139 6 210 20t157 68q125 78 125 182q0 92 -122 172t-366 80h-266l-2 -74v-448z" />
<glyph unicode="&#x413;" horiz-adv-x="1161" d="M201 0v1423h870v-110h-727v-1313h-143z" />
<glyph unicode="&#x414;" horiz-adv-x="1464" d="M76 113h94q55 66 84 104.5t77 133.5t73.5 198.5t47 280t23.5 397.5v196h776v-1310h135v-455h-114v342h-1082v-342h-114v455zM322 113h786v1200h-518q-2 -229 -8.5 -349t-40 -313.5t-101.5 -339.5q-34 -75 -118 -198z" />
<glyph unicode="&#x415;" horiz-adv-x="1280" d="M201 0v1423h958v-110h-815v-518h756v-109h-756v-571h846v-115h-989z" />
<glyph unicode="&#x416;" horiz-adv-x="2338" d="M88 0l604 860l-573 563h166l815 -798v798h135v-798l813 798h168l-574 -563l605 -860h-158l-539 768h-2l-313 -309v-459h-135v459l-316 309l-540 -768h-156z" />
<glyph unicode="&#x417;" horiz-adv-x="1314" d="M106 168l60 104q74 -63 99.5 -82.5t89 -56.5t133 -48t169.5 -11q195 0 312.5 93t117.5 214q0 113 -108.5 206t-286.5 101h-274v103h153q121 0 183 14q106 25 192 95.5t86 174.5q0 154 -97 213.5t-267 59.5q-90 0 -162 -14.5t-132.5 -46.5t-91 -54.5t-85.5 -67.5l-66 115 q135 98 256 137t283 39q106 0 187 -16.5t154.5 -55t112.5 -116.5t39 -191q0 -35 -11 -71.5t-45 -89t-118 -98.5t-207 -75q184 -27 312.5 -126t128.5 -238q0 -158 -154 -286t-414 -128q-193 0 -300.5 43t-248.5 160z" />
<glyph unicode="&#x418;" horiz-adv-x="1441" d="M201 0v1423h135v-1241l2 -67l704 1308h197v-1423h-135v1241l-2 68l-705 -1309h-196z" />
<glyph unicode="&#x419;" horiz-adv-x="1441" d="M201 0v1423h135v-1241l2 -67l704 1308h197v-1423h-135v1241l-2 68l-705 -1309h-196zM371 1823h102q6 -92 80 -144.5t168 -52.5t167 51.5t79 145.5h104q-4 -143 -109.5 -226.5t-240.5 -83.5q-137 0 -241.5 84.5t-108.5 225.5z" />
<glyph unicode="&#x41a;" horiz-adv-x="1441" d="M205 0v1423h135v-798l815 798h166l-573 -563l604 -860h-156l-541 768l-315 -309v-459h-135z" />
<glyph unicode="&#x41b;" horiz-adv-x="1454" d="M41 0v109h80q51 0 81.5 9t70.5 46t72 123t58 223q74 391 74 913h774v-1423h-143v1313h-518q0 -498 -92 -916q-29 -127 -66 -211t-83 -121.5t-86 -51t-91 -13.5h-131z" />
<glyph unicode="&#x41c;" horiz-adv-x="1808" d="M207 0v1423h188l414 -1015l94 -242l29 82l475 1175h190v-1423h-129v1290l-159 -409l-346 -846h-123l-430 1059l-74 196v-1290h-129z" />
<glyph unicode="&#x41d;" horiz-adv-x="1441" d="M201 0v1423h143v-628h752v628h143v-1423h-143v686h-752v-686h-143z" />
<glyph unicode="&#x41e;" horiz-adv-x="1603" d="M119 709q0 315 201.5 531t480.5 216q276 0 479 -216t203 -531.5t-203 -529.5t-479.5 -214t-479 215.5t-202.5 528.5zM262 735q0 -295 160 -478t379 -183q217 0 377.5 180t160.5 481q0 283 -160.5 449t-377.5 166t-378 -165t-161 -450z" />
<glyph unicode="&#x41f;" horiz-adv-x="1441" d="M201 0v1423h1038v-1423h-143v1313h-752v-1313h-143z" />
<glyph unicode="&#x420;" horiz-adv-x="1347" d="M201 0v1423h487q188 0 322 -73q102 -57 159.5 -147.5t57.5 -190.5q0 -66 -30 -133.5t-89 -131t-168 -103.5t-248 -40h-348v-604h-143zM342 711h324q127 0 217 28.5t132 77.5t59.5 95t17.5 100q0 51 -17.5 98t-60.5 96t-132 78t-216 29h-324v-602z" />
<glyph unicode="&#x421;" horiz-adv-x="1374" d="M166 710.5q0 194.5 83 363.5t241.5 275.5t355.5 106.5q195 0 395 -70l-27 -141q-63 35 -99 51.5t-111.5 34t-159.5 17.5q-229 0 -382 -187.5t-153 -449.5q0 -258 151.5 -447.5t385.5 -189.5q104 0 185 21.5t110.5 36.5t111.5 67l11 -119q-74 -41 -115 -60.5t-121 -37 t-182 -17.5q-197 0 -355.5 106.5t-241.5 275.5t-83 363.5z" />
<glyph unicode="&#x422;" horiz-adv-x="1484" d="M76 1313v110h1329v-110h-592v-1313h-143v1313h-594z" />
<glyph unicode="&#x423;" horiz-adv-x="1382" d="M29 1423h155l375 -675q180 -336 201 -379l24 69l127 297l299 688h140l-402 -921q-4 -10 -24.5 -58.5t-30.5 -70t-31.5 -67.5t-40 -74.5t-43 -64.5t-51.5 -61.5t-55 -46.5q-88 -59 -236 -59h-104v109h114q150 0 224 98q23 29 6 57z" />
<glyph unicode="&#x424;" horiz-adv-x="1792" d="M119 739q0 123 41 217.5t106.5 151.5t159.5 94t190.5 50.5t208.5 13.5v157h140v-157q137 0 252.5 -22.5t223 -78t169 -164t61.5 -262.5q0 -72 -14.5 -135t-59.5 -138t-118.5 -127t-205.5 -88t-308 -36v-215h-140v215q-176 0 -308 36t-205.5 88t-120 127t-59.5 138 t-13 135zM260 737q0 -94 27.5 -166.5t73 -115.5t101.5 -72t118.5 -41t119 -17.5t105.5 -7.5h20v846q-180 -8 -256 -28q-309 -79 -309 -398zM965 317q197 10 280 35q287 82 287 387q0 113 -40 196t-98.5 124t-138 65.5t-142 30.5t-126.5 8h-22v-846z" />
<glyph unicode="&#x425;" horiz-adv-x="1382" d="M29 0l571 752l-541 671h174l441 -563l422 563h164l-512 -673l602 -750h-174l-502 651l-479 -651h-166z" />
<glyph unicode="&#x426;" horiz-adv-x="1454" d="M201 0v1423h143v-1310h752v1310h143v-1310h135v-455h-114v342h-1059z" />
<glyph unicode="&#x427;" horiz-adv-x="1441" d="M201 920v503h143v-493q0 -106 71.5 -150.5t174.5 -44.5h506v688h143v-1423h-143v629h-508q-174 0 -301 114q-86 77 -86 177z" />
<glyph unicode="&#x428;" horiz-adv-x="2256" d="M201 0v1423h135v-1310h725v1310h135v-1310h723v1310h135v-1423h-1853z" />
<glyph unicode="&#x429;" horiz-adv-x="2269" d="M201 0v1423h135v-1310h723v1310h135v-1310h723v1310h137v-1310h135v-455h-114v342h-1874z" />
<glyph unicode="&#x42a;" horiz-adv-x="1878" d="M76 1313v110h733v-628h381q147 0 262 -39t177.5 -100.5t94 -128t31.5 -130.5q0 -154 -133 -264t-328 -129q-37 -4 -108 -4h-514v1313h-596zM809 109h326q244 0 364.5 91t120.5 197q0 104 -122 196.5t-361 92.5h-326l-2 -80v-497z" />
<glyph unicode="&#x42b;" horiz-adv-x="1859" d="M203 0v1423h137v-628h381q147 0 262 -39t177.5 -100.5t94 -128t31.5 -130.5q0 -66 -30.5 -131t-94 -126.5t-179.5 -100.5t-265 -39h-514zM340 109h326q203 0 335 75q150 84 150 213q0 104 -122 196.5t-361 92.5h-326l-2 -80v-497zM1508 0v1423h143v-1423h-143z" />
<glyph unicode="&#x42c;" horiz-adv-x="1406" d="M203 0v1423h137v-628h381q147 0 262 -39t177.5 -100.5t94 -128t31.5 -130.5q0 -66 -30.5 -131t-94 -126.5t-179.5 -100.5t-265 -39h-514zM340 109h326q203 0 335 75q150 84 150 213q0 104 -122 196.5t-361 92.5h-326l-2 -80v-497z" />
<glyph unicode="&#x42d;" horiz-adv-x="1374" d="M106 80l11 119q4 -2 30.5 -18.5t32.5 -19.5t31 -17.5t34 -17.5t33.5 -13.5t40 -13.5t41 -10t49 -9t53.5 -4t62 -2q225 0 369.5 169t165.5 412h-768v111h768q-23 258 -172.5 420t-358.5 162q-86 0 -159.5 -17.5t-112.5 -35t-100 -50.5l-25 141q197 70 395 70 q197 0 354.5 -106.5t240.5 -275.5t83 -363.5t-83 -363.5t-240.5 -275.5t-354.5 -106.5q-102 0 -182 17.5t-123 37t-115 60.5z" />
<glyph unicode="&#x42e;" horiz-adv-x="2236" d="M201 0v1423h143v-661h408q20 293 215.5 493.5t466.5 200.5q279 0 480.5 -217t201.5 -530.5t-202 -528.5t-482 -215q-258 0 -457 191.5t-223 496.5h-408v-653h-143zM893 735q0 -283 154.5 -472t386.5 -189q219 0 378.5 182t159.5 479q0 283 -160.5 449t-377.5 166 q-215 0 -378 -165t-163 -450z" />
<glyph unicode="&#x42f;" horiz-adv-x="1374" d="M59 0l557 659q-227 14 -362 133t-135 257q0 61 31.5 122.5t96 120t182.5 95t271 36.5h471v-1423h-141v657h-274l-533 -657h-164zM254 1049q0 -145 139 -224q113 -61 316 -61h321v549h-311q-80 0 -128 -3t-124 -23.5t-125 -61.5q-88 -70 -88 -176z" />
<glyph unicode="&#x430;" horiz-adv-x="1007" d="M113 236q0 51 26.5 99t87 96t184.5 78t298 34v86q0 133 -56 196q-59 72 -151 72q-76 0 -147.5 -21.5t-95 -36t-81.5 -48.5l-10 114q166 88 336 88q154 0 240.5 -95t95.5 -212l2 -70v-616h-129v141q-127 -158 -359 -157h-14q-113 0 -170 82t-57 170zM240 240 q0 -74 64.5 -114t146.5 -40q37 0 75.5 9t82.5 29.5t72 66t28 106.5v182q-207 -2 -338 -67.5t-131 -171.5z" />
<glyph unicode="&#x431;" d="M82 510q0 133 5 221t23.5 212t65.5 215t121 149q20 14 36.5 25t40 20.5t40 15.5t50.5 12t56.5 9.5t74.5 8.5t87 7t111.5 8t132.5 10v-37q0 -39 -14.5 -58t-69.5 -25q-61 -6 -143.5 -13.5t-121 -11.5t-78.5 -10t-63 -15q-104 -37 -158.5 -127t-74.5 -237q-8 -63 -10 -101 q49 82 138 142.5t206 60.5q182 0 318 -147.5t136 -362.5q0 -211 -135 -354t-319 -143q-72 0 -146 27.5t-145.5 86t-117.5 166t-46 246.5zM215 502q0 -117 30.5 -202t82 -128t103.5 -62.5t105.5 -19.5t105.5 19.5t103.5 62.5t82 128t30.5 202q0 111 -30.5 190.5t-82 120.5 t-103.5 58.5t-105 17.5q-139 0 -230.5 -100.5t-91.5 -286.5z" />
<glyph unicode="&#x432;" horiz-adv-x="1007" d="M164 0v967h383q63 0 108 -5.5t99.5 -24.5t87 -63.5t41.5 -113.5q0 -4 1 -12.5t1 -12.5q0 -72 -56.5 -116t-189.5 -87q293 -86 293 -245q0 -129 -74 -201q-39 -39 -98.5 -58.5t-106.5 -23.5t-121 -4h-368zM289 102h213q307 0 307 187q0 76 -88 139.5t-275 63.5h-155 l-2 -60v-330zM289 573q12 0 37.5 -1t38.5 -1q176 0 286.5 43t110.5 113q0 139 -264 139h-207l-2 -108v-185z" />
<glyph unicode="&#x433;" horiz-adv-x="854" d="M164 0v967h635v-101h-502v-866h-133z" />
<glyph unicode="&#x434;" horiz-adv-x="1069" d="M57 102h78q131 131 166 308.5t39 556.5h553v-865h115v-387h-115v285h-721v-285h-115v387zM287 102h481v762h-313v-24q0 -505 -168 -738z" />
<glyph unicode="&#x435;" horiz-adv-x="956" d="M86 492q0 201 121 350t301 149q63 0 121.5 -19.5t120 -66.5t99.5 -148.5t38 -244.5h-678v-16q0 -186 100.5 -298t231.5 -112q174 0 331 141l11 -112q-158 -131 -342 -131q-188 0 -321.5 146.5t-133.5 361.5zM219 594h557q-14 156 -93 225.5t-175 69.5q-104 0 -185 -84 t-104 -211z" />
<glyph unicode="&#x436;" horiz-adv-x="1536" d="M35 0l411 602l-362 365h162l459 -463v463h122v-465l461 465h162l-363 -367l412 -600h-143l-352 516l-177 -176v-340h-122v342l-177 174l-350 -516h-143z" />
<glyph unicode="&#x437;" horiz-adv-x="956" d="M59 119l47 104q43 -41 65 -59.5t95.5 -47t159.5 -28.5q180 0 256 62.5t76 140.5q0 20 -6.5 42.5t-25.5 54.5t-68.5 57.5t-120.5 37.5q-47 8 -140 9h-100v81h109q4 0 16 -1t16 -1q125 0 212 45.5t87 116.5q0 156 -313 156q-109 0 -159 -15.5t-148 -70.5l-47 102 q98 53 166.5 70.5t187.5 17.5q264 0 362 -92q72 -68 72 -164q0 -18 -5 -34.5t-10 -30t-18.5 -26.5t-22.5 -22.5t-27.5 -20.5t-28 -17t-31 -16.5t-28.5 -13.5t-29.5 -11t-24.5 -10q125 -33 187.5 -100.5t62.5 -147.5q0 -51 -20.5 -99.5t-67.5 -96.5t-142.5 -77.5 t-226.5 -29.5q-215 0 -367 135z" />
<glyph unicode="&#x438;" horiz-adv-x="1091" d="M166 0v967h125v-742l2 -110l442 852h187v-967h-125v741l-2 111l-443 -852h-186z" />
<glyph unicode="&#x439;" horiz-adv-x="1091" d="M166 0v967h125v-742l2 -110l442 852h187v-967h-125v741l-2 111l-443 -852h-186zM195 1366h102q4 -53 32.5 -91t71.5 -55.5t77 -23.5t65 -6q43 0 91 10t100 53t57 113h102q-4 -135 -108.5 -212t-239.5 -77q-137 0 -241.5 77t-108.5 212z" />
<glyph unicode="&#x43a;" horiz-adv-x="997" d="M166 0v967h123v-465l461 465h161l-362 -367l412 -600h-144l-352 516l-176 -176v-340h-123z" />
<glyph unicode="&#x43b;" horiz-adv-x="1062" d="M41 0v109h82q33 0 52.5 5t50 31.5t50 77.5t37 152.5t23.5 245.5q4 63 6 346h553v-967h-125v864h-315q0 -389 -68 -610q-27 -86 -60.5 -141.5t-73.5 -78t-65.5 -28.5t-60.5 -6h-86z" />
<glyph unicode="&#x43c;" horiz-adv-x="1366" d="M166 0v967h182l330 -805h2l330 805h188v-967h-129v727l-2 109l-47 -129l-283 -691h-116l-271 666l-55 154v-836h-129z" />
<glyph unicode="&#x43d;" horiz-adv-x="1058" d="M166 0v967h125v-394h471v394h127v-967h-127v492h-471v-492h-125z" />
<glyph unicode="&#x43e;" d="M82 483q0 215 134 361.5t321 146.5q190 0 321 -150.5t131 -357.5q0 -215 -135 -357t-317 -142q-188 0 -321.5 146t-133.5 353zM213 508q0 -127 34 -215t88 -129t103 -57.5t99 -16.5q53 0 105 19.5t103.5 62.5t82 128t30.5 202q0 111 -30.5 190.5t-82 120.5t-103.5 58.5 t-105.5 17.5t-105.5 -17.5t-103.5 -57.5t-83 -118.5t-31.5 -187.5z" />
<glyph unicode="&#x43f;" horiz-adv-x="1058" d="M166 0v967h723v-967h-127v864h-471v-864h-125z" />
<glyph unicode="&#x440;" horiz-adv-x="1058" d="M164 -342v1309h129v-140q129 156 311 156q150 0 253.5 -144.5t103.5 -351.5q0 -223 -122 -363t-278 -140q-72 0 -136.5 35.5t-80.5 56t-47 59.5v-477h-133zM297 266q0 -63 58.5 -121.5t142.5 -58.5q133 0 232 115.5t99 283.5q0 162 -92 278t-219 116q-106 0 -180 -82 q-31 -39 -36 -50.5t-5 -46.5v-434z" />
<glyph unicode="&#x441;" horiz-adv-x="956" d="M94 485q0 205 127 356.5t326 151.5q106 0 172.5 -18.5t163.5 -69.5l-21 -112q-61 37 -93 52t-89 28.5t-133 13.5q-145 0 -232.5 -108.5t-87.5 -291.5q2 -195 95.5 -296t220.5 -101q84 0 158.5 26.5t106.5 49t77 61.5l10 -114q-158 -129 -354 -129q-186 0 -316.5 145 t-130.5 356z" />
<glyph unicode="&#x442;" horiz-adv-x="1007" d="M53 864v103h897v-103h-383v-864h-131v864h-383z" />
<glyph unicode="&#x443;" horiz-adv-x="937" d="M29 967h133l213 -529q88 -233 104 -305q14 98 299 834h129l-403 -1047q-23 -59 -42.5 -97t-53 -85t-81.5 -71.5t-108 -24.5q-74 0 -160 14l-10 115q94 -25 170 -25q33 0 60.5 14.5t43 26.5t36 53t25.5 55.5t28 71.5q8 23 8 35q0 10 -12 39z" />
<glyph unicode="&#x444;" horiz-adv-x="1595" d="M94 485q0 213 112.5 355.5t262.5 142.5q154 0 262 -137v577h131v-577q100 137 262 137t268.5 -148.5t106.5 -351.5q0 -217 -117.5 -358t-271.5 -141q-51 0 -95 15t-78 46t-44 43t-31 39v-469h-131v469q-96 -143 -248 -143q-160 0 -274.5 146t-114.5 355zM227 483 q0 -166 93.5 -281.5t224.5 -115.5q74 0 130 54.5t56 117.5v453v18v13.5t-2 11.5t-2 8t-4 8t-6 8t-9.5 12.5t-11.5 14.5q-61 72 -151 72q-131 0 -224.5 -116t-93.5 -278zM862 252q0 -55 54.5 -110.5t132.5 -55.5q129 0 223 115.5t94 281.5q0 168 -95 282t-220 114 q-72 0 -130.5 -49.5t-58.5 -106.5v-471z" />
<glyph unicode="&#x445;" horiz-adv-x="937" d="M0 0l403 498v2l-391 467h148l303 -375l293 375h145l-381 -469l418 -498h-147l-328 424h-2l-316 -424h-145z" />
<glyph unicode="&#x446;" horiz-adv-x="1097" d="M166 0v967h125v-865h506v865h125v-865h114v-387h-114v285h-756z" />
<glyph unicode="&#x447;" horiz-adv-x="1091" d="M166 641v326h125v-324q0 -53 18 -80q43 -59 140 -59h348v463h125v-967h-125v424h-334q-143 0 -238 84q-59 51 -59 133z" />
<glyph unicode="&#x448;" horiz-adv-x="1595" d="M166 0v967h125v-865h442v865h125v-865h442v865h125v-967h-1259z" />
<glyph unicode="&#x449;" horiz-adv-x="1601" d="M166 0v967h125v-865h442v865h125v-865h442v865h125v-865h113v-387h-113v285h-1259z" />
<glyph unicode="&#x44a;" horiz-adv-x="1280" d="M53 864v103h512v-394h232q213 0 311 -87t98 -191q0 -51 -15 -96t-54 -93.5t-122 -77t-202 -28.5h-373v864h-387zM565 106h203q217 0 283 91q33 45 32 100q0 72 -75.5 133.5t-229.5 61.5h-213v-386z" />
<glyph unicode="&#x44b;" horiz-adv-x="1417" d="M166 0v967h125v-394h233q213 0 310.5 -87t97.5 -191q0 -51 -15.5 -96t-54.5 -93.5t-122 -77t-201 -28.5h-373zM291 106h203q217 0 282 91q33 45 33 100q0 72 -75 133.5t-228 61.5h-213l-2 -60v-326zM1120 0v967h129v-967h-129z" />
<glyph unicode="&#x44c;" horiz-adv-x="1007" d="M166 0v967h125v-394h233q213 0 310.5 -87t97.5 -191q0 -51 -15.5 -96t-54.5 -93.5t-122 -77t-201 -28.5h-373zM291 106h203q217 0 282 91q33 45 33 100q0 72 -75 133.5t-228 61.5h-213l-2 -60v-326z" />
<glyph unicode="&#x44d;" horiz-adv-x="956" d="M59 113l11 114q45 -39 79.5 -63.5t107.5 -49t155 -24.5q133 0 224 105.5t91 296.5h-541v81h535q-16 100 -56 168t-90.5 96.5t-89.5 39t-79 10.5q-31 0 -59 -2t-46 -4t-43 -9.5t-34 -9.5t-34.5 -14t-30.5 -14.5t-35 -19.5t-34 -19l-20 110q94 51 163.5 69.5t172.5 18.5 q205 0 328.5 -154.5t123.5 -353.5q0 -203 -126 -352t-320 -149q-199 0 -353 129z" />
<glyph unicode="&#x44e;" horiz-adv-x="1544" d="M164 0v967h133v-394h262q31 190 160 304t287 114q193 0 323.5 -151.5t130.5 -358.5q0 -211 -134 -354t-320 -143q-178 0 -316.5 140t-138.5 368h-254v-492h-133zM684 508q0 -127 34 -215t87 -129t102 -57.5t99 -16.5q53 0 105 19.5t103.5 62.5t82 128t30.5 202 q0 111 -30.5 190.5t-82 120.5t-103.5 58.5t-105.5 17.5t-104.5 -17.5t-102 -57.5t-83 -118.5t-32 -187.5z" />
<glyph unicode="&#x44f;" horiz-adv-x="1091" d="M35 0l434 449q-102 10 -173 44.5t-98.5 81t-37.5 79t-10 61.5q0 143 145 209q92 43 293 43h338v-967h-131v442h-203l-395 -442h-162zM272 713q0 -100 80 -148q72 -41 226 -41h217v340h-240q-49 0 -80 -1t-74 -9t-67.5 -23.5t-43 -45t-18.5 -72.5z" />
<glyph unicode="&#x450;" horiz-adv-x="956" d="M86 492q0 201 121 350t301 149q63 0 121.5 -19.5t120 -66.5t99.5 -148.5t38 -244.5h-678v-16q0 -186 100.5 -298t231.5 -112q174 0 331 141l11 -112q-158 -131 -342 -131q-188 0 -321.5 146.5t-133.5 361.5zM219 594h557q-14 156 -93 225.5t-175 69.5q-104 0 -185 -84 t-104 -211zM326 1366h133l307 -264h-84q-20 0 -96 57q-14 12 -260 207z" />
<glyph unicode="&#x451;" horiz-adv-x="956" d="M86 492q0 201 121 350t301 149q63 0 121.5 -19.5t120 -66.5t99.5 -148.5t38 -244.5h-678v-16q0 -186 100.5 -298t231.5 -112q174 0 331 141l11 -112q-158 -131 -342 -131q-188 0 -321.5 146.5t-133.5 361.5zM203 1214v129h129v-129h-129zM219 594h557q-14 156 -93 225.5 t-175 69.5q-104 0 -185 -84t-104 -211zM621 1214v129h129v-129h-129z" />
<glyph unicode="&#x452;" horiz-adv-x="997" d="M39 1143v104h123v176h131v-176h651v-104h-651v-377q37 82 119 150.5t215 68.5q90 0 153.5 -26.5t94 -60.5t48 -90t19.5 -89t2 -84v-103q0 -203 -56.5 -371.5t-149.5 -276t-207.5 -166t-235.5 -60.5v82q86 0 171 42t165 127t131 238.5t51 354.5v125q-2 113 -31 159 q-57 94 -233 95q-98 0 -176 -78t-78 -258v-545h-133v1143h-123z" />
<glyph unicode="&#x453;" horiz-adv-x="823" d="M160 1102l307 264h133q-311 -246 -327 -256q-14 -8 -35 -8h-78zM164 0v967h635v-101h-502v-866h-133z" />
<glyph unicode="&#x454;" horiz-adv-x="944" d="M82 485q0 205 127 356.5t326 151.5q106 0 172.5 -18.5t162.5 -69.5l-20 -112q-61 37 -86 50t-88.5 28.5t-140.5 15.5q-252 0 -314 -305q-2 -6 -2 -9h535l2 -2v-79h-541q0 -193 91 -297.5t224 -104.5q184 0 342 137l11 -114q-158 -129 -355 -129q-186 0 -316 145t-130 356 z" />
<glyph unicode="&#x455;" horiz-adv-x="823" d="M59 80l21 119q172 -109 344 -109q125 0 178 51.5t53 116.5q0 61 -44 100t-97 58q-23 6 -119 23.5t-162.5 48t-113.5 94.5q-47 66 -47 139q0 47 15 89t50 86t107.5 70.5t175.5 26.5h6q156 0 311 -69l-20 -113q-158 80 -311 80q-121 0 -168.5 -48t-47.5 -106q0 -45 33 -85 t96 -58q12 -4 110.5 -23.5t133.5 -31.5q86 -31 148.5 -99.5t62.5 -169.5q0 -111 -79 -198.5t-269.5 -87.5t-366.5 96z" />
<glyph unicode="&#x456;" horiz-adv-x="460" d="M164 0v967h129v-967h-129zM164 1292v129h129v-129h-129z" />
<glyph unicode="&#x457;" horiz-adv-x="460" d="M-43 1214v129h129v-129h-129zM166 0v967h129v-967h-129zM375 1214v129h129v-129h-129z" />
<glyph unicode="&#x458;" horiz-adv-x="520" d="M-156 -299l29 104q90 -55 176 -55q61 0 108.5 23.5t61.5 62.5q6 16 6 53v1078h131v-1059q0 -137 -96 -213q-68 -53 -164 -53q-127 0 -252 59zM225 1292v129h129v-129h-129z" />
<glyph unicode="&#x459;" horiz-adv-x="1581" d="M41 0v109h82q33 0 52.5 5t50 31.5t50 77.5t37 152.5t23.5 245.5q4 63 6 346h553v-394h205q111 0 193.5 -27.5t127.5 -70.5t65.5 -89t20.5 -91q0 -51 -16 -96t-55 -93.5t-122 -77t-202 -28.5h-342v864h-315q0 -389 -68 -610q-27 -86 -60.5 -141.5t-73.5 -78t-65.5 -28.5 t-60.5 -6h-86zM895 106h176q207 0 275 84q37 43 36 107q0 72 -74.5 133.5t-226.5 61.5h-184l-2 -60v-326z" />
<glyph unicode="&#x45a;" horiz-adv-x="1607" d="M166 0v967h125v-394h506v394h127v-394h204q111 0 194 -27.5t127 -70.5t64.5 -89t20.5 -91q0 -51 -15.5 -97t-54.5 -93.5t-120.5 -76t-198.5 -28.5h-348v492h-506v-492h-125zM924 106h174q207 0 274 84q39 45 39 107q0 72 -74.5 133.5t-228.5 61.5h-184v-386z" />
<glyph unicode="&#x45b;" horiz-adv-x="1058" d="M39 1143v104h125v176h129v-176h532v-104h-532v-309l2 -60q33 78 107.5 143.5t195.5 65.5q82 0 140.5 -24.5t87 -57.5t45 -86t18.5 -87t2 -83v-645h-131v637q0 37 -1 59.5t-13.5 61.5t-35 62.5t-68.5 42t-112 18.5q-41 0 -77.5 -14.5t-74.5 -48.5t-60.5 -106.5 t-22.5 -174.5v-537h-131v1143h-125z" />
<glyph unicode="&#x45c;" horiz-adv-x="997" d="M166 0v967h123v-465l461 465h161l-362 -367l412 -600h-144l-352 516l-176 -176v-340h-123zM266 1102l307 264h133q-311 -246 -327 -256q-14 -8 -35 -8h-78z" />
<glyph unicode="&#x45d;" horiz-adv-x="1091" d="M166 0v967h125v-742l2 -110l442 852h187v-967h-125v741l-2 111l-443 -852h-186zM303 1366h133l307 -264h-84q-20 0 -96 57q-14 12 -260 207z" />
<glyph unicode="&#x45e;" horiz-adv-x="937" d="M29 967h133l213 -529q88 -233 104 -305q14 98 299 834h129l-403 -1047q-23 -59 -42.5 -97t-53 -85t-81.5 -71.5t-108 -24.5q-74 0 -160 14l-10 115q94 -25 170 -25q33 0 60.5 14.5t43 26.5t36 53t25.5 55.5t28 71.5q8 23 8 35q0 10 -12 39zM119 1366h104q4 -53 33 -91 t72 -55.5t76.5 -23.5t64.5 -6t64.5 6t76.5 23.5t72 55.5t33 91h104q-4 -135 -109.5 -212t-240.5 -77q-137 0 -241.5 77t-108.5 212z" />
<glyph unicode="&#x45f;" horiz-adv-x="1091" d="M166 0v967h125v-865h506v865h125v-967h-322v-285h-113v285h-321z" />
<glyph unicode="&#x460;" horiz-adv-x="1970" d="M166 711q0 178 30.5 314t79 215t114 129t125.5 67.5t126 19.5v-104q-61 -2 -113.5 -30t-104.5 -92.5t-83 -195.5t-31 -315q0 -379 123 -535q86 -111 217 -110q74 0 130.5 14t74.5 24.5t61 39.5v587h138v-587q82 -55 149 -68q49 -10 117 -10q47 0 89 13t90 54t82 108.5 t56.5 188.5t22.5 281q0 182 -31 312t-83 195.5t-104 94.5t-114 31v104q66 -2 125 -18.5t126 -66.5t114 -130t78.5 -216t31.5 -316.5t-32.5 -318.5t-82 -217t-118 -127t-129 -64.5t-125.5 -16.5q-104 0 -176 24.5t-154 90.5h-2q-82 -66 -153.5 -90.5t-176.5 -24.5 q-53 0 -103 12.5t-108.5 40t-105.5 84t-86 134t-61.5 200.5t-22.5 275z" />
<glyph unicode="&#x461;" horiz-adv-x="1740" d="M166 510q2 117 30.5 207t70.5 142t99.5 85t108.5 45t109 12v-102q-115 -4 -199 -94t-86 -313v-19q0 -39 3 -77t19.5 -101.5t45 -108.5t88 -79.5t139.5 -34.5q113 0 209 53v448h131v-448q96 -53 208.5 -53t198.5 79.5t97 282.5v60q-2 174 -68.5 286.5t-216.5 118.5v102 q57 0 108.5 -12t108.5 -45t99 -85t71 -142t31 -207l-2 -78q-12 -250 -132 -358.5t-292 -108.5q-86 0 -142.5 16.5t-134.5 61.5q-127 -78 -276 -78q-57 0 -108.5 10.5t-109 42t-99.5 82t-71.5 135t-35.5 197.5z" />
<glyph unicode="&#x462;" horiz-adv-x="1646" d="M-6 1198v109h450v229h138v-229h749v-109h-749v-403h383q145 0 258.5 -39t177 -100.5t95.5 -128t32 -130.5q0 -66 -31 -131t-94.5 -126.5t-179 -100.5t-265.5 -39h-514v1198h-450zM582 109h325q203 0 336 75q150 84 150 213q0 104 -122 196.5t-362 92.5h-325l-2 -80v-497z " />
<glyph unicode="&#x463;" d="M39 864v103h194v399h127v-399h299v-103h-299v-291h232q213 0 311 -87t98 -191q0 -51 -15 -96t-54 -93.5t-122 -77t-202 -28.5h-375v864h-194zM360 106h203q215 0 281 91q33 45 33 100q0 72 -75 133.5t-229 61.5h-213v-386z" />
<glyph unicode="&#x464;" horiz-adv-x="2004" d="M201 0v1423h143v-657h457q8 127 57 248t131 221t210 160.5t282 60.5q190 0 391 -70l-25 -141q-61 33 -96 49.5t-112.5 35t-165.5 18.5q-201 0 -353.5 -158t-175.5 -424h768v-111h-768q25 -268 178.5 -424.5t354.5 -156.5q37 0 67.5 1t61 7t49 8t46.5 12.5t38 13.5 t38.5 19.5t34 18.5t38 22.5t36.5 22.5l10 -119q-117 -68 -201.5 -91.5t-213.5 -23.5q-201 0 -356.5 105.5t-233.5 259t-90 327.5h-457v-657h-143z" />
<glyph unicode="&#x465;" horiz-adv-x="1437" d="M164 0v967h133v-394h272q31 172 146.5 296t302.5 124q100 0 166.5 -17.5t167.5 -70.5l-21 -112q-61 37 -85.5 50t-88 28.5t-141.5 15.5q-252 0 -314 -305q-2 -6 -2 -9h535l2 -2v-79h-541q0 -193 91.5 -297.5t224.5 -104.5q184 0 342 137l10 -114q-160 -129 -354 -129 q-180 0 -312.5 141t-134.5 367h-266v-492h-133z" />
<glyph unicode="&#x466;" horiz-adv-x="1667" d="M59 0l695 1440h159l693 -1440h-156l-260 543h-303v-543h-127v543h-301l-262 -543h-138zM510 651h627l-314 649z" />
<glyph unicode="&#x467;" horiz-adv-x="1318" d="M29 0l549 975h161l549 -975h-141l-199 354h-237v-354h-107v354h-237l-201 -354h-137zM412 436h489l-244 434z" />
<glyph unicode="&#x468;" horiz-adv-x="2383" d="M201 0v1423h143v-768h700l424 785h164l776 -1440h-159l-295 547h-350v-547h-127v547h-351l-295 -547h-141l297 547h-643v-547h-143zM1186 655h708l-354 656z" />
<glyph unicode="&#x469;" horiz-adv-x="1888" d="M164 0v967h133v-527h508l338 535h166l614 -975h-145l-226 358h-274v-358h-107v358h-276l-225 -358h-142l226 358h-457v-358h-133zM946 440h555l-276 439z" />
<glyph unicode="&#x46a;" horiz-adv-x="1980" d="M35 0l342 547q31 47 45 67.5t55 59.5t87 57.5t127 36.5t188 25l-537 630h1290l-534 -630q129 -6 219 -28t144.5 -64t77 -68.5t58.5 -85.5l345 -547h-150l-334 549q-35 59 -59 76q-82 59 -346 61v-686h-127v686q-57 0 -106.5 -3t-86.5 -9t-64.5 -10.5t-49 -16.5t-34 -17 t-25.5 -20.5t-17 -19.5t-13.5 -21.5t-11.5 -19.5l-334 -549h-149zM565 1313l422 -498h2l424 498h-848z" />
<glyph unicode="&#x46b;" horiz-adv-x="1654" d="M35 0q322 420 344 444q23 25 57 48q115 74 297 77l-442 398h1073l-444 -398q82 -2 149.5 -19.5t104 -31.5t74.5 -49t45 -43t32 -41l293 -385h-145q-70 98 -166 231q-106 150 -129 178.5t-45 41.5q-63 37 -248 41v-492h-117v492q-166 -6 -217 -27t-92 -80l-279 -385h-145z M524 864q10 -10 139.5 -128t163.5 -163l52 56l251 235h-606z" />
<glyph unicode="&#x46c;" horiz-adv-x="2697" d="M201 0v1423h143v-628h1251l-534 628h1290l-536 -630q129 -6 219 -28t145 -64t77.5 -69.5t59.5 -84.5l342 -547h-149l-334 549q-35 59 -59 76q-82 59 -347 61v-686h-127v686q-154 0 -241.5 -20.5t-111 -43t-46.5 -61.5l-6 -12l-334 -549h-149l342 545q55 92 112 141h-864 v-686h-143zM1282 1313l424 -498h2l424 498h-850z" />
<glyph unicode="&#x46d;" horiz-adv-x="2283" d="M164 0v967h133v-394h1061l-443 394h1076l-445 -398q98 -2 172 -20.5t122 -54t65.5 -53t48.5 -58.5l293 -383h-148q-297 414 -309 426q-55 59 -277 66v-492h-118v492q-115 -4 -175.5 -17.5t-82 -30t-52.5 -59.5l-278 -385h-145l294 385l52 64l53 43h-764v-492h-133z M1149 864q14 -14 141 -128.5t164 -162.5q25 33 305 291h-610z" />
<glyph unicode="&#x46e;" horiz-adv-x="1161" d="M72 -217q0 123 170 184l512 189q104 39 165.5 95t61.5 161q0 43 -10 78.5t-26.5 62.5t-41 47.5t-48.5 34.5t-57.5 24.5t-57 15.5t-56.5 8t-49.5 4t-41 1h-26.5h-149v103h121q180 0 278 90q88 80 88 196q0 270 -293 271q-125 0 -227 -53.5t-125 -168.5l-129 23 q43 244 381 301l-276 266h102l268 -235h2l271 235h102l-274 -264q338 -33 337 -375q0 -27 -4 -53.5t-23.5 -68.5t-51 -77.5t-95 -72.5t-149.5 -62q178 -23 280.5 -113.5t102.5 -248.5q0 -41 -7 -78t-24.5 -66.5t-33 -53t-44 -44t-46 -34t-51.5 -29t-48 -21.5t-49 -18 t-39 -14l-486 -181q-78 -31 -77 -88q2 -59 61 -67l-43 -45q-80 4 -112.5 49t-32.5 92z" />
<glyph unicode="&#x46f;" horiz-adv-x="921" d="M74 745q74 213 370 238h-24h-4q-16 0 -36 10.5t-89 55.5q-72 47 -125 81l-80 54h102l271 -160q39 23 77.5 44.5t62.5 34.5t47.5 26.5t36.5 20.5t25.5 14t20.5 10.5t13.5 5.5t11.5 3t9 1h11h76l-283 -174l-39 -23l-20 -4q186 -2 257 -78t71 -176q0 -111 -162 -186 q209 -74 209 -269q0 -70 -26 -121t-77 -83.5t-93 -50t-107 -35.5q-41 -12 -87.5 -24.5t-75 -20t-60 -17.5t-50 -16t-38 -14.5t-29 -15.5t-17.5 -18.5t-11 -22.5t-3 -28q0 -78 90 -92l-72 -73q-55 4 -91 36.5t-45 63.5t-9 61q0 100 84 160q43 31 257 89.5t263 90.5 q78 53 78 144q0 33 -7 59.5t-23.5 47t-33 35.5t-42 25.5t-44 16.5t-47 10t-42 6t-39 4.5t-27.5 2.5l-90 -2h-111v81h135q121 4 187 29q123 47 122 129q0 70 -55 109q-57 41 -188 41q-207 -4 -262 -146z" />
<glyph unicode="&#x470;" horiz-adv-x="1673" d="M119 1143v104h112q41 0 67 -5t58.5 -39t49.5 -97q14 -49 17 -151.5t11 -192.5t35 -184.5t100.5 -163t194.5 -92.5v1101h137v-1101q336 66 344 520v12q4 209 33 285q35 96 117 106q16 2 51 2h106v-104q-55 -4 -92 -36t-52 -87t-21.5 -104.5t-8.5 -116t-6 -92.5 q-4 -29 -8 -52.5t-19.5 -74t-35 -90t-56 -89t-83 -84t-116 -63.5t-153.5 -37v-217h-137v217q-471 55 -475 651v19q-16 246 -170 256z" />
<glyph unicode="&#x471;" horiz-adv-x="1374" d="M59 881v102q6 0 19.5 1t19.5 1q70 0 120 -24.5t73.5 -63.5t34 -74t10.5 -65q0 -16 -15.5 -155.5t-15.5 -199.5q0 -37 6 -71.5t26.5 -76.5t53.5 -73.5t92.5 -57.5t139.5 -34v1333h129v-1333q315 33 315 313q0 59 -15.5 198.5t-15.5 156.5q0 31 10.5 65.5t34 73.5 t74.5 63.5t121 24.5q6 0 18.5 -1t18.5 -1v-102h-39q-106 0 -107 -125q0 -14 16.5 -147.5t16.5 -205.5q0 -74 -19.5 -137t-65.5 -124.5t-138 -102.5t-223 -53v-328h-131v328q-111 8 -194 39.5t-131 73.5t-78 98.5t-39 104.5t-9 101q0 72 16.5 205t16.5 148q0 125 -107 125 h-39z" />
<glyph unicode="&#x472;" horiz-adv-x="1603" d="M119 709q0 315 201.5 531t480.5 216q276 0 479 -216t203 -531.5t-203 -529.5t-479.5 -214t-479 215.5t-202.5 528.5zM264 686q-2 -86 31 -186.5t94.5 -198.5t170 -162.5t241.5 -64.5q221 0 372.5 176t163.5 436h-1073zM264 795h1073q-12 147 -68.5 260.5t-136 175 t-163.5 91.5t-168 30q-207 0 -362 -148.5t-175 -408.5z" />
<glyph unicode="&#x473;" d="M82 481q0 219 136 369.5t319 150.5q188 0 321 -153.5t133 -366.5q0 -221 -136 -368.5t-318 -147.5q-190 0 -322.5 151.5t-132.5 364.5zM209 469q0 -164 92 -280.5t236 -116.5q123 0 225 102t102 318h-655v-23zM215 573h643q-14 94 -53 162t-88 100.5t-94 47t-88 14.5 q-109 0 -200 -79t-120 -245z" />
<glyph unicode="&#x474;" horiz-adv-x="1527" d="M29 1423h151l490 -1216l26 -74l115 295l326 805q43 104 85 147t111 43h133v-104h-2q-106 0 -138 -15.5t-48 -60.5l-508 -1253h-160z" />
<glyph unicode="&#x475;" horiz-adv-x="1011" d="M29 967h137q250 -674 303 -834l242 666q41 111 75.5 147.5t112.5 36.5h70v-102q-45 0 -66.5 -5.5t-28 -12.5t-14.5 -25l-313 -848h-158z" />
<glyph unicode="&#x476;" horiz-adv-x="1527" d="M29 1423h151l490 -1216l26 -74l115 295l326 805q43 104 85 147t111 43h133v-104h-2q-106 0 -138 -15.5t-48 -60.5l-508 -1253h-160zM131 1743h188l353 -187h-127q-16 0 -119.5 47.5t-200.5 92.5zM489 1743h189l352 -187h-127q-16 0 -119.5 47.5t-197.5 92.5z" />
<glyph unicode="&#x477;" horiz-adv-x="1011" d="M-37 1366h133l307 -264h-84q-20 0 -96 57q-14 12 -260 207zM31 967h137q276 -750 305 -834l238 662q27 70 49 108.5t46.5 56t42 20.5t54.5 3h68v-102q-45 -2 -71 -16.5t-35 -30t-23 -54.5l-293 -790h-158zM319 1366h134l307 -264h-84q-20 0 -96 57q-15 12 -261 207z" />
<glyph unicode="&#x47a;" horiz-adv-x="2031" d="M119 696q0 362 192.5 560t636.5 200q6 55 66 68q33 -4 48 -18.5t19 -49.5q444 -2 637 -197.5t193 -558.5q0 -727 -830 -733q-4 -27 -17 -43t-22.5 -18t-27.5 -6q-61 8 -66 67q-829 6 -829 729zM262 729q0 -379 215 -532q68 -49 159 -77t154.5 -35t157.5 -11v92h133v-92 q164 8 276.5 36.5t212 97t148.5 200t49 325.5q0 98 -13 178t-57 165t-117 141.5t-200 94.5t-299 38v-93h-133v93q-170 0 -296 -36t-199.5 -92.5t-117.5 -140.5t-58.5 -166t-14.5 -186z" />
<glyph unicode="&#x47b;" horiz-adv-x="1314" d="M82 475q0 115 20.5 197t72.5 154.5t156.5 114.5t262.5 50q2 12 6 23.5t7 16.5t12.5 10.5t12.5 6.5t13 5l10 2q53 -8 62 -64q76 -4 133 -13t130 -38t120 -75t84 -128t43 -194l2 -68q0 -115 -29 -202t-75 -139t-114.5 -86t-137 -47t-156.5 -17q-2 -20 -8.5 -32.5t-18.5 -19 t-16 -7.5t-19 -3l-8 2q-6 2 -10 3t-10 4t-11.5 7.5t-10.5 10.5t-8 15t-3 20q-111 4 -195 26.5t-159.5 73.5t-116.5 150.5t-41 240.5zM215 502q0 -207 79 -306.5t300 -105.5v84h123v-84q225 6 303 105.5t78 306.5q0 88 -13.5 148.5t-50.5 118.5t-115.5 88t-201.5 32v-86h-123 v86q-219 -4 -299 -98t-80 -289z" />
<glyph unicode="&#x47c;" horiz-adv-x="1970" d="M166 711q0 178 30.5 314t79 215t114 129t125.5 67.5t126 19.5v-104q-61 -2 -113.5 -30t-104.5 -92.5t-83 -195.5t-31 -315q0 -379 123 -535q86 -111 217 -110q74 0 130.5 14t74.5 24.5t61 39.5v587h138v-587q82 -55 149 -68q49 -10 117 -10q47 0 89 13t90 54t82 108.5 t56.5 188.5t22.5 281q0 182 -31 312t-83 195.5t-104 94.5t-114 31v104q66 -2 125 -18.5t126 -66.5t114 -130t78.5 -216t31.5 -316.5t-32.5 -318.5t-82 -217t-118 -127t-129 -64.5t-125.5 -16.5q-104 0 -176 24.5t-154 90.5h-2q-82 -66 -153.5 -90.5t-176.5 -24.5 q-53 0 -103 12.5t-108.5 40t-105.5 84t-86 134t-61.5 200.5t-22.5 275zM481 1556q41 139 174 219t299 80q47 0 90 -6t79 -17t66 -23.5t55.5 -30t44 -31.5t34.5 -32.5t25.5 -29t19.5 -23.5t12 -15q74 -88 201 -93v-65q-43 0 -82 7t-69.5 21.5t-53 26.5t-45 35t-33 33 t-28 32.5t-19.5 24.5q-100 121 -297 121q-66 0 -129 -16.5t-131.5 -71.5t-99.5 -146h-113zM811 1548q2 86 57.5 132t118.5 46h2q55 0 102.5 -33.5t47.5 -84.5q0 -78 -125 -203l-45 47q82 82 82 115q0 25 -25 43t-55 18q-37 0 -73 -29.5t-40 -95.5z" />
<glyph unicode="&#x47d;" horiz-adv-x="1740" d="M166 510q2 117 30.5 207t70.5 142t99.5 85t108.5 45t109 12v-102q-115 -4 -199 -94t-86 -313v-19q0 -39 3 -77t19.5 -101.5t45 -108.5t88 -79.5t139.5 -34.5q113 0 209 53v448h131v-448q96 -53 208.5 -53t198.5 79.5t97 282.5v60q-2 174 -68.5 286.5t-216.5 118.5v102 q57 0 108.5 -12t108.5 -45t99 -85t71 -142t31 -207l-2 -78q-12 -250 -132 -358.5t-292 -108.5q-86 0 -142.5 16.5t-134.5 61.5q-127 -78 -276 -78q-57 0 -108.5 10.5t-109 42t-99.5 82t-71.5 135t-35.5 197.5zM365 1100q41 141 174 221t301 80q53 0 101 -8.5t84 -19.5 t70.5 -30.5t56.5 -35t45.5 -38t32.5 -33.5t23 -30l15 -18q66 -82 168 -88v-66q-37 0 -71 7.5t-61.5 21.5t-47 25.5t-41 33l-30.5 30.5t-26.5 31.5t-19.5 24.5q-104 127 -299 127q-66 0 -130.5 -17.5t-133 -72.5t-99.5 -145h-112zM696 1094q2 84 55.5 130t120.5 46 q55 0 102.5 -35t47.5 -84q0 -82 -125 -201l-45 47q2 2 14.5 13.5t18.5 18.5t17 19.5t16.5 21.5t10.5 20.5t5 21.5q0 27 -23.5 43t-54.5 16q-20 0 -41.5 -8t-45.5 -37.5t-28 -78.5z" />
<glyph unicode="&#x47e;" horiz-adv-x="1970" d="M166 711q0 178 30.5 314t79 215t114 129t125.5 67.5t126 19.5v-104q-61 -2 -113.5 -30t-104.5 -92.5t-83 -195.5t-31 -315q0 -379 123 -535q86 -111 217 -110q74 0 130.5 14t74.5 24.5t61 39.5v587h138v-587q82 -55 149 -68q49 -10 117 -10q47 0 89 13t90 54t82 108.5 t56.5 188.5t22.5 281q0 182 -31 312t-83 195.5t-104 94.5t-114 31v104q66 -2 125 -18.5t126 -66.5t114 -130t78.5 -216t31.5 -316.5t-32.5 -318.5t-82 -217t-118 -127t-129 -64.5t-125.5 -16.5q-104 0 -176 24.5t-154 90.5h-2q-82 -66 -153.5 -90.5t-176.5 -24.5 q-53 0 -103 12.5t-108.5 40t-105.5 84t-86 134t-61.5 200.5t-22.5 275zM635 1534v289h698v-289h-80v207h-209v-207h-120v207h-209v-207h-80z" />
<glyph unicode="&#x47f;" horiz-adv-x="1740" d="M166 510q2 117 30.5 207t70.5 142t99.5 85t108.5 45t109 12v-102q-115 -4 -199 -94t-86 -313v-19q0 -39 3 -77t19.5 -101.5t45 -108.5t88 -79.5t139.5 -34.5q113 0 209 53v448h131v-448q96 -53 208.5 -53t198.5 79.5t97 282.5v60q-2 174 -68.5 286.5t-216.5 118.5v102 q57 0 108.5 -12t108.5 -45t99 -85t71 -142t31 -207l-2 -78q-12 -250 -132 -358.5t-292 -108.5q-86 0 -142.5 16.5t-134.5 61.5q-127 -78 -276 -78q-57 0 -108.5 10.5t-109 42t-99.5 82t-71.5 135t-35.5 197.5zM518 1077v289h701v-289h-80v209h-211v-209h-119v209h-211v-209 h-80z" />
<glyph unicode="&#x480;" horiz-adv-x="1374" d="M166 692q0 342 174 553t504 211q203 0 397 -70l-27 -141q-63 35 -95 49.5t-110.5 34t-166.5 19.5q-178 0 -301 -84t-179.5 -211t-64.5 -291l-2 -76q8 -469 352 -598q59 -23 171 -41t213.5 -52t191.5 -104q88 -68 88 -151q0 -66 -72 -117l-70 41q2 0 10.5 7t12.5 12.5 t11 12.5t10.5 15t3.5 19q-2 61 -110 106t-281 81t-189 40q-137 43 -234.5 124t-146.5 184.5t-69.5 206.5t-20.5 220z" />
<glyph unicode="&#x481;" horiz-adv-x="944" d="M82 561l2 66q16 207 127 338t321 131q119 0 184.5 -24.5t153.5 -82.5l-20 -112q-61 45 -87 61t-88.5 34.5t-144.5 18.5q-328 0 -327 -454q0 -272 178 -373q39 -20 144.5 -49t191.5 -74t133 -125q33 -55 33 -115q0 -61 -38 -108t-114 -51l-55 57q86 6 86 92 q0 53 -44 100.5t-118 75.5q-18 6 -75.5 22.5t-82 26t-76 28.5t-77 39.5t-65.5 52.5t-59.5 71t-42 90t-31.5 117.5t-9 146.5z" />
<glyph unicode="&#x482;" horiz-adv-x="835" d="M-18 -309l215 186l-117 105l53 59h2l123 -113h2l244 209l-156 142l53 59l164 -148l215 185h2l72 -66l-217 -186l119 -105l-54 -59h-2l-122 113h-3l-243 -209l155 -142l-53 -59h-2l-164 148l-213 -185h-2z" />
<glyph unicode="&#x483;" horiz-adv-x="0" d="M-385 1100v250h117l538 -119v170h115v-250h-117l-538 119v-170h-115z" />
<glyph unicode="&#x484;" horiz-adv-x="0" d="M-1102 1100q41 139 174 220t301 81q106 0 196.5 -34t128.5 -64.5t64 -63.5q6 -8 27 -33.5t28 -35t26.5 -30t32.5 -28.5t33.5 -20.5t42 -17.5t48.5 -7v-66q-39 0 -74 8.5t-64.5 25t-52 30.5t-46 38.5t-35 38t-31 38t-23.5 28.5q-104 127 -301 127q-66 0 -130 -17.5 t-132.5 -72.5t-99.5 -145h-113z" />
<glyph unicode="&#x485;" horiz-adv-x="0" d="M-760 1311q0 6 1 17t11.5 38t26.5 47.5t52 37.5t83 17q72 0 132.5 -43t60.5 -104q0 -92 -129 -221l-45 47q86 90 86 135q0 35 -39 60.5t-78 25.5q-100 0 -115 -102z" />
<glyph unicode="&#x486;" horiz-adv-x="0" d="M-807 1319q0 59 60.5 104t134.5 45q66 0 119 -39.5t55 -117.5l-47 -45q-6 59 -43 80.5t-72 21.5q-41 0 -79 -25.5t-38 -60.5q0 -43 86 -135l-47 -47q-129 129 -129 219z" />
<glyph unicode="&#x488;" horiz-adv-x="0" d="M-2333 541q0 43 31 72.5t72 29.5t71.5 -29.5t30.5 -72.5t-30.5 -73t-71.5 -30t-72 30t-31 73zM-2030 -160q0 43 31 73t72 30q45 0 72.5 -31t27.5 -72t-29.5 -70.5t-70.5 -29.5t-72 28.5t-31 71.5zM-2030 1239q0 43 31 72.5t72 29.5t70.5 -29.5t29.5 -72.5 q0 -41 -29.5 -70.5t-70.5 -29.5t-72 28.5t-31 71.5zM-1298 -449q0 41 30.5 72t71.5 31t71.5 -30t30.5 -73q0 -41 -30.5 -71.5t-71.5 -30.5t-71.5 29.5t-30.5 72.5zM-1298 1530q0 41 30.5 70.5t71.5 29.5t71.5 -28.5t30.5 -71.5q0 -41 -30.5 -72t-71.5 -31t-71.5 30t-30.5 73 zM-567 -158q0 41 29.5 71t72.5 30q45 0 74 -31t29 -72q0 -43 -31 -71.5t-72 -28.5q-43 0 -72.5 30.5t-29.5 71.5zM-567 1239q0 43 29.5 72.5t72.5 29.5q41 0 72 -28.5t31 -71.5t-31 -72.5t-72 -29.5t-71.5 28.5t-30.5 71.5zM-264 541q0 43 29.5 72.5t72.5 29.5t73 -31.5 t30 -70.5q0 -41 -29 -72t-72 -31q-45 0 -74.5 31t-29.5 72z" />
<glyph unicode="&#x489;" horiz-adv-x="0" d="M-2437 614q0 12 12 19h6q10 -2 18.5 -14.5t26 -37t41.5 -49.5q2 59 35 85t68 26q45 0 73.5 -30.5t28.5 -71.5q0 -39 -27.5 -70t-72.5 -31q-66 0 -137.5 68.5t-71.5 105.5zM-2134 -231q6 14 18 14q2 0 40 -9.5t79 -9.5q-33 39 -33 76q0 41 30 72t73 31q41 0 70.5 -30 t29.5 -73q0 -61 -56 -88.5t-124 -27.5q-125 0 -127 45zM-2048 1325q0 113 37 119q20 0 20 -21q0 -2 -7 -31.5t-7 -66.5v-18q39 35 78 34q41 0 71.5 -28.5t30.5 -71.5t-29.5 -72.5t-72.5 -29.5q-63 0 -92 59t-29 127zM-1296 -449q0 45 30.5 73t71.5 28q43 0 71.5 -30 t28.5 -68q0 -63 -70.5 -135t-109.5 -72q-12 0 -20 14v4q2 10 13 17.5t37.5 25t53.5 41.5q-59 2 -82.5 34.5t-23.5 67.5zM-1296 1528q0 63 70.5 135t109.5 72q10 0 18 -15v-6q-2 -10 -14 -17t-38 -23.5t-52 -41.5q59 -2 83.5 -35.5t24.5 -66.5q0 -45 -30.5 -74t-71.5 -29 q-43 0 -71.5 31t-28.5 70zM-565 -158q0 43 30.5 72t69.5 29q63 0 92 -59.5t29 -129.5q0 -115 -41 -116q-16 6 -16 18q0 4 8 38t8 66v15q-39 -35 -80 -35q-45 0 -72.5 30.5t-27.5 71.5zM-565 1239q0 66 57 92.5t123 26.5q125 0 127 -45q-6 -14 -16 -15q-2 0 -41 9.5t-80 9.5 q33 -39 33 -78q0 -45 -31 -72.5t-72 -27.5q-39 0 -69.5 28.5t-30.5 71.5zM-264 541q0 35 28.5 67.5t75.5 32.5q61 0 134 -67.5t73 -106.5q0 -8 -14 -18h-6q-10 2 -18.5 14t-26 36.5t-41.5 49.5q-2 -59 -35 -85t-68 -26q-45 0 -73.5 31t-28.5 72z" />
<glyph unicode="&#x48a;" horiz-adv-x="1441" d="M201 0v1423h135v-1241l2 -67l704 1308h197v-1314h125v-451h-115v342h-145v1241l-2 68l-705 -1309h-196zM371 1823h102q6 -96 82 -146.5t166 -50.5q88 0 164 49t82 148h104q-4 -141 -108.5 -225.5t-241.5 -84.5q-135 0 -240.5 84.5t-109.5 225.5z" />
<glyph unicode="&#x48b;" horiz-adv-x="1091" d="M166 0v967h125v-742l2 -110l442 852h187v-865h108v-387h-115v285h-118v741l-2 111l-443 -852h-186zM195 1366h102q4 -53 32.5 -91t71.5 -55.5t77 -23.5t65 -6q43 0 91 10t100 53t57 113h102q-4 -135 -109.5 -212t-240.5 -77t-239.5 78t-108.5 211z" />
<glyph unicode="&#x48c;" horiz-adv-x="1646" d="M-6 1106v102h450v215h138v-215h749v-102h-749v-311h383q145 0 258.5 -39t177 -100.5t95.5 -128t32 -130.5q0 -66 -31 -131t-94.5 -126.5t-179 -100.5t-265.5 -39h-514v1106h-450zM582 109h325q203 0 336 75q150 84 150 213q0 104 -122 196.5t-362 92.5h-325l-2 -80v-497z " />
<glyph unicode="&#x48d;" d="M39 864v103h194v399h127v-399h414v-103h-414v-291h232q213 0 311 -87t98 -191q0 -51 -15 -96t-54 -93.5t-122 -77t-202 -28.5h-375v864h-194zM360 106h203q215 0 281 91q33 45 33 100q0 72 -75 133.5t-229 61.5h-213v-386z" />
<glyph unicode="&#x48e;" horiz-adv-x="1347" d="M201 0v1423h487q174 0 297 -61q92 -47 167 -137t75 -213q0 -201 -226 -338l224 -189l-68 -79l-264 223q-82 -25 -199 -25h-350v-604h-143zM342 711h369l75 6l-163 139l69 78l217 -184q182 80 183 262q0 51 -17.5 99t-60.5 96t-131 77t-213 29h-328v-602z" />
<glyph unicode="&#x48f;" horiz-adv-x="1058" d="M164 -342v1309h129v-140q129 156 311 156q156 0 256.5 -148.5t100.5 -349.5q0 -117 -52 -249l189 -158l-68 -78l-174 145q-117 -162 -295 -161q-150 0 -258 143q-4 6 -6 8v-477h-133zM295 254q0 -45 56.5 -106.5t144.5 -61.5q158 0 258 147l-222 187l68 78l201 -170 q29 82 28 157q0 170 -95 282t-216 112t-201 -107q-16 -25 -18 -34t-2 -42v-420q0 -4 -1 -12t-1 -10z" />
<glyph unicode="&#x490;" horiz-adv-x="1189" d="M201 0v1423h784v340h115v-450h-756v-1313h-143z" />
<glyph unicode="&#x491;" horiz-adv-x="854" d="M164 0v967h524v182h111v-285h-502v-864h-133z" />
<glyph unicode="&#x492;" horiz-adv-x="1161" d="M39 688v103h162v632h868v-110h-725v-522h248v-103h-248v-688h-143v688h-162z" />
<glyph unicode="&#x493;" horiz-adv-x="854" d="M39 492v81h125v394h633v-101h-502v-293h215v-81h-215v-492h-131v492h-125z" />
<glyph unicode="&#x494;" horiz-adv-x="1476" d="M201 0v1423h938v-110h-795v-522h287q203 0 351 -46.5t247 -162.5q127 -152 127 -379q0 -233 -145.5 -406.5t-381.5 -173.5q-121 0 -258 35l31 117q8 -4 29.5 -11.5t29 -10.5t23.5 -8t24.5 -6t24 -4t28.5 -4t31.5 -2t41.5 -1q168 0 277.5 140t109.5 331q0 72 -18.5 140.5 t-68 146t-155 132t-256.5 66.5q-41 4 -125 4h-254v-688h-143z" />
<glyph unicode="&#x495;" horiz-adv-x="1126" d="M164 0v967h635v-101h-502v-293h227q111 0 197 -25.5t139 -68.5t87 -103.5t46.5 -123t12.5 -133.5q0 -174 -89.5 -307.5t-238.5 -163.5q-31 -6 -92 -6h-4q-88 0 -176 16l28 111q96 -23 162 -23q141 0 213 117t72 254q0 160 -86 267.5t-293 107.5h-205v-492h-133z" />
<glyph unicode="&#x496;" horiz-adv-x="2338" d="M88 0l604 860l-573 563h166l815 -798v798h135v-798l813 798h168l-574 -563l527 -751h90v-451h-115v342h-55l-539 768h-2l-313 -309v-459h-135v459l-316 309l-540 -768h-156z" />
<glyph unicode="&#x497;" horiz-adv-x="1536" d="M35 0l411 602l-362 365h162l459 -463v463h122v-465l461 465h162l-363 -367l340 -498h72v-387h-115v285h-28l-352 516l-177 -176v-340h-122v342l-177 174l-350 -516h-143z" />
<glyph unicode="&#x498;" horiz-adv-x="1314" d="M106 168l60 104q74 -63 99.5 -82.5t89 -56.5t133 -48t169.5 -11q195 0 312.5 93t117.5 214q0 113 -108.5 206t-286.5 101h-274v103h153q121 0 183 14q106 25 192 95.5t86 174.5q0 154 -97 213.5t-267 59.5q-90 0 -162 -14.5t-132.5 -46.5t-91 -54.5t-85.5 -67.5l-66 115 q135 98 256 137t283 39q104 0 186 -16.5t154.5 -55t112.5 -116.5t40 -191q0 -27 -5 -53.5t-27.5 -69.5t-61.5 -78.5t-112.5 -72.5t-174.5 -60q182 -27 311.5 -125t129.5 -239q0 -158 -154 -286t-414 -128q-193 0 -300.5 43t-248.5 160zM459 -377l157 340h103l-141 -340h-119 z" />
<glyph unicode="&#x499;" horiz-adv-x="956" d="M59 119l47 104q43 -41 65 -59.5t95.5 -47t159.5 -28.5q178 0 255 62.5t77 140.5q0 20 -6.5 42.5t-25.5 54.5t-68.5 57.5t-120.5 37.5q-47 8 -140 9h-100v81h109q4 0 16 -1t16 -1q125 0 212 45.5t87 116.5q0 156 -313 156q-109 0 -159 -15.5t-148 -70.5l-47 102 q98 53 166.5 70.5t187.5 17.5q264 0 362 -92q72 -68 72 -164q0 -18 -5 -34.5t-10 -30t-18.5 -26.5t-22.5 -22.5t-27.5 -20.5t-28 -17t-31 -16.5t-28.5 -13.5t-29.5 -11t-24.5 -10q125 -33 187.5 -100.5t62.5 -147.5q0 -51 -20.5 -99.5t-67.5 -96.5t-142.5 -77.5 t-226.5 -29.5q-211 0 -367 135zM209 -377l156 340h104l-143 -340h-117z" />
<glyph unicode="&#x49a;" horiz-adv-x="1441" d="M205 0v1423h135v-798l815 798h166l-573 -563l526 -751h90v-451h-115v342h-53l-541 768l-315 -309v-459h-135z" />
<glyph unicode="&#x49b;" horiz-adv-x="997" d="M166 0v967h123v-465l461 465h161l-362 -367l340 -498h72v-387h-115v285h-29l-352 516l-176 -176v-340h-123z" />
<glyph unicode="&#x49c;" horiz-adv-x="1654" d="M205 0v1423h135v-505h313v288h105v-288h55l549 505h172l-612 -565v-2l643 -856h-160l-608 813h-39v-317h-105v317h-313v-813h-135z" />
<glyph unicode="&#x49d;" horiz-adv-x="1271" d="M166 0v967h125v-326h301v193h82v-193h28l322 326h162l-363 -365l410 -602h-141l-383 561h-35v-211h-82v211h-301v-561h-125z" />
<glyph unicode="&#x49e;" horiz-adv-x="1441" d="M39 1067v102h164v254h137v-254h248v-102h-248v-442l813 798h166l-574 -563l605 -860h-156l-539 768h-2l-313 -309v-459h-137v1067h-164z" />
<glyph unicode="&#x49f;" horiz-adv-x="1058" d="M39 1143v104h129v176h123v-176h203v-104h-203v-649l512 473h168l-396 -367l447 -600h-148l-385 520h-2l-198 -184v-336h-121v1143h-129z" />
<glyph unicode="&#x4a0;" horiz-adv-x="1910" d="M76 1313v110h733v-798l813 798h166l-574 -563l605 -860h-156l-539 768h-2l-313 -309v-459h-137v1313h-596z" />
<glyph unicode="&#x4a1;" horiz-adv-x="1271" d="M53 864v103h510v-465l461 465h162l-363 -365l412 -602h-143l-353 516l-176 -176v-340h-123v864h-387z" />
<glyph unicode="&#x4a2;" horiz-adv-x="1454" d="M201 0v1423h143v-628h752v628h143v-1317h135v-448h-114v342h-164v686h-752v-686h-143z" />
<glyph unicode="&#x4a3;" horiz-adv-x="1097" d="M166 0v967h125v-394h506v394h125v-865h112v-387h-114v285h-123v492h-506v-492h-125z" />
<glyph unicode="&#x4a4;" horiz-adv-x="1910" d="M201 0v1423h143v-628h752v628h737v-110h-594v-1313h-143v686h-752v-686h-143z" />
<glyph unicode="&#x4a5;" horiz-adv-x="1366" d="M166 0v967h125v-394h506v394h512v-103h-385v-864h-127v492h-506v-492h-125z" />
<glyph unicode="&#x4a6;" horiz-adv-x="2213" d="M201 0v1423h1038v-632h152q94 0 153.5 -3.5t151.5 -24t168 -61.5q92 -49 154.5 -118.5t89 -144t36.5 -130t10 -108.5q0 -225 -142 -401.5t-384 -176.5q-123 0 -260 35l31 117q8 -2 27.5 -9.5t25.5 -9.5t21.5 -8t21.5 -7t20.5 -4t24.5 -4t25.5 -3t32 -2h34.5 q174 0 280.5 141t106.5 328q0 80 -24.5 154.5t-79.5 148t-164 123t-258 61.5q-43 4 -129 4h-125v-688h-143v1313h-752v-1313h-143z" />
<glyph unicode="&#x4a7;" horiz-adv-x="1585" d="M166 0v967h758v-394h59q258 0 377 -137q102 -119 102 -317q0 -174 -89 -307.5t-238 -163.5q-31 -6 -91 -6h-6q-88 0 -176 16l31 111q84 -20 160 -21q133 0 209.5 108.5t76.5 262.5q0 74 -17 135t-57 117.5t-117 88.5t-185 32h-39v-492h-127v864h-506v-864h-125z" />
<glyph unicode="&#x4a8;" horiz-adv-x="1673" d="M119 709q0 119 14 215t57 195.5t113 168t187.5 114.5t275.5 54h74q246 0 424 -92l-68 -90q-96 47 -174 62.5t-205 15.5q-137 0 -239.5 -34t-162 -87t-95 -136t-47 -165t-11.5 -191q0 -190 34 -322t134 -222q125 -113 395 -121l82 2q-129 180 -129 459q0 293 98.5 406.5 t297.5 113.5q215 0 296.5 -94.5t81.5 -264.5q0 -113 -17 -208t-41 -159.5t-63.5 -118.5t-69.5 -84t-77 -57.5t-65.5 -34.5t-55.5 -22q174 -74 449 -73v-105q-406 0 -598 143q-135 -12 -180 -12q-207 0 -351.5 55.5t-221.5 161t-109.5 232.5t-32.5 295zM895 532 q0 -291 149 -440q80 18 142.5 53t102.5 75t67.5 96.5t42 99.5t21.5 104.5t8.5 93t1.5 80.5q0 123 -48.5 189.5t-197.5 68.5h-4q-76 0 -128.5 -20.5t-83 -53t-47 -87t-21.5 -107.5t-5 -131v-21z" />
<glyph unicode="&#x4a9;" d="M82 461v18q0 70 4 119t28.5 131t68.5 133t135.5 91t218.5 40q135 0 247 -51l-59 -90q-90 37 -203 37q-86 0 -147.5 -27.5t-91 -62.5t-46 -93.5t-19.5 -95.5t-3 -90q0 -78 3 -125t20.5 -111.5t49 -100.5t93 -63.5t149.5 -29.5q-45 119 -45 248v20q0 51 2 87t16.5 90.5 t40 89t77 60.5t122.5 26q139 0 193.5 -62.5t54.5 -175.5q0 -106 -21.5 -189t-47 -127t-72.5 -80t-68.5 -46.5t-66.5 -26.5q59 -39 119.5 -56.5t179.5 -19.5v-84q-289 0 -418 142q-53 -2 -59 -2q-254 0 -354.5 128t-100.5 349zM588 371q0 -168 49 -273q133 23 185 116t52 261 q0 72 -26.5 111t-108.5 39q-53 0 -85.5 -20.5t-46 -63.5t-16.5 -77t-3 -93z" />
<glyph unicode="&#x4aa;" horiz-adv-x="1374" d="M166 710.5q0 194.5 83 363.5t241.5 275.5t355.5 106.5q195 0 395 -70l-27 -141q-63 35 -99 51.5t-111.5 34t-159.5 17.5q-229 0 -382 -187.5t-153 -449.5q0 -258 151.5 -447.5t385.5 -189.5q104 0 185 21.5t110.5 36.5t111.5 67l11 -119q-74 -41 -115 -60.5t-121 -37 t-182 -17.5q-197 0 -355.5 106.5t-241.5 275.5t-83 363.5zM627 -377l155 340h103l-142 -340h-116z" />
<glyph unicode="&#x4ab;" horiz-adv-x="956" d="M94 485q0 205 127 356.5t326 151.5q106 0 172.5 -18.5t163.5 -69.5l-21 -112q-6 4 -23.5 14t-23.5 14t-23.5 12.5t-25.5 12.5t-25.5 11t-31 10t-33 8.5t-37.5 6.5t-41 3t-47 2q-154 0 -239 -110.5t-85 -289.5q2 -195 95.5 -296t220.5 -101q84 0 158.5 26.5t106.5 49 t77 61.5l10 -114q-158 -129 -354 -129q-186 0 -316.5 146t-130.5 355zM330 -377l155 340h103l-142 -340h-116z" />
<glyph unicode="&#x4ac;" horiz-adv-x="1484" d="M76 1313v110h1329v-110h-592v-1204h131v-451h-115v342h-159v1313h-594z" />
<glyph unicode="&#x4ad;" horiz-adv-x="1007" d="M53 864v103h899v-103h-383v-762h125v-387h-114v285h-144v864h-383z" />
<glyph unicode="&#x4ae;" horiz-adv-x="1382" d="M4 1423h174l520 -723l521 723h155l-614 -854v-569h-142v569z" />
<glyph unicode="&#x4af;" horiz-adv-x="937" d="M4 967h141l203 -502q100 -260 121 -332q12 74 324 834h137l-381 -926l-14 -41l-3 -45v-297h-129v297l-2 45z" />
<glyph unicode="&#x4b0;" horiz-adv-x="1382" d="M4 1423h174l520 -723l521 723h155l-614 -854h317v-104h-317v-465h-142v465h-317v104h317z" />
<glyph unicode="&#x4b1;" horiz-adv-x="937" d="M4 967h141l203 -502q100 -260 121 -332q12 74 324 834h137l-398 -967h203v-102h-203v-240h-129v240h-204v102h204z" />
<glyph unicode="&#x4b2;" horiz-adv-x="1382" d="M29 0l571 752l-541 671h174l441 -563l422 563h164l-512 -673l512 -637h90v-455h-113v342h-61l-502 651l-479 -651h-166z" />
<glyph unicode="&#x4b3;" horiz-adv-x="937" d="M0 0l403 498v2l-391 467h148l303 -375l293 375h145l-381 -469l330 -396h88v-387h-115v285h-32l-328 424h-2l-316 -424h-145z" />
<glyph unicode="&#x4b4;" horiz-adv-x="1923" d="M10 1313v110h1221v-110h-539v-1200h873v1310h143v-1310h135v-455h-114v342h-1180v1313h-539z" />
<glyph unicode="&#x4b5;" horiz-adv-x="1406" d="M53 864v103h731v-103h-303v-758h625v861h125v-865h115v-387h-115v285h-875v864h-303z" />
<glyph unicode="&#x4b6;" horiz-adv-x="1454" d="M201 920v503h143v-493q0 -61 27 -103q63 -92 217 -92h508v688h143v-1317h129v-448h-113v342h-159v629h-508q-176 0 -303 116q-84 77 -84 175z" />
<glyph unicode="&#x4b7;" horiz-adv-x="1097" d="M166 641v326h125v-324q0 -53 18 -80q43 -59 140 -59h348v463h125v-865h114v-387h-114v285h-125v424h-334q-141 0 -238 84q-59 51 -59 133z" />
<glyph unicode="&#x4b8;" horiz-adv-x="1441" d="M201 920v503h143v-491q0 -106 70.5 -151.5t171.5 -45.5h84v303h102v-303h324v688h143v-1423h-143v629h-324v-301h-102v301h-72q-137 6 -223 53q-49 27 -92 66q-82 76 -82 172z" />
<glyph unicode="&#x4b9;" horiz-adv-x="1091" d="M166 641v326h125v-332q0 -131 164 -131h49v203h82v-203h211v463h125v-967h-125v424h-211v-201h-82v201h-47q-121 0 -213 70q-37 27 -54.5 53t-20.5 44.5t-3 49.5z" />
<glyph unicode="&#x4ba;" horiz-adv-x="1441" d="M201 0v1423h143v-491q102 98 188 139q121 57 269 57q121 0 208 -31.5t131 -74.5t67.5 -109.5t27.5 -108.5t4 -99v-705h-143v694q0 162 -83 247t-294 85q-166 0 -260 -115.5t-111 -265.5q-4 -31 -4 -92v-553h-143z" />
<glyph unicode="&#x4bb;" horiz-adv-x="1058" d="M164 0v1423h129v-561l2 -88q33 78 107.5 143.5t195.5 65.5q82 0 140.5 -24.5t87 -57.5t45 -86t18.5 -87t2 -83v-645h-131v637q0 37 -1 59.5t-13.5 61.5t-35 62.5t-68.5 42t-112 18.5q-92 0 -162.5 -75t-70.5 -269v-537h-133z" />
<glyph unicode="&#x4bc;" horiz-adv-x="1673" d="M39 969q0 31 20 71l115 66q-18 -45 -18 -70q0 -61 53 -117.5t149 -74.5q37 248 210 430t423 182q80 0 156 -15.5t164 -63.5t151.5 -123.5t106.5 -209t43 -305.5h-1123q0 -2 -1 -10t-1 -10q0 -285 160 -467t375 -182q279 0 569 157l8 -112q-279 -150 -573 -150 q-291 0 -484.5 221.5t-193.5 524.5q0 6 1 16t1 16q-94 12 -161.5 43t-96.5 67t-41 64.5t-12 51.5zM498 840h981q-27 227 -127 352q-129 162 -363 162q-182 0 -320 -145.5t-171 -368.5z" />
<glyph unicode="&#x4bd;" horiz-adv-x="1155" d="M47 655q0 29 16.5 43.5t83.5 53.5l-10 -39q18 -94 158 -117l2 2q29 172 145.5 282.5t266.5 110.5q49 0 95 -10t99 -42t92 -82t65.5 -139t26.5 -206h-677v-16q0 -186 99 -298t230 -112q176 0 334 141l8 -112q-154 -131 -342 -131t-320 147.5t-132 353.5v29 q-100 10 -170 46t-70 95zM420 594h557q-14 137 -86 216t-182 79q-104 0 -185 -84t-104 -211z" />
<glyph unicode="&#x4be;" horiz-adv-x="1673" d="M39 969q0 31 20 71l115 66q-18 -45 -18 -70q0 -61 53 -117.5t149 -74.5q37 248 209 430t424 182q80 0 156 -15.5t164 -63.5t151.5 -123.5t106.5 -209t43 -305.5h-1123q0 -2 -1 -10t-1 -10q0 -285 160 -467t375 -182q279 0 569 157l8 -112q-117 -61 -219 -93t-168.5 -41.5 t-72.5 -11.5q-35 -12 -72 -57t-37 -92q0 -29 16.5 -57.5t53.5 -28.5q31 0 131 43l26 -99q-119 -53 -182 -53q-78 0 -111.5 56.5t-33.5 115.5q0 94 92 168q-289 2 -481.5 222.5t-192.5 521.5q0 6 1 17t1 17q-94 12 -161.5 43t-96.5 67t-41 64.5t-12 51.5zM498 840h981 q-29 231 -127 352q-131 162 -363 162q-182 0 -320 -145.5t-171 -368.5z" />
<glyph unicode="&#x4bf;" horiz-adv-x="1155" d="M47 655q0 29 16.5 43.5t83.5 53.5l-10 -39q18 -94 158 -117l2 2q29 172 145.5 282.5t266.5 110.5q49 0 95 -10t99 -42t92 -82t65.5 -139t26.5 -206h-677v-16q0 -184 100 -297t231 -113q174 0 332 141l8 -112q-33 -29 -120 -80t-131 -97.5t-44 -109.5q0 -33 19.5 -64.5 t62.5 -31.5q37 0 142 45l26 -99q-111 -53 -190 -53q-84 0 -122 55.5t-38 118.5q0 106 94 187q-14 -2 -41 -2q-188 0 -320 147.5t-132 353.5v29q-100 10 -170 46t-70 95zM420 594h557q-14 139 -87 217t-181 78q-104 0 -185 -84t-104 -211z" />
<glyph unicode="&#x4c0;" horiz-adv-x="546" d="M201 0v1423h143v-1423h-143z" />
<glyph unicode="&#x4c1;" horiz-adv-x="2338" d="M88 0l604 860l-573 563h166l815 -798v798h135v-798l813 798h168l-574 -563l605 -860h-158l-539 768h-2l-313 -309v-459h-135v459l-316 309l-540 -768h-156zM817 1823h103q6 -102 79.5 -161.5t167.5 -59.5q92 0 166 58t80 163h105q-4 -150 -107.5 -242t-243.5 -92 q-137 0 -241.5 92t-108.5 242z" />
<glyph unicode="&#x4c2;" horiz-adv-x="1536" d="M35 0l411 602l-362 365h162l459 -463v463h122v-465l461 465h162l-363 -367l412 -600h-143l-352 516l-177 -176v-340h-122v342l-177 174l-350 -516h-143zM416 1366h102q4 -70 56.5 -113t100.5 -53t91 -10q31 0 64.5 6t76.5 23.5t72 55.5t33 91h104q-4 -135 -109.5 -212 t-240.5 -77q-137 0 -241.5 77t-108.5 212z" />
<glyph unicode="&#x4c3;" horiz-adv-x="1441" d="M205 0v1423h135v-632h172l643 632h166l-641 -632q176 0 310 -40t212 -99.5t126 -142.5t63.5 -155.5t15.5 -152.5q0 -238 -147.5 -408t-376.5 -170q-123 0 -260 35l30 117q8 -4 30 -11.5t29 -10.5t23.5 -8t24.5 -6t23.5 -4t28.5 -4t31.5 -2t41.5 -1q172 0 279.5 141 t107.5 328q0 82 -23.5 155.5t-78 148t-165 125t-264.5 60.5q-39 2 -118 2h-283v-688h-135z" />
<glyph unicode="&#x4c4;" horiz-adv-x="1058" d="M166 0v967h125v-394h86l426 394h168l-426 -394q133 -2 227 -43t142.5 -109.5t69 -142t20.5 -159.5q0 -188 -96.5 -316.5t-227.5 -154.5q-31 -6 -94 -6h-6q-86 0 -174 16l28 111q96 -23 162 -23q141 0 213 117t72 254q0 160 -86 267.5t-293 107.5h-211v-492h-125z" />
<glyph unicode="&#x4c5;" horiz-adv-x="1464" d="M41 0v109h80q51 0 81.5 9t70.5 46t72 123t58 223q74 391 74 913h774v-1314h135l-135 -451h-125l103 342h-121v1313h-518q0 -498 -92 -916q-51 -233 -130 -315t-192 -82h-135z" />
<glyph unicode="&#x4c6;" horiz-adv-x="1069" d="M41 0v109h82q33 0 52.5 5t50 31.5t50 77.5t37 152.5t23.5 245.5q4 63 6 346h553v-865h113l-113 -387h-125l82 285h-82v864h-315q0 -389 -68 -610q-78 -254 -260 -254h-86z" />
<glyph unicode="&#x4c7;" horiz-adv-x="1441" d="M201 0v1423h143v-628h752v628h143v-1523q0 -123 -96 -200t-244 -77q-104 0 -209 35l31 117q90 -41 180 -41q76 0 135.5 39t59.5 137v776h-752v-686h-143z" />
<glyph unicode="&#x4c8;" horiz-adv-x="1091" d="M166 0v967h125v-394h506v394h125v-1059q0 -125 -74 -195.5t-195 -70.5q-55 0 -153 16l30 111q68 -23 121 -23q145 0 146 162v584h-506v-492h-125z" />
<glyph unicode="&#x4c9;" horiz-adv-x="1454" d="M201 0v1423h143v-628h752v628h143v-1317h135l-135 -448h-127l105 342h-121v686h-752v-686h-143z" />
<glyph unicode="&#x4ca;" horiz-adv-x="1097" d="M166 0v967h125v-394h506v394h125v-865h112l-112 -387h-125l82 285h-82v492h-506v-492h-125z" />
<glyph unicode="&#x4cb;" horiz-adv-x="1441" d="M201 920v503h143v-493q0 -61 27 -103q66 -92 219 -92h506v688h143v-1423h-158v-342h-114v451h129v520h-508q-174 0 -301 114q-86 77 -86 177z" />
<glyph unicode="&#x4cc;" horiz-adv-x="1091" d="M166 641v326h125v-324q0 -53 18 -80q43 -59 140 -59h348v463h125v-967h-125v-285h-115v387h115v322h-334q-141 0 -238 84q-59 51 -59 133z" />
<glyph unicode="&#x4cd;" horiz-adv-x="1820" d="M207 0v1423h188l414 -1015l94 -242l29 82l475 1175h190v-1314h144l-144 -451h-124l108 342h-113v1290l-159 -409l-346 -846h-123l-430 1059l-74 196v-1290h-129z" />
<glyph unicode="&#x4ce;" horiz-adv-x="1370" d="M166 0v967h182l330 -805h2l330 805h188v-865h113l-113 -387h-127l84 285h-86v727l-2 109l-47 -129l-283 -691h-116l-271 666l-55 154v-836h-129z" />
<glyph unicode="&#x4d0;" horiz-adv-x="1382" d="M59 0l553 1440h156l553 -1440h-150l-165 430h-650l-163 -430h-134zM330 1823h102q6 -104 81 -162.5t167 -58.5t166 58t80 163h104q-4 -150 -108.5 -242t-241.5 -92q-139 0 -242.5 92t-107.5 242zM399 539h566l-250 659l-33 92z" />
<glyph unicode="&#x4d1;" horiz-adv-x="1007" d="M113 236q0 51 26.5 99t87 96t184.5 78t298 34v86q0 133 -56 196q-59 72 -151 72q-76 0 -147.5 -21.5t-95 -36t-81.5 -48.5l-10 114q166 88 336 88q154 0 240.5 -95t95.5 -212l2 -70v-616h-129v141q-127 -158 -359 -157h-14q-113 0 -170 82t-57 170zM186 1366h105 q4 -53 32.5 -91t71.5 -55.5t77 -23.5t65 -6q43 0 91 10t100 53t56 113h103q-4 -135 -109.5 -212t-240.5 -77q-137 0 -242 77t-109 212zM240 240q0 -74 64.5 -114t146.5 -40q37 0 75.5 9t82.5 29.5t72 66t28 106.5v182q-207 -2 -338 -67.5t-131 -171.5z" />
<glyph unicode="&#x4d2;" horiz-adv-x="1382" d="M59 0l553 1440h156l553 -1440h-150l-165 430h-650l-163 -430h-134zM399 539h566l-250 659l-33 92zM418 1669v129h129v-129h-129zM836 1669v129h129v-129h-129z" />
<glyph unicode="&#x4d3;" horiz-adv-x="1007" d="M113 236q0 51 26.5 99t87 96t184.5 78t298 34v86q0 133 -56 196q-59 72 -151 72q-76 0 -147.5 -21.5t-95 -36t-81.5 -48.5l-10 114q166 88 336 88q154 0 240.5 -95t95.5 -212l2 -70v-616h-129v141q-127 -158 -359 -157h-14q-113 0 -170 82t-57 170zM240 240 q0 -74 64.5 -114t146.5 -40q37 0 75.5 9t82.5 29.5t72 66t28 106.5v182q-207 -2 -338 -67.5t-131 -171.5zM264 1214v129h129v-129h-129zM682 1214v129h129v-129h-129z" />
<glyph unicode="&#x4d4;" horiz-adv-x="1826" d="M59 0l607 1423h1040v-110h-688v-518h629v-109h-629v-571h719v-115h-860v461h-488l-194 -461h-136zM436 569h441v744h-123z" />
<glyph unicode="&#x4d5;" horiz-adv-x="1552" d="M115 238q0 41 15 80.5t57 81.5t105.5 75t171 54.5t245.5 23.5v76q0 2 -1 18.5t-1 19.5t-1 18t-2.5 20.5t-3.5 18.5t-4 20.5t-6 19.5t-9 20.5t-12 18.5t-16 20q-61 74 -151 74q-78 0 -149.5 -22.5t-96.5 -36t-78 -47.5l-10 114q168 88 338 88q195 0 299 -178q2 -4 4 -6 q129 182 328 182q59 0 114.5 -19.5t111.5 -67.5t90 -148.5t34 -243.5h-645q0 -213 103.5 -319.5t223.5 -106.5q170 0 301 141l9 -112q-137 -131 -312 -131q-223 0 -358 190q-113 -190 -471 -190q-115 0 -169 84t-54 170zM242 242q0 -68 60 -112t149 -44q27 0 62.5 6 t86.5 24.5t85 64.5t34 112q0 2 -10 178q-201 -2 -334 -62.5t-133 -166.5zM852 594h522q-25 176 -100 244q-55 51 -137 51q-92 0 -175 -79t-110 -216z" />
<glyph unicode="&#x4d6;" horiz-adv-x="1280" d="M201 0v1423h958v-110h-815v-518h756v-109h-756v-571h846v-115h-989zM330 1823h104q6 -104 80 -162.5t166 -58.5q94 0 168 58t80 163h102q-4 -150 -108.5 -242t-241.5 -92q-139 0 -242.5 92t-107.5 242z" />
<glyph unicode="&#x4d7;" horiz-adv-x="956" d="M86 492q0 201 121 350t301 149q63 0 121.5 -19.5t120 -66.5t99.5 -148.5t38 -244.5h-678v-16q0 -186 100.5 -298t231.5 -112q174 0 331 141l11 -112q-158 -131 -342 -131q-188 0 -321.5 146.5t-133.5 361.5zM127 1366h102q4 -53 33 -91t72 -55.5t76.5 -23.5t64.5 -6 q43 0 91 10t100.5 53t56.5 113h102q-4 -135 -108.5 -212t-239.5 -77q-137 0 -241.5 77t-108.5 212zM219 594h557q-14 156 -93 225.5t-175 69.5q-104 0 -185 -84t-104 -211z" />
<glyph unicode="&#x4d8;" horiz-adv-x="1433" d="M59 682h1125v27q0 256 -141.5 447.5t-374.5 191.5h-2q-117 0 -196 -13.5t-115 -27t-152 -62.5l-25 141q170 49 248 59.5t270 10.5q256 0 441.5 -217t185.5 -537q0 -336 -175 -536.5t-464 -200.5q-92 0 -176 19.5t-168 70.5t-144.5 130t-98.5 206t-38 291zM195 584 q0 -51 12 -111.5t47 -133.5t87 -131t141 -97t200 -39q49 0 99 9t117 42t120 85t97 149.5t61 226.5h-981z" />
<glyph unicode="&#x4d9;" horiz-adv-x="985" d="M66 475h706q0 170 -89 288t-230 118q-96 0 -152.5 -20.5t-136.5 -74.5l-19 113q55 31 84 44t89.5 26.5t136.5 13.5q195 0 318.5 -148.5t123.5 -351.5q0 -211 -129 -355t-311 -144q-68 0 -129.5 20.5t-124 70.5t-100 152.5t-37.5 247.5zM178 395q4 -115 77 -210t204 -95 q100 0 187 77t120 228h-588z" />
<glyph unicode="&#x4da;" horiz-adv-x="1433" d="M59 682h1125v27q0 256 -141.5 447.5t-374.5 191.5h-2q-117 0 -196 -13.5t-115 -27t-152 -62.5l-25 141q170 49 248 59.5t270 10.5q256 0 441.5 -217t185.5 -537q0 -336 -175 -536.5t-464 -200.5q-92 0 -176 19.5t-168 70.5t-144.5 130t-98.5 206t-38 291zM195 584 q0 -51 12 -111.5t47 -133.5t87 -131t141 -97t200 -39q49 0 99 9t117 42t120 85t97 149.5t61 226.5h-981zM442 1669v129h129v-129h-129zM860 1669v129h129v-129h-129z" />
<glyph unicode="&#x4db;" horiz-adv-x="985" d="M66 475h706q0 170 -89 288t-230 118q-96 0 -152.5 -20.5t-136.5 -74.5l-19 113q55 31 84 44t89.5 26.5t136.5 13.5q195 0 318.5 -148.5t123.5 -351.5q0 -211 -129 -355t-311 -144q-68 0 -129.5 20.5t-124 70.5t-100 152.5t-37.5 247.5zM178 395q4 -115 77 -210t204 -95 q100 0 187 77t120 228h-588zM219 1214v129h129v-129h-129zM637 1214v129h129v-129h-129z" />
<glyph unicode="&#x4dc;" horiz-adv-x="2338" d="M88 0l604 860l-573 563h166l815 -798v798h135v-798l813 798h168l-574 -563l605 -860h-158l-539 768h-2l-313 -309v-459h-135v459l-316 309l-540 -768h-156zM893 1669v129h129v-129h-129zM1311 1669v129h129v-129h-129z" />
<glyph unicode="&#x4dd;" horiz-adv-x="1536" d="M35 0l411 602l-362 365h162l459 -463v463h122v-465l461 465h162l-363 -367l412 -600h-143l-352 516l-177 -176v-340h-122v342l-177 174l-350 -516h-143zM491 1214v129h129v-129h-129zM909 1214v129h129v-129h-129z" />
<glyph unicode="&#x4de;" horiz-adv-x="1314" d="M106 168l60 104q74 -63 99.5 -82.5t89 -56.5t133 -48t169.5 -11q195 0 312.5 93t117.5 214q0 113 -108.5 206t-286.5 101h-274v103h153q121 0 183 14q106 25 192 95.5t86 174.5q0 154 -97 213.5t-267 59.5q-90 0 -162 -14.5t-132.5 -46.5t-91 -54.5t-85.5 -67.5l-66 115 q135 98 256 137t283 39q106 0 187 -16.5t154.5 -55t112.5 -116.5t39 -191q0 -35 -11 -71.5t-45 -89t-118 -98.5t-207 -75q184 -27 312.5 -126t128.5 -238q0 -158 -154 -286t-414 -128q-193 0 -300.5 43t-248.5 160zM383 1669v129h129v-129h-129zM801 1669v129h129v-129h-129 z" />
<glyph unicode="&#x4df;" horiz-adv-x="956" d="M59 119l47 104q43 -41 65 -59.5t95.5 -47t159.5 -28.5q180 0 256 62.5t76 140.5q0 20 -6.5 42.5t-25.5 54.5t-68.5 57.5t-120.5 37.5q-47 8 -140 9h-100v81h109q4 0 16 -1t16 -1q125 0 212 45.5t87 116.5q0 156 -313 156q-109 0 -159 -15.5t-148 -70.5l-47 102 q98 53 166.5 70.5t187.5 17.5q264 0 362 -92q72 -68 72 -164q0 -18 -5 -34.5t-10 -30t-18.5 -26.5t-22.5 -22.5t-27.5 -20.5t-28 -17t-31 -16.5t-28.5 -13.5t-29.5 -11t-24.5 -10q125 -33 187.5 -100.5t62.5 -147.5q0 -51 -20.5 -99.5t-67.5 -96.5t-142.5 -77.5 t-226.5 -29.5q-215 0 -367 135zM203 1214v129h129v-129h-129zM621 1214v129h129v-129h-129z" />
<glyph unicode="&#x4e0;" horiz-adv-x="1161" d="M88 322l131 12l2 -15q2 -16 8.5 -38.5t17.5 -51t36.5 -56.5t61.5 -50.5t94.5 -36.5t129.5 -14q115 0 196 29.5t121 78.5t57.5 97.5t17.5 101.5q0 90 -51.5 169t-166.5 116q-37 12 -192 26l-16 -2h-164v103l563 503h-70l-45 -2h-549l-51 -2h-131v133h1010v-133l-563 -499 v-7q18 4 55 4q201 0 357.5 -117.5t156.5 -293.5q0 -158 -146.5 -285t-384.5 -127q-209 0 -338 88.5t-147 268.5z" />
<glyph unicode="&#x4e1;" horiz-adv-x="921" d="M88 -213l27 111q160 -150 342 -150q133 0 203.5 71.5t70.5 196.5q0 98 -45 161t-101.5 82.5t-123.5 19.5q-18 0 -43 -9h-135v82l438 500h-264l-45 -2h-324v117h770v-117l-403 -459q178 -2 293.5 -112.5t115.5 -260.5q0 -152 -116.5 -264t-292.5 -112q-205 0 -367 145z " />
<glyph unicode="&#x4e2;" horiz-adv-x="1441" d="M201 0v1423h135v-1241l2 -67l704 1308h197v-1423h-135v1241l-2 68l-705 -1309h-196zM340 1692v108h762v-108h-762z" />
<glyph unicode="&#x4e3;" horiz-adv-x="1091" d="M166 0v967h125v-742l2 -110l442 852h187v-967h-125v741l-2 111l-443 -852h-186zM195 1270v110h700v-110h-700z" />
<glyph unicode="&#x4e4;" horiz-adv-x="1441" d="M201 0v1423h135v-1241l2 -67l704 1308h197v-1423h-135v1241l-2 68l-705 -1309h-196zM446 1669v129h129v-129h-129zM864 1669v129h129v-129h-129z" />
<glyph unicode="&#x4e5;" horiz-adv-x="1091" d="M166 0v967h125v-742l2 -110l442 852h187v-967h-125v741l-2 111l-443 -852h-186zM270 1214v129h129v-129h-129zM688 1214v129h129v-129h-129z" />
<glyph unicode="&#x4e6;" horiz-adv-x="1603" d="M119 709q0 315 201.5 531t480.5 216q276 0 479 -216t203 -531.5t-203 -529.5t-479.5 -214t-479 215.5t-202.5 528.5zM262 735q0 -295 160 -478t379 -183q217 0 377.5 180t160.5 481q0 283 -160.5 449t-377.5 166t-378 -165t-161 -450zM528 1669v129h129v-129h-129z M946 1669v129h129v-129h-129z" />
<glyph unicode="&#x4e7;" d="M82 483q0 215 134 361.5t321 146.5q190 0 321 -150.5t131 -357.5q0 -215 -135 -357t-317 -142q-188 0 -321.5 146t-133.5 353zM213 508q0 -127 34 -215t88 -129t103 -57.5t99 -16.5q53 0 105 19.5t103.5 62.5t82 128t30.5 202q0 111 -30.5 190.5t-82 120.5t-103.5 58.5 t-105.5 17.5t-105.5 -17.5t-103.5 -57.5t-83 -118.5t-31.5 -187.5zM262 1214v129h129v-129h-129zM680 1214v129h129v-129h-129z" />
<glyph unicode="&#x4e8;" horiz-adv-x="1603" d="M119 709q0 315 201.5 531t480.5 216q276 0 479 -216t203 -531.5t-203 -529.5t-479.5 -214t-479 215.5t-202.5 528.5zM264 686q-2 -86 31 -186.5t94.5 -198.5t170 -162.5t241.5 -64.5q221 0 372.5 176t163.5 436h-1073zM264 795h1073q-12 147 -68.5 260.5t-136 175 t-163.5 91.5t-168 30q-207 0 -362 -148.5t-175 -408.5z" />
<glyph unicode="&#x4e9;" d="M82 483q0 215 134 361.5t321 146.5q190 0 321 -150.5t131 -357.5q0 -215 -135 -357t-317 -142q-188 0 -321.5 146t-133.5 353zM215 477q0 -172 89 -279.5t233 -107.5q121 0 218 90t103 312h-643v-15zM217 573h637q-8 80 -37 139.5t-63.5 92.5t-77.5 53.5t-76 25.5t-63 5 q-41 0 -83 -11.5t-95.5 -41t-92.5 -97.5t-49 -166z" />
<glyph unicode="&#x4ea;" horiz-adv-x="1603" d="M119 709q0 315 201.5 531t480.5 216q276 0 479 -216t203 -531.5t-203 -529.5t-479.5 -214t-479 215.5t-202.5 528.5zM264 686q-2 -86 31 -186.5t94.5 -198.5t170 -162.5t241.5 -64.5q221 0 372.5 176t163.5 436h-1073zM264 795h1073q-12 147 -68.5 260.5t-136 175 t-163.5 91.5t-168 30q-207 0 -362 -148.5t-175 -408.5zM528 1669v129h129v-129h-129zM946 1669v129h129v-129h-129z" />
<glyph unicode="&#x4eb;" d="M82 483q0 215 134 361.5t321 146.5q190 0 321 -150.5t131 -357.5q0 -215 -135 -357t-317 -142q-188 0 -321.5 146t-133.5 353zM215 477q0 -172 89 -279.5t233 -107.5q121 0 218 90t103 312h-643v-15zM217 573h637q-8 80 -37 139.5t-63.5 92.5t-77.5 53.5t-76 25.5t-63 5 q-41 0 -83 -11.5t-95.5 -41t-92.5 -97.5t-49 -166zM262 1214v129h129v-129h-129zM680 1214v129h129v-129h-129z" />
<glyph unicode="&#x4ec;" horiz-adv-x="1374" d="M106 80l11 119q4 -2 30.5 -18.5t32.5 -19.5t31 -17.5t34 -17.5t33.5 -13.5t40 -13.5t41 -10t49 -9t53.5 -4t62 -2q225 0 369.5 169t165.5 412h-768v111h768q-23 258 -172.5 420t-358.5 162q-86 0 -159.5 -17.5t-112.5 -35t-100 -50.5l-25 141q197 70 395 70 q197 0 354.5 -106.5t240.5 -275.5t83 -363.5t-83 -363.5t-240.5 -275.5t-354.5 -106.5q-102 0 -182 17.5t-123 37t-115 60.5zM262 1669v129h129v-129h-129zM680 1669v129h129v-129h-129z" />
<glyph unicode="&#x4ed;" horiz-adv-x="956" d="M59 113l11 114q45 -39 79.5 -63.5t107.5 -49t155 -24.5q133 0 224 105.5t91 296.5h-541v81h535q-16 100 -56 168t-90.5 96.5t-89.5 39t-79 10.5q-31 0 -59 -2t-46 -4t-43 -9.5t-34 -9.5t-34.5 -14t-30.5 -14.5t-35 -19.5t-34 -19l-20 110q94 51 163.5 69.5t172.5 18.5 q205 0 328.5 -154.5t123.5 -353.5q0 -203 -126 -352t-320 -149q-199 0 -353 129zM203 1214v129h129v-129h-129zM621 1214v129h129v-129h-129z" />
<glyph unicode="&#x4ee;" horiz-adv-x="1382" d="M29 1423h155l375 -675q180 -336 201 -379l24 69l127 297l299 688h140l-402 -921q-4 -10 -24.5 -58.5t-30.5 -70t-31.5 -67.5t-40 -74.5t-43 -64.5t-51.5 -61.5t-55 -46.5q-88 -59 -236 -59h-104v109h114q150 0 224 98q23 29 6 57zM313 1692v108h760v-108h-760z" />
<glyph unicode="&#x4ef;" horiz-adv-x="937" d="M29 967h133l213 -529q88 -233 104 -305q14 98 299 834h129l-403 -1047q-23 -59 -42.5 -97t-53 -85t-81.5 -71.5t-108 -24.5q-74 0 -160 14l-10 115q94 -25 170 -25q33 0 60.5 14.5t43 26.5t36 53t25.5 55.5t28 71.5q8 23 8 35q0 10 -12 39zM119 1270v110h700v-110h-700z " />
<glyph unicode="&#x4f0;" horiz-adv-x="1382" d="M29 1423h155l375 -675q180 -336 201 -379l24 69l127 297l299 688h140l-402 -921q-4 -10 -24.5 -58.5t-30.5 -70t-31.5 -67.5t-40 -74.5t-43 -64.5t-51.5 -61.5t-55 -46.5q-88 -59 -236 -59h-104v109h114q150 0 224 98q23 29 6 57zM420 1669v129h129v-129h-129zM838 1669 v129h129v-129h-129z" />
<glyph unicode="&#x4f1;" horiz-adv-x="937" d="M29 967h133l213 -529q88 -233 104 -305q14 98 299 834h129l-403 -1047q-23 -59 -42.5 -97t-53 -85t-81.5 -71.5t-108 -24.5q-74 0 -160 14l-10 115q94 -25 170 -25q33 0 60.5 14.5t43 26.5t36 53t25.5 55.5t28 71.5q8 23 8 35q0 10 -12 39zM194 1214v129h129v-129h-129z M612 1214v129h129v-129h-129z" />
<glyph unicode="&#x4f2;" horiz-adv-x="1382" d="M29 1423h155l375 -675q180 -336 201 -379l24 69l127 297l299 688h140l-402 -921q-4 -10 -24.5 -58.5t-30.5 -70t-31.5 -67.5t-40 -74.5t-43 -64.5t-51.5 -61.5t-55 -46.5q-88 -59 -236 -59h-104v109h114q150 0 224 98q23 29 6 57zM348 1556l354 187h189q-10 -6 -342 -162 q-10 -4 -21.5 -10t-14.5 -7t-10 -3t-14.5 -3.5t-19.5 -1.5h-121zM707 1556l354 187h188q-10 -6 -342 -162q-10 -4 -21.5 -10t-14.5 -7t-10 -3t-14 -3.5t-20 -1.5h-120z" />
<glyph unicode="&#x4f3;" horiz-adv-x="937" d="M29 967h133l213 -529q88 -233 104 -305q14 98 299 834h129l-403 -1047q-23 -59 -42.5 -97t-53 -85t-81.5 -71.5t-108 -24.5q-74 0 -160 14l-10 115q94 -25 170 -25q33 0 60.5 14.5t43 26.5t36 53t25.5 55.5t28 71.5q8 23 8 35q0 10 -12 39zM176 1102l307 264h133 q-311 -246 -327 -256q-14 -8 -35 -8h-78zM535 1102l307 264h133q-311 -246 -327 -256q-14 -8 -35 -8h-78z" />
<glyph unicode="&#x4f4;" horiz-adv-x="1441" d="M201 920v503h143v-493q0 -106 71.5 -150.5t174.5 -44.5h506v688h143v-1423h-143v629h-508q-174 0 -301 114q-86 77 -86 177zM446 1669v129h129v-129h-129zM864 1669v129h129v-129h-129z" />
<glyph unicode="&#x4f5;" horiz-adv-x="1091" d="M166 641v326h125v-324q0 -53 18 -80q43 -59 140 -59h348v463h125v-967h-125v424h-334q-143 0 -238 84q-59 51 -59 133zM270 1214v129h129v-129h-129zM688 1214v129h129v-129h-129z" />
<glyph unicode="&#x4f6;" horiz-adv-x="1161" d="M201 0v1423h870v-110h-727v-1207h131v-448h-115v342h-159z" />
<glyph unicode="&#x4f7;" horiz-adv-x="854" d="M164 0v967h635v-101h-502v-764h125v-387h-115v285h-143z" />
<glyph unicode="&#x4f8;" horiz-adv-x="1859" d="M203 0v1423h137v-628h381q147 0 262 -39t177.5 -100.5t94 -128t31.5 -130.5q0 -66 -30.5 -131t-94 -126.5t-179.5 -100.5t-265 -39h-514zM340 109h326q203 0 335 75q150 84 150 213q0 104 -122 196.5t-361 92.5h-326l-2 -80v-497zM655 1669v129h129v-129h-129zM1073 1669 v129h129v-129h-129zM1508 0v1423h143v-1423h-143z" />
<glyph unicode="&#x4f9;" horiz-adv-x="1417" d="M166 0v967h125v-394h233q213 0 310.5 -87t97.5 -191q0 -51 -15.5 -96t-54.5 -93.5t-122 -77t-201 -28.5h-373zM291 106h203q217 0 282 91q33 45 33 100q0 72 -75 133.5t-228 61.5h-213l-2 -60v-326zM432 1214v129h129v-129h-129zM850 1214v129h129v-129h-129zM1120 0v967 h129v-967h-129z" />
<glyph unicode="&#x4fc;" horiz-adv-x="1382" d="M29 0l571 752l-541 671h174l441 -563l422 563h164l-512 -673l483 -598q37 -45 55.5 -72t41 -82t22.5 -109q0 -100 -89.5 -183t-254.5 -83q-98 0 -211 35l30 117q92 -41 183 -41q80 0 133 44t53 124q0 16 -1 26.5t-4 23.5t-5 21.5t-11.5 23.5t-15.5 24.5t-22.5 31 t-27.5 35.5t-37 47t-44 58l-352 458l-479 -651h-166z" />
<glyph unicode="&#x4fd;" horiz-adv-x="937" d="M0 0l403 498v2l-391 467h148l303 -375l293 375h145l-381 -469q147 -164 357 -422q27 -35 36 -49.5t17 -44t8 -72.5q0 -135 -78 -201.5t-194 -66.5q-72 0 -152 16l29 111q72 -20 125 -21q61 0 100 38t39 114q0 23 -3 41t-6 29.5t-15.5 32t-19.5 29.5t-32.5 41.5 t-40.5 51.5l-227 299h-2l-316 -424h-145z" />
<glyph unicode="&#x4fe;" horiz-adv-x="1382" d="M29 0l540 709h-536v82h534l-508 632h174l441 -563l422 563h164l-482 -632h570v-82h-566l568 -709h-174l-502 651l-479 -651h-166z" />
<glyph unicode="&#x4ff;" horiz-adv-x="937" d="M0 0l399 492h-358v81h301l-330 394h148l303 -375l293 375h145l-319 -394h315v-81h-371l412 -492h-147l-328 424h-2l-316 -424h-145z" />
<glyph unicode="&#x2000;" />
<glyph unicode="&#x2001;" horiz-adv-x="2150" />
<glyph unicode="&#x2002;" />
<glyph unicode="&#x2003;" horiz-adv-x="2150" />
<glyph unicode="&#x2004;" horiz-adv-x="716" />
<glyph unicode="&#x2005;" horiz-adv-x="536" />
<glyph unicode="&#x2006;" horiz-adv-x="358" />
<glyph unicode="&#x2007;" />
<glyph unicode="&#x2008;" horiz-adv-x="598" />
<glyph unicode="&#x2009;" horiz-adv-x="430" />
<glyph unicode="&#x200a;" horiz-adv-x="59" />
<glyph unicode="&#x200b;" horiz-adv-x="0" />
<glyph unicode="&#x200c;" horiz-adv-x="0" />
<glyph unicode="&#x200d;" horiz-adv-x="0" />
<glyph unicode="&#x2010;" horiz-adv-x="716" d="M23 432v103h573v-103h-573z" />
<glyph unicode="&#x2011;" horiz-adv-x="716" d="M23 432v103h573v-103h-573z" />
<glyph unicode="&#x2012;" d="M0 547v102h1075v-102h-1075z" />
<glyph unicode="&#x2013;" d="M0 547v102h1075v-102h-1075z" />
<glyph unicode="&#x2014;" horiz-adv-x="2150" d="M0 547v102h2150v-102h-2150z" />
<glyph unicode="&#x2016;" d="M379 -393v1870q0 57 41 57t41 -59v-1868q0 -59 -43 -60q-39 1 -39 60zM610 -393v1870q0 57 41 57t41 -59v-1868q0 -59 -41 -59t-41 59z" />
<glyph unicode="&#x2018;" horiz-adv-x="598" d="M217 1034v103l2 59l78 227h82l-49 -227h47v-162h-160z" />
<glyph unicode="&#x2019;" horiz-adv-x="598" d="M217 1035l49 227h-49v160h162v-101l-2 -59l-78 -227h-82z" />
<glyph unicode="&#x201a;" horiz-adv-x="598" d="M217 0v160h162v-101l-2 -59l-78 -227h-82l49 227h-49z" />
<glyph unicode="&#x201b;" horiz-adv-x="598" d="M217 1321v102h160v-161h-47l49 -228h-82l-68 195l-10 33z" />
<glyph unicode="&#x201c;" horiz-adv-x="636" d="M51 1034v103l2 59l78 227h82l-49 -227h47v-162h-160zM424 1034v103l2 59l78 227h82l-49 -227h47v-162h-160z" />
<glyph unicode="&#x201d;" horiz-adv-x="636" d="M49 1035l49 227h-49v160h162v-101l-2 -59l-78 -227h-82zM422 1035l49 227h-49v160h162v-101l-2 -59l-78 -227h-82z" />
<glyph unicode="&#x201e;" horiz-adv-x="636" d="M49 0v160h162v-101l-2 -59l-78 -227h-82l49 227h-49zM422 0v160h162v-101l-2 -59l-78 -227h-82l49 227h-49z" />
<glyph unicode="&#x201f;" horiz-adv-x="636" d="M49 1321v102h160v-161h-47l49 -228h-82l-68 195l-10 33zM422 1321v102h160v-161h-47l49 -228h-82l-51 152l-17 43l-10 33z" />
<glyph unicode="&#x2020;" horiz-adv-x="956" d="M119 967q0 12 4 25.5t22.5 26.5t49.5 13q37 0 130 -19.5t130 -21.5q-4 68 -23.5 199t-19.5 170q0 78 65 78q18 0 49 -17q16 -27 17 -71q0 -31 -17.5 -144.5t-25.5 -214.5q43 2 131 21.5t129 19.5q29 0 47 -12t23.5 -25.5t5.5 -26t-4.5 -25.5t-21.5 -27.5t-48 -14.5 q-37 0 -131 19.5t-131 21.5q6 -88 24.5 -207t18.5 -209v-903h-131v903q0 90 18.5 209t24.5 207q-43 -2 -131 -21.5t-129 -19.5q-43 0 -59.5 21.5t-16.5 44.5z" />
<glyph unicode="&#x2021;" horiz-adv-x="956" d="M119 90q0 25 17.5 46.5t58.5 21.5q31 0 119.5 -18.5t138.5 -24.5q-2 55 -21.5 178t-19.5 164q0 82 65 82q12 0 25.5 -4.5t27 -22.5t13.5 -47q0 -55 -19.5 -174t-21.5 -176q55 8 141 25.5t117 17.5q41 0 58.5 -21.5t17.5 -46.5q0 -27 -18.5 -43t-31 -19t-18.5 -3l-68 6 l-125 24l-73 13q2 -49 21.5 -177.5t19.5 -169.5q0 -78 -66 -77q-29 0 -48 18.5t-19 56.5q0 43 20.5 169t22.5 180q-41 -4 -128 -21.5t-141 -21.5q-6 0 -19 3t-29.5 19t-16.5 43zM119 989q0 27 17.5 44.5t30.5 20.5t19 3l68 -6l125 -27l74 -10q-2 49 -21.5 177t-19.5 169 q0 78 65.5 78t65.5 -72q0 -61 -19.5 -181t-21.5 -171q39 4 127 21.5t141 21.5q6 0 19.5 -4t30 -20.5t16.5 -43.5q0 -25 -17.5 -45t-58.5 -20q-31 0 -120 18.5t-138 24.5q2 -57 21.5 -176t19.5 -175q0 -41 -21.5 -57t-44.5 -16q-66 0 -65 80q0 41 19.5 164.5t21.5 179.5 q-68 -8 -145 -25.5t-109 -17.5q-80 -1 -80 65z" />
<glyph unicode="&#x2022;" d="M119 540.5q0 178.5 125 298t293 119.5q170 0 293.5 -119.5t123.5 -298t-124.5 -298t-292.5 -119.5q-170 0 -294 119.5t-124 298z" />
<glyph unicode="&#x2026;" horiz-adv-x="1794" d="M217 0v160h160v-160h-160zM815 0v160h160v-160h-160zM1413 0v160h160v-160h-160z" />
<glyph unicode="&#x2029;" horiz-adv-x="1015" d="M119 965q0 72 21.5 146.5t66.5 147t129 118.5t192 46h365q59 0 59 -41t-51 -41h-125v-1603q0 -78 -41 -78t-41 57v783q-246 12 -410.5 137t-164.5 328z" />
<glyph unicode="&#x202f;" horiz-adv-x="371" />
<glyph unicode="&#x2030;" horiz-adv-x="2508" d="M119 1124q0 182 91 297t208 115q123 0 211 -120t88 -294q0 -170 -87 -290.5t-210 -120.5q-119 0 -210 116.5t-91 296.5zM244 1124q0 -182 61 -254q45 -55 113 -55q78 0 128 92t50 217q0 135 -52 221.5t-126 86.5q-45 0 -86 -32t-62 -89q-26 -70 -26 -187zM381 -72 q0 8 18 45l936 1534q20 27 39 27q16 0 27.5 -11.5t11.5 -27.5q0 -12 -29 -61l-927 -1524q-14 -23 -37 -23q-16 0 -27.5 12.5t-11.5 28.5zM1075 299q0 168 88 290t211 122t210 -121t87 -293q0 -178 -90 -294t-207 -116q-119 0 -209 116t-90 296zM1200 299q0 -180 64 -254 q45 -55 108 -55q78 0 129 92t51 217q0 133 -54 221t-126 88q-45 0 -86 -31.5t-61 -89.5q-25 -65 -25 -188zM1790 299q0 170 87 291t212 121q123 0 211 -121t88 -293q0 -180 -90 -295t-207 -115q-119 0 -210 116t-91 296zM1917 299q0 -182 61 -254q45 -55 111 -55 q78 0 129 92t51 217q0 135 -53 222t-127 87q-45 0 -86 -31.5t-61 -89.5q-25 -65 -25 -188z" />
<glyph unicode="&#x2031;" horiz-adv-x="3235" d="M119 1124q0 182 91 297t208 115q123 0 211 -120t88 -294q0 -170 -87 -290.5t-210 -120.5q-119 0 -210 116.5t-91 296.5zM244 1124q0 -182 61 -254q45 -55 113 -55q78 0 128 92t50 217q0 135 -52 221.5t-126 86.5q-45 0 -86 -32t-62 -89q-26 -70 -26 -187zM381 -72 q0 8 18 45l934 1534q20 27 41 27q16 0 27.5 -11.5t11.5 -27.5q0 -14 -29 -61l-927 -1524q-14 -23 -37 -23q-16 0 -27.5 12.5t-11.5 28.5zM1073 299q0 170 88 291t211 121t211 -121t88 -293q0 -170 -87 -290t-210 -120q-119 0 -210 116t-91 296zM1200 299q0 -182 62 -254 q45 -55 110 -55q78 0 129 92t51 217q0 135 -53 222t-127 87q-45 0 -86 -31.5t-61 -89.5q-25 -65 -25 -188zM1796 299q0 182 91 297t208 115q84 -6 146.5 -51.5t93 -113t44 -130t13.5 -119.5q0 -170 -87 -290t-210 -120q-117 0 -208 117t-91 295zM1921 299q0 -182 61 -254 q45 -55 111 -55q78 0 129 92t51 217q0 133 -53 221t-127 88q-45 0 -86 -31.5t-61 -89.5q-25 -65 -25 -188zM2517 299q0 180 92 296t207 116q125 0 212 -121t87 -293q0 -180 -91 -295t-208 -115q-119 0 -209 116t-90 296zM2642 299q0 -178 61 -254q45 -55 113 -55 q78 0 128 92t50 217q0 133 -53 221t-127 88q-45 0 -86 -31.5t-62 -89.5q-24 -65 -24 -188z" />
<glyph unicode="&#x2039;" horiz-adv-x="835" d="M238 512l256 410h102l-225 -410l225 -410h-102z" />
<glyph unicode="&#x203a;" horiz-adv-x="835" d="M238 102l225 410l-225 410h102l256 -410l-256 -410h-102z" />
<glyph unicode="&#x203b;" horiz-adv-x="1300" d="M119 469v129q0 55 57 55h121q41 0 52 -15t11 -44v-121q0 -29 -10 -43t-18 -16t-29 -4h-125q-31 0 -45 12t-14 47zM121 39q0 10 4 18.5t6 11.5t14.5 15t20.5 20l426 428l-428 426q-43 43 -43 64q0 14 11 26.5t28 12.5q18 0 61 -43l428 -428h2q20 23 428 430q41 41 59.5 41 t29 -12.5t10.5 -26.5q0 -20 -45 -66l-426 -426q23 -20 430 -428q41 -41 41 -61q0 -16 -11.5 -27.5t-27.5 -11.5q-18 0 -62 43l-426 428h-2q-20 -23 -430 -432q-39 -39 -57 -39q-31 0 -41 37zM528 59v125q0 57 56 58h125q39 0 50 -14.5t11 -45.5v-121q0 -59 -57 -61h-127 q-37 2 -47.5 16t-10.5 43zM528 881v125q0 57 56 57h125q39 0 50 -14.5t11 -44.5v-123q0 -59 -57 -62h-127q-58 3 -58 62zM938 467v131q0 55 57 55h121q63 0 64 -59v-123q0 -29 -11.5 -43t-18.5 -15t-28 -3h-125q-59 0 -59 57z" />
<glyph unicode="&#x203d;" horiz-adv-x="1015" d="M119 1204q147 80 309 90l-2 129h162l-2 -133q82 -10 142 -35.5t91 -55.5t49.5 -67.5t22.5 -60t4 -45.5q0 -74 -40 -130t-90 -88t-106.5 -88t-80.5 -124q-4 -25 -5 -37v-16q0 -33 -2 -181h-157q0 10 -1 32t-1 32q0 78 13 134t13 61l-8 571q-86 -12 -140 -29.5t-132 -66.5z M426 0v160h160v-160h-160zM578 817q31 27 73.5 57.5t61 46t34 43t15.5 64.5q0 141 -178 162l-2 -98z" />
<glyph unicode="&#x203f;" horiz-adv-x="716" d="M-4 -139q0 25 13.5 42t35.5 17q16 0 23.5 -11t16.5 -40t26 -53q35 -57 99 -98.5t148 -41.5t159 47.5t110 133.5q20 63 45 63q14 0 31.5 -14.5t17.5 -46.5q0 -82 -102.5 -188.5t-260.5 -106.5q-160 0 -261 107.5t-101 189.5z" />
<glyph unicode="&#x2040;" horiz-adv-x="937" d="M0 1034q6 152 146.5 242t320.5 90q184 0 324.5 -89t146.5 -243h-133q-6 109 -108.5 166t-229.5 57q-123 0 -225.5 -58t-108.5 -165h-133z" />
<glyph unicode="&#x2044;" d="M121 -414q0 10 8 31l735 1866q20 51 49 51q16 0 27.5 -12.5t11.5 -28.5q0 -8 -10 -39l-733 -1853q0 -2 -3 -9.5t-4 -9.5l-4 -8t-5.5 -9t-6.5 -7t-7 -6.5t-8 -3.5t-11 -1q-14 0 -26.5 10.5t-12.5 28.5z" />
<glyph unicode="&#x2045;" horiz-adv-x="776" d="M172 -201v428q0 63 12 103q10 29 25.5 54.5t34 43.5t41 34.5t44 28t45 19.5t43 13t39 9.5t32 5.5t24.5 3h10q-49 2 -102 16t-112.5 46t-97.5 95.5t-38 149.5v438q0 121 106.5 184.5t368.5 65.5v-102h-76q-150 0 -209 -38t-59 -112q0 -4 1 -12t1 -12v-365q0 -6 -1 -22.5 t-1 -22.5q0 -74 33 -127t87 -80t109.5 -39t114.5 -12v-103q-139 -2 -228 -56t-110 -136q-4 -14 -4 -70v-387q0 -8 -1 -20.5t-1 -20.5q0 -115 68.5 -184.5t193.5 -69.5h82v-102q-74 0 -148.5 17.5t-152.5 54t-126 110.5t-48 174z" />
<glyph unicode="&#x2046;" horiz-adv-x="776" d="M127 -352h78q150 0 208 38t58 111v432q0 74 -32.5 127.5t-88 81t-110 39.5t-113.5 12v103q127 2 215 49t117 125q12 33 12 84v434q0 84 -67.5 117t-198.5 33h-78v102q262 -2 368.5 -65.5t106.5 -186.5v-430q0 -63 -12 -102q-10 -29 -25.5 -54.5t-34 -44t-41 -35 t-44 -27.5t-45 -19.5t-43 -13.5t-39 -9t-33 -5t-23.5 -3h-10q49 -2 102.5 -16.5t112.5 -46.5t97 -95.5t38 -149.5v-436q0 -123 -105.5 -186.5t-369.5 -65.5v103z" />
<glyph unicode="&#x2052;" d="M121 41q0 18 10 35l733 1415l4 6t7.5 11t9.5 11.5t13 10.5t15 4q16 0 27.5 -11.5t11.5 -27.5q0 -12 -20 -53l-723 -1395q-23 -45 -49 -45q-16 0 -27.5 11.5t-11.5 27.5zM160 1352v127q0 57 55 57h125q33 0 47 -11.5t14 -45.5v-123q0 -27 -10 -42.5t-19.5 -17.5t-27.5 -2 h-127q-57 1 -57 58zM672 59v125q0 57 55 58h125q39 0 50 -14.5t11 -43.5v-123q0 -59 -57 -61h-127q-37 2 -47 16t-10 43z" />
<glyph unicode="&#x2054;" horiz-adv-x="716" d="M-4 -393q0 84 102.5 190.5t259.5 106.5q86 0 159 -35t115 -85t65.5 -97t23.5 -80q0 -23 -13.5 -41.5t-35.5 -18.5q-4 0 -7 1t-6.5 2t-5.5 3.5t-4 5.5l-4 6t-4 8t-3 8t-3 9.5t-4 10.5q-29 76 -101.5 133t-169.5 57q-90 0 -164.5 -51t-107.5 -131l-4 -12q-4 -12 -6 -17.5 t-7 -14.5t-11.5 -13.5t-14.5 -4.5q-14 0 -31.5 13.5t-17.5 46.5z" />
<glyph unicode="&#x205f;" horiz-adv-x="463" />
<glyph unicode="&#x20a1;" horiz-adv-x="1374" d="M166 711q0 301 182 513t432 230h2v82h103v-80q176 -6 356 -70l-27 -141q-109 57 -164 74.5t-165 28.5v-1272q39 0 72.5 4t67.5 13t52.5 13.5t51 21.5t40 20.5t44 26t40.5 24.5l11 -119q-109 -61 -188 -86t-191 -27v-80h-103v80l-2 2q-254 20 -434 233.5t-180 508.5z M309 711q0 -240 123 -409t295 -214l55 -10v1268q-139 -27 -229 -97q-49 -39 -92 -90q-152 -184 -152 -448z" />
<glyph unicode="&#x20a4;" horiz-adv-x="1374" d="M119 117q0 74 75.5 121t190.5 47q61 0 137 -21l6 62l2 84h-155q-68 0 -68 49q0 53 68 53h155v236h-155q-68 0 -68 51t68 51h155v197q0 215 114 329.5t251 114.5q162 0 260 -132t98 -282q0 -61 -59 -71q-18 4 -26.5 7t-19.5 16t-15 38h-11q-4 139 -66.5 229t-162.5 90 q-121 0 -186 -110q-45 -78 -45 -242v-184h200q43 0 53 -6q31 -14 31 -45q0 -51 -74 -51h-210v-236h200q43 0 53 -6q31 -14 31 -45q0 -51 -74 -51h-210q0 -4 1 -16.5t1 -16.5q0 -82 -25 -156q25 -10 76 -33.5t73.5 -34t62.5 -26.5t65.5 -22.5t57.5 -12.5t60 -6q66 0 106 52 t42 147h131q-8 -137 -101 -217q-96 -84 -227 -84q-78 0 -150.5 25.5t-254.5 109.5q-117 -135 -281 -135q-78 0 -129 37t-51 96zM246 119q0 -33 55 -33q98 0 172 74q-90 23 -135 22q-35 0 -57.5 -14t-28.5 -26.5t-6 -22.5z" />
<glyph unicode="&#x20a6;" horiz-adv-x="1509" d="M-106.5 858q0.5 51 69.5 51h273v514h200l279 -514h432v514h129v-514h272q68 0 68 -51t-70 -51h-270v-295h272q68 0 68 -51t-68 -51h-272v-410h-201l-223 410h-487v-410h-129v410h-273q-69 0 -69 51t69 51h273v295h-275q-68 0 -67.5 51zM365 512h430l-160 295h-270v-295z M365 909h215l-215 396v-396zM772 807l160 -295h215v295h-375zM989 410l158 -291v291h-158z" />
<glyph unicode="&#x20a9;" horiz-adv-x="1980" d="M-18.5 856q0.5 51 61.5 53h143l-155 514h139l156 -514h442l154 514h143l156 -514h448l156 514h125l-156 -514h143q63 -2 63.5 -53t-67.5 -51q-4 0 -12 1t-12 1h-146l-88 -295h238q51 0 63 -8q25 -18 25 -43q0 -53 -70 -53q-4 0 -12 1t-12 1h-265l-126 -420h-148l-127 420 h-506l-127 -420h-143l-127 420h-264q-4 0 -12.5 -1t-12.5 -1q-67 0 -67 53q0 10 3 18t6 13.5t11 9.5l12 6t14.5 3t13.5 1h15h11h239l-90 295h-145q-4 0 -11.5 -1t-11.5 -1q-68 0 -67.5 51zM356 807l86 -295h207l88 295h-381zM473 410q4 -16 33 -113.5t41 -163.5l22 98 l49 179h-145zM766 512h442l-86 295h-268zM883 909h209l-74 258l-31 123q-14 -70 -104 -381zM1253 807l86 -295h211l88 295h-385zM1372 410l74 -277l31 121l45 156h-150z" />
<glyph unicode="&#x20ab;" horiz-adv-x="1058" d="M94 596q0 211 115 356.5t272 145.5q164 0 281 -146v305h-402v103h402v176h129v-176h233v-103h-233v-1144h-131v88l-2 63q-115 -168 -291 -168q-160 0 -266.5 147.5t-106.5 352.5zM121 -37q10 37 55 37h930q57 0 57 -41t-55 -41h-932q-51 0 -55 45zM227 598 q0 -119 32 -203t82 -123t97 -55t94 -16q115 0 191 100q6 10 14 21.5t11.5 16.5t6.5 14t4 20.5t1 27.5v433q0 57 -63.5 109t-145.5 52q-41 0 -88 -14t-104.5 -52t-94.5 -124t-37 -207z" />
<glyph unicode="&#x20ac;" horiz-adv-x="1552" d="M0 557l53 121h211v65h-264l53 121h228q57 254 253.5 405.5t438.5 151.5q281 0 485 -192l-53 -123q-197 184 -430 184q-104 0 -205.5 -35.5t-204 -136t-149.5 -254.5h880l-53 -121h-846v-65h815l-53 -121h-743q51 -174 198.5 -299t364.5 -125q258 0 479 189v-134 q-207 -188 -485 -188q-244 0 -439.5 152.5t-252.5 404.5h-281z" />
<glyph unicode="&#x20b2;" horiz-adv-x="1673" d="M166 711q0 305 220 516t517 227v82h103v-80q246 -2 503 -98l-24 -141q-88 43 -140.5 64.5t-143.5 41.5t-195 25v-676h522v-606q-260 -92 -522 -99v-80h-103v80q-299 16 -518 229.5t-219 514.5zM309 711q0 -240 164 -425.5t430 -209.5v1270q-276 -29 -435 -216.5 t-159 -418.5zM1006 76q172 4 389 63v424h-389v-487z" />
<glyph unicode="&#x2122;" horiz-adv-x="1433" d="M2 1479q2 35 26.5 46t88.5 11h514q80 0 84 -45v-14q-14 -43 -84 -43h-207v-625q0 -74 -66 -74q-33 0 -48 16.5t-16 29t-1 38.5v615h-215q-27 0 -45.5 9t-24.5 19.5t-6 16.5zM770 805v684q0 80 66 80q35 0 57 -32t104 -196q47 -96 78 -157q176 354 185 362q23 23 55 23 q66 0 65 -70v-694q0 -70 -67 -70q-66 0 -66 72v436q-2 -6 -55 -112.5t-62 -116.5q-20 -25 -55 -25t-54.5 25.5t-76.5 142.5q-27 53 -43 86v-436q0 -72 -65.5 -72t-65.5 70z" />
<glyph unicode="&#x2206;" horiz-adv-x="1792" d="M88 0l725 1440h162l725 -1440h-1612zM295 135h1175l-585 1165h-2z" />
<glyph unicode="&#x221a;" horiz-adv-x="1015" d="M45 295l248 362l123 -557l383 1368q14 37 61 37h197q61 0 61 -41t-69 -41h-179l-434 -1556q-8 -29 -20.5 -41t-42.5 -12h-25l-123 565l-106 -158z" />
<glyph unicode="&#x25fc;" horiz-adv-x="965" d="M0 965h965v-965h-965v965z" />
<glyph unicode="&#xe000;" horiz-adv-x="962" d="M0 0v963h963v-963h-963z" />
</font>
</defs>
</svg>
