<?xml version="1.0" standalone="no"?>
<!DOCTYPE svg PUBLIC "-//W3C//DTD SVG 1.1//EN" "http://www.w3.org/Graphics/SVG/1.1/DTD/svg11.dtd" >
<svg xmlns="http://www.w3.org/2000/svg" xmlns:xlink="http://www.w3.org/1999/xlink" version="1.1">
<metadata></metadata>
<defs>
<font id="cmu_concretebolditalic" horiz-adv-x="1302" >
<font-face units-per-em="2048" ascent="1638" descent="-410" />
<missing-glyph horiz-adv-x="847" />
<glyph unicode="&#xfb00;" horiz-adv-x="1558" d="M-45 -266q0 53 36 90t87 37q39 0 60.5 -21.5t21.5 -58.5q0 -23 -4 -35q8 0 19 -1t15 -1q41 0 66 28.5t52.5 127t54 236.5t73.5 409q29 170 47 268h-188q-53 0 -53 43q0 16 6 37q2 6 5 18.5t5 17.5t5 13t7 11t10.5 7.5t14.5 5.5t20 1h195q2 12 6 37q10 57 15.5 86.5 t21.5 82t34.5 83t52.5 68.5t77 58.5t107.5 36t142.5 15.5q295 0 295 -142q0 -51 -34 -90t-87 -39q-84 0 -84 80q0 10 4 31q-70 6 -139 6h-107q-14 0 -24.5 -3t-19.5 -11.5t-15 -17.5t-13.5 -27.5t-11.5 -32.5t-9 -43t-9 -50.5t-11.5 -59.5t-13.5 -68h576q4 23 12 67.5t11 61 t9.5 52.5t11.5 49t12 40t14 38t18.5 30.5t24 31t27.5 24.5t34 25q72 47 161 48q55 0 105.5 -9.5t96.5 -44t46 -90.5q0 -49 -33.5 -88t-87.5 -39q-84 0 -84 80q0 6 3.5 17.5t3.5 15.5l-138 4q-10 -18 -15 -33.5t-11 -42t-10.5 -49t-13.5 -79t-19 -109.5h223q57 0 57 -43 q0 -41 -20 -82q-14 -29 -57 -29h-232q-6 -43 -56 -323.5t-71 -376.5q-39 -180 -80 -266.5t-125 -155.5q-125 -100 -262 -101q-106 0 -186 33t-80 109q0 55 38 92t85 37q82 0 82 -80q0 -8 -4 -33q31 -4 77 -4q86 0 150 47q61 45 96 184.5t117 599.5q27 152 41 238h-573 q-102 -594 -146 -788q-49 -213 -110 -295q-102 -139 -228 -140q-84 0 -153.5 35t-69.5 109z" />
<glyph unicode="&#xfb01;" horiz-adv-x="1427" d="M-45 -266q0 53 36 90t87 37q39 0 60.5 -21.5t21.5 -58.5q0 -23 -4 -35q8 0 19 -1t15 -1q41 0 66 27.5t54.5 134t59 270.5t87.5 483q16 100 26 154h-186q-57 0 -57 43q0 18 8 43q6 27 10 37t18.5 20.5t38.5 10.5h195q2 10 9 54t12.5 63.5t15.5 60.5t24.5 66.5t36 58.5 t52 58.5t69.5 45.5q51 29 117.5 42.5t110.5 15.5t126 2h27q61 0 103 -3.5t103.5 -15.5t94.5 -45t33 -84q0 -59 -39 -96t-84 -37q-82 0 -82 82q0 8 4 33q-12 12 -192 12h-203q-47 0 -68 -18q-16 -14 -27.5 -32t-20.5 -50.5t-14 -52t-14.5 -76t-15.5 -84.5h627q45 0 45 -27 q0 -14 -6 -39l-162 -645q-6 -23 -6 -41q0 -31 21.5 -51.5t49.5 -20.5q37 0 59.5 43t36 93.5t21.5 58.5q10 8 39 8h51q61 0 62 -31q0 -25 -26.5 -96.5t-98.5 -151t-166 -79.5q-92 0 -161.5 54t-69.5 148q0 29 24.5 130.5t64.5 257t58 235.5h-489q-100 -594 -146 -790 q-23 -94 -35 -139.5t-56 -122t-107.5 -124t-139.5 -47.5q-84 0 -153.5 35t-69.5 109z" />
<glyph unicode="&#xfb02;" horiz-adv-x="1492" d="M-45 -266q0 53 36 90t87 37q39 0 60.5 -21.5t21.5 -58.5q0 -23 -4 -35q6 0 18 -1t19 -1q39 0 63.5 27.5t52 130t56 250t79.5 440.5q25 141 39 221h-186q-57 0 -57 43q0 18 8 43q6 27 10 37t18.5 20.5t38.5 10.5h195q33 178 53 233q82 205 348 230q41 4 88 4h5 q141 0 215.5 -21.5t93 -49.5t22.5 -79q20 98 32.5 117.5t47.5 19.5h78q47 0 47 -28q0 -6 -1 -13.5t-4 -14.5t-3 -11l-275 -1102q-8 -41 -6 -53q4 -20 24.5 -38t45.5 -18q41 0 70 60q16 37 25 80t19.5 53t43.5 10h63q49 0 49 -31q0 -14 -17.5 -62t-49 -109.5t-92 -108.5 t-132.5 -47q-92 0 -161.5 56t-69.5 149q0 29 24.5 129t64.5 251.5t61 239.5h-557q-8 -59 -64.5 -373.5t-81.5 -416.5q-47 -203 -104 -285q-102 -147 -234 -148q-84 0 -153.5 35t-69.5 109zM688 967h569l66 268q-39 -72 -111 -72q-82 0 -82 82q0 16 3 27q-66 8 -150 8h-156 q-59 0 -80.5 -51t-58.5 -262z" />
<glyph unicode="&#xfb03;" horiz-adv-x="2240" d="M-45 -266q0 53 36 90t87 37q39 0 60.5 -21.5t21.5 -58.5q0 -23 -4 -35q16 -2 37 -2q76 0 113.5 143.5t150.5 778.5q4 25 13 73.5t13 73.5h-186q-57 0 -57 43q0 18 8 43q6 27 10 37t18.5 20.5t38.5 10.5h195l2 2q29 193 72 274q86 162 309 187q39 4 119 4q59 0 97 -3.5 t97.5 -14.5t91 -43t31.5 -81q0 -59 -39 -94t-84 -35q-82 0 -82 82q0 16 2 27q-66 8 -147 8h-152q-57 0 -81.5 -57.5t-55.5 -255.5h600q29 182 72 258q51 94 149 147q115 61 351 62h55q340 0 340 -150q0 -51 -34 -91t-89 -40q-84 0 -84 82q0 8 4 33q-74 12 -201 12h-227 q-72 0 -98.5 -58.5t-52.5 -213.5q-4 -27 -7 -41h658q47 0 47 -27q0 -6 -8 -39l-162 -645q-6 -23 -6 -41q0 -33 23.5 -52.5t50.5 -19.5q37 0 58 43t34.5 93.5t21.5 58.5q10 8 39 8h57q57 0 58 -31q0 -14 -17.5 -62t-49 -109.5t-93 -108.5t-133.5 -47q-92 0 -160.5 54 t-68.5 148q0 29 24.5 130.5t64.5 256t58 236.5h-524q-80 -475 -125 -679t-86 -289t-121 -150q-125 -104 -277 -105q-279 0 -278 142q0 55 38 92t85 37q82 0 82 -80q0 -8 -4 -33q61 -4 90 -4q90 0 153 43q68 45 100.5 167t123.5 632q27 145 41 227h-600q-8 -53 -65.5 -370.5 t-80.5 -422.5q-47 -197 -102 -280q-102 -150 -236 -150q-84 0 -153.5 35t-69.5 109z" />
<glyph unicode="&#xfb04;" horiz-adv-x="2273" d="M-45 -266q0 53 36 90t87 37q39 0 60.5 -21.5t21.5 -58.5q0 -23 -4 -35q16 -2 37 -2q76 0 114.5 147.5t151.5 780.5l24 141h-186q-57 0 -57 43q0 18 8 43q6 27 10 37t18.5 20.5t38.5 10.5h195l2 2q12 88 23.5 139t41 121.5t73.5 108.5t124 67t189 29q299 0 299 -142 q0 -51 -34 -90t-87 -39q-84 0 -84 80q0 10 4 31q-68 6 -139 6h-107q-18 0 -30.5 -5t-22.5 -18.5t-16.5 -28t-13.5 -45t-12 -56t-14.5 -73.5t-17.5 -87h602q14 94 28.5 154.5t48.5 126t84 102t134 60.5t199 24q197 0 262 -36t68 -114q20 98 31.5 117.5t43.5 19.5h84 q45 0 45 -28q0 -6 -8 -39l-274 -1102q-10 -39 -6 -53q4 -20 24.5 -38t44.5 -18q39 0 68 56q14 33 23.5 66.5t12.5 48t15 23.5t39 9h61q51 0 52 -31q0 -14 -17.5 -62t-49.5 -110.5t-92.5 -108.5t-131.5 -46q-92 0 -162 56t-70 149q0 29 24.5 128t64.5 250.5t61 241.5h-557 q0 -2 -11.5 -65.5t-27 -149.5t-31.5 -180t-32.5 -178t-24.5 -125q-39 -182 -81 -266.5t-126 -155.5q-123 -102 -275 -103q-279 0 -278 142q0 55 38 92t85 37q82 0 82 -80q0 -8 -4 -33q61 -4 90 -4q119 0 192 76q41 45 78 196.5t81 421t67 375.5h-600q-102 -600 -148 -797 q-47 -197 -100 -276q-102 -150 -236 -150q-84 0 -153.5 35t-69.5 109zM1468 967h568l65 268q-39 -72 -110 -72q-82 0 -82 82q0 16 2 27q-66 8 -148 8h-157q-53 0 -80 -56t-58 -257z" />
<glyph horiz-adv-x="0" />
<glyph unicode="&#xd;" horiz-adv-x="681" />
<glyph unicode=" "  horiz-adv-x="847" />
<glyph unicode="&#x09;" horiz-adv-x="847" />
<glyph unicode="&#xa0;" horiz-adv-x="847" />
<glyph unicode="!" horiz-adv-x="864" d="M332 106q0 59 49 104.5t104 45.5q45 0 76 -29.5t31 -76.5q0 -57 -46 -103.5t-106 -46.5q-49 0 -78.5 30.5t-29.5 75.5zM463 455l10 57l156 791q16 78 63 109.5t92 31.5t76 -29t31 -72q0 -23 -29 -112l-225 -750q-16 -47 -27 -51q-10 -6 -39 -6h-53q-31 0 -43 5.5 t-12 25.5z" />
<glyph unicode="&#x22;" d="M582 821q0 20 94 473v9q2 8 4 14t4 17.5t6 19.5l9.5 19t11.5 19.5t15 16.5t20.5 14.5t24.5 9.5t30 3q37 0 62.5 -23.5t25.5 -60.5q0 -18 -146 -510q-10 -35 -22 -48.5t-22.5 -15.5t-41.5 -2h-14q-61 0 -61 45zM977 821q0 10 4 35q104 502 109 514q2 4 10 14q35 51 94 52 q37 0 62.5 -23.5t25.5 -60.5q0 -18 -145 -510q-10 -33 -22.5 -47.5t-23 -16.5t-40.5 -2h-15q-59 0 -59 45z" />
<glyph unicode="#" horiz-adv-x="2086" d="M262 268q0 78 96 78h353q18 0 34.5 24.5t106.5 188.5q41 72 66 117h-437q-98 0 -98 78q0 27 18.5 48t40.5 25q16 4 47 4h517q6 14 20 39t18 31l250 453l6 10q6 10 8.5 13t8.5 12.5t11 13.5t13.5 9t17.5 7t19 2q33 0 54.5 -23.5t21.5 -51.5v-3q0 -20 -59 -129 q-20 -37 -86 -155q-76 -135 -127 -228h334q6 14 20 39t18 31l254 457q33 61 80 63q33 0 55.5 -22.5t22.5 -52.5q0 -23 -55 -121q-18 -33 -74 -135q-84 -150 -145 -259h282q31 0 47 -4q25 -6 41.5 -26.5t16.5 -46.5q0 -29 -18.5 -49.5t-43.5 -24.5q-29 -4 -41 -4h-370 l-185 -330h439q98 0 98 -78q0 -61 -60 -73q-6 -2 -47 -2h-516l-293 -527l-6 -10q-6 -10 -8 -12t-8 -11.5t-11 -12.5t-12.5 -8t-15.5 -7t-18 -2q-33 0 -54.5 22.5t-21.5 52.5q0 20 28.5 74.5t243.5 440.5h-334l-293 -527l-6 -10q-6 -10 -8 -12t-8 -11.5t-11 -12.5t-12.5 -8 t-15.5 -7t-18 -2q-33 0 -55.5 22.5t-22.5 52.5v3q0 20 67 141q20 39 86 155q74 129 121 216h-289q-98 -1 -98 75zM911 346h312q18 0 33.5 22.5t93.5 163.5q47 86 80 144h-336z" />
<glyph unicode="$" d="M279 293q0 86 30.5 147.5t102.5 61.5q35 0 59.5 -22.5t24.5 -57.5q0 -51 -47 -94q6 -152 159 -178l127 509q-94 18 -158.5 60.5t-90 94.5t-34 86t-8.5 67q0 61 26 129.5t78 139.5t151.5 125t228.5 69l2 2q14 68 26.5 86t47.5 18h36q57 0 58 -43q0 -14 -13 -63 q45 -6 85 -18.5t94.5 -42.5t86 -87t31.5 -137q0 -109 -39.5 -153t-93.5 -44q-35 0 -59.5 22.5t-24.5 57.5q0 49 47 92q-2 23 -7 40.5t-20.5 42t-50 43t-87.5 28.5l-113 -455q145 -31 215 -121t70 -200q0 -168 -134.5 -325t-359.5 -179q-14 -70 -26.5 -88.5t-49.5 -20.5h-33 q-61 0 -61 43q0 18 14 66q-133 18 -211.5 93t-78.5 206zM621 1018q0 -55 39.5 -101.5t123.5 -62.5l105 418q-125 -23 -196.5 -96.5t-71.5 -157.5zM766 150q139 29 207.5 118.5t68.5 175.5q0 72 -45 117t-112 64z" />
<glyph unicode="%" horiz-adv-x="2086" d="M377 -51.5q0 24.5 45 69.5l1198 1170q-76 -10 -133 -10q-170 0 -340 71q-14 -223 -141 -380.5t-301 -157.5q-98 0 -174 63.5t-76 210.5q0 119 50 243t155.5 216t238.5 92q55 0 91 -13.5t83 -49t74 -52.5q166 -98 352 -98q119 0 231.5 43t184.5 109q59 59 88 59 q59 0 59 -64q0 -14 -2 -20q0 -2 2 -6q4 -8 4 -12q0 -18 -31.5 -45t-85 -65t-79.5 -65l-1368 -1333q-37 -37 -66 -37q-25 0 -42 18.5t-17 43zM618 989q0 -68 33 -96.5t80 -28.5q109 0 181.5 125t72.5 250q0 63 -28.5 102t-88.5 39q-70 0 -123 -49t-78.5 -119.5t-37 -128 t-11.5 -94.5zM1294 158q0 121 50.5 244.5t156 216t238.5 92.5q59 0 110.5 -20.5t94.5 -84t43 -164.5q0 -123 -50.5 -248.5t-156 -217t-236.5 -91.5q-96 0 -173 64t-77 209zM1458 166q0 -125 113 -125q111 0 182.5 124t71.5 249q0 143 -115 143q-72 0 -126 -52t-78.5 -126 t-36 -129t-11.5 -84z" />
<glyph unicode="&#x26;" horiz-adv-x="1957" d="M307 408q0 94 47 211.5t119 201.5q-8 35 -8 78q0 86 33.5 178t95 176t164 138.5t227.5 54.5q117 0 207 -52.5t90 -154.5q0 -70 -39 -106.5t-86 -36.5q-35 0 -59.5 21.5t-24.5 56.5q0 31 29 75v2q-53 39 -141 39q-250 0 -314 -323q131 66 248 65q80 0 122 -43t42 -112 q0 -102 -69.5 -194.5t-192.5 -92.5q-129 0 -232 74l-8 -17q-6 -16 -15.5 -41.5t-19.5 -56.5t-17 -65.5t-7 -61.5q0 -143 125 -217q129 -74 385 -74q319 0 473 111q82 57 136 161.5t54 208.5q0 113 -94 252q-2 0 -19.5 -7l-27.5 -11t-28.5 -13.5t-32 -16.5t-29 -18.5 t-25.5 -21.5t-16 -23.5t-6 -27.5q0 -29 45 -49q37 25 69 24q41 0 60.5 -24.5t19.5 -48.5q0 -45 -32.5 -80t-92.5 -35q-80 0 -159.5 44t-79.5 142q0 70 46 129.5t99 92t131 74.5t109 63q63 45 110 107.5t56 99.5q2 8 0 26.5t0 32.5q4 37 36.5 67.5t75.5 30.5q33 0 55.5 -21.5 t22.5 -53.5q0 -55 -61.5 -176t-173.5 -214q113 -160 112 -319q0 -154 -88 -306.5t-233 -234.5q-205 -119 -535 -119q-164 0 -289 29t-196.5 73t-116.5 103.5t-60.5 114t-15.5 111.5zM672 805q49 -59 149 -60q43 0 58 50q14 45 16 79q-10 2 -31 3q-98 0 -192 -72z" />
<glyph unicode="'" horiz-adv-x="780" d="M516 821q0 23 94 469l4 15l3 21t6.5 22.5t11.5 25.5t15 22.5t21.5 20.5t29 13.5t34.5 5.5q37 0 62.5 -23.5t25.5 -60.5q0 -18 -145 -510q-10 -33 -21.5 -47.5t-22.5 -16.5t-40 -2h-14q-64 0 -64 45z" />
<glyph unicode="(" horiz-adv-x="1040" d="M326 141q0 166 42 347.5t126 366.5t226 359.5t324 294.5q41 27 72 27h53q49 0 50 -23q0 -12 -35 -38q-326 -227 -506 -609.5t-180 -740.5q0 -154 33.5 -277.5t75.5 -183t76 -101.5t34 -52q0 -23 -37 -23h-64q-37 0 -69 35q-221 231 -221 618z" />
<glyph unicode=")" horiz-adv-x="1040" d="M74 -489q0 4 2 8t6 9t8 7t10 7t11 7q225 158 385.5 403t230.5 484.5t70 460.5q0 154 -35 277.5t-76 183t-76 102.5t-35 53q0 23 37 23h68q16 0 27.5 -4t34 -25.5t57.5 -64.5q170 -221 170 -561q0 -156 -39 -329t-116 -353.5t-210 -352.5t-303 -297q-8 -6 -23.5 -17 t-19.5 -14t-15.5 -10.5t-14.5 -9.5t-11 -6t-14 -4t-13.5 -1t-17.5 -1q-4 0 -13 1t-13.5 1t-12.5 -1t-12 -1q-47 0 -47 25z" />
<glyph unicode="*" d="M426 831q0 14 5 27.5t12.5 23t16.5 17.5t19 14.5t18.5 9.5t14.5 7l8 2q260 113 279 119v2l-226 125q-47 27 -47 59.5t29 64t68 31.5q18 0 42.5 -16.5t106.5 -81.5q63 -53 109 -88q0 4 51 283q18 104 100 104q25 0 42.5 -15.5t17.5 -39.5q0 -16 -101 -332q311 178 330 184 q8 2 18 2q25 0 42.5 -18.5t17.5 -42.5q0 -10 -3 -21.5t-8.5 -19.5t-11.5 -15.5t-14 -12.5t-15.5 -9t-15.5 -8l-12 -6t-10 -4l-6 -2q-274 -119 -279 -121v-2l225 -123q47 -27 47 -62q0 -33 -28.5 -63.5t-67.5 -30.5q-20 0 -45 16.5t-129 100.5q-51 41 -84 67q-6 -47 -49 -280 q-2 -12 -6 -29.5t-28.5 -47.5t-65.5 -30q-25 0 -43.5 15.5t-18.5 40.5q0 10 103 331q-244 -139 -286 -161.5t-65 -22.5q-25 0 -41 17t-16 42z" />
<glyph unicode="+" horiz-adv-x="1957" d="M319 512q0 76 101 76h624q20 92 150 604q0 2 2 11t4 15.5t5 17.5t7.5 18.5t11.5 15.5t14 13t18.5 9t23.5 4q31 0 54.5 -22.5t23.5 -54.5q0 -6 -8 -48l-148 -583h590q94 0 94 -76q0 -78 -98 -78h-625q-14 -61 -153 -616l-2 -15q-4 -12 -8.5 -22t-12.5 -23.5t-22.5 -20.5 t-34.5 -9q-33 0 -55.5 21.5t-22.5 53.5q0 16 27.5 128t67.5 269.5t59 233.5h-592q-49 0 -72 24.5t-23 53.5z" />
<glyph unicode="," horiz-adv-x="780" d="M190 -299q0 10 36 43t85 100.5t76 155.5q-98 12 -98 100q0 61 47 108.5t108 47.5q45 0 79 -33t34 -112q0 -117 -64.5 -241t-132 -193.5t-92.5 -69.5q-16 0 -47 40t-31 54z" />
<glyph unicode="-" horiz-adv-x="909" d="M199 440q0 10 10 52.5t16 54.5q14 25 54 24h509q57 0 58 -45l-15 -63q-6 -27 -9 -37t-17 -20.5t-41 -10.5h-506q-59 0 -59 45z" />
<glyph unicode="." horiz-adv-x="780" d="M291 104q0 57 47 104.5t108 47.5q47 0 76 -29.5t29 -72.5q0 -57 -48 -105.5t-108 -48.5q-47 0 -75.5 29.5t-28.5 74.5z" />
<glyph unicode="/" d="M86 -436q0 27 37 84l1190 1827q37 59 82 59q31 0 53 -21.5t22 -52.5q0 -23 -30 -74l-1194 -1832q0 -2 -6.5 -10.5t-8.5 -10.5t-7 -10t-9 -11.5t-10 -8.5t-12.5 -7t-14.5 -4t-16 -2q-29 0 -52.5 20.5t-23.5 53.5z" />
<glyph unicode="0" d="M283 350q0 41 5 89t13 93.5t15.5 79t16.5 67.5t9 36q27 109 56.5 195.5t86 192t124 176.5t172 119t229.5 48q156 0 258 -85t102 -294q0 -141 -59 -367q-72 -287 -185.5 -464t-318.5 -236q-80 -23 -162 -23q-158 0 -260 84t-102 289zM471 367q0 -236 213 -236 q84 0 152.5 38t112.5 95.5t79 140t56.5 153.5t41.5 155q6 29 11 43q53 213 53 307q0 227 -217 227q-86 0 -155.5 -36.5t-111.5 -89t-78 -136.5t-54.5 -147.5t-41.5 -153.5q-6 -29 -10 -43q-51 -202 -51 -317z" />
<glyph unicode="1" d="M305 45q8 86 41 102q12 6 37 7h242l233 938q-145 -90 -264 -91q-51 0 -51 41q0 18 12 60q10 37 23.5 45t58.5 12t90 21q160 59 287 225q27 33 55 33q45 0 45 -39q0 -16 -2 -23l-276 -1100q-4 -20 -14.5 -61t-14.5 -61h219q61 0 61 -43q0 -41 -22 -86q-14 -25 -53 -25 h-637q-70 0 -70 45z" />
<glyph unicode="2" d="M176 4q0 23 22.5 79t67.5 134t133 164t197 147q47 27 145.5 71t160 78t130 88t103 131t34.5 175q0 121 -72.5 170t-176.5 49q-168 0 -286 -128t-118 -216q0 -37 35 -37q51 0 104.5 63.5t53.5 114.5q0 18 -12.5 39t-12.5 29q0 18 49 57t66 39q20 0 44.5 -44t24.5 -93 q0 -109 -105.5 -234.5t-244.5 -125.5q-74 0 -123 47t-49 121q0 66 43 153.5t118 171.5t191.5 141.5t245.5 57.5q72 0 138.5 -17.5t131 -56.5t104.5 -115.5t40 -181.5q0 -106 -38 -196.5t-93.5 -149.5t-136 -113.5t-148.5 -86t-150.5 -70.5t-121.5 -62q-90 -53 -183 -145 q80 -6 225.5 -48t225.5 -42q74 0 140.5 51t97.5 137q10 27 19 33t36 6h53q59 0 59 -27q0 -31 -30.5 -91t-81.5 -127.5t-139 -117t-185 -49.5q-88 0 -253 61.5t-214 61.5q-18 0 -28 -2q-33 -8 -57.5 -59t-26.5 -53q-12 -8 -41 -9h-58q-53 0 -53 27z" />
<glyph unicode="3" d="M231 256q0 88 39 127t88 39q35 0 59.5 -22.5t24.5 -57.5q0 -31 -17 -59.5t-17 -38.5q0 -16 16 -40t68.5 -48.5t130.5 -24.5q215 0 308 98.5t93 253.5q0 51 -17.5 87t-40 53.5t-60.5 26.5t-59.5 10.5t-55.5 1.5h-78q-12 0 -20.5 2t-15.5 10t-5 24q0 2 4 24.5t12 48.5 t14 34q12 12 52 12h49q70 0 110.5 3t97 23.5t97.5 59.5q96 94 96 232q0 156 -225 155q-160 0 -252 -65.5t-92 -126.5q0 -31 31 -31q18 0 31.5 10t13.5 25q0 12 -13.5 28.5t-13.5 24.5q0 14 50 55t67 41q20 0 45.5 -38.5t25.5 -88.5q0 -86 -74.5 -149.5t-166.5 -63.5 q-72 0 -119 43t-47 115q0 143 157.5 260t383.5 117q166 0 271 -76t105 -223q0 -119 -70.5 -233.5t-197.5 -182.5q98 -98 98 -246q0 -166 -92 -284.5t-228 -171t-298 -52.5q-164 0 -263.5 78t-99.5 201z" />
<glyph unicode="4" d="M123 98q0 20 20.5 32.5t95 66t167.5 145.5q154 152 272.5 343.5t169.5 326.5t88 252.5t39 121.5q31 57 94 58q31 0 52.5 -18.5t21.5 -51.5q0 -18 -17.5 -89t-67.5 -201t-122 -272t-199 -312t-280 -310q27 0 52.5 -2t52 -7t45 -8t48 -12t42 -13.5t46 -16.5t41.5 -14 q66 301 93 344q33 51 90 51q31 0 52 -20.5t21 -51.5q0 -18 -86 -360q18 -2 54 -2q37 0 69.5 3t36.5 3q23 0 52.5 -40t29.5 -54q0 -20 -43 -33q-109 -33 -190 -33h-48q-53 -248 -81 -282q-33 -39 -82 -39q-31 0 -52.5 20.5t-21.5 50.5q0 6 70 289q-33 8 -104 32.5t-118 33 t-116.5 8.5t-112.5 -5t-56.5 -11.5t-22.5 -11.5t-15 -5q-23 0 -51.5 40t-28.5 54z" />
<glyph unicode="5" d="M250 252q0 88 41 128t90 40q39 0 62.5 -22.5t23.5 -57.5q0 -47 -47 -94q18 -61 76.5 -94t136.5 -33q100 0 180 37t123 89t71.5 118.5t38 117.5t9.5 94q0 172 -187 173q-162 0 -274 -105q-6 -4 -12.5 -11t-10.5 -10.5t-9 -7.5t-9 -6t-10 -4t-13.5 -3t-15.5 -1h-43 q-59 0 -59 43q0 16 12 59l170 678q14 55 29 60q4 2 8 2q8 0 50 -16.5t120 -34t174 -17.5q94 0 184 17.5t142.5 34t56.5 16.5q23 0 22 -27q-18 -96 -30 -112q-18 -25 -173 -62t-300 -37q-90 0 -150 13l-96 -383q131 68 266 67q164 0 257 -88t93 -240q0 -147 -71.5 -280 t-220 -224.5t-343.5 -91.5q-160 0 -261 76t-101 199z" />
<glyph unicode="6" d="M289 379q0 104 29.5 249.5t74.5 256.5q61 154 154.5 268.5t197 175t199.5 89t189 28.5q113 0 184.5 -46t71.5 -140q0 -80 -40 -118t-87 -38q-35 0 -58.5 21.5t-23.5 56.5q0 45 34 86q-33 47 -108 47q-43 0 -88 -8.5t-113.5 -41t-129 -86t-122 -155.5t-102.5 -240 q197 182 440 183q70 0 125 -23.5t85 -58.5t49.5 -81t25.5 -83t6 -72q0 -70 -28.5 -185.5t-84.5 -203.5q-49 -78 -136 -149.5t-183 -104.5q-88 -29 -197 -29q-70 0 -130 18.5t-115.5 60.5t-87 125t-31.5 198zM469 360q0 -242 211 -241q63 0 118.5 18.5t90.5 39t67.5 64.5 t47 65.5t32 73.5t18.5 57t11 46q25 102 25 146q0 182 -211 182q-156 0 -283 -119t-127 -332z" />
<glyph unicode="7" d="M291 971q0 10 217 430q14 29 24.5 37t34.5 8h56q61 0 61 -27q0 -14 -20 -49q147 76 268 76q49 0 82 -27.5t48 -59.5t41.5 -59.5t61.5 -27.5q111 0 234 141q29 33 61 33h70q45 0 45 -25q0 -16 -31 -53q-455 -596 -633 -1243q0 -2 -5 -22.5t-9 -32t-14.5 -32t-22.5 -31.5 t-32.5 -20.5t-45.5 -9.5q-35 0 -58.5 21.5t-23.5 54.5t34 148.5t132.5 339t231.5 438.5l92 143q-33 -4 -53 -4q-45 0 -78 22.5t-50.5 48t-47 48.5t-68.5 23h-6q-125 -6 -237.5 -82t-178.5 -183q-23 -37 -32 -44t-38 -7h-53q-57 0 -57 27z" />
<glyph unicode="8" d="M238 272.5q0 151.5 105.5 283.5t303.5 218v2q-33 23 -46 34t-47 44t-50.5 77t-16.5 95q0 147 134.5 282.5t377.5 137.5h5q154 0 256 -63.5t102 -194.5q0 -266 -336 -422q4 -2 31.5 -21.5t37 -26.5t35 -27.5t37 -34t29.5 -38t25.5 -47t14.5 -53.5t7 -63q0 -74 -34.5 -153 t-101.5 -153.5t-186.5 -123t-269.5 -48.5q-178 0 -295.5 72t-117.5 223.5zM418 299q0 -92 72.5 -136t183.5 -44q100 0 179 29.5t120 75.5t61.5 91t20.5 86q0 84 -97 152q-33 23 -66.5 47.5t-48 34.5t-29.5 20.5t-22.5 13.5t-15.5 3q-10 0 -47 -13.5t-90 -44t-102.5 -72.5 t-84 -106.5t-34.5 -136.5zM668 1087q0 -16 3 -29.5t7 -23.5t16.5 -23.5t21.5 -22.5t31.5 -25.5t38 -27.5t49 -34.5t58.5 -40.5q299 113 299 307q0 78 -60.5 113t-148.5 35q-162 0 -238.5 -75t-76.5 -153z" />
<glyph unicode="9" d="M266 166q0 78 40 114.5t87 36.5q35 0 59.5 -21.5t24.5 -55.5q0 -39 -33 -82q47 -39 131 -39q41 0 83 7t107.5 38t122 83t117 153.5t101.5 238.5q-197 -182 -442 -182q-88 0 -149.5 34.5t-89.5 89t-39 101.5t-11 92q0 74 25.5 178.5t64.5 175.5q53 94 147.5 173t192.5 112 q94 33 209 33q150 0 252 -90t102 -303q0 -229 -92 -480q-104 -289 -302 -442.5t-425 -153.5q-121 0 -202 45.5t-81 143.5zM565 795q0 -184 211 -185q68 0 135.5 27t132 79t104.5 147t40 218q0 233 -197 234q-152 0 -258 -94q-59 -53 -89 -116t-54 -163q-25 -96 -25 -147z " />
<glyph unicode=":" horiz-adv-x="780" d="M291 104q0 57 47 104.5t108 47.5q47 0 76 -29.5t29 -72.5q0 -57 -48 -105.5t-108 -48.5q-47 0 -75.5 29.5t-28.5 74.5zM467 815q0 57 48 104.5t110 47.5q47 0 75.5 -30t28.5 -75q0 -59 -48 -105t-108 -46q-47 0 -76.5 30.5t-29.5 73.5z" />
<glyph unicode=";" horiz-adv-x="780" d="M190 -299q0 10 36 43t85 100.5t76 155.5q-98 12 -98 100q0 61 47 108.5t108 47.5q45 0 79 -33t34 -112q0 -117 -64.5 -241t-132 -193.5t-92.5 -69.5q-16 0 -47 40t-31 54zM467 815q0 57 48 104.5t110 47.5q47 0 75.5 -30t28.5 -75q0 -59 -48 -105t-108 -46 q-47 0 -76.5 30.5t-29.5 73.5z" />
<glyph unicode="&#x3c;" horiz-adv-x="1957" d="M385 512q0 12 3 22.5t10.5 18.5t13.5 14t17 12.5t16.5 9.5t17.5 9t14 6l1385 633q33 16 51 16q29 0 52.5 -21.5t23.5 -53.5q0 -25 -16.5 -45.5t-29 -26.5t-45.5 -21l-1271 -583q45 -25 65 -37l899 -535q66 -41 66 -84q0 -31 -22.5 -53t-55.5 -22q-16 0 -57 20l-1069 635 q-68 39 -68 86z" />
<glyph unicode="=" horiz-adv-x="1957" d="M260 268q0 29 19.5 51.5t48.5 24.5q16 2 53 2h1352q39 0 61.5 -16.5t27.5 -30.5t5 -31q0 -76 -98 -75h-1371q-98 -1 -98 75zM383 753.5q0 77.5 96 77.5h1374q39 0 61.5 -16t28 -30.5t5.5 -31t-5.5 -30.5t-29 -30.5t-62.5 -16.5h-1372q-96 0 -96 77.5z" />
<glyph unicode="&#x3e;" horiz-adv-x="1957" d="M221 -154q0 20 6 35t25.5 27t25 15t31.5 16l1272 581q-20 12 -151 90l-814 484q-63 39 -63 82q0 31 21.5 54t54.5 23q16 0 57 -20l1069 -637q68 -39 68 -84q0 -12 -3 -22.5t-10.5 -18.5t-12.5 -14t-17.5 -13.5t-15.5 -9.5t-17 -8l-14 -6l-1385 -635q-29 -14 -53 -14 q-33 0 -53.5 23t-20.5 52z" />
<glyph unicode="?" d="M459 1047q0 121 159.5 260t391.5 139q143 0 231 -66.5t88 -191.5q0 -190 -176 -314q-35 -25 -184.5 -108.5t-163.5 -95.5q-31 -27 -31 -62q0 -29 35 -28q63 0 102 47q6 8 14.5 22.5t16.5 17.5t31 3h51l2 -2q2 0 7 1t9 1q45 0 45 -29q0 -66 -95 -141.5t-224 -75.5 q-78 0 -120 43t-42 113q0 141 119 229q49 37 175 101.5t194.5 122t68.5 130.5q0 49 -41 88t-143 39q-121 0 -217 -59.5t-103 -102.5q-2 -6 0.5 -20t2.5 -21q0 -49 -36 -84.5t-83 -35.5q-35 0 -59.5 22.5t-24.5 57.5zM553 106q0 61 48 105.5t104 44.5q45 0 76.5 -29.5 t31.5 -76.5q0 -57 -46 -103.5t-105 -46.5q-49 0 -79 30.5t-30 75.5z" />
<glyph unicode="@" horiz-adv-x="1957" d="M346 520q0 125 40 253t123 247t197.5 211t277.5 147.5t349 55.5q285 0 458 -137.5t173 -395.5q0 -154 -58.5 -304.5t-162 -250.5t-221.5 -100q-109 0 -131 108q-170 -109 -347 -108q-172 0 -274 89t-102 249q0 100 38.5 201.5t111.5 190.5t189.5 144.5t258.5 55.5 q133 0 225 -54.5t127 -154.5h12q51 0 51 -27q0 -18 -4 -31q-117 -469 -116 -471q0 -37 36 -37q86 0 145.5 168t59.5 299q0 203 -136 307.5t-368 104.5h-4q-152 -2 -283.5 -48t-222 -121t-155 -170t-95 -194.5t-30.5 -193.5q0 -55 11 -106.5t44 -108.5t87.5 -98t150.5 -69 t221 -28q209 0 435 37t231 37h75q43 0 43 -22q0 -14 -18 -25q-41 -23 -139.5 -60.5t-290 -79.5t-367.5 -42q-154 0 -272.5 35.5t-187 90t-112.5 128t-58.5 140t-14.5 138.5zM840 610q0 -113 69.5 -161t161.5 -48q145 0 238.5 78t128.5 164q39 106 39 170q0 96 -63.5 152.5 t-174.5 56.5q-184 0 -291.5 -132.5t-107.5 -279.5z" />
<glyph unicode="A" horiz-adv-x="1859" d="M156 43q8 82 37 102q12 8 57 9q37 0 106 4l805 1235q37 55 96 55h72q23 0 37 -9t18.5 -21.5t8.5 -33.5l186 -1230h100q59 0 60 -43q-8 -90 -43 -105q-16 -6 -35 -6h-361q-61 0 -61 43q8 88 39 104q12 6 41 7h57l-41 270h-594q-23 -2 -36 -21q-6 -6 -164 -247h20t20.5 -1 t17.5 -2t16.5 -4.5t11.5 -8.5t8 -12t2 -17q0 -8 -10 -54q-8 -33 -20.5 -44t-41.5 -13h-350q-59 0 -59 43zM815 578h496l-92 622z" />
<glyph unicode="B" horiz-adv-x="1777" d="M231 45q8 86 39 102q10 6 52 7h94l278 1114h-82q-63 0 -63 43q0 41 20 82q14 28 55 28h3h684q360 0 450 -168q29 -51 29 -123q0 -109 -77 -205t-218 -149q-35 -12 -104 -33q125 -20 212 -86.5t87 -189.5q0 -41 -15.5 -94.5t-60.5 -121t-112.5 -121.5t-185.5 -92t-267 -38 h-760q-58 0 -58 45zM602 154h408q82 2 113.5 5t94 16t117.5 42q164 84 164 232q0 90 -63.5 143t-169.5 65q-35 4 -105 5h-434zM768 817h342q285 0 412 119q82 78 82 160q0 172 -308 172h-417z" />
<glyph unicode="C" horiz-adv-x="1826" d="M344 516q0 158 65.5 318.5t184.5 299t312.5 225.5t424.5 87q276 0 430 -180h2q137 162 148 170q12 10 35 10q36 0 36 -29q0 -8 -58 -243.5t-60 -243.5q-10 -39 -54 -39h-57q-43 0 -53 6t-10 31v41q0 137 -84 229t-244 92q-115 0 -226.5 -26.5t-224 -85t-201.5 -171 t-137 -266.5q-32 -101 -32 -198v-6q0 -94 31.5 -167t82 -117t120 -72.5t140 -39t148.5 -10.5q174 0 316.5 92t195.5 232q2 6 5 14t4 12t4 9.5t4 6.5t6.5 4t9.5 3t12 1t16.5 1h22.5h29q59 0 59 -27q0 -18 -8 -43q-68 -201 -286 -330t-476 -129q-281 0 -457 136.5t-176 402.5z " />
<glyph unicode="D" horiz-adv-x="1908" d="M227 43q0 41 21 82q12 29 61 29h103l278 1114h-86q-59 0 -59 43q0 8 10 55q8 37 23.5 47t58.5 10q6 0 19.5 -1t19.5 -1h624q2 0 16.5 1t22.5 1q295 0 435.5 -144t140.5 -368q0 -135 -47 -276t-138.5 -272.5t-245 -227.5t-343.5 -125q-59 -10 -191 -10h-665q-58 0 -58 43z M604 154h352q608 0 744 553q22 94 22 173v7q0 209 -145 305q-115 76 -338 76h-358z" />
<glyph unicode="E" horiz-adv-x="1626" d="M225 43q8 86 39 104q10 6 51 7h95l278 1110h-84q-63 0 -63 43q0 41 20 82q12 28 54 28h3h1043q61 0 61 -49l-43 -369q-4 -37 -19 -46t-48 -9h-39q-35 0 -47.5 12.5t-12.5 38.5q0 14 8.5 85t8.5 130v39q-74 14 -268 15h-377l-2 -2l-113 -449h143q125 0 187 6 q16 41 27.5 86t16.5 60.5t19.5 27t42.5 11.5h41q61 0 62 -43q0 -12 -101 -412q-2 -6 -5 -19.5t-5 -17.5t-5 -13.5t-6 -12.5l-8 -8t-11.5 -7t-15.5 -3t-22 -1h-32q-63 0 -64 43q0 2 27 143q-57 4 -174 4h-154l-127 -503h320q184 0 265 6t96.5 13t29.5 30q37 55 129 276 q12 25 24.5 35t42.5 10h39q63 0 64 -39q0 -12 -180 -440q-12 -27 -24.5 -36t-41.5 -9h-1087q-58 0 -58 43z" />
<glyph unicode="F" horiz-adv-x="1560" d="M227 43q8 86 39 104q10 6 51 7h95l278 1110h-88q-59 0 -59 43q10 86 41 102q14 8 37 8h1013q57 0 58 -49l-43 -369q-4 -33 -18.5 -44t-47.5 -11h-43q-59 0 -59 49q0 2 9 86t9 123q0 41 -6 45q-16 16 -365 17h-241l-2 -2l-119 -478h143q96 0 172 9q16 39 27.5 82t16.5 60 t19.5 29.5t43.5 12.5h41q61 0 61 -43q0 -12 -100 -414q-8 -33 -10 -40t-11.5 -21.5t-21.5 -16.5t-35 -2h-33q-63 0 -63 41q0 16 11 64.5t15 81.5q-53 4 -161 4h-154l-119 -477h127q60 0 60 -45q0 -42 -21 -82q-12 -27 -55 -27h-434q-58 0 -58 43z" />
<glyph unicode="G" horiz-adv-x="1966" d="M344 516q0 166 68.5 330t190.5 298t312.5 218t413.5 84q276 0 430 -180h2q137 162 148 170q12 10 35 10q39 0 38 -31q0 -6 -59 -241.5t-61 -243.5q-8 -27 -17.5 -33t-34.5 -6h-79q-27 0 -35 8t-8 27v43q0 141 -85 231t-237 90q-211 0 -377 -72.5t-260 -188.5t-141 -241.5 t-47 -250.5q0 -406 553 -406q168 0 266 20.5t131 88.5q6 10 14 43.5t20.5 84t18.5 74.5h-221q-59 0 -59 43q0 18 8 43q12 49 25.5 58.5t52.5 9.5h526q53 -2 53 -43q-8 -88 -39 -104q-12 -6 -53 -7h-96l-103 -405q-8 -33 -26 -33q-27 0 -72 68q-94 -57 -220 -76t-327 -19h-14 q-139 0 -250 32t-181.5 83t-117.5 122t-66.5 145.5t-19.5 156.5z" />
<glyph unicode="H" horiz-adv-x="1945" d="M227 43q8 82 37 102q12 8 51 9h97l278 1114h-86q-59 0 -59 45q8 86 39 102q10 6 37 6h393q57 0 57 -43q-8 -82 -37 -102q-12 -8 -51 -8h-96l-113 -451h803l115 451h-86q-61 0 -62 45q8 86 39 102q10 6 39 6h391q57 0 58 -43q-8 -82 -37 -102q-12 -8 -52 -8h-96 l-276 -1114h86q59 0 59 -43q-8 -86 -39 -103q-16 -8 -39 -8h-391q-59 0 -59 43q8 82 37 102q12 8 53 9h96l127 508h-805l-127 -508h86q61 0 62 -43q-8 -86 -39 -103q-16 -8 -39 -8h-391q-60 0 -60 43z" />
<glyph unicode="I" horiz-adv-x="944" d="M219 43q8 82 37 102q12 8 53 9h103l278 1114h-94q-59 0 -59 43q8 88 38 104q12 6 39 6h408q57 0 57 -43q-8 -82 -37 -102q-12 -8 -53 -8h-102l-279 -1114h94q59 0 60 -43q-8 -88 -39 -105q-12 -6 -37 -6h-407q-60 0 -60 43z" />
<glyph unicode="J" horiz-adv-x="1318" d="M258 193q0 76 41 113.5t90 37.5q41 0 67.5 -23.5t26.5 -62.5q0 -41 -34 -88q63 -39 157 -39q51 0 92 11.5t69 33t47.5 42t31.5 50t18 47t12.5 43t6.5 27.5l198 791q4 16 11.5 46.5t11.5 45.5h-135q-59 0 -60 43q0 41 21 82q12 28 54 28h3h393q59 0 60 -43 q-8 -86 -39 -102q-12 -8 -43 -8h-64l-24 -101l-203 -807q-16 -66 -24.5 -94t-42 -84.5t-87.5 -99.5q-127 -104 -321 -105q-152 0 -243 60t-91 156z" />
<glyph unicode="K" horiz-adv-x="1925" d="M231 43q8 82 37 102q12 8 51 9h97l278 1114h-86q-59 0 -59 45q8 86 39 102q10 6 37 6h383q57 0 57 -43q-6 -82 -37 -102q-12 -8 -51 -8h-96l-152 -611l866 613q-25 18 -24 43q0 18 10 53q10 37 24.5 46t41.5 9h370q57 0 58 -43q0 -41 -23 -86q-14 -25 -49 -24h-29 q-96 0 -123.5 -4t-56.5 -25l-498 -352l-63 -43l389 -688h78q33 0 49 -2t28.5 -12.5t12.5 -30.5q0 -16 -10 -54q-6 -23 -11.5 -32t-17.5 -17t-37 -8h-330q-57 0 -57 43q0 6 10 53q10 35 22.5 46.5t45.5 11.5l-326 579q-12 -8 -32.5 -22.5t-50 -36t-104.5 -74.5t-169 -119 q-4 -4 -13.5 -9t-12.5 -7t-9 -10.5t-9 -14.5t-9 -24.5t-11.5 -38t-14.5 -54t-17.5 -72.5t-22.5 -97h84q61 0 62 -43q-8 -86 -39 -103q-16 -8 -39 -8h-381q-60 0 -60 43z" />
<glyph unicode="L" horiz-adv-x="1497" d="M225 43q10 84 39 102q12 8 51 9h95l278 1114h-86q-59 0 -59 43q8 88 39 104q10 6 36 6h433q59 0 59 -43q-10 -84 -39 -102q-14 -8 -33 -8h-153l-279 -1114h246h131t87 6t56.5 8t31 21.5t21.5 27.5t19 45q23 51 42.5 101.5t27.5 74t16 45t16.5 28.5t19.5 11t32 4h45 q55 0 55 -43q0 -12 -154 -434q-10 -29 -23 -39t-44 -10h-948q-58 0 -58 43z" />
<glyph unicode="M" horiz-adv-x="2338" d="M240 43q8 82 36 102q12 8 54 9q35 0 96 4l276 1110h-86q-59 0 -59 43q8 82 35 102q12 8 41 8h289q37 0 52 -12t23 -55l195 -1057q4 -18 10 -55t10 -56l791 1155q4 4 11 16.5t10.5 15.5t10.5 12.5t10 12.5t10 9t12.5 7t14.5 4t18 4t20 1q6 0 15 -1t13 -1h244q57 0 57 -43 q-8 -88 -39 -104q-10 -6 -51 -6h-94l-278 -1114h81q63 0 64 -43q-6 -86 -37 -103q-16 -8 -41 -8h-360q-61 0 -62 43q10 84 39 102q12 8 51 9h95l272 1089h-2q-37 -61 -84 -127l-725 -1061q-37 -55 -100 -55h-33q-14 0 -24.5 1t-17.5 7t-11.5 7t-8.5 13.5t-5 14.5t-4 19.5 t-3 19.5l-188 1026q-18 88 -23 121h-2l-268 -1073q29 -2 84 -2q61 0 61 -43q0 -8 -10 -54q-12 -57 -63 -57h-365q-57 0 -57 43z" />
<glyph unicode="N" horiz-adv-x="1945" d="M231 43q8 82 37 102q12 8 54 9q35 0 96 4l276 1110h-86q-59 0 -59 45q8 82 37 100q14 8 37 8h247q33 0 44.5 -10t29.5 -47l535 -1051l237 953q-29 2 -84 2q-61 0 -61 43q0 10 10 53q10 37 23.5 47t40.5 10h364q57 0 57 -43q-6 -82 -34 -102q-12 -8 -56 -8q-63 0 -94 -2 l-31 -123l-272 -1088q-8 -37 -23.5 -46t-46.5 -9h-39q-29 0 -41 7t-26 34l-569 1120l-252 -1005q29 -2 84 -2q61 0 61 -43q0 -8 -10 -54q-12 -57 -64 -57h-364q-58 0 -58 43z" />
<glyph unicode="O" horiz-adv-x="1871" d="M340 492q0 158 62.5 322.5t178 307t303 233.5t412.5 91q80 0 156 -14.5t156 -51.5t138 -94t96 -151.5t38 -214.5q0 -164 -62.5 -327t-178 -302t-302 -226.5t-409.5 -87.5q-270 0 -429 133.5t-159 381.5zM545 539q0 -111 39 -192t104.5 -122t135 -59.5t147.5 -18.5 q150 0 274.5 53.5t204.5 136.5t136 186.5t80 200.5t24 183q0 106 -39 183t-105.5 116t-138.5 56.5t-152 17.5q-145 0 -267 -47t-201.5 -122t-136 -173t-81 -198.5t-24.5 -200.5z" />
<glyph unicode="P" horiz-adv-x="1712" d="M229 43q8 82 37 102q12 8 51 9h97l278 1114h-86q-59 0 -59 45q8 84 39 102q10 6 37 6h696q82 0 156.5 -15t145.5 -50t113 -103.5t42 -162.5q0 -178 -148.5 -337t-419.5 -190q-47 -6 -143 -6h-354l-101 -403h86q61 0 62 -43q-8 -86 -39 -103q-16 -8 -39 -8h-391 q-60 0 -60 43zM745 711h322q291 0 410 116q102 98 102 234q0 70 -33 115t-96.5 63t-112.5 23.5t-125 5.5h-329z" />
<glyph unicode="Q" horiz-adv-x="1871" d="M340 492q0 125 38 255t117.5 255.5t190.5 224t268.5 159t339.5 60.5q270 0 428 -138.5t158 -387.5q0 -121 -37 -249t-111.5 -256t-205.5 -233.5t-299 -158.5q8 -115 34.5 -170.5t100.5 -55.5t145.5 54.5t102.5 136.5q16 47 43 47q12 0 22.5 -11.5t10.5 -23.5 q0 -29 -25 -90.5t-67 -132t-115.5 -122.5t-157.5 -52q-55 0 -94 21.5t-59.5 53t-32 89t-13.5 104.5t-2 125q-96 -18 -190 -19q-270 0 -430 132.5t-160 382.5zM532 522q0 -250 207 -338q31 94 114 135t161 41q158 0 194 -180q111 39 198 108.5t138 146.5t85 165t46.5 158.5 t12.5 132.5q0 111 -39 190.5t-105.5 120.5t-137.5 59.5t-151 18.5q-145 0 -269 -50t-206 -130t-139 -181.5t-83 -202t-26 -194.5zM895 161.5q0 -18.5 74 -18.5q70 0 125 9q-35 55 -101 55q-41 0 -69.5 -13.5t-28.5 -32z" />
<glyph unicode="R" horiz-adv-x="1843" d="M229 43q8 82 37 102q12 8 51 9h97l278 1114h-82q-63 0 -63 45q0 43 20 84q12 24 55 24h3h567q176 0 272 -24q76 -20 133.5 -53t85 -65t45 -71t20.5 -61.5t3 -44.5q0 -123 -90 -229.5t-252 -174.5q106 -80 107 -196q0 -43 -29 -150.5t-29 -134.5q0 -45 33 -65.5t72 -20.5 q33 0 54 18.5t35.5 47t18.5 32.5q16 12 78 13q72 0 72 -39q0 -57 -78 -141.5t-199 -84.5q-66 0 -125 16.5t-109 69t-50 134.5q0 41 29.5 153.5t29.5 136.5q0 147 -330 148h-264l-119 -481h86q59 0 60 -43q-8 -86 -39 -103q-14 -8 -45 -8h-377q-62 0 -62 43zM764 788h270 q301 0 418 99q100 82 100 188q0 66 -37.5 108t-109.5 59.5t-125 21.5t-129 4h-268z" />
<glyph unicode="S" horiz-adv-x="1433" d="M195 6q0 6 17 77t46 183.5t41 161.5q8 31 18.5 38t32.5 7h60q23 0 32 -1t17 -8t8 -22q0 -6 -4 -32.5t-4 -47.5q0 -66 31.5 -113.5t84 -71t107.5 -35t117 -11.5q100 0 178 34t115.5 85t56 98t18.5 84q0 117 -120 168q-29 12 -190 49t-198 49q-86 33 -148 104.5t-62 178.5 q0 74 34.5 151.5t99 149.5t175 118t248.5 46q225 0 346 -141q47 66 72.5 96.5t34.5 36.5t20 6h4q43 0 43 -29q0 -6 -52.5 -215t-54.5 -213q-12 -39 -49 -39h-57q-37 0 -49.5 7.5t-12.5 25.5q0 6 2 26.5t2 36.5q0 111 -62.5 185t-213.5 74q-164 0 -257 -87.5t-93 -183.5 q0 -70 55 -114t122.5 -59t170 -36.5t156.5 -40.5q90 -35 152.5 -111.5t62.5 -189.5q0 -63 -21.5 -130.5t-68 -134t-111 -120t-161.5 -86.5t-210 -33q-119 0 -212 28t-125.5 50.5t-71.5 59.5q-68 -96 -88.5 -117t-45.5 -21q-38 0 -38 29z" />
<glyph unicode="T" horiz-adv-x="1740" d="M391 979q0 8 127 385q8 27 22.5 37t43.5 10h1253q59 0 59 -47q0 -10 -59 -373q-6 -35 -21.5 -44t-46.5 -9h-38q-59 0 -60 49q0 18 13.5 102.5t17.5 157.5q-51 8 -195 8h-227l-274 -1101h159q51 0 52 -43q0 -51 -23 -88q-12 -23 -53 -23h-514q-68 0 -68 43q8 84 35 102 q10 8 37 9h178l274 1101h-157q-8 0 -24.5 1t-22.5 1q-143 0 -220 -14q-27 -55 -52 -125.5t-40 -113.5t-26 -54q-14 -12 -41 -12h-43q-66 0 -66 41z" />
<glyph unicode="U" horiz-adv-x="1902" d="M477 360q0 70 25 164l131 523l55 221h-86q-59 0 -59 45q8 86 39 102q10 6 39 6h391q57 0 57 -43q-8 -82 -37 -102q-12 -8 -51 -8h-96q-14 -59 -60 -238l-131 -526q-23 -94 -22 -144q0 -229 305 -229q88 0 161.5 19.5t122 45t89.5 70.5t61.5 74t38.5 79t21.5 61.5 t11.5 43.5l184 742q-29 2 -84 2q-61 0 -61 43q0 10 10 53q10 37 23.5 47t41.5 10h373q57 0 58 -43q-8 -82 -37 -102q-12 -8 -54 -8q-66 0 -96 -2q-2 -14 -10 -42t-10 -42l-166 -664q-16 -68 -29.5 -109.5t-63 -123.5t-122.5 -144q-195 -164 -482 -164q-252 0 -366.5 111.5 t-114.5 271.5z" />
<glyph unicode="V" horiz-adv-x="1859" d="M442 1311q0 41 21 82q14 28 54 28h3h354q59 0 60 -43q-8 -86 -37 -102q-12 -8 -41 -8h-53l190 -1047l713 1047h-15.5t-13.5 1t-12 1t-12 1t-10.5 2t-10.5 3t-8 5t-6 7t-3 10.5t-1 12.5q0 8 10 53q12 57 62 57h344q57 0 57 -43q-8 -82 -37 -102q-12 -8 -57 -8 q-33 0 -103 -4q-45 -72 -88 -131l-747 -1096q-37 -53 -99 -53h-71q-25 0 -39.5 9t-18.5 20.5t-8 33.5l-198 1096q-14 76 -23 125h-96q-60 0 -60 43z" />
<glyph unicode="W" horiz-adv-x="2514" d="M438 1313q8 86 39 102q12 6 41 6h332q57 0 57 -43q-8 -82 -35 -102q-12 -8 -43 -8h-63q6 -88 30.5 -335t43 -446.5t18.5 -263.5l37 70l168 289l410 686h-50q-55 0 -55 45q8 80 35 100q12 8 43 8h330q61 0 61 -43q-8 -82 -35 -102q-12 -8 -43 -8h-65l63 -647l21 -246 l6 -82l2 -70l110 195l504 848q-8 0 -28.5 1t-28.5 1q-61 0 -62 45q8 84 37 102q8 6 41 6h328q57 0 57 -43q0 -14 -9 -50t-21 -48q-14 -12 -52 -12q-68 0 -82 -4t-28 -25l-703 -1173q-20 -37 -28.5 -48.5t-28.5 -22.5t-51 -11h-47q-31 0 -46.5 11t-18.5 22.5t-5 41.5 l-102 1055h-2q-66 -143 -187 -348l-336 -571q-104 -174 -123 -191q-20 -20 -65 -20h-55q-33 2 -43.5 16t-14.5 43l-86 889q-8 100 -35 336h-75q-62 0 -62 45z" />
<glyph unicode="X" horiz-adv-x="1859" d="M145 43q0 41 23 86q14 25 53 25h47q41 0 64.5 1t39 8t19.5 9t19 16l575 557l-295 523h-121q-71 0 -71 44q0 7 10 52q8 39 25.5 49t64.5 10q8 0 31.5 -1t40.5 -1h278q55 0 56 -41q0 -18 -9 -55q-6 -27 -17 -40t-20.5 -15t-31.5 -2l211 -373l385 373q-47 2 -47 43 q0 12 8 49q10 37 22.5 49t46.5 12h361q57 0 57 -43t-20 -84q-12 -26 -53 -26h-3h-16q-98 0 -121.5 -4t-48.5 -27l-494 -479l342 -604h121q72 0 72 -43q0 -8 -10 -54q-6 -23 -11.5 -32t-17.5 -17t-37 -8h-375q-55 0 -55 43q0 16 8 53q10 39 24.5 48.5t45.5 9.5l-258 456 l-469 -456q47 -2 47 -43q0 -16 -8 -50q-8 -39 -21.5 -50t-48.5 -11h-360q-58 0 -58 43z" />
<glyph unicode="Y" horiz-adv-x="1859" d="M434 1311q0 45 19 82q12 28 56 28h3h371q61 0 61 -43q-10 -82 -35 -100q-12 -10 -53 -10l266 -525l531 525q-49 2 -49 45q8 82 36 100q12 8 41 8h355q57 0 57 -43q-8 -84 -37 -102q-12 -8 -57 -8q-100 0 -119.5 -5.5t-52.5 -37.5l-633 -627l-6 -6q-18 -16 -29.5 -52 t-48.5 -186q-29 -119 -49 -200h82q66 0 65 -43q-8 -88 -39 -105q-10 -6 -39 -6h-385q-59 0 -59 43q8 82 37 102q12 8 51 9h98l105 415l-356 699h-125q-62 0 -62 43z" />
<glyph unicode="Z" horiz-adv-x="1564" d="M203 35q0 70 53 121l1157 1112h-244q-371 0 -411 -25q-49 -29 -113 -237q-12 -39 -25.5 -48.5t-44.5 -9.5h-40q-57 0 -58 41q0 18 56.5 211t70.5 207q12 14 49 14h1012q49 0 49 -32q0 -66 -51 -115l-1153 -1108h268q211 0 306.5 6t115 14.5t33.5 32.5q37 63 102 268 q12 39 24.5 49.5t49.5 10.5h39q59 0 59 -41q0 -12 -141 -459q-10 -29 -21.5 -38t-41.5 -9h-1051q-49 0 -49 35z" />
<glyph unicode="[" horiz-adv-x="780" d="M184 -469q0 10 23 100l463 1854q6 27 18 39t43 12h248q55 0 55 -43q-8 -90 -43 -107q-10 -4 -39 -4h-133l-434 -1740h119q57 0 57 -43q0 -14 -10 -50t-23 -49q-14 -12 -43 -12h-241q-60 0 -60 43z" />
<glyph unicode="\" d="M557 1456q0 37 23.5 57.5t52.5 20.5q16 0 29.5 -5t22.5 -17.5t15.5 -24.5t10.5 -32.5t7 -35t6 -40t5 -38.5l262 -1730l6 -43q0 -29 -21.5 -53.5t-53.5 -24.5q-18 0 -31.5 5t-23 17.5t-14.5 23.5t-10 32.5t-7 36t-5.5 40t-5.5 40.5l-262 1726q-6 43 -6 45z" />
<glyph unicode="]" horiz-adv-x="780" d="M-2 -469q0 16 10 53q8 33 22.5 45.5t49.5 12.5h135l434 1740h-121q-55 0 -55 41q0 18 6 41q2 4 4 14.5t3 13.5t3.5 11t4.5 10.5l6 7.5t8 7t9 4t13.5 3t16.5 1h235q66 0 66 -43q0 -8 -4 -25l-482 -1929q-14 -51 -61 -51h-248q-55 0 -55 43z" />
<glyph unicode="^" horiz-adv-x="1564" d="M567 1065q0 10 3 18.5t11.5 15.5t13.5 9t19.5 8t18.5 8q453 182 463 183q14 0 161 -76q123 -61 220 -111q2 0 8 -3l10 -5t10 -7t10.5 -9t7.5 -10.5t3 -14.5q0 -20 -34 -68.5t-58 -48.5q-18 0 -182.5 87t-180.5 87q-2 0 -5 -1t-10 -3t-16.5 -6t-27 -11t-38 -15.5 t-52 -21.5t-68.5 -27.5t-89 -36t-110 -43.5q-20 -8 -32 -9q-31 0 -43.5 40t-12.5 71z" />
<glyph unicode="_" horiz-adv-x="1957" d="M100 -637q0 63 82 64h1274q80 0 80 -64q0 -61 -82 -61h-1274q-80 0 -80 61z" />
<glyph unicode="`" d="M649 1362q0 37 31 68.5t70 31.5q29 0 88 -41q43 -29 106 -71q100 -66 118.5 -82.5t18.5 -34.5q0 -20 -36.5 -66.5t-61.5 -46.5q-12 0 -43 17.5t-238 148.5q-53 31 -53 76z" />
<glyph unicode="a" d="M262 322q0 145 62.5 292.5t195.5 256t303 108.5q129 0 228 -84q35 51 90 51q35 0 55.5 -20.5t20.5 -51.5q0 -10 -17 -75l-135 -541q-6 -20 -6 -43q0 -31 22.5 -51.5t48.5 -20.5q37 0 59.5 42t35 92.5t20.5 58.5q12 10 41 10h66q47 0 47 -29q0 -14 -17.5 -62t-49.5 -110.5 t-93 -109.5t-133 -47q-145 0 -209 116q-153 -116 -308 -116h-3q-145 0 -234.5 89t-89.5 245zM449 319q0 -96 48 -136t117 -40q100 0 191.5 81t126.5 216q37 150 37 174q0 119 -52.5 164t-121.5 45q-82 0 -146.5 -44t-100.5 -106.5t-59.5 -137t-31.5 -128t-8 -88.5z" />
<glyph unicode="b" horiz-adv-x="1171" d="M268 319q0 76 35 220l176 702q-23 2 -50.5 3t-41.5 2t-28.5 4t-19.5 12.5t-5 25.5q0 25 9 55.5t19 40.5q12 14 146 25q68 6 115 10q4 0 10 1t10 1q47 0 47 -41q0 -16 -17.5 -84.5t-47 -186.5t-50.5 -204q131 74 248 74q55 0 108.5 -15.5t104.5 -51t82 -104.5t31 -163 q0 -102 -37 -214t-103.5 -212t-177 -165.5t-243.5 -65.5q-145 0 -232.5 87.5t-87.5 243.5zM444 322q0 -178 170 -179q96 0 170 60.5t110 148.5t52.5 164t16.5 131q0 96 -48.5 136t-117.5 40q-90 0 -173 -66.5t-128 -174.5q-12 -31 -32 -120t-20 -140z" />
<glyph unicode="c" horiz-adv-x="1171" d="M266 342q0 244 175 440.5t446 196.5q123 0 201.5 -54.5t78.5 -142.5q0 -72 -40 -107.5t-85 -35.5q-35 0 -59.5 22.5t-24.5 57.5q0 33 27 74q-49 30 -119 30h-4q-96 0 -172 -39t-119 -95t-70.5 -125.5t-36.5 -124t-9 -95.5q0 -201 239 -201q109 0 186.5 17.5t107.5 37 t52.5 37t32.5 17.5q14 0 50 -38t40 -50q6 -18 -22 -43q-152 -133 -471 -133q-213 0 -308.5 100t-95.5 254z" />
<glyph unicode="d" d="M262 322q0 147 63.5 294.5t196.5 255t301 107.5q127 0 224 -82l86 344q-18 2 -46 3t-42.5 2t-30 4t-21.5 12.5t-6 25.5q8 80 35 101q10 8 79.5 16t133.5 12l63 4q45 0 45 -41q0 -8 -4 -28l-270 -1082q-10 -45 -10 -55q0 -33 23.5 -52.5t47.5 -19.5q37 0 59.5 43t36 93.5 t21.5 58.5q10 8 39 8h55q57 0 58 -31q0 -14 -17.5 -61t-49.5 -109.5t-93 -109.5t-133 -47q-145 0 -209 116q-153 -116 -308 -116h-3q-139 0 -231.5 85t-92.5 249zM449 319q0 -96 48 -136t117 -40q92 0 175 69t126 171q2 6 15.5 49t26 100.5t12.5 88.5q0 78 -38 140 t-136.5 62t-172 -63.5t-108.5 -154.5t-50 -165t-15 -121z" />
<glyph unicode="e" horiz-adv-x="1171" d="M270 354q0 256 174 440.5t441 184.5q131 0 212 -60.5t81 -160.5q0 -104 -74 -183q-131 -139 -555 -139h-17q-12 0 -34.5 -1t-32.5 -1q-6 -41 -6 -82q0 -209 237 -209q104 0 181 17.5t108 37t53.5 37t32.5 17.5q18 0 55 -41t37 -55q0 -10 -16.5 -30t-55 -44.5t-93 -45 t-142.5 -34.5t-188 -14q-113 0 -195 32.5t-124 90t-60.5 116.5t-18.5 127zM506 590h84q416 0 416 143q0 41 -39 65.5t-107 24.5q-256 0 -354 -233z" />
<glyph unicode="f" horiz-adv-x="780" d="M-45 -266q0 53 36 90t87 37q39 0 60.5 -21.5t21.5 -58.5q0 -23 -4 -35q6 0 17 -1t17 -1h5q39 0 63.5 30.5t51 129t55 251t77.5 429.5q10 55 15 84l24 145h-184q-57 0 -57 43q0 18 8 43q6 27 10 37t18.5 20.5t38.5 10.5h195v2q33 217 66.5 294.5t103.5 122.5q76 47 154 48 q53 0 101 -11.5t90 -45.5t42 -87q0 -49 -34 -88t-87 -39q-82 0 -82 80q0 10 4 35l-112 2q-35 -88 -68 -313h225q55 0 56 -43q-6 -88 -41 -105q-10 -6 -37 -6h-232q-100 -600 -145 -797q-20 -86 -33.5 -134t-58.5 -123.5t-109 -123.5q-63 -45 -131 -45h-4q-84 0 -153.5 35 t-69.5 109z" />
<glyph unicode="g" horiz-adv-x="1171" d="M156 -285q0 53 35.5 90t84.5 37q35 0 60 -22q24 -19 24 -65v-7q86 -4 127 -4q96 0 160 14.5t92.5 43t40 52t19.5 58.5q2 8 2 12q29 113 39 150q-131 -74 -250 -74q-139 0 -232.5 84t-93.5 248q0 143 62.5 288.5t194.5 252t300 106.5q129 0 228 -84q41 51 92 51 q31 0 52 -19.5t21 -49.5q0 -20 -6 -39l-229 -924l-4 -20q-4 -18 -7 -26.5t-10.5 -30t-15.5 -36t-21.5 -36t-32 -37t-41 -34t-53 -34.5t-65.5 -29q-115 -41 -256 -41h-47q-270 0 -270 125zM449 328q0 -94 48 -134t119 -40q90 0 172 64.5t127 170.5q10 27 32 113t22 127 q0 82 -45 138t-131 56q-78 0 -140.5 -42t-99.5 -101t-61.5 -131t-33.5 -127t-9 -94z" />
<glyph unicode="h" d="M188 63q0 2 13 70l278 1108q-18 2 -44.5 3t-41 2t-30 4t-22.5 12.5t-7 25.5q0 14 9 50t21.5 48.5t108.5 20.5q82 6 150 12q4 0 12 1t10 1q45 0 45 -41q0 -16 -21.5 -104t-57.5 -225.5t-54 -216.5q158 145 336 145q133 0 207 -58.5t74 -175.5q0 -109 -76 -320.5 t-76 -223.5q0 -57 53 -58q45 0 87 45t67 115q10 29 20.5 36t34.5 7h51q63 0 64 -29q0 -72 -104.5 -199.5t-247.5 -127.5q-90 0 -149.5 50t-59.5 132q0 39 76.5 248t76.5 291q0 112 -127 112h-2q-281 0 -432 -501q-14 -45 -28.5 -106.5t-22.5 -94.5t-22.5 -68t-37 -49 t-55.5 -14q-31 0 -53.5 21t-22.5 52z" />
<glyph unicode="i" horiz-adv-x="780" d="M143 651q0 25 25 77t66.5 109.5t112.5 99.5t149 42q88 0 147 -51t59 -133v-13q0 -35 -103 -296t-103 -287q0 -25 16 -40.5t39 -15.5q49 0 91 50.5t65 117.5q14 35 51 35h78q38 0 38 -28t-24.5 -79t-67.5 -109t-113.5 -100t-148.5 -42q-88 0 -147.5 51t-59.5 133 q0 33 25 102q182 473 182 494q0 23 -15.5 39t-39.5 16q-41 0 -80 -39t-63 -96q-4 -10 -9.5 -25.5t-7.5 -19.5t-8 -11t-14.5 -8t-22.5 -1h-80q-37 -1 -37 28zM571 1305q0 43 36 79.5t83 36.5q35 0 59.5 -22.5t24.5 -59.5q0 -43 -37 -79.5t-84 -36.5q-37 0 -59.5 23.5 t-22.5 58.5z" />
<glyph unicode="j" horiz-adv-x="780" d="M-70 -283q0 53 38 89t85 36q82 0 82 -86v-12h2q49 0 74 4q172 27 205 191l190 761q8 33 8 52q0 33 -23.5 52t-58.5 19q-49 0 -110.5 -36.5t-104.5 -124.5q-12 -27 -22 -33t-33 -6h-72q-45 0 -45 24q0 23 31 75t82 110.5t135 102.5t172 44q98 0 165 -56.5t67 -146.5 q0 -33 -19 -100l-188 -752q0 -2 -3 -15t-5 -22.5t-8.5 -27t-13.5 -30.5t-18.5 -32.5t-24.5 -36t-32.5 -36t-42.5 -35.5q-131 -98 -303 -99q-96 0 -152.5 35t-56.5 92zM670 1305q0 43 36.5 79.5t84.5 36.5q37 0 59 -23.5t22 -58.5q0 -43 -36.5 -79.5t-83.5 -36.5 q-37 0 -59.5 23.5t-22.5 58.5z" />
<glyph unicode="k" horiz-adv-x="1171" d="M188 63q0 18 7 41l284 1137q-45 4 -69 4h-13q-63 0 -63 43q8 80 33 101q10 8 79.5 16t135.5 12l63 4q45 0 45 -35q0 -16 -190 -776q63 29 143 95.5t140.5 124t141.5 103.5t156 46q74 0 111 -51t37 -133q0 -199 -131 -199q-35 0 -59.5 21.5t-24.5 56.5q0 39 26.5 72.5 t26.5 50.5q0 33 -45 24q-25 -4 -50.5 -13t-54 -26.5t-49 -31t-54.5 -42t-51.5 -44t-57 -51t-56.5 -50.5q102 -23 180 -81t78 -165q0 -23 -5 -51t-5 -43q0 -35 23.5 -57.5t56.5 -22.5q45 0 72.5 41t43 92.5t21.5 57.5q12 12 78 12h25q51 0 51 -29q0 -31 -33 -104.5 t-110.5 -149t-174.5 -75.5q-94 0 -163.5 58t-69.5 157q0 14 5 45t5 47q0 123 -270 137h-2q-84 -365 -103 -393q-31 -49 -88 -49q-31 0 -53.5 20t-22.5 53z" />
<glyph unicode="l" horiz-adv-x="649" d="M223 190q0 35 19 109l235 942q-31 4 -60.5 4h-40.5t-20.5 5t-17.5 16q-4 6 -4 22q0 25 9 55.5t19.5 41t29 13.5t114.5 11q70 6 117 10q4 0 10 1t10 1q47 0 47 -41l-12 -61l-268 -1067q-6 -25 -4 -45q2 -27 24.5 -45.5t46.5 -18.5q35 0 55.5 40t45.5 130q10 33 55 33h67 q43 0 43 -29q0 -14 -17 -62t-49 -109.5t-92.5 -108.5t-133.5 -47q-90 0 -159 53t-69 147z" />
<glyph unicode="m" horiz-adv-x="2086" d="M141 651q0 14 17.5 62.5t50.5 110t93 108.5t134 47q76 0 142.5 -43t83.5 -127q170 170 362 170q33 0 64.5 -5t82 -20.5t85 -57.5t44.5 -103q51 53 87 83.5t117 66.5t171 36q135 0 209 -58.5t74 -175.5q0 -100 -77 -317t-77 -229q0 -25 16.5 -40.5t39.5 -15.5 q47 0 90 48.5t67 119.5q8 20 17.5 27.5t31.5 7.5h62q55 0 55 -31q0 -37 -39 -110.5t-126 -145t-189 -71.5q-88 0 -147.5 51t-59.5 133q0 39 77 250t77 291q0 110 -129 110h-2q-106 0 -193.5 -70.5t-139.5 -180t-86 -214t-56.5 -198.5t-28.5 -109q-27 -61 -97 -61 q-31 0 -52 19.5t-21 49.5q0 16 8 50l131 526q12 43 12 76q0 112 -127 112h-2q-248 0 -399 -401q-27 -70 -47.5 -148.5t-30.5 -124t-25 -85t-38 -57t-62 -17.5q-31 0 -52.5 19.5t-21.5 49.5q0 4 13 66l145 582q8 29 8 45q0 33 -23.5 52t-49.5 19q-35 0 -57.5 -40t-35 -90 t-18.5 -58q-8 -12 -37 -12h-67h-4q-50 0 -50 28z" />
<glyph unicode="n" horiz-adv-x="1433" d="M141 651q0 14 17.5 62.5t49.5 110t92 108.5t134 47q76 0 142.5 -41t85.5 -129q160 170 360 170q119 0 200 -53.5t81 -180.5q0 -111 -76 -321.5t-76 -224.5q0 -25 15.5 -40.5t39.5 -15.5q45 0 88 46.5t68 119.5q8 27 20.5 32t59.5 5h26q59 0 60 -29q0 -25 -23.5 -76 t-65.5 -108t-113 -100t-150 -43q-88 0 -148.5 50t-60.5 132q0 37 77.5 248t77.5 291q0 112 -129 112h-2q-106 0 -193 -70.5t-139.5 -180t-86 -213t-56 -197.5t-29.5 -109q-29 -63 -96 -63q-31 0 -52.5 19.5t-21.5 49.5q0 23 7 43l151 609q6 23 6 41q0 33 -22.5 52t-48.5 19 q-37 0 -58.5 -43t-35 -93t-23.5 -58q-8 -6 -39 -6h-61h-3q-49 0 -49 28z" />
<glyph unicode="o" d="M266 342q0 104 40 213t115 205t197.5 157.5t272.5 61.5q176 0 280.5 -93t104.5 -261q0 -150 -69.5 -292.5t-216 -243.5t-337.5 -101q-178 0 -282.5 94t-104.5 260zM455 344q0 -201 227 -201q115 0 200 53.5t127 135.5t61.5 155.5t19.5 135.5q0 111 -66 156.5t-162 45.5 t-172 -38.5t-119 -94t-70.5 -125t-36.5 -124t-9 -99.5z" />
<glyph unicode="p" d="M92 -354q8 86 39 102q12 8 41 8h66l24 103l213 846q8 33 8 49q0 29 -23.5 49t-49.5 20q-37 0 -58.5 -42t-34 -92t-22.5 -58t-37 -8h-72q-43 0 -43 26q0 16 17.5 65.5t50.5 111t93.5 107.5t131.5 46q141 0 209 -117q150 117 311 117q137 0 229.5 -85t92.5 -251 q0 -104 -38 -217t-105.5 -212t-177 -162.5t-238.5 -63.5t-225 80l-76 -312h86q59 0 59 -43q0 -41 -20 -82q-12 -28 -57 -28h-3h-329q-62 0 -62 43zM573 334q0 -102 52.5 -146.5t119.5 -44.5q82 0 146.5 44t101.5 106.5t60.5 137.5t32 128t8.5 88q0 96 -48.5 136t-117.5 40 q-102 0 -193.5 -83t-124.5 -210q0 -4 -11 -45t-18.5 -78.5t-7.5 -72.5z" />
<glyph unicode="q" horiz-adv-x="1171" d="M262 324q0 104 37 215.5t104.5 211t178 164t241.5 64.5q139 0 230 -90h2q33 39 78 62.5t63 23.5q37 0 37 -37q0 -16 -16 -74l-277 -1108h82q63 0 63 -45q-8 -86 -38 -102q-12 -6 -39 -6h-373q-59 0 -60 43q8 84 37 102q12 8 52 8h96l76 305q-119 -73 -247 -73h-3 q-139 0 -231.5 85t-92.5 251zM449 319q0 -96 48 -136t117 -40q88 0 161 55.5t113 135.5t60.5 155.5t20.5 133.5q0 47 -11.5 87t-53.5 76.5t-111 36.5q-96 0 -169 -61.5t-108 -151.5t-51 -165t-16 -126z" />
<glyph unicode="r" horiz-adv-x="1073" d="M141 651q0 14 17.5 61.5t49.5 110t93 109.5t135 47q57 0 122 -29.5t93 -105.5q143 135 299 135q106 0 172 -63.5t66 -159.5q0 -84 -40 -122t-87 -38q-35 0 -59.5 21.5t-24.5 56.5q0 27 15.5 55.5t15.5 38.5q0 18 -23.5 36.5t-62.5 18.5q-178 0 -306 -317 q-39 -98 -67.5 -211t-39.5 -170t-39 -96t-79 -39q-31 0 -52.5 19.5t-21.5 49.5q0 18 9 52l139 559q16 61 16 84q0 31 -22.5 50t-46.5 19q-35 0 -57.5 -39t-36 -90t-17.5 -57q-10 -14 -61 -14h-50q-49 -1 -49 28z" />
<glyph unicode="s" horiz-adv-x="1040" d="M180 197q0 70 39 107.5t86 37.5q35 0 59.5 -22.5t24.5 -57.5q0 -37 -29 -76v-2q57 -41 185 -41q145 0 208.5 50.5t63.5 111.5q0 51 -50 77t-139 41t-114 23q-61 23 -107.5 76t-46.5 129q0 29 8.5 66t35 85t67.5 86t113.5 64.5t165.5 26.5q131 0 209.5 -50t78.5 -134 q0 -68 -38.5 -102t-79.5 -34q-33 0 -56.5 21.5t-23.5 54.5q0 27 18 64q-47 26 -129 26h-6q-88 0 -138 -42t-50 -91q0 -45 40.5 -65.5t121.5 -33.5t114 -26q74 -25 126 -81t52 -140q0 -35 -10 -76t-41 -93t-79 -92t-135 -68.5t-200 -28.5q-176 0 -260 62.5t-84 146.5z" />
<glyph unicode="t" horiz-adv-x="843" d="M178 856q0 18 8 43q12 43 23.5 55.5t46.5 12.5h219q88 352 94 364q33 61 95 62q33 0 54 -19.5t21 -50.5q0 -14 -21.5 -103.5t-41.5 -170.5l-23 -82h201q57 0 57 -43q0 -18 -8 -43q-10 -43 -20.5 -55.5t-46.5 -12.5h-222l-135 -547q-10 -41 -10 -51q0 -29 20.5 -50.5 t61.5 -21.5q61 0 121.5 47.5t95.5 116.5q12 27 23.5 33t35.5 6h56q57 0 57 -27q0 -23 -30.5 -73.5t-81 -110t-134.5 -103.5t-174 -44q-98 0 -164.5 57t-66.5 148q0 29 24.5 130t64.5 255.5t58 234.5h-200q-58 0 -58 43z" />
<glyph unicode="u" horiz-adv-x="1368" d="M141 649q0 25 24.5 76t67.5 109.5t114 101.5t151 43q88 0 147.5 -51t59.5 -133q0 -39 -72 -227.5t-72 -280.5q0 -143 148 -144q94 0 176 92.5t123 253.5q98 393 108 414q29 63 94 64q33 0 54.5 -19.5t21.5 -52.5q0 -10 -10 -51l-146 -584q-8 -29 -8 -45q0 -31 22.5 -51.5 t51.5 -20.5q47 0 79 96.5t36 98.5q10 8 41 8h63q49 0 49 -31q0 -14 -17 -62t-50 -110.5t-93.5 -108.5t-132.5 -46q-152 0 -213 121q-72 -59 -133 -90t-147 -31q-125 0 -212 61.5t-87 206.5q0 115 70.5 306.5t70.5 205.5q0 25 -15.5 40t-37.5 15q-45 0 -89 -46t-67 -115 q-8 -27 -18 -33t-35 -6h-55h-4q-58 0 -58 26z" />
<glyph unicode="v" horiz-adv-x="1171" d="M141 651q0 25 24.5 76t66.5 108.5t114 100.5t150 43q88 0 147 -51t59 -133q0 -43 -70.5 -226.5t-70.5 -271.5q0 -139 152 -154h20q98 0 159.5 95.5t117.5 304.5q32 121 32 179q0 50 -18 89t-18 57q0 43 35.5 77t76.5 34q47 0 76 -47t29 -127q0 -57 -17.5 -151.5 t-58.5 -211t-98.5 -217t-147.5 -169t-194 -68.5q-84 0 -153 21.5t-121 86t-52 168.5q0 111 69.5 300.5t69.5 201.5q0 27 -15.5 42t-39.5 15q-20 0 -43 -9t-56.5 -49t-56.5 -106q-8 -25 -19 -30.5t-36 -5.5h-59h-4q-50 0 -50 28z" />
<glyph unicode="w" horiz-adv-x="1695" d="M141 651q0 25 24.5 77t66.5 109.5t113 99.5t149 42q102 0 156.5 -56.5t54.5 -127.5q0 -41 -71 -222.5t-71 -269.5q0 -160 191 -160q137 0 204 269q119 479 127 495q31 59 95 60q33 0 53 -19.5t20 -52.5q0 -25 -67.5 -282t-67.5 -316q0 -84 51.5 -119t122.5 -35 q90 0 148 113q37 74 82 236.5t45 232.5q0 49 -18.5 88t-18.5 55q0 45 38 78t77 33q47 0 74.5 -47t27.5 -129q0 -39 -14.5 -124t-50 -206t-86 -227.5t-136.5 -182t-188 -75.5h-8q-209 0 -289 125q-113 -125 -244 -125q-150 0 -249 64.5t-99 217.5q0 109 68.5 296.5 t68.5 201.5q0 55 -53 55q-47 0 -90 -46t-68 -122q-8 -20 -17 -26t-32 -6h-67h-3q-49 0 -49 28z" />
<glyph unicode="x" horiz-adv-x="1175" d="M141 649q0 80 123 205t299 125q147 0 230 -88q123 88 233 88q102 0 166.5 -61.5t64.5 -159.5q0 -84 -39.5 -123t-87.5 -39q-37 0 -59 21.5t-22 56.5q0 47 36 88q-27 61 -86 61q-88 0 -131 -71q-14 -23 -69.5 -248t-55.5 -258q0 -102 129 -103q78 0 137.5 47.5t86.5 106.5 q16 37 24 43t51 6h46q53 0 53 -29q0 -80 -124 -204.5t-298 -124.5q-147 0 -230 88h-2q-106 -88 -231 -88q-98 0 -164.5 62.5t-66.5 160.5q0 84 38.5 122t88.5 38q37 0 60.5 -21.5t23.5 -56.5q0 -43 -39 -88q23 -61 86 -62q37 0 73.5 19.5t55.5 50.5q12 20 24 66 q102 406 103 442q0 102 -129 102q-72 0 -133.5 -44t-90.5 -107q-16 -37 -22 -43t-39 -6h-66q-47 -1 -47 26z" />
<glyph unicode="y" horiz-adv-x="1236" d="M141 651q0 27 26 78t67.5 108.5t112.5 99.5t147 42q100 0 155.5 -55.5t55.5 -128.5q0 -43 -72 -229.5t-72 -278.5q0 -143 148 -144q59 0 112 35t88 89.5t54.5 95t31.5 77.5q2 6 57.5 229.5t65.5 239.5q33 57 92 58q31 0 53.5 -20.5t22.5 -51.5q0 -23 -10 -53l-199 -795 l-4 -22q-6 -20 -10 -32.5t-12.5 -40.5t-20.5 -48.5t-28.5 -50t-39 -54t-50 -52.5t-64.5 -52.5t-80 -44.5q-123 -59 -248 -60q-113 0 -183.5 49.5t-70.5 127.5q0 59 36 96t87 37q35 0 59.5 -21.5t24.5 -56.5q0 -27 -18 -64q39 -14 88 -14q111 0 205 68.5t131 167.5 q8 23 22 81q-113 -73 -220 -73h-3q-123 0 -211 61.5t-88 206.5q0 115 70.5 306.5t70.5 205.5q0 25 -15.5 40t-37.5 15q-47 0 -90 -48t-68 -120q-8 -20 -17 -26t-32 -6h-67h-3q-49 0 -49 28z" />
<glyph unicode="z" horiz-adv-x="1040" d="M117 12q0 14 26 56q31 47 72 96t75 86t95 95t93 88t114 102.5t115 101.5l102 100q-20 6 -64.5 24.5t-79 29t-69.5 10.5q-53 0 -86 -20.5t-49.5 -44t-24.5 -25.5q-6 -2 -43 -2h-37q-61 0 -61 28q0 66 98.5 154t229.5 88q66 0 160 -51t124 -51q27 0 55.5 51t71.5 51h56 q57 0 57 -25q0 -27 -52.5 -95t-90 -109t-56.5 -60q-68 -70 -214 -199t-267 -245q51 -4 143 -42t140 -38q78 0 137 44t82 101q14 35 53 35h63q51 0 52 -29q0 -84 -125 -206.5t-291 -122.5q-68 0 -159 52t-140 52q-41 0 -73 -19.5t-55.5 -47t-27.5 -29.5q-12 -8 -37 -8h-69h-3 q-40 0 -40 24z" />
<glyph unicode="{" d="M299 465q0 4 5 27.5t14.5 53t17.5 36.5q10 8 46 9t98.5 11t127.5 41q57 27 94 66t47.5 64.5t20.5 64.5q119 471 129 491q49 102 177 154.5t302 52.5h74q41 0 41 -31q0 -10 -11.5 -55t-19.5 -55q-10 -12 -116 -15q-98 -2 -159 -14t-88.5 -37.5t-34.5 -41t-17 -56.5 q-117 -465 -125 -483q-76 -168 -318 -238q197 -68 197 -231q0 -39 -63.5 -287t-63.5 -264q0 -49 75.5 -66.5t162.5 -18.5t97.5 -7.5t10.5 -24.5q0 -20 -21 -88q-8 -23 -18 -29t-35 -6h-53q-227 0 -314 63.5t-87 147.5q0 39 64.5 288t64.5 281q0 61 -60.5 109.5t-204.5 56.5 q-2 0 -14 1t-16 2t-12.5 3t-11.5 8.5t-3 16.5z" />
<glyph unicode="|" horiz-adv-x="780" d="M215 -449q0 23 12 68l457 1823q0 2 3 12t3 13t3 12.5t5 12.5t5.5 11t6.5 10.5t8 7.5t10 7t12.5 4t15.5 2q25 0 42 -17.5t17 -43.5q0 -20 -8 -54l-467 -1861q-14 -68 -66 -68q-25 0 -42 17t-17 44z" />
<glyph unicode="}" d="M61 -483q0 12 12.5 57t18.5 55q10 12 94 12.5t176.5 16.5t124.5 70q12 20 73 267t75 281q74 166 315 238q-195 70 -194 231q0 35 118 508q8 29 9 43q0 49 -74 66.5t-236 19.5q-37 0 -36 29q0 18 20 90q8 23 18.5 29t34.5 6h54q227 0 313 -64.5t86 -148.5 q0 -39 -64.5 -287t-64.5 -280q0 -74 72.5 -117t193.5 -49q2 0 13.5 -1t16.5 -2t13 -3t11 -8.5t3 -16.5q0 -16 -20 -86q-4 -16 -9 -23.5t-17.5 -10.5t-24.5 -4t-39 -3t-53 -6q-266 -47 -308 -236v-4q-113 -453 -129 -491q-49 -102 -177 -154.5t-300 -52.5h-78q-41 0 -41 29z " />
<glyph unicode="~" horiz-adv-x="1564" d="M557 1192q0 23 80 88q16 12 25 20q150 121 270 121q80 0 189.5 -63.5t166.5 -63.5q55 0 113.5 31t98.5 62.5t54 31.5q23 0 50.5 -33.5t27.5 -54.5q0 -14 -16.5 -31.5t-83.5 -74.5q-152 -123 -275 -123q-80 0 -189.5 63.5t-164.5 63.5q-76 0 -166 -62.5t-100 -62.5 q-23 0 -51.5 34t-28.5 54z" />
<glyph unicode="&#xa1;" horiz-adv-x="864" d="M225 -322q0 18 70 246l184 611q14 45 23.5 55t36.5 10h69q47 0 47 -29q0 -16 -10 -61l-153 -778q-31 -152 -160 -152q-45 0 -76 27.5t-31 70.5zM524 874q0 55 47 102.5t107 47.5q45 0 75.5 -29.5t30.5 -76.5q0 -55 -46 -102.5t-105 -47.5q-45 0 -77 29.5t-32 76.5z" />
<glyph unicode="&#xa2;" d="M248 362.5q0 135.5 67.5 261.5t169.5 207q29 23 61 42.5t56.5 33t58 25.5t52 18t52.5 13.5t43 8.5t42 7l33 4q29 137 44 162.5t58 25.5h27q61 0 61 -43q0 -6 -35 -145q4 0 35 -1t43 -2t45 -4t48.5 -7t43 -10.5t42 -16.5t29.5 -23.5t22.5 -31t7.5 -39.5q0 -51 -36 -88 t-85 -37q-33 0 -59.5 19.5t-24.5 70.5l-152 6l-166 -663q139 10 228 116q4 6 12 16.5t10 13.5t8.5 8t10.5 6t12 2t18 1h66q47 0 47 -22q0 -10 -14.5 -37t-50 -67.5t-85 -79.5t-129 -74t-173.5 -47q-31 -139 -45.5 -165t-53.5 -26h-30q-61 0 -62 43q0 20 35 148 q-213 25 -300 130t-87 240.5zM442 399q0 -193 236 -235l162 649q-106 -12 -187.5 -60t-124.5 -111.5t-64.5 -126.5t-21.5 -116z" />
<glyph unicode="&#xa3;" horiz-adv-x="1896" d="M221 100q0 70 76 127.5t246 57.5q55 0 137 -13l27 58l77 305h-149q-37 0 -37 29q0 25 18 88q10 37 48 36h159q66 289 92 357q39 98 101.5 168.5t133.5 106.5t133.5 51.5t119.5 15.5q143 0 227 -90t84 -228q0 -113 -40 -157.5t-93 -44.5q-35 0 -59.5 22.5t-24.5 57 t23.5 66.5t23.5 52q0 55 -40 111.5t-128 56.5q-45 0 -82 -7t-67.5 -27.5t-53 -39t-42 -55.5t-33 -63.5t-27.5 -78.5t-22.5 -82t-23.5 -94.5t-24 -97.5h218q33 -2 32 -30q0 -20 -18 -86q-6 -25 -16.5 -31t-34.5 -6h-219v-2q-37 -166 -67 -267.5t-42 -119.5l-12 -19 q4 -2 43 -14t74.5 -23.5t81.5 -23.5t92.5 -19.5t80.5 -7.5q133 0 185 131q10 23 18 30t31 7h78q41 0 41 -28q0 -80 -124 -185.5t-304 -105.5q-111 0 -263.5 48t-154.5 48q-8 0 -49 -23.5t-114 -48t-163 -24.5q-92 0 -133 34.5t-41 77.5z" />
<glyph unicode="&#xa5;" horiz-adv-x="1859" d="M221 434q0 78 101 78h641q10 47 10 53q0 12 -135 277h-392q-53 0 -75 18q-29 25 -29 60q0 27 17.5 48t43.5 25q8 2 52 2h305l-137 273h-127q-61 0 -62 45q0 39 21 80q16 31 59 30h369q63 0 63 -45q-8 -80 -35 -100q-14 -10 -53 -10l139 -273h346q29 0 52.5 17.5 t120.5 115.5q82 82 139 140q-47 4 -47 45q0 10 4 28.5t4 20.5q10 37 22.5 49t49.5 12h346q61 0 61 -45q0 -14 -8 -47t-16 -43q-16 -20 -58 -20h-63q-18 0 -30.5 -1t-24 -1t-19.5 -5.5t-15.5 -7.5t-17.5 -12l-16 -16l-23.5 -23.5t-29.5 -30.5l-177 -176h279q100 0 100 -75 q0 -43 -41 -68q-18 -10 -61 -10h-404q-27 0 -53 -25q-51 -51 -127 -125q-98 -96 -115.5 -115.5t-19.5 -44.5q-2 -12 -4 -20h606q98 0 98 -78q0 -76 -100 -76h-643l-49 -204h80q66 0 65 -43q-6 -84 -37 -103q-12 -8 -41 -8h-382q-59 0 -60 45q8 80 37 100q12 8 51 9h98 l50 204h-596l-4 -2h-7q-96 0 -96 78zM1075 842l49 -99q47 41 101 99h-150z" />
<glyph unicode="&#xa7;" horiz-adv-x="1171" d="M219 -178q0 78 35 110.5t78 32.5q31 0 52.5 -19.5t21.5 -49.5q0 -14 -6.5 -36t-6.5 -32q0 -29 34 -56.5t91 -27.5q109 0 199 71.5t90 157.5q0 18 -7 36t-15.5 31t-28 26.5t-29.5 21.5t-35.5 19.5t-34 14.5t-34.5 13l-25 10q-37 14 -74 36t-81 58.5t-70.5 92t-26.5 121.5 q0 104 65.5 201.5t166.5 154.5q-90 94 -91 207q0 160 139.5 289t311.5 129q113 0 189.5 -65.5t76.5 -166.5q0 -78 -33.5 -110.5t-76.5 -32.5q-33 0 -53.5 19.5t-20.5 49.5q0 14 6 35t6 31q0 29 -34.5 57.5t-92.5 28.5q-109 0 -198 -71.5t-89 -157.5q0 -18 7.5 -36t15.5 -31 t27.5 -26.5t30 -21.5t36 -19.5t33.5 -14.5t35 -13l24 -10q90 -35 170 -111t80 -197q0 -104 -65.5 -203.5t-163.5 -152.5q90 -96 90 -207q0 -160 -139.5 -289t-311.5 -129q-113 0 -190.5 65t-77.5 167zM477 487q0 -53 57.5 -97t107.5 -60.5t63 -16.5q74 0 158.5 70t84.5 154 q0 53 -57 96t-107.5 60.5t-62.5 17.5q-74 0 -159 -70t-85 -154z" />
<glyph unicode="&#xa8;" d="M614 1272q0 55 46.5 101t107.5 46q47 0 76.5 -30.5t29.5 -75.5q0 -57 -46 -102.5t-105 -45.5q-47 0 -78 31t-31 76zM1073 1272q0 55 46 102t106 47q45 0 76.5 -29.5t31.5 -76.5q0 -59 -49 -104.5t-104 -45.5q-45 0 -76 30t-31 77z" />
<glyph unicode="&#xa9;" horiz-adv-x="2742" d="M287 256q0 180 59.5 362.5t181 351.5t291.5 300t409.5 210t516.5 79q203 0 375 -48.5t305 -142.5t207.5 -247.5t74.5 -352.5q0 -168 -54 -344t-172 -349t-284.5 -308.5t-413.5 -218.5t-536 -83q-203 0 -375 48.5t-304 142.5t-206.5 247.5t-74.5 352.5zM410 254 q0 -332 229 -498t610 -166q264 0 489.5 76t378 199t260 279.5t157 315t49.5 310.5q0 332 -229.5 498t-608.5 166q-256 0 -478.5 -73t-377 -193.5t-265 -274.5t-162.5 -317.5t-52 -321.5zM825 381q0 115 52.5 226.5t147.5 203.5t246.5 149.5t332.5 57.5q211 0 342 -117h2 q55 55 85.5 82t41 31t24.5 4q39 0 39 -31q0 -8 -22.5 -95t-42.5 -171l-23 -86q-10 -35 -51 -35h-68q-33 0 -43 8t-10 41q0 86 -58.5 150.5t-187.5 64.5q-164 0 -288.5 -45t-191.5 -116.5t-98.5 -147.5t-31.5 -152q0 -270 420 -270q125 0 227.5 55.5t138.5 149.5 q10 27 18.5 34t37.5 7h57q55 0 55 -29q0 -33 -23.5 -78t-74.5 -97t-120.5 -96t-175 -73t-226.5 -29q-143 0 -258 38t-194 131.5t-79 234.5z" />
<glyph unicode="&#xaa;" horiz-adv-x="1171" d="M66 567q0 29 19 50.5t48 25.5q16 2 49 2h781q49 0 73 -18q31 -25 31 -60q0 -78 -96 -78h-815q-39 0 -60.5 17.5t-25.5 32t-4 28.5zM242 1032q0 195 131 354.5t334 159.5q100 0 182 -57q37 31 74 31q31 0 52 -20.5t21 -51.5q0 -18 -54 -231t-54 -234q0 -29 20.5 -49.5 t48.5 -20.5q37 0 59.5 42t36 91.5t23.5 57.5q12 10 39 10h66q47 0 47 -31q0 -16 -17.5 -64t-50.5 -108.5t-93 -106.5t-132 -46q-123 0 -195 92h-2q-113 -92 -258 -92q-127 0 -202.5 72.5t-75.5 201.5zM428 1030q0 -119 121 -119q63 0 123.5 46.5t93.5 117.5q10 25 25.5 88.5 t15.5 89.5q0 53 -29.5 96.5t-99.5 43.5t-129 -47q-59 -49 -90 -152t-31 -164z" />
<glyph unicode="&#xab;" horiz-adv-x="1433" d="M455 512q0 14 43 45q258 184 434 438q23 29 57 29h60q43 0 43 -23q0 -18 -60.5 -102t-172 -198.5t-220.5 -190.5q86 -106 138 -228t61.5 -175.5t9.5 -75.5q0 -18 -11.5 -24.5t-43.5 -6.5h-48q-31 0 -39 9t-14 38q-23 109 -64.5 201t-78.5 138t-65.5 81t-28.5 45zM848 512 q0 12 12 25q2 2 55.5 40.5t110.5 86t142 138.5t157 193q23 29 55 29h60q43 0 43 -23q0 -18 -59.5 -100t-170 -197.5t-223.5 -193.5q88 -106 140.5 -231t61.5 -176.5t9 -71.5q0 -31 -57 -31h-47q-31 0 -39 9t-15 38q-23 109 -64.5 201t-78.5 138t-64.5 81t-27.5 45z" />
<glyph unicode="&#xac;" horiz-adv-x="1695" d="M379 739q0 49 49 60q12 2 37 2h1139q80 0 79 -64q0 -14 -129 -532q-14 -72 -67 -72q-25 0 -43.5 17.5t-18.5 44.5q0 10 119 483h-1083q-43 0 -62.5 19t-19.5 42z" />
<glyph unicode="&#xad;" horiz-adv-x="909" d="M199 440q0 10 10 52.5t16 54.5q14 25 54 24h509q57 0 58 -45l-15 -63q-6 -27 -9 -37t-17 -20.5t-41 -10.5h-506q-59 0 -59 45z" />
<glyph unicode="&#xae;" horiz-adv-x="2742" d="M287 256q0 180 59.5 362.5t181 351.5t291.5 300t409.5 210t516.5 79q203 0 375 -48.5t305 -142.5t207.5 -247.5t74.5 -352.5q0 -168 -54 -344t-172 -349t-284.5 -308.5t-413.5 -218.5t-536 -83q-203 0 -375 48.5t-304 142.5t-206.5 247.5t-74.5 352.5zM410 254 q0 -332 229 -498t610 -166q264 0 489.5 76t378 199t260 279.5t157 315t49.5 310.5q0 332 -229.5 498t-608.5 166q-256 0 -478.5 -73t-377 -193.5t-265 -274.5t-162.5 -317.5t-52 -321.5zM735 45q8 80 37 100q12 8 51 9h97v2l172 686h-82q-66 0 -66 45q0 37 23 82 q14 27 57 26h520q274 0 386 -73.5t112 -167.5q0 -80 -65.5 -153t-174.5 -116q53 -63 53 -127q0 -33 -17 -100.5t-17 -83.5q0 -41 90 -41q39 0 59.5 14.5t24.5 33t21.5 32.5t49.5 14h33q68 0 68 -41q0 -51 -72 -130t-194 -79q-281 0 -281 168q0 43 19.5 107.5t19.5 85.5 q0 43 -55.5 62.5t-204.5 19.5h-221l-68 -266h84q61 0 61 -43q-8 -86 -38 -103q-14 -8 -46 -8h-376q-60 0 -60 45zM1217 575h231q289 0 367 87q29 33 28 65q0 115 -319 115h-242z" />
<glyph unicode="&#xaf;" d="M557 1331q0 47 25 92q14 23 55 23h727q59 0 59 -45q-8 -90 -41 -109q-10 -6 -32 -6h-738q-55 0 -55 45z" />
<glyph unicode="&#xb0;" horiz-adv-x="909" d="M475 1104q0 123 89 220t229 97q98 0 158.5 -54t60.5 -148q0 -123 -89 -220.5t-229 -97.5q-98 0 -158.5 56.5t-60.5 146.5zM600 1104q0 -80 94 -80q92 0 143.5 64.5t51.5 130.5q0 80 -94.5 79.5t-144.5 -64.5t-50 -130z" />
<glyph unicode="&#xb1;" horiz-adv-x="1957" d="M190 -16q0 25 16.5 42t45.5 19q16 2 49 2h625l149 598h-612q-33 0 -47 4q-45 14 -45 59.5t45 57.5q16 4 51 4h639q16 68 160 641q18 80 69 80q20 0 40 -15.5t20 -45.5q0 -18 -9 -52l-153 -608h614q33 0 47 -4q43 -14 43 -57q0 -63 -82 -64h-653l-149 -598h622 q82 0 82 -63q0 -61 -82 -62h-1403q-82 1 -82 62z" />
<glyph unicode="&#xb4;" d="M834 1231q0 29 53 55q84 41 194 98q154 78 176 78q33 0 54.5 -23.5t21.5 -54.5q0 -63 -80 -100q-123 -57 -252 -119q-92 -45 -104 -45q-23 0 -38 28t-19 56z" />
<glyph unicode="&#xb5;" d="M86 -350q0 16 8 49l287 1151l2 10q2 12 5 21.5t9 24t14.5 26.5t19.5 22.5t27.5 16.5t37.5 6q29 0 51 -19.5t22 -48.5q0 -25 -68.5 -289t-68.5 -321q0 -156 180 -156q66 0 124.5 35t98 91.5t63.5 101.5t38 86q14 43 60 237.5t57 214.5q31 57 94 58q31 0 52.5 -20.5 t21.5 -51.5q0 -23 -7 -43l-149 -596q-6 -18 -6 -41q0 -31 21.5 -50.5t49.5 -19.5q35 0 57.5 38t35 88.5t18.5 58.5q12 16 59 16h50q49 0 49 -31q0 -10 -10.5 -42.5t-34 -82t-55 -93.5t-83 -75.5t-110.5 -31.5q-156 0 -215 131q-150 -131 -305 -131q-135 0 -228 53 q-96 -385 -104 -401q-29 -61 -94 -62q-31 0 -52.5 19.5t-21.5 50.5z" />
<glyph unicode="&#xb6;" horiz-adv-x="1564" d="M416 852q0 96 49 195.5t138 184.5t233.5 138t316.5 53h537q84 0 84 -61q0 -12 -4.5 -24.5t-24 -26t-51.5 -13.5h-129l-394 -1572h89q90 0 90 -62q0 -63 -80 -63h-645q-76 2 -76 63.5t80 61.5h129l180 727q-233 18 -377.5 121.5t-144.5 277.5zM885 -274h159l394 1572h-162 z" />
<glyph unicode="&#xb7;" horiz-adv-x="694" d="M342 487q0 61 50 106.5t108 45.5q47 0 75.5 -29.5t28.5 -72.5q0 -59 -48 -105.5t-107 -46.5q-47 0 -77 29.5t-30 72.5z" />
<glyph unicode="&#xb8;" horiz-adv-x="1171" d="M209 -365q0 14 9 48t18 45q16 18 100 18h20q287 0 287 82q0 33 -73.5 44t-84.5 22q-8 10 -8 28q0 20 19 84q12 53 28 64q14 10 41 10h56q59 0 59 -43q0 -4 -4 -25q150 -43 149 -166q0 -74 -53 -136t-156 -89q-111 -31 -327 -31h-19q-61 0 -61 45z" />
<glyph unicode="&#xba;" horiz-adv-x="1171" d="M66 567q0 29 19 50.5t48 25.5q16 2 47 2h723q98 0 98 -78q0 -16 -5 -30.5t-27.5 -31t-63.5 -16.5h-745q-39 0 -62.5 17.5t-27.5 32t-4 28.5zM246 1049q0 190 144.5 343.5t383.5 153.5q156 0 248 -76.5t92 -216.5q0 -188 -144.5 -341.5t-383.5 -153.5q-156 0 -248 76 t-92 215zM434 1055q0 -143 178 -144q78 0 137.5 29t92 68t52 89t26 87t6.5 65q0 143 -178 144q-78 0 -137.5 -29t-92.5 -68t-52.5 -89t-25.5 -86.5t-6 -65.5z" />
<glyph unicode="&#xbb;" horiz-adv-x="1433" d="M201 25q0 18 57 98t168 194.5t227 198.5v2q-106 125 -157.5 269.5t-51.5 207.5q0 18 11.5 24.5t44.5 6.5q4 0 16 -1t16 -1q2 0 6.5 1t8.5 1q31 0 40 -11t15 -40q23 -104 64 -196.5t77.5 -140.5t65.5 -83t29 -43q0 -14 -43 -45q-258 -184 -435 -438q-20 -29 -57 -29h-57 q-45 0 -45 25zM592 23q0 18 56.5 98t167 195.5t228.5 199.5v2q-106 125 -157 269.5t-51 207.5q0 31 57 31q4 0 14.5 -1t16.5 -1q2 0 7 1t9 1q23 0 33 -7t13 -15.5t7 -28.5q23 -109 65 -200t79 -138t64.5 -81t27.5 -44q0 -14 -43 -45q-258 -184 -434 -438q-20 -29 -58 -29 h-57q-45 0 -45 23z" />
<glyph unicode="&#xbf;" d="M225 -164q0 188 178 314q35 25 183.5 108.5t163.5 93.5q33 27 32 64q0 29 -37 28q-59 0 -100 -45q-6 -8 -13 -21t-16.5 -18.5t-29.5 -5.5h-74q-45 0 -45 27q0 61 93 140t228 79q78 0 119 -43t41 -113q0 -141 -119 -229q-51 -39 -176 -102.5t-193.5 -121t-68.5 -130.5 q0 -49 42 -88t145 -39q121 0 216 59.5t101 102.5q0 4 -2 26.5t2 36.5q8 41 42 69.5t75 28.5q35 0 60.5 -22.5t25.5 -57.5q0 -121 -161 -260t-388 -139q-139 0 -231.5 64.5t-92.5 193.5zM743 874q0 55 46.5 102.5t105.5 47.5q45 0 77 -29.5t32 -76.5q0 -55 -46.5 -102.5 t-105.5 -47.5q-45 0 -77 29.5t-32 76.5z" />
<glyph unicode="&#xc0;" horiz-adv-x="1859" d="M156 43q8 82 37 102q12 8 57 9q37 0 106 4l805 1235q37 55 96 55h72q23 0 37 -9t18.5 -21.5t8.5 -33.5l186 -1230h100q59 0 60 -43q-8 -90 -43 -105q-16 -6 -35 -6h-361q-61 0 -61 43q8 88 39 104q12 6 41 7h57l-41 270h-594q-23 -2 -36 -21q-6 -6 -164 -247h20t20.5 -1 t17.5 -2t16.5 -4.5t11.5 -8.5t8 -12t2 -17q0 -8 -10 -54q-8 -33 -20.5 -44t-41.5 -13h-350q-59 0 -59 43zM815 578h496l-92 622zM1067 1759q0 37 29.5 69t70.5 32h4q18 0 312 -121q49 -23 49 -47q0 -23 -32 -71t-56 -48h-2q-8 0 -305 108q-70 29 -70 78z" />
<glyph unicode="&#xc1;" horiz-adv-x="1859" d="M156 43q8 82 37 102q12 8 57 9q37 0 106 4l805 1235q37 55 96 55h72q23 0 37 -9t18.5 -21.5t8.5 -33.5l186 -1230h100q59 0 60 -43q-8 -90 -43 -105q-16 -6 -35 -6h-361q-61 0 -61 43q8 88 39 104q12 6 41 7h57l-41 270h-594q-23 -2 -36 -21q-6 -6 -164 -247h20t20.5 -1 t17.5 -2t16.5 -4.5t11.5 -8.5t8 -12t2 -17q0 -8 -10 -54q-8 -33 -20.5 -44t-41.5 -13h-350q-59 0 -59 43zM815 578h496l-92 622zM1102 1681q0 10 2 17.5t7 13.5t7 9t12.5 7.5t12.5 5.5t16 5l12 4q344 117 361 117q35 0 55.5 -22.5t20.5 -53.5q0 -74 -95 -103 q-350 -109 -362 -108q-49 -1 -49 108z" />
<glyph unicode="&#xc2;" horiz-adv-x="1859" d="M156 43q8 82 37 102q12 8 57 9q37 0 106 4l805 1235q37 55 96 55h72q23 0 37 -9t18.5 -21.5t8.5 -33.5l186 -1230h100q59 0 60 -43q-8 -90 -43 -105q-16 -6 -35 -6h-361q-61 0 -61 43q8 88 39 104q12 6 41 7h57l-41 270h-594q-23 -2 -36 -21q-6 -6 -164 -247h20t20.5 -1 t17.5 -2t16.5 -4.5t11.5 -8.5t8 -12t2 -17q0 -8 -10 -54q-8 -33 -20.5 -44t-41.5 -13h-350q-59 0 -59 43zM815 578h496l-92 622zM973 1638.5q0 20.5 35 51.5q88 78 209 184q143 127 170.5 149.5t42.5 22.5q8 0 16 -4t17.5 -15.5t13.5 -17.5t16 -25.5t16 -25.5 q39 -63 97 -152q96 -152 96 -168q0 -25 -48 -58.5t-68.5 -33.5t-35 19.5t-49.5 87.5q-16 33 -26 51q-66 123 -78 145q-12 -12 -45 -42.5t-104.5 -100.5t-143.5 -137q-23 -23 -41 -23q-23 0 -56.5 36t-33.5 56.5z" />
<glyph unicode="&#xc3;" horiz-adv-x="1859" d="M156 43q8 82 37 102q12 8 57 9q37 0 106 4l805 1235q37 55 96 55h72q23 0 37 -9t18.5 -21.5t8.5 -33.5l186 -1230h100q59 0 60 -43q-8 -90 -43 -105q-16 -6 -35 -6h-361q-61 0 -61 43q8 88 39 104q12 6 41 7h57l-41 270h-594q-23 -2 -36 -21q-6 -6 -164 -247h20t20.5 -1 t17.5 -2t16.5 -4.5t11.5 -8.5t8 -12t2 -17q0 -8 -10 -54q-8 -33 -20.5 -44t-41.5 -13h-350q-59 0 -59 43zM815 578h496l-92 622zM922 1792q0 25 92 125q111 119 223 119q70 0 174.5 -65.5t153.5 -65.5q61 0 131.5 64.5t85.5 64.5q18 0 54 -27t36 -49.5t-90 -120.5 q-115 -123 -226 -123q-72 0 -175 65.5t-152 65.5q-61 0 -132 -64.5t-85 -64.5q-20 0 -55 26.5t-35 49.5z" />
<glyph unicode="&#xc4;" horiz-adv-x="1859" d="M156 43q8 82 37 102q12 8 57 9q37 0 106 4l805 1235q37 55 96 55h72q23 0 37 -9t18.5 -21.5t8.5 -33.5l186 -1230h100q59 0 60 -43q-8 -90 -43 -105q-16 -6 -35 -6h-361q-61 0 -61 43q8 88 39 104q12 6 41 7h57l-41 270h-594q-23 -2 -36 -21q-6 -6 -164 -247h20t20.5 -1 t17.5 -2t16.5 -4.5t11.5 -8.5t8 -12t2 -17q0 -8 -10 -54q-8 -33 -20.5 -44t-41.5 -13h-350q-59 0 -59 43zM815 578h496l-92 622zM987 1649q0 55 46 101t106 46q49 0 78.5 -30.5t29.5 -75.5q0 -55 -46 -101.5t-107 -46.5q-45 0 -76 30t-31 77zM1444 1649q0 55 46 101t105 46 q49 0 79 -30.5t30 -75.5q0 -55 -45 -101.5t-107 -46.5q-47 0 -77.5 31t-30.5 76z" />
<glyph unicode="&#xc5;" horiz-adv-x="1859" d="M156 43q8 82 37 102q12 8 57 9q37 0 106 4l805 1235q37 55 96 55h72q23 0 37 -9t18.5 -21.5t8.5 -33.5l186 -1230h100q59 0 60 -43q-8 -90 -43 -105q-16 -6 -35 -6h-361q-61 0 -61 43q8 88 39 104q12 6 41 7h57l-41 270h-594q-23 -2 -36 -21q-6 -6 -164 -247h20t20.5 -1 t17.5 -2t16.5 -4.5t11.5 -8.5t8 -12t2 -17q0 -8 -10 -54q-8 -33 -20.5 -44t-41.5 -13h-350q-59 0 -59 43zM815 578h496l-92 622zM1091 1628q0 141 96.5 268t251.5 127q94 0 147.5 -52t53.5 -147q0 -141 -96.5 -269t-251.5 -128q-94 0 -147.5 53.5t-53.5 147.5zM1224 1663 q0 -82 103 -82q63 0 98 24q43 27 62.5 86.5t19.5 98.5q0 80 -105 79q-76 0 -114.5 -35.5t-57.5 -121.5z" />
<glyph unicode="&#xc6;" horiz-adv-x="2236" d="M158 43q8 82 37 102q12 8 57 9q39 0 108 4l734 1112q-27 18 -27 43q0 6 10 53q8 35 22.5 45t45.5 10h1128q61 0 62 -47q0 -6 -8.5 -68.5t-19.5 -155.5t-17 -142q-4 -27 -14.5 -40.5t-20.5 -16.5t-33 -3h-37q-35 0 -48 12.5t-13 40.5q0 14 9 86t9 132v36q-78 12 -266 13 h-340l-125 -506h145q209 0 228 8q20 10 39.5 85t34.5 87q12 10 38 10h46q31 0 46 -7t15 -36q0 -14 -54.5 -236t-64.5 -237q-14 -20 -49 -20h-47q-59 0 -59 43q0 16 11 64t15 79q-117 6 -233 6h-150l-2 -2l-110 -452h319q162 0 232.5 6t86 13t29.5 30q37 61 129 276 q10 27 23.5 36t42.5 9h39h2l4 2q59 0 59 -41q0 -14 -180 -440q-12 -27 -25.5 -36t-42.5 -9h-1001q-57 0 -57 43q10 84 38 102q12 8 43 9h64l113 454h-336l-297 -452h15t16.5 -1t13.5 -1t13 -2t12.5 -4.5t10.5 -5.5l7 -7t5 -10t1 -14.5t-10 -53.5q-8 -33 -20.5 -44t-41.5 -13 h-352q-57 0 -57 43zM944 762h273l126 506h-63z" />
<glyph unicode="&#xc7;" horiz-adv-x="1826" d="M344 516q0 133 42 265t127 252t200.5 212t275.5 146.5t340 54.5q279 0 432 -180h2q137 162 148 170q12 10 35 10q37 0 36 -31q0 -6 -58 -241.5t-60 -243.5q-10 -39 -54 -39h-57q-39 0 -52 5t-13 30q0 8 1 22.5t1 20.5q0 137 -85 229t-241 92q-170 0 -311.5 -48 t-233.5 -125t-156.5 -177t-93 -201.5t-28.5 -201.5q0 -94 31.5 -167t82 -117t120 -72.5t139 -39t145.5 -10.5q184 0 325.5 94t190.5 230q12 39 22.5 45t71.5 6h23q55 0 55 -29q0 -31 -28.5 -89t-87 -132t-173.5 -145.5t-260 -106.5l-70 -16q92 -53 93 -142q0 -72 -52.5 -134 t-158.5 -91q-111 -31 -322 -31h-14q-70 0 -70 41q0 10 12 60q8 35 22.5 45t45.5 10h8q332 0 346 80q2 18 -18.5 29.5t-38.5 14.5t-43 5h-8t-10.5 1t-10.5 2t-9 2t-8 3t-8 5t-6.5 8.5t-4.5 10.5t-1 13q0 12 13 62q-240 18 -390.5 155t-150.5 379z" />
<glyph unicode="&#xc8;" horiz-adv-x="1626" d="M225 43q8 86 39 104q10 6 51 7h95l278 1110h-84q-63 0 -63 43q0 41 20 82q12 29 57 28h1043q61 0 61 -49l-43 -369q-4 -37 -19 -46t-48 -9h-39q-35 0 -47.5 12.5t-12.5 38.5q0 14 8.5 85t8.5 130v39q-74 14 -268 15h-377l-2 -2l-113 -449h143q125 0 187 6q16 41 27.5 86 t16.5 60.5t19.5 27t42.5 11.5h41q61 0 62 -43q0 -12 -101 -412q-2 -6 -5 -19.5t-5 -17.5t-5 -13.5t-6 -12.5l-8 -8t-11.5 -7t-15.5 -3t-22 -1h-32q-63 0 -64 43q0 2 27 143q-57 4 -174 4h-154l-127 -503h320q184 0 265 6t96.5 13t29.5 30q37 55 129 276q12 25 24.5 35 t42.5 10h39q63 0 64 -39q0 -12 -180 -440q-12 -27 -24.5 -36t-41.5 -9h-1087q-58 0 -58 43zM1026 1759q0 37 28.5 69t69.5 32h6q18 0 312 -121q49 -18 49 -47q0 -12 -33 -68q0 -2 -6 -11t-9 -14.5t-10.5 -12.5t-14.5 -10t-17 -3t-307 108q-68 27 -68 78z" />
<glyph unicode="&#xc9;" horiz-adv-x="1626" d="M225 43q8 86 39 104q10 6 51 7h95l278 1110h-84q-63 0 -63 43q0 41 20 82q12 29 57 28h1043q61 0 61 -49l-43 -369q-4 -37 -19 -46t-48 -9h-39q-35 0 -47.5 12.5t-12.5 38.5q0 14 8.5 85t8.5 130v39q-74 14 -268 15h-377l-2 -2l-113 -449h143q125 0 187 6q16 41 27.5 86 t16.5 60.5t19.5 27t42.5 11.5h41q61 0 62 -43q0 -12 -101 -412q-2 -6 -5 -19.5t-5 -17.5t-5 -13.5t-6 -12.5l-8 -8t-11.5 -7t-15.5 -3t-22 -1h-32q-63 0 -64 43q0 2 27 143q-57 4 -174 4h-154l-127 -503h320q184 0 265 6t96.5 13t29.5 30q37 55 129 276q12 25 24.5 35 t42.5 10h39q63 0 64 -39q0 -12 -180 -440q-12 -27 -24.5 -36t-41.5 -9h-1087q-58 0 -58 43zM1092 1681q0 8 1 14.5t4 11.5t5 8t7 7t8 6.5t10.5 4.5t10.5 3t11 4t10 3q344 117 363 117q35 0 55 -22.5t20 -53.5q0 -72 -94 -103q-350 -109 -360 -108q-51 -1 -51 108z" />
<glyph unicode="&#xca;" horiz-adv-x="1626" d="M225 43q8 86 39 104q10 6 51 7h95l278 1110h-84q-63 0 -63 43q0 41 20 82q12 29 57 28h1043q61 0 61 -49l-43 -369q-4 -37 -19 -46t-48 -9h-39q-35 0 -47.5 12.5t-12.5 38.5q0 14 8.5 85t8.5 130v39q-74 14 -268 15h-377l-2 -2l-113 -449h143q125 0 187 6q16 41 27.5 86 t16.5 60.5t19.5 27t42.5 11.5h41q61 0 62 -43q0 -12 -101 -412q-2 -6 -5 -19.5t-5 -17.5t-5 -13.5t-6 -12.5l-8 -8t-11.5 -7t-15.5 -3t-22 -1h-32q-63 0 -64 43q0 2 27 143q-57 4 -174 4h-154l-127 -503h320q184 0 265 6t96.5 13t29.5 30q37 55 129 276q12 25 24.5 35 t42.5 10h39q63 0 64 -39q0 -12 -180 -440q-12 -27 -24.5 -36t-41.5 -9h-1087q-58 0 -58 43zM866 1638.5q0 20.5 35 51.5q88 78 209 184q143 127 171 149.5t42 22.5q8 0 16.5 -4t16.5 -14.5t13 -18.5t15.5 -25.5t16.5 -25.5q188 -305 192 -320q0 -27 -49 -59.5t-67 -32.5 q-20 0 -33.5 18.5t-46.5 82.5q-16 35 -29 57q-66 123 -78 145q-20 -18 -293 -280q-23 -23 -41 -23q-23 0 -56.5 36t-33.5 56.5z" />
<glyph unicode="&#xcb;" horiz-adv-x="1626" d="M225 43q8 86 39 104q10 6 51 7h95l278 1110h-84q-63 0 -63 43q0 41 20 82q12 29 57 28h1043q61 0 61 -49l-43 -369q-4 -37 -19 -46t-48 -9h-39q-35 0 -47.5 12.5t-12.5 38.5q0 14 8.5 85t8.5 130v39q-74 14 -268 15h-377l-2 -2l-113 -449h143q125 0 187 6q16 41 27.5 86 t16.5 60.5t19.5 27t42.5 11.5h41q61 0 62 -43q0 -12 -101 -412q-2 -6 -5 -19.5t-5 -17.5t-5 -13.5t-6 -12.5l-8 -8t-11.5 -7t-15.5 -3t-22 -1h-32q-63 0 -64 43q0 2 27 143q-57 4 -174 4h-154l-127 -503h320q184 0 265 6t96.5 13t29.5 30q37 55 129 276q12 25 24.5 35 t42.5 10h39q63 0 64 -39q0 -12 -180 -440q-12 -27 -24.5 -36t-41.5 -9h-1087q-58 0 -58 43zM879 1649q0 55 46 101t105 46q45 0 77 -28.5t32 -75.5q0 -57 -46 -103.5t-106 -46.5q-45 0 -76.5 30t-31.5 77zM1335 1649q0 55 47.5 102t106.5 47q45 0 75.5 -30.5t30.5 -77.5 q0 -55 -45 -101.5t-106 -46.5q-47 0 -78 31t-31 76z" />
<glyph unicode="&#xcc;" horiz-adv-x="944" d="M219 43q8 82 37 102q12 8 53 9h103l278 1114h-94q-59 0 -59 43q8 88 38 104q12 6 39 6h408q57 0 57 -43q-8 -82 -37 -102q-12 -8 -53 -8h-102l-279 -1114h94q59 0 60 -43q-8 -88 -39 -105q-12 -6 -37 -6h-407q-60 0 -60 43zM645 1759q0 37 28.5 69t69.5 32h7 q16 0 309 -121q49 -23 49 -47q0 -20 -32 -69.5t-56 -49.5q-10 0 -307 108q-68 29 -68 78z" />
<glyph unicode="&#xcd;" horiz-adv-x="944" d="M219 43q8 82 37 102q12 8 53 9h103l278 1114h-94q-59 0 -59 43q8 88 38 104q12 6 39 6h408q57 0 57 -43q-8 -82 -37 -102q-12 -8 -53 -8h-102l-279 -1114h94q59 0 60 -43q-8 -88 -39 -105q-12 -6 -37 -6h-407q-60 0 -60 43zM664 1681q0 10 2 17.5t7 13.5t7 9t12 7.5 t12.5 5.5t16.5 5l12 4q344 117 361 117q35 0 55 -22.5t20 -53.5q0 -74 -94 -103q-350 -109 -362 -108q-49 -1 -49 108z" />
<glyph unicode="&#xce;" horiz-adv-x="944" d="M219 43q8 82 37 102q12 8 53 9h103l278 1114h-94q-59 0 -59 43q8 88 38 104q12 6 39 6h408q57 0 57 -43q-8 -82 -37 -102q-12 -8 -53 -8h-102l-279 -1114h94q59 0 60 -43q-8 -88 -39 -105q-12 -6 -37 -6h-407q-60 0 -60 43zM518 1638.5q0 20.5 35 51.5q88 78 209 184 q143 127 171 149.5t42 22.5q8 0 16 -4t16.5 -14.5t13.5 -18.5t15.5 -25.5t16.5 -25.5q190 -299 192 -309q2 -4 2 -11q0 -25 -49 -58.5t-70 -33.5q-6 0 -10 1t-8 4t-8 6.5t-9.5 11.5t-9.5 15t-11 20.5t-13 27t-17.5 34t-21.5 38.5q-66 123 -78 145q-12 -12 -45 -42.5 t-104.5 -100.5t-143.5 -137q-23 -23 -41 -23q-23 0 -56.5 36t-33.5 56.5z" />
<glyph unicode="&#xcf;" horiz-adv-x="944" d="M219 43q8 82 37 102q12 8 53 9h103l278 1114h-94q-59 0 -59 43q8 88 38 104q12 6 39 6h408q57 0 57 -43q-8 -82 -37 -102q-12 -8 -53 -8h-102l-279 -1114h94q59 0 60 -43q-8 -88 -39 -105q-12 -6 -37 -6h-407q-60 0 -60 43zM530 1649q0 55 46.5 101t105.5 46 q45 0 77 -28.5t32 -75.5q0 -61 -48.5 -105.5t-103.5 -44.5q-49 0 -79 31t-30 76zM987 1649q0 55 46 101t108 46q47 0 76.5 -30.5t29.5 -75.5q0 -57 -46 -102.5t-105 -45.5q-47 0 -78 31t-31 76z" />
<glyph unicode="&#xd0;" horiz-adv-x="1908" d="M227 43q0 41 21 82q12 29 61 29h103l116 467h-86q-59 0 -59 41q0 10 10 51q10 43 23.5 53t46.5 10h104l123 492h-86q-59 0 -59 43q0 8 10 55q8 37 23.5 47t58.5 10q6 0 19.5 -1t19.5 -1h624q2 0 16.5 1t22.5 1q295 0 435.5 -144t140.5 -368q0 -135 -47 -276 t-138.5 -272.5t-245 -227.5t-343.5 -125q-59 -10 -191 -10h-665q-58 0 -58 43zM604 154h352q608 0 744 553q23 98 22 180q0 209 -145 305q-115 76 -338 76h-358l-123 -492h403q49 -2 49 -41q0 -6 -10 -53q0 -2 -3 -11t-3 -11.5t-3 -9.5t-5 -9t-5 -7t-7.5 -6t-9.5 -3t-12 -3 t-15 -1h-418z" />
<glyph unicode="&#xd1;" horiz-adv-x="1945" d="M231 43q8 82 37 102q12 8 54 9q35 0 96 4l276 1110h-86q-59 0 -59 45q8 82 37 100q14 8 37 8h247q33 0 44.5 -10t29.5 -47l535 -1051l237 953q-29 2 -84 2q-61 0 -61 43q0 10 10 53q10 37 23.5 47t40.5 10h364q57 0 57 -43q-6 -82 -34 -102q-12 -8 -56 -8q-63 0 -94 -2 l-31 -123l-272 -1088q-8 -37 -23.5 -46t-46.5 -9h-39q-29 0 -41 7t-26 34l-569 1120l-252 -1005q29 -2 84 -2q61 0 61 -43q0 -8 -10 -54q-12 -57 -64 -57h-364q-58 0 -58 43zM965 1792q0 23 92 123q117 121 223 121q72 0 176.5 -65.5t153.5 -65.5q47 0 92 32.5t76.5 64.5 t48.5 32q18 0 54 -27t36 -49.5t-90 -120.5q-115 -123 -228 -123q-72 0 -175 65.5t-152 65.5q-47 0 -92 -31.5t-77 -64.5t-48 -33q-20 0 -55 26.5t-35 49.5z" />
<glyph unicode="&#xd2;" horiz-adv-x="1871" d="M340 492q0 158 62.5 322.5t178 307t303 233.5t412.5 91q80 0 156 -14.5t156 -51.5t138 -94t96 -151.5t38 -214.5q0 -164 -62.5 -327t-178 -302t-302 -226.5t-409.5 -87.5q-270 0 -429 133.5t-159 381.5zM545 539q0 -111 39 -192t104.5 -122t135 -59.5t147.5 -18.5 q150 0 274.5 53.5t204.5 136.5t136 186.5t80 200.5t24 183q0 106 -39 183t-105.5 116t-138.5 56.5t-152 17.5q-145 0 -267 -47t-201.5 -122t-136 -173t-81 -198.5t-24.5 -200.5zM1139 1759q0 39 29.5 70t70.5 31h4q18 0 311 -121q49 -23 50 -47q0 -20 -32 -69.5t-56 -49.5 h-3q-10 0 -307 108q-67 29 -67 78z" />
<glyph unicode="&#xd3;" horiz-adv-x="1871" d="M340 492q0 158 62.5 322.5t178 307t303 233.5t412.5 91q80 0 156 -14.5t156 -51.5t138 -94t96 -151.5t38 -214.5q0 -164 -62.5 -327t-178 -302t-302 -226.5t-409.5 -87.5q-270 0 -429 133.5t-159 381.5zM545 539q0 -111 39 -192t104.5 -122t135 -59.5t147.5 -18.5 q150 0 274.5 53.5t204.5 136.5t136 186.5t80 200.5t24 183q0 106 -39 183t-105.5 116t-138.5 56.5t-152 17.5q-145 0 -267 -47t-201.5 -122t-136 -173t-81 -198.5t-24.5 -200.5zM1108 1681q0 10 2 17.5t7 13.5t7 9t12.5 7.5t12.5 5.5t14 5l15 4q344 117 360 117 q35 0 55.5 -22.5t20.5 -53.5q0 -16 -3 -28.5t-13.5 -24t-20.5 -20.5t-31.5 -18.5t-41 -16.5t-55.5 -18t-67.5 -20.5t-84 -25t-97.5 -29.5q-37 -10 -43 -10q-49 -1 -49 108z" />
<glyph unicode="&#xd4;" horiz-adv-x="1871" d="M340 492q0 158 62.5 322.5t178 307t303 233.5t412.5 91q80 0 156 -14.5t156 -51.5t138 -94t96 -151.5t38 -214.5q0 -164 -62.5 -327t-178 -302t-302 -226.5t-409.5 -87.5q-270 0 -429 133.5t-159 381.5zM545 539q0 -111 39 -192t104.5 -122t135 -59.5t147.5 -18.5 q150 0 274.5 53.5t204.5 136.5t136 186.5t80 200.5t24 183q0 106 -39 183t-105.5 116t-138.5 56.5t-152 17.5q-145 0 -267 -47t-201.5 -122t-136 -173t-81 -198.5t-24.5 -200.5zM979 1638q0 18 37 52q387 342 395 348q14 8 25 8q8 0 16 -4t17.5 -15.5t13.5 -17.5t16 -25.5 t17 -25.5q188 -305 192 -320q0 -25 -49 -58.5t-68 -33.5q-6 0 -10 1t-8 4t-8 6.5t-9.5 11.5t-9.5 15t-11 20.5t-13 27t-17.5 34t-21.5 38.5q-66 123 -78 145q-20 -18 -293 -280q-23 -23 -43 -23q-23 0 -56.5 36t-33.5 56z" />
<glyph unicode="&#xd5;" horiz-adv-x="1871" d="M340 492q0 158 62.5 322.5t178 307t303 233.5t412.5 91q80 0 156 -14.5t156 -51.5t138 -94t96 -151.5t38 -214.5q0 -164 -62.5 -327t-178 -302t-302 -226.5t-409.5 -87.5q-270 0 -429 133.5t-159 381.5zM545 539q0 -111 39 -192t104.5 -122t135 -59.5t147.5 -18.5 q150 0 274.5 53.5t204.5 136.5t136 186.5t80 200.5t24 183q0 106 -39 183t-105.5 116t-138.5 56.5t-152 17.5q-145 0 -267 -47t-201.5 -122t-136 -173t-81 -198.5t-24.5 -200.5zM928 1792q0 23 92 123q117 121 221 121q72 0 176.5 -65.5t153.5 -65.5q61 0 132 64.5t85 64.5 q18 0 54 -27t36 -49.5t-90 -120.5q-115 -123 -225 -123q-72 0 -176.5 65.5t-153.5 65.5q-47 0 -91 -31.5t-76 -64.5t-48 -33q-20 0 -55 26.5t-35 49.5z" />
<glyph unicode="&#xd6;" horiz-adv-x="1871" d="M340 492q0 158 62.5 322.5t178 307t303 233.5t412.5 91q80 0 156 -14.5t156 -51.5t138 -94t96 -151.5t38 -214.5q0 -164 -62.5 -327t-178 -302t-302 -226.5t-409.5 -87.5q-270 0 -429 133.5t-159 381.5zM545 539q0 -111 39 -192t104.5 -122t135 -59.5t147.5 -18.5 q150 0 274.5 53.5t204.5 136.5t136 186.5t80 200.5t24 183q0 106 -39 183t-105.5 116t-138.5 56.5t-152 17.5q-145 0 -267 -47t-201.5 -122t-136 -173t-81 -198.5t-24.5 -200.5zM993 1649q0 55 46 101t106 46q49 0 78.5 -30.5t29.5 -75.5q0 -61 -48 -104.5t-105 -43.5 q-45 0 -76 30t-31 77zM1450 1649q0 55 46 101t108 46q47 0 76.5 -30.5t29.5 -75.5q0 -57 -46 -102.5t-105 -45.5q-47 0 -78 31t-31 76z" />
<glyph unicode="&#xd8;" horiz-adv-x="1957" d="M342 504q0 156 64.5 317.5t184.5 303t316.5 231.5t433.5 90q178 0 324 -62q82 98 160 177q23 23 41 22q20 0 58 -31.5t38 -54.5q0 -16 -18.5 -37.5t-143.5 -156.5v-3q164 -143 164 -391q0 -129 -40 -258t-123 -250.5t-197.5 -216t-280.5 -151t-356 -56.5q-186 0 -324 58 q-23 -25 -59 -66q-82 -90 -102.5 -109.5t-37.5 -19.5q-20 0 -59 30t-39 54q0 14 17.5 37t63.5 71t79 87q-164 137 -164 385zM528 518q0 -178 101 -268l915 1003q-111 37 -241 37q-133 0 -247 -32.5t-192 -86t-139 -125t-97 -144.5t-59.5 -148.5t-32 -133t-8.5 -102.5z M764 168q111 -37 242 -37q176 0 316 55.5t223 139.5t138.5 191.5t75 199.5t19.5 176q0 168 -99 276z" />
<glyph unicode="&#xd9;" horiz-adv-x="1902" d="M477 360q0 70 25 164l131 523l55 221h-86q-59 0 -59 45q8 86 39 102q10 6 39 6h391q57 0 57 -43q-8 -82 -37 -102q-12 -8 -51 -8h-96q-14 -59 -60 -238l-131 -526q-23 -94 -22 -144q0 -229 305 -229q88 0 161.5 19.5t122 45t89.5 70.5t61.5 74t38.5 79t21.5 61.5 t11.5 43.5l184 742q-29 2 -84 2q-61 0 -61 43q0 10 10 53q10 37 23.5 47t41.5 10h373q57 0 58 -43q-8 -82 -37 -102q-12 -8 -54 -8q-66 0 -96 -2q-2 -14 -10 -42t-10 -42l-166 -664q-16 -68 -29.5 -109.5t-63 -123.5t-122.5 -144q-195 -164 -482 -164q-252 0 -366.5 111.5 t-114.5 271.5zM1155 1759q0 39 28.5 70t69.5 31h7q16 0 309 -121q51 -23 51 -47q0 -20 -32 -69.5t-56 -49.5h-2q-10 0 -307 108q-68 29 -68 78z" />
<glyph unicode="&#xda;" horiz-adv-x="1902" d="M477 360q0 70 25 164l131 523l55 221h-86q-59 0 -59 45q8 86 39 102q10 6 39 6h391q57 0 57 -43q-8 -82 -37 -102q-12 -8 -51 -8h-96q-14 -59 -60 -238l-131 -526q-23 -94 -22 -144q0 -229 305 -229q88 0 161.5 19.5t122 45t89.5 70.5t61.5 74t38.5 79t21.5 61.5 t11.5 43.5l184 742q-29 2 -84 2q-61 0 -61 43q0 10 10 53q10 37 23.5 47t41.5 10h373q57 0 58 -43q-8 -82 -37 -102q-12 -8 -54 -8q-66 0 -96 -2q-2 -14 -10 -42t-10 -42l-166 -664q-16 -68 -29.5 -109.5t-63 -123.5t-122.5 -144q-195 -164 -482 -164q-252 0 -366.5 111.5 t-114.5 271.5zM1221 1681q0 10 2 17.5t7 13.5t7 9t12.5 7.5t12.5 5.5t16 5l12 4q344 117 361 117q35 0 55 -22.5t20 -53.5q0 -16 -3 -28.5t-13 -24t-20.5 -20.5t-32 -18.5t-41 -16.5t-55 -18t-67.5 -20.5t-84 -25t-97 -29.5q-35 -10 -43 -10q-49 -1 -49 108z" />
<glyph unicode="&#xdb;" horiz-adv-x="1902" d="M477 360q0 70 25 164l131 523l55 221h-86q-59 0 -59 45q8 86 39 102q10 6 39 6h391q57 0 57 -43q-8 -82 -37 -102q-12 -8 -51 -8h-96q-14 -59 -60 -238l-131 -526q-23 -94 -22 -144q0 -229 305 -229q88 0 161.5 19.5t122 45t89.5 70.5t61.5 74t38.5 79t21.5 61.5 t11.5 43.5l184 742q-29 2 -84 2q-61 0 -61 43q0 10 10 53q10 37 23.5 47t41.5 10h373q57 0 58 -43q-8 -82 -37 -102q-12 -8 -54 -8q-66 0 -96 -2q-2 -14 -10 -42t-10 -42l-166 -664q-16 -68 -29.5 -109.5t-63 -123.5t-122.5 -144q-195 -164 -482 -164q-252 0 -366.5 111.5 t-114.5 271.5zM999 1638.5q0 20.5 35 51.5q88 78 209 184q143 127 171 149.5t42 22.5q8 0 16.5 -4t17.5 -15.5t13 -17.5t16.5 -25.5t16.5 -25.5q39 -63 96 -152q96 -152 97 -168q0 -25 -49.5 -58.5t-67.5 -33.5q-6 0 -10.5 1t-9.5 4t-8 6.5t-8 11.5t-9 15t-12.5 20.5 t-14.5 25.5t-17.5 34t-21.5 40q-68 123 -78 145q-12 -12 -44.5 -42.5t-104.5 -100.5t-144 -137q-23 -23 -40 -23q-23 0 -57 36t-34 56.5z" />
<glyph unicode="&#xdc;" horiz-adv-x="1902" d="M477 360q0 70 25 164l131 523l55 221h-86q-59 0 -59 45q8 86 39 102q10 6 39 6h391q57 0 57 -43q-8 -82 -37 -102q-12 -8 -51 -8h-96q-14 -59 -60 -238l-131 -526q-23 -94 -22 -144q0 -229 305 -229q88 0 161.5 19.5t122 45t89.5 70.5t61.5 74t38.5 79t21.5 61.5 t11.5 43.5l184 742q-29 2 -84 2q-61 0 -61 43q0 10 10 53q10 37 23.5 47t41.5 10h373q57 0 58 -43q-8 -82 -37 -102q-12 -8 -54 -8q-66 0 -96 -2q-2 -14 -10 -42t-10 -42l-166 -664q-16 -68 -29.5 -109.5t-63 -123.5t-122.5 -144q-195 -164 -482 -164q-252 0 -366.5 111.5 t-114.5 271.5zM1008 1649q0 55 46 101t105 46q49 0 79 -30.5t30 -75.5q0 -55 -46 -101.5t-106 -46.5q-45 0 -76.5 30t-31.5 77zM1464 1649q0 55 46 101t106 46q49 0 78.5 -30.5t29.5 -75.5q0 -55 -45 -101.5t-106 -46.5q-47 0 -78 31t-31 76z" />
<glyph unicode="&#xdd;" horiz-adv-x="1859" d="M434 1311q0 45 19 82q12 29 59 28h371q61 0 61 -43q-10 -82 -35 -100q-12 -10 -53 -10l266 -525l531 525q-49 2 -49 45q8 82 36 100q12 8 41 8h355q57 0 57 -43q-8 -84 -37 -102q-12 -8 -57 -8q-100 0 -119.5 -5.5t-52.5 -37.5l-633 -627l-6 -6q-18 -16 -29.5 -52 t-48.5 -186q-29 -119 -49 -200h82q66 0 65 -43q-8 -88 -39 -105q-10 -6 -39 -6h-385q-59 0 -59 43q8 82 37 102q12 8 51 9h98l105 415l-356 699h-125q-62 0 -62 43zM1200 1681q0 8 1 14.5t4 11.5t5 8t7.5 7t8.5 6.5t10 4.5t10 3t11.5 4t10.5 3q344 117 362 117 q35 0 55.5 -22.5t20.5 -53.5q0 -74 -94 -103q-350 -109 -363 -108q-49 -1 -49 108z" />
<glyph unicode="&#xde;" horiz-adv-x="1581" d="M231 43q8 82 37 102q12 8 51 9h97l278 1114h-82q-63 0 -63 43q8 88 39 104q10 6 37 6h383q57 0 57 -43q-8 -82 -37 -102q-12 -8 -53 -8h-96l-21 -82h338q70 0 134.5 -14.5t126 -46t98 -95t36.5 -151.5q0 -172 -136 -325t-386 -179q-57 -6 -117 -6h-297l-53 -215h80 q66 0 66 -43q-8 -88 -39 -105q-12 -6 -39 -6h-379q-60 0 -60 43zM694 524h238q223 0 340 86q127 92 127 226q0 197 -297 196h-281z" />
<glyph unicode="&#xdf;" horiz-adv-x="1368" d="M-33 -268q0 53 36 91t87 38q35 0 58.5 -21.5t23.5 -56.5q0 -12 -4 -37h4q88 0 131 143.5t133 653.5q29 172 47 270h-188q-55 0 -55 43q8 88 41 105q10 6 34 6h195q12 74 15 92t20.5 81.5t35 91.5t53.5 68.5t83 67.5q111 66 315 66q217 0 299 -58.5t82 -136.5 q0 -27 -20 -113q-27 -102 -62 -168.5t-58.5 -89t-69.5 -56.5t-68 -52q-45 -41 -45 -74q0 -35 35.5 -74t77.5 -70.5t78 -87t36 -118.5q0 -131 -124 -239.5t-286 -108.5q-100 0 -187 40t-87 130q0 51 32.5 89t82.5 38q33 0 55 -20.5t22 -53.5q0 -25 -14 -53q47 -14 111 -15 q100 0 151 59.5t51 108.5q0 37 -33.5 74t-72.5 67.5t-73 86t-34 120.5q0 63 34 113.5t114 114.5q51 43 69.5 62.5t46 76.5t52.5 156q6 31 6 32q0 39 -50 52.5t-175 13.5h-177q-53 0 -79.5 -50t-46.5 -173l-111 -619q-66 -365 -97.5 -490.5t-88.5 -203.5q-111 -154 -250 -154 q-82 0 -136.5 39.5t-54.5 102.5z" />
<glyph unicode="&#xe0;" d="M262 322q0 145 62.5 292.5t195.5 256t303 108.5q129 0 228 -84q35 51 90 51q35 0 55.5 -20.5t20.5 -51.5q0 -10 -17 -75l-135 -541q-6 -20 -6 -43q0 -31 22.5 -51.5t48.5 -20.5q37 0 59.5 42t35 92.5t20.5 58.5q12 10 41 10h66q47 0 47 -29q0 -14 -17.5 -62t-49.5 -110.5 t-93 -109.5t-133 -47q-145 0 -209 116q-154 -117 -311 -116q-145 0 -234.5 89t-89.5 245zM449 319q0 -96 48 -136t117 -40q100 0 191.5 81t126.5 216q37 150 37 174q0 119 -52.5 164t-121.5 45q-82 0 -146.5 -44t-100.5 -106.5t-59.5 -137t-31.5 -128t-8 -88.5zM651 1362 q0 37 31 68.5t70 31.5q29 0 88 -41q43 -29 106 -71q100 -66 118.5 -82.5t18.5 -34.5q0 -20 -36.5 -66.5t-61.5 -46.5q-12 0 -43 17.5t-238 148.5q-53 31 -53 76z" />
<glyph unicode="&#xe1;" d="M262 322q0 145 62.5 292.5t195.5 256t303 108.5q129 0 228 -84q35 51 90 51q35 0 55.5 -20.5t20.5 -51.5q0 -10 -17 -75l-135 -541q-6 -20 -6 -43q0 -31 22.5 -51.5t48.5 -20.5q37 0 59.5 42t35 92.5t20.5 58.5q12 10 41 10h66q47 0 47 -29q0 -14 -17.5 -62t-49.5 -110.5 t-93 -109.5t-133 -47q-145 0 -209 116q-154 -117 -311 -116q-145 0 -234.5 89t-89.5 245zM449 319q0 -96 48 -136t117 -40q100 0 191.5 81t126.5 216q37 150 37 174q0 119 -52.5 164t-121.5 45q-82 0 -146.5 -44t-100.5 -106.5t-59.5 -137t-31.5 -128t-8 -88.5zM834 1231 q0 29 53 55q84 41 194 98q154 78 176 78q33 0 54.5 -23.5t21.5 -54.5q0 -63 -80 -100q-123 -57 -252 -119q-92 -45 -104 -45q-23 0 -38 28t-19 56z" />
<glyph unicode="&#xe2;" d="M262 322q0 145 62.5 292.5t195.5 256t303 108.5q129 0 228 -84q35 51 90 51q35 0 55.5 -20.5t20.5 -51.5q0 -10 -17 -75l-135 -541q-6 -20 -6 -43q0 -31 22.5 -51.5t48.5 -20.5q37 0 59.5 42t35 92.5t20.5 58.5q12 10 41 10h66q47 0 47 -29q0 -14 -17.5 -62t-49.5 -110.5 t-93 -109.5t-133 -47q-145 0 -209 116q-154 -117 -311 -116q-145 0 -234.5 89t-89.5 245zM449 319q0 -96 48 -136t117 -40q100 0 191.5 81t126.5 216q37 150 37 174q0 119 -52.5 164t-121.5 45q-82 0 -146.5 -44t-100.5 -106.5t-59.5 -137t-31.5 -128t-8 -88.5zM618 1300 q0 6 2.5 11.5t4.5 10.5t8 10t10 9.5t13.5 10.5t14.5 9t17 10t19 11q309 193 319 195q4 2 10 2h2q12 0 32 -16.5t93 -83.5q78 -74 137 -127q33 -29 33 -49q0 -23 -43 -64t-65 -41q-16 0 -38 19.5t-112 111.5q-41 43 -67 70h-2q-293 -197 -306 -201q-4 -2 -10 -2 q-27 0 -49.5 43t-22.5 61z" />
<glyph unicode="&#xe3;" d="M262 322q0 145 62.5 292.5t195.5 256t303 108.5q129 0 228 -84q35 51 90 51q35 0 55.5 -20.5t20.5 -51.5q0 -10 -17 -75l-135 -541q-6 -20 -6 -43q0 -31 22.5 -51.5t48.5 -20.5q37 0 59.5 42t35 92.5t20.5 58.5q12 10 41 10h66q47 0 47 -29q0 -14 -17.5 -62t-49.5 -110.5 t-93 -109.5t-133 -47q-145 0 -209 116q-154 -117 -311 -116q-145 0 -234.5 89t-89.5 245zM449 319q0 -96 48 -136t117 -40q100 0 191.5 81t126.5 216q37 150 37 174q0 119 -52.5 164t-121.5 45q-82 0 -146.5 -44t-100.5 -106.5t-59.5 -137t-31.5 -128t-8 -88.5zM494 1191.5 q0 20.5 27 43.5q4 4 31.5 27.5t47 40t53.5 41t60.5 40t58 26.5t56.5 11q47 0 78.5 -31.5t54.5 -63.5t47 -32q41 0 124 62.5t97 62.5q23 0 51.5 -33.5t28.5 -54.5q0 -16 -29 -45l-36 -33q-39 -33 -62.5 -51t-63.5 -45t-76 -41t-67 -14q-49 0 -79.5 31.5t-53 63.5t-47.5 32 q-41 0 -124 -62.5t-97 -62.5q-20 0 -50 33.5t-30 54z" />
<glyph unicode="&#xe4;" d="M262 322q0 145 62.5 292.5t195.5 256t303 108.5q129 0 228 -84q35 51 90 51q35 0 55.5 -20.5t20.5 -51.5q0 -10 -17 -75l-135 -541q-6 -20 -6 -43q0 -31 22.5 -51.5t48.5 -20.5q37 0 59.5 42t35 92.5t20.5 58.5q12 10 41 10h66q47 0 47 -29q0 -14 -17.5 -62t-49.5 -110.5 t-93 -109.5t-133 -47q-145 0 -209 116q-154 -117 -311 -116q-145 0 -234.5 89t-89.5 245zM449 319q0 -96 48 -136t117 -40q100 0 191.5 81t126.5 216q37 150 37 174q0 119 -52.5 164t-121.5 45q-82 0 -146.5 -44t-100.5 -106.5t-59.5 -137t-31.5 -128t-8 -88.5zM614 1272 q0 61 48.5 105t103.5 44q49 0 78.5 -30.5t29.5 -75.5q0 -55 -46 -102.5t-105 -47.5q-45 0 -77 30t-32 77zM1071 1272q0 55 47 102t107 47q45 0 76.5 -29.5t31.5 -76.5q0 -59 -49 -104.5t-104 -45.5q-45 0 -77 30t-32 77z" />
<glyph unicode="&#xe5;" d="M262 322q0 145 62.5 292.5t195.5 256t303 108.5q129 0 228 -84q35 51 90 51q35 0 55.5 -20.5t20.5 -51.5q0 -10 -17 -75l-135 -541q-6 -20 -6 -43q0 -31 22.5 -51.5t48.5 -20.5q37 0 59.5 42t35 92.5t20.5 58.5q12 10 41 10h66q47 0 47 -29q0 -14 -17.5 -62t-49.5 -110.5 t-93 -109.5t-133 -47q-145 0 -209 116q-154 -117 -311 -116q-145 0 -234.5 89t-89.5 245zM449 319q0 -96 48 -136t117 -40q100 0 191.5 81t126.5 216q37 150 37 174q0 119 -52.5 164t-121.5 45q-82 0 -146.5 -44t-100.5 -106.5t-59.5 -137t-31.5 -128t-8 -88.5zM649 1268 q0 121 91 225t245 104q98 0 152.5 -48t54.5 -134q0 -125 -93 -227.5t-243 -102.5q-98 0 -152.5 48.5t-54.5 134.5zM778 1274q0 -84 105 -84q47 0 81.5 16.5t52 49t24 51t14.5 51.5q6 25 6 51q0 86 -103 86q-49 0 -82.5 -16.5t-51 -50t-23.5 -52t-15 -53.5q-8 -33 -8 -49z " />
<glyph unicode="&#xe6;" horiz-adv-x="1826" d="M266 328q0 156 64.5 303t195.5 247.5t297 100.5q131 0 228 -78q33 76 100 76q33 0 53.5 -19.5t20.5 -56.5q0 -2 -1 -5t-1 -5q147 88 315 88q131 0 213 -60.5t82 -160.5q0 -29 -8 -59.5t-33 -80t-88.5 -90.5t-157.5 -63q-123 -29 -338 -29h-28q-12 0 -35 -1t-33 -1 q-6 -41 -6 -78q0 -213 233 -213q78 0 141.5 17.5t94.5 37t55.5 37t32.5 17.5q18 0 54 -40t36 -56q0 -10 -17.5 -30t-54 -43.5t-86 -45t-123 -35.5t-155.5 -14q-266 0 -350 192q-168 -193 -381 -192q-55 0 -108.5 16t-102.5 53t-79 107t-30 164zM451 326q0 -98 49 -140.5 t116 -42.5q90 0 161 52.5t107 122t58.5 149.5t28.5 123t6 57q0 176 -178 176q-244 0 -324 -336q-24 -104 -24 -161zM1155 590h10q63 0 107.5 1t109 5t108.5 13t86 24.5t63.5 41t21.5 58.5q0 39 -37 64.5t-111 25.5q-123 0 -217 -58t-141 -175z" />
<glyph unicode="&#xe7;" horiz-adv-x="1171" d="M266 342q0 109 42 220.5t119 204.5t197.5 152.5t262.5 59.5q125 0 202.5 -54.5t77.5 -142.5q0 -70 -38.5 -105.5t-86.5 -35.5q-35 0 -59.5 21.5t-24.5 56.5q0 33 27 74q-51 31 -123 30q-98 0 -174 -40t-119 -97t-69.5 -128t-35.5 -123t-9 -91q0 -201 239 -201 q109 0 185.5 17.5t107.5 37t52.5 37t31.5 17.5q16 0 55 -40t39 -56q0 -18 -37.5 -50t-129 -67t-205.5 -45v-2q100 -53 100 -146q0 -74 -53.5 -136t-161.5 -91q-111 -29 -318 -29h-12q-72 0 -72 45q8 88 41 105q12 6 48 6q346 0 346 82q0 33 -76 44t-84 22q-6 8 -6 26 q0 8 14 76q-141 25 -217 115t-76 231z" />
<glyph unicode="&#xe8;" horiz-adv-x="1171" d="M270 354q0 256 174 440.5t441 184.5q131 0 212 -60.5t81 -160.5q0 -104 -74 -183q-131 -139 -555 -139h-17q-12 0 -34.5 -1t-32.5 -1q-6 -41 -6 -82q0 -209 237 -209q104 0 181 17.5t108 37t53.5 37t32.5 17.5q18 0 55 -41t37 -55q0 -10 -16.5 -30t-55 -44.5t-93 -45 t-142.5 -34.5t-188 -14q-113 0 -195 32.5t-124 90t-60.5 116.5t-18.5 127zM506 590h84q416 0 416 143q0 41 -39 65.5t-107 24.5q-256 0 -354 -233zM583 1362q0 37 31 68.5t70 31.5q29 0 88 -41q43 -29 106 -71q100 -66 118.5 -82.5t18.5 -34.5q0 -20 -36.5 -66.5 t-61.5 -46.5q-12 0 -43 17.5t-238 148.5q-53 31 -53 76z" />
<glyph unicode="&#xe9;" horiz-adv-x="1171" d="M270 354q0 256 174 440.5t441 184.5q131 0 212 -60.5t81 -160.5q0 -104 -74 -183q-131 -139 -555 -139h-17q-12 0 -34.5 -1t-32.5 -1q-6 -41 -6 -82q0 -209 237 -209q104 0 181 17.5t108 37t53.5 37t32.5 17.5q18 0 55 -41t37 -55q0 -10 -16.5 -30t-55 -44.5t-93 -45 t-142.5 -34.5t-188 -14q-113 0 -195 32.5t-124 90t-60.5 116.5t-18.5 127zM506 590h84q416 0 416 143q0 41 -39 65.5t-107 24.5q-256 0 -354 -233zM768 1231q0 29 53 55q84 41 194 98q154 78 176 78q33 0 54.5 -23.5t21.5 -54.5q0 -63 -80 -100q-123 -57 -252 -119 q-92 -45 -104 -45q-23 0 -38 28t-19 56z" />
<glyph unicode="&#xea;" horiz-adv-x="1171" d="M270 354q0 256 174 440.5t441 184.5q131 0 212 -60.5t81 -160.5q0 -104 -74 -183q-131 -139 -555 -139h-17q-12 0 -34.5 -1t-32.5 -1q-6 -41 -6 -82q0 -209 237 -209q104 0 181 17.5t108 37t53.5 37t32.5 17.5q18 0 55 -41t37 -55q0 -10 -16.5 -30t-55 -44.5t-93 -45 t-142.5 -34.5t-188 -14q-113 0 -195 32.5t-124 90t-60.5 116.5t-18.5 127zM506 590h84q416 0 416 143q0 41 -39 65.5t-107 24.5q-256 0 -354 -233zM553 1301q0 8 3 15t7 12.5t14.5 12.5l16.5 11t22.5 13t24.5 16q313 195 318 196q6 2 12 2h2q12 0 31.5 -16t93.5 -84 q78 -74 137 -127q33 -29 33 -49.5t-43 -63.5t-64 -43q-16 0 -37.5 19.5t-111.5 111.5q-41 43 -68 70h-4l-266 -180q-37 -20 -47 -21q-27 0 -50.5 44.5t-23.5 60.5z" />
<glyph unicode="&#xeb;" horiz-adv-x="1171" d="M270 354q0 256 174 440.5t441 184.5q131 0 212 -60.5t81 -160.5q0 -104 -74 -183q-131 -139 -555 -139h-17q-12 0 -34.5 -1t-32.5 -1q-6 -41 -6 -82q0 -209 237 -209q104 0 181 17.5t108 37t53.5 37t32.5 17.5q18 0 55 -41t37 -55q0 -10 -16.5 -30t-55 -44.5t-93 -45 t-142.5 -34.5t-188 -14q-113 0 -195 32.5t-124 90t-60.5 116.5t-18.5 127zM506 590h84q416 0 416 143q0 41 -39 65.5t-107 24.5q-256 0 -354 -233zM549 1272q0 55 46 102t105 47q45 0 77 -29.5t32 -76.5q0 -55 -45 -102.5t-107 -47.5q-49 0 -78.5 31t-29.5 76zM1006 1272 q0 55 46 101t107 46q47 0 77 -30.5t30 -75.5q0 -57 -46 -102.5t-106 -45.5q-47 0 -77.5 31t-30.5 76z" />
<glyph unicode="&#xec;" horiz-adv-x="780" d="M143 651q0 25 25 77t66.5 109.5t112.5 99.5t149 42q88 0 147 -51t59 -133v-13q0 -35 -103 -296t-103 -287q0 -25 16 -40.5t39 -15.5q49 0 91 50.5t65 117.5q14 35 51 35h78q39 0 38 -29q0 -27 -24.5 -78t-67.5 -109t-113.5 -100t-148.5 -42q-88 0 -147.5 51t-59.5 133 q0 33 25 102q182 473 182 494q0 23 -15.5 39t-39.5 16q-41 0 -80 -39t-63 -96q-4 -10 -9.5 -25.5t-7.5 -19.5t-8 -11t-14.5 -8t-22.5 -1h-80q-37 -1 -37 28zM387 1362q0 37 31 68.5t70 31.5q29 0 88 -41q43 -29 106 -71q100 -66 118.5 -82.5t18.5 -34.5q0 -20 -36.5 -66.5 t-61.5 -46.5q-12 0 -43 17.5t-238 148.5q-53 31 -53 76z" />
<glyph unicode="&#xed;" horiz-adv-x="780" d="M143 651q0 25 25 77t66.5 109.5t112.5 99.5t149 42q88 0 147 -51t59 -133v-13q0 -35 -103 -296t-103 -287q0 -25 16 -40.5t39 -15.5q49 0 91 50.5t65 117.5q14 35 51 35h78q39 0 38 -29q0 -27 -24.5 -78t-67.5 -109t-113.5 -100t-148.5 -42q-88 0 -147.5 51t-59.5 133 q0 33 25 102q182 473 182 494q0 23 -15.5 39t-39.5 16q-41 0 -80 -39t-63 -96q-4 -10 -9.5 -25.5t-7.5 -19.5t-8 -11t-14.5 -8t-22.5 -1h-80q-37 -1 -37 28zM572 1231q0 29 53 55q84 41 194 98q154 78 176 78q33 0 54.5 -23.5t21.5 -54.5q0 -63 -80 -100q-123 -57 -252 -119 q-92 -45 -104 -45q-23 0 -38 28t-19 56z" />
<glyph unicode="&#xee;" horiz-adv-x="780" d="M143 651q0 25 25 77t66.5 109.5t112.5 99.5t149 42q88 0 147 -51t59 -133v-13q0 -35 -103 -296t-103 -287q0 -25 16 -40.5t39 -15.5q49 0 91 50.5t65 117.5q14 35 51 35h78q39 0 38 -29q0 -27 -24.5 -78t-67.5 -109t-113.5 -100t-148.5 -42q-88 0 -147.5 51t-59.5 133 q0 33 25 102q182 473 182 494q0 23 -15.5 39t-39.5 16q-41 0 -80 -39t-63 -96q-4 -10 -9.5 -25.5t-7.5 -19.5t-8 -11t-14.5 -8t-22.5 -1h-80q-37 -1 -37 28zM274 1300q0 10 4.5 18.5t14.5 16.5t17 13.5t25.5 16.5t26.5 17q315 193 328 197h4q12 0 31.5 -15.5t122.5 -111.5 q63 -59 106 -98q33 -33 33 -51q0 -20 -42 -62.5t-64 -42.5q-6 0 -11.5 2t-12.5 7t-13 10.5t-18.5 16.5t-21.5 21.5t-27.5 29t-33.5 32.5l-79 82h-2l-269 -182q-37 -20 -47 -21q-27 0 -49.5 43t-22.5 61z" />
<glyph unicode="&#xef;" horiz-adv-x="780" d="M143 651q0 25 25 77t66.5 109.5t112.5 99.5t149 42q88 0 147 -51t59 -133v-13q0 -35 -103 -296t-103 -287q0 -25 16 -40.5t39 -15.5q49 0 91 50.5t65 117.5q14 35 51 35h78q39 0 38 -29q0 -27 -24.5 -78t-67.5 -109t-113.5 -100t-148.5 -42q-88 0 -147.5 51t-59.5 133 q0 33 25 102q182 473 182 494q0 23 -15.5 39t-39.5 16q-41 0 -80 -39t-63 -96q-4 -10 -9.5 -25.5t-7.5 -19.5t-8 -11t-14.5 -8t-22.5 -1h-80q-37 -1 -37 28zM352 1272q0 55 46 102t106 47q49 0 78.5 -30.5t29.5 -75.5q0 -57 -46 -103.5t-105 -46.5q-45 0 -77 30t-32 77z M809 1272q0 55 46 102t106 47q45 0 76.5 -29.5t31.5 -76.5q0 -61 -48 -105.5t-103 -44.5q-45 0 -77 30t-32 77z" />
<glyph unicode="&#xf0;" d="M231 338q0 84 27 173t83 174t133 151.5t186.5 107.5t234.5 41q141 0 248 -63q-31 131 -135 245l-142 -67l-43 137l47 25v2q-133 57 -272 57q-6 0 -19.5 -1t-21.5 -1v2q27 18 58.5 40.5t43 31t27.5 17.5t26.5 11t24.5 2q150 0 303 -77l150 75l45 -137l-61 -31v-2 q23 -20 45 -47.5t56 -82t54.5 -134.5t20.5 -170q0 -104 -43 -272q0 -2 -5.5 -23.5t-8.5 -33t-10 -37t-14 -43t-18.5 -45t-24 -48t-29.5 -48t-36.5 -50t-45 -48.5t-54.5 -46q-176 -135 -412 -135q-190 0 -304 90t-114 260zM426 371q0 -217 262 -217q125 0 216 50t134 128 t61.5 146.5t18.5 131.5q0 221 -260 221q-133 0 -226 -54t-134 -137t-56.5 -147.5t-15.5 -121.5z" />
<glyph unicode="&#xf1;" horiz-adv-x="1433" d="M141 651q0 14 17.5 62.5t49.5 110t92 108.5t134 47q76 0 142.5 -41t85.5 -129q160 170 360 170q119 0 200 -53.5t81 -180.5q0 -111 -76 -321.5t-76 -224.5q0 -25 15.5 -40.5t39.5 -15.5q45 0 88 46.5t68 119.5q8 27 20.5 32t59.5 5h26q59 0 60 -29q0 -25 -23.5 -76 t-65.5 -108t-113 -100t-150 -43q-88 0 -148.5 50t-60.5 132q0 37 77.5 248t77.5 291q0 113 -131 112q-106 0 -193 -70.5t-139.5 -180t-86 -213t-56 -197.5t-29.5 -109q-29 -63 -96 -63q-31 0 -52.5 19.5t-21.5 49.5q0 23 7 43l151 609q6 23 6 41q0 33 -22.5 52t-48.5 19 q-37 0 -58.5 -43t-35 -93t-23.5 -58q-8 -6 -39 -6h-61q-52 -1 -52 28zM623 1192q0 18 28 43q2 2 25.5 22.5t38 33t42 35t50 36.5t50.5 29.5t52.5 22.5t46.5 7q49 0 80 -31.5t53.5 -63.5t47.5 -32q41 0 123.5 62.5t97.5 62.5q23 0 50.5 -33.5t27.5 -54.5q0 -16 -27 -43 q-2 -2 -25.5 -22.5t-38 -32.5t-42 -34.5t-50 -37t-50 -30t-52.5 -22.5t-47 -7q-47 0 -78 31.5t-54.5 63.5t-47.5 32q-41 0 -124 -62.5t-98 -62.5q-20 0 -49.5 34t-29.5 54z" />
<glyph unicode="&#xf2;" d="M266 342q0 104 40 213t115 205t197.5 157.5t272.5 61.5q176 0 280.5 -93t104.5 -261q0 -150 -69.5 -292.5t-216 -243.5t-337.5 -101q-178 0 -282.5 94t-104.5 260zM455 344q0 -201 227 -201q115 0 200 53.5t127 135.5t61.5 155.5t19.5 135.5q0 111 -66 156.5t-162 45.5 t-172 -38.5t-119 -94t-70.5 -125t-36.5 -124t-9 -99.5zM651 1362q0 37 31 68.5t70 31.5q29 0 88 -41q43 -29 106 -71q100 -66 118.5 -82.5t18.5 -34.5q0 -20 -36.5 -66.5t-61.5 -46.5q-12 0 -43 17.5t-238 148.5q-53 31 -53 76z" />
<glyph unicode="&#xf3;" d="M266 342q0 104 40 213t115 205t197.5 157.5t272.5 61.5q176 0 280.5 -93t104.5 -261q0 -150 -69.5 -292.5t-216 -243.5t-337.5 -101q-178 0 -282.5 94t-104.5 260zM455 344q0 -201 227 -201q115 0 200 53.5t127 135.5t61.5 155.5t19.5 135.5q0 111 -66 156.5t-162 45.5 t-172 -38.5t-119 -94t-70.5 -125t-36.5 -124t-9 -99.5zM834 1231q0 29 53 55q84 41 194 98q154 78 176 78q33 0 54.5 -23.5t21.5 -54.5q0 -63 -80 -100q-123 -57 -252 -119q-92 -45 -104 -45q-23 0 -38 28t-19 56z" />
<glyph unicode="&#xf4;" d="M266 342q0 104 40 213t115 205t197.5 157.5t272.5 61.5q176 0 280.5 -93t104.5 -261q0 -150 -69.5 -292.5t-216 -243.5t-337.5 -101q-178 0 -282.5 94t-104.5 260zM455 344q0 -201 227 -201q115 0 200 53.5t127 135.5t61.5 155.5t19.5 135.5q0 111 -66 156.5t-162 45.5 t-172 -38.5t-119 -94t-70.5 -125t-36.5 -124t-9 -99.5zM618 1301q0 8 3 15t7 12.5t14.5 12.5l16.5 11t22.5 13t24.5 16q313 195 318 196q6 2 12 2h2q12 0 31.5 -16t93.5 -84q78 -74 137 -127q33 -29 33 -49.5t-43 -63.5t-64 -43q-16 0 -37.5 19.5t-111.5 111.5 q-41 43 -68 70h-4l-266 -180q-37 -20 -47 -21q-27 0 -50.5 44.5t-23.5 60.5z" />
<glyph unicode="&#xf5;" d="M266 342q0 104 40 213t115 205t197.5 157.5t272.5 61.5q176 0 280.5 -93t104.5 -261q0 -150 -69.5 -292.5t-216 -243.5t-337.5 -101q-178 0 -282.5 94t-104.5 260zM455 344q0 -201 227 -201q115 0 200 53.5t127 135.5t61.5 155.5t19.5 135.5q0 111 -66 156.5t-162 45.5 t-172 -38.5t-119 -94t-70.5 -125t-36.5 -124t-9 -99.5zM559 1191.5q0 20.5 27 43.5q80 68 118.5 98.5t93 59t95.5 28.5q49 0 80 -31.5t53.5 -63.5t46.5 -32q41 0 124 62.5t97 62.5q23 0 50.5 -33.5t27.5 -54.5q0 -16 -29 -45q-2 0 -25.5 -21.5t-36.5 -32.5t-42 -34.5 t-50.5 -37t-49 -29t-52 -22.5t-47.5 -7q-39 0 -67.5 19.5t-41.5 44t-32.5 44t-40.5 19.5q-41 0 -123 -62.5t-96 -62.5q-20 0 -50 33.5t-30 54z" />
<glyph unicode="&#xf6;" d="M266 342q0 104 40 213t115 205t197.5 157.5t272.5 61.5q176 0 280.5 -93t104.5 -261q0 -150 -69.5 -292.5t-216 -243.5t-337.5 -101q-178 0 -282.5 94t-104.5 260zM455 344q0 -201 227 -201q115 0 200 53.5t127 135.5t61.5 155.5t19.5 135.5q0 111 -66 156.5t-162 45.5 t-172 -38.5t-119 -94t-70.5 -125t-36.5 -124t-9 -99.5zM614 1272q0 61 48.5 105t103.5 44q49 0 78.5 -30.5t29.5 -75.5q0 -55 -46 -102.5t-105 -47.5q-45 0 -77 30t-32 77zM1073 1272q0 55 46 102t106 47q45 0 76.5 -29.5t31.5 -76.5q0 -59 -49 -104.5t-104 -45.5 q-45 0 -76 30t-31 77z" />
<glyph unicode="&#xf7;" horiz-adv-x="1957" d="M322 512q0 47 53 59q16 2 51 2h1372q33 0 41 -2q49 -10 49 -59q0 -61 -84 -61h-1403q-79 0 -79 61zM801 -45q0 74 60.5 133t135.5 59q61 0 102.5 -39.5t41.5 -103.5q0 -74 -58.5 -133t-136.5 -59q-61 0 -103 40t-42 103zM1067 1020q0 74 60.5 132t136.5 58 q61 0 102 -38.5t41 -102.5q0 -74 -58.5 -133t-136.5 -59q-61 0 -103 40t-42 103z" />
<glyph unicode="&#xf8;" d="M143 -180q0 14 23.5 45t78 95.5t93.5 113.5q-66 98 -66 231q0 121 43 248t121 234.5t200 176t265 68.5q100 0 193 -43q178 217 190 228q10 6 23 6q18 0 55 -26t37 -54q0 -12 -82 -111q-63 -78 -113 -137q66 -98 66 -231q0 -123 -43 -250t-121 -234.5t-200 -176.5 t-265 -69q-100 0 -192 43l-162 -198q-31 -35 -51 -35q-18 0 -55.5 25.5t-37.5 50.5zM438 315q0 -43 17 -100l530 645q-47 18 -108 19h-3q-100 -2 -180 -48.5t-126 -113t-76.5 -147.5t-42 -144.5t-11.5 -110.5zM557 109q51 -20 107 -21q100 0 180 45t127 111.5t78.5 147.5 t43 145.5t11.5 113.5q0 47 -17 103z" />
<glyph unicode="&#xf9;" horiz-adv-x="1368" d="M141 651q0 25 24.5 76t67.5 108.5t114 100.5t151 43q88 0 147.5 -51t59.5 -133q0 -39 -73 -229.5t-73 -286.5q0 -135 150 -136q158 0 262 234q6 12 7 16t6 15.5t6 16.5t7.5 24.5t9.5 35t12 52t18.5 72.5t24.5 97.5t32 127.5l4 18q6 18 9 28.5t12 29t20.5 29.5t30 19.5 t40.5 8.5q33 0 54.5 -19.5t21.5 -52.5q0 -10 -10 -51l-146 -584q-8 -29 -8 -45q0 -31 22.5 -51.5t51.5 -20.5q47 0 79 96.5t36 98.5q10 8 41 8h63q49 0 49 -31q0 -14 -17 -62t-50 -110.5t-93.5 -108.5t-132.5 -46q-152 0 -213 121q-72 -61 -133 -91t-149 -30 q-299 0 -299 256q0 117 71.5 313.5t71.5 210.5q0 25 -15.5 40t-37.5 15q-45 0 -88 -45t-68 -116q-8 -25 -20 -32t-35 -7h-55q-60 -1 -60 28zM682 1362q0 37 30.5 68.5t69.5 31.5q23 0 60 -22.5t133 -87.5q61 -45 102 -72q37 -27 37 -47.5t-37 -66.5t-61 -46q-12 0 -43 17.5 t-238 146.5q-53 31 -53 78z" />
<glyph unicode="&#xfa;" horiz-adv-x="1368" d="M141 651q0 25 24.5 76t67.5 108.5t114 100.5t151 43q88 0 147.5 -51t59.5 -133q0 -39 -73 -229.5t-73 -286.5q0 -135 150 -136q158 0 262 234q6 12 7 16t6 15.5t6 16.5t7.5 24.5t9.5 35t12 52t18.5 72.5t24.5 97.5t32 127.5l4 18q6 18 9 28.5t12 29t20.5 29.5t30 19.5 t40.5 8.5q33 0 54.5 -19.5t21.5 -52.5q0 -10 -10 -51l-146 -584q-8 -29 -8 -45q0 -31 22.5 -51.5t51.5 -20.5q47 0 79 96.5t36 98.5q10 8 41 8h63q49 0 49 -31q0 -14 -17 -62t-50 -110.5t-93.5 -108.5t-132.5 -46q-152 0 -213 121q-72 -61 -133 -91t-149 -30 q-299 0 -299 256q0 117 71.5 313.5t71.5 210.5q0 25 -15.5 40t-37.5 15q-45 0 -88 -45t-68 -116q-8 -25 -20 -32t-35 -7h-55q-60 -1 -60 28zM866 1231q0 31 54 55q332 170 354 174q8 2 16 2q35 0 56.5 -22.5t21.5 -55.5q0 -61 -82 -100q-109 -51 -235 -110 q-111 -53 -123 -54q-23 0 -38.5 28t-19.5 56z" />
<glyph unicode="&#xfb;" horiz-adv-x="1368" d="M141 651q0 25 24.5 76t67.5 108.5t114 100.5t151 43q88 0 147.5 -51t59.5 -133q0 -39 -73 -229.5t-73 -286.5q0 -135 150 -136q158 0 262 234q6 12 7 16t6 15.5t6 16.5t7.5 24.5t9.5 35t12 52t18.5 72.5t24.5 97.5t32 127.5l4 18q6 18 9 28.5t12 29t20.5 29.5t30 19.5 t40.5 8.5q33 0 54.5 -19.5t21.5 -52.5q0 -10 -10 -51l-146 -584q-8 -29 -8 -45q0 -31 22.5 -51.5t51.5 -20.5q47 0 79 96.5t36 98.5q10 8 41 8h63q49 0 49 -31q0 -14 -17 -62t-50 -110.5t-93.5 -108.5t-132.5 -46q-152 0 -213 121q-72 -61 -133 -91t-149 -30 q-299 0 -299 256q0 117 71.5 313.5t71.5 210.5q0 25 -15.5 40t-37.5 15q-45 0 -88 -45t-68 -116q-8 -25 -20 -32t-35 -7h-55q-60 -1 -60 28zM649 1300q0 6 2 12.5t7.5 12.5t9.5 10t14 11.5t16.5 11.5l19.5 12t21 12q299 188 316 195q6 2 12 2h2q16 0 76 -53q18 -18 78 -72 q66 -61 110 -102q33 -29 33 -49.5t-43 -62.5t-66 -42q-16 0 -37.5 19.5t-111.5 111.5q-41 43 -68 70h-2l-268 -180q-39 -23 -47 -23q-27 0 -50.5 43t-23.5 61z" />
<glyph unicode="&#xfc;" horiz-adv-x="1368" d="M141 651q0 25 24.5 76t67.5 108.5t114 100.5t151 43q88 0 147.5 -51t59.5 -133q0 -39 -73 -229.5t-73 -286.5q0 -135 150 -136q158 0 262 234q6 12 7 16t6 15.5t6 16.5t7.5 24.5t9.5 35t12 52t18.5 72.5t24.5 97.5t32 127.5l4 18q6 18 9 28.5t12 29t20.5 29.5t30 19.5 t40.5 8.5q33 0 54.5 -19.5t21.5 -52.5q0 -10 -10 -51l-146 -584q-8 -29 -8 -45q0 -31 22.5 -51.5t51.5 -20.5q47 0 79 96.5t36 98.5q10 8 41 8h63q49 0 49 -31q0 -14 -17 -62t-50 -110.5t-93.5 -108.5t-132.5 -46q-152 0 -213 121q-72 -61 -133 -91t-149 -30 q-299 0 -299 256q0 117 71.5 313.5t71.5 210.5q0 25 -15.5 40t-37.5 15q-45 0 -88 -45t-68 -116q-8 -25 -20 -32t-35 -7h-55q-60 -1 -60 28zM645 1272q0 55 46 101t108 46q47 0 76.5 -30.5t29.5 -75.5q0 -57 -46 -102.5t-105 -45.5q-47 0 -78 31t-31 76zM1104 1274 q0 57 46 102t105 45q45 0 77 -29.5t32 -76.5q0 -55 -46 -102.5t-106 -47.5q-47 0 -77.5 32t-30.5 77z" />
<glyph unicode="&#xfd;" horiz-adv-x="1236" d="M141 651q0 27 26 78t67.5 108.5t112.5 99.5t147 42q100 0 155.5 -55.5t55.5 -128.5q0 -41 -73 -232.5t-73 -283.5q0 -135 150 -136q59 0 112 35t88 89.5t54.5 95t31.5 77.5q6 18 34 132t54.5 218.5t34.5 118.5q33 57 92 58q31 0 53.5 -20.5t22.5 -51.5q0 -23 -10 -53 l-199 -795l-4 -22q-6 -20 -10 -32.5t-12.5 -40.5t-20.5 -48.5t-28.5 -50t-39 -54t-50 -52.5t-64.5 -52.5t-80 -44.5q-123 -59 -248 -60q-113 0 -183.5 49.5t-70.5 127.5q0 59 36 96t87 37q35 0 59.5 -21.5t24.5 -56.5q0 -27 -18 -64q39 -14 88 -14q111 0 205 68.5t131 167.5 q8 23 22 81q-117 -74 -225 -73q-127 0 -213 58t-86 198q0 119 71.5 314.5t71.5 209.5q0 25 -15.5 40t-37.5 15q-20 0 -43 -9t-56.5 -50t-58.5 -109q-8 -20 -17 -26t-32 -6h-67q-52 -1 -52 28zM801 1231q0 29 53 55q84 41 195 98q154 78 176 78q33 0 54 -23.5t21 -54.5 q0 -63 -79 -100q-123 -57 -252 -119q-92 -45 -105 -45q-23 0 -38 28t-19 56z" />
<glyph unicode="&#xfe;" horiz-adv-x="1308" d="M57 -352q8 86 39 104q10 6 51 6h93l370 1483q-18 2 -44.5 2t-41 1t-30 5t-22.5 13.5t-7 25.5q0 14 10 49t21 47q12 12 36.5 15.5t202.5 19.5q4 0 16.5 1t18.5 1q45 0 45 -41q0 -18 -17.5 -89.5t-50 -194.5t-53.5 -215q190 98 365 98q125 0 187.5 -84t62.5 -217 q0 -158 -62.5 -313.5t-190.5 -266t-290 -110.5q-150 0 -260 110l-86 -340h84q59 0 59 -43q-8 -84 -39 -102q-14 -8 -35 -8h-83q-27 0 -48.5 -1t-35.5 -1h-35q-29 0 -49.5 1t-40.5 1h-84q-56 0 -56 43zM571 338q0 -76 36 -135.5t120 -59.5q115 0 199 62.5t120.5 154t53 162 t16.5 121.5q0 180 -184 180q-92 0 -176 -56t-113 -120q-6 -14 -39 -144t-33 -165z" />
<glyph unicode="&#xff;" horiz-adv-x="1236" d="M141 651q0 27 26 78t67.5 108.5t112.5 99.5t147 42q100 0 155.5 -55.5t55.5 -128.5q0 -41 -73 -232.5t-73 -283.5q0 -135 150 -136q59 0 112 35t88 89.5t54.5 95t31.5 77.5q6 18 34 132t54.5 218.5t34.5 118.5q33 57 92 58q31 0 53.5 -20.5t22.5 -51.5q0 -23 -10 -53 l-199 -795l-4 -22q-6 -20 -10 -32.5t-12.5 -40.5t-20.5 -48.5t-28.5 -50t-39 -54t-50 -52.5t-64.5 -52.5t-80 -44.5q-123 -59 -248 -60q-113 0 -183.5 49.5t-70.5 127.5q0 59 36 96t87 37q35 0 59.5 -21.5t24.5 -56.5q0 -27 -18 -64q39 -14 88 -14q111 0 205 68.5t131 167.5 q8 23 22 81q-117 -74 -225 -73q-127 0 -213 58t-86 198q0 119 71.5 314.5t71.5 209.5q0 25 -15.5 40t-37.5 15q-20 0 -43 -9t-56.5 -50t-58.5 -109q-8 -20 -17 -26t-32 -6h-67q-52 -1 -52 28zM582 1272q0 61 48 105t103 44q49 0 79 -30.5t30 -75.5q0 -57 -46 -103.5 t-106 -46.5q-45 0 -76.5 30t-31.5 77zM1038 1272q0 55 46 102t106 47q49 0 78.5 -30.5t29.5 -75.5q0 -57 -46 -103.5t-105 -46.5q-45 0 -77 30t-32 77z" />
<glyph unicode="&#x100;" horiz-adv-x="1859" d="M156 43q8 82 37 102q12 8 57 9q37 0 106 4l805 1235q37 55 96 55h72q23 0 37 -9t18.5 -21.5t8.5 -33.5l186 -1230h100q59 0 60 -43q-8 -90 -43 -105q-16 -6 -35 -6h-361q-61 0 -61 43q8 88 39 104q12 6 41 7h57l-41 270h-594q-23 -2 -36 -21q-6 -6 -164 -247h20t20.5 -1 t17.5 -2t16.5 -4.5t11.5 -8.5t8 -12t2 -17q0 -8 -10 -54q-8 -33 -20.5 -44t-41.5 -13h-350q-59 0 -59 43zM815 578h496l-92 622zM882 1635q0 49 24 94q12 20 56 20h788q61 0 62 -43q-10 -90 -41 -108q-10 -6 -33 -6h-801q-55 0 -55 43z" />
<glyph unicode="&#x101;" d="M262 322q0 145 62.5 292.5t195.5 256t303 108.5q129 0 228 -84q35 51 90 51q35 0 55.5 -20.5t20.5 -51.5q0 -10 -17 -75l-135 -541q-6 -20 -6 -43q0 -31 22.5 -51.5t48.5 -20.5q37 0 59.5 42t35 92.5t20.5 58.5q12 10 41 10h66q47 0 47 -29q0 -14 -17.5 -62t-49.5 -110.5 t-93 -109.5t-133 -47q-145 0 -209 116q-154 -117 -311 -116q-145 0 -234.5 89t-89.5 245zM449 319q0 -96 48 -136t117 -40q100 0 191.5 81t126.5 216q37 150 37 174q0 119 -52.5 164t-121.5 45q-82 0 -146.5 -44t-100.5 -106.5t-59.5 -137t-31.5 -128t-8 -88.5zM487 1331 q0 47 25 92q14 23 55 23h727q59 0 59 -45q-8 -90 -41 -109q-10 -6 -32 -6h-738q-55 0 -55 45z" />
<glyph unicode="&#x102;" horiz-adv-x="1859" d="M156 43q8 82 37 102q12 8 57 9q37 0 106 4l805 1235q37 55 96 55h72q23 0 37 -9t18.5 -21.5t8.5 -33.5l186 -1230h100q59 0 60 -43q-8 -90 -43 -105q-16 -6 -35 -6h-361q-61 0 -61 43q8 88 39 104q12 6 41 7h57l-41 270h-594q-23 -2 -36 -21q-6 -6 -164 -247h20t20.5 -1 t17.5 -2t16.5 -4.5t11.5 -8.5t8 -12t2 -17q0 -8 -10 -54q-8 -33 -20.5 -44t-41.5 -13h-350q-59 0 -59 43zM815 578h496l-92 622zM1014 1917q0 76 17.5 97.5t53.5 21.5h29q61 0 62 -45q0 -8 -3.5 -24.5t-3.5 -29.5q0 -72 55.5 -117.5t137.5 -45.5q92 0 178 54t125 140 q4 8 9 22.5t8.5 19.5t10.5 13.5t18 10.5t28 2h28q61 0 62 -41q0 -29 -20.5 -75t-62.5 -99.5t-98.5 -100.5t-137 -77.5t-169.5 -30.5q-141 0 -234 84t-93 221z" />
<glyph unicode="&#x103;" d="M262 322q0 145 62.5 292.5t195.5 256t303 108.5q129 0 228 -84q35 51 90 51q35 0 55.5 -20.5t20.5 -51.5q0 -10 -17 -75l-135 -541q-6 -20 -6 -43q0 -31 22.5 -51.5t48.5 -20.5q37 0 59.5 42t35 92.5t20.5 58.5q12 10 41 10h66q47 0 47 -29q0 -14 -17.5 -62t-49.5 -110.5 t-93 -109.5t-133 -47q-145 0 -209 116q-154 -117 -311 -116q-145 0 -234.5 89t-89.5 245zM449 319q0 -96 48 -136t117 -40q100 0 191.5 81t126.5 216q37 150 37 174q0 119 -52.5 164t-121.5 45q-82 0 -146.5 -44t-100.5 -106.5t-59.5 -137t-31.5 -128t-8 -88.5zM618 1442 q0 86 18.5 112.5t57.5 26.5h29q59 0 59 -43q0 -10 -3 -34.5t-3 -41.5q0 -80 50.5 -133t134.5 -53q94 0 184 68.5t129 168.5q4 8 8 20.5t6 17.5t7 12.5t11.5 10.5t16.5 5t25 2h24q66 0 66 -43q0 -29 -20.5 -78t-64.5 -109.5t-101.5 -112.5t-140.5 -88t-173 -36 q-143 0 -231.5 92.5t-88.5 235.5z" />
<glyph unicode="&#x104;" horiz-adv-x="1859" d="M156 43q8 82 37 102q12 8 57 9q37 0 106 4l805 1235q37 55 96 55h72q23 0 37 -9t18.5 -21.5t8.5 -33.5l186 -1230h100q59 0 60 -43q-10 -80 -35 -101q-16 -10 -39 -10h-35q-61 0 -134 -71.5t-73 -131.5q0 -49 41 -49q23 0 56.5 22.5t46.5 22.5q20 0 54 -29.5t34 -50.5 q0 -35 -78 -84t-160 -49t-138 49t-56 127q0 121 155 244h-78q-61 0 -61 43q8 88 39 104q12 6 41 7h57l-41 270h-592q-25 0 -38 -18q-4 -6 -164 -250h20t20.5 -1t17.5 -2t16.5 -4.5t11.5 -8.5t8 -12t2 -17q0 -8 -10 -54q-8 -33 -20.5 -44t-41.5 -13h-350q-59 0 -59 43z M815 578h496l-92 622z" />
<glyph unicode="&#x105;" d="M262 322q0 150 64.5 298t197.5 253.5t299 105.5q129 0 228 -84q35 51 92 51q31 0 52.5 -19.5t21.5 -49.5q0 -12 -11 -54l-137 -551q-10 -47 -10 -57q0 -33 23.5 -52.5t47.5 -19.5q35 0 57.5 41t36 91.5t19.5 58.5q10 12 80 12h25q51 0 51 -31q0 -45 -55.5 -152.5 t-141.5 -150.5q-10 -16 -37 -32q-98 -57 -143 -111.5t-45 -91.5q0 -47 45 -47q27 0 58.5 20.5t41.5 20.5q14 0 52 -32t38 -48q0 -29 -69.5 -71t-153.5 -42t-144.5 45t-60.5 117q0 29 10.5 57.5t30 53t39 46t45 41t43 32t36 24.5t20.5 12q-76 31 -111 98q-154 -117 -311 -116 q-145 0 -234.5 88t-89.5 246zM449 319q0 -96 48 -136t117 -40q100 0 191.5 81t126.5 216q37 150 37 174q0 119 -52.5 164t-121.5 45q-82 0 -146.5 -44t-100.5 -106.5t-59.5 -137t-31.5 -128t-8 -88.5z" />
<glyph unicode="&#x106;" horiz-adv-x="1826" d="M344 516q0 158 65.5 318.5t184.5 299t312.5 225.5t424.5 87q276 0 430 -180h2q137 162 148 170q12 10 35 10q37 0 36 -31q0 -6 -58 -241.5t-60 -243.5q-10 -39 -54 -39h-57q-43 0 -53 6t-10 31v41q0 137 -84 229t-244 92q-115 0 -226.5 -26.5t-224 -85t-201.5 -171 t-137 -266.5q-33 -104 -32 -204q0 -94 31.5 -167t82 -117t120 -72.5t140 -39t148.5 -10.5q174 0 316.5 92t195.5 232q2 6 5 14t4 12t4 9.5t4 6.5t6.5 4t9.5 3t12 1t16.5 1h22.5h29q59 0 59 -27q0 -18 -8 -43q-68 -201 -286 -330t-476 -129q-281 0 -457 136.5t-176 402.5z M1182 1681q0 10 2 17.5t7 13.5t7 9t12.5 7.5t12.5 5.5t14 5l14 4q344 117 361 117q35 0 55.5 -22.5t20.5 -53.5q0 -16 -3.5 -28.5t-13.5 -24t-20.5 -20.5t-32 -18.5t-40.5 -16.5t-55 -18t-68 -20.5t-84 -25t-97 -29.5q-37 -10 -41 -10q-51 -1 -51 108z" />
<glyph unicode="&#x107;" horiz-adv-x="1171" d="M266 342q0 244 175 440.5t446 196.5q123 0 201.5 -54.5t78.5 -142.5q0 -72 -40 -107.5t-85 -35.5q-35 0 -59.5 22.5t-24.5 57.5q0 33 27 74q-51 31 -123 30q-96 0 -172 -39t-119 -95t-70.5 -125.5t-36.5 -124t-9 -95.5q0 -201 239 -201q109 0 186.5 17.5t107.5 37 t52.5 37t32.5 17.5q14 0 50 -38t40 -50q6 -18 -22 -43q-152 -133 -471 -133q-213 0 -308.5 100t-95.5 254zM738 1231q0 29 53 55q84 41 194 98q154 78 176 78q33 0 54.5 -23.5t21.5 -54.5q0 -63 -80 -100q-123 -57 -252 -119q-92 -45 -104 -45q-23 0 -38 28t-19 56z" />
<glyph unicode="&#x108;" horiz-adv-x="1826" d="M344 516q0 158 65.5 318.5t184.5 299t312.5 225.5t424.5 87q276 0 430 -180h2q137 162 148 170q12 10 35 10q37 0 36 -31q0 -6 -58 -241.5t-60 -243.5q-10 -39 -54 -39h-57q-43 0 -53 6t-10 31v41q0 137 -84 229t-244 92q-115 0 -226.5 -26.5t-224 -85t-201.5 -171 t-137 -266.5q-33 -104 -32 -204q0 -94 31.5 -167t82 -117t120 -72.5t140 -39t148.5 -10.5q174 0 316.5 92t195.5 232q2 6 5 14t4 12t4 9.5t4 6.5t6.5 4t9.5 3t12 1t16.5 1h22.5h29q59 0 59 -27q0 -18 -8 -43q-68 -201 -286 -330t-476 -129q-281 0 -457 136.5t-176 402.5z M1015 1638q0 16 35 52q195 176 283 251.5t108.5 90t30.5 14.5t18.5 -4t16.5 -14.5t13 -18.5t15.5 -25.5t16.5 -25.5q193 -301 192 -320q0 -25 -49 -58.5t-67 -33.5q-8 0 -14.5 3t-13.5 11.5t-13 16.5t-15.5 24.5t-15.5 28.5t-18.5 35t-20.5 39q-12 25 -38.5 73t-39.5 72 q-72 -63 -153.5 -146t-122.5 -120t-58 -37q-23 0 -56.5 36t-33.5 56z" />
<glyph unicode="&#x109;" horiz-adv-x="1171" d="M266 342q0 244 175 440.5t446 196.5q123 0 201.5 -54.5t78.5 -142.5q0 -72 -40 -107.5t-85 -35.5q-35 0 -59.5 22.5t-24.5 57.5q0 33 27 74q-51 31 -123 30q-96 0 -172 -39t-119 -95t-70.5 -125.5t-36.5 -124t-9 -95.5q0 -201 239 -201q109 0 186.5 17.5t107.5 37 t52.5 37t32.5 17.5q14 0 50 -38t40 -50q6 -18 -22 -43q-152 -133 -471 -133q-213 0 -308.5 100t-95.5 254zM614 1313q0 8 3 15t7 12.5t14.5 12.5l16.5 11t22.5 13t24.5 16q313 195 318 196q6 2 12 2h2q12 0 31.5 -16t93.5 -84q78 -74 137 -127q33 -29 33 -49.5t-43 -63.5 t-64 -43q-16 0 -37.5 19.5t-111.5 111.5q-41 43 -68 70h-4l-266 -180q-37 -20 -47 -21q-27 0 -50.5 44.5t-23.5 60.5z" />
<glyph unicode="&#x10a;" horiz-adv-x="1826" d="M344 516q0 158 65.5 318.5t184.5 299t312.5 225.5t424.5 87q276 0 430 -180h2q137 162 148 170q12 10 35 10q37 0 36 -31q0 -6 -58 -241.5t-60 -243.5q-10 -39 -54 -39h-57q-43 0 -53 6t-10 31v41q0 137 -84 229t-244 92q-115 0 -226.5 -26.5t-224 -85t-201.5 -171 t-137 -266.5q-33 -104 -32 -204q0 -94 31.5 -167t82 -117t120 -72.5t140 -39t148.5 -10.5q174 0 316.5 92t195.5 232q2 6 5 14t4 12t4 9.5t4 6.5t6.5 4t9.5 3t12 1t16.5 1h22.5h29q59 0 59 -27q0 -18 -8 -43q-68 -201 -286 -330t-476 -129q-281 0 -457 136.5t-176 402.5z M1257 1655q0 55 46 101t108 46q47 0 76.5 -30.5t29.5 -75.5q0 -57 -45 -102.5t-106 -45.5q-45 0 -77 30t-32 77z" />
<glyph unicode="&#x10b;" horiz-adv-x="1171" d="M266 342q0 244 175 440.5t446 196.5q123 0 201.5 -54.5t78.5 -142.5q0 -72 -40 -107.5t-85 -35.5q-35 0 -59.5 22.5t-24.5 57.5q0 33 27 74q-51 31 -123 30q-96 0 -172 -39t-119 -95t-70.5 -125.5t-36.5 -124t-9 -95.5q0 -201 239 -201q109 0 186.5 17.5t107.5 37 t52.5 37t32.5 17.5q14 0 50 -38t40 -50q6 -18 -22 -43q-152 -133 -471 -133q-213 0 -308.5 100t-95.5 254zM835 1274q0 55 46.5 101t107.5 46q47 0 76.5 -30.5t29.5 -75.5q0 -57 -46 -102.5t-105 -45.5q-47 0 -78 31t-31 76z" />
<glyph unicode="&#x10c;" horiz-adv-x="1826" d="M344 516q0 158 65.5 318.5t184.5 299t312.5 225.5t424.5 87q276 0 430 -180h2q137 162 148 170q12 10 35 10q37 0 36 -31q0 -6 -58 -241.5t-60 -243.5q-10 -39 -54 -39h-57q-43 0 -53 6t-10 31v41q0 137 -84 229t-244 92q-115 0 -226.5 -26.5t-224 -85t-201.5 -171 t-137 -266.5q-33 -104 -32 -204q0 -94 31.5 -167t82 -117t120 -72.5t140 -39t148.5 -10.5q174 0 316.5 92t195.5 232q2 6 5 14t4 12t4 9.5t4 6.5t6.5 4t9.5 3t12 1t16.5 1h22.5h29q59 0 59 -27q0 -18 -8 -43q-68 -201 -286 -330t-476 -129q-281 0 -457 136.5t-176 402.5z M1186 1913q0 20 16.5 36.5t34.5 16.5q16 0 131 -57.5t127 -57.5q20 0 161.5 57.5t158.5 57.5q18 0 31.5 -15.5t13.5 -33.5q0 -29 -62 -64q-313 -180 -323 -182h-2q-18 0 -74 45q-41 33 -84 69t-62.5 51t-38 31.5t-23.5 26t-5 19.5z" />
<glyph unicode="&#x10d;" horiz-adv-x="1171" d="M266 342q0 244 175 440.5t446 196.5q123 0 201.5 -54.5t78.5 -142.5q0 -72 -40 -107.5t-85 -35.5q-35 0 -59.5 22.5t-24.5 57.5q0 33 27 74q-51 31 -123 30q-96 0 -172 -39t-119 -95t-70.5 -125.5t-36.5 -124t-9 -95.5q0 -201 239 -201q109 0 186.5 17.5t107.5 37 t52.5 37t32.5 17.5q14 0 50 -38t40 -50q6 -18 -22 -43q-152 -133 -471 -133q-213 0 -308.5 100t-95.5 254zM684 1534q0 16 17.5 33.5t37.5 17.5q4 0 8 -1t9.5 -4t9.5 -6t10 -10.5t11 -13.5t15.5 -17t18.5 -21.5t21.5 -28t25.5 -31.5q80 -94 96 -117l224 168q106 82 124.5 82 t33 -16.5t14.5 -34.5q0 -16 -37 -53q-104 -94 -232 -213q-104 -94 -123.5 -110.5t-33.5 -16.5q-8 0 -15.5 3t-15.5 13t-13 17.5t-15.5 27t-16.5 27.5q-45 78 -105 176q-69 115 -69 129z" />
<glyph unicode="&#x10e;" horiz-adv-x="1908" d="M227 43q0 41 21 82q12 29 61 29h103l278 1114h-86q-59 0 -59 43q0 8 10 55q8 37 23.5 47t58.5 10q6 0 19.5 -1t19.5 -1h624q2 0 16.5 1t22.5 1q295 0 435.5 -144t140.5 -368q0 -135 -47 -276t-138.5 -272.5t-245 -227.5t-343.5 -125q-59 -10 -191 -10h-665q-58 0 -58 43z M604 154h352q608 0 744 553q23 98 22 180q0 209 -145 305q-115 76 -338 76h-358zM987 1913q0 20 16.5 36.5t34.5 16.5q16 0 130 -57.5t126 -57.5q20 0 162.5 57.5t159.5 57.5q18 0 30.5 -14.5t12.5 -34.5q0 -29 -60 -64q-311 -182 -325 -182h-2q-18 0 -74 45 q-31 25 -63.5 51.5t-51 42t-37 30.5t-27.5 24.5t-17.5 18.5t-11.5 16.5t-3 13.5z" />
<glyph unicode="&#x10f;" d="M262 322q0 147 63.5 294.5t196.5 255t301 107.5q127 0 224 -82l86 344q-18 2 -46 3t-42.5 2t-30 4t-21.5 12.5t-6 25.5q8 80 35 101q10 8 79.5 16t133.5 12l63 4q45 0 45 -41q0 -8 -4 -28l-270 -1082q-10 -45 -10 -55q0 -33 23.5 -52.5t47.5 -19.5q37 0 59.5 43t36 93.5 t21.5 58.5q10 8 39 8h55q57 0 58 -31q0 -14 -17.5 -61t-49.5 -109.5t-93 -109.5t-133 -47q-145 0 -209 116q-154 -117 -311 -116q-139 0 -231.5 85t-92.5 249zM449 319q0 -96 48 -136t117 -40q92 0 175 69t126 171q2 6 15.5 49t26 100.5t12.5 88.5q0 78 -38 140t-136.5 62 t-172 -63.5t-108.5 -154.5t-50 -165t-15 -121zM1372 1090q0 12 14.5 23t36 22.5t54 43t59.5 78.5q-98 12 -98 101q0 61 46 108t109 47q55 0 90 -40.5t35 -106.5q0 -125 -106.5 -248t-161.5 -123q-18 0 -48 40.5t-30 54.5z" />
<glyph unicode="&#x110;" horiz-adv-x="1908" d="M227 43q0 41 21 82q12 29 61 29h103l116 467h-86q-59 0 -59 41q0 10 10 51q10 43 23.5 53t46.5 10h104l123 492h-86q-59 0 -59 43q0 8 10 55q8 37 23.5 47t58.5 10q6 0 19.5 -1t19.5 -1h624q2 0 16.5 1t22.5 1q295 0 435.5 -144t140.5 -368q0 -135 -47 -276 t-138.5 -272.5t-245 -227.5t-343.5 -125q-59 -10 -191 -10h-665q-58 0 -58 43zM604 154h352q608 0 744 553q23 98 22 180q0 209 -145 305q-115 76 -338 76h-358l-123 -492h403q49 -2 49 -41q0 -6 -10 -53q0 -2 -3 -11t-3 -11.5t-3 -9.5t-5 -9t-5 -7t-7.5 -6t-9.5 -3t-12 -3 t-15 -1h-418z" />
<glyph unicode="&#x111;" d="M262 322q0 147 63.5 294.5t196.5 255t301 107.5q127 0 224 -82l34 137h-213q-51 0 -51 43q0 18 6 37q2 4 4 14.5t3 14.5t3.5 11t4.5 10t6 8.5t8 7.5t10 4t13.5 3t17.5 1h227l13 53q-18 2 -45 2t-41.5 1t-30 5t-22.5 13.5t-7 25.5q0 14 9.5 50t19.5 46q12 12 37.5 15.5 t212.5 19.5q4 0 14 1t16 1q49 0 50 -41q0 -6 -48 -192h74q59 0 60 -43q-8 -84 -37 -103q-14 -8 -47 -8h-88q-8 -37 -23 -88l-172 -688q-6 -20 -6 -43q0 -31 21.5 -50.5t47.5 -19.5q39 0 61.5 42t35 92.5t22.5 58.5t39 8h66q47 0 47 -29q0 -18 -17.5 -66t-50.5 -109.5 t-93 -107.5t-132 -46q-145 0 -209 116q-154 -117 -311 -116q-139 0 -231.5 85t-92.5 249zM449 319q0 -96 48 -136t117 -40q63 0 118.5 29t92.5 72t57.5 76.5t32.5 62.5q2 6 15.5 49t26 100.5t12.5 88.5q0 78 -38 140t-136.5 62t-172 -63.5t-108.5 -154.5t-50 -165t-15 -121z " />
<glyph unicode="&#x112;" horiz-adv-x="1626" d="M225 43q8 86 39 104q10 6 51 7h95l278 1110h-84q-63 0 -63 43q0 41 20 82q12 29 57 28h1043q61 0 61 -49l-43 -369q-4 -37 -19 -46t-48 -9h-39q-35 0 -47.5 12.5t-12.5 38.5q0 14 8.5 85t8.5 130v39q-74 14 -268 15h-377l-2 -2l-113 -449h143q125 0 187 6q16 41 27.5 86 t16.5 60.5t19.5 27t42.5 11.5h41q61 0 62 -43q0 -12 -101 -412q-2 -6 -5 -19.5t-5 -17.5t-5 -13.5t-6 -12.5l-8 -8t-11.5 -7t-15.5 -3t-22 -1h-32q-63 0 -64 43q0 2 27 143q-57 4 -174 4h-154l-127 -503h320q184 0 265 6t96.5 13t29.5 30q37 55 129 276q12 25 24.5 35 t42.5 10h39q63 0 64 -39q0 -12 -180 -440q-12 -27 -24.5 -36t-41.5 -9h-1087q-58 0 -58 43zM804 1635q0 49 24 94q12 20 56 20h788q61 0 62 -43q-10 -90 -41 -108q-10 -6 -33 -6h-801q-55 0 -55 43z" />
<glyph unicode="&#x113;" horiz-adv-x="1171" d="M270 354q0 256 174 440.5t441 184.5q131 0 212 -60.5t81 -160.5q0 -104 -74 -183q-131 -139 -555 -139h-17q-12 0 -34.5 -1t-32.5 -1q-6 -41 -6 -82q0 -209 237 -209q104 0 181 17.5t108 37t53.5 37t32.5 17.5q18 0 55 -41t37 -55q0 -10 -16.5 -30t-55 -44.5t-93 -45 t-142.5 -34.5t-188 -14q-113 0 -195 32.5t-124 90t-60.5 116.5t-18.5 127zM506 590h84q416 0 416 143q0 41 -39 65.5t-107 24.5q-256 0 -354 -233zM548 1331q0 47 25 92q14 23 55 23h727q59 0 59 -45q-8 -90 -41 -109q-10 -6 -32 -6h-738q-55 0 -55 45z" />
<glyph unicode="&#x116;" horiz-adv-x="1626" d="M225 43q8 86 39 104q10 6 51 7h95l278 1110h-84q-63 0 -63 43q0 41 20 82q12 29 57 28h1043q61 0 61 -49l-43 -369q-4 -37 -19 -46t-48 -9h-39q-35 0 -47.5 12.5t-12.5 38.5q0 14 8.5 85t8.5 130v39q-74 14 -268 15h-377l-2 -2l-113 -449h143q125 0 187 6q16 41 27.5 86 t16.5 60.5t19.5 27t42.5 11.5h41q61 0 62 -43q0 -12 -101 -412q-2 -6 -5 -19.5t-5 -17.5t-5 -13.5t-6 -12.5l-8 -8t-11.5 -7t-15.5 -3t-22 -1h-32q-63 0 -64 43q0 2 27 143q-57 4 -174 4h-154l-127 -503h320q184 0 265 6t96.5 13t29.5 30q37 55 129 276q12 25 24.5 35 t42.5 10h39q63 0 64 -39q0 -12 -180 -440q-12 -27 -24.5 -36t-41.5 -9h-1087q-58 0 -58 43zM1141 1655q0 55 46 101t108 46q47 0 76.5 -30.5t29.5 -75.5q0 -57 -45 -102.5t-106 -45.5q-45 0 -77 30t-32 77z" />
<glyph unicode="&#x117;" horiz-adv-x="1171" d="M270 354q0 256 174 440.5t441 184.5q131 0 212 -60.5t81 -160.5q0 -104 -74 -183q-131 -139 -555 -139h-17q-12 0 -34.5 -1t-32.5 -1q-6 -41 -6 -82q0 -209 237 -209q104 0 181 17.5t108 37t53.5 37t32.5 17.5q18 0 55 -41t37 -55q0 -10 -16.5 -30t-55 -44.5t-93 -45 t-142.5 -34.5t-188 -14q-113 0 -195 32.5t-124 90t-60.5 116.5t-18.5 127zM506 590h84q416 0 416 143q0 41 -39 65.5t-107 24.5q-256 0 -354 -233zM833 1274q0 55 46.5 101t107.5 46q47 0 76.5 -30.5t29.5 -75.5q0 -57 -46 -102.5t-105 -45.5q-47 0 -78 31t-31 76z" />
<glyph unicode="&#x118;" horiz-adv-x="1626" d="M225 43q8 80 35 100q14 10 51 11h99l278 1110h-84q-63 0 -63 43q0 41 20 82q12 29 57 28h1043q61 0 61 -49l-43 -369q-4 -37 -19 -46t-48 -9h-39q-61 0 -62 51q0 12 9.5 84t9.5 131v39q-74 14 -268 15h-377l-2 -2l-113 -449h143q125 0 187 6q16 41 27.5 86t16.5 60.5 t19.5 27t42.5 11.5h41q61 0 62 -43q0 -12 -101 -412q-2 -6 -5 -19.5t-5 -17.5t-5 -13.5t-6 -12.5l-8 -8t-11.5 -7t-15.5 -3t-22 -1h-32q-63 0 -64 43q0 2 27 143q-57 4 -174 4h-154l-127 -503h320q258 2 314 9t77 40q33 51 129 274q12 29 24.5 38t42.5 9h41h2q4 2 7 2 q53 0 53 -43q0 -8 -174 -422q-16 -39 -29.5 -50t-46.5 -11h-113q-66 0 -138.5 -71.5t-72.5 -133.5q0 -47 41 -47q23 0 55.5 22.5t47.5 22.5q20 0 54 -29.5t34 -50.5q0 -33 -77 -83t-161 -50q-82 0 -139 49t-57 127q0 129 157 244h-714q-58 0 -58 43z" />
<glyph unicode="&#x119;" horiz-adv-x="1171" d="M270 354q0 246 169 435.5t446 189.5q131 0 212 -60.5t81 -160.5q0 -111 -84 -193q-82 -80 -217.5 -104.5t-327.5 -24.5h-19q-10 0 -32.5 -1t-32.5 -1q-6 -41 -6 -80q0 -211 237 -211q104 0 181 17.5t108 37t53.5 37t32.5 17.5q18 0 55 -41t37 -55q0 -23 -55 -62t-133 -65 q-12 -4 -27.5 -8.5t-22.5 -7.5t-19.5 -8t-27 -13t-34.5 -21q-164 -104 -164 -192q0 -45 43 -45q27 0 61.5 23.5t42.5 23.5q14 0 53.5 -33t39.5 -49q0 -31 -76 -76t-158 -45t-140.5 46t-58.5 116q0 68 54.5 133.5t130.5 114.5h-13q-184 0 -286.5 97t-102.5 269zM506 590h84 q416 0 416 143q0 39 -39 64.5t-107 25.5q-256 0 -354 -233z" />
<glyph unicode="&#x11a;" horiz-adv-x="1626" d="M225 43q8 86 39 104q10 6 51 7h95l278 1110h-84q-63 0 -63 43q0 41 20 82q12 29 57 28h1043q61 0 61 -49l-43 -369q-4 -37 -19 -46t-48 -9h-39q-35 0 -47.5 12.5t-12.5 38.5q0 14 8.5 85t8.5 130v39q-74 14 -268 15h-377l-2 -2l-113 -449h143q125 0 187 6q16 41 27.5 86 t16.5 60.5t19.5 27t42.5 11.5h41q61 0 62 -43q0 -12 -101 -412q-2 -6 -5 -19.5t-5 -17.5t-5 -13.5t-6 -12.5l-8 -8t-11.5 -7t-15.5 -3t-22 -1h-32q-63 0 -64 43q0 2 27 143q-57 4 -174 4h-154l-127 -503h320q184 0 265 6t96.5 13t29.5 30q37 55 129 276q12 25 24.5 35 t42.5 10h39q63 0 64 -39q0 -12 -180 -440q-12 -27 -24.5 -36t-41.5 -9h-1087q-58 0 -58 43zM895 1913q0 20 16.5 36.5t34.5 16.5q16 0 130 -57.5t126 -57.5q20 0 161.5 57.5t158.5 57.5q18 0 31.5 -15.5t13.5 -33.5q0 -29 -60 -64q-311 -182 -325 -182h-2q-16 0 -74 45 q-31 25 -63.5 51.5t-51 42t-37 30.5t-27.5 24.5t-17.5 18.5t-11.5 16.5t-3 13.5z" />
<glyph unicode="&#x11b;" horiz-adv-x="1171" d="M270 354q0 256 174 440.5t441 184.5q131 0 212 -60.5t81 -160.5q0 -104 -74 -183q-131 -139 -555 -139h-17q-12 0 -34.5 -1t-32.5 -1q-6 -41 -6 -82q0 -209 237 -209q104 0 181 17.5t108 37t53.5 37t32.5 17.5q18 0 55 -41t37 -55q0 -10 -16.5 -30t-55 -44.5t-93 -45 t-142.5 -34.5t-188 -14q-113 0 -195 32.5t-124 90t-60.5 116.5t-18.5 127zM506 590h84q416 0 416 143q0 41 -39 65.5t-107 24.5q-256 0 -354 -233zM731 1534q0 16 17.5 33.5t37.5 17.5q4 0 8 -1t9.5 -4t9.5 -6t10 -10.5t11 -13.5t15.5 -17t18.5 -21.5t21.5 -28t25.5 -31.5 q80 -94 96 -117l224 168q106 82 124.5 82t33 -16.5t14.5 -34.5q0 -16 -37 -53q-104 -94 -232 -213q-104 -94 -123.5 -110.5t-33.5 -16.5q-8 0 -15.5 3t-15.5 13t-13 17.5t-15.5 27t-16.5 27.5q-45 78 -105 176q-69 115 -69 129z" />
<glyph unicode="&#x11c;" horiz-adv-x="1966" d="M344 516q0 166 68.5 330t190.5 298t312.5 218t413.5 84q276 0 430 -180h2q137 162 148 170q12 10 35 10q39 0 38 -31q0 -6 -59 -241.5t-61 -243.5q-8 -27 -17.5 -33t-34.5 -6h-79q-27 0 -35 8t-8 27v43q0 141 -85 231t-237 90q-211 0 -377 -72.5t-260 -188.5t-141 -241.5 t-47 -250.5q0 -406 553 -406q168 0 266 20.5t131 88.5q6 10 14 43.5t20.5 84t18.5 74.5h-221q-59 0 -59 43q0 18 8 43q12 49 25.5 58.5t52.5 9.5h526q53 -2 53 -43q-8 -88 -39 -104q-12 -6 -53 -7h-96l-103 -405q-8 -33 -26 -33q-27 0 -72 68q-94 -57 -220 -76t-327 -19h-14 q-139 0 -250 32t-181.5 83t-117.5 122t-66.5 145.5t-19.5 156.5zM1013 1638q0 16 35 52q195 176 283 251.5t108.5 90t30.5 14.5t18.5 -4t16.5 -14.5t13 -18.5t15.5 -25.5t16.5 -25.5q193 -301 192 -320q0 -25 -49 -58.5t-67 -33.5q-8 0 -14.5 3t-13.5 11.5t-13 16.5 t-15.5 24.5t-15.5 28.5t-18.5 35t-20.5 39q-12 25 -38.5 73t-39.5 72q-72 -63 -153.5 -146t-122.5 -120t-58 -37q-23 0 -56.5 36t-33.5 56z" />
<glyph unicode="&#x11d;" horiz-adv-x="1171" d="M156 -285q0 53 35.5 90t84.5 37q35 0 60.5 -21.5t23.5 -72.5q86 -4 127 -4q96 0 160 14.5t92.5 43t40 52t19.5 58.5q2 8 2 12q29 113 39 150q-131 -74 -250 -74q-139 0 -232.5 84t-93.5 248q0 143 62.5 288.5t194.5 252t300 106.5q129 0 228 -84q41 51 92 51 q31 0 52 -19.5t21 -49.5q0 -20 -6 -39l-229 -924l-4 -20q-4 -18 -7 -26.5t-10.5 -30t-15.5 -36t-21.5 -36t-32 -37t-41 -34t-53 -34.5t-65.5 -29q-115 -41 -256 -41h-47q-270 0 -270 125zM449 328q0 -94 48 -134t119 -40q90 0 172 64.5t127 170.5q10 27 32 113t22 127 q0 82 -45 138t-131 56q-78 0 -140.5 -42t-99.5 -101t-61.5 -131t-33.5 -127t-9 -94zM550 1313q0 8 3 15t7 12.5t14.5 12.5l16.5 11t22.5 13t24.5 16q313 195 318 196q6 2 12 2h2q12 0 31.5 -16t93.5 -84q78 -74 137 -127q33 -29 33 -49.5t-43 -63.5t-64 -43 q-16 0 -37.5 19.5t-111.5 111.5q-41 43 -68 70h-4l-266 -180q-37 -20 -47 -21q-27 0 -50.5 44.5t-23.5 60.5z" />
<glyph unicode="&#x11e;" horiz-adv-x="1966" d="M344 516q0 121 37 247t118 249t195.5 219t283.5 155.5t368 59.5h32q303 0 434 -55q106 55 130 55q41 0 40 -31q0 -4 -34 -145q-8 -33 -18.5 -40t-35.5 -7h-71q-27 0 -40.5 7t-20.5 17t-43 20.5t-101 16.5q-88 8 -217 8q-211 0 -373 -61.5t-251 -147.5t-145.5 -197.5 t-73.5 -194.5t-17 -154q0 -213 145 -309.5t387 -96.5q84 0 123 2t113.5 10.5t117.5 33t64 63.5q6 10 14 44.5t20.5 84t18.5 73.5h-221q-59 0 -59 43q0 18 8 43q12 49 25.5 58.5t52.5 9.5h526q53 -2 53 -43q-8 -88 -39 -104q-12 -6 -53 -7h-96l-103 -405q-8 -33 -26 -33 q-27 0 -72 68q-76 -47 -193.5 -71t-351.5 -24q-158 0 -277.5 36t-188 91.5t-112.5 130t-58.5 142t-14.5 139.5zM1065 1917q0 76 17.5 97.5t54.5 21.5h28q61 0 62 -45q0 -8 -2 -24.5t-2 -29.5q0 -72 54 -117.5t136 -45.5q94 0 180 56t123 138q4 8 9.5 22.5t8.5 19.5t10 13.5 t18.5 10.5t27.5 2h27q63 0 63 -41q0 -37 -34 -99.5t-93 -127t-155.5 -110.5t-204.5 -46q-141 0 -234.5 85t-93.5 220z" />
<glyph unicode="&#x11f;" horiz-adv-x="1171" d="M156 -285q0 53 35.5 90t84.5 37q35 0 60.5 -21.5t23.5 -72.5q86 -4 127 -4q96 0 160 14.5t92.5 43t40 52t19.5 58.5q2 8 2 12q29 113 39 150q-131 -74 -250 -74q-139 0 -232.5 84t-93.5 248q0 143 62.5 288.5t194.5 252t300 106.5q129 0 228 -84q41 51 92 51 q31 0 52 -19.5t21 -49.5q0 -20 -6 -39l-229 -924l-4 -20q-4 -18 -7 -26.5t-10.5 -30t-15.5 -36t-21.5 -36t-32 -37t-41 -34t-53 -34.5t-65.5 -29q-115 -41 -256 -41h-47q-270 0 -270 125zM449 328q0 -94 48 -134t119 -40q90 0 172 64.5t127 170.5q10 27 32 113t22 127 q0 82 -45 138t-131 56q-78 0 -140.5 -42t-99.5 -101t-61.5 -131t-33.5 -127t-9 -94zM553 1442q0 61 11 94t24.5 39t38.5 6h30q59 0 60 -43q0 -10 -3 -34.5t-3 -41.5q0 -80 51 -133t133 -53q94 0 182 67.5t129 169.5q4 8 8.5 20.5t6.5 17.5t7 12.5t11 10.5t16.5 5t24.5 2h27 q63 0 63 -43q0 -39 -35 -106.5t-95 -140t-159.5 -125t-208.5 -52.5q-143 0 -231 92.5t-88 235.5z" />
<glyph unicode="&#x120;" horiz-adv-x="1966" d="M344 516q0 166 68.5 330t190.5 298t312.5 218t413.5 84q276 0 430 -180h2q137 162 148 170q12 10 35 10q39 0 38 -31q0 -6 -59 -241.5t-61 -243.5q-8 -27 -17.5 -33t-34.5 -6h-79q-27 0 -35 8t-8 27v43q0 141 -85 231t-237 90q-211 0 -377 -72.5t-260 -188.5t-141 -241.5 t-47 -250.5q0 -406 553 -406q168 0 266 20.5t131 88.5q6 10 14 43.5t20.5 84t18.5 74.5h-221q-59 0 -59 43q0 18 8 43q12 49 25.5 58.5t52.5 9.5h526q53 -2 53 -43q-8 -88 -39 -104q-12 -6 -53 -7h-96l-103 -405q-8 -33 -26 -33q-27 0 -72 68q-94 -57 -220 -76t-327 -19h-14 q-139 0 -250 32t-181.5 83t-117.5 122t-66.5 145.5t-19.5 156.5zM1255 1655q0 55 46 101t108 46q47 0 76.5 -30.5t29.5 -75.5q0 -57 -45 -102.5t-106 -45.5q-45 0 -77 30t-32 77z" />
<glyph unicode="&#x121;" horiz-adv-x="1171" d="M156 -285q0 53 35.5 90t84.5 37q35 0 60.5 -21.5t23.5 -72.5q86 -4 127 -4q96 0 160 14.5t92.5 43t40 52t19.5 58.5q2 8 2 12q29 113 39 150q-131 -74 -250 -74q-139 0 -232.5 84t-93.5 248q0 143 62.5 288.5t194.5 252t300 106.5q129 0 228 -84q41 51 92 51 q31 0 52 -19.5t21 -49.5q0 -20 -6 -39l-229 -924l-4 -20q-4 -18 -7 -26.5t-10.5 -30t-15.5 -36t-21.5 -36t-32 -37t-41 -34t-53 -34.5t-65.5 -29q-115 -41 -256 -41h-47q-270 0 -270 125zM449 328q0 -94 48 -134t119 -40q90 0 172 64.5t127 170.5q10 27 32 113t22 127 q0 82 -45 138t-131 56q-78 0 -140.5 -42t-99.5 -101t-61.5 -131t-33.5 -127t-9 -94zM772 1274q0 55 46.5 101t107.5 46q47 0 76.5 -30.5t29.5 -75.5q0 -57 -46 -102.5t-105 -45.5q-47 0 -78 31t-31 76z" />
<glyph unicode="&#x124;" horiz-adv-x="1945" d="M227 43q8 82 37 102q12 8 51 9h97l278 1114h-86q-59 0 -59 45q8 86 39 102q10 6 37 6h393q57 0 57 -43q-8 -82 -37 -102q-12 -8 -51 -8h-96l-113 -451h803l115 451h-86q-61 0 -62 45q8 86 39 102q10 6 39 6h391q57 0 58 -43q-8 -82 -37 -102q-12 -8 -52 -8h-96 l-276 -1114h86q59 0 59 -43q-8 -86 -39 -103q-16 -8 -39 -8h-391q-59 0 -59 43q8 82 37 102q12 8 53 9h96l127 508h-805l-127 -508h86q61 0 62 -43q-8 -86 -39 -103q-16 -8 -39 -8h-391q-60 0 -60 43zM1018 1638q0 16 35 52q195 176 283 251.5t108.5 90t30.5 14.5t18.5 -4 t16.5 -14.5t13 -18.5t15.5 -25.5t16.5 -25.5q193 -301 192 -320q0 -25 -49 -58.5t-67 -33.5q-8 0 -14.5 3t-13.5 11.5t-13 16.5t-15.5 24.5t-15.5 28.5t-18.5 35t-20.5 39q-12 25 -38.5 73t-39.5 72q-72 -63 -153.5 -146t-122.5 -120t-58 -37q-23 0 -56.5 36t-33.5 56z" />
<glyph unicode="&#x125;" d="M188 63q0 2 13 70l278 1108q-18 2 -44.5 3t-41 2t-30 4t-22.5 12.5t-7 25.5q0 14 9 50t21.5 48.5t108.5 20.5q82 6 150 12q4 0 12 1t10 1q45 0 45 -41q0 -16 -21.5 -104t-57.5 -225.5t-54 -216.5q158 145 336 145q133 0 207 -58.5t74 -175.5q0 -109 -76 -320.5 t-76 -223.5q0 -57 53 -58q45 0 87 45t67 115q10 29 20.5 36t34.5 7h51q63 0 64 -29q0 -72 -104.5 -199.5t-247.5 -127.5q-90 0 -149.5 50t-59.5 132q0 39 76.5 248t76.5 291q0 113 -129 112q-281 0 -432 -501q-14 -45 -28.5 -106.5t-22.5 -94.5t-22.5 -68t-37 -49t-55.5 -14 q-31 0 -53.5 21t-22.5 52zM663 1755q0 8 3 15t7 12.5t14.5 12.5l16.5 11t22.5 13t24.5 16q313 195 318 196q6 2 12 2h2q12 0 31.5 -16t93.5 -84q78 -74 137 -127q33 -29 33 -49.5t-43 -63.5t-64 -43q-16 0 -37.5 19.5t-111.5 111.5q-41 43 -68 70h-4l-266 -180 q-37 -20 -47 -21q-27 0 -50.5 44.5t-23.5 60.5z" />
<glyph unicode="&#x12a;" horiz-adv-x="944" d="M219 43q8 82 37 102q12 8 53 9h103l278 1114h-94q-59 0 -59 43q8 88 38 104q12 6 39 6h408q57 0 57 -43q-8 -82 -37 -102q-12 -8 -53 -8h-102l-279 -1114h94q59 0 60 -43q-8 -88 -39 -105q-12 -6 -37 -6h-407q-60 0 -60 43zM442 1591q0 47 25 92q14 23 55 23h727 q59 0 59 -45q-8 -90 -41 -109q-10 -6 -32 -6h-738q-55 0 -55 45z" />
<glyph unicode="&#x12b;" horiz-adv-x="780" d="M143 651q0 25 25 77t66.5 109.5t112.5 99.5t149 42q88 0 147 -51t59 -133v-13q0 -35 -103 -296t-103 -287q0 -25 16 -40.5t39 -15.5q49 0 91 50.5t65 117.5q14 35 51 35h78q39 0 38 -29q0 -27 -24.5 -78t-67.5 -109t-113.5 -100t-148.5 -42q-88 0 -147.5 51t-59.5 133 q0 33 25 102q182 473 182 494q0 23 -15.5 39t-39.5 16q-41 0 -80 -39t-63 -96q-4 -10 -9.5 -25.5t-7.5 -19.5t-8 -11t-14.5 -8t-22.5 -1h-80q-37 -1 -37 28zM296 1331q0 47 25 92q14 23 55 23h727q59 0 59 -45q-8 -90 -41 -109q-10 -6 -32 -6h-738q-55 0 -55 45z" />
<glyph unicode="&#x130;" horiz-adv-x="944" d="M219 43q8 82 37 102q12 8 53 9h103l278 1114h-94q-59 0 -59 43q8 88 38 104q12 6 39 6h408q57 0 57 -43q-8 -82 -37 -102q-12 -8 -53 -8h-102l-279 -1114h94q59 0 60 -43q-8 -88 -39 -105q-12 -6 -37 -6h-407q-60 0 -60 43zM778 1726q0 55 46 101.5t106 46.5 q49 0 78.5 -31t29.5 -76q0 -55 -46 -101t-105 -46q-45 0 -77 29.5t-32 76.5z" />
<glyph unicode="&#x131;" horiz-adv-x="780" d="M143 651q0 25 25 77t66.5 109.5t112.5 99.5t149 42q88 0 147 -51t59 -133v-13q0 -35 -103 -296t-103 -287q0 -25 16 -40.5t39 -15.5q49 0 91 50.5t65 117.5q14 35 51 35h78q39 0 38 -29q0 -27 -24.5 -78t-67.5 -109t-113.5 -100t-148.5 -42q-88 0 -147.5 51t-59.5 133 q0 33 25 102q182 473 182 494q0 23 -15.5 39t-39.5 16q-41 0 -80 -39t-63 -96q-4 -10 -9.5 -25.5t-7.5 -19.5t-8 -11t-14.5 -8t-22.5 -1h-80q-37 -1 -37 28z" />
<glyph unicode="&#x134;" horiz-adv-x="1318" d="M258 193q0 76 41 113.5t90 37.5q41 0 67.5 -23.5t26.5 -62.5q0 -41 -34 -88q63 -39 157 -39q51 0 92 11.5t69 33t47.5 42t31.5 50t18 47t12.5 43t6.5 27.5l198 791q4 16 11.5 46.5t11.5 45.5h-135q-59 0 -60 43q0 41 21 82q12 29 57 28h393q59 0 60 -43q-8 -86 -39 -102 q-12 -8 -43 -8h-64l-24 -101l-203 -807q-16 -66 -24.5 -94t-42 -84.5t-87.5 -99.5q-127 -104 -321 -105q-152 0 -243 60t-91 156zM925 1638q0 16 35 52q195 176 283 251.5t108.5 90t30.5 14.5t18.5 -4t16.5 -14.5t13 -18.5t15.5 -25.5t16.5 -25.5q193 -301 192 -320 q0 -25 -49 -58.5t-67 -33.5q-8 0 -14.5 3t-13.5 11.5t-13 16.5t-15.5 24.5t-15.5 28.5t-18.5 35t-20.5 39q-12 25 -38.5 73t-39.5 72q-72 -63 -153.5 -146t-122.5 -120t-58 -37q-23 0 -56.5 36t-33.5 56z" />
<glyph unicode="&#x135;" horiz-adv-x="843" d="M-70 -283q0 53 37 89t84 36q84 0 84 -86v-10q6 0 19.5 -1t19.5 -1q61 0 108.5 20.5t72 49t39 56.5t18.5 48l4 21l190 759q8 33 8 54q0 33 -23.5 52t-58.5 19q-49 0 -110.5 -36.5t-104.5 -124.5q-12 -27 -22 -33t-33 -6h-72q-45 0 -45 24q0 23 31 75t81 110.5t134 102.5 t172 44q98 0 166 -56.5t68 -146.5q0 -35 -19 -102l-188 -750q0 -2 -3 -15t-6 -22.5t-9.5 -28t-12.5 -32.5t-18.5 -33.5t-25.5 -37t-33.5 -37t-43.5 -35.5q-123 -92 -282 -93q-90 0 -158 29.5t-68 97.5zM491 1313q0 8 3 15t7 12.5t14.5 12.5l16.5 11t22.5 13t24.5 16 q313 195 318 196q6 2 12 2h2q12 0 31.5 -16t93.5 -84q78 -74 137 -127q33 -29 33 -49.5t-43 -63.5t-64 -43q-16 0 -37.5 19.5t-111.5 111.5q-41 43 -68 70h-4l-266 -180q-37 -20 -47 -21q-27 0 -50.5 44.5t-23.5 60.5z" />
<glyph unicode="&#x139;" horiz-adv-x="1497" d="M225 43q10 84 39 102q12 8 51 9h95l278 1114h-86q-59 0 -59 43q8 88 39 104q10 6 36 6h433q59 0 59 -43q-10 -84 -39 -102q-14 -8 -33 -8h-153l-279 -1114h246h131t87 6t56.5 8t31 21.5t21.5 27.5t19 45q23 51 42.5 101.5t27.5 74t16 45t16.5 28.5t19.5 11t32 4h45 q55 0 55 -43q0 -12 -154 -434q-10 -29 -23 -39t-44 -10h-948q-58 0 -58 43zM645 1681q0 8 1 14.5t4 11.5t5 8t7.5 7t8.5 6.5t10 4.5t10 3t11.5 4t10.5 3q344 117 362 117q35 0 55.5 -22.5t20.5 -53.5q0 -72 -94 -103q-350 -109 -363 -108q-49 -1 -49 108z" />
<glyph unicode="&#x13a;" horiz-adv-x="649" d="M223 190q0 35 19 109l235 942q-31 4 -60.5 4h-40.5t-20.5 5t-17.5 16q-4 6 -4 22q0 25 9 55.5t19.5 41t29 13.5t114.5 11q70 6 117 10q4 0 10 1t10 1q47 0 47 -41l-12 -61l-268 -1067q-6 -25 -4 -45q2 -27 24.5 -45.5t46.5 -18.5q35 0 55.5 40t45.5 130q10 33 55 33h67 q43 0 43 -29q0 -14 -17 -62t-49 -109.5t-92.5 -108.5t-133.5 -47q-90 0 -159 53t-69 147zM596 1681q0 8 1 14.5t4 11.5t5 8t7 7t8.5 6.5t10.5 4.5t10 3t11.5 4t10.5 3q344 117 360 117q35 0 55.5 -22.5t20.5 -53.5q0 -72 -92 -103q-350 -109 -363 -108q-49 -1 -49 108z" />
<glyph unicode="&#x13d;" horiz-adv-x="1497" d="M225 43q10 84 39 102q12 8 51 9h95l278 1114h-86q-59 0 -59 43q8 88 39 104q10 6 36 6h433q59 0 59 -43q-10 -84 -39 -102q-14 -8 -33 -8h-153l-279 -1114h246h131t87 6t56.5 8t31 21.5t21.5 27.5t19 45q23 51 42.5 101.5t27.5 74t16 45t16.5 28.5t19.5 11t32 4h45 q55 0 55 -43q0 -12 -154 -434q-10 -29 -23 -39t-44 -10h-948q-58 0 -58 43zM1176 1219q0 12 14 23t35.5 22.5t54.5 43t59 78.5q-98 12 -98 101q0 61 46 107t110 46q55 0 90 -39.5t35 -105.5q0 -127 -105.5 -249t-161.5 -122q-18 0 -48.5 40.5t-30.5 54.5z" />
<glyph unicode="&#x13e;" horiz-adv-x="649" d="M223 190q0 35 19 109l235 942q-31 4 -60.5 4h-40.5t-20.5 5t-17.5 16q-4 6 -4 22q0 25 9 55.5t19.5 41t29 13.5t114.5 11q70 6 117 10q4 0 10 1t10 1q47 0 47 -41l-12 -61l-268 -1067q-6 -25 -4 -45q2 -27 24.5 -45.5t46.5 -18.5q35 0 55.5 40t45.5 130q10 33 55 33h67 q43 0 43 -29q0 -14 -17 -62t-49 -109.5t-92.5 -108.5t-133.5 -47q-90 0 -159 53t-69 147zM719 1089.5q0 14.5 21.5 26.5t63.5 47t77 94q-98 12 -99 101q0 61 47.5 108t110.5 47q55 0 89 -39.5t34 -105.5q0 -127 -105.5 -250t-160.5 -123q-18 0 -48 40t-30 54.5z" />
<glyph unicode="&#x141;" horiz-adv-x="1497" d="M225 43q10 84 39 102q12 8 51 9h95l102 405q-43 -27 -61 -27q-23 0 -44.5 39t-21.5 60q0 23 66 65q12 6 41 25q18 12 28 18q18 12 20.5 13.5t13.5 12.5t10 15t8.5 24.5t11.5 40t13 61.5t20.5 87t29 119t41.5 156h-86q-59 0 -59 43q8 88 39 104q10 6 36 6h433q59 0 59 -43 q-10 -84 -39 -102q-14 -8 -33 -8h-153l-88 -350q80 51 186 120q145 94 160 95h2h2q25 0 46 -38t21 -59q0 -6 -1 -10t-4 -8t-5 -7t-7 -7.5t-8 -6.5l-10.5 -7t-11.5 -7q-408 -262 -417 -276q-6 -8 -42 -146.5t-69 -273.5l-33 -133h246h131t87 6t56.5 8t31 21.5t21.5 27.5 t19 45q23 51 42.5 101.5t27.5 74t16 45t16.5 28.5t19.5 11t32 4h45q55 0 55 -43q0 -12 -154 -434q-10 -29 -23 -39t-44 -10h-948q-58 0 -58 43z" />
<glyph unicode="&#x142;" horiz-adv-x="780" d="M197 623q0 31 93 85t103 72q2 4 117 461q-31 4 -60.5 4h-41t-20.5 5t-17 16q-4 6 -4 22q0 25 9 55.5t19.5 41t28.5 13.5t115 11q70 6 116 10q4 0 10.5 1t10.5 1q47 0 47 -41q0 -14 -18.5 -85.5t-48 -188.5t-48.5 -193q104 68 121 68q27 0 48.5 -39t21.5 -57.5t-20.5 -36 t-96.5 -64.5q-55 -35 -92 -57q-25 -16 -31 -26.5t-12 -36.5q-111 -442 -111 -449q0 -33 23.5 -52.5t50.5 -19.5q29 0 49.5 28t28.5 61.5t18 66.5t21 39q10 8 39 8h63q47 0 47 -29q0 -20 -18.5 -70t-52 -110.5t-93 -104.5t-127.5 -44q-92 0 -160.5 56t-68.5 149q0 33 86 374 q-61 -39 -76 -39q-25 0 -47 38.5t-22 56.5z" />
<glyph unicode="&#x143;" horiz-adv-x="1945" d="M231 43q8 82 37 102q12 8 54 9q35 0 96 4l276 1110h-86q-59 0 -59 45q8 82 37 100q14 8 37 8h247q33 0 44.5 -10t29.5 -47l535 -1051l237 953q-29 2 -84 2q-61 0 -61 43q0 10 10 53q10 37 23.5 47t40.5 10h364q57 0 57 -43q-6 -82 -34 -102q-12 -8 -56 -8q-63 0 -94 -2 l-31 -123l-272 -1088q-8 -37 -23.5 -46t-46.5 -9h-39q-29 0 -41 7t-26 34l-569 1120l-252 -1005q29 -2 84 -2q61 0 61 -43q0 -8 -10 -54q-12 -57 -64 -57h-364q-58 0 -58 43zM1145 1681q0 10 2 17.5t7 13.5t7 9t12.5 7.5t12.5 5.5t14 5l14 4q344 117 361 117 q35 0 55.5 -22.5t20.5 -53.5q0 -74 -95 -103q-350 -109 -360 -108q-51 -1 -51 108z" />
<glyph unicode="&#x144;" horiz-adv-x="1433" d="M141 651q0 14 17.5 62.5t49.5 110t92 108.5t134 47q76 0 142.5 -41t85.5 -129q160 170 360 170q119 0 200 -53.5t81 -180.5q0 -111 -76 -321.5t-76 -224.5q0 -25 15.5 -40.5t39.5 -15.5q45 0 88 46.5t68 119.5q8 27 20.5 32t59.5 5h26q59 0 60 -29q0 -25 -23.5 -76 t-65.5 -108t-113 -100t-150 -43q-88 0 -148.5 50t-60.5 132q0 37 77.5 248t77.5 291q0 113 -131 112q-106 0 -193 -70.5t-139.5 -180t-86 -213t-56 -197.5t-29.5 -109q-29 -63 -96 -63q-31 0 -52.5 19.5t-21.5 49.5q0 23 7 43l151 609q6 23 6 41q0 33 -22.5 52t-48.5 19 q-37 0 -58.5 -43t-35 -93t-23.5 -58q-8 -6 -39 -6h-61q-52 -1 -52 28zM832 1231q0 29 53 55q84 41 194 98q154 78 176 78q33 0 54.5 -23.5t21.5 -54.5q0 -63 -80 -100q-123 -57 -252 -119q-92 -45 -104 -45q-23 0 -38 28t-19 56z" />
<glyph unicode="&#x147;" horiz-adv-x="1945" d="M231 43q8 82 37 102q12 8 54 9q35 0 96 4l276 1110h-86q-59 0 -59 45q8 82 37 100q14 8 37 8h247q33 0 44.5 -10t29.5 -47l535 -1051l237 953q-29 2 -84 2q-61 0 -61 43q0 10 10 53q10 37 23.5 47t40.5 10h364q57 0 57 -43q-6 -82 -34 -102q-12 -8 -56 -8q-63 0 -94 -2 l-31 -123l-272 -1088q-8 -37 -23.5 -46t-46.5 -9h-39q-29 0 -41 7t-26 34l-569 1120l-252 -1005q29 -2 84 -2q61 0 61 -43q0 -8 -10 -54q-12 -57 -64 -57h-364q-58 0 -58 43zM1114 1913q0 20 16.5 36.5t34.5 16.5q16 0 130 -57.5t126 -57.5q20 0 162.5 57.5t159.5 57.5 q18 0 30.5 -14.5t12.5 -34.5q0 -29 -60 -64q-311 -182 -325 -182h-2q-18 0 -74 45q-31 25 -63.5 51.5t-51 42t-37 30.5t-27.5 24.5t-17.5 18.5t-11.5 16.5t-3 13.5z" />
<glyph unicode="&#x148;" horiz-adv-x="1433" d="M141 651q0 14 17.5 62.5t49.5 110t92 108.5t134 47q76 0 142.5 -41t85.5 -129q160 170 360 170q119 0 200 -53.5t81 -180.5q0 -111 -76 -321.5t-76 -224.5q0 -25 15.5 -40.5t39.5 -15.5q45 0 88 46.5t68 119.5q8 27 20.5 32t59.5 5h26q59 0 60 -29q0 -25 -23.5 -76 t-65.5 -108t-113 -100t-150 -43q-88 0 -148.5 50t-60.5 132q0 37 77.5 248t77.5 291q0 113 -131 112q-106 0 -193 -70.5t-139.5 -180t-86 -213t-56 -197.5t-29.5 -109q-29 -63 -96 -63q-31 0 -52.5 19.5t-21.5 49.5q0 23 7 43l151 609q6 23 6 41q0 33 -22.5 52t-48.5 19 q-37 0 -58.5 -43t-35 -93t-23.5 -58q-8 -6 -39 -6h-61q-52 -1 -52 28zM662 1534q0 16 17.5 33.5t37.5 17.5q4 0 8 -1t9.5 -4t9.5 -6t10 -10.5t11 -13.5t15.5 -17t18.5 -21.5t21.5 -28t25.5 -31.5q80 -94 96 -117l224 168q106 82 124.5 82t33 -16.5t14.5 -34.5q0 -16 -37 -53 q-104 -94 -232 -213q-104 -94 -123.5 -110.5t-33.5 -16.5q-8 0 -15.5 3t-15.5 13t-13 17.5t-15.5 27t-16.5 27.5q-45 78 -105 176q-69 115 -69 129z" />
<glyph unicode="&#x150;" horiz-adv-x="1871" d="M340 492q0 158 62.5 322.5t178 307t303 233.5t412.5 91q80 0 156 -14.5t156 -51.5t138 -94t96 -151.5t38 -214.5q0 -164 -62.5 -327t-178 -302t-302 -226.5t-409.5 -87.5q-270 0 -429 133.5t-159 381.5zM545 539q0 -111 39 -192t104.5 -122t135 -59.5t147.5 -18.5 q150 0 274.5 53.5t204.5 136.5t136 186.5t80 200.5t24 183q0 106 -39 183t-105.5 116t-138.5 56.5t-152 17.5q-145 0 -267 -47t-201.5 -122t-136 -173t-81 -198.5t-24.5 -200.5zM1010 1681q0 27 14 38.5t41 19.5q356 121 375 121q35 0 55.5 -22.5t20.5 -59.5q0 -12 -3 -21 q47 16 95.5 32.5t75 26t52 18.5t39 13t25.5 7.5t19.5 4.5t13.5 1q35 0 55.5 -21.5t20.5 -54.5q0 -72 -97 -103q-346 -109 -362 -108q-14 0 -22.5 5t-13.5 19.5t-6 22.5t-3 29.5t-2 25.5q-334 -102 -344 -102q-49 -1 -49 108z" />
<glyph unicode="&#x151;" d="M266 342q0 104 40 213t115 205t197.5 157.5t272.5 61.5q176 0 280.5 -93t104.5 -261q0 -150 -69.5 -292.5t-216 -243.5t-337.5 -101q-178 0 -282.5 94t-104.5 260zM455 344q0 -201 227 -201q115 0 200 53.5t127 135.5t61.5 155.5t19.5 135.5q0 111 -66 156.5t-162 45.5 t-172 -38.5t-119 -94t-70.5 -125t-36.5 -124t-9 -99.5zM639 1231q0 29 53 55q84 41 194 98q154 78 176 78q33 0 54.5 -23.5t21.5 -54.5q0 -63 -80 -100q-123 -57 -252 -119q-92 -45 -104 -45q-23 0 -38 28t-19 56zM1031 1231q0 29 53 55q84 41 194 98q154 78 176 78 q33 0 54.5 -23.5t21.5 -54.5q0 -63 -80 -100q-123 -57 -252 -119q-92 -45 -104 -45q-23 0 -38 28t-19 56z" />
<glyph unicode="&#x152;" horiz-adv-x="2496" d="M358 504q0 160 68 323.5t188.5 303t314 227.5t423.5 88q59 0 177 -12.5t228 -12.5h778q59 0 60 -47l-43 -368q-4 -33 -17.5 -45.5t-48.5 -12.5h-37q-23 0 -34 2t-21 14.5t-10 34.5q0 2 9 82t9 131q0 29 -2 43q-82 12 -284 13h-355l-112 -453h231q184 0 209 8q23 8 42 84 t34 88q14 10 39 11h45q61 0 61 -43q0 -2 -108 -441q-8 -35 -22.5 -44t-43.5 -9h-49q-51 2 -51 43q0 16 10 64.5t14 78.5q-68 6 -200 7h-250v-3l-125 -505h274q166 0 244 1t121 10t48 14t19 30q45 76 76 148.5t40 102t27.5 48t51.5 18.5h37q63 0 63 -41q0 -10 -12 -41 q-49 -117 -111 -264q-53 -123 -63 -145.5t-21 -28.5h-2q-12 -6 -55 -6h-876q-59 0 -179 -11.5t-184 -11.5q-276 0 -450.5 133.5t-174.5 393.5zM559 557q0 -205 126 -315.5t351 -110.5q164 0 223.5 64.5t112.5 277.5l131 520q25 98 25 166q0 74 -43 102.5t-158 28.5 q-184 0 -334.5 -65.5t-243 -172t-141.5 -234.5t-49 -261z" />
<glyph unicode="&#x153;" horiz-adv-x="1826" d="M256 289q0 164 66.5 330.5t204 289.5t309.5 123q94 0 176 -48t116 -161q184 156 410 156q129 0 211 -61.5t82 -159.5q0 -123 -102 -209q-137 -113 -531 -113h-18q-12 0 -35 -1t-33 -1q-6 -41 -6 -78q0 -213 233 -213q82 0 144.5 17.5t90.5 37t51.5 37t35.5 17.5 q16 0 54 -40t38 -52q0 -23 -48 -62t-155.5 -74.5t-238.5 -35.5q-240 0 -336 170h-2q-74 -100 -177.5 -162t-217.5 -62q-156 0 -239 98.5t-83 256.5zM440 281q0 -59 16.5 -101.5t44 -60t51 -24.5t50.5 -7q102 0 181 76t117 184.5t55.5 195.5t17.5 138q0 109 -50.5 153 t-113.5 44q-102 0 -180 -78t-116 -187.5t-55.5 -196.5t-17.5 -136zM1155 590h12q66 0 107 1t107.5 5t108.5 13t85 23.5t63.5 40t20.5 58.5q0 37 -37 64.5t-111 27.5q-262 0 -356 -233z" />
<glyph unicode="&#x154;" horiz-adv-x="1843" d="M229 43q8 82 37 102q12 8 51 9h97l278 1114h-82q-63 0 -63 45q0 43 20 84q12 25 58 24h567q176 0 272 -24q76 -20 133.5 -53t85 -65t45 -71t20.5 -61.5t3 -44.5q0 -123 -90 -229.5t-252 -174.5q106 -80 107 -196q0 -43 -29 -150.5t-29 -134.5q0 -45 33 -65.5t72 -20.5 q33 0 54 18.5t35.5 47t18.5 32.5q16 12 78 13q72 0 72 -39q0 -57 -78 -141.5t-199 -84.5q-66 0 -125 16.5t-109 69t-50 134.5q0 41 29.5 153.5t29.5 136.5q0 147 -330 148h-264l-119 -481h86q59 0 60 -43q-8 -86 -39 -103q-14 -8 -45 -8h-377q-62 0 -62 43zM764 788h270 q301 0 418 99q100 82 100 188q0 66 -37.5 108t-109.5 59.5t-125 21.5t-129 4h-268zM1102 1681q0 10 2 17.5t7 13.5t7 9t12.5 7.5t12.5 5.5t16 5l12 4q344 117 361 117q35 0 55.5 -22.5t20.5 -53.5q0 -68 -95 -103q-350 -109 -360 -108q-51 -1 -51 108z" />
<glyph unicode="&#x155;" horiz-adv-x="1073" d="M141 651q0 14 17.5 61.5t49.5 110t93 109.5t135 47q57 0 122 -29.5t93 -105.5q143 135 299 135q106 0 172 -63.5t66 -159.5q0 -84 -40 -122t-87 -38q-35 0 -59.5 21.5t-24.5 56.5q0 27 15.5 55.5t15.5 38.5q0 18 -23.5 36.5t-62.5 18.5q-178 0 -306 -317 q-39 -98 -67.5 -211t-39.5 -170t-39 -96t-79 -39q-31 0 -52.5 19.5t-21.5 49.5q0 18 9 52l139 559q16 61 16 84q0 31 -22.5 50t-46.5 19q-35 0 -57.5 -39t-36 -90t-17.5 -57q-10 -14 -61 -14h-50q-49 -1 -49 28zM654 1231q0 29 53 55q84 41 194 98q154 78 176 78 q33 0 54.5 -23.5t21.5 -54.5q0 -63 -80 -100q-123 -57 -252 -119q-92 -45 -104 -45q-23 0 -38 28t-19 56z" />
<glyph unicode="&#x158;" horiz-adv-x="1843" d="M229 43q8 82 37 102q12 8 51 9h97l278 1114h-82q-63 0 -63 45q0 43 20 84q12 25 58 24h567q176 0 272 -24q76 -20 133.5 -53t85 -65t45 -71t20.5 -61.5t3 -44.5q0 -123 -90 -229.5t-252 -174.5q106 -80 107 -196q0 -43 -29 -150.5t-29 -134.5q0 -45 33 -65.5t72 -20.5 q33 0 54 18.5t35.5 47t18.5 32.5q16 12 78 13q72 0 72 -39q0 -57 -78 -141.5t-199 -84.5q-66 0 -125 16.5t-109 69t-50 134.5q0 41 29.5 153.5t29.5 136.5q0 147 -330 148h-264l-119 -481h86q59 0 60 -43q-8 -86 -39 -103q-14 -8 -45 -8h-377q-62 0 -62 43zM764 788h270 q301 0 418 99q100 82 100 188q0 66 -37.5 108t-109.5 59.5t-125 21.5t-129 4h-268zM944 1913q0 20 16.5 36.5t34.5 16.5q16 0 131 -57.5t127 -57.5q20 0 161.5 57.5t158.5 57.5q18 0 30.5 -14.5t12.5 -34.5q0 -29 -60 -64q-311 -182 -325 -182q-18 0 -76 45 q-31 25 -63.5 51.5t-51 42t-37 30.5t-27.5 24.5t-17.5 18.5t-11.5 16.5t-3 13.5z" />
<glyph unicode="&#x159;" horiz-adv-x="1073" d="M141 651q0 14 17.5 61.5t49.5 110t93 109.5t135 47q57 0 122 -29.5t93 -105.5q143 135 299 135q106 0 172 -63.5t66 -159.5q0 -84 -40 -122t-87 -38q-35 0 -59.5 21.5t-24.5 56.5q0 27 15.5 55.5t15.5 38.5q0 18 -23.5 36.5t-62.5 18.5q-178 0 -306 -317 q-39 -98 -67.5 -211t-39.5 -170t-39 -96t-79 -39q-31 0 -52.5 19.5t-21.5 49.5q0 18 9 52l139 559q16 61 16 84q0 31 -22.5 50t-46.5 19q-35 0 -57.5 -39t-36 -90t-17.5 -57q-10 -14 -61 -14h-50q-49 -1 -49 28zM498 1534q0 16 17.5 33.5t37.5 17.5q4 0 8 -1t9.5 -4t9.5 -6 t10 -10.5t11 -13.5t15.5 -17t18.5 -21.5t21.5 -28t25.5 -31.5q80 -94 96 -117l224 168q106 82 124.5 82t33 -16.5t14.5 -34.5q0 -16 -37 -53q-104 -94 -232 -213q-104 -94 -123.5 -110.5t-33.5 -16.5q-8 0 -15.5 3t-15.5 13t-13 17.5t-15.5 27t-16.5 27.5q-45 78 -105 176 q-69 115 -69 129z" />
<glyph unicode="&#x15a;" horiz-adv-x="1433" d="M195 6q0 6 17 77t46 183.5t41 161.5q8 31 18.5 38t32.5 7h60q23 0 32 -1t17 -8t8 -22q0 -6 -4 -32.5t-4 -47.5q0 -66 31.5 -113.5t84 -71t107.5 -35t117 -11.5q100 0 178 34t115.5 85t56 98t18.5 84q0 117 -120 168q-29 12 -190 49t-198 49q-86 33 -148 104.5t-62 178.5 q0 74 34.5 151.5t99 149.5t175 118t248.5 46q225 0 346 -141q47 66 72.5 96.5t34.5 36.5t20 6h4q43 0 43 -29q0 -6 -52.5 -215t-54.5 -213q-12 -39 -49 -39h-57q-37 0 -49.5 7.5t-12.5 25.5q0 6 2 26.5t2 36.5q0 111 -62.5 185t-213.5 74q-164 0 -257 -87.5t-93 -183.5 q0 -70 55 -114t122.5 -59t170 -36.5t156.5 -40.5q90 -35 152.5 -111.5t62.5 -189.5q0 -63 -21.5 -130.5t-68 -134t-111 -120t-161.5 -86.5t-210 -33q-119 0 -212 28t-125.5 50.5t-71.5 59.5q-68 -96 -88.5 -117t-45.5 -21q-38 0 -38 29zM856 1681q0 8 1 14.5t4 11.5t5 8 t7.5 7t8.5 6.5t10 4.5t10 3t11.5 4t10.5 3q344 117 362 117q35 0 55.5 -22.5t20.5 -53.5q0 -72 -94 -103q-350 -109 -361 -108q-51 -1 -51 108z" />
<glyph unicode="&#x15b;" horiz-adv-x="1040" d="M180 197q0 70 39 107.5t86 37.5q35 0 59.5 -22.5t24.5 -57.5q0 -37 -29 -76v-2q57 -41 195 -41q213 0 256 131q6 16 6 31q0 51 -50 77t-139 41t-114 23q-61 23 -107.5 76t-46.5 129q0 25 6.5 56.5t30 83t62.5 90.5t113.5 68.5t175.5 29.5q143 0 216.5 -52.5t73.5 -131.5 q0 -68 -37.5 -102t-80.5 -34q-33 0 -56.5 21.5t-23.5 54.5q0 27 18 64q-49 27 -131 26q-63 0 -105 -16t-59.5 -42t-22.5 -43t-5 -32q0 -45 39.5 -64.5t120.5 -33.5t116 -27q72 -27 125 -82t53 -139q0 -76 -44 -159t-111 -126q-113 -74 -306 -73q-190 0 -269 63.5t-79 145.5z M637 1231q0 31 53 55q334 170 359 174q6 2 14 2q35 0 55.5 -22.5t20.5 -55.5q0 -61 -82 -100q-123 -57 -252 -119q-92 -45 -105 -45q-23 0 -38 29t-20 52.5t-5 29.5z" />
<glyph unicode="&#x15c;" horiz-adv-x="1433" d="M195 6q0 6 17 77t46 183.5t41 161.5q8 31 18.5 38t32.5 7h60q23 0 32 -1t17 -8t8 -22q0 -6 -4 -32.5t-4 -47.5q0 -66 31.5 -113.5t84 -71t107.5 -35t117 -11.5q100 0 178 34t115.5 85t56 98t18.5 84q0 117 -120 168q-29 12 -190 49t-198 49q-86 33 -148 104.5t-62 178.5 q0 74 34.5 151.5t99 149.5t175 118t248.5 46q225 0 346 -141q47 66 72.5 96.5t34.5 36.5t20 6h4q43 0 43 -29q0 -6 -52.5 -215t-54.5 -213q-12 -39 -49 -39h-57q-37 0 -49.5 7.5t-12.5 25.5q0 6 2 26.5t2 36.5q0 111 -62.5 185t-213.5 74q-164 0 -257 -87.5t-93 -183.5 q0 -70 55 -114t122.5 -59t170 -36.5t156.5 -40.5q90 -35 152.5 -111.5t62.5 -189.5q0 -63 -21.5 -130.5t-68 -134t-111 -120t-161.5 -86.5t-210 -33q-119 0 -212 28t-125.5 50.5t-71.5 59.5q-68 -96 -88.5 -117t-45.5 -21q-38 0 -38 29zM690 1638q0 16 35 52 q195 176 283 251.5t108.5 90t30.5 14.5t18.5 -4t16.5 -14.5t13 -18.5t15.5 -25.5t16.5 -25.5q193 -301 192 -320q0 -25 -49 -58.5t-67 -33.5q-8 0 -14.5 3t-13.5 11.5t-13 16.5t-15.5 24.5t-15.5 28.5t-18.5 35t-20.5 39q-12 25 -38.5 73t-39.5 72q-72 -63 -153.5 -146 t-122.5 -120t-58 -37q-23 0 -56.5 36t-33.5 56z" />
<glyph unicode="&#x15d;" horiz-adv-x="1040" d="M180 197q0 70 39 107.5t86 37.5q35 0 59.5 -22.5t24.5 -57.5q0 -37 -29 -76v-2q57 -41 185 -41q145 0 208.5 50.5t63.5 111.5q0 51 -50 77t-139 41t-114 23q-61 23 -107.5 76t-46.5 129q0 29 8.5 66t35 85t67.5 86t113.5 64.5t165.5 26.5q131 0 209.5 -50t78.5 -134 q0 -68 -38.5 -102t-79.5 -34q-33 0 -56.5 21.5t-23.5 54.5q0 27 18 64q-49 27 -135 26q-88 0 -138 -42t-50 -91q0 -45 40.5 -65.5t121.5 -33.5t114 -26q74 -25 126 -81t52 -140q0 -35 -10 -76t-41 -93t-79 -92t-135 -68.5t-200 -28.5q-176 0 -260 62.5t-84 146.5zM477 1313 q0 8 3 15t7 12.5t14.5 12.5l16.5 11t22.5 13t24.5 16q313 195 318 196q6 2 12 2h2q12 0 31.5 -16t93.5 -84q78 -74 137 -127q33 -29 33 -49.5t-43 -63.5t-64 -43q-16 0 -37.5 19.5t-111.5 111.5q-41 43 -68 70h-4l-266 -180q-37 -20 -47 -21q-27 0 -50.5 44.5t-23.5 60.5z " />
<glyph unicode="&#x15e;" horiz-adv-x="1433" d="M195 6q0 6 17 77t46 183.5t41 161.5q8 31 18.5 38t32.5 7h60q23 0 32 -1t17 -8t8 -22q0 -6 -4 -32.5t-4 -47.5q0 -66 31.5 -113.5t84 -71t107.5 -35t117 -11.5q180 0 274 99.5t94 201.5q0 117 -120 168q-29 12 -189 48t-196 48q-88 33 -152 105.5t-64 179.5 q0 74 35 151.5t100.5 149.5t176 118t248.5 46q225 0 346 -141q47 66 72.5 96.5t34.5 36.5t20 6h4q43 0 43 -29q0 -6 -52.5 -215t-54.5 -213q-12 -39 -49 -39h-57q-37 0 -49.5 7.5t-12.5 25.5q0 6 2 26.5t2 36.5q0 111 -62.5 185t-213.5 74q-164 0 -257 -87.5t-93 -183.5 q0 -68 53 -110.5t117.5 -58t168 -37t156.5 -40.5q96 -33 160 -111.5t64 -193.5q0 -94 -46.5 -192.5t-145.5 -182t-232 -112.5v-2q98 -51 98 -146q0 -74 -52 -135t-159 -90q-119 -31 -322 -31h-20q-63 0 -63 45q0 6 4 27q14 57 26.5 70.5t50.5 13.5h7q346 0 346 84 q0 39 -101 45q-2 0 -10 1t-11 1t-11.5 1t-10.5 3t-8 5t-8 8.5t-4 11.5t-2 14q0 12 12 62q-203 20 -319 133q-47 -68 -74 -99.5t-33 -35t-18 -3.5q-47 -4 -47 29z" />
<glyph unicode="&#x15f;" horiz-adv-x="1040" d="M143 -365q8 88 43 105q12 6 45 6q332 0 347 80q2 18 -18.5 29.5t-39 14.5t-43.5 5q-55 4 -63 29q-2 6 -2 16q0 4 16 74q-248 41 -248 205q0 70 39 106.5t86 36.5q35 0 59.5 -22.5t24.5 -57.5q0 -37 -29 -76v-2q61 -41 195 -41q213 0 256 131q6 16 6 31q0 51 -50 77 t-139 41t-114 23q-61 23 -106.5 76t-45.5 129q0 23 4.5 52.5t28 82t61.5 92.5t115.5 70.5t180.5 30.5q131 0 208.5 -51t77.5 -135q0 -59 -33.5 -96.5t-84.5 -37.5q-33 0 -56.5 21.5t-23.5 54.5q0 27 18 64q-49 27 -129 26q-61 0 -104 -15t-60.5 -40t-23.5 -43t-6 -35 q0 -33 26.5 -53.5t57 -28.5t85 -17t82.5 -18q102 -29 152.5 -92t50.5 -139q0 -29 -11 -70t-41 -101t-103.5 -109.5t-180.5 -67.5q106 -49 107 -150q0 -74 -52.5 -135t-158.5 -90q-111 -31 -322 -31h-12q-72 0 -72 45z" />
<glyph unicode="&#x160;" horiz-adv-x="1433" d="M195 6q0 6 17 77t46 183.5t41 161.5q8 31 18.5 38t32.5 7h60q23 0 32 -1t17 -8t8 -22q0 -6 -4 -32.5t-4 -47.5q0 -66 31.5 -113.5t84 -71t107.5 -35t117 -11.5q100 0 178 34t115.5 85t56 98t18.5 84q0 117 -120 168q-29 12 -190 49t-198 49q-86 33 -148 104.5t-62 178.5 q0 74 34.5 151.5t99 149.5t175 118t248.5 46q225 0 346 -141q47 66 72.5 96.5t34.5 36.5t20 6h4q43 0 43 -29q0 -6 -52.5 -215t-54.5 -213q-12 -39 -49 -39h-57q-37 0 -49.5 7.5t-12.5 25.5q0 6 2 26.5t2 36.5q0 111 -62.5 185t-213.5 74q-164 0 -257 -87.5t-93 -183.5 q0 -70 55 -114t122.5 -59t170 -36.5t156.5 -40.5q90 -35 152.5 -111.5t62.5 -189.5q0 -63 -21.5 -130.5t-68 -134t-111 -120t-161.5 -86.5t-210 -33q-119 0 -212 28t-125.5 50.5t-71.5 59.5q-68 -96 -88.5 -117t-45.5 -21q-38 0 -38 29zM858 1913q0 20 16.5 36.5t34.5 16.5 q16 0 130 -57.5t126 -57.5q20 0 162.5 57.5t159.5 57.5q18 0 30.5 -14.5t12.5 -34.5q0 -29 -62 -64q-313 -180 -323 -182h-2q-16 0 -74 45q-31 25 -63.5 51.5t-51 42t-37 30.5t-27.5 24.5t-17.5 18.5t-11.5 16.5t-3 13.5z" />
<glyph unicode="&#x161;" horiz-adv-x="1040" d="M180 197q0 70 39 107.5t86 37.5q35 0 59.5 -22.5t24.5 -57.5q0 -37 -29 -76v-2q57 -41 193 -41q215 0 256 123q6 20 6 31q0 43 -47 69.5t-112.5 45t-132 42t-114 75t-47.5 128.5q0 23 5.5 52.5t29 81t61.5 90.5t114.5 68.5t179.5 29.5q137 0 211.5 -52.5t74.5 -131.5 q0 -70 -38.5 -103t-79.5 -33q-33 0 -56.5 21.5t-23.5 54.5q0 27 18 64q-47 27 -133 26q-59 0 -101 -15t-58.5 -38.5t-22.5 -41t-6 -32.5q0 -37 46 -62.5t112.5 -44t133 -44t112.5 -79.5t46 -132t-48 -162t-126 -127q-106 -59 -285 -59q-188 0 -268 64.5t-80 144.5zM563 1534 q0 16 17.5 33.5t37.5 17.5q4 0 8.5 -1t9.5 -4t9 -6t10.5 -10.5t11.5 -13.5t15 -17t18.5 -21.5t21.5 -28t26 -31.5q80 -94 96 -117q104 78 223 168q106 82 124.5 82t33 -16.5t14.5 -34.5q0 -16 -37 -53q-104 -94 -231 -213q-104 -94 -124 -110.5t-34 -16.5q-8 0 -15 3 t-15.5 13t-13.5 17.5t-15.5 27t-16.5 27.5q-45 78 -104 176q-70 115 -70 129z" />
<glyph unicode="&#x162;" horiz-adv-x="1740" d="M391 979q0 8 127 385q8 27 22.5 37t43.5 10h1253q59 0 59 -47q0 -10 -59 -373q-6 -35 -21.5 -44t-46.5 -9h-38q-59 0 -60 49q0 18 13.5 102.5t17.5 157.5q-51 8 -195 8h-227l-274 -1101h157q53 -2 54 -43q-8 -86 -39 -103q-14 -8 -31 -8h-152q115 -49 115 -154 q0 -74 -50 -134t-153 -89q-111 -33 -329 -33h-13q-72 0 -71 41q0 8 12 60q8 35 21.5 45t47.5 10h7q346 0 346 82q0 41 -103 47q-63 4 -63 45q0 18 16 80h-166q-53 0 -53 43q6 88 39 104q16 6 33 7h178l274 1101h-159q-6 0 -22.5 1t-22.5 1q-143 0 -220 -14 q-27 -55 -52 -125.5t-40.5 -113.5t-25.5 -54q-14 -12 -41 -12h-43q-66 0 -66 41z" />
<glyph unicode="&#x163;" horiz-adv-x="843" d="M143 -367q8 90 43 107q12 6 45 6q332 0 347 78q2 20 -18.5 32.5t-40 15.5t-44.5 5q-2 0 -11 1t-14.5 1t-13.5 3t-12 7.5t-8 12.5t-4 18q0 18 16 84q-139 51 -139 189q0 27 23.5 122t62.5 248.5t61 249.5h-200q-57 0 -58 43q0 18 8 43q12 43 23.5 55.5t46.5 12.5h219 q88 352 94 364q33 61 95 62q33 0 54 -19.5t21 -50.5q0 -14 -21.5 -103.5t-41.5 -170.5l-23 -82h201q57 0 57 -43q0 -18 -8 -43q-10 -43 -20.5 -55.5t-46.5 -12.5h-222l-137 -555q-8 -29 -8 -43q0 -29 21.5 -50.5t60.5 -21.5q61 0 121.5 46.5t93.5 113.5q16 31 27.5 37 t60.5 6h35q51 0 51 -27q0 -20 -29.5 -76.5t-106.5 -130t-173 -106.5q129 -47 129 -160q0 -74 -51.5 -135t-155.5 -90q-111 -31 -324 -31h-12q-25 0 -37 1t-24.5 11.5t-12.5 30.5z" />
<glyph unicode="&#x164;" horiz-adv-x="1740" d="M391 979q0 8 127 385q8 27 22.5 37t43.5 10h1253q59 0 59 -47q0 -10 -59 -373q-6 -35 -21.5 -44t-46.5 -9h-38q-59 0 -60 49q0 18 13.5 102.5t17.5 157.5q-51 8 -195 8h-227l-274 -1101h159q51 0 52 -43q0 -51 -23 -88q-12 -23 -53 -23h-514q-68 0 -68 43q8 84 35 102 q10 8 37 9h178l274 1101h-157q-8 0 -24.5 1t-22.5 1q-143 0 -220 -14q-27 -55 -52 -125.5t-40.5 -113.5t-25.5 -54q-14 -12 -41 -12h-43q-66 0 -66 41zM1012 1913q0 20 16 36.5t35 16.5q16 0 130 -57.5t126 -57.5q20 0 161.5 57.5t157.5 57.5q18 0 31.5 -15.5t13.5 -33.5 q0 -29 -59 -64q-311 -182 -326 -182h-2q-18 0 -73 45q-31 25 -64 51.5t-51 42t-36.5 30.5t-28 24.5t-17.5 18.5t-11 16.5t-3 13.5z" />
<glyph unicode="&#x165;" horiz-adv-x="843" d="M178 856q0 18 8 43q12 43 23.5 55.5t46.5 12.5h219q10 45 78 311v6q2 6 4 14.5t7 18.5t10.5 20.5t13.5 20.5t18 17t25.5 12.5t32.5 5.5q31 0 53 -20.5t22 -51.5q0 -14 -21.5 -102.5t-41.5 -169.5l-23 -82h201q57 0 57 -43q0 -18 -8 -43q-10 -43 -20.5 -55.5t-46.5 -12.5 h-222l-135 -547q-10 -41 -10 -51q0 -29 20.5 -50.5t61.5 -21.5q61 0 121.5 47.5t95.5 116.5q12 27 23.5 33t35.5 6h54q59 0 59 -27q0 -23 -30.5 -73.5t-82 -110t-134.5 -103.5t-173 -44q-98 0 -164.5 57t-66.5 148q0 29 24.5 130t64.5 255.5t58 234.5h-200q-58 0 -58 43z M805 1136.5q0 14.5 24.5 29t66.5 48t73 91.5q-98 10 -99 100q0 59 46.5 107.5t109.5 48.5q55 0 90 -40t35 -106q0 -125 -106.5 -249t-161.5 -124q-18 0 -48 40t-30 54.5z" />
<glyph unicode="&#x16a;" horiz-adv-x="1902" d="M477 360q0 70 25 164l131 523l55 221h-86q-59 0 -59 45q8 86 39 102q10 6 39 6h391q57 0 57 -43q-8 -82 -37 -102q-12 -8 -51 -8h-96q-14 -59 -60 -238l-131 -526q-23 -94 -22 -144q0 -229 305 -229q88 0 161.5 19.5t122 45t89.5 70.5t61.5 74t38.5 79t21.5 61.5 t11.5 43.5l184 742q-29 2 -84 2q-61 0 -61 43q0 10 10 53q10 37 23.5 47t41.5 10h373q57 0 58 -43q-8 -82 -37 -102q-12 -8 -54 -8q-66 0 -96 -2q-2 -14 -10 -42t-10 -42l-166 -664q-16 -68 -29.5 -109.5t-63 -123.5t-122.5 -144q-195 -164 -482 -164q-252 0 -366.5 111.5 t-114.5 271.5zM898 1635q0 49 24 94q12 20 56 20h788q61 0 62 -43q-10 -90 -41 -108q-10 -6 -33 -6h-801q-55 0 -55 43z" />
<glyph unicode="&#x16b;" horiz-adv-x="1368" d="M141 649q0 25 24.5 76t67.5 109.5t114 101.5t151 43q88 0 147.5 -51t59.5 -133q0 -39 -72 -227.5t-72 -280.5q0 -143 148 -144q94 0 176 92.5t123 253.5q98 393 108 414q29 63 94 64q33 0 54.5 -19.5t21.5 -52.5q0 -10 -10 -51l-146 -584q-8 -29 -8 -45q0 -31 22.5 -51.5 t51.5 -20.5q47 0 79 96.5t36 98.5q10 8 41 8h63q49 0 49 -31q0 -14 -17 -62t-50 -110.5t-93.5 -108.5t-132.5 -46q-152 0 -213 121q-72 -59 -133 -90t-147 -31q-125 0 -212 61.5t-87 206.5q0 115 70.5 306.5t70.5 205.5q0 25 -15.5 40t-37.5 15q-45 0 -89 -46t-67 -115 q-8 -27 -18 -33t-35 -6h-55q-62 -1 -62 26zM591 1331q0 47 25 92q14 23 55 23h727q59 0 59 -45q-8 -90 -41 -109q-10 -6 -32 -6h-738q-55 0 -55 45z" />
<glyph unicode="&#x16c;" horiz-adv-x="1902" d="M477 360q0 70 25 164l131 523l55 221h-86q-59 0 -59 45q8 86 39 102q10 6 39 6h391q57 0 57 -43q-8 -82 -37 -102q-12 -8 -51 -8h-96q-14 -59 -60 -238l-131 -526q-23 -94 -22 -144q0 -229 305 -229q88 0 161.5 19.5t122 45t89.5 70.5t61.5 74t38.5 79t21.5 61.5 t11.5 43.5l184 742q-29 2 -84 2q-61 0 -61 43q0 10 10 53q10 37 23.5 47t41.5 10h373q57 0 58 -43q-8 -82 -37 -102q-12 -8 -54 -8q-66 0 -96 -2q-2 -14 -10 -42t-10 -42l-166 -664q-16 -68 -29.5 -109.5t-63 -123.5t-122.5 -144q-195 -164 -482 -164q-252 0 -366.5 111.5 t-114.5 271.5zM1032 1917q0 76 17.5 97.5t54.5 21.5h29q61 0 61 -45q0 -8 -2 -24.5t-2 -29.5q0 -72 54.5 -117.5t135.5 -45.5q94 0 180.5 56t123.5 138q2 6 7 22.5t8 20.5t10 12.5t18.5 10.5t29.5 2h27q63 0 63 -41q0 -37 -33.5 -99.5t-93 -127t-155.5 -110.5t-205 -46 q-141 0 -234.5 84t-93.5 221z" />
<glyph unicode="&#x16d;" horiz-adv-x="1368" d="M141 649q0 25 24.5 76t67.5 109.5t114 101.5t151 43q88 0 147.5 -51t59.5 -133q0 -39 -72 -227.5t-72 -280.5q0 -143 148 -144q94 0 176 92.5t123 253.5q98 393 108 414q29 63 94 64q33 0 54.5 -19.5t21.5 -52.5q0 -10 -10 -51l-146 -584q-8 -29 -8 -45q0 -31 22.5 -51.5 t51.5 -20.5q47 0 79 96.5t36 98.5q10 8 41 8h63q49 0 49 -31q0 -14 -17 -62t-50 -110.5t-93.5 -108.5t-132.5 -46q-152 0 -213 121q-72 -59 -133 -90t-147 -31q-125 0 -212 61.5t-87 206.5q0 115 70.5 306.5t70.5 205.5q0 25 -15.5 40t-37.5 15q-45 0 -89 -46t-67 -115 q-8 -27 -18 -33t-35 -6h-55q-62 -1 -62 26zM650 1442q0 49 6.5 79.5t18.5 42t21.5 14.5t27.5 3h31q59 0 59 -43q0 -10 -3 -34.5t-3 -41.5q0 -80 49 -133t133 -53q94 0 185.5 68.5t130.5 168.5q4 8 8 20.5t6 17.5t7 12.5t11.5 10.5t16.5 5t25 2h24q63 0 64 -43 q0 -37 -35 -104.5t-94.5 -140t-158.5 -126t-210 -53.5q-143 0 -231.5 92.5t-88.5 235.5z" />
<glyph unicode="&#x16e;" horiz-adv-x="1902" d="M477 360q0 70 25 164l131 523l55 221h-86q-59 0 -59 45q8 86 39 102q10 6 39 6h391q57 0 57 -43q-8 -82 -37 -102q-12 -8 -51 -8h-96q-14 -59 -60 -238l-131 -526q-23 -94 -22 -144q0 -229 305 -229q88 0 161.5 19.5t122 45t89.5 70.5t61.5 74t38.5 79t21.5 61.5 t11.5 43.5l184 742q-29 2 -84 2q-61 0 -61 43q0 10 10 53q10 37 23.5 47t41.5 10h373q57 0 58 -43q-8 -82 -37 -102q-12 -8 -54 -8q-66 0 -96 -2q-2 -14 -10 -42t-10 -42l-166 -664q-16 -68 -29.5 -109.5t-63 -123.5t-122.5 -144q-195 -164 -482 -164q-252 0 -366.5 111.5 t-114.5 271.5zM1124 1657q0 145 96.5 270t252.5 125q94 0 147 -53t53 -146q0 -143 -96 -270t-252 -127q-94 0 -147.5 54.5t-53.5 146.5zM1257 1692q0 -80 107 -80q78 0 113.5 38t54.5 119q8 33 8 50q0 80 -104 79q-76 0 -114 -34.5t-58 -122.5q-7 -20 -7 -49z" />
<glyph unicode="&#x16f;" horiz-adv-x="1368" d="M141 651q0 25 24.5 76t67.5 108.5t114 100.5t151 43q88 0 147.5 -51t59.5 -133q0 -39 -73 -229.5t-73 -286.5q0 -135 150 -136q158 0 262 234q6 12 7 16t6 15.5t6 16.5t7.5 24.5t9.5 35t12 52t18.5 72.5t24.5 97.5t32 127.5l4 18q6 18 9 28.5t12 29t20.5 29.5t30 19.5 t40.5 8.5q31 0 53.5 -20.5t22.5 -51.5q0 -10 -10 -51l-146 -584q-8 -29 -8 -45q0 -31 22.5 -51.5t51.5 -20.5q47 0 79 96.5t36 98.5q10 8 41 8h63q49 0 49 -31q0 -14 -17 -62t-50 -110.5t-93.5 -108.5t-132.5 -46q-152 0 -213 121q-72 -61 -133 -91t-149 -30 q-299 0 -299 256q0 117 71.5 313.5t71.5 210.5q0 25 -15.5 40t-37.5 15q-45 0 -88 -45t-68 -116q-8 -25 -20 -32t-35 -7h-55q-60 -1 -60 28zM741 1245q0 68 32 153t89 134q76 66 221 65q209 0 209 -159q0 -70 -30.5 -155t-90.5 -132q-78 -66 -221 -66q-209 0 -209 160z M874 1262q0 -74 107 -74q86 0 120 41t56 149q4 25 4 43q0 74 -108 74q-72 0 -107 -29.5t-55 -109.5q-17 -76 -17 -94z" />
<glyph unicode="&#x170;" horiz-adv-x="1902" d="M477 360q0 70 25 164l131 523l55 221h-86q-59 0 -59 45q8 86 39 102q10 6 39 6h391q57 0 57 -43q-8 -82 -37 -102q-12 -8 -51 -8h-96q-14 -59 -60 -238l-131 -526q-23 -94 -22 -144q0 -229 305 -229q88 0 161.5 19.5t122 45t89.5 70.5t61.5 74t38.5 79t21.5 61.5 t11.5 43.5l184 742q-29 2 -84 2q-61 0 -61 43q0 10 10 53q10 37 23.5 47t41.5 10h373q57 0 58 -43q-8 -82 -37 -102q-12 -8 -54 -8q-66 0 -96 -2q-2 -14 -10 -42t-10 -42l-166 -664q-16 -68 -29.5 -109.5t-63 -123.5t-122.5 -144q-195 -164 -482 -164q-252 0 -366.5 111.5 t-114.5 271.5zM1024 1681q0 27 14.5 38.5t40.5 19.5q356 121 375 121q35 0 55.5 -22.5t20.5 -59.5q0 -12 -2 -21q47 16 95 32.5t74.5 26t52.5 18.5t39 13t25.5 7.5t19.5 4.5t13 1q35 0 55.5 -21.5t20.5 -54.5q0 -72 -96 -103q-346 -109 -360.5 -108.5t-23.5 5.5t-14.5 23.5 t-6.5 29.5t-5 44q-307 -102 -344 -102q-49 -1 -49 108z" />
<glyph unicode="&#x171;" horiz-adv-x="1368" d="M141 649q0 72 104.5 201t252.5 129q88 0 147.5 -51t59.5 -133q0 -41 -12.5 -70t-31 -50.5t-22.5 -33.5q-4 -10 -16.5 -57t-24.5 -123t-12 -131q0 -186 127 -187q76 0 141.5 70t108.5 176.5t72.5 211t51 195.5t29.5 107q29 63 94 64q33 0 54.5 -19.5t21.5 -52.5 q0 -10 -10 -51l-146 -584q-8 -29 -8 -45q0 -31 22.5 -51.5t51.5 -20.5q47 0 79 96.5t36 98.5q10 8 41 8h63q49 0 49 -29q0 -18 -18.5 -67t-51 -109.5t-92 -106.5t-131.5 -46q-147 0 -210 118q-127 -119 -275 -118q-45 0 -86 11t-88 42t-75.5 100.5t-28.5 171.5 q0 84 23.5 205t37.5 152q6 10 20.5 27.5t22.5 34t8 36.5q0 25 -15.5 40t-37.5 15q-33 0 -74 -29.5t-71 -103.5q-4 -12 -10.5 -26.5t-8.5 -19.5t-6 -11t-10 -7t-15.5 -2t-25.5 -1h-51q-54 -1 -54 26zM670 1231q0 31 53 55q334 170 358 174q6 2 15 2q35 0 55 -22.5t20 -55.5 q0 -61 -81 -100q-346 -164 -357 -164h-2q-20 0 -35.5 28t-19.5 56zM1063 1233q0 27 53 53q336 170 352 174q8 2 19 2q35 0 55.5 -22.5t20.5 -55.5q0 -63 -80 -100q-346 -164 -359 -164h-2q-23 0 -37 28t-18 56z" />
<glyph unicode="&#x178;" horiz-adv-x="1859" d="M434 1311q0 45 19 82q12 29 59 28h371q61 0 61 -43q-10 -82 -35 -100q-12 -10 -53 -10l266 -525l531 525q-49 2 -49 45q8 82 36 100q12 8 41 8h355q57 0 57 -43q-8 -84 -37 -102q-12 -8 -57 -8q-100 0 -119.5 -5.5t-52.5 -37.5l-633 -627l-6 -6q-18 -16 -29.5 -52 t-48.5 -186q-29 -119 -49 -200h82q66 0 65 -43q-8 -88 -39 -105q-10 -6 -39 -6h-385q-59 0 -59 43q8 82 37 102q12 8 51 9h98l105 415l-356 699h-125q-62 0 -62 43zM985 1649q0 55 47 101t107 46q49 0 78.5 -30.5t29.5 -75.5q0 -55 -46 -101.5t-107 -46.5q-45 0 -77 30 t-32 77zM1444 1649q0 55 46 101t105 46q49 0 79 -30.5t30 -75.5q0 -55 -45 -101.5t-107 -46.5q-47 0 -77.5 31t-30.5 76z" />
<glyph unicode="&#x179;" horiz-adv-x="1564" d="M203 35q0 70 53 121l1157 1112h-244q-371 0 -411 -25q-49 -29 -113 -237q-12 -39 -25.5 -48.5t-44.5 -9.5h-40q-57 0 -58 41q0 18 56.5 211t70.5 207q12 14 49 14h1012q49 0 49 -32q0 -66 -51 -115l-1153 -1108h268q211 0 306.5 6t115 14.5t33.5 32.5q37 63 102 268 q12 39 24.5 49.5t49.5 10.5h39q59 0 59 -41q0 -12 -141 -459q-10 -29 -21.5 -38t-41.5 -9h-1051q-49 0 -49 35zM987 1681q0 8 1 14.5t4 11.5t5 8t7.5 7t8.5 6.5t10 4.5t10 3t11.5 4t10.5 3q344 117 362 117q35 0 55.5 -22.5t20.5 -53.5q0 -72 -94 -103q-350 -109 -361 -108 q-51 -1 -51 108z" />
<glyph unicode="&#x17a;" horiz-adv-x="1040" d="M117 12q0 14 26 56q31 47 72 96t75 86t95 95t93 88t114 102.5t115 101.5l102 100q-20 6 -64.5 24.5t-79 29t-69.5 10.5q-53 0 -86 -20.5t-49.5 -44t-24.5 -25.5q-6 -2 -43 -2h-37q-61 0 -61 28q0 66 98.5 154t229.5 88q66 0 160 -51t124 -51q27 0 55.5 51t71.5 51h56 q57 0 57 -25q0 -27 -52.5 -95t-90 -109t-56.5 -60q-68 -70 -214 -199t-267 -245q51 -4 143 -42t140 -38q78 0 137 44t82 101q14 35 53 35h63q51 0 52 -29q0 -84 -125 -206.5t-291 -122.5q-68 0 -159 52t-140 52q-41 0 -73 -19.5t-55.5 -47t-27.5 -29.5q-12 -8 -37 -8h-69 q-43 -1 -43 24zM639 1231q0 31 53 55q332 170 355 174q8 2 16 2q35 0 55.5 -22.5t20.5 -55.5q0 -63 -80 -100q-109 -51 -236 -110q-111 -53 -123 -54q-23 0 -38 28t-19 56z" />
<glyph unicode="&#x17b;" horiz-adv-x="1564" d="M203 35q0 70 53 121l1157 1112h-244q-371 0 -411 -25q-49 -29 -113 -237q-12 -39 -25.5 -48.5t-44.5 -9.5h-40q-57 0 -58 41q0 18 56.5 211t70.5 207q12 14 49 14h1012q49 0 49 -32q0 -66 -51 -115l-1153 -1108h268q211 0 306.5 6t115 14.5t33.5 32.5q37 63 102 268 q12 39 24.5 49.5t49.5 10.5h39q59 0 59 -41q0 -12 -141 -459q-10 -29 -21.5 -38t-41.5 -9h-1051q-49 0 -49 35zM1153 1726q0 55 46 101.5t106 46.5q49 0 78.5 -31t29.5 -76q0 -55 -45 -101t-106 -46q-45 0 -77 29.5t-32 76.5z" />
<glyph unicode="&#x17c;" horiz-adv-x="1040" d="M117 12q0 14 26 56q31 47 72 96t75 86t95 95t93 88t114 102.5t115 101.5l102 100q-20 6 -64.5 24.5t-79 29t-69.5 10.5q-53 0 -86 -20.5t-49.5 -44t-24.5 -25.5q-6 -2 -43 -2h-37q-61 0 -61 28q0 66 98.5 154t229.5 88q66 0 160 -51t124 -51q27 0 55.5 51t71.5 51h56 q57 0 57 -25q0 -27 -52.5 -95t-90 -109t-56.5 -60q-68 -70 -214 -199t-267 -245q51 -4 143 -42t140 -38q78 0 137 44t82 101q14 35 53 35h63q51 0 52 -29q0 -84 -125 -206.5t-291 -122.5q-68 0 -159 52t-140 52q-41 0 -73 -19.5t-55.5 -47t-27.5 -29.5q-12 -8 -37 -8h-69 q-43 -1 -43 24zM780 1305q0 43 37 79.5t84 36.5q35 0 59.5 -22.5t24.5 -59.5q0 -43 -37 -79.5t-84 -36.5q-33 0 -58.5 23.5t-25.5 58.5z" />
<glyph unicode="&#x17d;" horiz-adv-x="1564" d="M203 35q0 70 53 121l1157 1112h-244q-371 0 -411 -25q-49 -29 -113 -237q-12 -39 -25.5 -48.5t-44.5 -9.5h-40q-57 0 -58 41q0 18 56.5 211t70.5 207q12 14 49 14h1012q49 0 49 -32q0 -66 -51 -115l-1153 -1108h268q211 0 306.5 6t115 14.5t33.5 32.5q37 63 102 268 q12 39 24.5 49.5t49.5 10.5h39q59 0 59 -41q0 -12 -141 -459q-10 -29 -21.5 -38t-41.5 -9h-1051q-49 0 -49 35zM926 1913q0 20 16 36.5t35 16.5q16 0 130 -57.5t126 -57.5q20 0 162.5 57.5t158.5 57.5q18 0 30.5 -14.5t12.5 -34.5q0 -29 -59 -64q-311 -182 -326 -182h-2 q-18 0 -73 45q-31 25 -64 51.5t-51 42t-36.5 30.5t-28 24.5t-17.5 18.5t-11 16.5t-3 13.5z" />
<glyph unicode="&#x17e;" horiz-adv-x="1040" d="M117 12q0 14 26 56q31 47 72 96t75 86t95 95t93 88t114 102.5t115 101.5l102 100q-20 6 -64.5 24.5t-79 29t-69.5 10.5q-53 0 -86 -20.5t-49.5 -44t-24.5 -25.5q-6 -2 -43 -2h-37q-61 0 -61 28q0 66 98.5 154t229.5 88q66 0 160 -51t124 -51q27 0 55.5 51t71.5 51h56 q57 0 57 -25q0 -27 -52.5 -95t-90 -109t-56.5 -60q-68 -70 -214 -199t-267 -245q51 -4 143 -42t140 -38q78 0 137 44t82 101q14 35 53 35h63q51 0 52 -29q0 -84 -125 -206.5t-291 -122.5q-68 0 -159 52t-140 52q-41 0 -73 -19.5t-55.5 -47t-27.5 -29.5q-12 -8 -37 -8h-69 q-43 -1 -43 24zM598 1534q0 16 17.5 33.5t37.5 17.5q4 0 8 -1t9.5 -4t9.5 -6t10 -10.5t11 -13.5t15.5 -17t18.5 -21.5t21.5 -28t25.5 -31.5q80 -94 96 -117l224 168q106 82 124.5 82t33 -16.5t14.5 -34.5q0 -16 -37 -53q-104 -94 -232 -213q-104 -94 -123.5 -110.5 t-33.5 -16.5q-8 0 -15.5 3t-15.5 13t-13 17.5t-15.5 27t-16.5 27.5q-45 78 -105 176q-69 115 -69 129z" />
<glyph unicode="&#x192;" horiz-adv-x="780" d="M-45 -266q0 55 38 91t85 36q82 0 82 -82q0 -8 -4 -33h34q41 0 66 29.5t53.5 132t57 254t79.5 438.5q8 47 13 72l24 141h-186q-57 0 -57 45q8 86 43 103q10 6 32 6h195q4 25 13 72.5t12.5 66l10.5 55.5t12 51.5t14.5 41t18.5 40t21.5 31.5t28.5 32.5t35 26.5q72 49 160 50 q86 0 159.5 -34t73.5 -110q0 -49 -35 -88t-86 -39q-84 0 -84 82q0 8 4 33q-23 2 -69 2h-11q-31 0 -41 -25.5t-32 -146.5q-16 -84 -27 -141h223q57 0 58 -45q-6 -86 -41 -103q-12 -6 -37 -6h-229v-2q-10 -76 -74 -425t-99 -472q-45 -158 -129 -241t-182 -83q-82 0 -152.5 34 t-70.5 110z" />
<glyph unicode="&#x218;" horiz-adv-x="1433" d="M195 6q0 6 17 77t46 183.5t41 161.5q8 31 18.5 38t32.5 7h60q23 0 32 -1t17 -8t8 -22q0 -6 -4 -32.5t-4 -47.5q0 -66 31.5 -113.5t84 -71t107.5 -35t117 -11.5q100 0 178 34t115.5 85t56 98t18.5 84q0 117 -120 168q-29 12 -190 49t-198 49q-86 33 -148 104.5t-62 178.5 q0 74 34.5 151.5t99 149.5t175 118t248.5 46q225 0 346 -141q47 66 72.5 96.5t34.5 36.5t20 6h4q43 0 43 -29q0 -6 -52.5 -215t-54.5 -213q-12 -39 -49 -39h-57q-37 0 -49.5 7.5t-12.5 25.5q0 6 2 26.5t2 36.5q0 111 -62.5 185t-213.5 74q-164 0 -257 -87.5t-93 -183.5 q0 -70 55 -114t122.5 -59t170 -36.5t156.5 -40.5q90 -35 152.5 -111.5t62.5 -189.5q0 -63 -21.5 -130.5t-68 -134t-111 -120t-161.5 -86.5t-210 -33q-119 0 -212 28t-125.5 50.5t-71.5 59.5q-68 -96 -88.5 -117t-45.5 -21q-38 0 -38 29zM471 -593.5q0 10.5 24.5 32 t59.5 67.5t53 109q-70 6 -69 70q0 43 32.5 75.5t75.5 32.5q80 0 80 -100q0 -80 -45 -168t-92 -137t-66 -49q-12 0 -32.5 28.5t-20.5 39z" />
<glyph unicode="&#x219;" horiz-adv-x="1040" d="M180 197q0 70 39 107.5t86 37.5q35 0 59.5 -22.5t24.5 -57.5q0 -37 -29 -76v-2q57 -41 185 -41q145 0 208.5 50.5t63.5 111.5q0 51 -50 77t-139 41t-114 23q-61 23 -107.5 76t-46.5 129q0 29 8.5 66t35 85t67.5 86t113.5 64.5t165.5 26.5q131 0 209.5 -50t78.5 -134 q0 -68 -38.5 -102t-79.5 -34q-33 0 -56.5 21.5t-23.5 54.5q0 27 18 64q-49 27 -135 26q-88 0 -138 -42t-50 -91q0 -45 40.5 -65.5t121.5 -33.5t114 -26q74 -25 126 -81t52 -140q0 -35 -10 -76t-41 -93t-79 -92t-135 -68.5t-200 -28.5q-176 0 -260 62.5t-84 146.5z M280 -583.5q0 10.5 24.5 32t59.5 67.5t53 109q-70 6 -69 70q0 43 32.5 75.5t75.5 32.5q80 0 80 -100q0 -80 -45 -168t-92 -137t-66 -49q-12 0 -32.5 28.5t-20.5 39z" />
<glyph unicode="&#x21a;" horiz-adv-x="1740" d="M391 979q0 8 127 385q8 27 22.5 37t43.5 10h1253q59 0 59 -47q0 -10 -59 -373q-6 -35 -21.5 -44t-46.5 -9h-38q-59 0 -60 49q0 18 13.5 102.5t17.5 157.5q-51 8 -195 8h-227l-274 -1101h159q51 0 52 -43q0 -51 -23 -88q-12 -23 -53 -23h-514q-68 0 -68 43q8 84 35 102 q10 8 37 9h178l274 1101h-157q-8 0 -24.5 1t-22.5 1q-143 0 -220 -14q-27 -55 -52 -125.5t-40.5 -113.5t-25.5 -54q-14 -12 -41 -12h-43q-66 0 -66 41zM631 -571.5q0 10.5 24.5 32t59.5 67.5t53 109q-70 6 -69 70q0 43 32.5 75.5t75.5 32.5q80 0 80 -100q0 -80 -45 -168 t-92 -137t-66 -49q-12 0 -32.5 28.5t-20.5 39z" />
<glyph unicode="&#x21b;" horiz-adv-x="843" d="M174 -583.5q0 10.5 24.5 32t59.5 67.5t53 109q-70 6 -69 70q0 43 32.5 75.5t75.5 32.5q80 0 80 -100q0 -80 -45 -168t-92 -137t-66 -49q-12 0 -32.5 28.5t-20.5 39zM178 856q0 18 8 43q12 43 23.5 55.5t46.5 12.5h219q88 352 94 364q33 61 95 62q33 0 54 -19.5t21 -50.5 q0 -14 -21.5 -103.5t-41.5 -170.5l-23 -82h201q57 0 57 -43q0 -18 -8 -43q-10 -43 -20.5 -55.5t-46.5 -12.5h-222l-135 -547q-10 -41 -10 -51q0 -29 20.5 -50.5t61.5 -21.5q61 0 121.5 47.5t95.5 116.5q12 27 23.5 33t35.5 6h56q57 0 57 -27q0 -23 -30.5 -73.5t-81 -110 t-134.5 -103.5t-174 -44q-98 0 -164.5 57t-66.5 148q0 29 24.5 130t64.5 255.5t58 234.5h-200q-58 0 -58 43z" />
<glyph unicode="&#x2c6;" horiz-adv-x="1177" d="M559 1313q0 8 3 15t7 12.5t14.5 12.5l16.5 11t22.5 13t24.5 16q313 195 318 196q6 2 12 2h2q12 0 31.5 -16t93.5 -84q78 -74 137 -127q33 -29 33 -49.5t-43 -63.5t-64 -43q-16 0 -37.5 19.5t-111.5 111.5q-41 43 -68 70h-4l-266 -180q-37 -20 -47 -21q-27 0 -50.5 44.5 t-23.5 60.5z" />
<glyph unicode="&#x2c7;" horiz-adv-x="1177" d="M633 1534q0 16 17.5 33.5t37.5 17.5q4 0 8 -1t9.5 -4t9.5 -6t10 -10.5t11 -13.5t15.5 -17t18.5 -21.5t21.5 -28t25.5 -31.5q80 -94 96 -117l224 168q106 82 124.5 82t33 -16.5t14.5 -34.5q0 -16 -37 -53q-104 -94 -232 -213q-104 -94 -123.5 -110.5t-33.5 -16.5 q-8 0 -15.5 3t-15.5 13t-13 17.5t-15.5 27t-16.5 27.5q-45 78 -105 176q-69 115 -69 129z" />
<glyph unicode="&#x2d8;" d="M618 1442q0 49 6.5 79.5t18.5 42t21.5 14.5t27.5 3h31q59 0 59 -43q0 -10 -3 -34.5t-3 -41.5q0 -80 49 -133t133 -53q94 0 185.5 68.5t130.5 168.5q4 8 8 20.5t6 17.5t7 12.5t11.5 10.5t16.5 5t25 2h24q63 0 64 -43q0 -37 -35 -104.5t-94.5 -140t-158.5 -126t-210 -53.5 q-143 0 -231.5 92.5t-88.5 235.5z" />
<glyph unicode="&#x2d9;" horiz-adv-x="780" d="M614 1274q0 55 46.5 101t107.5 46q47 0 76.5 -30.5t29.5 -75.5q0 -57 -46 -102.5t-105 -45.5q-47 0 -78 31t-31 76z" />
<glyph unicode="&#x2da;" horiz-adv-x="2064" d="M1096 1268q0 125 92 227t242 102q96 0 151 -47t55 -135q0 -123 -91 -226.5t-242 -103.5q-98 0 -152.5 48.5t-54.5 134.5zM1225 1274q0 -84 104 -84q49 0 83 16.5t51.5 48t24.5 51t13 52.5q6 25 6 51q0 86 -102 86q-131 0 -168 -152q-12 -61 -12 -69z" />
<glyph unicode="&#x2db;" horiz-adv-x="780" d="M23 -246q0 84 83 162q55 51 182.5 104.5t168.5 79.5q41 29 55 29q27 0 40 -34t13 -54q0 -37 -72.5 -69.5t-160.5 -73.5t-113 -88q-6 -12 -6 -21q0 -35 53 -35t102.5 33t83 66.5t48.5 33.5q18 0 53 -28.5t35 -51.5q0 -43 -117 -133t-242 -90q-88 0 -147 47t-59 123z" />
<glyph unicode="&#x2dc;" d="M557 1191.5q0 20.5 27 43.5q4 4 31.5 27.5t47 40t53.5 41t60.5 40t58 26.5t56.5 11q47 0 78.5 -31.5t54.5 -63.5t47 -32q41 0 124 62.5t97 62.5q23 0 51.5 -33.5t28.5 -54.5q0 -16 -29 -45l-36 -33q-39 -33 -62.5 -51t-63.5 -45t-76 -41t-67 -14q-49 0 -79.5 31.5 t-53 63.5t-47.5 32q-41 0 -124 -62.5t-97 -62.5q-20 0 -50 33.5t-30 54z" />
<glyph unicode="&#x2dd;" d="M637 1231q0 29 53 55q84 41 194 98q154 78 176 78q33 0 54.5 -23.5t21.5 -54.5q0 -63 -80 -100q-123 -57 -252 -119q-92 -45 -104 -45q-23 0 -38 28t-19 56zM1029 1231q0 29 53 55q84 41 194 98q154 78 176 78q33 0 54.5 -23.5t21.5 -54.5q0 -63 -80 -100 q-123 -57 -252 -119q-92 -45 -104 -45q-23 0 -38 28t-19 56z" />
<glyph unicode="&#x374;" horiz-adv-x="583" d="M416 1126q0 18 108 158q70 90 121 156q2 2 12.5 16t15.5 20.5t16 18.5t20.5 18.5t22.5 11.5t28 5q31 0 56.5 -22.5t25.5 -55.5t-30 -64.5t-175 -156.5q-86 -74 -141 -121q-25 -20 -41.5 -20t-27.5 11t-11 25z" />
<glyph unicode="&#x375;" horiz-adv-x="583" d="M35 -367q0 41 57 95q299 258 314 266q8 4 16 4q16 0 26.5 -11.5t10.5 -25.5q0 -12 -20.5 -42t-108.5 -144q-70 -90 -117 -152q-49 -68 -98 -67q-33 0 -56.5 21t-23.5 56z" />
<glyph unicode="&#x37a;" horiz-adv-x="387" d="M6 -406q0 16 24.5 123t32.5 129q10 33 50 33h77q51 0 52 -29q0 -10 -29 -126.5t-37 -133.5q-29 -66 -96 -65q-31 0 -52.5 19t-21.5 50z" />
<glyph unicode="&#x37e;" horiz-adv-x="780" d="M190 -299q0 12 30 42t75 97.5t74 161.5q-80 18 -80 98q0 59 46 107.5t109 48.5q39 0 69 -27.5t30 -97.5q0 -84 -36 -182.5t-83 -171t-91 -121.5t-65 -49q-16 0 -47 39t-31 55zM467 815q0 57 48 104.5t110 47.5q47 0 75.5 -30t28.5 -75q0 -59 -48 -105t-108 -46 q-47 0 -76.5 30.5t-29.5 73.5z" />
<glyph unicode="&#x384;" horiz-adv-x="518" d="M365 1126q0 18 108 158q70 90 121 156q2 2 12.5 16t15.5 20.5t16 18.5t20.5 18.5t22.5 11.5t28 5q31 0 56.5 -22.5t25.5 -55.5t-30 -64.5t-175 -156.5q-86 -74 -141 -121q-25 -20 -41.5 -20t-27.5 11t-11 25z" />
<glyph unicode="&#x385;" horiz-adv-x="780" d="M377 1157q0 43 33.5 76t76.5 33q37 0 58.5 -23.5t21.5 -60.5q0 -25 -4 -37q14 23 240 313q47 59 80 68q12 4 24 4q33 0 56.5 -22.5t23.5 -55.5q0 -41 -55 -90q-59 -51 -148 -129q-109 -94 -139.5 -118.5t-46.5 -24.5q-41 0 -37 53q-39 -68 -102 -68q-35 0 -58.5 22.5 t-23.5 59.5zM793 1157q0 45 34.5 77t75.5 32q33 0 58.5 -22.5t25.5 -59.5q0 -45 -34.5 -77t-78.5 -32q-35 0 -58 24.5t-23 57.5z" />
<glyph unicode="&#x386;" horiz-adv-x="1859" d="M156 43q8 82 37 102q12 8 57 9q37 0 106 4l805 1235q37 55 96 55h72q23 0 37 -9t18.5 -21.5t8.5 -33.5l186 -1230h100q59 0 60 -43q-8 -90 -43 -105q-16 -6 -35 -6h-361q-61 0 -61 43q8 88 39 104q12 6 41 7h57l-41 270h-594q-23 -2 -36 -21q-6 -6 -164 -247h20t20.5 -1 t17.5 -2t16.5 -4.5t11.5 -8.5t8 -12t2 -17q0 -8 -10 -54q-8 -33 -20.5 -44t-41.5 -13h-350q-59 0 -59 43zM365 1126q0 18 108 158q70 90 121 156q2 2 12.5 16t15.5 20.5t16 18.5t20.5 18.5t22.5 11.5t28 5q31 0 56.5 -22.5t25.5 -55.5t-30 -64.5t-175 -156.5 q-86 -74 -141 -121q-25 -20 -41.5 -20t-27.5 11t-11 25zM815 578h496l-92 622z" />
<glyph unicode="&#x387;" horiz-adv-x="780" d="M467 815q0 57 48 104.5t110 47.5q47 0 75.5 -30t28.5 -75q0 -59 -48 -105t-108 -46q-47 0 -76.5 30.5t-29.5 73.5z" />
<glyph unicode="&#x388;" horiz-adv-x="2144" d="M365 1126q0 18 108 158q70 90 121 156q2 2 12.5 16t15.5 20.5t16 18.5t20.5 18.5t22.5 11.5t28 5q31 0 56.5 -22.5t25.5 -55.5t-30 -64.5t-175 -156.5q-86 -74 -141 -121q-25 -20 -41.5 -20t-27.5 11t-11 25zM743 43q8 86 39 104q10 6 51 7h95l278 1110h-84q-63 0 -63 43 q0 41 20 82q12 29 57 28h1043q61 0 61 -49l-43 -369q-4 -37 -19 -46t-48 -9h-39q-35 0 -47.5 12.5t-12.5 38.5q0 14 8.5 85t8.5 130v39q-74 14 -268 15h-377l-2 -2l-113 -449h143q125 0 187 6q16 41 27.5 86t16.5 60.5t19.5 27t42.5 11.5h41q61 0 62 -43q0 -12 -101 -412 q-2 -6 -5 -19.5t-5 -17.5t-5 -13.5t-6 -12.5l-8 -8t-11.5 -7t-15.5 -3t-22 -1h-32q-63 0 -64 43q0 2 27 143q-57 4 -174 4h-154l-127 -503h320q184 0 265 6t96.5 13t29.5 30q37 55 129 276q12 25 24.5 35t42.5 10h39q63 0 64 -39q0 -12 -180 -440q-12 -27 -24.5 -36 t-41.5 -9h-1087q-58 0 -58 43z" />
<glyph unicode="&#x389;" horiz-adv-x="2463" d="M365 1126q0 18 108 158q70 90 121 156q2 2 12.5 16t15.5 20.5t16 18.5t20.5 18.5t22.5 11.5t28 5q31 0 56.5 -22.5t25.5 -55.5t-30 -64.5t-175 -156.5q-86 -74 -141 -121q-25 -20 -41.5 -20t-27.5 11t-11 25zM745 43q8 82 37 102q12 8 51 9h97l278 1114h-86q-59 0 -59 45 q8 86 39 102q10 6 37 6h393q57 0 57 -43q-8 -82 -37 -102q-12 -8 -51 -8h-96l-113 -451h803l115 451h-86q-61 0 -62 45q8 86 39 102q10 6 39 6h391q57 0 58 -43q-8 -82 -37 -102q-12 -8 -52 -8h-96l-276 -1114h86q59 0 59 -43q-8 -86 -39 -103q-16 -8 -39 -8h-391 q-59 0 -59 43q8 82 37 102q12 8 53 9h96l127 508h-805l-127 -508h86q61 0 62 -43q-8 -86 -39 -103q-16 -8 -39 -8h-391q-60 0 -60 43z" />
<glyph unicode="&#x38a;" horiz-adv-x="1462" d="M365 1126q0 18 108 158q70 90 121 156q2 2 12.5 16t15.5 20.5t16 18.5t20.5 18.5t22.5 11.5t28 5q31 0 56.5 -22.5t25.5 -55.5t-30 -64.5t-175 -156.5q-86 -74 -141 -121q-25 -20 -41.5 -20t-27.5 11t-11 25zM737 43q8 82 37 102q12 8 53 9h103l278 1114h-94 q-59 0 -59 43q8 88 38 104q12 6 39 6h408q57 0 57 -43q-8 -82 -37 -102q-12 -8 -53 -8h-102l-279 -1114h94q59 0 60 -43q-8 -88 -39 -105q-12 -6 -37 -6h-407q-60 0 -60 43z" />
<glyph unicode="&#x38c;" horiz-adv-x="2129" d="M365 1126q0 18 108 158q70 90 121 156q2 2 12.5 16t15.5 20.5t16 18.5t20.5 18.5t22.5 11.5t28 5q31 0 56.5 -22.5t25.5 -55.5t-30 -64.5t-175 -156.5q-86 -74 -141 -121q-25 -20 -41.5 -20t-27.5 11t-11 25zM598 492q0 158 62.5 322.5t178 307t303 233.5t412.5 91 q80 0 156 -14.5t156 -51.5t138 -94t96 -151.5t38 -214.5q0 -164 -62.5 -327t-178 -302t-302 -226.5t-409.5 -87.5q-270 0 -429 133.5t-159 381.5zM803 539q0 -111 39 -192t104.5 -122t135 -59.5t147.5 -18.5q150 0 274.5 53.5t204.5 136.5t136 186.5t80 200.5t24 183 q0 106 -39 183t-105.5 116t-138.5 56.5t-152 17.5q-145 0 -267 -47t-201.5 -122t-136 -173t-81 -198.5t-24.5 -200.5z" />
<glyph unicode="&#x38e;" horiz-adv-x="2476" d="M365 1126q0 18 108 158q70 90 121 156q2 2 12.5 16t15.5 20.5t16 18.5t20.5 18.5t22.5 11.5t28 5q31 0 56.5 -22.5t25.5 -55.5t-30 -64.5t-175 -156.5q-86 -74 -141 -121q-25 -20 -41.5 -20t-27.5 11t-11 25zM995 1135q0 84 129 197.5t316 113.5q158 0 227.5 -112.5 t69.5 -293.5q0 -14 -1 -42.5t-1 -43.5q16 41 38.5 89.5t72.5 124t107.5 134t142.5 101.5t177 43q127 0 213 -67.5t86 -176.5q0 -35 -6 -57.5t-20.5 -31.5t-24.5 -11t-29 -2h-43q-57 0 -57 33q0 4 2 17t2 21q0 57 -46 92t-116 35q-147 0 -266 -146t-188 -402l-148 -596h117 q23 0 34 -1t22 -11.5t11 -30.5q-8 -88 -38 -105q-10 -6 -37 -6h-471q-59 0 -60 43q8 84 37 102q14 8 35 9h154l135 546q47 170 47 310q0 129 -51.5 208.5t-161.5 79.5q-76 0 -138.5 -37.5t-89.5 -95.5q-2 -6 -7 -17t-7 -15.5t-8 -12.5t-12.5 -11t-17.5 -6t-25 -3h-45 q-60 0 -60 35z" />
<glyph unicode="&#x38f;" horiz-adv-x="2084" d="M365 1126q0 18 108 158q70 90 121 156q2 2 12.5 16t15.5 20.5t16 18.5t20.5 18.5t22.5 11.5t28 5q31 0 56.5 -22.5t25.5 -55.5t-30 -64.5t-175 -156.5q-86 -74 -141 -121q-25 -20 -41.5 -20t-27.5 11t-11 25zM496 57q0 8 1 95.5t1 109.5q0 45 11 60.5t58 15.5h25 q41 0 52 -14.5t11 -49.5v-47q0 -8 1 -23.5t1 -23.5l203 -2q-10 113 -98 318.5t-88 337.5q0 258 231.5 435t614.5 177q180 0 309 -39t192.5 -103.5t90 -129t26.5 -134.5q0 -115 -65.5 -236.5t-149.5 -210.5t-189.5 -208t-158.5 -207h117q57 0 69.5 6t30.5 39q6 12 16 33 q29 59 42.5 70.5t52.5 11.5h24q61 0 62 -39q0 -4 -1 -8t-2.5 -10.5t-4.5 -11.5t-8 -16t-10 -22.5t-15.5 -31t-19.5 -40t-24.5 -51t-31.5 -63.5q-14 -29 -27.5 -37t-42.5 -8h-381q-61 0 -61 39q0 23 16 65q33 90 104.5 193.5t148.5 192t148.5 178.5t117.5 183t46 177 q0 45 -16 86t-59 83t-136.5 67.5t-228.5 25.5q-145 0 -261 -30.5t-183.5 -78.5t-112.5 -112.5t-61.5 -124t-16.5 -121.5q0 -111 75 -322.5t75 -338.5q0 -74 -12.5 -112t-22.5 -43t-33 -7h-395q-57 0 -57 57z" />
<glyph unicode="&#x390;" horiz-adv-x="714" d="M260 199q0 47 19 129l145 600l5 20t6 13.5t14.5 13.5t23.5 4h105q49 0 49 -27q0 -14 -6 -41l-177 -608q-8 -29 -8 -43q0 -31 22.5 -50.5t57.5 -19.5q41 0 76 21.5t56.5 45.5t25.5 26q12 4 21.5 -6.5t9.5 -32.5q0 -96 -81 -176t-184 -80q-86 0 -133 58.5t-47 152.5z M281 1157q0 43 33.5 76t76.5 33q37 0 59.5 -23.5t22.5 -60.5q0 -18 -6 -37q14 23 240 313q47 59 79 68q12 4 25 4q33 0 56.5 -22.5t23.5 -55.5q0 -41 -55 -90q-59 -51 -146 -127q-109 -96 -140.5 -120.5t-47.5 -24.5q-39 0 -37 53q-39 -68 -100 -68q-37 0 -60.5 22.5 t-23.5 59.5zM696 1157q0 43 35 76t76 33q33 0 58.5 -22.5t25.5 -59.5q0 -43 -35 -76t-78 -33q-35 0 -58.5 24.5t-23.5 57.5z" />
<glyph unicode="&#x391;" horiz-adv-x="1859" d="M156 43q8 82 37 102q12 8 57 9q37 0 106 4l805 1235q37 55 96 55h72q23 0 37 -9t18.5 -21.5t8.5 -33.5l186 -1230h100q59 0 60 -43q-8 -90 -43 -105q-16 -6 -35 -6h-361q-61 0 -61 43q8 88 39 104q12 6 41 7h57l-41 270h-594q-23 -2 -36 -21q-6 -6 -164 -247h20t20.5 -1 t17.5 -2t16.5 -4.5t11.5 -8.5t8 -12t2 -17q0 -8 -10 -54q-8 -33 -20.5 -44t-41.5 -13h-350q-59 0 -59 43zM815 578h496l-92 622z" />
<glyph unicode="&#x392;" horiz-adv-x="1777" d="M231 45q8 86 39 102q10 6 52 7h94l278 1114h-82q-63 0 -63 43q0 41 20 82q14 29 58 28h684q360 0 450 -168q29 -51 29 -123q0 -109 -77 -205t-218 -149q-35 -12 -104 -33q125 -20 212 -86.5t87 -189.5q0 -41 -15.5 -94.5t-60.5 -121t-112.5 -121.5t-185.5 -92t-267 -38 h-760q-58 0 -58 45zM602 154h408q82 2 113.5 5t94 16t117.5 42q164 84 164 232q0 90 -63.5 143t-169.5 65q-35 4 -105 5h-434zM768 817h342q285 0 412 119q82 78 82 160q0 172 -308 172h-417z" />
<glyph unicode="&#x393;" horiz-adv-x="1497" d="M225 43q8 86 39 104q10 6 51 7h95l278 1110h-82q-66 0 -65 43q0 41 20 82q14 29 60 28h942q61 0 61 -49l-43 -369q-4 -27 -14.5 -39t-20.5 -14t-33 -2h-38q-59 0 -60 49q0 2 9.5 89t9.5 143v26q-98 12 -248 13h-301l-2 -2l-277 -1108h127q59 0 59.5 -43t-20.5 -84 q-12 -27 -55 -27h-434q-58 0 -58 43z" />
<glyph unicode="&#x394;" horiz-adv-x="2086" d="M186 20q0 14 27 48l1030 1300q43 51 62.5 65.5t66.5 14.5h66q25 0 36 -2t25 -16.5t23 -45.5l385 -1318q0 -4 2 -10.5t3 -11.5t1 -9q0 -35 -55 -35h-1631q-41 0 -41 20zM504 186h1147l-310 1057z" />
<glyph unicode="&#x395;" horiz-adv-x="1626" d="M225 43q8 86 39 104q10 6 51 7h95l278 1110h-84q-63 0 -63 43q0 41 20 82q12 29 57 28h1043q61 0 61 -49l-43 -369q-4 -37 -19 -46t-48 -9h-39q-35 0 -47.5 12.5t-12.5 38.5q0 14 8.5 85t8.5 130v39q-74 14 -268 15h-377l-2 -2l-113 -449h143q125 0 187 6q16 41 27.5 86 t16.5 60.5t19.5 27t42.5 11.5h41q61 0 62 -43q0 -12 -101 -412q-2 -6 -5 -19.5t-5 -17.5t-5 -13.5t-6 -12.5l-8 -8t-11.5 -7t-15.5 -3t-22 -1h-32q-63 0 -64 43q0 2 27 143q-57 4 -174 4h-154l-127 -503h320q184 0 265 6t96.5 13t29.5 30q37 55 129 276q12 25 24.5 35 t42.5 10h39q63 0 64 -39q0 -12 -180 -440q-12 -27 -24.5 -36t-41.5 -9h-1087q-58 0 -58 43z" />
<glyph unicode="&#x396;" horiz-adv-x="1564" d="M203 35q0 70 53 121l1157 1112h-244q-371 0 -411 -25q-49 -29 -113 -237q-12 -39 -25.5 -48.5t-44.5 -9.5h-40q-57 0 -58 41q0 18 56.5 211t70.5 207q12 14 49 14h1012q49 0 49 -32q0 -66 -51 -115l-1153 -1108h268q211 0 306.5 6t115 14.5t33.5 32.5q37 63 102 268 q12 39 24.5 49.5t49.5 10.5h39q59 0 59 -41q0 -12 -141 -459q-10 -29 -21.5 -38t-41.5 -9h-1051q-49 0 -49 35z" />
<glyph unicode="&#x397;" horiz-adv-x="1945" d="M227 43q8 82 37 102q12 8 51 9h97l278 1114h-86q-59 0 -59 45q8 86 39 102q10 6 37 6h393q57 0 57 -43q-8 -82 -37 -102q-12 -8 -51 -8h-96l-113 -451h803l115 451h-86q-61 0 -62 45q8 86 39 102q10 6 39 6h391q57 0 58 -43q-8 -82 -37 -102q-12 -8 -52 -8h-96 l-276 -1114h86q59 0 59 -43q-8 -86 -39 -103q-16 -8 -39 -8h-391q-59 0 -59 43q8 82 37 102q12 8 53 9h96l127 508h-805l-127 -508h86q61 0 62 -43q-8 -86 -39 -103q-16 -8 -39 -8h-391q-60 0 -60 43z" />
<glyph unicode="&#x398;" horiz-adv-x="1957" d="M342 504q0 123 39 252t122 253t198.5 221t281.5 156.5t358 59.5q111 0 211.5 -24.5t197.5 -81t155.5 -167t58.5 -264.5q0 -166 -66.5 -328.5t-187.5 -299t-314.5 -220.5t-426.5 -84q-285 0 -456 135.5t-171 391.5zM528 532q0 -195 128 -295t352 -100q199 0 354.5 73 t242.5 187.5t130 238.5t43 247q0 117 -43 200.5t-116 126.5t-150.5 61.5t-165.5 18.5q-162 0 -296.5 -52t-220.5 -133t-146 -184.5t-86 -201t-26 -187.5zM655 592q0 16 58 237q6 27 18 38.5t45 11.5h43q59 0 60 -43q0 -8 -5 -29h609q0 4 3 14t4 13.5t4 11.5t5 11t7 8t10.5 7 t13.5 4.5t18 2.5h43q63 0 64 -45q0 -2 -58 -236q-8 -29 -21 -39t-42 -10h-39q-63 0 -63 41q0 6 4 31h-607q-2 -2 -5 -22.5t-17 -35t-47 -14.5h-41q-64 0 -64 43z" />
<glyph unicode="&#x399;" horiz-adv-x="944" d="M219 43q8 82 37 102q12 8 53 9h103l278 1114h-94q-59 0 -59 43q8 88 38 104q12 6 39 6h408q57 0 57 -43q-8 -82 -37 -102q-12 -8 -53 -8h-102l-279 -1114h94q59 0 60 -43q-8 -88 -39 -105q-12 -6 -37 -6h-407q-60 0 -60 43z" />
<glyph unicode="&#x39a;" horiz-adv-x="1925" d="M231 43q8 82 37 102q12 8 51 9h97l278 1114h-86q-59 0 -59 45q8 86 39 102q10 6 37 6h383q57 0 57 -43q-6 -82 -37 -102q-12 -8 -51 -8h-96l-152 -611l866 613q-25 18 -24 43q0 18 10 53q10 37 24.5 46t41.5 9h370q57 0 58 -43q0 -41 -23 -86q-14 -25 -49 -24h-29 q-96 0 -123.5 -4t-56.5 -25l-498 -352l-63 -43l389 -688h78q33 0 49 -2t28.5 -12.5t12.5 -30.5q0 -16 -10 -54q-6 -23 -11.5 -32t-17.5 -17t-37 -8h-330q-57 0 -57 43q0 6 10 53q10 35 22.5 46.5t45.5 11.5l-326 579q-12 -8 -32.5 -22.5t-50 -36t-104.5 -74.5t-169 -119 q-4 -4 -13.5 -9t-12.5 -7t-9 -10.5t-9 -14.5t-9 -24.5t-11.5 -38t-14.5 -54t-17.5 -72.5t-22.5 -97h84q61 0 62 -43q-8 -86 -39 -103q-16 -8 -39 -8h-381q-60 0 -60 43z" />
<glyph unicode="&#x39b;" horiz-adv-x="1728" d="M156 43q8 82 37 102q12 8 53 9q29 0 90 4l764 1235q35 55 94 55h70q35 0 46 -16.5t15 -49.5l145 -1228h76q63 0 64 -43q0 -41 -21 -82q-14 -29 -57 -29h-348q-61 0 -62 43q8 88 39 104q10 6 41 7h62l-76 647l-33 325l-4 74l-39 -74l-184 -307l-410 -663h21.5t21.5 -1 t17.5 -2t16.5 -4.5t12 -8.5t9 -12t2 -17q0 -8 -10 -54q-10 -41 -24.5 -49t-67.5 -8h-303q-57 0 -57 43z" />
<glyph unicode="&#x39c;" horiz-adv-x="2338" d="M240 43q8 82 36 102q12 8 54 9q35 0 96 4l276 1110h-86q-59 0 -59 43q8 82 35 102q12 8 41 8h289q37 0 52 -12t23 -55l195 -1057q4 -18 10 -55t10 -56l791 1155q4 4 11 16.5t10.5 15.5t10.5 12.5t10 12.5t10 9t12.5 7t14.5 4t18 4t20 1q6 0 15 -1t13 -1h244q57 0 57 -43 q-8 -88 -39 -104q-10 -6 -51 -6h-94l-278 -1114h81q63 0 64 -43q-6 -86 -37 -103q-16 -8 -41 -8h-360q-61 0 -62 43q10 84 39 102q12 8 51 9h95l272 1089h-2q-37 -61 -84 -127l-725 -1061q-37 -55 -100 -55h-33q-14 0 -24.5 1t-17.5 7t-11.5 7t-8.5 13.5t-5 14.5t-4 19.5 t-3 19.5l-188 1026q-18 88 -23 121h-2l-268 -1073q29 -2 84 -2q61 0 61 -43q0 -8 -10 -54q-12 -57 -63 -57h-365q-57 0 -57 43z" />
<glyph unicode="&#x39d;" horiz-adv-x="1945" d="M231 43q8 82 37 102q12 8 54 9q35 0 96 4l276 1110h-86q-59 0 -59 45q8 82 37 100q14 8 37 8h247q33 0 44.5 -10t29.5 -47l535 -1051l237 953q-29 2 -84 2q-61 0 -61 43q0 10 10 53q10 37 23.5 47t40.5 10h364q57 0 57 -43q-6 -82 -34 -102q-12 -8 -56 -8q-63 0 -94 -2 l-31 -123l-272 -1088q-8 -37 -23.5 -46t-46.5 -9h-39q-29 0 -41 7t-26 34l-569 1120l-252 -1005q29 -2 84 -2q61 0 61 -43q0 -8 -10 -54q-12 -57 -64 -57h-364q-58 0 -58 43z" />
<glyph unicode="&#x39e;" horiz-adv-x="1695" d="M186 45q0 12 41 227q10 51 62 52h45q59 0 59 -43q0 -2 -18 -115l162 -2h749l111 2q10 29 21.5 61.5t15.5 45t10 26.5t14 17t17.5 5.5t29.5 2.5h37q57 0 57 -41q0 -16 -34.5 -137t-53.5 -136q-12 -10 -43 -10h-1222q-60 0 -60 45zM461 1147q0 6 67 219q10 27 21.5 36 t38.5 9h1198q59 0 59 -45q0 -2 -33 -186q-6 -43 -17 -57.5t-48 -16.5h-25q-2 0 -9 -1t-11 -1q-59 0 -60 49q0 6 15 92l-96 2h-541l-358 -2q-6 -20 -15.5 -44.5t-12.5 -35t-9.5 -25t-10.5 -18.5t-12 -9t-16 -6t-23 -1h-43q-59 0 -59 41zM545 616q0 20 53 230q12 49 64 49h34 q70 0 70 -43l-6 -37h581q12 55 25.5 67.5t52.5 12.5h35q61 0 62 -41q0 -20 -17 -78q-43 -170 -49 -180q-12 -23 -51 -23h-47q-59 0 -60 43q0 6 1 11.5t3 12.5t2 11h-581q-6 -27 -9 -36t-10.5 -22t-18.5 -17.5t-30 -4.5q-2 0 -10 1t-10 1h-23q-35 0 -48 9t-13 34z" />
<glyph unicode="&#x39f;" horiz-adv-x="1871" d="M340 492q0 158 62.5 322.5t178 307t303 233.5t412.5 91q80 0 156 -14.5t156 -51.5t138 -94t96 -151.5t38 -214.5q0 -164 -62.5 -327t-178 -302t-302 -226.5t-409.5 -87.5q-270 0 -429 133.5t-159 381.5zM545 539q0 -111 39 -192t104.5 -122t135 -59.5t147.5 -18.5 q150 0 274.5 53.5t204.5 136.5t136 186.5t80 200.5t24 183q0 106 -39 183t-105.5 116t-138.5 56.5t-152 17.5q-145 0 -267 -47t-201.5 -122t-136 -173t-81 -198.5t-24.5 -200.5z" />
<glyph unicode="&#x3a0;" horiz-adv-x="1945" d="M227 43q8 82 37 102q12 8 51 9h97l278 1110h-82q-66 0 -65 43q8 82 37 102q12 8 41 8h1392q57 0 58 -45q-8 -80 -35 -100q-12 -8 -54 -8h-96l-2 -2l-274 -1108h86q59 0 59 -43q-8 -86 -39 -103q-16 -8 -39 -8h-391q-59 0 -59 43q8 82 37 102q12 8 53 9h96l277 1110h-803 l-2 -2l-277 -1108h86q61 0 62 -43q-8 -86 -39 -103q-16 -8 -39 -8h-391q-60 0 -60 43z" />
<glyph unicode="&#x3a1;" horiz-adv-x="1712" d="M229 43q8 82 37 102q12 8 51 9h97l278 1114h-86q-59 0 -59 45q8 84 39 102q10 6 37 6h696q82 0 156.5 -15t145.5 -50t113 -103.5t42 -162.5q0 -178 -148.5 -337t-419.5 -190q-47 -6 -143 -6h-354l-101 -403h86q61 0 62 -43q-8 -86 -39 -103q-16 -8 -39 -8h-391 q-60 0 -60 43zM745 711h322q291 0 410 116q102 98 102 234q0 70 -33 115t-96.5 63t-112.5 23.5t-125 5.5h-329z" />
<glyph unicode="&#x3a3;" horiz-adv-x="1826" d="M205 37q0 16 37 53l575 537q49 45 78 69l-363 576q-12 20 -12 36.5t6 34.5q14 59 29 68q12 10 41 10h1270q57 0 57 -49q0 -6 -7 -66.5t-19.5 -155.5t-16.5 -138q-6 -41 -19.5 -52.5t-45.5 -11.5h-46q-57 0 -57 49q0 2 8.5 73t8.5 116q0 35 -7.5 51t-15.5 18t-37 5 q-121 8 -301 8h-586l320 -506q23 -35 22 -49q0 -16 -39 -56l-530 -495h524q322 4 355 16q14 6 28 25q37 53 109 235q18 43 59 43h51q57 0 58 -39q0 -14 -146 -397q-10 -27 -23.5 -36t-41.5 -9h-1268q-55 0 -55 37z" />
<glyph unicode="&#x3a4;" horiz-adv-x="1740" d="M391 979q0 8 127 385q8 27 22.5 37t43.5 10h1253q59 0 59 -47q0 -10 -59 -373q-6 -35 -21.5 -44t-46.5 -9h-38q-59 0 -60 49q0 18 13.5 102.5t17.5 157.5q-51 8 -195 8h-227l-274 -1101h159q51 0 52 -43q0 -51 -23 -88q-12 -23 -53 -23h-514q-68 0 -68 43q8 84 35 102 q10 8 37 9h178l274 1101h-157q-8 0 -24.5 1t-22.5 1q-143 0 -220 -14q-27 -55 -52 -125.5t-40.5 -113.5t-25.5 -54q-14 -12 -41 -12h-43q-66 0 -66 41z" />
<glyph unicode="&#x3a5;" horiz-adv-x="1957" d="M477 1135q0 84 129 197.5t316 113.5q158 0 227.5 -112.5t69.5 -293.5q0 -14 -1 -42.5t-1 -43.5q16 41 38.5 89.5t72.5 124t107.5 134t142.5 101.5t177 43q127 0 213 -67.5t86 -176.5q0 -35 -6 -57.5t-20.5 -31.5t-24.5 -11t-29 -2h-43q-57 0 -57 33q0 4 2 17t2 21 q0 57 -46 92t-116 35q-147 0 -266 -146t-188 -402l-148 -596h117q23 0 34 -1t22 -11.5t11 -30.5q-8 -88 -38 -105q-10 -6 -37 -6h-471q-59 0 -60 43q8 84 37 102q14 8 35 9h154l135 546q47 170 47 310q0 129 -51.5 208.5t-161.5 79.5q-76 0 -138.5 -37.5t-89.5 -95.5 q-2 -6 -7 -17t-7 -15.5t-8 -12.5t-12.5 -11t-17.5 -6t-25 -3h-45q-60 0 -60 35z" />
<glyph unicode="&#x3a6;" horiz-adv-x="1826" d="M362 662q0 154 195 265t518 126h2l53 215h-120q-66 0 -66 45q8 86 39 102q10 6 37 6h461q57 0 57 -43q-8 -82 -37 -102q-14 -8 -33 -8h-153l-53 -215q248 -8 399 -85t151 -206q0 -113 -105 -203t-268 -138t-349 -52l-54 -215h117q23 0 34 -1t23.5 -11.5t12.5 -30.5 q-8 -88 -39 -105q-10 -6 -37 -6h-461q-59 0 -59 43q8 84 37 102q14 8 34 9h154l53 215q-141 8 -246.5 34.5t-160 58.5t-87 74t-41 69.5t-8.5 56.5zM555 684q0 -29 16.5 -53.5t55.5 -50t120.5 -42t196.5 -16.5l94 377q-250 -2 -366.5 -68.5t-116.5 -146.5zM1128 522 q178 0 296 38t158 83t40 94q0 29 -16.5 53.5t-56.5 51t-124 42t-202 15.5z" />
<glyph unicode="&#x3a7;" horiz-adv-x="1859" d="M145 43q0 41 23 86q14 25 53 25h47q41 0 64.5 1t39 8t19.5 9t19 16l575 557l-295 523h-121q-72 0 -71 45q0 6 10 51q8 39 25.5 49t64.5 10q8 0 31.5 -1t40.5 -1h278q55 0 56 -41q0 -18 -9 -55q-6 -27 -17 -40t-20.5 -15t-31.5 -2l211 -373l385 373q-47 2 -47 43 q0 12 8 49q10 37 22.5 49t46.5 12h361q57 0 57 -43t-20 -84q-12 -27 -56 -26h-16q-98 0 -121.5 -4t-48.5 -27l-494 -479l342 -604h121q72 0 72 -43q0 -8 -10 -54q-6 -23 -11.5 -32t-17.5 -17t-37 -8h-375q-55 0 -55 43q0 16 8 53q10 39 24.5 48.5t45.5 9.5l-258 456 l-469 -456q47 -2 47 -43q0 -16 -8 -50q-8 -39 -21.5 -50t-48.5 -11h-360q-58 0 -58 43z" />
<glyph unicode="&#x3a8;" horiz-adv-x="1957" d="M444 1004q0 12 13 61q8 35 22.5 44t44.5 9h62q100 0 141 -55t41 -135q0 -35 -12.5 -90.5t-12.5 -89.5q0 -203 267 -222l186 742h-121q-66 0 -65 45q8 86 39 102q10 6 36 6h461q57 0 58 -43q-8 -82 -37 -102q-14 -8 -33 -8h-154l-186 -742q92 10 166 39t116 60.5t74.5 80 t45 79t26.5 75.5t18 55q84 203 267 203h65q57 0 58 -43q0 -14 -9.5 -51t-21.5 -47q-8 -8 -52 -14.5t-86 -38t-65 -105.5q-123 -412 -641 -450l-53 -215h117q23 0 34 -1t23 -11.5t12 -30.5q-8 -88 -39 -105q-10 -6 -37 -6h-460q-59 0 -60 43q8 84 37 102q14 8 35 9h154 l53 217q-184 12 -298 97t-114 257q0 45 9.5 97t9.5 65q0 33 -29 53q-18 14 -46 19.5t-43.5 12.5t-15.5 32z" />
<glyph unicode="&#x3a9;" horiz-adv-x="1826" d="M238 57q0 8 1 95.5t1 109.5q0 45 11 60.5t58 15.5h25q41 0 52 -14.5t11 -49.5v-47q0 -8 1 -23.5t1 -23.5l203 -2q-10 113 -98 318.5t-88 337.5q0 258 231.5 435t614.5 177q180 0 309 -39t192.5 -103.5t90 -129t26.5 -134.5q0 -115 -65.5 -236.5t-149.5 -210.5 t-189.5 -208t-158.5 -207h117q57 0 69.5 6t30.5 39q6 12 16 33q29 59 42.5 70.5t52.5 11.5h24q61 0 62 -39q0 -4 -1 -8t-2.5 -10.5t-4.5 -11.5t-8 -16t-10 -22.5t-15.5 -31t-19.5 -40t-24.5 -51t-31.5 -63.5q-14 -29 -27.5 -37t-42.5 -8h-381q-61 0 -61 39q0 23 16 65 q33 90 104.5 193.5t148.5 192t148.5 178.5t117.5 183t46 177q0 45 -16 86t-59 83t-136.5 67.5t-228.5 25.5q-145 0 -261 -30.5t-183.5 -78.5t-112.5 -112.5t-61.5 -124t-16.5 -121.5q0 -111 75 -322.5t75 -338.5q0 -74 -12.5 -112t-22.5 -43t-33 -7h-395q-57 0 -57 57z" />
<glyph unicode="&#x3aa;" horiz-adv-x="944" d="M219 43q8 82 37 102q12 8 53 9h103l278 1114h-94q-59 0 -59 43q8 88 38 104q12 6 39 6h408q57 0 57 -43q-8 -82 -37 -102q-12 -8 -53 -8h-102l-279 -1114h94q59 0 60 -43q-8 -88 -39 -105q-12 -6 -37 -6h-407q-60 0 -60 43zM547 1626q0 57 46 103.5t105 46.5q45 0 77 -30 t32 -77q0 -57 -46 -103t-106 -46q-45 0 -76.5 29.5t-31.5 76.5zM958 1626q0 55 46.5 102.5t105.5 47.5q47 0 78 -32t31 -77q0 -57 -46.5 -102t-105.5 -45q-47 0 -78 30.5t-31 75.5z" />
<glyph unicode="&#x3ab;" horiz-adv-x="1957" d="M477 1135q0 84 129 197.5t316 113.5q158 0 227.5 -112.5t69.5 -293.5q0 -14 -1 -42.5t-1 -43.5q16 41 38.5 89.5t72.5 124t107.5 134t142.5 101.5t177 43q127 0 213 -67.5t86 -176.5q0 -35 -6 -57.5t-20.5 -31.5t-24.5 -11t-29 -2h-43q-57 0 -57 33q0 4 2 17t2 21 q0 57 -46 92t-116 35q-147 0 -266 -146t-188 -402l-148 -596h117q23 0 34 -1t22 -11.5t11 -30.5q-8 -88 -38 -105q-10 -6 -37 -6h-471q-59 0 -60 43q8 84 37 102q14 8 35 9h154l135 546q47 170 47 310q0 129 -51.5 208.5t-161.5 79.5q-76 0 -138.5 -37.5t-89.5 -95.5 q-2 -6 -7 -17t-7 -15.5t-8 -12.5t-12.5 -11t-17.5 -6t-25 -3h-45q-60 0 -60 35zM1032 1626q0 61 49 105.5t105 44.5q45 0 75.5 -30t30.5 -77q0 -55 -46 -102t-105 -47q-45 0 -77 29.5t-32 76.5zM1483 1626q0 61 49 105.5t104 44.5q45 0 76 -30t31 -77q0 -55 -46 -102 t-106 -47q-45 0 -76.5 29.5t-31.5 76.5z" />
<glyph unicode="&#x3ac;" horiz-adv-x="1427" d="M258 324q0 246 162 450.5t397 204.5q47 0 89 -13.5t71 -32t53.5 -52t38.5 -56t27.5 -64.5t17.5 -59.5t12 -56.5l9 -39q35 51 65.5 100.5t51 82t39 62.5t29.5 48.5t20.5 33.5t16.5 22.5t11 13.5t11 7t12.5 2t15.5 1h80q45 0 45 -25q0 -20 -144.5 -247.5t-232.5 -333.5 q29 -209 111 -209q27 0 47 27.5t63 27.5h51q55 0 56 -26q0 -53 -75 -128t-175 -75q-168 0 -225 215q-223 -217 -426 -217q-55 0 -107.5 15t-104 51t-82 106t-30.5 164zM426 342q0 -180 188 -180q156 0 340 209q25 29 25 65q0 43 -14 137q-18 137 -65.5 184.5t-113.5 47.5 q-104 0 -180 -55.5t-112.5 -137.5t-52 -150.5t-15.5 -119.5zM911 1126q0 14 22.5 47t110.5 146q57 74 95 121q2 2 10 14t12 17.5t13.5 16.5t17.5 16t18.5 12.5t21.5 10.5t23 3q39 0 60.5 -24.5t21.5 -53.5q0 -33 -25.5 -59.5t-181.5 -161.5q-86 -74 -141 -123 q-23 -18 -41 -18q-14 0 -25.5 10t-11.5 26z" />
<glyph unicode="&#x3ad;" horiz-adv-x="1138" d="M219 219q0 84 57.5 165t137.5 130q-74 82 -74 178q0 84 48 145.5t131 93.5t170 45t183 13q123 0 286 -28.5t163 -67.5q0 -10 -74 -133q-20 -31 -35 -31q-12 0 -67 22.5t-143.5 44t-180.5 21.5q-102 0 -179 -17.5t-115 -40t-61.5 -51t-28.5 -43t-5 -22.5q0 -23 34 -38 t66 -19l35 -2q12 0 68.5 11t126.5 11q92 0 92 -76q0 -35 -30.5 -73.5t-98.5 -38.5q-61 0 -115.5 11t-68.5 11q-10 0 -27 -4q-96 -18 -128 -38.5t-32 -78.5q0 -170 299 -169q131 0 243 35.5t174.5 71.5t76.5 36q18 0 18 -17q0 -18 -71 -135q-16 -25 -26.5 -34t-49.5 -29 q-188 -100 -395 -101q-217 0 -310.5 75t-93.5 167zM803 1126q0 14 19.5 42t97.5 128q68 86 112 146q2 2 14.5 19.5t19.5 25.5t20.5 20.5t28.5 17.5t32 5q31 0 55.5 -21.5t24.5 -56.5q0 -39 -56 -90q-301 -260 -315 -268q-8 -4 -16 -4q-16 0 -26.5 10t-10.5 26z" />
<glyph unicode="&#x3ae;" d="M326 823q0 55 54 110.5t132 55.5q31 0 59.5 -7t70.5 -48t56 -113q72 86 137.5 127t147.5 41q113 0 207 -77.5t94 -254.5q0 -78 -49 -278l-174 -696q-27 -102 -109 -103q-31 0 -52 20.5t-21 51.5q0 10 7 42t25.5 100.5t40 148.5t59.5 222t74 284q29 111 29 172 q0 92 -52 141t-114 49q-49 0 -102 -57.5t-111.5 -175t-102.5 -224t-110 -274.5q-43 -102 -114 -103q-29 0 -50.5 19.5t-21.5 48.5t115 309q98 233 98 363q0 82 -57 100q-39 -61 -95 -61q-31 0 -51 18t-20 49zM862 1126q0 18 108 158q70 90 121 156q2 2 12.5 16t15.5 20.5 t16 18.5t20.5 18.5t22.5 11.5t28 5q31 0 56.5 -22.5t25.5 -55.5t-30 -64.5t-175 -156.5q-86 -74 -141 -121q-25 -20 -41.5 -20t-27.5 11t-11 25z" />
<glyph unicode="&#x3af;" horiz-adv-x="714" d="M260 199q0 47 19 129l145 600l5 20t6 13.5t14.5 13.5t23.5 4h105q49 0 49 -27q0 -14 -6 -41l-177 -608q-8 -29 -8 -43q0 -31 22.5 -50.5t57.5 -19.5q41 0 76 21.5t56.5 45.5t25.5 26q12 4 21.5 -6.5t9.5 -32.5q0 -96 -81 -176t-184 -80q-86 0 -133 58.5t-47 152.5z M465 1126q0 18 108 158q70 90 121 156q2 2 12.5 16t15.5 20.5t16.5 18.5t20.5 18.5t22.5 11.5t27.5 5q33 0 57.5 -21.5t24.5 -56.5q0 -33 -25.5 -59.5t-181.5 -161.5q-86 -74 -141 -123q-23 -18 -41 -18q-14 0 -25.5 10t-11.5 26z" />
<glyph unicode="&#x3b0;" d="M360 348q0 55 23 157.5t23 190.5q0 66 -11.5 127.5t-11.5 69.5q0 41 34 69.5t72 28.5q49 0 66.5 -45t17.5 -160q0 -125 -30.5 -248.5t-30.5 -160.5q0 -111 78 -174.5t188 -63.5q184 0 330.5 156t146.5 362q0 84 -30.5 158t-30.5 86q0 31 31.5 60.5t68.5 29.5t62.5 -39 t36 -96t14.5 -99t4 -73q0 -299 -182 -497.5t-465 -198.5q-186 0 -295 96t-109 264zM629 1227q0 45 36.5 77.5t75.5 32.5q37 0 58.5 -23.5t21.5 -60.5q0 -25 -4 -36q10 12 291 370q2 2 9 11.5t10 13.5t9.5 12t11.5 12t12 11.5t13.5 10.5t14.5 6t16 5t19 2q31 0 55.5 -22.5 t24.5 -55.5q0 -31 -27 -61q-12 -12 -352 -334q-18 -16 -35 -33q-49 -47 -70 -47q-37 0 -37 41v12q-37 -25 -69.5 -24.5t-58 23t-25.5 57.5zM1047 1227q0 41 32.5 75.5t77.5 34.5q39 0 61.5 -23.5t22.5 -58.5q0 -45 -37 -76.5t-76 -31.5q-35 0 -58 23.5t-23 56.5z" />
<glyph unicode="&#x3b1;" horiz-adv-x="1427" d="M258 324q0 246 162 450.5t397 204.5q47 0 89 -13.5t71 -32t53.5 -52t38.5 -56t27.5 -64.5t17.5 -59.5t12 -56.5l9 -39q35 51 65.5 100.5t51 82t39 62.5t29.5 48.5t20.5 33.5t16.5 22.5t11 13.5t11 7t12.5 2t15.5 1h80q45 0 45 -25q0 -20 -144.5 -247.5t-232.5 -333.5 q29 -209 111 -209q27 0 47 27.5t63 27.5h51q55 0 56 -26q0 -53 -75 -128t-175 -75q-168 0 -225 215q-223 -217 -426 -217q-55 0 -107.5 15t-104 51t-82 106t-30.5 164zM426 342q0 -180 188 -180q156 0 340 209q25 29 25 65q0 43 -14 137q-18 137 -65.5 184.5t-113.5 47.5 q-104 0 -180 -55.5t-112.5 -137.5t-52 -150.5t-15.5 -119.5z" />
<glyph unicode="&#x3b2;" d="M70 -352q0 2 92 366l229 914q16 68 28.5 105.5t49.5 103t88 118.5q172 178 440 179q137 0 196.5 -64.5t59.5 -150.5q0 -174 -155 -318q172 -106 172 -317q0 -233 -171 -414.5t-444 -181.5q-176 0 -307 104q-4 -16 -14 -61t-31.5 -137.5t-44.5 -188.5l-2 -12 q-2 -10 -5 -19.5t-8 -24t-14.5 -26.5t-20.5 -22.5t-27.5 -16.5t-37.5 -6q-31 0 -52 19.5t-21 50.5zM391 260q125 -115 287 -115q172 0 298 128t126 282q0 70 -31 123t-73 76.5t-73.5 35t-47.5 11.5q-6 0 -31 -3t-47 -3q-41 0 -61.5 19.5t-20.5 49.5q0 35 26.5 69t87.5 34 q10 0 24.5 -1t21.5 -1q70 0 139 77.5t69 145.5q0 43 -34.5 64.5t-83.5 21.5q-170 0 -295 -127q-49 -51 -82 -122t-50.5 -139.5t-61.5 -263t-87 -362.5z" />
</font>
</defs>
</svg>
