<?xml version="1.0" standalone="no"?>
<!DOCTYPE svg PUBLIC "-//W3C//DTD SVG 1.1//EN" "http://www.w3.org/Graphics/SVG/1.1/DTD/svg11.dtd" >
<svg xmlns="http://www.w3.org/2000/svg" xmlns:xlink="http://www.w3.org/1999/xlink" version="1.1">
<metadata></metadata>
<defs>
<font id="cmu_serif_upright_ituprightIt" horiz-adv-x="1136" >
<font-face units-per-em="2048" ascent="1638" descent="-410" />
<missing-glyph horiz-adv-x="796" />
<glyph unicode="&#xfb00;" horiz-adv-x="1366" d="M16 -248q0 43 28 70.5t67 27.5t66.5 -27.5t27.5 -66.5q0 -78 -88 -94v-2q57 -35 104 -35q86 0 86 162q0 106 -27.5 544.5t-29.5 487.5h-178v62h174q-2 27 -5 76t-5.5 88.5t-2.5 74.5q0 145 67 235.5t249 90.5h2q121 0 196.5 -48t75.5 -126q0 -41 -26.5 -69.5t-67.5 -28.5 q-39 0 -65.5 26.5t-26.5 67.5q0 76 76 92q-63 39 -158 39q-53 0 -100 -19.5t-66 -54.5q-16 -29 -16 -117q0 -66 16 -327h516q-14 211 -14 258q0 109 22 170q18 51 67.5 93t127.5 42q90 0 158.5 -49t68.5 -125q0 -43 -28.5 -69.5t-65.5 -26.5q-39 0 -66.5 26.5t-27.5 67.5 q0 80 84 94q-61 37 -111 37q-55 0 -74.5 -33t-19.5 -68l2 -12q0 -61 10.5 -226t10.5 -179h213v-62h-209q2 -27 22.5 -347t20.5 -423q0 -154 -26 -244t-101 -155q-82 -72 -185 -72q-100 0 -171.5 50t-71.5 126q0 43 27.5 68.5t64.5 25.5t65.5 -23.5t28.5 -68.5q0 -76 -80 -94 q74 -37 135 -37q72 0 119 54.5t53 111.5q4 33 4 103q0 86 -12 317t-24 420l-13 188h-516q43 -639 43 -801q0 -438 -213 -438q-86 0 -146.5 51t-60.5 121z" />
<glyph unicode="&#xfb01;" horiz-adv-x="1251" d="M16 -248q0 43 29 70.5t66 27.5q39 0 66.5 -27.5t27.5 -66.5q0 -78 -88 -94v-2q57 -35 104 -35q86 0 86 162q0 117 -18 408l-39 624h-178v62h174q-12 197 -13 219q0 199 97.5 272.5t292.5 73.5q201 0 279.5 -58.5t78.5 -136.5q0 -43 -26.5 -70.5t-69.5 -27.5 q-37 0 -64.5 26.5t-27.5 67.5q0 12 2 22.5t6 18.5t9 15.5t11 12.5t12.5 9t12.5 6l12 4t10 3t9 1l4 2q-100 57 -256 58q-86 0 -139.5 -15.5t-76 -51.5t-28.5 -69.5t-6 -95.5q0 -86 14 -286h541q33 0 42 -9.5t9 -31.5v-600q0 -215 98 -215q39 0 59.5 39.5t22.5 89t4 95.5t9 54 q8 8 20 8t18 -10q6 -8 7 -37q0 -63 -4.5 -105t-17.5 -88t-44 -70t-80 -24q-29 0 -61.5 10.5t-75.5 36t-70.5 83t-27.5 139.5v573h-445q43 -709 43 -801q0 -438 -213 -438q-84 0 -145.5 51t-61.5 121z" />
<glyph unicode="&#xfb02;" horiz-adv-x="1308" d="M16 -248q0 43 28 69.5t67 26.5t66.5 -26.5t27.5 -65.5q0 -78 -88 -94v-2q57 -35 104 -35q86 0 86 162q0 115 -27.5 554t-29.5 478h-178v62h174q-12 233 -13 235q0 184 90.5 256t260.5 74h2q279 0 307 -166v90q0 35 9 43t42 8h43q33 0 41 -9t8 -36v-1134 q0 -84 17.5 -136.5t37 -66.5t44.5 -14q90 0 90 241q0 35 10 41q4 4 14 4q27 0 27 -41q0 -61 -3 -102t-16.5 -90t-44 -75t-79.5 -26q-27 0 -61 9.5t-78 35t-72.5 85t-28.5 143.5v569h-500q43 -639 43 -801q0 -438 -213 -438q-86 0 -146.5 51t-60.5 121zM373 1182 q0 -55 16 -301h504v376q-16 -82 -94 -81q-41 0 -66.5 26.5t-25.5 65.5q0 72 73 92v2q-74 37 -192 37h-4q-156 0 -195 -82q-16 -37 -16 -135z" />
<glyph unicode="&#xfb03;" horiz-adv-x="1961" d="M16 -248q0 43 28 70.5t67 27.5t66.5 -27.5t27.5 -66.5q0 -78 -88 -94v-2q57 -35 104 -35q86 0 86 162q0 106 -27.5 544.5t-29.5 487.5h-178v62h174q-2 27 -5 81t-5.5 94t-2.5 64q0 154 75 239t267 87q168 0 237 -54.5t69 -121.5q0 -43 -28 -69.5t-67 -26.5 q-41 0 -67.5 27.5t-26.5 66.5q0 70 76 94q-74 37 -184 37q-154 0 -195 -82q-16 -37 -16 -131q0 -59 16 -305h539q-10 160 -10 215q0 113 31.5 185.5t93 107t124 46t152.5 11.5q215 0 294 -59.5t79 -137.5q0 -43 -28 -69.5t-66.5 -26.5t-66.5 26.5t-28 67.5q0 39 24.5 64.5 t63.5 29.5q-96 57 -272 58q-168 0 -215 -54.5t-47 -181.5q0 -55 6 -156.5t8 -125.5h569q33 0 42.5 -9.5t9.5 -31.5v-602q0 -213 98 -213q51 0 69.5 62.5t19.5 135t7 80.5q8 8 19.5 8t17.5 -10q6 -8 6 -29q0 -66 -3 -105.5t-15.5 -89.5t-44 -75t-80.5 -25q-29 0 -63.5 11.5 t-76.5 37t-70 83t-28 137.5v573h-473q2 -35 22.5 -348t20.5 -422q0 -123 -19.5 -206t-39 -114.5t-53.5 -64.5q-90 -86 -209 -86q-109 0 -182.5 49t-73.5 127q0 41 27.5 67.5t66.5 26.5t65.5 -25.5t26.5 -66.5q0 -74 -78 -94q74 -37 146 -37q74 0 125 55.5t57 108.5 q4 35 4 107q0 55 -5 165.5t-12.5 235.5t-13.5 235.5t-12 196.5t-6 90h-539q43 -641 43 -801q0 -438 -213 -438q-78 0 -142.5 49t-64.5 123z" />
<glyph unicode="&#xfb04;" horiz-adv-x="1990" d="M16 -248q0 43 28 70.5t67 27.5t66.5 -27.5t27.5 -66.5q0 -78 -88 -94v-2q57 -35 104 -35q86 0 86 162q0 106 -27.5 544.5t-29.5 487.5h-178v62h174q-2 27 -5 76t-5.5 88.5t-2.5 74.5q0 147 67 235.5t249 90.5q123 0 198.5 -48t75.5 -126q0 -41 -26.5 -69.5t-67.5 -28.5 q-39 0 -65.5 26.5t-26.5 67.5q0 76 76 92q-63 39 -158 39q-53 0 -100 -19.5t-66 -54.5q-16 -29 -16 -117q0 -154 16 -327h539q-12 141 -13 239q0 182 92.5 254t264.5 72q283 0 303 -166h2v90q0 35 8 43t41 8h45q33 0 41 -9t8 -36v-1134q0 -217 99 -217q53 0 69.5 63.5 t18.5 177.5q0 35 12 41q4 4 14 4q25 0 25 -41q0 -61 -3 -102t-16.5 -90t-44 -75t-79.5 -26q-20 0 -46 5.5t-62 21.5t-63.5 45t-47 81t-19.5 120v569h-502q2 -35 22.5 -349t20.5 -423q0 -123 -19.5 -207t-40 -114.5t-52.5 -61.5q-90 -86 -209 -86q-98 0 -177 46t-79 130 q0 41 27.5 67.5t66.5 26.5t65.5 -25.5t26.5 -66.5q0 -74 -78 -94q74 -37 146 -37q74 0 123 53.5t57 108.5q6 53 6 109q0 88 -12.5 318t-24.5 417l-12 188h-539q43 -641 43 -801q0 -133 -20.5 -226t-54 -136t-66.5 -59.5t-70 -16.5q-86 0 -147.5 51t-61.5 121zM1057 1176 q0 -49 14 -295h506v376h-2q-16 -82 -92 -81q-41 0 -67.5 26.5t-26.5 65.5q0 70 75 92v2q-88 37 -192 37q-162 0 -201 -84q-14 -35 -14 -139z" />
<glyph horiz-adv-x="0" />
<glyph unicode="&#xd;" horiz-adv-x="681" />
<glyph unicode=" "  horiz-adv-x="796" />
<glyph unicode="&#x09;" horiz-adv-x="796" />
<glyph unicode="&#xa0;" horiz-adv-x="796" />
<glyph unicode="!" horiz-adv-x="681" d="M231 1362q0 47 32 75.5t77 28.5q43 0 76 -28.5t33 -75.5q0 -4 -1.5 -12.5t-1.5 -12.5l-77 -905q0 -47 -29 -47q-25 0 -29 45l-78 901q0 4 -1 14.5t-1 16.5zM233 109q0 43 32 75.5t77 32.5q47 0 78 -32.5t31 -75.5t-32 -76t-77 -33q-47 0 -78 33t-31 76z" />
<glyph unicode="&#x22;" d="M301 1360q0 51 29.5 72.5t64.5 21.5q39 0 66.5 -24.5t27.5 -67.5l-71 -651h-47q-4 35 -21.5 195.5t-33 302t-15.5 151.5zM643 1362q0 43 27.5 67.5t66.5 24.5q43 0 68.5 -25.5t25.5 -68.5q0 -10 -15 -152.5t-32.5 -302.5t-21.5 -194h-47q-2 2 -37 321.5t-35 329.5z" />
<glyph unicode="#" horiz-adv-x="1820" d="M174 313.5q0 22.5 53 22.5h365l2 2l94 350h-467q-47 0 -47 22.5t47 22.5h481v2q2 14 10.5 39t10.5 39l145 530q2 4 6.5 19.5t6.5 22t6 15.5t9 13t11 4q20 0 21 -24q0 -8 -35 -140l-143 -520h440l2 2q4 14 10 39t10 39l146 530q2 4 6 19.5t6 22t6 15.5t9.5 13t11.5 4 q18 0 18 -24q0 -8 -35 -140l-141 -520h352q51 0 51 -22.5t-53 -22.5h-364v-2l-97 -350h467q47 0 47 -22.5t-47 -22.5h-479l-2 -2q-12 -53 -20 -80l-146 -528q-2 -4 -6 -19.5t-6 -22t-6 -15.5t-9.5 -13t-11.5 -4q-18 0 -18 24q0 8 35 140l141 520h-440v-2q-4 -14 -12.5 -39 t-10.5 -39l-145 -530q-2 -4 -6 -19.5t-6.5 -22t-6.5 -15.5t-9 -13t-11 -4q-18 0 -19 24q0 8 35 140l144 520h-355q-51 0 -51 22.5zM641 336h440v2l97 350h-441l-2 -2z" />
<glyph unicode="$" d="M170 362q0 51 27.5 78t66.5 27q37 0 65.5 -24.5t28.5 -67.5q0 -41 -25.5 -67.5t-68.5 -26.5q-8 0 -33 4q29 -106 98.5 -169t207.5 -75v612q-90 23 -129 39q-96 41 -167 135.5t-71 223.5q0 137 92 253.5t275 139.5v92h63v-92q88 -6 155.5 -35t106.5 -67.5t62.5 -88 t32 -89.5t8.5 -79q0 -55 -30 -78.5t-65 -23.5q-39 0 -66.5 27.5t-27.5 66.5q0 41 25.5 66.5t70.5 25.5q18 0 29 -2q-51 190 -301 213v-555q143 -33 219 -98q61 -53 101 -131q45 -90 45 -197q0 -160 -101.5 -282.5t-263.5 -136.5v-95h-63v92q-111 8 -189 52.5t-113.5 108 t-50 117.5t-14.5 107zM276 1112q0 -90 52.5 -153.5t122.5 -92.5q37 -14 86 -24v538q-113 -14 -187 -89t-74 -179zM600 41q117 14 187.5 100t70.5 197q0 98 -51 171t-125 103q-12 6 -25.5 10.5t-31 8.5t-25.5 6v-596z" />
<glyph unicode="%" horiz-adv-x="1820" d="M170 1122.5q0 182.5 93 298t208 115.5q43 0 84 -23.5t81 -56.5t87 -65.5t119.5 -56t163.5 -23.5q61 0 117.5 13t94 32.5t73.5 47.5t54.5 47t37 40.5t20.5 24.5q16 16 35 16q37 0 37 -37q0 -18 -52 -94l-993 -1477q-27 -35 -49 -35q-16 0 -27.5 11.5t-11.5 27.5 q0 14 55 97l885 1314q-133 -74 -276 -73q-166 0 -312 88q43 -113 43 -232q0 -170 -74.5 -290.5t-191.5 -120.5q-113 0 -207 114.5t-94 297zM299 1108q0 -188 53.5 -269t120.5 -81q76 0 144.5 98t68.5 266q0 174 -68.5 270.5t-142.5 96.5q-68 0 -122 -83t-54 -282v-16z M1079 299q0 180 92.5 296t209 116t191.5 -123t75 -291q0 -166 -76 -288t-191 -122q-123 0 -212 119t-89 293zM1208 283q0 -188 53.5 -269.5t120.5 -81.5q76 0 144.5 98.5t68.5 266.5q0 174 -68.5 270.5t-142.5 96.5q-68 0 -122 -83t-54 -280v-18z" />
<glyph unicode="&#x26;" horiz-adv-x="1705" d="M170 457q0 180 109 334q-80 115 -80 260q0 176 104.5 295.5t245.5 119.5q137 0 220 -97t83 -212q0 -45 -27.5 -71.5t-66.5 -26.5q-41 0 -67.5 26.5t-26.5 65.5t26.5 66.5t67.5 27.5q18 0 26 -2q-33 94 -99.5 136t-129.5 42q-92 0 -152 -90q-61 -90 -61 -282 q0 -102 18 -177q100 72 203 72q80 0 127 -48t47 -108q0 -57 -46 -106t-128 -49q-96 0 -196 65q-25 -90 -25 -231q0 -127 48 -222t127 -146.5t164 -75t177 -23.5q137 0 241.5 34t165 85t98.5 119.5t50 129t12 121.5q0 39 -7 76t-13 63.5t-26.5 62.5t-29 51.5t-39 52t-37.5 44 t-44 46.5t-39 41h-2q-18 -12 -60.5 -39t-65 -43.5t-50 -42t-39.5 -54t-12 -61.5q0 -43 26 -96h2q14 76 84 76q37 0 61.5 -26t24.5 -60.5t-24.5 -59t-63.5 -24.5q-68 0 -115 57t-47 133q0 55 32 104.5t64.5 74t96 65.5t86.5 57q129 98 172 266q-8 -2 -25 -2q-37 0 -61.5 23.5 t-24.5 60.5t24.5 61.5t59.5 24.5q33 0 59.5 -21.5t26.5 -74.5q0 -37 -8 -83t-53 -134t-125 -152q129 -127 186.5 -229t57.5 -235q0 -78 -17.5 -150t-61.5 -143.5t-112.5 -125t-179.5 -86t-250 -32.5q-289 0 -487.5 144.5t-198.5 357.5zM408 780q0 -25 49 -62.5t108 -37.5 q49 0 85 29.5t36 78.5q0 47 -35 78t-84 31q-59 0 -109 -45t-50 -72z" />
<glyph unicode="'" horiz-adv-x="681" d="M246 1362q0 51 29.5 71.5t64.5 20.5q43 0 68.5 -24.5t25.5 -67.5q0 -16 -14 -146.5t-32.5 -287t-22.5 -217.5h-48q-4 61 -22.5 217.5t-33.5 287t-15 146.5z" />
<glyph unicode="(" horiz-adv-x="909" d="M260 512q0 145 23.5 279.5t60.5 233.5t84 185t93 144.5t88 99.5t69 59.5t35 18.5q20 0 20 -16q0 -8 -35.5 -47t-88 -112t-104.5 -177.5t-88 -282.5t-36 -389q0 -164 24.5 -310.5t58.5 -243.5t79 -182t79.5 -127t67.5 -79t35 -39q8 -10 5 -22.5t-17.5 -12.5t-61.5 37 t-113.5 122t-128 197.5t-105.5 289.5t-44 374z" />
<glyph unicode=")" horiz-adv-x="909" d="M174 -492q0 8 36 47t88 112t104.5 178.5t88 282.5t35.5 390q0 209 -35.5 384t-87 279.5t-103.5 176.5t-88 109.5t-36 48.5q0 16 19 16q14 0 60 -37t113.5 -121t129 -196.5t105.5 -288.5t44 -375q0 -172 -31.5 -325.5t-76.5 -258t-106.5 -194.5t-107.5 -138.5t-94 -86.5 q-27 -18 -36 -19q-21 0 -21 16z" />
<glyph unicode="*" d="M193 905q0 27 27.5 45.5t172.5 85.5q78 35 127 60q-293 139 -310 152.5t-17 37.5q0 20 16 37.5t39 17.5q16 0 49 -22.5t246 -179.5q-4 53 -12.5 134t-13.5 135t-5 67q0 31 18.5 45t37 14t37 -14.5t18.5 -44.5q0 -14 -5.5 -67.5t-12.5 -133.5t-11 -135q51 39 127 94 q111 82 131 95t37 13q20 0 37.5 -17t17.5 -38q0 -27 -27.5 -45t-173.5 -86q-78 -35 -127 -59q293 -139 310.5 -152.5t17.5 -38.5q0 -23 -17.5 -40t-37.5 -17q-16 0 -46 20.5t-249 182.5q4 -51 11 -133t12.5 -136.5t5.5 -66.5q0 -31 -18.5 -45.5t-37 -14.5t-37 14.5 t-18.5 45.5q0 14 5 67.5t13.5 133t12.5 135.5q-268 -197 -283 -201q-4 -2 -12 -2q-20 0 -37.5 17t-17.5 40z" />
<glyph unicode="+" horiz-adv-x="1705" d="M174 512q0 23 47 23h608v608q0 47 23 47q25 0 25 -47q0 -4 -1.5 -14.5t-1.5 -16.5v-577h578q2 0 12.5 1t16.5 1q49 0 49 -25t-49 -25q-6 0 -16.5 1t-12.5 1h-578v-577q0 -6 1.5 -16.5t1.5 -14.5q0 -47 -25 -47q-23 0 -23 47v608h-608q-47 0 -47 23z" />
<glyph unicode="," horiz-adv-x="681" d="M231 109q0 45 31 76.5t78 31.5q70 0 100.5 -64.5t30.5 -148.5q0 -102 -39 -199.5t-82 -147.5t-63.5 -50t-20.5 18q0 10 24.5 41t54.5 69t54.5 112.5t24.5 160.5v29q-41 -37 -84 -37q-45 0 -77 31t-32 78z" />
<glyph unicode="-" horiz-adv-x="796" d="M78 381v121h545v-121h-545z" />
<glyph unicode="." horiz-adv-x="681" d="M231 109q0 43 32 75.5t77 32.5q47 0 78 -32.5t31 -75.5t-32 -76t-77 -33q-47 0 -78 33t-31 76z" />
<glyph unicode="/" d="M174 -485q0 10 8 34l707 1889q33 86 43 92q4 2 10 2q18 0 19 -23q0 -16 -7 -28l-723 -1932q-29 -53 -38 -57q-19 0 -19 23z" />
<glyph unicode="0" d="M141 647q0 80 2 136.5t18.5 155.5t45.5 168t88 136.5t143 97.5q57 23 129 23q172 0 281 -125q147 -166 147 -580q0 -63 -2 -109t-10 -124t-27.5 -138.5t-50.5 -125t-84 -111.5t-123 -74q-59 -23 -131 -22q-168 0 -276 121q-150 163 -150 571zM313 602q0 -360 58 -469 q68 -131 196.5 -131t196.5 129q27 51 41 148.5t16 181.5t2 231q0 233 -14 347t-53 171q-70 106 -187 107q-131 0 -200 -129q-55 -104 -56 -496v-90z" />
<glyph unicode="1" d="M240 1038v64q133 2 227 78.5t147 185.5q31 0 39.5 -12.5t8.5 -44.5v-1147q0 -66 37.5 -82.5t185.5 -16.5h30v-63q-174 6 -346 6q-35 0 -317 -6v63h27q147 0 188 14.5t41 80.5q0 4 -1 12t-1 12v969q-125 -111 -266 -113z" />
<glyph unicode="2" d="M143 889q0 109 37 213t125 183t209 79q184 0 316.5 -136t132.5 -321q0 -72 -35 -137t-96.5 -119.5t-118 -93.5t-130 -83t-100.5 -64q-145 -106 -202 -265q35 14 67 15q72 0 221.5 -27t212.5 -27q94 0 147.5 61.5t63.5 141.5q2 45 29 45q25 0 25 -39q0 -47 -12.5 -103 t-38 -116.5t-79 -100.5t-124.5 -40q-84 0 -233.5 80t-205.5 80q-10 0 -30 -4q-31 -8 -47.5 -34t-18.5 -52.5t-9 -47t-24 -20.5q-25 0 -24 41q0 35 8 78q10 57 31.5 111.5t50 95.5t57.5 73.5t62.5 59t55 43t45.5 31t26 16.5q254 174 254 403q0 98 -20.5 174t-50.5 119 t-70 70.5t-74.5 37t-67.5 9.5q-145 0 -229 -136t-84 -292q0 -84 28.5 -120t63.5 -36q49 0 95 58.5t46 169.5q0 47 -24.5 87t-24.5 48q0 20 18 20q25 0 51.5 -51t26.5 -104q0 -113 -53 -194t-137 -81q-61 0 -101.5 52.5t-40.5 148.5z" />
<glyph unicode="3" d="M141 287q0 53 31 76.5t64 23.5q39 0 66.5 -25.5t27.5 -66.5q0 -39 -27 -66.5t-67 -27.5q-16 0 -27 2q33 -78 91 -126t107.5 -61.5t100.5 -13.5q45 0 87 12.5t90 45t78 103t30 171.5q0 147 -54 225q-68 96 -194 96h-62q-37 0 -45 13q-4 8 -4 20t8.5 20.5t49.5 8.5h57 q147 0 209.5 86t62.5 211q0 166 -79.5 235.5t-178.5 69.5q-133 0 -237.5 -85t-104.5 -206q0 -55 29 -96t76 -41q37 0 69.5 26.5t32.5 67.5q0 37 -24.5 71t-24.5 42q0 16 13.5 19t29.5 -11q53 -53 53 -121q0 -63 -46 -102t-103 -39q-68 0 -112 55t-44 131q0 137 114.5 235.5 t282.5 98.5q170 0 284 -105.5t114 -244.5q0 -104 -63.5 -194.5t-194.5 -143.5q123 -43 190.5 -140.5t67.5 -203.5q0 -156 -133.5 -266.5t-317.5 -110.5q-164 0 -268.5 101.5t-104.5 230.5z" />
<glyph unicode="4" d="M88 39q0 20 13.5 33.5t36 28t67.5 62.5t94 122q96 143 155.5 327.5t73 314.5t19.5 251.5t6 126.5q4 25 23.5 42t46.5 17q72 0 71 -88q0 -303 -103.5 -604t-318.5 -537q12 0 37 1t37 1q45 0 88 -6t66.5 -12t81 -24.5t84.5 -26.5v338q0 88 71.5 88t71.5 -91v-368 q12 -2 37 -2q53 0 105.5 13t58.5 13q14 0 24 -10t10 -20q0 -25 -68.5 -42.5t-123.5 -17.5q-8 0 -22.5 1t-20.5 1v-280q0 -88 -71.5 -88t-71.5 90v309q-27 6 -90.5 27.5t-114.5 33t-109 11.5q-63 0 -102 -6.5t-49.5 -9.5t-30.5 -21.5t-27 -22.5q-10 -8 -22 -8 q-14 0 -23.5 10.5t-9.5 22.5z" />
<glyph unicode="5" d="M158 332q0 57 32.5 81.5t69.5 24.5q41 0 69.5 -28.5t28.5 -71.5t-28.5 -71.5t-71.5 -28.5q-23 0 -35 4q37 -117 126 -173.5t173 -56.5q92 0 148.5 50.5t83.5 107.5q39 84 39 260q0 117 -18.5 198t-78.5 138q-53 49 -114 49q-158 0 -254 -131q-20 -29 -39 -29 q-27 0 -27 56v596q0 55 25 55q6 0 44 -15.5t104.5 -31t144.5 -15.5q76 0 143.5 15.5t105 31t43.5 15.5q20 0 21 -19q0 -25 -45 -72.5t-141.5 -95t-204.5 -47.5q-80 0 -176 29v-401q113 104 260 104q170 0 279.5 -136t109.5 -312q0 -197 -134 -327t-313 -130q-164 0 -267 117 t-103 260z" />
<glyph unicode="6" d="M141 651q0 315 162 514t377 199q133 0 197.5 -67.5t64.5 -147.5q0 -57 -29.5 -81t-66.5 -24t-64.5 27t-27.5 68q0 39 26.5 66.5t69.5 27.5q2 0 6 -1t8 -1q-63 82 -180 82q-152 0 -256 -152q-66 -96 -84 -210.5t-18 -276.5h2q78 199 260 198q160 0 280 -129 q125 -137 125 -329q0 -180 -114 -312q-129 -147 -308 -147q-57 0 -111 16.5t-113.5 63.5t-103.5 120.5t-73 201.5t-29 294zM332 461q0 -195 37 -291q23 -57 73 -107.5t129 -50.5q135 0 201 133q35 72 35 271v43q0 156 -31 227q-63 141 -196 141q-113 0 -180.5 -101 t-67.5 -265z" />
<glyph unicode="7" d="M90 889l107 442q8 31 28 31q23 0 23 -23q0 -14 -13.5 -65t-17.5 -82q117 172 287 172q55 0 89 -38t46 -82t37.5 -82t66.5 -38q59 0 110.5 50.5t85.5 114t36 65.5q12 8 18 8q23 0 23 -21q0 -8 -19.5 -51t-50.5 -121.5t-62.5 -184t-60 -270.5t-41.5 -352q-6 -82 -7 -153.5 t-1 -103t-1 -59.5t-6 -39t-19 -25q-27 -27 -66 -27q-33 0 -62.5 22.5t-29.5 81.5q0 195 54 424.5t100.5 349t115.5 283.5q-66 -39 -117 -39q-59 0 -126.5 67.5t-112.5 67.5q-111 0 -211 -82.5t-146 -222.5q-12 -45 -32 -45q-8 0 -16.5 9.5t-8.5 17.5z" />
<glyph unicode="8" d="M141 309q0 236 297 377v2q-39 23 -55 33t-59 45t-64.5 65.5t-42 82t-20.5 108.5q0 145 109.5 243.5t262.5 98.5q141 0 254 -83t113 -220q0 -195 -246 -318v-2q92 -59 121 -77.5t56.5 -44t54.5 -60.5q72 -104 71 -215q0 -158 -122.5 -273.5t-307.5 -115.5q-164 0 -293 97 t-129 257zM246 309q0 -129 97 -213t228 -84q121 0 219.5 71t98.5 187q0 29 -7.5 53.5t-15.5 45t-31.5 44t-41 39t-58.5 44t-67.5 45t-85 53.5t-95.5 61q-117 -59 -179 -150.5t-62 -195.5zM289 1100q0 -23 5 -44.5t16.5 -39t21.5 -30.5t25.5 -25.5t24.5 -19.5t24 -15l14 -11 q29 -18 61.5 -39.5t50 -33t37 -23.5t29.5 -18t20.5 -11.5t15.5 -7.5t11 -2q10 0 40 20.5t66.5 54.5t64.5 90t28 116q0 111 -84 181.5t-194.5 70.5t-193.5 -60.5t-83 -152.5z" />
<glyph unicode="9" d="M141 907q0 211 164 357q111 100 266 100q55 0 108.5 -15.5t112 -62.5t101.5 -119.5t71.5 -200.5t28.5 -294q0 -313 -152.5 -515t-363.5 -202q-131 0 -207.5 59.5t-76.5 159.5q0 53 30.5 76.5t63.5 23.5q39 0 66.5 -26.5t27.5 -67.5t-26.5 -66.5t-71.5 -25.5h-11 q72 -76 201 -76q135 0 229 131q47 68 72 168.5t29 167t4 168.5q-76 -201 -262 -201q-162 0 -281 132q-123 134 -123 329zM326 889q0 -170 26 -240q57 -156 203 -155q113 0 180.5 103t67.5 269v62q-8 242 -101 329q-59 55 -129 56q-152 0 -217 -156q-31 -74 -30 -244v-24z " />
<glyph unicode=":" horiz-adv-x="681" d="M231 109q0 43 32 75.5t77 32.5q47 0 78 -32.5t31 -75.5t-32 -76t-77 -33q-47 0 -78 33t-31 76zM231 773q0 43 32 75.5t77 32.5q47 0 78 -32.5t31 -75.5t-32 -76t-77 -33q-47 0 -78 33t-31 76z" />
<glyph unicode=";" horiz-adv-x="681" d="M231 109q0 45 31 76.5t78 31.5q70 0 100.5 -64.5t30.5 -148.5q0 -102 -39 -199.5t-82 -147.5t-63.5 -50t-20.5 18q0 10 24.5 41t54.5 69t54.5 112.5t24.5 160.5v29q-41 -37 -84 -37q-45 0 -77 31t-32 78zM231 773q0 43 32 75.5t77 32.5q47 0 78 -32.5t31 -75.5t-32 -76 t-77 -33q-47 0 -78 33t-31 76z" />
<glyph unicode="&#x3c;" horiz-adv-x="1705" d="M229 512q0 12 10.5 19.5t49.5 25.5l1110 508q37 18 51 18q23 0 23 -20q0 -18 -50 -39l-999 -457q-100 -47 -119 -55q39 -16 117 -53l1001 -459l11 -4q10 -4 17 -8t14.5 -11.5t7.5 -15.5q0 -20 -23 -20q-14 0 -51 18l-1110 508q-56 33 -60 45z" />
<glyph unicode="=" horiz-adv-x="1705" d="M174 313q0 23 41 23h1272q41 0 41 -23t-49 -23h-1196q-8 0 -23.5 -1t-23.5 -1h-13q-49 0 -49 25zM174 711q0 23 41 23h1272q41 0 41 -23t-49 -23h-1196q-8 0 -23.5 -1t-23.5 -1h-13q-49 0 -49 25z" />
<glyph unicode="&#x3e;" horiz-adv-x="1705" d="M229 -39q0 8 7.5 15.5t14.5 11.5t17 8l11 4l1118 512q-57 25 -119 53l-999 459l-11 4q-10 4 -17 8t-14.5 11.5t-7.5 15.5q0 20 23 20q14 0 51 -18l1110 -508q55 -33 60 -45q0 -12 -10.5 -19.5t-49.5 -25.5l-1110 -508q-37 -18 -51 -18q-23 0 -23 20z" />
<glyph unicode="?" d="M170 987q0 178 108.5 328.5t286.5 150.5q143 0 242.5 -98t99.5 -240q0 -115 -71 -206q-27 -33 -293 -277q-59 -53 -60 -108q0 -43 26 -75t64 -32q43 0 85 33t53 100q6 33 28.5 33t22.5 -35q0 -63 -57.5 -120.5t-135.5 -57.5q-70 0 -121 56.5t-51 142.5q0 100 86 178 q41 37 97.5 88t82 73.5t59.5 56.5t47 52.5t28.5 45t19.5 49t4 51.5q0 94 -71.5 169.5t-184.5 75.5q-137 0 -226 -107.5t-110 -248.5q12 4 35 4q43 0 68.5 -27.5t25.5 -66.5t-27.5 -65.5t-66.5 -26.5q-35 0 -64.5 23.5t-29.5 80.5zM459 109q0 43 31.5 75.5t76.5 32.5 q47 0 78 -32.5t31 -75.5t-32 -76t-77 -33q-47 0 -77.5 33t-30.5 76z" />
<glyph unicode="@" horiz-adv-x="1705" d="M170 711q0 309 202.5 522t479.5 213q125 0 246 -51.5t218 -143.5t157.5 -237.5t60.5 -317.5q0 -66 -2 -112.5t-14.5 -112t-34 -107.5t-62.5 -72t-98 -30q-66 0 -126 33t-79 111q-106 -143 -268 -143.5t-285 127.5t-123 320.5t123 321.5t285 129q180 0 289 -174h78 q31 0 38 -10t7 -37v-496q0 -137 73 -137q41 0 70 29t43 65.5t22.5 97t9.5 97.5t1 94q0 319 -189.5 514t-439.5 195q-256 0 -443.5 -199t-187.5 -489q0 -285 184.5 -486.5t454.5 -201.5q84 0 166 11t148.5 30.5t111.5 36t88 34.5l43 21q25 6 62 6q49 0 49 -19q0 -16 -47 -37 q-305 -129 -619 -129q-303 0 -497.5 218.5t-194.5 515.5zM586 709q0 -168 79.5 -285t190.5 -117q94 0 178 76t84 154v350q0 78 -85 152.5t-179 74.5q-113 0 -190.5 -117.5t-77.5 -287.5z" />
<glyph unicode="A" horiz-adv-x="1648" d="M123 0v63q66 2 111 16.5t70.5 44.5t34.5 47t21 54q2 6 5 11l407 1181q18 49 51 49t51 -49l441 -1265q20 -59 56 -74t145 -15h10v-63q-117 6 -264.5 6t-298.5 -6v63h8q159 0 159 59q0 24 -112 345h-506q-98 -283 -98 -299q0 -14 6 -29.5t20.5 -33t47 -28.5t77.5 -14v-63 q-119 6 -237 6q-113 0 -205 -6zM532 530h463l-231 666z" />
<glyph unicode="B" horiz-adv-x="1564" d="M129 0v63h25q117 0 151.5 15.5t34.5 71.5v1097q0 59 -35 73.5t-149 14.5h-27v64h719q168 0 278 -56q94 -49 150.5 -125.5t56.5 -162.5q0 -35 -11 -72t-44 -89t-108.5 -96t-186.5 -67q170 -12 289 -114.5t119 -241.5t-111 -244.5t-274 -126.5q-35 -4 -105 -4h-772z M510 143q0 -51 18.5 -65.5t89.5 -14.5h242q158 0 242 95.5t84 218.5q0 121 -75 224.5t-224 103.5h-377v-562zM510 752h289q94 0 164.5 31.5t105.5 80.5t50.5 96.5t15.5 92.5q0 39 -12.5 82t-40 91t-88 78.5t-142.5 30.5h-238q-59 0 -81.5 -13t-22.5 -62v-508z" />
<glyph unicode="C" horiz-adv-x="1593" d="M170 700.5q0 315.5 213 529.5t500 214q227 0 377 -176q111 162 120 170q8 4 15 4q25 0 24 -45v-496q0 -43 -28 -43q-23 0 -33 19q-4 10 -9.5 50t-21.5 95q-18 61 -52 119.5t-85 115t-125 90t-160 33.5q-55 0 -114.5 -13t-135 -58t-134 -115t-99.5 -198t-41 -294 q0 -160 38 -285.5t93 -198.5t130 -120t139.5 -63.5t127.5 -16.5q180 0 310.5 126t146.5 307q4 49 12 55q12 8 17 8q25 0 24 -45q0 -74 -32.5 -160t-95 -167t-169 -134t-237.5 -53q-287 0 -501 215t-214 530.5z" />
<glyph unicode="D" horiz-adv-x="1677" d="M127 0v63h25q115 0 149.5 14.5t36.5 72.5v1097q0 57 -35 72.5t-149 15.5h-27v64h717q195 0 334 -86q154 -94 240.5 -262t86.5 -361q0 -276 -163.5 -467.5t-391.5 -218.5q-33 -4 -102 -4h-721zM514 143q0 -53 19.5 -66.5t89.5 -13.5h182q264 0 395 193q100 145 100 416v28 q0 360 -170 519q-126 116 -326 116h-3h-178q-63 0 -86 -13t-23 -62v-1117z" />
<glyph unicode="E" horiz-adv-x="1507" d="M123 0v63h27q117 0 150.5 15.5t33.5 71.5v1093q0 57 -35 72.5t-149 15.5h-27v62h1153l57 -461h-51q-12 92 -21.5 141t-40 110.5t-77.5 92.5q-84 55 -316 55h-168q-94 0 -117.5 -10t-25.5 -64v-501h164q154 0 198 45t44 192h51v-540h-51q0 150 -45.5 194.5t-198.5 44.5 h-162v-551q0 -55 23.5 -66.5t126.5 -11.5h190q80 0 130 4.5t114.5 26t107.5 62.5q39 39 69 114.5t38 118.5t24 139h52l-86 -528h-1182z" />
<glyph unicode="F" horiz-adv-x="1449" d="M123 0v63h27q117 0 150.5 15.5t33.5 71.5v1093q0 59 -35 73.5t-149 14.5h-27v62h1126l56 -461h-52q-29 236 -98 311q-37 41 -99.5 61.5t-109.5 23.5t-125 3h-196q-63 0 -86 -12t-23 -64v-526h164q47 0 73.5 2t64.5 13.5t59.5 41t27.5 76.5q4 23 4 105h54v-541h-54 q0 147 -43 193.5t-194 46.5h-156v-500q0 -47 11.5 -64.5t60.5 -28t164 -10.5h26v-63q-172 6 -346 6q-155 0 -309 -6z" />
<glyph unicode="G" horiz-adv-x="1720" d="M170 698q0 317 215 531.5t500 214.5q217 0 377 -176q115 164 124 170q4 4 11 4q23 0 22 -45v-496q0 -43 -28 -43q-20 0 -26.5 11.5t-10.5 39.5q-27 190 -145.5 330.5t-303.5 140.5q-61 0 -124.5 -16t-137.5 -63.5t-130 -119t-94 -197.5t-38 -286q0 -154 36 -275.5 t91 -195t129 -123t142.5 -68t138.5 -18.5q111 0 205 51.5t110 141.5q4 20 4 63v121q0 66 -36 82.5t-191 16.5h-27v63l322 -4h96l162 4v-63h-7q-86 0 -111.5 -14.5t-25.5 -71.5v-359q0 -45 -18 -45q-10 0 -37 21q-57 47 -92 106h-2q-49 -86 -153.5 -131t-229.5 -45 q-289 0 -503 214t-214 529z" />
<glyph unicode="H" horiz-adv-x="1648" d="M123 0v63h29q111 0 145.5 14.5t36.5 72.5v1099q0 55 -34 70.5t-155 15.5h-22v64q152 -6 301 -6t301 6v-64h-18q-121 0 -156 -15t-35 -77v-485h612v485q0 61 -33.5 76.5t-154.5 15.5h-20v64q150 -6 301 -6t301 6v-64h-27q-115 0 -148.5 -15t-35.5 -71v-1099 q2 -55 34.5 -71t149.5 -16h27v-63q-150 6 -301.5 6t-300.5 -6v63h20q123 0 155.5 15.5t32.5 77.5v540h-612v-540q0 -61 33 -77t156 -16h20v-63q-152 6 -301 6t-301 -6z" />
<glyph unicode="I" horiz-adv-x="854" d="M113 0v63h32q117 0 153 14.5t36 74.5v1095q0 57 -36 72.5t-155 15.5h-30v64q270 -6 299 -6q162 0 325 6v-64h-30q-119 0 -154 -15t-37 -73v-1095q2 -55 35 -72t154 -17h32v-63q-160 6 -323 6q-31 0 -301 -6z" />
<glyph unicode="J" horiz-adv-x="1165" d="M141 229q0 53 34 85t81 32q45 0 79 -32.5t34 -80t-32 -81t-85 -33.5q-2 0 -7 1t-7 1q86 -119 225 -119q80 0 145.5 76t65.5 239v926q0 61 -43 76.5t-193 15.5h-37v64l342 -6h97l170 6v-64h-9q-98 0 -123.5 -15t-25.5 -75v-926q0 -98 -38 -172.5t-98.5 -113.5t-123 -58.5 t-121.5 -19.5q-143 0 -236.5 82.5t-93.5 191.5z" />
<glyph unicode="K" horiz-adv-x="1705" d="M123 0v63h24q115 0 150 14.5t37 72.5v1097q0 59 -35 73.5t-149 14.5h-27v64q152 -6 301 -6t301 6v-64h-20q-125 0 -157 -16t-32 -80v-649l629 598q47 47 47 78q0 61 -92 69v64q123 -6 243 -6q94 0 191 6v-64q-39 -2 -75 -8t-68.5 -21.5t-54 -24.5t-51.5 -34.5t-41 -35 t-42 -39t-35 -33.5q-276 -264 -293 -279l467 -690q49 -70 89 -88.5t124 -18.5h9v-63l-154 6h-82l-293 -6v63q119 0 119 62q0 29 -35 78l-364 540q-211 -201 -217 -206q-20 -25 -21 -60v-319q0 -63 32 -79t159 -16h18v-63q-152 6 -301 6t-301 -6z" />
<glyph unicode="L" horiz-adv-x="1392" d="M123 0v63h27q113 0 147.5 14.5t36.5 72.5v1097q0 57 -35 72.5t-149 15.5h-27v64q135 -6 299 -6q178 0 356 6v-64h-35q-143 0 -185 -16t-42 -76v-1102q0 -51 22.5 -64.5t82.5 -13.5h145q78 0 140.5 15.5t104.5 36t73.5 60.5t49 72t32 90t18.5 92t12 99h53l-57 -528h-1069z " />
<glyph unicode="M" horiz-adv-x="1990" d="M133 0v63q119 0 165 39t46 113v1032q0 57 -35 72.5t-153 15.5h-23v64h348q29 0 42.5 -7.5t25.5 -35.5l444 -1149l447 1149q12 29 24.5 36t40.5 7h350v-64h-26q-115 0 -147.5 -16t-34.5 -70v-1097q2 -57 34.5 -73t147.5 -16h26v-63q-147 6 -292.5 6t-292.5 -6v63h26 q115 0 150 15.5t35 75.5v1183h-2l-49 -131l-451 -1159q-18 -43 -41 -43t-41 41l-444 1147q-8 23 -25.5 67t-26.5 66h-2v-1108q0 -33 6.5 -54.5t26 -47t64.5 -39t114 -13.5v-63q-119 6 -237 6q-119 0 -240 -6z" />
<glyph unicode="N" horiz-adv-x="1648" d="M123 0v63q123 0 167 39t44 115v1104q-68 14 -178 14h-33v64h354q18 0 28.5 -4t15.5 -10.5t18 -22.5l716 -1051v873q0 74 -43 112.5t-168 38.5v64q143 -6 226 -6q127 0 252 6v-64q-121 0 -166 -37.5t-45 -113.5v-1098q0 -4 1 -14.5t1 -16.5q0 -53 -29 -53q-18 0 -47 39 l-846 1241h-2v-1065q0 -31 6 -53.5t25.5 -48t64.5 -39t115 -13.5v-63q-123 6 -248 6q-20 0 -229 -6z" />
<glyph unicode="O" horiz-adv-x="1705" d="M170 694q0 315 201.5 532.5t480.5 217.5q276 0 479 -217t203 -532.5t-203 -527.5t-479 -212q-274 0 -478 213t-204 526zM381 727q0 -197 46 -344t120 -224t150.5 -113t154.5 -36t154.5 37t150.5 114t120 224t46 344q0 178 -46 314.5t-120 208t-150.5 106.5t-154.5 35 t-154.5 -35t-150.5 -106.5t-120 -208t-46 -316.5z" />
<glyph unicode="P" horiz-adv-x="1507" d="M127 0v63h27q117 0 150.5 15.5t33.5 71.5v1097q0 57 -35 72.5t-149 15.5h-27v64h686q197 0 326 -74q90 -53 143 -135t53 -172q0 -137 -128 -255t-369 -118h-318v-489q0 -61 34 -77t157 -16h18v-63q-152 6 -301 6t-301 -6zM514 700h262q94 0 162 20.5t102.5 49.5t55 75 t24.5 83t4 90q0 51 -4 86t-22.5 83t-53 76.5t-102.5 50t-162 21.5h-129q-92 0 -114.5 -11t-22.5 -69v-555z" />
<glyph unicode="Q" horiz-adv-x="1705" d="M170 694.5q0 313.5 201.5 531.5t480.5 218q281 0 481.5 -217t200.5 -531q0 -233 -117 -416.5t-301 -267.5q20 -47 29.5 -66.5t35 -58.5t58.5 -56t74 -17q76 0 124 48t58 95l8 47q8 14 19 14q23 0 22 -36q0 -53 -11 -111.5t-37 -122t-78 -104.5t-122 -41q-156 0 -211 186 q-12 45 -38 197q-92 -31 -195 -31q-276 0 -479 213t-203 526.5zM375 694q0 -61 4 -117.5t24.5 -143.5t54.5 -156.5t100.5 -138t156.5 -105.5q-29 53 -29 98q0 66 47 119t121 53q49 0 89 -20.5t68.5 -62.5t41 -65.5t32.5 -68.5q242 184 242 608q0 188 -46 330.5t-121 219.5 t-152.5 113t-155.5 36t-156 -35t-152.5 -111t-121.5 -219.5t-47 -333.5zM733 131q0 -45 29 -85t94 -40q76 0 178 47q-12 57 -27.5 96t-55.5 73t-95 34q-59 0 -91 -40t-32 -85z" />
<glyph unicode="R" horiz-adv-x="1619" d="M127 0v63h27q115 0 148.5 15.5t35.5 71.5v1099q0 55 -34 70.5t-150 15.5h-27v64h604q211 0 344 -66q109 -53 170.5 -133t61.5 -170q0 -96 -72 -178t-197 -129q-16 -6 -90 -27q90 -29 146.5 -75t81 -109t35 -121.5t21.5 -141.5t28 -138q33 -109 110 -109q43 0 74 29.5 t41 63.5t18 69l6 33q6 14 23 14q24 0 24 -32q0 -27 -8 -60t-27.5 -72t-61.5 -65.5t-99 -26.5q-59 0 -113.5 14.5t-108 46t-86 95t-32.5 151.5v146q0 106 -63.5 187t-215.5 81h-227v-520q0 -61 35 -77t156 -16h20v-63q-152 6 -299 6t-299 -6zM514 723h191q90 0 153.5 11 t120.5 43t87 93.5t30 155.5q0 152 -80 230.5t-277 78.5h-90q-90 0 -112.5 -11t-22.5 -67v-534z" />
<glyph unicode="S" horiz-adv-x="1251" d="M170 10v414q0 41 25 41q23 0 26 -31q10 -188 115 -293q123 -123 336 -123q125 0 203.5 88.5t78.5 208.5q0 94 -48 169t-128 108q-27 10 -169 45t-173 45q-111 39 -188.5 138.5t-77.5 232.5q0 164 116.5 277.5t284.5 113.5q88 0 164 -32t100.5 -53.5t59.5 -58.5 q80 129 90 138q6 4 12 4q25 0 25 -53v-418q0 -35 -27 -35q-20 0 -24 25.5t-16.5 88t-43.5 126.5q-104 210 -336 210h-2q-123 0 -201.5 -81.5t-78.5 -188.5q0 -92 53 -159.5t131 -96.5q25 -8 173.5 -44t191.5 -56q98 -45 166.5 -147.5t68.5 -237.5q0 -172 -113.5 -296 t-291.5 -124q-223 0 -375 143q-80 -141 -102 -141q-2 0 -4.5 1t-4.5 1q-16 6 -16 51z" />
<glyph unicode="T" horiz-adv-x="1593" d="M129 926l41 460h1249l39 -460h-51q-8 86 -14.5 132t-20.5 99t-34.5 79t-56.5 49.5t-87 31.5t-123 8h-82q-57 0 -80.5 -13.5t-23.5 -64.5v-1087q0 -63 46 -80t208 -17h43v-63q-219 6 -363 6q-205 0 -413 -6v63h45q160 0 205.5 16.5t45.5 80.5v1087q0 51 -22.5 64.5 t-81.5 13.5h-80q-88 0 -145.5 -16.5t-92 -41t-55 -82t-29 -108.5t-16.5 -151h-51z" />
<glyph unicode="U" horiz-adv-x="1648" d="M123 1335v64q152 -6 301 -6t301 6v-64h-27q-117 0 -149.5 -16t-32.5 -74v-758q0 -205 59 -305q18 -31 46 -62.5t92.5 -66.5t140.5 -35q145 0 254 103.5t133 259.5q8 55 8 125v680q0 86 -52 116.5t-159 32.5v64q125 -6 254 -6q20 0 230 6v-64q-45 0 -76 -5t-65.5 -18.5 t-52 -45t-17.5 -80.5v-684q0 -88 -4 -115q-25 -180 -152 -306t-303 -126q-205 0 -361.5 144.5t-156.5 379.5v762q0 61 -34 77.5t-159 16.5h-18z" />
<glyph unicode="V" horiz-adv-x="1648" d="M94 1335v64q141 -6 201 -6h55q150 0 297 6v-64h-6q-158 0 -158 -61q0 -12 6 -29l396 -1040l368 975q14 39 15 53q0 37 -36 68.5t-114 33.5v64q119 -6 238 -6q80 0 196 6v-64q-61 -2 -104 -15t-68.5 -42t-36 -49.5t-26.5 -61.5l-443 -1167q-16 -45 -51 -45t-51 45 l-473 1249q-20 55 -53 70.5t-144 15.5h-8z" />
<glyph unicode="W" horiz-adv-x="2217" d="M94 1335v64q127 -6 254 -6q143 0 287 6v-64h-19q-151 0 -151 -60q0 -13 84 -276l213 -657q4 -18 16.5 -51t16.5 -51h2l24 82l246 751q10 31 10 43q0 8 -39 131q-20 59 -51 73.5t-135 14.5v64q156 -6 240 -6q150 0 301 6v-64h-21q-149 0 -149 -64q0 -9 4 -26l325 -1003 l310 946q8 33 8 39q0 39 -43 72.5t-135 35.5v64q119 -6 237 -6q98 0 193 6v-64q-57 -2 -96 -15t-61.5 -43t-32 -49.5t-23.5 -62.5l-379 -1159q-2 -2 -5 -12t-5 -14.5t-6.5 -10.5t-11.5 -9t-15 -3q-27 0 -45 51l-334 1024q-6 -16 -49 -151l-285 -873q-18 -51 -43 -51 q-8 0 -14 2t-9 5t-7.5 10.5t-6.5 10.5t-5 11t-3 10l-405 1243q-20 59 -51.5 72.5t-135.5 13.5z" />
<glyph unicode="X" horiz-adv-x="1648" d="M104 0v63q190 2 279 107q348 500 348 524q0 8 -35 62l-325 493q-41 59 -78 72.5t-160 13.5v64q135 -6 270 -6q145 0 293 6v-64q-53 -2 -91 -18.5t-38 -44.5q0 -10 275 -424h2q41 66 109.5 164t104.5 153.5t36 75.5q0 37 -34 64.5t-91 29.5v64q135 -6 266 -6q76 0 221 6 v-64q-63 0 -114.5 -13t-78 -24.5t-61.5 -48.5t-41 -45t-39 -57q-231 -346 -233 -356q0 -8 10 -29l404 -608q43 -63 81.5 -77t151.5 -14h6v-63q-133 6 -266 6q-145 0 -297 -6v63q57 2 92 20.5t35 43.5q0 14 -34 65.5t-296 444.5l-274 -406q-2 -2 -13.5 -18t-16.5 -28.5 t-5 -26.5q0 -35 35 -63.5t92 -31.5v-63q-131 6 -264 6q-126 0 -226 -6z" />
<glyph unicode="Y" horiz-adv-x="1648" d="M80 1335v64q166 -6 258 -6q156 0 309 6v-64h-10q-127 0 -127 -49q0 -20 18 -51l320 -520q20 -33 41 -70h2l336 549q23 37 22 61q0 74 -116 80v64q121 -6 239 -6q80 0 197 6v-64q-82 0 -140.5 -27.5t-84 -57t-58.5 -83.5l-354 -575q-18 -33 -19 -66v-368q0 -63 33 -79 t158 -16h18v-63q-264 6 -291 6q-154 0 -307 -6v63h23q125 0 156.5 15.5t31.5 79.5v374q0 29 -20 62l-398 647q-27 45 -44 60.5t-59 24.5t-132 9h-2z" />
<glyph unicode="Z" horiz-adv-x="1366" d="M170 35q0 16 25 55l788 1245h-307q-125 0 -208 -25.5t-128 -80.5t-64.5 -123t-25.5 -168h-51l22 461h918q53 0 53 -33q0 -23 -16 -43l-795 -1255h299q150 0 241 25.5t140 91t66.5 143.5t25.5 219h51l-35 -547h-952q-47 0 -47 35z" />
<glyph unicode="[" horiz-adv-x="681" d="M270 -512v2048h310v-47h-172v-1954h172v-47h-310z" />
<glyph unicode="\" d="M174 1507q0 25 18.5 25t34.5 -43l723 -1935q10 -31 11 -37q0 -25 -21 -25q-6 0 -11 4t-9.5 10.5t-6.5 12.5t-5 13t-3 9l-723 1936q-8 20 -8 30z" />
<glyph unicode="]" horiz-adv-x="681" d="M100 -465h170v1954h-170v47h310v-2048h-310v47z" />
<glyph unicode="^" horiz-adv-x="1366" d="M297 989v2l383 295h2l383 -295v-2l-29 -41q-29 16 -317 205q-27 16 -37 16q-12 0 -68.5 -35.5t-144.5 -94t-143 -91.5z" />
<glyph unicode="_" horiz-adv-x="1705" d="M227 -436q0 41 60 41h1126q61 0 61.5 -41t-59.5 -41h-1128q-60 0 -60 41z" />
<glyph unicode="`" d="M262 1239q0 27 21.5 51.5t50.5 24.5q20 0 41.5 -17.5t134.5 -128.5q76 -74 129 -125l-31 -40q-307 174 -323 188q-23 16 -23 47z" />
<glyph unicode="a" d="M141 440q0 195 109.5 330t259.5 135q113 0 213 -125q2 82 72 82q71 0 71 -85v-7v-522q0 -223 101 -223q86 0 86 217v22q0 27 6 37t18.5 10t20.5 -8q6 -8 6 -45q0 -141 -30 -211t-111 -70q-57 0 -122 35t-100 117q-92 -152 -231 -152q-145 0 -257 131t-112 332zM313 442 q0 -88 4.5 -140t27 -122.5t67.5 -111.5q47 -43 102 -43q78 0 143.5 72.5t65.5 133.5v418q0 63 -66.5 136t-142.5 73q-113 0 -170 -153q-31 -85 -31 -263z" />
<glyph unicode="b" horiz-adv-x="1024" d="M-2 1335v64l303 22v-641q90 125 215 125q143 0 255 -131t112 -334q0 -201 -112 -332t-257 -131q-137 0 -235.5 114t-116.5 274q-4 37 -4 110v752q0 72 -32 90t-128 18zM301 457q0 -219 57 -324q60 -108 152 -108h2q111 0 168 151q31 84 31 264q0 88 -4.5 139.5t-27 121 t-67.5 112.5q-47 45 -100 45q-63 0 -121.5 -51t-83.5 -117q-6 -14 -6 -59v-174z" />
<glyph unicode="c" horiz-adv-x="1024" d="M141 442q0 197 127 330t299 133q117 0 201 -60.5t84 -152.5q0 -51 -30.5 -74.5t-63.5 -23.5q-41 0 -67.5 27.5t-26.5 66.5q0 33 21.5 62.5t76.5 31.5q-76 76 -189 76q-131 0 -206 -135q-53 -96 -54 -283q0 -229 86 -331q74 -86 183 -86q90 0 187 45t151 133q23 37 34 41 q10 2 18.5 -6.5t8.5 -18.5q0 -18 -25.5 -55t-72.5 -80t-130 -74t-182 -31q-182 0 -306 136t-124 329z" />
<glyph unicode="d" d="M141 440.5q0 200.5 112 332.5t255 132q125 0 215 -125v379q0 8 1 24.5t1 24.5q0 86 -27.5 106.5t-132.5 20.5v64l301 22v-1173q0 -223 99 -223q49 0 69.5 61t21.5 134t3 79q6 10 18.5 12t20.5 -8q6 -6 6 -45q0 -141 -31 -211t-112 -70q-57 0 -121 35t-99 117 q-88 -152 -233 -152q-141 0 -254 131.5t-113 332zM313 442q0 -88 4.5 -140t27 -122.5t67.5 -111.5q47 -43 102 -43q78 0 143.5 72.5t65.5 133.5v418q0 63 -66.5 136t-142.5 73q-113 0 -170 -153q-31 -85 -31 -263z" />
<glyph unicode="e" horiz-adv-x="1024" d="M141 489q0 182 129 299t295 117q111 0 187.5 -61.5t76.5 -157.5q0 -51 -21.5 -89t-63.5 -60.5t-82.5 -37t-103 -20.5t-102.5 -7t-100 -1h-43q4 -231 78 -338q75 -110 182 -110h2q96 0 191.5 45t146.5 125q2 2 11.5 18t15.5 23.5t14 7.5q10 2 18.5 -6.5t8.5 -18.5 q0 -20 -26.5 -57t-73.5 -79t-130 -73t-178 -31q-184 0 -308 153.5t-124 358.5zM313 518h64q74 0 127 4t118.5 19.5t101.5 51.5t36 93q0 70 -53.5 121t-137.5 51q-76 0 -136 -45t-89 -115q-27 -63 -31 -180z" />
<glyph unicode="f" horiz-adv-x="681" d="M16 -248q0 43 28 69.5t67 26.5t66.5 -26.5t27.5 -65.5q0 -78 -88 -94v-2q57 -35 104 -35q86 0 86 164q0 74 -14 332t-31 477l-14 221h-176v62h174q-14 213 -15 260q0 111 23 170q18 53 67.5 93t116.5 40q84 0 148.5 -49t64.5 -125q0 -43 -28.5 -69.5t-65.5 -26.5 t-64.5 26.5t-27.5 67.5q0 78 86 96q-70 35 -105 35q-29 0 -45 -15q-34 -26 -34 -98q0 -38 4 -120q4 -81 10 -171t8 -114h213v-62h-209q4 -88 16.5 -267t19.5 -313.5t7 -220.5q0 -438 -213 -438q-78 0 -142.5 48t-64.5 124z" />
<glyph unicode="g" horiz-adv-x="1024" d="M141 452.5q0 196.5 113 324.5t254 128q121 0 215 -123q2 43 24.5 61.5t47.5 18.5q72 0 71 -86v-882q0 -90 -35.5 -155t-95 -98.5t-118 -48t-119.5 -14.5q-307 0 -308 156q0 43 28 69.5t67 26.5q37 0 64.5 -26.5t27.5 -67.5q0 -59 -60 -88q70 -23 179 -23q88 0 157.5 61.5 t69.5 202.5v234q-90 -123 -215 -123q-143 0 -255 128t-112 324.5zM313 453q0 -82 4.5 -134.5t27 -119t65.5 -107.5q49 -47 104 -47q70 0 139.5 69.5t69.5 137.5v403q0 63 -66.5 133t-142.5 70q-61 0 -105 -45t-65 -104q-31 -82 -31 -256z" />
<glyph unicode="h" d="M-2 1335v64l303 22v-676q88 160 268 160q125 0 212 -77.5t87 -266.5q0 -92 -16 -238.5t-16 -162.5q0 -135 79 -135q47 0 89.5 54t50.5 187q2 47 24 47q10 0 18.5 -11t8.5 -26q0 -61 -14.5 -123.5t-62.5 -119t-120 -56.5q-92 0 -152.5 66t-60.5 147q0 2 14.5 144.5 t14.5 236.5q0 287 -164 287q-119 0 -189.5 -92t-70.5 -186v-504q1 -98 -71 -98l-1 -1q-71 0 -71 95v1151q0 74 -29 93t-123 19h-8z" />
<glyph unicode="i" horiz-adv-x="681" d="M31 606q0 61 14 123t62.5 119t121.5 57q88 0 150.5 -65.5t62.5 -151.5q0 -23 -31.5 -257t-31.5 -273q0 -133 80 -133q14 0 30.5 6t39 23.5t41 60.5t24.5 106q2 12 2 29.5t1 27t3 17.5t7 12t16 4q27 0 26 -35q0 -61 -14 -123.5t-62.5 -119t-119.5 -56.5q-90 0 -151.5 64.5 t-61.5 153.5q0 23 30.5 256t30.5 272q0 135 -78 135q-14 0 -30.5 -6t-40 -23.5t-42 -61.5t-24.5 -108q0 -8 -1 -24.5t-2 -25.5t-3 -19t-7 -15.5t-16 -5.5q-26 0 -26 37zM246 1259.5q0 36.5 27.5 65.5t66.5 29q41 0 67.5 -29t26.5 -65q0 -35 -27.5 -64t-66.5 -29 q-41 0 -67.5 28t-26.5 64.5z" />
<glyph unicode="j" horiz-adv-x="681" d="M0 -264q0 43 27.5 68.5t66.5 25.5t66.5 -26.5t27.5 -67.5q0 -66 -69 -90q53 -20 84 -21q70 0 125 64.5t55 220.5v723q0 225 -104 225q-57 0 -99.5 -42t-60 -91t-29.5 -96l-12 -47q-6 -10 -18.5 -11.5t-20.5 7.5q-6 8 -2 49q23 115 84 196.5t164 81.5q80 0 160.5 -62.5 t80.5 -201.5v-715q0 -152 -75 -237q-94 -111 -242 -111q-86 0 -147.5 44t-61.5 114zM338 1259.5q0 36.5 26.5 65.5t65.5 29q41 0 67.5 -29t26.5 -65q0 -35 -26.5 -64t-65.5 -29q-41 0 -67.5 28t-26.5 64.5z" />
<glyph unicode="k" horiz-adv-x="1024" d="M-2 1335v64l303 22v-889q47 27 92 76t79 98.5t71 95.5t86 74.5t108 28.5q80 0 126 -52t46 -114q0 -51 -30.5 -73.5t-63.5 -22.5q-37 0 -64.5 26.5t-27.5 67.5q0 16 5 35t27.5 38t59.5 21v3l-4 2q-4 2 -11 6t-16.5 8t-22.5 6t-28 2q-72 0 -133 -63.5t-124.5 -154.5 t-117.5 -128q104 -10 178 -38t110 -56.5t55.5 -69.5t22.5 -64.5t3 -56.5v-12q10 -190 104 -190q57 0 82 58t28 135t5 79q12 23 33 12q14 -8 14 -43q0 -289 -166 -289q-88 0 -160.5 68t-80.5 182q-4 88 -45 135q-70 82 -240 105v-399q1 -90 -71 -90l-1 -1q-71 0 -71 93v1144 q0 78 -26 99.5t-126 21.5h-8z" />
<glyph unicode="l" horiz-adv-x="569" d="M-2 1335v64l303 22v-1165q0 -231 98 -231q88 0 88 219v14v12q0 43 27 43q25 0 25 -41q0 -61 -3.5 -100t-15.5 -90t-44 -78t-81 -27q-80 0 -158.5 61.5t-78.5 199.5v983q0 76 -29 95t-131 19z" />
<glyph unicode="m" horiz-adv-x="1820" d="M31 610q0 66 4 109t17.5 90t44 70.5t79.5 23.5q66 0 134.5 -43t92.5 -131q31 51 53.5 81t84 62.5t141.5 32.5q92 0 170 -45t111 -151q88 196 284 196h2q125 0 212 -78.5t87 -265.5q0 -94 -15 -239.5t-15 -163.5q0 -133 77 -133q49 0 82 40.5t42.5 86t13.5 94.5l6 49 q6 16 24 16q25 0 25 -35q0 -61 -15.5 -123.5t-63.5 -119t-122 -56.5q-88 0 -149.5 66t-61.5 152q0 2 14.5 140t14.5 240q0 283 -166 283q-119 0 -188.5 -94t-69.5 -170v-526q0 -90 -72 -91q-49 0 -67 50q-4 12 -4 59v483q0 289 -164 289q-68 0 -121 -30.5t-81 -76.5t-40 -77 t-16 -53q-2 -10 -2 -58v-493q0 -92 -72 -93q-49 0 -68 50q-4 12 -4 57v537q0 235 -97 235h-1q-29 0 -48.5 -20.5t-26.5 -55.5t-10 -66.5t-3 -69.5t-2 -48q-2 -27 -26.5 -27t-24.5 41z" />
<glyph unicode="n" horiz-adv-x="1251" d="M31 621q0 61 4 103t17.5 88t44 69.5t77.5 23.5q66 0 132.5 -43t96.5 -135q96 178 279 178q125 0 212 -78.5t87 -265.5q0 -104 -16.5 -241.5t-16.5 -159.5q0 -135 78 -135q49 0 90 56t49 181q4 51 25 51q6 0 16 -6q12 -8 13 -31q0 -61 -14.5 -122.5t-62.5 -119t-122 -57.5 q-86 0 -149.5 64.5t-63.5 151.5q0 6 15.5 147t15.5 229q0 289 -166 289q-119 0 -189.5 -92t-70.5 -182v-518q0 -51 -23.5 -70t-48.5 -19q-72 0 -72 99v563q0 217 -98 217q-51 0 -69.5 -64.5t-19.5 -137t-9 -79.5q-10 -6 -17 -6q-24 1 -24 52z" />
<glyph unicode="o" d="M141 440q0 199 127 332t299 133q178 0 302 -137t124 -328q0 -199 -127 -331t-299 -132q-178 0 -302 136.5t-124 326.5zM313 438q0 -162 37 -248q27 -66 83 -115.5t134 -49.5q100 0 172 88q84 104 84 333q0 154 -37 244q-27 66 -84 117t-135 51q-100 0 -172 -90 q-82 -101 -82 -330z" />
<glyph unicode="p" d="M31 625q0 141 30.5 210.5t112.5 69.5q145 0 221 -153q89 153 232 153h2q145 0 254.5 -134t109.5 -331q0 -201 -110.5 -332t-255.5 -131q-123 0 -213 125h-2v-335q0 -68 23.5 -84.5t125.5 -16.5h10v-63q-76 4 -229 4q-129 0 -192 -4v63h20q59 2 78.5 14.5t19.5 67.5v907 q0 100 -27.5 151.5t-68.5 51.5q-14 0 -27 -6q-27 -12 -41 -50t-17 -74t-4 -81t-1 -49q-2 -23 -18.5 -28t-24.5 8q-8 8 -8 47zM412 231q0 -63 67.5 -134.5t143.5 -71.5q61 0 105 46t65 105q30 81 30 253v11q0 86 -4 139.5t-27.5 122t-68.5 111.5q-49 45 -102 45 q-78 0 -143.5 -72.5t-65.5 -136.5v-418z" />
<glyph unicode="q" horiz-adv-x="1024" d="M141 440q0 203 112 334t255 131q131 0 227 -141q20 55 56 95t55 40q20 0 20 -55v-1090q0 -57 26 -72.5t116 -15.5h18v-63q-74 4 -225 4q-158 0 -236 -4v63h10q100 0 124 16.5t24 84.5v335q-90 -125 -215 -125q-143 0 -255 131t-112 332zM313 442q0 -88 4.5 -140 t27 -122.5t67.5 -111.5q47 -43 104 -43q78 0 142.5 71.5t64.5 134.5v418q0 63 -66.5 136t-142.5 73q-47 0 -86 -31.5t-55.5 -61.5t-28.5 -60q-31 -85 -31 -263z" />
<glyph unicode="r" horiz-adv-x="937" d="M31 608q0 61 3 102.5t16 92.5t44 76.5t80 25.5q57 0 121.5 -35.5t99.5 -119.5q29 49 49.5 74.5t70.5 53t116 27.5q94 0 172 -42t78 -124q0 -41 -28 -68.5t-67 -27.5q-41 0 -67.5 26.5t-26.5 67.5q0 37 21.5 60.5t50.5 31.5q-68 29 -135 29q-59 0 -104.5 -28.5t-68 -70.5 t-33.5 -78t-11 -58v-557q0 -88 -72 -89q-55 0 -68 50q-4 12 -4 57v545q0 193 -73 223q-31 12 -60 -6q-31 -20 -41 -82t-11 -120t-9 -66q-6 -8 -17 -9q-26 0 -26 39z" />
<glyph unicode="s" horiz-adv-x="909" d="M113 217q0 45 26.5 70.5t67.5 25.5t67.5 -25.5t26.5 -66.5q0 -33 -23.5 -63.5t-78.5 -30.5h-4q94 -104 262 -104q141 0 195.5 59t54.5 131q0 51 -35 98t-97 72q-35 14 -113.5 29.5t-94.5 19.5q-76 20 -136.5 79.5t-60.5 154.5q0 92 65.5 165.5t215.5 73.5 q123 0 203.5 -61.5t80.5 -149.5q0 -43 -24.5 -63.5t-51.5 -20.5q-31 0 -53 22.5t-22 55.5q0 70 78 76q-76 94 -211 94q-92 0 -143.5 -43t-51.5 -104q0 -49 34 -92.5t93 -61.5q18 -4 90 -18.5t88 -18.5q92 -25 162 -93.5t70 -172.5q0 -106 -77 -191.5t-259 -85.5 q-145 0 -244.5 67t-99.5 173z" />
<glyph unicode="t" horiz-adv-x="739" d="M-27 819v62h240v311q0 90 71.5 90t71.5 -92v-309h242v-62h-242v-567q0 -227 105 -227q18 0 40.5 8t52.5 29.5t56.5 72.5t40.5 125q10 41 19 47q12 8 24.5 1t12.5 -25q0 -16 -11.5 -58.5t-36 -102t-79 -102.5t-125.5 -43q-33 0 -69 11.5t-78 38t-68.5 83t-26.5 136.5v573 h-240z" />
<glyph unicode="u" horiz-adv-x="1193" d="M31 606q0 43 9 90t29.5 96.5t62.5 81t97 31.5q88 0 150.5 -65.5t62.5 -149.5q0 -12 -15 -138t-15 -204q0 -180 57 -251.5t131 -71.5q70 0 118 49t60 96q2 6 2 59v545q0 41 6 60q16 47 66 47q72 0 72 -99v-536q0 -221 98 -221q37 0 57.5 35.5t24.5 75.5t5 91.5t1 57.5 q2 20 17.5 25t25.5 -7q8 -8 8 -45q0 -141 -30.5 -211t-112.5 -70q-129 0 -213 134q-76 -133 -213 -134q-53 0 -103.5 15.5t-102.5 53.5t-85 118t-33 190q0 84 16.5 213t16.5 156q0 135 -78 135q-51 0 -92 -55t-47 -182q-2 -53 -27 -54q-10 0 -18 11.5t-8 27.5z" />
<glyph unicode="v" horiz-adv-x="1024" d="M31 604q0 113 48 207t150 94q92 0 152.5 -66.5t60.5 -150.5q0 -18 -14 -140t-14 -200q0 -176 64.5 -249.5t146.5 -73.5q66 0 114.5 45t72.5 119.5t35 148.5t11 151q0 133 -102 228q-8 8 -26.5 22.5t-27 22.5t-15.5 22.5t-7 32.5q0 31 24.5 59.5t61.5 28.5q45 0 82 -49 q61 -82 61 -340q0 -150 -26.5 -266.5t-94 -194.5t-170.5 -78q-55 0 -108 15.5t-110.5 52.5t-93.5 118t-36 195q0 72 15.5 205t15.5 160q0 135 -78 135q-49 0 -91 -56.5t-48 -178.5q0 -2 -1 -10.5t-1 -12.5t-2 -11t-4 -10.5t-7.5 -6.5t-11.5 -3q-26 0 -26 35z" />
<glyph unicode="w" horiz-adv-x="1478" d="M31 606q0 63 14 126t62.5 118t121.5 55q84 0 148.5 -63.5t64.5 -153.5q0 -14 -14 -135t-14 -199q0 -182 67.5 -255.5t155.5 -73.5q63 0 94 42t49 117q-28 77 -28 178v7v417q0 94 72 94v1q71 0 71 -99v-401q0 -117 18 -186q18 -68 66.5 -119t128.5 -51q115 0 160 120.5 t45 339.5q0 76 -28 134.5t-61.5 84t-61 55t-27.5 58.5q0 31 24.5 59.5t61.5 28.5q76 0 114 -112q29 -82 29 -291q0 -254 -57.5 -389.5t-204.5 -135.5q-184 0 -289 140q-49 -139 -180 -140q-66 0 -124 17.5t-114.5 57.5t-90.5 120t-34 188q0 70 15.5 202t15.5 163 q0 133 -78 133q-49 0 -91 -57.5t-48 -182.5q-4 -49 -27 -49q-26 0 -26 37z" />
<glyph unicode="x" horiz-adv-x="1040" d="M31 604q0 102 68.5 201.5t191.5 99.5q164 0 258 -157q53 157 180 157h2q82 0 151.5 -44t69.5 -122q0 -43 -26.5 -69.5t-65.5 -26.5t-66.5 26.5t-27.5 67.5q0 68 76 92v2q-59 27 -113 27q-139 0 -139 -225v-340q0 -143 49 -209q47 -59 117 -59q51 0 98 34.5t74 96.5 q16 35 22 70.5t8.5 55t10.5 25.5q10 10 24.5 2t14.5 -30q0 -102 -68 -202t-192 -100q-139 0 -230 113l-31 45q-43 -158 -178 -158q-86 0 -154.5 45.5t-68.5 118.5q0 41 25.5 69t66.5 28q39 0 66.5 -27t27.5 -68q0 -74 -73 -92q57 -26 106 -26h4q137 0 137 225v76 q0 31 1.5 92t1.5 92v72q0 152 -52 217q-51 59 -112 59q-78 0 -135.5 -68.5t-65.5 -177.5q-4 -33 -14 -39q-12 -10 -25.5 0.5t-13.5 30.5z" />
<glyph unicode="y" horiz-adv-x="1081" d="M31 606q0 41 9 87t28.5 96.5t61.5 83t99 32.5q86 0 149.5 -63.5t63.5 -153.5q0 -10 -14 -136t-14 -204q0 -180 56 -251.5t130 -71.5q70 0 117 47t59 94q4 14 4 61v566q0 88 72 88t72 -97v-747q0 -63 -4 -96q-20 -147 -124 -255t-255 -108q-117 0 -192 67.5t-75 151.5 q0 45 28 71t67 26t66.5 -26t27.5 -67q0 -35 -22.5 -64.5t-78.5 -29.5h-4q78 -82 177 -82q94 0 169.5 91t75.5 311v43q-80 -92 -188 -93q-53 0 -102.5 15.5t-102.5 53.5t-85 117t-32 191q0 84 15.5 213t15.5 156q0 135 -78 135q-51 0 -91 -54t-48 -188q0 -47 -25 -47 q-28 0 -28 37z" />
<glyph unicode="z" horiz-adv-x="909" d="M143 682q0 80 55.5 150.5t139.5 70.5q63 0 149 -75.5t134 -75.5q43 0 70.5 37.5t44 75.5t32.5 38q20 0 20 -22.5t-14 -51.5q-47 -113 -136 -225t-194.5 -231t-162.5 -207q35 10 63 10q49 0 139 -27.5t140 -27.5q72 0 130 40t70 118q6 33 27 32q25 0 24 -35 q0 -104 -67.5 -201.5t-179.5 -97.5q-55 0 -105.5 38t-95.5 76t-88 38q-84 0 -133 -115q-16 -35 -35 -34q-23 0 -23 20q0 23 15 51q47 111 132 220.5t191.5 226t165.5 209.5q-12 -2 -33 -2q-51 0 -142 28.5t-138 28.5q-59 0 -96 -24.5t-45 -49.5l-7 -26q-6 -12 -22 -13 q-25 0 -25 33z" />
<glyph unicode="{" d="M207 512q0 14 14.5 19.5t48 9.5t64.5 14q117 43 151 147q10 31 11 84v447q0 84 22 129q41 82 143.5 126t229.5 48q37 0 37 -23q0 -14 -12.5 -19t-43 -8t-51.5 -9q-78 -23 -122 -72t-52 -83t-8 -67v-479q0 -205 -244 -264q90 -20 156.5 -74.5t83.5 -132.5q4 -23 4 -72 v-444q0 -57 8 -86t28.5 -59.5t78 -65.5t137.5 -43q37 -4 37 -24q0 -23 -37 -23q-80 0 -159 20.5t-148.5 75t-83.5 135.5q-4 20 -4 62v450q0 72 -27 124.5t-70 79t-77.5 37.5t-71.5 15q-43 5 -43 25z" />
<glyph unicode="|" horiz-adv-x="681" d="M299 -449v1924q0 59 41 59t41 -61v-1922q0 -61 -41 -61t-41 61z" />
<glyph unicode="}" d="M207 -489q0 14 10 18t41 8t53 10q78 20 123 70.5t53.5 84.5t8.5 67v467q0 39 5 66.5t25.5 69.5t74.5 77.5t138 62.5q-86 27 -140 63.5t-74.5 80.5t-24.5 70t-4 62v459q0 29 -7.5 57.5t-29 71.5t-77.5 74t-140 39q-35 4 -35 24q0 23 37 23q80 0 158.5 -20.5t148.5 -75 t84 -135.5q4 -20 4 -62v-450q0 -129 74.5 -188.5t171.5 -67.5q43 -4 43 -25q0 -14 -14.5 -19.5t-48.5 -9.5t-64 -14q-162 -61 -162 -227v-451q0 -86 -23 -131q-41 -82 -146 -127t-226 -45q-37 0 -37 23z" />
<glyph unicode="~" horiz-adv-x="1366" d="M225 1206q4 4 24.5 29t32 37t36 33.5t46 33t53.5 20.5t64 9q72 0 209 -49t209 -49h2q106 0 199 98l35 -31q-6 -6 -28 -31.5t-30 -33.5l-28.5 -28.5t-36 -29t-37 -19.5t-46 -15t-50.5 -4q-72 0 -209.5 49t-208.5 49h-2q-106 0 -199 -98z" />
<glyph unicode="&#xa1;" horiz-adv-x="681" d="M231 -338q0 20 9 90l69 821q8 68 29 68q2 0 10 -4q16 -6 21 -45l75 -885q4 -29 5 -43q0 -51 -34 -78.5t-75 -27.5q-43 0 -76 28.5t-33 75.5zM233 915q0 43 32 76t77 33q47 0 78 -33t31 -76t-32 -75.5t-77 -32.5q-47 0 -78 32.5t-31 75.5z" />
<glyph unicode="&#xa2;" d="M125 440q0 188 132 323.5t335 151.5v177h63v-177q154 -4 249 -62t95 -155q0 -43 -27.5 -70.5t-66.5 -27.5t-66.5 26.5t-27.5 67.5q0 84 94 94q-82 70 -250 76v-835q86 6 148.5 32.5t91.5 60.5t46 65.5t29.5 54t24.5 22.5q23 0 23 -22q0 -8 -8.5 -32t-33 -62.5t-61 -73.5 t-105.5 -62.5t-155 -34.5v-176h-63v176q-201 14 -334 147.5t-133 315.5zM297 442q0 -152 70.5 -265.5t224.5 -143.5v829q-139 -20 -217 -130t-78 -290z" />
<glyph unicode="&#xa3;" horiz-adv-x="1421" d="M170 98q0 80 70.5 133.5t173.5 53.5q41 0 135 -25q4 41 4 193v227h-125q-51 0 -51 29q0 12 6 20q6 14 45 14h125v301q0 188 107.5 296t246.5 108q154 0 248 -117t94 -256q0 -55 -29.5 -78.5t-64.5 -23.5q-39 0 -65.5 26.5t-26.5 65.5q0 41 25.5 67.5t68.5 26.5 q10 0 31 -4q-31 119 -109 182.5t-166 63.5q-106 0 -170 -105q-47 -78 -47 -258v-295h185q47 0 47 -30q0 -10 -2 -17q-8 -16 -47 -16h-183v-297q0 -88 -28 -176q27 -12 86 -44t94 -48.5t87 -31.5t97 -15q88 0 147.5 54t71.5 128q8 53 27 53q8 0 14 -4q12 -6 13 -29 q0 -104 -82 -198.5t-217 -94.5q-39 0 -79 8.5t-86 28t-73 31.5t-81 42t-66 36q-113 -145 -279 -146q-78 0 -125 33t-47 88zM246 98q0 -37 30.5 -55t65.5 -18q121 0 182 141q-72 27 -137 27q-59 0 -100 -27t-41 -68z" />
<glyph unicode="&#xa5;" horiz-adv-x="1648" d="M80 1335v64q166 -6 258 -6q156 0 309 6v-64h-8q-131 0 -131 -49q0 -16 33.5 -73.5t95 -153.5t100.5 -166h305q199 326 203 340q4 10 4 22q0 33 -30.5 55.5t-85.5 24.5v64q121 -6 239 -6q80 0 197 6v-64q-162 -2 -242 -106q-20 -27 -211 -336h289q41 0 41 -23 q0 -25 -47 -24h-312q-31 -49 -75 -123q-74 -119 -86.5 -143.5t-12.5 -49.5v-2v-32h486q47 0 47 -25q0 -23 -45 -22h-488v-291q0 -61 34 -78t159 -17h16v-63q-264 6 -291 6q-154 0 -307 -6v63h21q127 0 158.5 16.5t31.5 80.5v289h-487q-47 0 -47 22q0 25 47 25h487v30v12.5 t-1 10.5t-4 12t-6 13.5t-11 19.5t-15.5 26.5t-23 37t-29.5 47t-37.5 63.5t-48.5 78h-309q-47 0 -49 22q-2 12 9 18.5t34 6.5h286l-217 354q-37 59 -74.5 73.5t-158.5 14.5zM768 846l121 -201h2l123 201h-246z" />
<glyph unicode="&#xa7;" horiz-adv-x="1024" d="M199 522q0 98 49 170t119 111q-168 152 -168 325q0 131 91 223.5t222 92.5q121 0 202 -75t81 -167q0 -41 -23.5 -59.5t-48.5 -18.5q-29 0 -49.5 19.5t-20.5 50.5q0 68 76 72q-37 76 -99.5 104.5t-115.5 28.5q-104 0 -167.5 -83t-63.5 -179q0 -57 37.5 -104.5t79.5 -70 t107.5 -52t84.5 -40.5q106 -61 168.5 -159.5t62.5 -208.5q0 -98 -49 -170t-119 -111q168 -152 168 -325q0 -133 -91 -224.5t-222 -91.5q-121 0 -202 76t-81 168q0 41 23.5 58.5t48.5 17.5q29 0 49.5 -19.5t20.5 -50.5q0 -68 -76 -72q68 -133 215 -133q104 0 167.5 83 t63.5 179q0 59 -37.5 106.5t-80.5 70t-107.5 51t-83.5 39.5q-106 61 -168.5 159t-62.5 209zM283 530q0 -45 19.5 -81.5t57 -64.5t68.5 -44t79 -36.5t64 -29.5q25 -12 33 -12q39 0 87 74t48 160q0 45 -18.5 80.5t-55 62.5t-67.5 43t-80 37.5t-67 30.5q-25 12 -33 12 q-39 0 -87 -75t-48 -157z" />
<glyph unicode="&#xa8;" d="M260 1241q0 47 33 78t76 31q47 0 77.5 -33t30.5 -76q0 -41 -31.5 -74.5t-76.5 -33.5t-77 30.5t-32 77.5zM657 1241q0 41 32 75t77 34t76.5 -31t31.5 -78t-32.5 -77.5t-75.5 -30.5q-47 0 -78 32.5t-31 75.5z" />
<glyph unicode="&#xa9;" horiz-adv-x="2387" d="M170 512q0 223 83 423t222 340t326.5 223t392.5 83q270 0 504.5 -139t376 -386t141.5 -544q0 -221 -83 -421t-221 -341t-326.5 -224t-393.5 -83q-203 0 -390.5 83t-326.5 224t-222 341t-83 421zM252 510q0 -274 130 -501.5t346 -355.5t464 -128q252 0 468 129t345 357.5 t129 502.5q0 205 -77 389t-204 314.5t-299 206t-358 75.5q-250 0 -466 -128t-347 -356.5t-131 -504.5zM625 489q0 221 174 378t411 157q160 0 293 -113q100 111 121 111q25 0 25 -45v-336q0 -47 -35 -47q-14 0 -21.5 12t-13.5 45t-12 49q-33 104 -119 182.5t-211 78.5 q-45 0 -90 -9.5t-103.5 -39t-102.5 -78t-74.5 -136.5t-30.5 -204q0 -119 30.5 -209t74.5 -139.5t102.5 -80t104.5 -39t91 -8.5q133 0 237.5 83t118.5 216q0 2 1 9.5t1 11.5t2.5 10t4.5 9t7 5.5t11 2.5q25 0 25 -35q0 -131 -119 -253t-316 -122q-236 0 -411.5 153.5 t-175.5 380.5z" />
<glyph unicode="&#xaa;" horiz-adv-x="1024" d="M141 1153q0 176 95.5 292t216.5 116q86 0 159 -88q23 47 68 47q25 0 46.5 -16.5t25.5 -47.5q2 -18 2 -57v-305q0 -6 -1 -29t-1 -37q0 -236 100 -235q51 0 69.5 60t18.5 133t4 81q6 10 18.5 12t20.5 -8q8 -12 8 -43q0 -141 -30.5 -212t-112.5 -71q-133 0 -209 127 q-82 -127 -186 -127q-121 0 -216.5 114t-95.5 294zM152 663.5q0 22.5 38 22.5h676q61 0 61.5 -22.5t-42.5 -22.5h-690q-43 0 -43 22.5zM313 1122q0 -129 26 -207.5t54.5 -100t63.5 -21.5q53 0 104 56t51 93l-2 25v53v336q0 51 -50 104t-103 53q-37 0 -72 -34 q-45 -47 -58.5 -123t-13.5 -201v-33z" />
<glyph unicode="&#xab;" horiz-adv-x="1251" d="M287 493.5q0 10.5 60.5 56.5t159.5 151.5t171 246.5q12 37 35 37q20 0 20 -20q0 -16 -25.5 -79t-100.5 -177.5t-173 -214.5q88 -84 161 -195t105.5 -182.5t32.5 -92t-20 -20.5q-23 0 -35 37q-47 90 -104.5 167t-105.5 123t-90 79.5t-66.5 53t-24.5 30zM629 494 q0 16 35 38q227 168 354 416q12 37 37 37q18 0 18 -20q0 -16 -25.5 -79t-99.5 -177.5t-172 -214.5q88 -84 161 -195t104.5 -182.5t31.5 -92t-18 -20.5q-25 0 -37 37q-47 90 -104.5 167t-105.5 123t-90 79.5t-65.5 53.5t-23.5 30z" />
<glyph unicode="&#xac;" horiz-adv-x="1478" d="M172 688q0 41 59 41h1012q35 0 49.5 -12t14.5 -49v-422q0 -59 -41 -59.5t-41 57.5v403h-992q-61 0 -61 41z" />
<glyph unicode="&#xad;" horiz-adv-x="796" d="M78 381v121h545v-121h-545z" />
<glyph unicode="&#xae;" horiz-adv-x="2387" d="M170 512q0 223 83 423t222 340t326.5 223t392.5 83q270 0 504.5 -139t376 -386t141.5 -544q0 -221 -83 -421t-221 -341t-326.5 -224t-393.5 -83q-203 0 -390.5 83t-326.5 224t-222 341t-83 421zM252 510q0 -274 130 -501.5t346 -355.5t464 -128q252 0 468 129t345 357.5 t129 502.5q0 205 -77 389t-204 314.5t-299 206t-358 75.5q-250 0 -466 -128t-347 -356.5t-131 -504.5zM553 0v63h25q125 0 155.5 16.5t30.5 80.5v659q0 63 -32 79.5t-154 16.5h-25v64h553q266 0 390 -85t124 -179q0 -70 -73.5 -133.5t-215.5 -96.5q57 -20 93 -42.5 t57.5 -60.5t30 -63.5t21.5 -88t23 -99.5q39 -129 113 -129q41 0 69.5 27.5t39 58.5t16.5 64l6 32q6 14 21 15q25 0 24 -35q0 -33 -11 -75t-56 -88t-117 -46q-328 0 -328 244v84q0 92 -60.5 138t-158.5 46h-172v-307q0 -63 33 -80t160 -17h16v-63q-152 6 -299 6t-299 -6z M940 823q0 -6 1 -18t1 -19v-274h152q49 0 82.5 2t82 13.5t78 31t51 59t21.5 95.5q0 100 -63.5 151t-233.5 51h-57q-80 0 -97.5 -15.5t-17.5 -76.5z" />
<glyph unicode="&#xaf;" d="M197 1329v66h739v-66h-739z" />
<glyph unicode="&#xb0;" horiz-adv-x="796" d="M170 1171q0 98 68.5 163t158.5 65q98 0 162 -68.5t64 -159.5q0 -98 -68 -162.5t-158 -64.5q-92 0 -159.5 65.5t-67.5 161.5zM252 1171.5q0 -59.5 44 -101.5t101 -42q59 0 101.5 41t42.5 102.5t-43 103.5t-101 42q-59 0 -102 -43t-43 -102.5z" />
<glyph unicode="&#xb1;" horiz-adv-x="1705" d="M172 41q0 41 55 41h584v559h-578q-61 0 -61 41t61 41h578v561q0 27 1 38t10 25.5t30 14.5q41 0 41 -66v-573h575q61 0 61.5 -41t-61.5 -41h-575v-559h577q59 0 59.5 -41t-56.5 -41h-1240q-61 0 -61 41z" />
<glyph unicode="&#xb4;" d="M496 1044q47 47 118 117q115 113 139.5 133.5t49.5 20.5q29 0 50 -23.5t21 -52.5q0 -31 -28.5 -52.5t-171.5 -101.5q-88 -49 -146 -81h-2z" />
<glyph unicode="&#xb5;" d="M156 -350v1155q0 23 2 35q4 25 22.5 44t46.5 19q51 0 68 -49q4 -14 4 -61v-418q0 -252 117 -324q39 -27 96 -26q84 0 147.5 67.5t63.5 147.5v526q0 47 4 61q4 20 23.5 37t44.5 17q55 0 67 -50q4 -12 4 -57v-528q0 -221 101 -221q39 0 59.5 40.5t22.5 90t4 95.5t8 52 q8 8 19.5 8t17.5 -10t6 -43q0 -141 -30 -211t-111 -70q-147 0 -220 148q-84 -147 -235 -148q-113 0 -209 58v-381q0 -96 -71.5 -96t-71.5 92z" />
<glyph unicode="&#xb6;" horiz-adv-x="1366" d="M170 948q0 76 29.5 155t90 152.5t169 119.5t250.5 46h479q59 0 59 -41t-63 -41h-105v-1654h103q66 0 65.5 -41t-61.5 -41h-498q-4 0 -11 -1t-11 -1q-59 0 -60 43q0 41 60 41h106v786q-256 12 -429 141t-173 336zM854 -315h143v1654h-143v-1654z" />
<glyph unicode="&#xb7;" horiz-adv-x="681" d="M231 496q0 43 32 75.5t77 32.5q47 0 78 -32.5t31 -75.5t-32 -76t-77 -33q-47 0 -78 33t-31 76z" />
<glyph unicode="&#xb8;" horiz-adv-x="1024" d="M268 -371h66q274 0 274 113q0 41 -40 74.5t-130 38.5v145h144v-111q170 -39 170 -147q0 -37 -17.5 -64.5t-55.5 -44t-76 -28t-98.5 -15.5t-101.5 -5t-108 -1h-27v45z" />
<glyph unicode="&#xba;" horiz-adv-x="1024" d="M141 1151q0 174 110.5 292t260.5 118q156 0 262.5 -121t106.5 -287q0 -174 -109.5 -291t-259.5 -117q-147 0 -259 116t-112 290zM152 663.5q0 22.5 41 22.5h630q47 0 47 -22.5t-45 -22.5h-630q-43 0 -43 22.5zM313 1153q0 -150 27 -219q53 -141 170 -141q51 0 97 34.5 t73 98.5q29 72 29 227q0 150 -27 219q-25 68 -71 104.5t-99 36.5q-51 0 -97 -35.5t-73 -99.5q-29 -71 -29 -225z" />
<glyph unicode="&#xbb;" horiz-adv-x="1251" d="M174 25q0 16 25.5 79.5t99.5 177t172 214.5q-88 84 -160.5 194.5t-104.5 182t-32 92t19 20.5q25 0 36 -37q47 -90 104.5 -166.5t105.5 -123t90 -80t65.5 -53t23.5 -30t-23.5 -30t-65.5 -54t-90 -80.5t-105.5 -123t-104.5 -167q-12 -37 -36 -37q-19 1 -19 21zM516 24.5 q0 20.5 27.5 86t100.5 177t169 208.5q-86 82 -158.5 191.5t-105.5 182t-33 95.5q0 20 16 20h3q25 0 36 -37q47 -90 104.5 -166.5t105.5 -123t90 -80t66 -53t24 -30t-24 -30t-66 -54t-90 -80.5t-105.5 -123t-104.5 -167q-12 -37 -36 -37q-19 0 -19 20.5z" />
<glyph unicode="&#xbf;" d="M225 -104q0 27 3 52t12.5 48.5t15.5 42t21.5 38t22.5 31t25.5 30t24.5 23.5t24.5 21.5t20.5 18.5q31 29 65 59.5t53 48t42 37t33 30.5t22.5 23.5t17.5 20.5t11 16t7 16.5t2 15.5t1 19q0 43 -24.5 75t-63.5 32q-43 0 -85 -33t-52 -100q-6 -33 -28.5 -33t-22.5 35 q0 61 56 119.5t134 58.5t126 -60.5t48 -138.5q0 -98 -88 -178q-41 -39 -97 -89t-82 -72.5t-59.5 -56.5t-47 -52.5t-29 -44t-19.5 -49t-4 -52.5q0 -102 76 -173.5t180 -71.5q139 0 228.5 108.5t109.5 247.5q-12 -4 -37 -4q-43 0 -67.5 27.5t-24.5 66.5q0 41 26.5 66.5 t65.5 25.5q35 0 65 -24.5t30 -79.5q0 -180 -109 -329.5t-287 -149.5q-143 0 -242.5 97.5t-99.5 240.5zM459 915q0 43 31.5 76t76.5 33q47 0 78 -33t31 -76t-32 -75.5t-77 -32.5q-47 0 -77.5 32.5t-30.5 75.5z" />
<glyph unicode="&#xc0;" horiz-adv-x="1648" d="M123 0v63q66 2 111 16.5t70.5 44.5t34.5 47t21 54q2 6 5 11l407 1181q18 49 51 49t51 -49l441 -1265q20 -59 56 -74t145 -15h10v-63q-117 6 -264.5 6t-298.5 -6v63h8q160 0 159 60q0 23 -112 344h-506q-98 -283 -98 -299q0 -14 6 -29.5t20.5 -33t47 -28.5t77.5 -14v-63 q-119 6 -237 6q-113 0 -205 -6zM532 530h463l-231 666zM535 1690q0 31 21.5 53t47.5 22q16 0 40 -12t147 -90q92 -57 157 -98l-20 -47q-14 4 -305 94q-29 8 -43.5 14t-29.5 22.5t-15 41.5z" />
<glyph unicode="&#xc1;" horiz-adv-x="1648" d="M123 0v63q66 2 111 16.5t70.5 44.5t34.5 47t21 54q2 6 5 11l407 1181q18 49 51 49t51 -49l441 -1265q20 -59 56 -74t145 -15h10v-63q-117 6 -264.5 6t-298.5 -6v63h8q160 0 159 60q0 23 -112 344h-506q-98 -283 -98 -299q0 -14 6 -29.5t20.5 -33t47 -28.5t77.5 -14v-63 q-119 6 -237 6q-113 0 -205 -6zM532 530h463l-231 666zM643 1565q82 51 186 116q100 61 121 72.5t37 11.5q27 0 48.5 -23.5t21.5 -51.5q0 -16 -8.5 -30.5t-20.5 -23t-23.5 -13.5t-23.5 -9l-12 -2q-291 -90 -305 -94z" />
<glyph unicode="&#xc2;" horiz-adv-x="1648" d="M123 0v63q66 2 111 16.5t70.5 44.5t34.5 47t21 54q2 6 5 11l407 1181q18 49 51 49t51 -49l441 -1265q20 -59 56 -74t145 -15h10v-63q-117 6 -264.5 6t-298.5 -6v63h8q160 0 159 60q0 23 -112 344h-506q-98 -283 -98 -299q0 -14 6 -29.5t20.5 -33t47 -28.5t77.5 -14v-63 q-119 6 -237 6q-113 0 -205 -6zM532 530h463l-231 666zM551 1559v2l272 286h2l273 -286v-2l-35 -37h-2l-236 217h-2l-235 -217z" />
<glyph unicode="&#xc3;" horiz-adv-x="1648" d="M123 0v63q66 2 111 16.5t70.5 44.5t34.5 47t21 54q2 6 5 11l407 1181q18 49 51 49t51 -49l441 -1265q20 -59 56 -74t145 -15h10v-63q-117 6 -264.5 6t-298.5 -6v63h8q160 0 159 60q0 23 -112 344h-506q-98 -283 -98 -299q0 -14 6 -29.5t20.5 -33t47 -28.5t77.5 -14v-63 q-119 6 -237 6q-113 0 -205 -6zM426 1683q4 4 25.5 30t27.5 31t25.5 24.5t31 24.5t31 15.5t40 13.5t44.5 3q61 0 183 -39t184 -39h2q92 0 166 78l37 -29v-2q-2 -2 -24.5 -28.5t-28 -30.5t-26 -24.5t-31.5 -26t-30.5 -15.5t-40 -13t-45.5 -3q-61 0 -183 39t-183 39h-2 q-92 0 -166 -78zM532 530h463l-231 666z" />
<glyph unicode="&#xc4;" horiz-adv-x="1648" d="M123 0v63q66 2 111 16.5t70.5 44.5t34.5 47t21 54q2 6 5 11l407 1181q18 49 51 49t51 -49l441 -1265q20 -59 56 -74t145 -15h10v-63q-117 6 -264.5 6t-298.5 -6v63h8q160 0 159 60q0 23 -112 344h-506q-98 -283 -98 -299q0 -14 6 -29.5t20.5 -33t47 -28.5t77.5 -14v-63 q-119 6 -237 6q-113 0 -205 -6zM518 1610q0 41 31 73.5t76 32.5t76.5 -29.5t31.5 -76.5q0 -45 -33.5 -77t-74.5 -32q-45 0 -76 33t-31 76zM532 530h463l-231 666zM915 1610q0 47 32 76.5t75 29.5q47 0 77.5 -32.5t30.5 -75.5q0 -41 -30.5 -74t-75.5 -33t-77 31t-32 78z" />
<glyph unicode="&#xc5;" horiz-adv-x="1648" d="M123 0v63q86 2 139 32t68.5 59.5t31.5 76.5q2 10 5 15l362 1042q37 109 47 139q-80 27 -113.5 91.5t-33.5 128.5q0 98 59.5 160.5t136.5 62.5q82 0 138.5 -66.5t56.5 -156.5q0 -63 -34 -128t-114 -92q29 -90 46 -135l385 -1108q18 -49 25 -66.5t31.5 -33.5t57.5 -18.5 t105 -2.5h4v-63q-117 6 -264.5 6t-298.5 -6v63h8q160 0 159 60q0 23 -112 344h-506q-98 -283 -98 -299q0 -14 6 -29.5t20.5 -33t47 -28.5t77.5 -14v-63q-119 6 -237 6q-113 0 -205 -6zM532 530h463l-231 666zM680 1649q0 -102 44 -141.5t101.5 -39.5t100.5 39t43 138 q0 102 -44 141t-101.5 39t-100.5 -39t-43 -137z" />
<glyph unicode="&#xc6;" horiz-adv-x="1961" d="M123 0v63q43 0 75.5 6.5t57.5 21.5t40 23.5t29.5 34t18.5 33.5t16.5 40t12.5 34l387 1077l-174 2v64h1147l57 -461h-51q-10 84 -18.5 129t-26 98.5t-41 79t-63.5 50t-97 32.5t-137 8h-144q-88 0 -110.5 -12t-22.5 -68v-550h154q47 0 75.5 3t64.5 14t56.5 40t26.5 74 q6 35 6 106h54v-539h-54q0 145 -40 191.5t-189 46.5h-154v-502q2 -51 23.5 -63.5t83.5 -12.5h184q57 0 104.5 7.5t83 16.5t65.5 30.5t50.5 39t38 53.5t28.5 61.5t22.5 76.5t17.5 83t16 97h51l-86 -528h-1009v63h10q92 0 118.5 14.5t28.5 67.5v496h-329q-8 -23 -52.5 -142.5 t-79 -219t-34.5 -113.5q0 -37 35.5 -68.5t115.5 -34.5v-63q-119 6 -237 6q-113 0 -205 -6zM602 705h307v536q0 45 -18.5 62.5t-63.5 25.5z" />
<glyph unicode="&#xc7;" horiz-adv-x="1593" d="M170 700q0 317 215 530.5t498 213.5q225 0 377 -176q113 162 124 170q4 2 11 2q25 0 24 -43v-496q0 -27 -14 -37q-23 -14 -39 2q-8 8 -10 28.5t-12.5 68t-32.5 106.5q-57 145 -165 228t-241 83q-145 0 -269 -84t-187 -223q-68 -152 -68 -375q0 -164 39 -289.5t96 -197.5 t132 -117t137.5 -60.5t123.5 -15.5q180 0 311.5 126t145.5 317q0 37 14 47q8 6 15 6q25 0 24 -49q0 -154 -125 -316.5t-336 -189.5v-70q29 -4 59 -13t70.5 -45t40.5 -89q0 -37 -17 -64.5t-54 -44t-74 -28t-97.5 -15.5t-101.5 -5t-108 -1h-31v45h66q274 0 274 113 q0 41 -40 74.5t-130 38.5v104q-291 37 -468 249.5t-177 491.5z" />
<glyph unicode="&#xc8;" horiz-adv-x="1507" d="M123 0v63h27q117 0 150.5 15.5t33.5 71.5v1093q0 57 -35 72.5t-149 15.5h-27v62h1153l57 -461h-51q-12 92 -21.5 141t-40 110.5t-77.5 92.5q-84 55 -316 55h-168q-94 0 -117.5 -10t-25.5 -64v-501h164q154 0 198 45t44 192h51v-540h-51q0 150 -45.5 194.5t-198.5 44.5 h-162v-551q0 -55 23.5 -66.5t126.5 -11.5h190q80 0 130 4.5t114.5 26t107.5 62.5q39 39 69 114.5t38 118.5t24 139h52l-86 -528h-1182zM532 1690q0 31 21.5 53t48.5 22q16 0 40 -12t146 -90q92 -57 158 -98l-20 -47q-14 4 -305 94q-29 8 -43.5 14t-30 22.5t-15.5 41.5z" />
<glyph unicode="&#xc9;" horiz-adv-x="1507" d="M123 0v63h27q117 0 150.5 15.5t33.5 71.5v1093q0 57 -35 72.5t-149 15.5h-27v62h1153l57 -461h-51q-12 92 -21.5 141t-40 110.5t-77.5 92.5q-84 55 -316 55h-168q-94 0 -117.5 -10t-25.5 -64v-501h164q154 0 198 45t44 192h51v-540h-51q0 150 -45.5 194.5t-198.5 44.5 h-162v-551q0 -55 23.5 -66.5t126.5 -11.5h190q80 0 130 4.5t114.5 26t107.5 62.5q39 39 69 114.5t38 118.5t24 139h52l-86 -528h-1182zM670 1565q82 51 186 116q100 61 120.5 72.5t37.5 11.5q29 0 49 -24.5t20 -50.5q0 -16 -8 -30.5t-20.5 -23t-23.5 -13.5t-23 -9l-13 -2 q-291 -90 -305 -94z" />
<glyph unicode="&#xca;" horiz-adv-x="1507" d="M123 0v63h27q117 0 150.5 15.5t33.5 71.5v1093q0 57 -35 72.5t-149 15.5h-27v62h1153l57 -461h-51q-12 92 -21.5 141t-40 110.5t-77.5 92.5q-84 55 -316 55h-168q-94 0 -117.5 -10t-25.5 -64v-501h164q154 0 198 45t44 192h51v-540h-51q0 150 -45.5 194.5t-198.5 44.5 h-162v-551q0 -55 23.5 -66.5t126.5 -11.5h190q80 0 130 4.5t114.5 26t107.5 62.5q39 39 69 114.5t38 118.5t24 139h52l-86 -528h-1182zM492 1559l272 288h2l272 -288l-34 -37l-238 217h-2l-236 -217z" />
<glyph unicode="&#xcb;" horiz-adv-x="1507" d="M123 0v63h27q117 0 150.5 15.5t33.5 71.5v1093q0 57 -35 72.5t-149 15.5h-27v62h1153l57 -461h-51q-12 92 -21.5 141t-40 110.5t-77.5 92.5q-84 55 -316 55h-168q-94 0 -117.5 -10t-25.5 -64v-501h164q154 0 198 45t44 192h51v-540h-51q0 150 -45.5 194.5t-198.5 44.5 h-162v-551q0 -55 23.5 -66.5t126.5 -11.5h190q80 0 130 4.5t114.5 26t107.5 62.5q39 39 69 114.5t38 118.5t24 139h52l-86 -528h-1182zM459 1610q0 45 32.5 75.5t75.5 30.5q45 0 76 -32.5t31 -75.5q0 -45 -33 -76t-74 -31q-47 0 -77.5 33t-30.5 76zM858 1608q0 47 32 77.5 t75 30.5q41 0 74.5 -31.5t33.5 -76.5t-33.5 -76t-74.5 -31q-47 0 -77 32t-30 75z" />
<glyph unicode="&#xcc;" horiz-adv-x="854" d="M113 0v63h32q117 0 153 14.5t36 74.5v1095q0 57 -36 72.5t-155 15.5h-30v64q270 -6 299 -6q162 0 325 6v-64h-30q-119 0 -154 -15t-37 -73v-1095q2 -55 35 -72t154 -17h32v-63q-160 6 -323 6q-31 0 -301 -6zM164 1690q0 29 20.5 51t49.5 22q18 0 42.5 -13t157.5 -97 q84 -53 142 -88l-21 -48q-61 16 -305 93q-27 8 -42 14t-29.5 23.5t-14.5 42.5z" />
<glyph unicode="&#xcd;" horiz-adv-x="854" d="M113 0v63h32q117 0 153 14.5t36 74.5v1095q0 57 -36 72.5t-155 15.5h-30v64q270 -6 299 -6q162 0 325 6v-64h-30q-119 0 -154 -15t-37 -73v-1095q2 -55 35 -72t154 -17h32v-63q-160 6 -323 6q-31 0 -301 -6zM223 1567q309 193 328 196q6 2 16 2q29 0 49.5 -24.5 t20.5 -51.5q0 -25 -16.5 -42t-29 -21t-42.5 -14q-244 -76 -305 -93z" />
<glyph unicode="&#xce;" horiz-adv-x="854" d="M113 0v63h32q117 0 153 14.5t36 74.5v1095q0 57 -36 72.5t-155 15.5h-30v64q270 -6 299 -6q162 0 325 6v-64h-30q-119 0 -154 -15t-37 -73v-1095q2 -55 35 -72t154 -17h32v-63q-160 6 -323 6q-31 0 -301 -6zM152 1559v2l272 286h2l273 -286v-2l-35 -37h-2l-236 217h-2 l-235 -217z" />
<glyph unicode="&#xcf;" horiz-adv-x="854" d="M113 0v63h32q117 0 153 14.5t36 74.5v1095q0 57 -36 72.5t-155 15.5h-30v64q270 -6 299 -6q162 0 325 6v-64h-30q-119 0 -154 -15t-37 -73v-1095q2 -55 35 -72t154 -17h32v-63q-160 6 -323 6q-31 0 -301 -6zM119 1608q0 43 30.5 75.5t75.5 32.5q47 0 78 -31.5t31 -74.5 q0 -45 -33 -77t-74 -32q-47 0 -77.5 32t-30.5 75zM516 1610q0 47 32 76.5t75 29.5q47 0 77.5 -32.5t30.5 -73.5q0 -43 -30.5 -76t-75.5 -33q-47 0 -78 33t-31 76z" />
<glyph unicode="&#xd0;" horiz-adv-x="1677" d="M127 0v63h27q117 0 150.5 16.5t33.5 76.5v499h-158q-53 0 -53 29q0 4 4 16q8 18 59 19h37q18 0 55 -1t56 -1v526q0 61 -35 76.5t-156 15.5h-20v64h717q195 0 334 -86q154 -94 240.5 -262t86.5 -361q0 -276 -163.5 -467.5t-391.5 -218.5q-33 -4 -102 -4h-721zM514 137 q2 -51 25.5 -62.5t119.5 -11.5h150q301 0 424 246q68 137 67 363v33q0 289 -110 444q-129 186 -381 186h-160q-61 0 -83.5 -3t-37 -18.5t-14.5 -51.5v-545h342q45 0 45 -31t-47 -31h-340v-518z" />
<glyph unicode="&#xd1;" horiz-adv-x="1648" d="M123 0v63q123 0 167 39t44 115v1104q-68 14 -178 14h-33v64h354q18 0 28.5 -4t15.5 -10.5t18 -22.5l716 -1051v873q0 74 -43 112.5t-168 38.5v64q143 -6 226 -6q127 0 252 6v-64q-121 0 -166 -37.5t-45 -113.5v-1098q0 -4 1 -14.5t1 -16.5q0 -53 -29 -53q-18 0 -47 39 l-846 1241h-2v-1065q0 -31 6 -53.5t25.5 -48t64.5 -39t115 -13.5v-63q-123 6 -248 6q-20 0 -229 -6zM424 1683q4 4 25.5 30t27.5 31t25.5 24.5t31 24.5t31 15.5t40 13.5t44.5 3q61 0 183 -39t184 -39h2q92 0 166 78l37 -29v-2q-2 -2 -24.5 -28.5t-28 -30.5t-26 -24.5 t-31.5 -26t-30.5 -15.5t-40 -13t-45.5 -3q-61 0 -183 39t-183 39h-2q-92 0 -166 -78z" />
<glyph unicode="&#xd2;" horiz-adv-x="1705" d="M170 694q0 315 201.5 532.5t480.5 217.5q276 0 479 -217t203 -532.5t-203 -527.5t-479 -212q-274 0 -478 213t-204 526zM381 727q0 -197 46 -344t120 -224t150.5 -113t154.5 -36t154.5 37t150.5 114t120 224t46 344q0 178 -46 314.5t-120 208t-150.5 106.5t-154.5 35 t-154.5 -35t-150.5 -106.5t-120 -208t-46 -316.5zM618 1690q0 31 22 53t48 22q16 0 40 -12t146 -90q92 -57 158 -98l-20 -47q-14 4 -305 94q-29 8 -43.5 14t-30 22.5t-15.5 41.5z" />
<glyph unicode="&#xd3;" horiz-adv-x="1705" d="M170 694q0 315 201.5 532.5t480.5 217.5q276 0 479 -217t203 -532.5t-203 -527.5t-479 -212q-274 0 -478 213t-204 526zM381 727q0 -197 46 -344t120 -224t150.5 -113t154.5 -36t154.5 37t150.5 114t120 224t46 344q0 178 -46 314.5t-120 208t-150.5 106.5t-154.5 35 t-154.5 -35t-150.5 -106.5t-120 -208t-46 -316.5zM670 1565q311 193 325 198q8 2 21 2q29 0 48 -24.5t19 -50.5q0 -16 -8 -30.5t-20.5 -23t-23.5 -13.5t-23 -9l-13 -2l-303 -94z" />
<glyph unicode="&#xd4;" horiz-adv-x="1705" d="M170 694q0 315 201.5 532.5t480.5 217.5q276 0 479 -217t203 -532.5t-203 -527.5t-479 -212q-274 0 -478 213t-204 526zM381 727q0 -197 46 -344t120 -224t150.5 -113t154.5 -36t154.5 37t150.5 114t120 224t46 344q0 178 -46 314.5t-120 208t-150.5 106.5t-154.5 35 t-154.5 -35t-150.5 -106.5t-120 -208t-46 -316.5zM580 1559v2l272 286l274 -286v-2l-36 -37l-238 217l-238 -217z" />
<glyph unicode="&#xd5;" horiz-adv-x="1705" d="M170 694q0 315 201.5 532.5t480.5 217.5q276 0 479 -217t203 -532.5t-203 -527.5t-479 -212q-274 0 -478 213t-204 526zM381 727q0 -197 46 -344t120 -224t150.5 -113t154.5 -36t154.5 37t150.5 114t120 224t46 344q0 178 -46 314.5t-120 208t-150.5 106.5t-154.5 35 t-154.5 -35t-150.5 -106.5t-120 -208t-46 -316.5zM455 1683q2 2 18 21.5t18.5 22t17.5 19.5t20.5 20t19.5 15.5t21.5 15.5t22.5 10.5t26.5 10.5t28 5t32.5 2q61 0 183 -39t184 -39h2q92 0 165 78l35 -29v-2q-2 -2 -24.5 -28.5t-27.5 -30.5t-25.5 -24.5t-32 -26t-30.5 -15.5 t-39.5 -13t-45.5 -3q-61 0 -183 39t-184 39h-2q-92 0 -166 -78z" />
<glyph unicode="&#xd6;" horiz-adv-x="1705" d="M170 694q0 315 201.5 532.5t480.5 217.5q276 0 479 -217t203 -532.5t-203 -527.5t-479 -212q-274 0 -478 213t-204 526zM381 727q0 -197 46 -344t120 -224t150.5 -113t154.5 -36t154.5 37t150.5 114t120 224t46 344q0 178 -46 314.5t-120 208t-150.5 106.5t-154.5 35 t-154.5 -35t-150.5 -106.5t-120 -208t-46 -316.5zM545 1608q0 43 30.5 75.5t75.5 32.5t77 -29.5t32 -76.5q0 -45 -33 -77t-74 -32q-47 0 -77.5 33t-30.5 74zM942 1610q0 45 33 75.5t76 30.5q47 0 77.5 -32.5t30.5 -75.5q0 -45 -33.5 -76t-74.5 -31q-47 0 -78 32t-31 77z" />
<glyph unicode="&#xd8;" horiz-adv-x="1705" d="M170 694q0 315 202.5 532.5t479.5 217.5q201 0 385 -131l137 200h2l41 -28v-2l-139 -205q113 -94 184.5 -251t71.5 -333q0 -313 -203 -526t-479 -213q-197 0 -389 129l-133 -199l-43 29v2l137 203q-31 27 -61.5 61.5t-81 107t-81 179t-30.5 227.5zM352 690 q0 -172 30 -283.5t95 -207.5l713 1044q-145 154 -338 154q-131 0 -238.5 -70t-169.5 -182q-92 -170 -92 -455zM512 154q147 -152 338 -152q133 0 240.5 69.5t171.5 184.5q90 166 90 440q0 317 -127 504l-713 -1042v-4z" />
<glyph unicode="&#xd9;" horiz-adv-x="1648" d="M123 1335v64q152 -6 301 -6t301 6v-64h-27q-117 0 -149.5 -16t-32.5 -74v-758q0 -205 59 -305q18 -31 46 -62.5t92.5 -66.5t140.5 -35q145 0 254 103.5t133 259.5q8 55 8 125v680q0 86 -52 116.5t-159 32.5v64q125 -6 254 -6q20 0 230 6v-64q-45 0 -76 -5t-65.5 -18.5 t-52 -45t-17.5 -80.5v-684q0 -88 -4 -115q-25 -180 -152 -306t-303 -126q-205 0 -361.5 144.5t-156.5 379.5v762q0 61 -34 77.5t-159 16.5h-18zM590 1690q0 31 21.5 53t47.5 22q16 0 40 -12t147 -90q92 -57 158 -98l-21 -47q-14 4 -305 94q-29 8 -43 14t-29.5 22.5 t-15.5 41.5z" />
<glyph unicode="&#xda;" horiz-adv-x="1648" d="M123 1335v64q152 -6 301 -6t301 6v-64h-27q-117 0 -149.5 -16t-32.5 -74v-758q0 -205 59 -305q18 -31 46 -62.5t92.5 -66.5t140.5 -35q145 0 254 103.5t133 259.5q8 55 8 125v680q0 86 -52 116.5t-159 32.5v64q125 -6 254 -6q20 0 230 6v-64q-45 0 -76 -5t-65.5 -18.5 t-52 -45t-17.5 -80.5v-684q0 -88 -4 -115q-25 -180 -152 -306t-303 -126q-205 0 -361.5 144.5t-156.5 379.5v762q0 61 -34 77.5t-159 16.5h-18zM727 1565q82 51 186 116q100 61 121 72.5t37 11.5q29 0 49.5 -24.5t20.5 -50.5q0 -16 -8.5 -30.5t-20.5 -23t-23.5 -13.5 t-23.5 -9l-12 -2q-291 -90 -305 -94z" />
<glyph unicode="&#xdb;" horiz-adv-x="1648" d="M123 1335v64q152 -6 301 -6t301 6v-64h-27q-117 0 -149.5 -16t-32.5 -74v-758q0 -205 59 -305q18 -31 46 -62.5t92.5 -66.5t140.5 -35q145 0 254 103.5t133 259.5q8 55 8 125v680q0 86 -52 116.5t-159 32.5v64q125 -6 254 -6q20 0 230 6v-64q-45 0 -76 -5t-65.5 -18.5 t-52 -45t-17.5 -80.5v-684q0 -88 -4 -115q-25 -180 -152 -306t-303 -126q-205 0 -361.5 144.5t-156.5 379.5v762q0 61 -34 77.5t-159 16.5h-18zM580 1559v2l272 286h2l272 -286v-2l-36 -37l-236 217h-2l-238 -217z" />
<glyph unicode="&#xdc;" horiz-adv-x="1648" d="M123 1335v64q152 -6 301 -6t301 6v-64h-27q-117 0 -149.5 -16t-32.5 -74v-758q0 -205 59 -305q18 -31 46 -62.5t92.5 -66.5t140.5 -35q145 0 254 103.5t133 259.5q8 55 8 125v680q0 86 -52 116.5t-159 32.5v64q125 -6 254 -6q20 0 230 6v-64q-45 0 -76 -5t-65.5 -18.5 t-52 -45t-17.5 -80.5v-684q0 -88 -4 -115q-25 -180 -152 -306t-303 -126q-205 0 -361.5 144.5t-156.5 379.5v762q0 61 -34 77.5t-159 16.5h-18zM516 1610q0 41 31 73.5t76 32.5t76.5 -29.5t31.5 -76.5q0 -45 -32.5 -77t-73.5 -32q-47 0 -78 33t-31 76zM913 1610 q0 47 32 76.5t75 29.5q47 0 77.5 -32.5t30.5 -75.5q0 -41 -30.5 -74t-75.5 -33t-77 31t-32 78z" />
<glyph unicode="&#xdd;" horiz-adv-x="1648" d="M80 1335v64q166 -6 258 -6q156 0 309 6v-64h-10q-127 0 -127 -49q0 -20 18 -51l320 -520q20 -33 41 -70h2l336 549q23 37 22 61q0 74 -116 80v64q121 -6 239 -6q80 0 197 6v-64q-82 0 -140.5 -27.5t-84 -57t-58.5 -83.5l-354 -575q-18 -33 -19 -66v-368q0 -63 33 -79 t158 -16h18v-63q-264 6 -291 6q-154 0 -307 -6v63h23q125 0 156.5 15.5t31.5 79.5v374q0 29 -20 62l-398 647q-27 45 -44 60.5t-59 24.5t-132 9h-2zM729 1565q82 51 186 116q100 61 121 72.5t37 11.5q29 0 48.5 -24.5t19.5 -50.5q0 -16 -7.5 -30.5t-20.5 -23t-23.5 -13.5 t-22.5 -9l-12 -2q-291 -90 -305 -94z" />
<glyph unicode="&#xde;" horiz-adv-x="1392" d="M129 0v63h27q117 0 150.5 15.5t33.5 71.5v1097q0 57 -35 72.5t-149 15.5h-27v64q147 -6 295 -6q150 0 297 6v-64h-25q-125 0 -155.5 -17.5t-30.5 -80.5v-107h268q211 0 326 -119.5t115 -262.5q0 -141 -114 -263.5t-343 -122.5h-252v-204q0 -63 34 -79t158 -16h19v-63 q-147 6 -297 6q-148 0 -295 -6zM510 426h215q131 0 210 96t79 228q0 129 -72 223t-184 94h-248v-641z" />
<glyph unicode="&#xdf;" horiz-adv-x="1193" d="M27 -248q0 45 27.5 70.5t66.5 25.5t66.5 -25.5t27.5 -66.5q0 -33 -22.5 -62.5t-75.5 -31.5q43 -35 80 -35q41 0 73.5 43t32.5 140q0 90 -11 290.5t-25.5 428t-18.5 290.5h-176v62h172q-12 233 -13 235q0 156 79 243t278 87q166 0 271.5 -85t105.5 -204q0 -76 -85 -239.5 t-85 -200.5q0 -33 28.5 -70t70.5 -73.5t84 -77.5t70.5 -96.5t28.5 -116.5q0 -123 -91 -214.5t-226 -91.5q-104 0 -178 53.5t-74 129.5q0 31 18.5 51t48.5 20q29 0 47.5 -19t18.5 -46q0 -49 -59 -66q76 -76 174 -75q57 0 93 47t46 99t10 103q0 49 -20.5 89t-49 69t-58 61.5 t-50 85t-20.5 121.5q0 57 46 128t46 73q23 57 22 225q0 106 -43 170q-68 102 -186 103q-184 0 -209 -105q-10 -45 -10 -114q0 -37 16 -316l33 -520q12 -213 12 -319q0 -184 -33 -275q-14 -35 -33.5 -67.5t-65.5 -67.5t-101 -35q-74 0 -124 52t-50 120z" />
<glyph unicode="&#xe0;" d="M141 440q0 195 109.5 330t259.5 135q113 0 213 -125q2 82 72 82q74 0 71 -92v-522q0 -223 101 -223q86 0 86 217v22q0 27 6 37t18.5 10t20.5 -8q6 -8 6 -45q0 -141 -30 -211t-111 -70q-57 0 -122 35t-100 117q-92 -152 -231 -152q-145 0 -257 131t-112 332zM262 1239 q0 27 21.5 51.5t50.5 24.5q20 0 41.5 -17.5t134.5 -128.5q76 -74 129 -125l-31 -40q-307 174 -323 188q-23 16 -23 47zM313 442q0 -88 4.5 -140t27 -122.5t67.5 -111.5q47 -43 102 -43q78 0 143.5 72.5t65.5 133.5v418q0 63 -66.5 136t-142.5 73q-113 0 -170 -153 q-31 -85 -31 -263z" />
<glyph unicode="&#xe1;" d="M141 440q0 195 109.5 330t259.5 135q113 0 213 -125q2 82 72 82q74 0 71 -92v-522q0 -223 101 -223q86 0 86 217v22q0 27 6 37t18.5 10t20.5 -8q6 -8 6 -45q0 -141 -30 -211t-111 -70q-57 0 -122 35t-100 117q-92 -152 -231 -152q-145 0 -257 131t-112 332zM313 442 q0 -88 4.5 -140t27 -122.5t67.5 -111.5q47 -43 102 -43q78 0 143.5 72.5t65.5 133.5v418q0 63 -66.5 136t-142.5 73q-113 0 -170 -153q-31 -85 -31 -263zM496 1044q254 246 266 256q18 14 41 15q29 0 50 -23.5t21 -52.5q0 -31 -28.5 -52.5t-171.5 -101.5q-88 -49 -146 -81 h-2z" />
<glyph unicode="&#xe2;" d="M141 440q0 195 109.5 330t259.5 135q113 0 213 -125q2 82 72 82q74 0 71 -92v-522q0 -223 101 -223q86 0 86 217v22q0 27 6 37t18.5 10t20.5 -8q6 -8 6 -45q0 -141 -30 -211t-111 -70q-57 0 -122 35t-100 117q-92 -152 -231 -152q-145 0 -257 131t-112 332zM295 999 l272 307h2l274 -307l-36 -35h-2l-236 234h-2l-234 -234h-2zM313 442q0 -88 4.5 -140t27 -122.5t67.5 -111.5q47 -43 102 -43q78 0 143.5 72.5t65.5 133.5v418q0 63 -66.5 136t-142.5 73q-113 0 -170 -153q-31 -85 -31 -263z" />
<glyph unicode="&#xe3;" d="M141 440q0 195 109.5 330t259.5 135q113 0 213 -125q2 82 72 82q74 0 71 -92v-522q0 -223 101 -223q86 0 86 217v22q0 27 6 37t18.5 10t20.5 -8q6 -8 6 -45q0 -141 -30 -211t-111 -70q-57 0 -122 35t-100 117q-92 -152 -231 -152q-145 0 -257 131t-112 332zM170 1093 q4 4 20.5 23.5t21.5 25t19.5 21.5t21.5 22.5t20.5 18.5t21.5 17t22.5 13.5t25 11.5t23.5 6t25 3q49 0 131 -49t132 -49q76 0 163 98h2l33 -31q-49 -59 -71.5 -82.5t-65.5 -51t-84 -27.5q-47 0 -131 48t-131 48q-78 0 -164 -96zM313 442q0 -88 4.5 -140t27 -122.5 t67.5 -111.5q47 -43 102 -43q78 0 143.5 72.5t65.5 133.5v418q0 63 -66.5 136t-142.5 73q-113 0 -170 -153q-31 -85 -31 -263z" />
<glyph unicode="&#xe4;" d="M141 440q0 195 109.5 330t259.5 135q113 0 213 -125q2 82 72 82q74 0 71 -92v-522q0 -223 101 -223q86 0 86 217v22q0 27 6 37t18.5 10t20.5 -8q6 -8 6 -45q0 -141 -30 -211t-111 -70q-57 0 -122 35t-100 117q-92 -152 -231 -152q-145 0 -257 131t-112 332zM260 1241 q0 47 33 78t76 31q47 0 77.5 -33t30.5 -76q0 -41 -31.5 -74.5t-76.5 -33.5t-77 30.5t-32 77.5zM313 442q0 -88 4.5 -140t27 -122.5t67.5 -111.5q47 -43 102 -43q78 0 143.5 72.5t65.5 133.5v418q0 63 -66.5 136t-142.5 73q-113 0 -170 -153q-31 -85 -31 -263zM657 1241 q0 41 32 75t77 34t76.5 -31t31.5 -78t-32.5 -77.5t-75.5 -30.5q-47 0 -78 32.5t-31 75.5z" />
<glyph unicode="&#xe5;" d="M141 440q0 195 109.5 330t259.5 135q113 0 213 -125q2 82 72 82q74 0 71 -92v-522q0 -223 101 -223q86 0 86 217v22q0 27 6 37t18.5 10t20.5 -8q6 -8 6 -45q0 -141 -30 -211t-111 -70q-57 0 -122 35t-100 117q-92 -152 -231 -152q-145 0 -257 131t-112 332zM313 442 q0 -88 4.5 -140t27 -122.5t67.5 -111.5q47 -43 102 -43q78 0 143.5 72.5t65.5 133.5v418q0 63 -66.5 136t-142.5 73q-113 0 -170 -153q-31 -85 -31 -263zM316 1188q0 66 55 116t141 50q74 0 134.5 -45t60.5 -121q0 -70 -58.5 -117t-136.5 -47q-74 0 -135 45t-61 119z M367 1188q0 -27 8 -50.5t42 -46t91 -22.5q147 0 147.5 119t-141.5 119q-147 0 -147 -119z" />
<glyph unicode="&#xe6;" horiz-adv-x="1593" d="M141 455q0 193 109.5 321.5t257.5 128.5q131 0 227 -127v47q0 78 60 78q61 0 61 -76v-39q127 117 279 117q109 0 186.5 -60.5t77.5 -156.5q0 -72 -44 -119t-126 -66.5t-148.5 -25.5t-158.5 -6h-66q8 -236 100 -350q80 -98 185 -98q86 0 163.5 47t122.5 123q2 4 9.5 17 t13.5 21.5t12 10.5q12 4 21.5 -4.5t9.5 -20.5q0 -18 -23.5 -56t-65.5 -80t-113.5 -73t-151.5 -31q-109 0 -202 70t-153 199q-96 -268 -276 -269q-145 0 -256 137.5t-111 340.5zM313 457q0 -223 54 -326q59 -109 145 -108q70 0 128 65.5t85 135t27 110.5q0 6 -8.5 53 t-8.5 119v145q0 63 -68.5 134t-148.5 71q-125 0 -178 -154q-27 -77 -27 -245zM856 518h88q383 0 383 170q0 76 -58.5 123t-133.5 47q-102 0 -185.5 -80t-93.5 -260z" />
<glyph unicode="&#xe7;" horiz-adv-x="1024" d="M141 442q0 199 128 331t300 132q119 0 201 -61.5t82 -151.5q0 -45 -27.5 -71.5t-66.5 -26.5t-66.5 26.5t-27.5 67.5t27.5 66.5t70.5 27.5q-76 76 -189 76q-137 0 -211 -141q-49 -96 -49 -287q0 -199 68 -297q76 -111 194 -110q98 0 189.5 41.5t144.5 119.5q4 6 9.5 15.5 t9.5 16.5t10 14.5t10 9.5q12 6 22.5 -2.5t10.5 -20.5q0 -6 -9 -26.5t-34 -52.5t-61.5 -61.5t-99 -56t-138.5 -38.5v-93q170 -29 170 -147q0 -53 -38 -88t-113.5 -48.5t-138 -17.5t-163.5 -4h-30v45h65q274 0 275 113q0 41 -41 74.5t-129 38.5v129q-156 29 -255.5 158.5 t-99.5 299.5z" />
<glyph unicode="&#xe8;" horiz-adv-x="1024" d="M141 489q0 182 129 299t295 117q111 0 187.5 -61.5t76.5 -157.5q0 -51 -21.5 -89t-63.5 -60.5t-82.5 -37t-103 -20.5t-102.5 -7t-100 -1h-43q4 -231 78 -338q76 -111 184 -110q96 0 191.5 45t146.5 125q2 2 11.5 18t15.5 23.5t14 7.5q10 2 18.5 -6.5t8.5 -18.5 q0 -20 -26.5 -57t-73.5 -79t-130 -73t-178 -31q-184 0 -308 153.5t-124 358.5zM205 1239q0 27 21.5 51.5t49.5 24.5q23 0 51.5 -23.5t139.5 -132.5q70 -70 117 -115l-31 -40h-2q-307 174 -324 188q-22 16 -22 47zM313 518h64q74 0 127 4t118.5 19.5t101.5 51.5t36 93 q0 70 -53.5 121t-137.5 51q-76 0 -136 -45t-89 -115q-27 -63 -31 -180z" />
<glyph unicode="&#xe9;" horiz-adv-x="1024" d="M141 489q0 182 129 299t295 117q111 0 187.5 -61.5t76.5 -157.5q0 -51 -21.5 -89t-63.5 -60.5t-82.5 -37t-103 -20.5t-102.5 -7t-100 -1h-43q4 -231 78 -338q76 -111 184 -110q96 0 191.5 45t146.5 125q2 2 11.5 18t15.5 23.5t14 7.5q10 2 18.5 -6.5t8.5 -18.5 q0 -20 -26.5 -57t-73.5 -79t-130 -73t-178 -31q-184 0 -308 153.5t-124 358.5zM313 518h64q74 0 127 4t118.5 19.5t101.5 51.5t36 93q0 70 -53.5 121t-137.5 51q-76 0 -136 -45t-89 -115q-27 -63 -31 -180zM441 1044q47 47 118 117q115 113 139.5 133.5t49.5 20.5 q29 0 50 -23.5t21 -52.5q0 -31 -28.5 -52.5t-171.5 -101.5q-88 -49 -146 -81h-2z" />
<glyph unicode="&#xea;" horiz-adv-x="1024" d="M141 489q0 182 129 299t295 117q111 0 187.5 -61.5t76.5 -157.5q0 -51 -21.5 -89t-63.5 -60.5t-82.5 -37t-103 -20.5t-102.5 -7t-100 -1h-43q4 -231 78 -338q76 -111 184 -110q96 0 191.5 45t146.5 125q2 2 11.5 18t15.5 23.5t14 7.5q10 2 18.5 -6.5t8.5 -18.5 q0 -20 -26.5 -57t-73.5 -79t-130 -73t-178 -31q-184 0 -308 153.5t-124 358.5zM238 999l272 307h2l274 -307l-36 -35h-2l-236 234h-2l-234 -234h-2zM313 518h64q74 0 127 4t118.5 19.5t101.5 51.5t36 93q0 70 -53.5 121t-137.5 51q-76 0 -136 -45t-89 -115q-27 -63 -31 -180 z" />
<glyph unicode="&#xeb;" horiz-adv-x="1024" d="M141 489q0 182 129 299t295 117q111 0 187.5 -61.5t76.5 -157.5q0 -51 -21.5 -89t-63.5 -60.5t-82.5 -37t-103 -20.5t-102.5 -7t-100 -1h-43q4 -231 78 -338q76 -111 184 -110q96 0 191.5 45t146.5 125q2 2 11.5 18t15.5 23.5t14 7.5q10 2 18.5 -6.5t8.5 -18.5 q0 -20 -26.5 -57t-73.5 -79t-130 -73t-178 -31q-184 0 -308 153.5t-124 358.5zM205 1241q0 41 30.5 75t75.5 34t77 -31t32 -78q0 -45 -33 -76.5t-74 -31.5q-47 0 -77.5 32.5t-30.5 75.5zM313 518h64q74 0 127 4t118.5 19.5t101.5 51.5t36 93q0 70 -53.5 121t-137.5 51 q-76 0 -136 -45t-89 -115q-27 -63 -31 -180zM602 1241q0 47 33 78t76 31q45 0 75.5 -33t30.5 -76q0 -45 -32.5 -75.5t-73.5 -30.5q-47 0 -78 31.5t-31 74.5z" />
<glyph unicode="&#xec;" horiz-adv-x="681" d="M31 606q0 61 14 123t62.5 119t121.5 57q88 0 150.5 -65.5t62.5 -151.5q0 -23 -31.5 -257t-31.5 -273q0 -133 80 -133q14 0 30.5 6t39 23.5t41 60.5t24.5 106q2 12 2 29.5t1 27t3 17.5t7 12t16 4q27 0 26 -35q0 -61 -14 -123.5t-62.5 -119t-119.5 -56.5q-90 0 -151.5 64.5 t-61.5 153.5q0 23 30.5 256t30.5 272q0 135 -78 135q-14 0 -30.5 -6t-40 -23.5t-42 -61.5t-24.5 -108q0 -8 -1 -24.5t-2 -25.5t-3 -19t-7 -15.5t-16 -5.5q-26 0 -26 37zM35 1239q0 29 22.5 52.5t48.5 23.5q23 0 49.5 -22.5t149.5 -143.5q66 -63 107 -105l-31 -40h-2 q-53 31 -137 77q-156 88 -181.5 107.5t-25.5 50.5z" />
<glyph unicode="&#xed;" horiz-adv-x="681" d="M31 606q0 61 14 123t62.5 119t121.5 57q88 0 150.5 -65.5t62.5 -151.5q0 -23 -31.5 -257t-31.5 -273q0 -133 80 -133q14 0 30.5 6t39 23.5t41 60.5t24.5 106q2 12 2 29.5t1 27t3 17.5t7 12t16 4q27 0 26 -35q0 -61 -14 -123.5t-62.5 -119t-119.5 -56.5q-90 0 -151.5 64.5 t-61.5 153.5q0 23 30.5 256t30.5 272q0 135 -78 135q-14 0 -30.5 -6t-40 -23.5t-42 -61.5t-24.5 -108q0 -8 -1 -24.5t-2 -25.5t-3 -19t-7 -15.5t-16 -5.5q-26 0 -26 37zM269 1044q47 47 118 117q115 113 139.5 133.5t49.5 20.5q29 0 50 -23.5t21 -52.5q0 -31 -28.5 -52.5 t-171.5 -101.5q-88 -49 -146 -81h-2z" />
<glyph unicode="&#xee;" horiz-adv-x="681" d="M0 999v5l272 303h2l273 -303v-5l-35 -34h-2l-236 233h-2l-233 -233h-2zM35 614q0 53 12 112.5t60.5 119t123.5 59.5q88 0 150.5 -65.5t62.5 -151.5q0 -23 -30.5 -257t-30.5 -273q0 -133 78 -133q14 0 30.5 6t39 23.5t41 60.5t24.5 106q8 80 16 86q4 4 13 4q27 0 26 -35 q0 -61 -14 -123.5t-62.5 -119t-119.5 -56.5q-92 0 -152.5 67t-60.5 151q0 23 30.5 256t30.5 272q0 135 -78 135q-14 0 -30.5 -6t-39 -23.5t-41 -61.5t-26.5 -108q-2 -16 -3 -32.5t-1 -24.5t-3 -15t-7 -12q-6 -6 -17 -6q-22 0 -22 45z" />
<glyph unicode="&#xef;" horiz-adv-x="681" d="M31 606q0 61 14 123t62.5 119t121.5 57q88 0 150.5 -65.5t62.5 -151.5q0 -23 -31.5 -257t-31.5 -273q0 -133 80 -133q14 0 30.5 6t39 23.5t41 60.5t24.5 106q2 12 2 29.5t1 27t3 17.5t7 12t16 4q27 0 26 -35q0 -61 -14 -123.5t-62.5 -119t-119.5 -56.5q-90 0 -151.5 64.5 t-61.5 153.5q0 23 30.5 256t30.5 272q0 135 -78 135q-14 0 -30.5 -6t-40 -23.5t-42 -61.5t-24.5 -108q0 -8 -1 -24.5t-2 -25.5t-3 -19t-7 -15.5t-16 -5.5q-26 0 -26 37zM35 1241q0 47 31.5 78t74.5 31q47 0 78 -32t31 -77t-34 -76.5t-75 -31.5q-43 0 -74.5 30.5t-31.5 77.5z M430 1241q0 43 31 76t78 33q41 0 74.5 -32t33.5 -77t-32.5 -75.5t-73.5 -30.5q-47 0 -79 32.5t-32 73.5z" />
<glyph unicode="&#xf0;" d="M113 436q0 199 134 339t314 140q162 0 262 -174h2q-33 135 -93 235.5t-165 207.5l-252 -144l-22 41v2l235 136q-154 125 -329 172q33 29 53 28q43 0 151.5 -34.5t223.5 -108.5l254 145l24 -43l-233 -135q49 -35 96 -84t110.5 -137t102.5 -220t39 -284q0 -10 1 -30.5 t1 -28.5q0 -227 -139.5 -354.5t-315.5 -127.5q-193 0 -323.5 135.5t-130.5 323.5zM285 459q0 -256 98 -355q80 -76 182 -75q139 0 217 114q68 98 68 291q0 229 -89 332.5t-198 103.5q-141 0 -221 -122q-57 -90 -57 -289zM901 436h17l-17 2v-2z" />
<glyph unicode="&#xf1;" horiz-adv-x="1251" d="M31 621q0 61 4 103t17.5 88t44 69.5t77.5 23.5q66 0 132.5 -43t96.5 -135q96 178 279 178q125 0 212 -78.5t87 -265.5q0 -104 -16.5 -241.5t-16.5 -159.5q0 -135 78 -135q49 0 90 56t49 181q4 51 25 51q6 0 16 -6q12 -8 13 -31q0 -61 -14.5 -122.5t-62.5 -119t-122 -57.5 q-86 0 -149.5 64.5t-63.5 151.5q0 6 15.5 147t15.5 229q0 289 -166 289q-119 0 -189.5 -92t-70.5 -182v-518q0 -51 -23.5 -70t-48.5 -19q-72 0 -72 99v563q0 217 -98 217q-51 0 -69.5 -64.5t-19.5 -137t-9 -79.5q-10 -6 -17 -6q-24 1 -24 52zM282 1093q4 4 20.5 23.5 t21.5 25t19.5 21.5t21.5 22.5t20.5 18.5t21.5 17t22.5 13.5t25 11.5t23.5 6t25 3q49 0 131 -49t132 -49q76 0 163 98h2l33 -31q-49 -59 -71.5 -82.5t-65.5 -51t-84 -27.5q-47 0 -131 48t-131 48q-78 0 -164 -96z" />
<glyph unicode="&#xf2;" d="M141 440q0 199 127 332t299 133q178 0 302 -137t124 -328q0 -199 -127 -331t-299 -132q-178 0 -302 136.5t-124 326.5zM262 1239q0 27 21.5 51.5t50.5 24.5q20 0 41.5 -17.5t134.5 -128.5q76 -74 129 -125l-31 -40q-307 174 -323 188q-23 16 -23 47zM313 438 q0 -162 37 -248q27 -66 83 -115.5t134 -49.5q100 0 172 88q84 104 84 333q0 154 -37 244q-27 66 -84 117t-135 51q-100 0 -172 -90q-82 -101 -82 -330z" />
<glyph unicode="&#xf3;" d="M141 440q0 199 127 332t299 133q178 0 302 -137t124 -328q0 -199 -127 -331t-299 -132q-178 0 -302 136.5t-124 326.5zM313 438q0 -162 37 -248q27 -66 83 -115.5t134 -49.5q100 0 172 88q84 104 84 333q0 154 -37 244q-27 66 -84 117t-135 51q-100 0 -172 -90 q-82 -101 -82 -330zM496 1044q254 246 266 256q18 14 41 15q29 0 50 -23.5t21 -52.5q0 -31 -28.5 -52.5t-171.5 -101.5q-88 -49 -146 -81h-2z" />
<glyph unicode="&#xf4;" d="M141 440q0 199 127 332t299 133q178 0 302 -137t124 -328q0 -199 -127 -331t-299 -132q-178 0 -302 136.5t-124 326.5zM295 999l272 307h2l274 -307l-36 -35h-2l-236 234h-2l-234 -234h-2zM313 438q0 -162 37 -248q27 -66 83 -115.5t134 -49.5q100 0 172 88 q84 104 84 333q0 154 -37 244q-27 66 -84 117t-135 51q-100 0 -172 -90q-82 -101 -82 -330z" />
<glyph unicode="&#xf5;" d="M141 440q0 199 127 332t299 133q178 0 302 -137t124 -328q0 -199 -127 -331t-299 -132q-178 0 -302 136.5t-124 326.5zM225 1093q4 4 20.5 23.5t21.5 25t19.5 21.5t21.5 22.5t20.5 18.5t21.5 17t22.5 13.5t25 11.5t23.5 6t25 3q49 0 131 -49t132 -49q76 0 163 98h2 l33 -31q-49 -59 -71.5 -82.5t-65.5 -51t-84 -27.5q-47 0 -131 48t-131 48q-78 0 -164 -96zM313 438q0 -162 37 -248q27 -66 83 -115.5t134 -49.5q100 0 172 88q84 104 84 333q0 154 -37 244q-27 66 -84 117t-135 51q-100 0 -172 -90q-82 -101 -82 -330z" />
<glyph unicode="&#xf6;" d="M141 440q0 199 127 332t299 133q178 0 302 -137t124 -328q0 -199 -127 -331t-299 -132q-178 0 -302 136.5t-124 326.5zM260 1241q0 47 33 78t76 31q47 0 77.5 -33t30.5 -76q0 -41 -31.5 -74.5t-76.5 -33.5t-77 30.5t-32 77.5zM313 438q0 -162 37 -248q27 -66 83 -115.5 t134 -49.5q100 0 172 88q84 104 84 333q0 154 -37 244q-27 66 -84 117t-135 51q-100 0 -172 -90q-82 -101 -82 -330zM657 1241q0 41 32 75t77 34t76.5 -31t31.5 -78t-32.5 -77.5t-75.5 -30.5q-47 0 -78 32.5t-31 75.5z" />
<glyph unicode="&#xf7;" horiz-adv-x="1705" d="M172 512q0 41 66 41h1230q61 0 61.5 -41t-56.5 -41h-1242q-59 0 -59 41zM723 72q0 55 39 91t90 36q53 0 91 -36t38 -91.5t-39 -92t-90 -36.5q-55 0 -92 39t-37 90zM723 952q0 55 39 92t90 37t90 -36.5t39 -92t-38 -91.5t-91 -36q-57 0 -93 38t-36 89z" />
<glyph unicode="&#xf8;" d="M156 440q0 201 123.5 334t287.5 133q104 0 195 -53l125 238h2l39 -21l-129 -246q82 -61 132 -162.5t50 -222.5q0 -193 -120 -330t-292 -137q-96 0 -194 56l-127 -240l-41 23l129 243q-88 66 -134 169t-46 216zM299 436q0 -188 76 -307h2l350 664q-74 68 -162 67 q-70 0 -128 -44t-93 -118q-45 -94 -45 -262zM408 90q76 -70 161 -70q70 0 128.5 44.5t93.5 117.5q47 98 47 260q0 190 -76 310h-2z" />
<glyph unicode="&#xf9;" horiz-adv-x="1193" d="M31 606q0 43 9 90t29.5 96.5t62.5 81t97 31.5q84 0 148.5 -63.5t64.5 -153.5q0 -18 -15 -136t-15 -212q0 -315 186 -315q72 0 119 48t61 99q2 8 2 57v545q0 41 6 60q16 47 66 47q72 0 72 -99v-536q0 -221 98 -221q37 0 57.5 35.5t24.5 75.5t5 91.5t1 57.5q2 20 17.5 25 t25.5 -7q8 -8 8 -45q0 -141 -30.5 -211t-112.5 -70q-129 0 -213 134q-72 -133 -215 -134q-322 0 -322 375q0 84 16.5 214t16.5 157q0 135 -78 135q-51 0 -92 -55t-47 -182q-2 -53 -27 -54q-10 0 -18 11.5t-8 27.5zM291 1239q0 27 21.5 51.5t49.5 24.5q20 0 42 -17.5 t135 -128.5q76 -74 129 -125l-29 -40h-2q-307 174 -324 188q-22 16 -22 47z" />
<glyph unicode="&#xfa;" horiz-adv-x="1193" d="M31 606q0 43 9 90t29.5 96.5t62.5 81t97 31.5q84 0 148.5 -63.5t64.5 -153.5q0 -18 -15 -136t-15 -212q0 -315 186 -315q72 0 119 48t61 99q2 8 2 57v545q0 41 6 60q16 47 66 47q72 0 72 -99v-536q0 -221 98 -221q37 0 57.5 35.5t24.5 75.5t5 91.5t1 57.5q2 20 17.5 25 t25.5 -7q8 -8 8 -45q0 -141 -30.5 -211t-112.5 -70q-129 0 -213 134q-72 -133 -215 -134q-322 0 -322 375q0 84 16.5 214t16.5 157q0 135 -78 135q-51 0 -92 -55t-47 -182q-2 -53 -27 -54q-10 0 -18 11.5t-8 27.5zM524 1044q66 63 154 150q90 88 109.5 104.5t41.5 16.5 q29 0 51.5 -23.5t22.5 -52.5q0 -31 -28.5 -52.5t-172.5 -101.5q-88 -49 -145 -81h-2z" />
<glyph unicode="&#xfb;" horiz-adv-x="1193" d="M31 606q0 43 9 90t29.5 96.5t62.5 81t97 31.5q84 0 148.5 -63.5t64.5 -153.5q0 -18 -15 -136t-15 -212q0 -315 186 -315q72 0 119 48t61 99q2 8 2 57v545q0 41 6 60q16 47 66 47q72 0 72 -99v-536q0 -221 98 -221q37 0 57.5 35.5t24.5 75.5t5 91.5t1 57.5q2 20 17.5 25 t25.5 -7q8 -8 8 -45q0 -141 -30.5 -211t-112.5 -70q-129 0 -213 134q-72 -133 -215 -134q-322 0 -322 375q0 84 16.5 214t16.5 157q0 135 -78 135q-51 0 -92 -55t-47 -182q-2 -53 -27 -54q-10 0 -18 11.5t-8 27.5zM324 999l272 308h2l274 -308l-36 -34h-2l-236 233h-2 l-234 -233h-2z" />
<glyph unicode="&#xfc;" horiz-adv-x="1193" d="M31 604q0 43 9 90t29.5 97.5t62.5 82t97 31.5q84 0 148.5 -63.5t64.5 -153.5q0 -18 -15 -136t-15 -212q0 -315 186 -315q72 0 119 48t61 99q2 8 2 57v545q0 41 6 60q16 47 66 47q72 0 72 -99v-536q0 -221 98 -221q37 0 57.5 35.5t24.5 75.5t5 91.5t1 57.5q2 20 17.5 25 t25.5 -7q8 -8 8 -45q0 -141 -30.5 -211t-112.5 -70q-129 0 -213 134q-72 -133 -215 -134q-322 0 -322 375q0 84 16.5 214t16.5 157q0 135 -78 135q-51 0 -92 -55t-47 -182q-2 -53 -27 -54q-26 0 -26 37zM289 1241q0 47 32.5 78t75.5 31q47 0 78 -33t31 -76q0 -45 -33 -75.5 t-74 -30.5q-47 0 -78.5 31.5t-31.5 74.5zM688 1241q0 41 31 75t76 34t76.5 -31t31.5 -78q0 -45 -33.5 -76.5t-74.5 -31.5q-45 0 -76 32.5t-31 75.5z" />
<glyph unicode="&#xfd;" horiz-adv-x="1081" d="M31 606q0 39 8 83t27.5 96.5t61.5 86t101 33.5q84 0 148.5 -63.5t64.5 -153.5q0 -12 -14 -135t-14 -213q0 -315 184 -315q72 0 118 46t60 95q4 14 4 61v566q0 88 72 88t72 -97v-747q0 -63 -4 -96q-20 -147 -124 -255t-255 -108q-117 0 -192 67.5t-75 151.5q0 45 28 71 t67 26t66.5 -26t27.5 -67q0 -35 -22.5 -64.5t-78.5 -29.5h-4q78 -82 177 -82q94 0 169.5 91t75.5 311v43q-74 -92 -190 -93q-319 0 -320 373q0 84 15.5 215t15.5 158q0 135 -78 135q-51 0 -91 -54t-48 -188q0 -47 -25 -47q-28 0 -28 37zM467 1044q47 47 119 117 q115 113 139.5 133.5t48.5 20.5q29 0 50.5 -23.5t21.5 -52.5q0 -31 -29 -52.5t-172 -101.5q-88 -49 -145 -81h-2z" />
<glyph unicode="&#xfe;" d="M88 -356h31q74 0 99.5 13t27.5 58h24v1506q0 76 -27.5 95t-131.5 19v64l297 22v-628q96 113 221 112q150 0 265.5 -132t115.5 -331q0 -201 -123 -333t-279 -132q-113 0 -194 99v-361h22q4 -45 28.5 -58t102.5 -13h27v-66h-506v66zM109 -420h464l-313 4zM414 205 q0 -66 55 -123t131 -57q61 0 114.5 39.5t84.5 113.5q39 94 39 268q0 123 -18.5 212.5t-80.5 148.5q-51 51 -125 51q-72 0 -136 -57.5t-64 -126.5v-469z" />
<glyph unicode="&#xff;" horiz-adv-x="1081" d="M31 606q0 39 8 83t27.5 96.5t61.5 86t101 33.5q84 0 148.5 -63.5t64.5 -153.5q0 -12 -14 -135t-14 -213q0 -315 184 -315q72 0 118 46t60 95q4 14 4 61v566q0 88 72 88t72 -97v-747q0 -63 -4 -96q-20 -147 -124 -255t-255 -108q-117 0 -192 67.5t-75 151.5q0 45 28 71 t67 26t66.5 -26t27.5 -67q0 -35 -22.5 -64.5t-78.5 -29.5h-4q78 -82 177 -82q94 0 169.5 91t75.5 311v43q-74 -92 -190 -93q-319 0 -320 373q0 84 15.5 215t15.5 158q0 135 -78 135q-51 0 -91 -54t-48 -188q0 -47 -25 -47q-28 0 -28 37zM231 1241q0 43 32 76t77 33 q47 0 78 -33t31 -76t-32 -75.5t-77 -32.5q-47 0 -78 32.5t-31 75.5zM631 1241q0 47 31.5 78t74.5 31t76 -31t33 -78q0 -41 -29 -74.5t-78 -33.5q-45 0 -76.5 30.5t-31.5 77.5z" />
<glyph unicode="&#x100;" horiz-adv-x="1648" d="M123 0v63q66 2 111 16.5t70.5 44.5t34.5 47t21 54q2 6 5 11l407 1181q18 49 51 49t51 -49l441 -1265q20 -59 56 -74t145 -15h10v-63q-117 6 -264.5 6t-298.5 -6v63h8q160 0 159 60q0 23 -112 344h-506q-98 -283 -98 -299q0 -14 6 -29.5t20.5 -33t47 -28.5t77.5 -14v-63 q-119 6 -237 6q-113 0 -205 -6zM426 1575v70h795v-70h-795zM532 530h463l-231 666z" />
<glyph unicode="&#x101;" d="M141 440q0 195 109.5 330t259.5 135q113 0 213 -125q2 82 72 82q74 0 71 -92v-522q0 -223 101 -223q86 0 86 217v22q0 27 6 37t18.5 10t20.5 -8q6 -8 6 -45q0 -141 -30 -211t-111 -70q-57 0 -122 35t-100 117q-92 -152 -231 -152q-145 0 -257 131t-112 332zM142 1126v66 h739v-66h-739zM313 442q0 -88 4.5 -140t27 -122.5t67.5 -111.5q47 -43 102 -43q78 0 143.5 72.5t65.5 133.5v418q0 63 -66.5 136t-142.5 73q-113 0 -170 -153q-31 -85 -31 -263z" />
<glyph unicode="&#x102;" horiz-adv-x="1648" d="M123 0v63q66 2 111 16.5t70.5 44.5t34.5 47t21 54q2 6 5 11l407 1181q18 49 51 49t51 -49l441 -1265q20 -59 56 -74t145 -15h10v-63q-117 6 -264.5 6t-298.5 -6v63h8q160 0 159 60q0 23 -112 344h-506q-98 -283 -98 -299q0 -14 6 -29.5t20.5 -33t47 -28.5t77.5 -14v-63 q-119 6 -237 6q-113 0 -205 -6zM518 1825h45q6 -96 83 -150.5t179 -54.5q94 0 174 52t86 153h48q-4 -129 -95.5 -206t-212.5 -77q-119 0 -211 77t-96 206zM532 530h463l-231 666z" />
<glyph unicode="&#x103;" d="M141 440q0 195 109.5 330t259.5 135q113 0 213 -125q2 82 72 82q74 0 71 -92v-522q0 -223 101 -223q86 0 86 217v22q0 27 6 37t18.5 10t20.5 -8q6 -8 6 -45q0 -141 -30 -211t-111 -70q-57 0 -122 35t-100 117q-92 -152 -231 -152q-145 0 -257 131t-112 332zM260 1309h47 q6 -96 83 -148.5t177 -52.5q94 0 174 51t86 150h47q-4 -129 -96 -204t-210.5 -75t-211 76t-96.5 203zM313 442q0 -88 4.5 -140t27 -122.5t67.5 -111.5q47 -43 102 -43q78 0 143.5 72.5t65.5 133.5v418q0 63 -66.5 136t-142.5 73q-113 0 -170 -153q-31 -85 -31 -263z" />
<glyph unicode="&#x104;" horiz-adv-x="1648" d="M123 0v63q66 2 111 16.5t70.5 44.5t34.5 47t21 54q2 6 5 11l407 1181q18 49 51 49t51 -49l441 -1265q20 -59 56 -74t145 -15h10v-63l-180 6q-27 0 -43.5 -9t-51.5 -40q-78 -74 -77 -150q0 -68 54 -112.5t115 -44.5q49 0 81 28.5t48.5 57t26.5 28.5q18 0 19 -22 q0 -51 -58.5 -117.5t-156.5 -66.5q-90 0 -156 57t-66 143q0 131 152 246v2l-270 -6v63h8q160 0 159 60q0 23 -112 344h-506q-98 -283 -98 -299q0 -14 6 -29.5t20.5 -33t47 -28.5t77.5 -14v-63q-119 6 -237 6q-113 0 -205 -6zM532 530h463l-231 666z" />
<glyph unicode="&#x105;" d="M141 440.5q0 200.5 112 332.5t257 132q113 0 213 -125q2 82 72 82q74 0 71 -90v-539q0 -209 99 -208q84 0 88 217v30q0 39 26 39q25 0 25 -59q0 -150 -35 -212.5t-108 -62.5q-2 0 -9.5 1.5t-11.5 1.5q-135 -106 -135 -189q0 -63 55 -106t121 -43q37 0 65.5 15t41 32.5 t24.5 33t23 15.5h2q2 -2 4 -2q12 -6 12 -21q0 -39 -56.5 -98t-156.5 -59q-86 0 -155.5 51t-69.5 133q0 121 168 250q-98 35 -142 137q-92 -152 -231 -152q-145 0 -257 131.5t-112 332zM313 442q0 -88 4.5 -140t27 -122.5t67.5 -111.5q47 -43 102 -43q78 0 143.5 72.5 t65.5 133.5v418q0 63 -66.5 136t-142.5 73q-113 0 -170 -153q-31 -85 -31 -263z" />
<glyph unicode="&#x106;" horiz-adv-x="1593" d="M170 700.5q0 315.5 213 529.5t500 214q227 0 377 -176q111 162 120 170q8 4 15 4q25 0 24 -45v-496q0 -43 -28 -43q-23 0 -33 19q-4 10 -9.5 50t-21.5 95q-18 61 -52 119.5t-85 115t-125 90t-160 33.5q-55 0 -114.5 -13t-135 -58t-134 -115t-99.5 -198t-41 -294 q0 -160 38 -285.5t93 -198.5t130 -120t139.5 -63.5t127.5 -16.5q180 0 310.5 126t146.5 307q4 49 12 55q12 8 17 8q25 0 24 -45q0 -74 -32.5 -160t-95 -167t-169 -134t-237.5 -53q-287 0 -501 215t-214 530.5zM698 1565q311 193 326 198q8 2 20 2q29 0 48.5 -24.5 t19.5 -50.5q0 -16 -8 -30.5t-20.5 -23t-23.5 -13.5t-24 -9l-12 -2l-303 -94z" />
<glyph unicode="&#x107;" horiz-adv-x="1024" d="M141 442q0 197 127 330t299 133q117 0 201 -60.5t84 -152.5q0 -51 -30.5 -74.5t-63.5 -23.5q-41 0 -67.5 27.5t-26.5 66.5q0 33 21.5 62.5t76.5 31.5q-76 76 -189 76q-131 0 -206 -135q-53 -96 -54 -283q0 -229 86 -331q74 -86 183 -86q90 0 187 45t151 133q23 37 34 41 q10 2 18.5 -6.5t8.5 -18.5q0 -18 -25.5 -55t-72.5 -80t-130 -74t-182 -31q-182 0 -306 136t-124 329zM412 1044q57 55 135 134q102 100 124.5 118.5t45.5 18.5q27 0 50.5 -23.5t23.5 -52.5t-27 -49.5t-166 -97.5q-94 -53 -156 -88z" />
<glyph unicode="&#x108;" horiz-adv-x="1593" d="M170 700.5q0 315.5 213 529.5t500 214q227 0 377 -176q111 162 120 170q8 4 15 4q25 0 24 -45v-496q0 -43 -28 -43q-23 0 -33 19q-4 10 -9.5 50t-21.5 95q-18 61 -52 119.5t-85 115t-125 90t-160 33.5q-55 0 -114.5 -13t-135 -58t-134 -115t-99.5 -198t-41 -294 q0 -160 38 -285.5t93 -198.5t130 -120t139.5 -63.5t127.5 -16.5q180 0 310.5 126t146.5 307q4 49 12 55q12 8 17 8q25 0 24 -45q0 -74 -32.5 -160t-95 -167t-169 -134t-237.5 -53q-287 0 -501 215t-214 530.5zM610 1559v2l272 286h2l273 -286v-2l-35 -37h-2l-236 217h-2 l-235 -217z" />
<glyph unicode="&#x109;" horiz-adv-x="1024" d="M141 442q0 197 127 330t299 133q117 0 201 -60.5t84 -152.5q0 -51 -30.5 -74.5t-63.5 -23.5q-41 0 -67.5 27.5t-26.5 66.5q0 33 21.5 62.5t76.5 31.5q-76 76 -189 76q-131 0 -206 -135q-53 -96 -54 -283q0 -229 86 -331q74 -86 183 -86q90 0 187 45t151 133q23 37 34 41 q10 2 18.5 -6.5t8.5 -18.5q0 -18 -25.5 -55t-72.5 -80t-130 -74t-182 -31q-182 0 -306 136t-124 329zM291 1024l272 307h2l274 -307l-36 -35h-2l-236 234h-2l-234 -234h-2z" />
<glyph unicode="&#x10a;" horiz-adv-x="1593" d="M170 700.5q0 315.5 213 529.5t500 214q227 0 377 -176q111 162 120 170q8 4 15 4q25 0 24 -45v-496q0 -43 -28 -43q-23 0 -33 19q-4 10 -9.5 50t-21.5 95q-18 61 -52 119.5t-85 115t-125 90t-160 33.5q-55 0 -114.5 -13t-135 -58t-134 -115t-99.5 -198t-41 -294 q0 -160 38 -285.5t93 -198.5t130 -120t139.5 -63.5t127.5 -16.5q180 0 310.5 126t146.5 307q4 49 12 55q12 8 17 8q25 0 24 -45q0 -74 -32.5 -160t-95 -167t-169 -134t-237.5 -53q-287 0 -501 215t-214 530.5zM774 1655q0 47 32 77.5t75 30.5q41 0 74.5 -31.5t33.5 -77 t-33.5 -76t-74.5 -30.5q-47 0 -77 32t-30 75z" />
<glyph unicode="&#x10b;" horiz-adv-x="1024" d="M141 442q0 197 127 330t299 133q117 0 201 -60.5t84 -152.5q0 -51 -30.5 -74.5t-63.5 -23.5q-41 0 -67.5 27.5t-26.5 66.5q0 33 21.5 62.5t76.5 31.5q-76 76 -189 76q-131 0 -206 -135q-53 -96 -54 -283q0 -229 86 -331q74 -86 183 -86q90 0 187 45t151 133q23 37 34 41 q10 2 18.5 -6.5t8.5 -18.5q0 -18 -25.5 -55t-72.5 -80t-130 -74t-182 -31q-182 0 -306 136t-124 329zM459 1260q0 47 32 77.5t75 30.5q41 0 74.5 -31.5t33.5 -77t-33.5 -76t-74.5 -30.5q-47 0 -77 32t-30 75z" />
<glyph unicode="&#x10c;" horiz-adv-x="1593" d="M170 700.5q0 315.5 213 529.5t500 214q227 0 377 -176q111 162 120 170q8 4 15 4q25 0 24 -45v-496q0 -43 -28 -43q-23 0 -33 19q-4 10 -9.5 50t-21.5 95q-18 61 -52 119.5t-85 115t-125 90t-160 33.5q-55 0 -114.5 -13t-135 -58t-134 -115t-99.5 -198t-41 -294 q0 -160 38 -285.5t93 -198.5t130 -120t139.5 -63.5t127.5 -16.5q180 0 310.5 126t146.5 307q4 49 12 55q12 8 17 8q25 0 24 -45q0 -74 -32.5 -160t-95 -167t-169 -134t-237.5 -53q-287 0 -501 215t-214 530.5zM596 1882v2l25 33q276 -164 286 -164h2q8 0 287 164l25 -33v-2 l-312 -264h-2z" />
<glyph unicode="&#x10d;" horiz-adv-x="1024" d="M141 442q0 197 127 330t299 133q117 0 201 -60.5t84 -152.5q0 -51 -30.5 -74.5t-63.5 -23.5q-41 0 -67.5 27.5t-26.5 66.5q0 33 21.5 62.5t76.5 31.5q-76 76 -189 76q-131 0 -206 -135q-53 -96 -54 -283q0 -229 86 -331q74 -86 183 -86q90 0 187 45t151 133q23 37 34 41 q10 2 18.5 -6.5t8.5 -18.5q0 -18 -25.5 -55t-72.5 -80t-130 -74t-182 -31q-182 0 -306 136t-124 329zM274 1290v4l25 31l287 -195h2l286 195l25 -31v-4l-311 -301h-2z" />
<glyph unicode="&#x10e;" horiz-adv-x="1677" d="M127 0v63h25q115 0 149.5 14.5t36.5 72.5v1097q0 57 -35 72.5t-149 15.5h-27v64h717q195 0 334 -86q154 -94 240.5 -262t86.5 -361q0 -276 -163.5 -467.5t-391.5 -218.5q-33 -4 -102 -4h-721zM430 1882v2l23 33q276 -164 288 -164h2q8 0 287 164l23 -33v-2l-312 -264z M514 143q0 -53 19.5 -66.5t89.5 -13.5h182q264 0 395 193q100 145 100 416v28q0 360 -170 519q-127 117 -329 116h-178q-63 0 -86 -13t-23 -62v-1117z" />
<glyph unicode="&#x10f;" d="M141 440.5q0 200.5 112 332.5t255 132q125 0 215 -125v379q0 8 1 24.5t1 24.5q0 86 -27.5 106.5t-132.5 20.5v64l301 22v-1173q0 -223 99 -223q49 0 69.5 61t21.5 134t3 79q6 10 18.5 12t20.5 -8q6 -6 6 -45q0 -141 -31 -211t-112 -70q-57 0 -121 35t-99 117 q-88 -152 -233 -152q-141 0 -254 131.5t-113 332zM313 442q0 -88 4.5 -140t27 -122.5t67.5 -111.5q47 -43 102 -43q78 0 143.5 72.5t65.5 133.5v418q0 63 -66.5 136t-142.5 73q-113 0 -170 -153q-31 -85 -31 -263zM958 1399q0 45 31 76.5t78 31.5q59 0 98 -50t39 -122 q0 -84 -41 -158.5t-84 -110.5t-65 -36q-20 0 -21 21q0 10 12.5 20t35 27.5t38.5 36.5q78 88 78 202q-37 -45 -90 -45q-45 0 -77 30t-32 77z" />
<glyph unicode="&#x110;" horiz-adv-x="1677" d="M127 0v63h27q117 0 150.5 16.5t33.5 76.5v499h-158q-53 0 -53 29q0 4 4 16q8 18 59 19h37q18 0 55 -1t56 -1v526q0 61 -35 76.5t-156 15.5h-20v64h717q195 0 334 -86q154 -94 240.5 -262t86.5 -361q0 -276 -163.5 -467.5t-391.5 -218.5q-33 -4 -102 -4h-721zM514 137 q2 -51 25.5 -62.5t119.5 -11.5h150q301 0 424 246q68 137 67 363v33q0 289 -110 444q-129 186 -381 186h-160q-61 0 -83.5 -3t-37 -18.5t-14.5 -51.5v-545h342q45 0 45 -31t-47 -31h-340v-518z" />
<glyph unicode="&#x111;" d="M141 440.5q0 200.5 112 332.5t255 132q125 0 215 -125v310h-211v63h211q0 8 1 25.5t1 25.5v15q0 78 -28.5 97t-131.5 19v64l301 22v-268h101v-63h-101v-848q0 -217 99 -217q49 0 68.5 61t20.5 134t5 81q6 10 18.5 10t20.5 -8q6 -8 6 -45q0 -141 -30 -211t-111 -70 q-57 0 -122 35t-100 117q-88 -152 -233 -152q-141 0 -254 131.5t-113 332zM313 442q0 -88 4.5 -140t27 -122.5t67.5 -111.5q47 -43 102 -43q78 0 143.5 72.5t65.5 133.5v418q0 63 -66.5 136t-142.5 73q-113 0 -170 -153q-31 -85 -31 -263z" />
<glyph unicode="&#x112;" horiz-adv-x="1507" d="M123 0v63h27q117 0 150.5 15.5t33.5 71.5v1093q0 57 -35 72.5t-149 15.5h-27v62h1153l57 -461h-51q-12 92 -21.5 141t-40 110.5t-77.5 92.5q-84 55 -316 55h-168q-94 0 -117.5 -10t-25.5 -64v-501h164q154 0 198 45t44 192h51v-540h-51q0 150 -45.5 194.5t-198.5 44.5 h-162v-551q0 -55 23.5 -66.5t126.5 -11.5h190q80 0 130 4.5t114.5 26t107.5 62.5q39 39 69 114.5t38 118.5t24 139h52l-86 -528h-1182zM360 1575v70h795v-70h-795z" />
<glyph unicode="&#x113;" horiz-adv-x="1024" d="M141 489q0 182 129 299t295 117q111 0 187.5 -61.5t76.5 -157.5q0 -51 -21.5 -89t-63.5 -60.5t-82.5 -37t-103 -20.5t-102.5 -7t-100 -1h-43q4 -231 78 -338q76 -111 184 -110q96 0 191.5 45t146.5 125q2 2 11.5 18t15.5 23.5t14 7.5q10 2 18.5 -6.5t8.5 -18.5 q0 -20 -26.5 -57t-73.5 -79t-130 -73t-178 -31q-184 0 -308 153.5t-124 358.5zM197 1126v66h739v-66h-739zM313 518h64q74 0 127 4t118.5 19.5t101.5 51.5t36 93q0 70 -53.5 121t-137.5 51q-76 0 -136 -45t-89 -115q-27 -63 -31 -180z" />
<glyph unicode="&#x116;" horiz-adv-x="1507" d="M123 0v63h27q117 0 150.5 15.5t33.5 71.5v1093q0 57 -35 72.5t-149 15.5h-27v62h1153l57 -461h-51q-12 92 -21.5 141t-40 110.5t-77.5 92.5q-84 55 -316 55h-168q-94 0 -117.5 -10t-25.5 -64v-501h164q154 0 198 45t44 192h51v-540h-51q0 150 -45.5 194.5t-198.5 44.5 h-162v-551q0 -55 23.5 -66.5t126.5 -11.5h190q80 0 130 4.5t114.5 26t107.5 62.5q39 39 69 114.5t38 118.5t24 139h52l-86 -528h-1182zM649 1655q0 47 32 77.5t75 30.5q41 0 74.5 -31.5t33.5 -77t-33.5 -76t-74.5 -30.5q-47 0 -77 32t-30 75z" />
<glyph unicode="&#x117;" horiz-adv-x="1024" d="M141 489q0 182 129 299t295 117q111 0 187.5 -61.5t76.5 -157.5q0 -51 -21.5 -89t-63.5 -60.5t-82.5 -37t-103 -20.5t-102.5 -7t-100 -1h-43q4 -231 78 -338q76 -111 184 -110q96 0 191.5 45t146.5 125q2 2 11.5 18t15.5 23.5t14 7.5q10 2 18.5 -6.5t8.5 -18.5 q0 -20 -26.5 -57t-73.5 -79t-130 -73t-178 -31q-184 0 -308 153.5t-124 358.5zM313 518h64q74 0 127 4t118.5 19.5t101.5 51.5t36 93q0 70 -53.5 121t-137.5 51q-76 0 -136 -45t-89 -115q-27 -63 -31 -180zM459 1260q0 47 32 77.5t75 30.5q41 0 74.5 -31.5t33.5 -77 t-33.5 -76t-74.5 -30.5q-47 0 -77 32t-30 75z" />
<glyph unicode="&#x118;" horiz-adv-x="1507" d="M123 0v63h24q115 0 150 14.5t37 72.5v1093q0 57 -35 72.5t-149 15.5h-27v62h1153l57 -461h-51q-12 92 -21.5 141t-40 110.5t-77.5 92.5q-84 55 -316 55h-168q-94 0 -117.5 -10t-25.5 -64v-501h164q154 0 198 45t44 192h51v-540h-51q0 150 -45.5 194.5t-198.5 44.5h-162 v-551q0 -55 23.5 -66.5t126.5 -11.5h190q80 0 130 4.5t114.5 26t107.5 62.5q39 39 69 114.5t38 118.5t24 139h52l-86 -528h-162q-29 0 -44.5 -8t-47.5 -39q-74 -70 -74 -143q0 -61 51 -110.5t119 -49.5q49 0 82 28.5t49 57t27 28.5q8 0 14 -6q4 -4 4 -18q0 -51 -59.5 -116.5 t-155.5 -65.5q-90 0 -156.5 56t-66.5 142q0 121 145 244h-907z" />
<glyph unicode="&#x119;" horiz-adv-x="1024" d="M141 489q0 182 128 299t294 117q111 0 188.5 -61.5t77.5 -157.5q0 -61 -33.5 -104t-77.5 -63.5t-120 -32t-124 -13.5t-128 -2h-33q4 -225 74 -334q76 -115 188 -114q195 0 316 141q12 14 25.5 36.5t21.5 32t18 9.5q25 0 25 -25q0 -31 -61 -100q-27 -29 -107 -84.5 t-131 -110.5t-51 -121q0 -68 53 -111.5t115 -43.5q49 0 80.5 25.5t49 55t25.5 31.5q25 4 25 -22q0 -43 -58.5 -110.5t-158.5 -67.5q-86 0 -154.5 54t-68.5 140q0 123 139 234v2q-57 -10 -107 -11q-182 0 -306 152.5t-124 359.5zM313 518h66q74 0 126 4t117.5 19.5 t101.5 51.5t36 93q0 70 -53.5 121t-137.5 51q-76 0 -136 -45t-89 -115q-27 -63 -31 -180z" />
<glyph unicode="&#x11a;" horiz-adv-x="1507" d="M123 0v63h27q117 0 150.5 15.5t33.5 71.5v1093q0 57 -35 72.5t-149 15.5h-27v62h1153l57 -461h-51q-12 92 -21.5 141t-40 110.5t-77.5 92.5q-84 55 -316 55h-168q-94 0 -117.5 -10t-25.5 -64v-501h164q154 0 198 45t44 192h51v-540h-51q0 150 -45.5 194.5t-198.5 44.5 h-162v-551q0 -55 23.5 -66.5t126.5 -11.5h190q80 0 130 4.5t114.5 26t107.5 62.5q39 39 69 114.5t38 118.5t24 139h52l-86 -528h-1182zM395 1882v2l23 33q276 -164 289 -164h2q8 0 286 164l23 -33v-2l-309 -264h-2z" />
<glyph unicode="&#x11b;" horiz-adv-x="1024" d="M141 489q0 182 129 299t295 117q111 0 187.5 -61.5t76.5 -157.5q0 -51 -21.5 -89t-63.5 -60.5t-82.5 -37t-103 -20.5t-102.5 -7t-100 -1h-43q4 -231 78 -338q76 -111 184 -110q96 0 191.5 45t146.5 125q2 2 11.5 18t15.5 23.5t14 7.5q10 2 18.5 -6.5t8.5 -18.5 q0 -20 -26.5 -57t-73.5 -79t-130 -73t-178 -31q-184 0 -308 153.5t-124 358.5zM265 1290v4l26 31l287 -195l287 195l26 -31v-4l-313 -301zM313 518h64q74 0 127 4t118.5 19.5t101.5 51.5t36 93q0 70 -53.5 121t-137.5 51q-76 0 -136 -45t-89 -115q-27 -63 -31 -180z" />
<glyph unicode="&#x11c;" horiz-adv-x="1720" d="M170 698q0 317 215 531.5t500 214.5q217 0 377 -176q115 164 124 170q4 4 11 4q23 0 22 -45v-496q0 -43 -28 -43q-20 0 -26.5 11.5t-10.5 39.5q-27 190 -145.5 330.5t-303.5 140.5q-61 0 -124.5 -16t-137.5 -63.5t-130 -119t-94 -197.5t-38 -286q0 -154 36 -275.5 t91 -195t129 -123t142.5 -68t138.5 -18.5q111 0 205 51.5t110 141.5q4 20 4 63v121q0 66 -36 82.5t-191 16.5h-27v63l322 -4h96l162 4v-63h-7q-86 0 -111.5 -14.5t-25.5 -71.5v-359q0 -45 -18 -45q-10 0 -37 21q-57 47 -92 106h-2q-49 -86 -153.5 -131t-229.5 -45 q-289 0 -503 214t-214 529zM612 1559v2l272 286h2l273 -286v-2l-35 -37h-2l-236 217h-2l-235 -217z" />
<glyph unicode="&#x11d;" horiz-adv-x="1024" d="M141 452.5q0 196.5 113 324.5t254 128q121 0 215 -123q2 43 24.5 61.5t47.5 18.5q72 0 71 -86v-882q0 -90 -35.5 -155t-95 -98.5t-118 -48t-119.5 -14.5q-307 0 -308 156q0 43 28 69.5t67 26.5q37 0 64.5 -26.5t27.5 -67.5q0 -59 -60 -88q70 -23 179 -23q88 0 157.5 61.5 t69.5 202.5v234q-90 -123 -215 -123q-143 0 -255 128t-112 324.5zM230 1024l272 307h2l274 -307l-36 -35h-2l-236 234h-2l-234 -234h-2zM313 453q0 -82 4.5 -134.5t27 -119t65.5 -107.5q49 -47 104 -47q70 0 139.5 69.5t69.5 137.5v403q0 63 -66.5 133t-142.5 70 q-61 0 -105 -45t-65 -104q-31 -82 -31 -256z" />
<glyph unicode="&#x11e;" horiz-adv-x="1720" d="M170 698q0 313 212 529.5t509 216.5q221 0 377 -98q106 96 129 96q25 0 24 -43q0 -4 -1 -13.5t-1 -13.5v-233q0 -43 -28 -43q-10 0 -17.5 3t-11.5 10t-6 13t-6 19.5t-7 19.5q-39 104 -154.5 161.5t-258.5 57.5q-94 0 -177 -28.5t-137.5 -74.5t-85 -82t-51.5 -69 q-98 -164 -98 -428q0 -154 36 -275.5t91 -195t129 -123t142.5 -68t138.5 -18.5q113 0 204.5 50.5t110.5 140.5q4 23 4 65v121q0 66 -36 82.5t-191 16.5h-27v63l322 -4h96l162 4v-63h-7q-86 0 -111.5 -14.5t-25.5 -71.5v-359q0 -45 -18 -45q-10 0 -37 21q-57 47 -92 106h-2 q-49 -88 -153.5 -132t-229.5 -44q-287 0 -502 213t-215 530zM580 1825h47q6 -96 82.5 -150.5t179.5 -54.5q96 0 175 51t85 154h45q-4 -129 -95 -206t-212 -77q-119 0 -211 77t-96 206z" />
<glyph unicode="&#x11f;" horiz-adv-x="1024" d="M141 452.5q0 196.5 113 324.5t254 128q121 0 215 -123q2 43 24.5 61.5t47.5 18.5q72 0 71 -86v-882q0 -90 -35.5 -155t-95 -98.5t-118 -48t-119.5 -14.5q-307 0 -308 156q0 43 28 69.5t67 26.5q37 0 64.5 -26.5t27.5 -67.5q0 -59 -60 -88q70 -23 179 -23q88 0 157.5 61.5 t69.5 202.5v234q-90 -123 -215 -123q-143 0 -255 128t-112 324.5zM203 1309h47q6 -98 86 -149.5t176 -51.5q94 0 174 50t86 151h47q-4 -125 -94 -202t-213 -77q-119 0 -212 75t-97 204zM313 453q0 -82 4.5 -134.5t27 -119t65.5 -107.5q49 -47 104 -47q70 0 139.5 69.5 t69.5 137.5v403q0 63 -66.5 133t-142.5 70q-61 0 -105 -45t-65 -104q-31 -82 -31 -256z" />
<glyph unicode="&#x120;" horiz-adv-x="1720" d="M170 698q0 317 215 531.5t500 214.5q217 0 377 -176q115 164 124 170q4 4 11 4q23 0 22 -45v-496q0 -43 -28 -43q-20 0 -26.5 11.5t-10.5 39.5q-27 190 -145.5 330.5t-303.5 140.5q-61 0 -124.5 -16t-137.5 -63.5t-130 -119t-94 -197.5t-38 -286q0 -154 36 -275.5 t91 -195t129 -123t142.5 -68t138.5 -18.5q111 0 205 51.5t110 141.5q4 20 4 63v121q0 66 -36 82.5t-191 16.5h-27v63l322 -4h96l162 4v-63h-7q-86 0 -111.5 -14.5t-25.5 -71.5v-359q0 -45 -18 -45q-10 0 -37 21q-57 47 -92 106h-2q-49 -86 -153.5 -131t-229.5 -45 q-289 0 -503 214t-214 529zM776 1655q0 47 32 77.5t75 30.5q41 0 74.5 -31.5t33.5 -77t-33.5 -76t-74.5 -30.5q-47 0 -77 32t-30 75z" />
<glyph unicode="&#x121;" horiz-adv-x="1024" d="M141 452.5q0 196.5 113 324.5t254 128q121 0 215 -123q2 43 24.5 61.5t47.5 18.5q72 0 71 -86v-882q0 -90 -35.5 -155t-95 -98.5t-118 -48t-119.5 -14.5q-307 0 -308 156q0 43 28 69.5t67 26.5q37 0 64.5 -26.5t27.5 -67.5q0 -59 -60 -88q70 -23 179 -23q88 0 157.5 61.5 t69.5 202.5v234q-90 -123 -215 -123q-143 0 -255 128t-112 324.5zM313 453q0 -82 4.5 -134.5t27 -119t65.5 -107.5q49 -47 104 -47q70 0 139.5 69.5t69.5 137.5v403q0 63 -66.5 133t-142.5 70q-61 0 -105 -45t-65 -104q-31 -82 -31 -256zM397 1260q0 47 32 77.5t75 30.5 q41 0 74.5 -31.5t33.5 -77t-33.5 -76t-74.5 -30.5q-47 0 -77 32t-30 75z" />
<glyph unicode="&#x124;" horiz-adv-x="1648" d="M123 0v63h29q111 0 145.5 14.5t36.5 72.5v1099q0 55 -34 70.5t-155 15.5h-22v64q152 -6 301 -6t301 6v-64h-18q-121 0 -156 -15t-35 -77v-485h612v485q0 61 -33.5 76.5t-154.5 15.5h-20v64q150 -6 301 -6t301 6v-64h-27q-115 0 -148.5 -15t-35.5 -71v-1099 q2 -55 34.5 -71t149.5 -16h27v-63q-150 6 -301.5 6t-300.5 -6v63h20q123 0 155.5 15.5t32.5 77.5v540h-612v-540q0 -61 33 -77t156 -16h20v-63q-152 6 -301 6t-301 -6zM551 1559v2l272 286h2l273 -286v-2l-35 -37h-2l-236 217h-2l-235 -217z" />
<glyph unicode="&#x125;" d="M-2 1335v64l303 22v-676q88 160 268 160q125 0 212 -77.5t87 -266.5q0 -92 -16 -238.5t-16 -162.5q0 -135 79 -135q47 0 89.5 54t50.5 187q2 47 24 47q10 0 18.5 -11t8.5 -26q0 -61 -14.5 -123.5t-62.5 -119t-120 -56.5q-92 0 -152.5 66t-60.5 147q0 2 14.5 144.5 t14.5 236.5q0 287 -164 287q-119 0 -189.5 -92t-70.5 -186v-504q0 -98 -71.5 -98.5t-71.5 94.5v1151q0 74 -29 93t-123 19h-8zM236 1540l272 307h2l274 -307l-36 -35h-2l-236 234h-2l-234 -234h-2z" />
<glyph unicode="&#x12a;" horiz-adv-x="854" d="M56 1546v66h739v-66h-739zM113 0v63h32q117 0 153 14.5t36 74.5v1095q0 57 -36 72.5t-155 15.5h-30v64q270 -6 299 -6q162 0 325 6v-64h-30q-119 0 -154 -15t-37 -73v-1095q2 -55 35 -72t154 -17h32v-63q-160 6 -323 6q-31 0 -301 -6z" />
<glyph unicode="&#x12b;" horiz-adv-x="681" d="M-28 1126v66h739v-66h-739zM31 606q0 61 14 123t62.5 119t121.5 57q88 0 150.5 -65.5t62.5 -151.5q0 -23 -31.5 -257t-31.5 -273q0 -133 80 -133q14 0 30.5 6t39 23.5t41 60.5t24.5 106q2 12 2 29.5t1 27t3 17.5t7 12t16 4q27 0 26 -35q0 -61 -14 -123.5t-62.5 -119 t-119.5 -56.5q-90 0 -151.5 64.5t-61.5 153.5q0 23 30.5 256t30.5 272q0 135 -78 135q-14 0 -30.5 -6t-40 -23.5t-42 -61.5t-24.5 -108q0 -8 -1 -24.5t-2 -25.5t-3 -19t-7 -15.5t-16 -5.5q-26 0 -26 37z" />
<glyph unicode="&#x130;" horiz-adv-x="854" d="M113 0v63h32q117 0 153 14.5t36 74.5v1095q0 57 -36 72.5t-155 15.5h-30v64q270 -6 299 -6q162 0 325 6v-64h-30q-119 0 -154 -15t-37 -73v-1095q2 -55 35 -72t154 -17h32v-63q-160 6 -323 6q-31 0 -301 -6zM319 1678q0 47 32 77.5t75 30.5q41 0 74.5 -31.5t33.5 -77 t-33.5 -76t-74.5 -30.5q-47 0 -77 32t-30 75z" />
<glyph unicode="&#x131;" horiz-adv-x="681" d="M31 606q0 61 14 123t62.5 119t121.5 57q88 0 150.5 -65.5t62.5 -151.5q0 -23 -31.5 -257t-31.5 -273q0 -133 80 -133q14 0 30.5 6t39 23.5t41 60.5t24.5 106q2 12 2 29.5t1 27t3 17.5t7 12t16 4q27 0 26 -35q0 -61 -14 -123.5t-62.5 -119t-119.5 -56.5q-90 0 -151.5 64.5 t-61.5 153.5q0 23 30.5 256t30.5 272q0 135 -78 135q-14 0 -30.5 -6t-40 -23.5t-42 -61.5t-24.5 -108q0 -8 -1 -24.5t-2 -25.5t-3 -19t-7 -15.5t-16 -5.5q-26 0 -26 37z" />
<glyph unicode="&#x134;" horiz-adv-x="1165" d="M141 229q0 53 34 85t81 32q45 0 79 -32.5t34 -80t-32 -81t-85 -33.5q-2 0 -7 1t-7 1q86 -119 225 -119q80 0 145.5 76t65.5 239v926q0 61 -43 76.5t-193 15.5h-37v64l342 -6h97l170 6v-64h-9q-98 0 -123.5 -15t-25.5 -75v-926q0 -98 -38 -172.5t-98.5 -113.5t-123 -58.5 t-121.5 -19.5q-143 0 -236.5 82.5t-93.5 191.5zM490 1559v2l272 286h2l273 -286v-2l-35 -37h-2l-236 217h-2l-235 -217z" />
<glyph unicode="&#x135;" horiz-adv-x="739" d="M0 -264q0 43 27.5 68.5t66.5 25.5t66.5 -26.5t27.5 -67.5q0 -66 -65 -90q43 -20 98 -21q66 0 114 61.5t48 221.5v721q0 229 -104 229q-55 0 -98.5 -42t-61 -91t-29.5 -96l-12 -47q-6 -8 -18.5 -10.5t-20.5 6.5q-6 8 -2 49q20 115 83.5 196.5t166.5 81.5q84 0 161.5 -62.5 t77.5 -203.5v-707q0 -82 -10 -120q-23 -96 -100.5 -165t-192.5 -69q-94 0 -158.5 44t-64.5 114zM181 1024l272 307h2l274 -307l-36 -35h-2l-236 234h-2l-234 -234h-2z" />
<glyph unicode="&#x139;" horiz-adv-x="1392" d="M123 0v63h27q113 0 147.5 14.5t36.5 72.5v1097q0 57 -35 72.5t-149 15.5h-27v64q135 -6 299 -6q178 0 356 6v-64h-35q-143 0 -185 -16t-42 -76v-1102q0 -51 22.5 -64.5t82.5 -13.5h145q78 0 140.5 15.5t104.5 36t73.5 60.5t49 72t32 90t18.5 92t12 99h53l-57 -528h-1069z M238 1565q82 51 186 116q100 61 120.5 72.5t37.5 11.5q27 0 48 -23.5t21 -51.5q0 -16 -8 -30.5t-20.5 -23t-23.5 -13.5t-24 -9l-12 -2q-291 -90 -305 -94z" />
<glyph unicode="&#x13a;" horiz-adv-x="569" d="M-2 1335v64l303 22v-1165q0 -231 98 -231q88 0 88 219v14q-4 55 27 55q25 0 25 -41q0 -61 -3.5 -100t-15.5 -90t-44 -78t-81 -27q-80 0 -158.5 61.5t-78.5 199.5v983q0 76 -29 95t-131 19zM188 1567q309 193 328 196q6 2 16 2q29 0 49.5 -24.5t20.5 -51.5 q0 -25 -16.5 -42t-29 -21t-42.5 -14q-244 -76 -305 -93z" />
<glyph unicode="&#x13d;" horiz-adv-x="1392" d="M123 0v63h27q113 0 147.5 14.5t36.5 72.5v1097q0 57 -35 72.5t-149 15.5h-27v64q135 -6 299 -6q178 0 356 6v-64h-35q-143 0 -185 -16t-42 -76v-1102q0 -51 22.5 -64.5t82.5 -13.5h145q78 0 140.5 15.5t104.5 36t73.5 60.5t49 72t32 90t18.5 92t12 99h53l-57 -528h-1069z M897 1485q0 45 30.5 76.5t78.5 31.5q59 0 98 -50t39 -122q0 -84 -41 -158.5t-84 -110.5t-66 -36q-20 0 -20 19q0 10 12 20t34.5 28.5t39.5 37.5q78 88 78 202q-39 -47 -90 -47q-45 0 -77 31t-32 78z" />
<glyph unicode="&#x13e;" horiz-adv-x="569" d="M-2 1335v64l303 22v-1165q0 -231 98 -231q88 0 88 219v14q-4 55 27 55q25 0 25 -41q0 -61 -3.5 -100t-15.5 -90t-44 -78t-81 -27q-80 0 -158.5 61.5t-78.5 199.5v983q0 76 -29 95t-131 19zM393 1399q0 45 30 76.5t77 31.5q59 0 98 -50t39 -122q0 -84 -40 -158.5 t-83 -110.5t-65.5 -36t-22.5 21q0 10 12.5 20t36 27.5t39.5 36.5q76 86 76 202q-37 -45 -90 -45q-45 0 -76 30t-31 77z" />
<glyph unicode="&#x141;" horiz-adv-x="1392" d="M123 0v63h16q123 0 159 15.5t36 77.5v454l-150 -123l-41 48v2q25 20 49.5 39.5t40 32t31 25.5t24.5 20.5t17 15.5t12.5 13t8.5 9t5 9.5t2 10.5t1 11v520q0 61 -35 76.5t-156 15.5h-20v64q135 -6 299 -6q178 0 356 6v-64h-14q-170 0 -209 -16t-39 -84v-389l299 248h2 l39 -50l-301 -249q-29 -23 -34 -34t-5 -46v-574q0 -51 21.5 -64.5t85.5 -13.5h139q80 0 141.5 14.5t104.5 35t74.5 58.5t50 70.5t32 89t18.5 94.5t13 103h53l-57 -528h-1069z" />
<glyph unicode="&#x142;" horiz-adv-x="710" d="M25 578q23 18 45 36.5t35.5 29.5t26.5 22.5t20.5 17.5t14.5 13.5t9 11.5l5 10t3 10v12v467q0 86 -27.5 106.5t-131.5 20.5v64l303 22v-594l151 127h2l39 -47v-2q-176 -145 -184 -157q-6 -10 -8 -31v-465q0 -227 98 -227q88 0 88 239q0 49 25 49q8 0 16 -8q10 -10 10 -37 q0 -143 -29.5 -217t-113.5 -74q-31 0 -65.5 10.5t-75.5 36t-69 83t-28 137.5v383l-118 -99z" />
<glyph unicode="&#x143;" horiz-adv-x="1648" d="M123 0v63q123 0 167 39t44 115v1104q-68 14 -178 14h-33v64h354q18 0 28.5 -4t15.5 -10.5t18 -22.5l716 -1051v873q0 74 -43 112.5t-168 38.5v64q143 -6 226 -6q127 0 252 6v-64q-121 0 -166 -37.5t-45 -113.5v-1098q0 -4 1 -14.5t1 -16.5q0 -53 -29 -53q-18 0 -47 39 l-846 1241h-2v-1065q0 -31 6 -53.5t25.5 -48t64.5 -39t115 -13.5v-63q-123 6 -248 6q-20 0 -229 -6zM641 1565q82 51 186 116q100 61 121 72.5t37 11.5q27 0 48.5 -23.5t21.5 -51.5q0 -16 -8.5 -30.5t-20.5 -23t-23.5 -13.5t-23.5 -9l-12 -2q-291 -90 -305 -94z" />
<glyph unicode="&#x144;" horiz-adv-x="1251" d="M31 621q0 61 4 103t17.5 88t44 69.5t77.5 23.5q66 0 132.5 -43t96.5 -135q96 178 279 178q125 0 212 -78.5t87 -265.5q0 -104 -16.5 -241.5t-16.5 -159.5q0 -135 78 -135q49 0 90 56t49 181q4 51 25 51q6 0 16 -6q12 -8 13 -31q0 -61 -14.5 -122.5t-62.5 -119t-122 -57.5 q-86 0 -149.5 64.5t-63.5 151.5q0 6 15.5 147t15.5 229q0 289 -166 289q-119 0 -189.5 -92t-70.5 -182v-518q0 -51 -23.5 -70t-48.5 -19q-72 0 -72 99v563q0 217 -98 217q-51 0 -69.5 -64.5t-19.5 -137t-9 -79.5q-10 -6 -17 -6q-24 1 -24 52zM496 1044q66 63 153 150 q90 88 109.5 104.5t42.5 16.5q29 0 51 -23.5t22 -52.5q0 -31 -28.5 -52.5t-171.5 -101.5q-88 -49 -146 -81h-2z" />
<glyph unicode="&#x147;" horiz-adv-x="1648" d="M123 0v63q123 0 167 39t44 115v1104q-68 14 -178 14h-33v64h354q18 0 28.5 -4t15.5 -10.5t18 -22.5l716 -1051v873q0 74 -43 112.5t-168 38.5v64q143 -6 226 -6q127 0 252 6v-64q-121 0 -166 -37.5t-45 -113.5v-1098q0 -4 1 -14.5t1 -16.5q0 -53 -29 -53q-18 0 -47 39 l-846 1241h-2v-1065q0 -31 6 -53.5t25.5 -48t64.5 -39t115 -13.5v-63q-123 6 -248 6q-20 0 -229 -6zM512 1882v2l23 33q276 -164 288 -164h2q8 0 287 164l23 -33v-2l-312 -264h-2z" />
<glyph unicode="&#x148;" horiz-adv-x="1251" d="M31 621q0 61 4 103t17.5 88t44 69.5t77.5 23.5q66 0 132.5 -43t96.5 -135q96 178 279 178q125 0 212 -78.5t87 -265.5q0 -104 -16.5 -241.5t-16.5 -159.5q0 -135 78 -135q49 0 90 56t49 181q4 51 25 51q6 0 16 -6q12 -8 13 -31q0 -61 -14.5 -122.5t-62.5 -119t-122 -57.5 q-86 0 -149.5 64.5t-63.5 151.5q0 6 15.5 147t15.5 229q0 289 -166 289q-119 0 -189.5 -92t-70.5 -182v-518q0 -51 -23.5 -70t-48.5 -19q-72 0 -72 99v563q0 217 -98 217q-51 0 -69.5 -64.5t-19.5 -137t-9 -79.5q-10 -6 -17 -6q-24 1 -24 52zM224 1290v4l26 31l287 -195 l287 195l26 -31v-4l-313 -301z" />
<glyph unicode="&#x150;" horiz-adv-x="1705" d="M170 694q0 315 201.5 532.5t480.5 217.5q276 0 479 -217t203 -532.5t-203 -527.5t-479 -212q-274 0 -478 213t-204 526zM381 727q0 -197 46 -344t120 -224t150.5 -113t154.5 -36t154.5 37t150.5 114t120 224t46 344q0 178 -46 314.5t-120 208t-150.5 106.5t-154.5 35 t-154.5 -35t-150.5 -106.5t-120 -208t-46 -316.5zM586 1565q82 51 186 116q100 61 120.5 72.5t37.5 11.5q29 0 49 -24.5t20 -50.5q0 -16 -8 -30.5t-20.5 -23t-23.5 -13.5t-23 -9l-13 -2q-291 -90 -305 -94zM926 1565q82 51 186 116q100 61 120.5 72.5t37.5 11.5 q29 0 49 -24.5t20 -50.5q0 -16 -8 -30.5t-20.5 -23t-23.5 -13.5t-23 -9l-13 -2l-303 -94z" />
<glyph unicode="&#x151;" d="M141 440q0 199 127 332t299 133q178 0 302 -137t124 -328q0 -199 -127 -331t-299 -132q-178 0 -302 136.5t-124 326.5zM313 438q0 -162 37 -248q27 -66 83 -115.5t134 -49.5q100 0 172 88q84 104 84 333q0 154 -37 244q-27 66 -84 117t-135 51q-100 0 -172 -90 q-82 -101 -82 -330zM326 1044q47 47 118 117q115 113 139.5 133.5t49.5 20.5q29 0 50.5 -23.5t21.5 -52.5q0 -31 -29 -52.5t-172 -101.5q-88 -49 -146 -81h-2zM668 1044q66 63 153 150q90 88 109.5 104.5t42.5 16.5q29 0 50 -23.5t21 -52.5q0 -31 -28.5 -52.5t-171.5 -101.5 q-88 -49 -146 -81h-2z" />
<glyph unicode="&#x152;" horiz-adv-x="2189" d="M199 694q0 324 206.5 537t471.5 213q57 0 156.5 -22.5t178.5 -22.5h748l57 -461h-51q-12 92 -21.5 143.5t-37 108.5t-70.5 88q-80 57 -272 57h-187q-68 0 -90 -11t-24 -62v-504h196q57 0 90 3t72 15t60.5 40t29.5 75q6 35 6 106h51v-540h-51v22q0 139 -56 177t-202 38 h-196v-553q0 -51 22.5 -64.5t87.5 -13.5h197q90 0 153.5 10.5t109.5 38t74.5 58.5t51 92.5t34 114.5t27.5 151h54l-86 -528h-772q-86 0 -182.5 -22.5t-157.5 -22.5q-272 0 -475 212t-203 527zM406 723q0 -309 142 -515t335 -206q66 0 107.5 19.5t65 48t35 93t14.5 124 t3 172.5v473q0 117 -3 179.5t-14.5 128t-36 94t-66.5 47t-105 18.5q-195 0 -336 -193.5t-141 -482.5z" />
<glyph unicode="&#x153;" horiz-adv-x="1593" d="M141 440q0 201 110.5 334t258.5 133q168 0 285 -184q57 84 147 133t191 49q111 0 188.5 -61.5t77.5 -157.5q0 -45 -18.5 -79t-45 -56.5t-71.5 -38.5t-82 -23.5t-94.5 -11.5t-90 -5t-86.5 -1h-45q8 -254 111 -369q70 -78 164 -77q37 0 78 8t104 49t104 111q29 47 35 49 q10 4 20.5 -3.5t10.5 -21.5q0 -18 -24.5 -56t-65.5 -80t-112.5 -73t-151.5 -31q-201 0 -332 203q-111 -207 -297 -207q-152 0 -260.5 136t-108.5 331zM313 442q0 -86 4.5 -141t28 -126t68.5 -112q45 -43 98 -43q51 0 99 40t77 116q35 90 35 264q0 127 -20.5 220.5 t-86.5 154.5q-47 45 -104 45q-51 0 -96 -41t-72 -112q-31 -85 -31 -265zM866 518h82q72 0 125 5t117.5 19.5t100.5 51.5t36 94q0 68 -53 119t-137 51q-100 0 -181.5 -78t-89.5 -262z" />
<glyph unicode="&#x154;" horiz-adv-x="1619" d="M127 0v63h27q115 0 148.5 15.5t35.5 71.5v1099q0 55 -34 70.5t-150 15.5h-27v64h604q211 0 344 -66q109 -53 170.5 -133t61.5 -170q0 -96 -72 -178t-197 -129q-16 -6 -90 -27q90 -29 146.5 -75t81 -109t35 -121.5t21.5 -141.5t28 -138q33 -109 110 -109q43 0 74 29.5 t41 63.5t18 69l6 33q6 14 23 14q25 0 24 -35q0 -25 -8 -57.5t-27.5 -71.5t-61.5 -65.5t-99 -26.5q-59 0 -113.5 14.5t-108 46t-86 95t-32.5 151.5v146q0 106 -63.5 187t-215.5 81h-227v-520q0 -61 35 -77t156 -16h20v-63q-152 6 -299 6t-299 -6zM514 723h191q90 0 153.5 11 t120.5 43t87 93.5t30 155.5q0 152 -80 230.5t-277 78.5h-90q-90 0 -112.5 -11t-22.5 -67v-534zM643 1565q82 51 186 116q100 61 121 72.5t37 11.5q27 0 48.5 -23.5t21.5 -51.5q0 -16 -8.5 -30.5t-20.5 -23t-23.5 -13.5t-23.5 -9l-12 -2q-291 -90 -305 -94z" />
<glyph unicode="&#x155;" horiz-adv-x="937" d="M31 608q0 61 3 102.5t16 92.5t44 76.5t80 25.5q57 0 121.5 -35.5t99.5 -119.5q29 49 49.5 74.5t70.5 53t116 27.5q94 0 172 -42t78 -124q0 -41 -28 -68.5t-67 -27.5q-41 0 -67.5 26.5t-26.5 67.5q0 37 21.5 60.5t50.5 31.5q-68 29 -135 29q-59 0 -104.5 -28.5t-68 -70.5 t-33.5 -78t-11 -58v-557q0 -88 -72 -89q-55 0 -68 50q-4 12 -4 57v545q0 193 -73 223q-31 12 -60 -6q-31 -20 -41 -82t-11 -120t-9 -66q-6 -8 -17 -9q-26 0 -26 39zM340 1044q47 47 118 117q115 113 139.5 133.5t49.5 20.5q29 0 50 -23.5t21 -52.5q0 -31 -28.5 -52.5 t-171.5 -101.5q-88 -49 -146 -81h-2z" />
<glyph unicode="&#x158;" horiz-adv-x="1619" d="M127 0v63h27q115 0 148.5 15.5t35.5 71.5v1099q0 55 -34 70.5t-150 15.5h-27v64h604q211 0 344 -66q109 -53 170.5 -133t61.5 -170q0 -96 -72 -178t-197 -129q-16 -6 -90 -27q90 -29 146.5 -75t81 -109t35 -121.5t21.5 -141.5t28 -138q33 -109 110 -109q43 0 74 29.5 t41 63.5t18 69l6 33q6 14 23 14q25 0 24 -35q0 -25 -8 -57.5t-27.5 -71.5t-61.5 -65.5t-99 -26.5q-59 0 -113.5 14.5t-108 46t-86 95t-32.5 151.5v146q0 106 -63.5 187t-215.5 81h-227v-520q0 -61 35 -77t156 -16h20v-63q-152 6 -299 6t-299 -6zM397 1882v2l23 33 q276 -164 289 -164h2q8 0 286 164l25 -33v-2l-311 -264h-2zM514 723h191q90 0 153.5 11t120.5 43t87 93.5t30 155.5q0 152 -80 230.5t-277 78.5h-90q-90 0 -112.5 -11t-22.5 -67v-534z" />
<glyph unicode="&#x159;" horiz-adv-x="937" d="M31 608q0 61 3 102.5t16 92.5t44 76.5t80 25.5q57 0 121.5 -35.5t99.5 -119.5q29 49 49.5 74.5t70.5 53t116 27.5q94 0 172 -42t78 -124q0 -41 -28 -68.5t-67 -27.5q-41 0 -67.5 26.5t-26.5 67.5q0 37 21.5 60.5t50.5 31.5q-68 29 -135 29q-59 0 -104.5 -28.5t-68 -70.5 t-33.5 -78t-11 -58v-557q0 -88 -72 -89q-55 0 -68 50q-4 12 -4 57v545q0 193 -73 223q-31 12 -60 -6q-31 -20 -41 -82t-11 -120t-9 -66q-6 -8 -17 -9q-26 0 -26 39zM84 1290v4l26 31l287 -195l287 195l26 -31v-4l-313 -301z" />
<glyph unicode="&#x15a;" horiz-adv-x="1251" d="M170 10v414q0 41 25 41q23 0 26 -31q10 -188 115 -293q123 -123 336 -123q125 0 203.5 88.5t78.5 208.5q0 94 -48 169t-128 108q-27 10 -169 45t-173 45q-111 39 -188.5 138.5t-77.5 232.5q0 164 116.5 277.5t284.5 113.5q88 0 164 -32t100.5 -53.5t59.5 -58.5 q80 129 90 138q6 4 12 4q25 0 25 -53v-418q0 -35 -27 -35q-20 0 -24 25.5t-16.5 88t-43.5 126.5q-104 211 -338 210q-123 0 -201.5 -81.5t-78.5 -188.5q0 -92 53 -159.5t131 -96.5q25 -8 173.5 -44t191.5 -56q98 -45 166.5 -147.5t68.5 -237.5q0 -172 -113.5 -296 t-291.5 -124q-223 0 -375 143q-80 -141 -102 -141q-2 0 -4.5 1t-4.5 1q-16 6 -16 51zM416 1567q309 193 328 196q6 2 16 2q29 0 49.5 -24.5t20.5 -51.5q0 -25 -16.5 -42t-29 -21t-42.5 -14q-244 -76 -305 -93z" />
<glyph unicode="&#x15b;" horiz-adv-x="909" d="M113 217q0 45 26.5 70.5t67.5 25.5t67.5 -25.5t26.5 -66.5q0 -33 -23.5 -63.5t-78.5 -30.5h-4q94 -104 264 -104q248 0 248 188q0 117 -136 174q-33 12 -109.5 26.5t-96.5 20.5q-76 20 -135.5 79.5t-59.5 156.5q0 39 10 73.5t36 74.5t85 64.5t145 24.5q131 0 210 -62.5 t79 -148.5q0 -43 -24.5 -63.5t-51.5 -20.5q-31 0 -53 22.5t-22 55.5q0 72 78 76q-78 94 -213 94q-193 0 -193 -151q0 -45 20.5 -78t59.5 -50.5t71.5 -26.5t83 -18.5t68.5 -13.5q94 -25 164 -93.5t70 -174.5q0 -49 -12.5 -91t-45.5 -86t-102.5 -71t-171.5 -27 q-147 0 -247.5 67t-100.5 173zM324 1044q47 47 118 117q115 113 139.5 133.5t49.5 20.5q29 0 50 -23.5t21 -52.5q0 -31 -28.5 -52.5t-171.5 -101.5q-88 -49 -146 -81h-2z" />
<glyph unicode="&#x15c;" horiz-adv-x="1251" d="M170 10v414q0 41 25 41q23 0 26 -31q10 -188 115 -293q123 -123 336 -123q125 0 203.5 88.5t78.5 208.5q0 94 -48 169t-128 108q-27 10 -169 45t-173 45q-111 39 -188.5 138.5t-77.5 232.5q0 164 116.5 277.5t284.5 113.5q88 0 164 -32t100.5 -53.5t59.5 -58.5 q80 129 90 138q6 4 12 4q25 0 25 -53v-418q0 -35 -27 -35q-20 0 -24 25.5t-16.5 88t-43.5 126.5q-104 211 -338 210q-123 0 -201.5 -81.5t-78.5 -188.5q0 -92 53 -159.5t131 -96.5q25 -8 173.5 -44t191.5 -56q98 -45 166.5 -147.5t68.5 -237.5q0 -172 -113.5 -296 t-291.5 -124q-223 0 -375 143q-80 -141 -102 -141q-2 0 -4.5 1t-4.5 1q-16 6 -16 51zM299 1559v2l272 286h2l273 -286v-2l-35 -37h-2l-236 217h-2l-235 -217z" />
<glyph unicode="&#x15d;" horiz-adv-x="909" d="M113 217q0 45 26.5 70.5t67.5 25.5t67.5 -25.5t26.5 -66.5q0 -33 -23.5 -63.5t-78.5 -30.5h-4q94 -104 262 -104q141 0 195.5 59t54.5 131q0 51 -35 98t-97 72q-35 14 -113.5 29.5t-94.5 19.5q-76 20 -136.5 79.5t-60.5 154.5q0 92 65.5 165.5t215.5 73.5 q123 0 203.5 -61.5t80.5 -149.5q0 -43 -24.5 -63.5t-51.5 -20.5q-31 0 -53 22.5t-22 55.5q0 70 78 76q-76 94 -211 94q-92 0 -143.5 -43t-51.5 -104q0 -49 34 -92.5t93 -61.5q18 -4 90 -18.5t88 -18.5q92 -25 162 -93.5t70 -172.5q0 -106 -77 -191.5t-259 -85.5 q-145 0 -244.5 67t-99.5 173zM177 1024l272 307h2l274 -307l-36 -35h-2l-236 234h-2l-234 -234h-2z" />
<glyph unicode="&#x15e;" horiz-adv-x="1251" d="M170 10v414q0 41 25 41q23 0 26 -31q10 -188 115 -293q123 -123 336 -123q125 0 203.5 88.5t78.5 208.5q0 94 -48 169t-128 108q-27 10 -169 45t-173 45q-111 39 -188.5 138.5t-77.5 232.5q0 158 113.5 274.5t287.5 116.5q88 0 164 -32t100.5 -53.5t59.5 -58.5 q80 129 90 138q6 4 12 4q25 0 25 -51v-420q0 -35 -27 -35q-20 0 -24 25.5t-16.5 88t-43.5 126.5q-104 211 -338 210q-125 0 -202.5 -81.5t-77.5 -188.5q0 -88 52 -156.5t126 -97.5q25 -8 166 -42t174 -46q119 -43 192.5 -152.5t73.5 -246.5q0 -154 -91 -269.5t-234 -144.5 v-72q29 -4 58.5 -13t70.5 -45t41 -89q0 -90 -108.5 -124t-346.5 -34h-29v45h68q272 0 272 113q0 41 -40 74.5t-130 38.5v104q-188 20 -311 139q-78 -141 -104 -141l-3 2h-4q-16 6 -16 51z" />
<glyph unicode="&#x15f;" horiz-adv-x="909" d="M113 215q0 43 26.5 70.5t67.5 27.5t67.5 -27.5t26.5 -66.5q0 -33 -23.5 -62.5t-82.5 -29.5q94 -104 264 -104q248 0 248 188q0 117 -136 174q-33 12 -109.5 26.5t-96.5 20.5q-76 20 -135.5 79.5t-59.5 156.5q0 39 10 73.5t36 74.5t85 64.5t145 24.5q131 0 210 -62.5 t79 -148.5q0 -43 -24.5 -63.5t-51.5 -20.5q-31 0 -53 22.5t-22 55.5q0 72 78 76q-78 94 -213 94q-193 0 -193 -151q0 -55 35 -92t80 -54q20 -8 102 -24.5t92 -18.5q88 -25 158 -91.5t70 -174.5q0 -242 -269 -272v-91q29 -4 58.5 -13t70.5 -45t41 -89q0 -55 -38 -89 t-114.5 -48.5t-138 -17.5t-165.5 -3h-27v45h65q274 0 275 113q0 41 -40 74.5t-130 38.5v127q-98 12 -162.5 58t-85 90t-20.5 85z" />
<glyph unicode="&#x160;" horiz-adv-x="1251" d="M170 10v414q0 41 25 41q23 0 26 -31q10 -188 115 -293q123 -123 336 -123q125 0 203.5 88.5t78.5 208.5q0 94 -48 169t-128 108q-27 10 -169 45t-173 45q-111 39 -188.5 138.5t-77.5 232.5q0 164 116.5 277.5t284.5 113.5q88 0 164 -32t100.5 -53.5t59.5 -58.5 q80 129 90 138q6 4 12 4q25 0 25 -53v-418q0 -35 -27 -35q-20 0 -24 25.5t-16.5 88t-43.5 126.5q-104 211 -338 210q-123 0 -201.5 -81.5t-78.5 -188.5q0 -92 53 -159.5t131 -96.5q25 -8 173.5 -44t191.5 -56q98 -45 166.5 -147.5t68.5 -237.5q0 -172 -113.5 -296 t-291.5 -124q-223 0 -375 143q-80 -141 -102 -141q-2 0 -4.5 1t-4.5 1q-16 6 -16 51zM313 1882v2l23 33q276 -164 289 -164h2q8 0 286 164l23 -33v-2l-311 -264h-2z" />
<glyph unicode="&#x161;" horiz-adv-x="909" d="M113 217q0 45 26.5 70.5t67.5 25.5t67.5 -25.5t26.5 -66.5q0 -33 -23.5 -63.5t-78.5 -30.5h-4q94 -104 264 -104q248 0 248 184q0 111 -127 166q-29 12 -91.5 28.5t-110.5 33t-99.5 44t-80 76.5t-28.5 117q0 39 9 73.5t36 73.5t85 62.5t144 23.5q131 0 211 -63.5 t80 -147.5q0 -43 -24.5 -63.5t-51.5 -20.5q-31 0 -53 22.5t-22 55.5q0 72 78 76q-78 94 -213 94q-193 0 -193 -147q0 -55 38 -93t84 -52.5t121.5 -35t112.5 -36.5q180 -80 181 -246q0 -47 -12.5 -89t-45.5 -86t-102.5 -70t-171.5 -26q-147 0 -247.5 67t-100.5 173zM141 1290 v4l25 31l287 -195h2l286 195l25 -31v-4l-311 -301h-2z" />
<glyph unicode="&#x162;" horiz-adv-x="1593" d="M129 926l41 460h1249l39 -460h-51q-8 86 -14.5 132t-20.5 99t-34.5 79t-56.5 49.5t-87 31.5t-123 8h-82q-57 0 -80.5 -13.5t-23.5 -64.5v-1087q0 -63 46 -80t208 -17h43v-63l-316 6v-117q168 -39 168 -147q0 -90 -109.5 -124t-344.5 -34h-27v45h65q272 0 273 113 q0 41 -39 74.5t-129 38.5v151l-317 -6v63h45q160 0 205.5 16.5t45.5 80.5v1087q0 51 -23.5 64.5t-80.5 13.5h-80q-74 0 -125 -8t-87 -32.5t-57.5 -50.5t-35.5 -79t-19.5 -99t-13.5 -130h-51z" />
<glyph unicode="&#x163;" horiz-adv-x="739" d="M-27 819v62h240v311q0 88 71.5 88t71.5 -90v-309h242v-62h-242v-579q0 -215 105 -215q45 0 82 26.5t57.5 66.5t32.5 77.5t18 70.5l8 31q8 14 25 14q23 0 23 -28q0 -51 -44.5 -153.5t-136.5 -139.5v-101q29 -4 58.5 -13t70.5 -45t41 -89q0 -37 -17 -64.5t-54 -44t-74 -28 t-97.5 -15.5t-102.5 -5t-109 -1h-29v45h66q274 0 274 113q0 41 -40 74.5t-130 38.5v133q-170 63 -170 248v583h-240z" />
<glyph unicode="&#x164;" horiz-adv-x="1593" d="M129 926l41 460h1249l39 -460h-51q-8 86 -14.5 132t-20.5 99t-34.5 79t-56.5 49.5t-87 31.5t-123 8h-82q-57 0 -80.5 -13.5t-23.5 -64.5v-1087q0 -63 46 -80t208 -17h43v-63q-219 6 -363 6q-205 0 -413 -6v63h45q160 0 205.5 16.5t45.5 80.5v1087q0 51 -22.5 64.5 t-81.5 13.5h-80q-88 0 -145.5 -16.5t-92 -41t-55 -82t-29 -108.5t-16.5 -151h-51zM483 1882v2l23 33q276 -164 289 -164h2q8 0 286 164l23 -33v-2l-311 -264h-2z" />
<glyph unicode="&#x165;" horiz-adv-x="739" d="M-27 819v62h240v309q0 92 71.5 92t71.5 -92v-309h242v-62h-242v-567q0 -227 105 -227q18 0 40.5 8t52.5 29.5t56.5 72.5t40.5 125q10 41 19 47q10 8 23.5 1t13.5 -25q0 -23 -12.5 -67t-38 -100.5t-79 -97.5t-122.5 -41q-33 0 -69 11.5t-78 38t-68.5 83t-26.5 136.5v573 h-240zM489 1319q0 45 31 76.5t78 31.5q59 0 98 -50t39 -122q0 -84 -41 -158.5t-84 -110.5t-65 -36q-20 0 -21 21q0 10 12.5 20t35 27.5t38.5 36.5q78 88 78 202q-37 -45 -90 -45q-45 0 -77 30t-32 77z" />
<glyph unicode="&#x16a;" horiz-adv-x="1648" d="M123 1335v64q152 -6 301 -6t301 6v-64h-27q-117 0 -149.5 -16t-32.5 -74v-758q0 -205 59 -305q18 -31 46 -62.5t92.5 -66.5t140.5 -35q145 0 254 103.5t133 259.5q8 55 8 125v680q0 86 -52 116.5t-159 32.5v64q125 -6 254 -6q20 0 230 6v-64q-45 0 -76 -5t-65.5 -18.5 t-52 -45t-17.5 -80.5v-684q0 -88 -4 -115q-25 -180 -152 -306t-303 -126q-205 0 -361.5 144.5t-156.5 379.5v762q0 61 -34 77.5t-159 16.5h-18zM426 1575v70h795v-70h-795z" />
<glyph unicode="&#x16b;" horiz-adv-x="1193" d="M31 606q0 43 9 90t29.5 96.5t62.5 81t97 31.5q88 0 150.5 -65.5t62.5 -149.5q0 -12 -15 -138t-15 -204q0 -180 57 -251.5t131 -71.5q70 0 118 49t60 96q2 6 2 59v545q0 41 6 60q16 47 66 47q72 0 72 -99v-536q0 -221 98 -221q37 0 57.5 35.5t24.5 75.5t5 91.5t1 57.5 q2 20 17.5 25t25.5 -7q8 -8 8 -45q0 -141 -30.5 -211t-112.5 -70q-129 0 -213 134q-76 -133 -213 -134q-53 0 -103.5 15.5t-102.5 53.5t-85 118t-33 190q0 84 16.5 213t16.5 156q0 135 -78 135q-51 0 -92 -55t-47 -182q-2 -53 -27 -54q-10 0 -18 11.5t-8 27.5zM230 1126v66 h739v-66h-739z" />
<glyph unicode="&#x16c;" horiz-adv-x="1648" d="M123 1335v64q152 -6 301 -6t301 6v-64h-27q-117 0 -149.5 -16t-32.5 -74v-758q0 -205 59 -305q18 -31 46 -62.5t92.5 -66.5t140.5 -35q145 0 254 103.5t133 259.5q8 55 8 125v680q0 86 -52 116.5t-159 32.5v64q125 -6 254 -6q20 0 230 6v-64q-45 0 -76 -5t-65.5 -18.5 t-52 -45t-17.5 -80.5v-684q0 -88 -4 -115q-25 -180 -152 -306t-303 -126q-205 0 -361.5 144.5t-156.5 379.5v762q0 61 -34 77.5t-159 16.5h-18zM517 1825h47q6 -100 85 -152.5t177 -52.5q100 0 177 54.5t83 150.5h45q-4 -129 -95 -206t-212 -77t-212 78t-95 205z" />
<glyph unicode="&#x16d;" horiz-adv-x="1193" d="M31 606q0 43 9 90t29.5 96.5t62.5 81t97 31.5q88 0 150.5 -65.5t62.5 -149.5q0 -12 -15 -138t-15 -204q0 -180 57 -251.5t131 -71.5q70 0 118 49t60 96q2 6 2 59v545q0 41 6 60q16 47 66 47q72 0 72 -99v-536q0 -221 98 -221q37 0 57.5 35.5t24.5 75.5t5 91.5t1 57.5 q2 20 17.5 25t25.5 -7q8 -8 8 -45q0 -141 -30.5 -211t-112.5 -70q-129 0 -213 134q-76 -133 -213 -134q-53 0 -103.5 15.5t-102.5 53.5t-85 118t-33 190q0 84 16.5 213t16.5 156q0 135 -78 135q-51 0 -92 -55t-47 -182q-2 -53 -27 -54q-10 0 -18 11.5t-8 27.5zM290 1309h47 q6 -96 83 -148.5t177 -52.5q94 0 174 51t86 150h47q-4 -129 -96 -204t-210.5 -75t-211 76t-96.5 203z" />
<glyph unicode="&#x16e;" horiz-adv-x="1648" d="M123 1335v64q152 -6 301 -6t301 6v-64h-27q-117 0 -149.5 -16t-32.5 -74v-758q0 -205 59 -305q18 -31 46 -62.5t92.5 -66.5t140.5 -35q145 0 254 103.5t133 259.5q8 55 8 125v680q0 86 -52 116.5t-159 32.5v64q125 -6 254 -6q20 0 230 6v-64q-45 0 -76 -5t-65.5 -18.5 t-52 -45t-17.5 -80.5v-684q0 -88 -4 -115q-25 -180 -152 -306t-303 -126q-205 0 -361.5 144.5t-156.5 379.5v762q0 61 -34 77.5t-159 16.5h-18zM686 1683q0 76 56.5 131.5t138.5 55.5q78 0 137 -53.5t59 -135.5q0 -76 -56 -131t-138 -55q-78 0 -137.5 53t-59.5 135z M737 1683.5q0 -141.5 144 -141.5q145 0 145 141.5t-143 141.5q-146 0 -146 -141.5z" />
<glyph unicode="&#x16f;" horiz-adv-x="1193" d="M31 604q0 43 9 90t29.5 97.5t62.5 82t97 31.5q84 0 148.5 -63.5t64.5 -153.5q0 -18 -15 -136t-15 -212q0 -315 186 -315q72 0 119 48t61 99q2 8 2 57v545q0 41 6 60q16 47 66 47q72 0 72 -99v-536q0 -221 98 -221q37 0 57.5 35.5t24.5 75.5t5 91.5t1 57.5q2 20 17.5 25 t25.5 -7q8 -8 8 -45q0 -141 -30.5 -211t-112.5 -70q-129 0 -213 134q-72 -133 -215 -134q-322 0 -322 375q0 84 16.5 214t16.5 157q0 135 -78 135q-51 0 -92 -55t-47 -182q-2 -53 -27 -54q-26 0 -26 37zM401 1190q0 164 195 164q197 0 197 -168q0 -162 -195 -162 q-197 0 -197 166zM453 1188q0 -76 31.5 -97.5t105.5 -21.5h2q55 0 81.5 5t46 32t19.5 82q0 68 -26.5 93.5t-112.5 25.5t-116.5 -22.5t-30.5 -96.5z" />
<glyph unicode="&#x170;" horiz-adv-x="1648" d="M123 1335v64q152 -6 301 -6t301 6v-64h-27q-117 0 -149.5 -16t-32.5 -74v-758q0 -205 59 -305q18 -31 46 -62.5t92.5 -66.5t140.5 -35q145 0 254 103.5t133 259.5q8 55 8 125v680q0 86 -52 116.5t-159 32.5v64q125 -6 254 -6q20 0 230 6v-64q-45 0 -76 -5t-65.5 -18.5 t-52 -45t-17.5 -80.5v-684q0 -88 -4 -115q-25 -180 -152 -306t-303 -126q-205 0 -361.5 144.5t-156.5 379.5v762q0 61 -34 77.5t-159 16.5h-18zM555 1565q311 193 326 198q8 2 20 2q29 0 48.5 -24.5t19.5 -50.5q0 -16 -8.5 -30.5t-20.5 -23t-23.5 -13.5t-23.5 -9l-12 -2 l-303 -94zM897 1565q82 51 186 116q100 61 121 72.5t37 11.5q29 0 49.5 -24.5t20.5 -50.5q0 -16 -8.5 -30.5t-20.5 -23t-23.5 -13.5t-23.5 -9l-12 -2q-291 -90 -305 -94z" />
<glyph unicode="&#x171;" horiz-adv-x="1193" d="M31 606q0 43 9 90t29.5 96.5t62.5 81t97 31.5q90 0 151.5 -66.5t61.5 -152.5q0 -33 -15 -85t-15 -105v-27q0 -61 6 -122.5t23.5 -141.5t58.5 -130t102 -50q78 0 128 65.5t50 134.5v551q0 41 6 60q16 45 66 45q72 0 72 -99v-553q0 -113 29.5 -158.5t68.5 -45.5 q37 0 57.5 35.5t24.5 74.5t5 91.5t1 58.5q2 20 18.5 25t26.5 -7q6 -8 6 -45q0 -141 -30.5 -211t-112.5 -70q-141 0 -213 138h-2q-70 -137 -209 -138q-57 0 -107.5 19.5t-103.5 71t-84 160t-31 266.5q0 59 16.5 116.5t16.5 108.5q0 139 -78 139q-51 0 -92 -55t-47 -182 q-2 -53 -27 -54q-10 0 -18 11.5t-8 27.5zM354 1044q57 55 135 134q102 100 125 118.5t45 18.5q29 0 50.5 -23.5t21.5 -52.5q0 -31 -28.5 -52.5t-172.5 -101.5q-88 -49 -145 -81zM694 1044q254 246 267 256q18 14 40 15q29 0 50.5 -23.5t21.5 -52.5q0 -31 -28.5 -52.5 t-172.5 -101.5q-88 -49 -145 -81h-2z" />
<glyph unicode="&#x178;" horiz-adv-x="1648" d="M80 1335v64q166 -6 258 -6q156 0 309 6v-64h-10q-127 0 -127 -49q0 -20 18 -51l320 -520q20 -33 41 -70h2l336 549q23 37 22 61q0 74 -116 80v64q121 -6 239 -6q80 0 197 6v-64q-82 0 -140.5 -27.5t-84 -57t-58.5 -83.5l-354 -575q-18 -33 -19 -66v-368q0 -63 33 -79 t158 -16h18v-63q-264 6 -291 6q-154 0 -307 -6v63h23q125 0 156.5 15.5t31.5 79.5v374q0 29 -20 62l-398 647q-27 45 -44 60.5t-59 24.5t-132 9h-2zM518 1610q0 41 31 73.5t76 32.5t76.5 -29.5t31.5 -76.5q0 -45 -33.5 -77t-74.5 -32q-45 0 -76 33t-31 76zM915 1610 q0 47 32 76.5t75 29.5q47 0 77.5 -32.5t30.5 -75.5q0 -41 -30.5 -74t-75.5 -33t-77 31t-32 78z" />
<glyph unicode="&#x179;" horiz-adv-x="1366" d="M170 35q0 16 25 55l788 1245h-307q-125 0 -208 -25.5t-128 -80.5t-64.5 -123t-25.5 -168h-51l22 461h918q53 0 53 -33q0 -23 -16 -43l-795 -1255h299q150 0 241 25.5t140 91t66.5 143.5t25.5 219h51l-35 -547h-952q-47 0 -47 35zM528 1565q82 51 187 116 q100 61 120.5 72.5t36.5 11.5q27 0 48.5 -23.5t21.5 -51.5q0 -16 -8 -30.5t-20.5 -23t-23.5 -13.5t-24 -9l-12 -2q-291 -90 -305 -94z" />
<glyph unicode="&#x17a;" horiz-adv-x="909" d="M143 682q0 80 55.5 150.5t139.5 70.5q63 0 149 -75.5t134 -75.5q43 0 70.5 37.5t44 75.5t32.5 38q20 0 20 -22.5t-14 -51.5q-47 -113 -136 -225t-194.5 -231t-162.5 -207q35 10 63 10q49 0 139 -27.5t140 -27.5q72 0 130 40t70 118q6 33 27 32q25 0 24 -35 q0 -104 -67.5 -201.5t-179.5 -97.5q-55 0 -105.5 38t-95.5 76t-88 38q-84 0 -133 -115q-16 -35 -35 -34q-23 0 -23 20q0 23 15 51q47 111 132 220.5t191.5 226t165.5 209.5q-12 -2 -33 -2q-51 0 -142 28.5t-138 28.5q-59 0 -96 -24.5t-45 -49.5l-7 -26q-6 -12 -22 -13 q-25 0 -25 33zM324 1044q47 47 118 117q115 113 139.5 133.5t49.5 20.5q29 0 50 -23.5t21 -52.5q0 -31 -28.5 -52.5t-171.5 -101.5q-88 -49 -146 -81h-2z" />
<glyph unicode="&#x17b;" horiz-adv-x="1366" d="M170 35q0 16 25 55l788 1245h-307q-125 0 -208 -25.5t-128 -80.5t-64.5 -123t-25.5 -168h-51l22 461h918q53 0 53 -33q0 -23 -16 -43l-795 -1255h299q150 0 241 25.5t140 91t66.5 143.5t25.5 219h51l-35 -547h-952q-47 0 -47 35zM631 1678q0 47 32 77.5t75 30.5 q41 0 74.5 -31.5t33.5 -77t-33.5 -76t-74.5 -30.5q-47 0 -77 32t-30 75z" />
<glyph unicode="&#x17c;" horiz-adv-x="909" d="M143 682q0 80 55.5 150.5t139.5 70.5q63 0 149 -75.5t134 -75.5q43 0 70.5 37.5t44 75.5t32.5 38q20 0 20 -22.5t-14 -51.5q-47 -113 -136 -225t-194.5 -231t-162.5 -207q35 10 63 10q49 0 139 -27.5t140 -27.5q72 0 130 40t70 118q6 33 27 32q25 0 24 -35 q0 -104 -67.5 -201.5t-179.5 -97.5q-55 0 -105.5 38t-95.5 76t-88 38q-84 0 -133 -115q-16 -35 -35 -34q-23 0 -23 20q0 23 15 51q47 111 132 220.5t191.5 226t165.5 209.5q-12 -2 -33 -2q-51 0 -142 28.5t-138 28.5q-59 0 -96 -24.5t-45 -49.5l-7 -26q-6 -12 -22 -13 q-25 0 -25 33zM387 1259.5q0 36.5 27.5 65.5t66.5 29q41 0 67.5 -29t26.5 -65q0 -35 -27.5 -64t-66.5 -29q-41 0 -67.5 28t-26.5 64.5z" />
<glyph unicode="&#x17d;" horiz-adv-x="1366" d="M170 35q0 16 25 55l788 1245h-307q-125 0 -208 -25.5t-128 -80.5t-64.5 -123t-25.5 -168h-51l22 461h918q53 0 53 -33q0 -23 -16 -43l-795 -1255h299q150 0 241 25.5t140 91t66.5 143.5t25.5 219h51l-35 -547h-952q-47 0 -47 35zM348 1882v2l25 33q276 -164 289 -164 q8 0 286 164l25 -33v-2l-311 -264h-3z" />
<glyph unicode="&#x17e;" horiz-adv-x="909" d="M143 682q0 80 55.5 150.5t139.5 70.5q63 0 149 -75.5t134 -75.5q43 0 70.5 37.5t44 75.5t32.5 38q20 0 20 -22.5t-14 -51.5q-47 -113 -136 -225t-194.5 -231t-162.5 -207q35 10 63 10q49 0 139 -27.5t140 -27.5q72 0 130 40t70 118q6 33 27 32q25 0 24 -35 q0 -104 -67.5 -201.5t-179.5 -97.5q-55 0 -105.5 38t-95.5 76t-88 38q-84 0 -133 -115q-16 -35 -35 -34q-23 0 -23 20q0 23 15 51q47 111 132 220.5t191.5 226t165.5 209.5q-12 -2 -33 -2q-51 0 -142 28.5t-138 28.5q-59 0 -96 -24.5t-45 -49.5l-7 -26q-6 -12 -22 -13 q-25 0 -25 33zM168 1290v4l25 31l286 -195h2l287 195l25 -31v-4l-312 -301h-2z" />
<glyph unicode="&#x192;" horiz-adv-x="681" d="M16 -248q0 43 28 69.5t67 26.5t66.5 -26.5t27.5 -65.5q0 -78 -88 -94v-2q57 -35 104 -35q86 0 86 164q0 74 -14 332t-31 477l-14 221h-176v62h174q-14 213 -15 260q0 111 23 170q18 53 67.5 93t116.5 40q84 0 148.5 -49t64.5 -125q0 -43 -28.5 -69.5t-65.5 -26.5 t-64.5 26.5t-27.5 67.5q0 78 86 96q-70 35 -105 35q-29 0 -45 -15q-35 -27 -34 -102q0 -35 4 -116t10 -171t8 -114h213v-62h-209q4 -88 16.5 -267t19.5 -313.5t7 -220.5q0 -438 -213 -438q-78 0 -142.5 48t-64.5 124z" />
<glyph unicode="&#x218;" horiz-adv-x="1251" d="M170 10v414q0 41 25 41q23 0 26 -31q10 -188 115 -293q123 -123 336 -123q125 0 203.5 88.5t78.5 208.5q0 94 -48 169t-128 108q-27 10 -169 45t-173 45q-111 39 -188.5 138.5t-77.5 232.5q0 164 116.5 277.5t284.5 113.5q88 0 164 -32t100.5 -53.5t59.5 -58.5 q80 129 90 138q6 4 12 4q25 0 25 -53v-418q0 -35 -27 -35q-20 0 -24 25.5t-16.5 88t-43.5 126.5q-104 211 -338 210q-123 0 -201.5 -81.5t-78.5 -188.5q0 -92 53 -159.5t131 -96.5q25 -8 173.5 -44t191.5 -56q98 -45 166.5 -147.5t68.5 -237.5q0 -172 -113.5 -296 t-291.5 -124q-223 0 -375 143q-80 -141 -102 -141q-2 0 -4.5 1t-4.5 1q-16 6 -16 51zM541 -305q0 31 21.5 53.5t53.5 22.5q90 0 91 -148q0 -74 -28 -141.5t-57.5 -102t-43.5 -34.5q-8 0 -11.5 5t-0.5 13t12 17q96 109 96 245v21q-31 -27 -58 -27q-33 0 -54 21.5t-21 54.5z " />
<glyph unicode="&#x219;" horiz-adv-x="909" d="M113 217q0 45 26.5 70.5t67.5 25.5t67.5 -25.5t26.5 -66.5q0 -33 -23.5 -63.5t-78.5 -30.5h-4q94 -104 262 -104q141 0 195.5 59t54.5 131q0 51 -35 98t-97 72q-35 14 -113.5 29.5t-94.5 19.5q-76 20 -136.5 79.5t-60.5 154.5q0 92 65.5 165.5t215.5 73.5 q123 0 203.5 -61.5t80.5 -149.5q0 -43 -24.5 -63.5t-51.5 -20.5q-31 0 -53 22.5t-22 55.5q0 70 78 76q-76 94 -211 94q-92 0 -143.5 -43t-51.5 -104q0 -49 34 -92.5t93 -61.5q18 -4 90 -18.5t88 -18.5q92 -25 162 -93.5t70 -172.5q0 -106 -77 -191.5t-259 -85.5 q-145 0 -244.5 67t-99.5 173zM371 -283q0 31 21.5 53.5t53.5 22.5q90 0 91 -148q0 -74 -28 -141.5t-57.5 -102t-43.5 -34.5q-8 0 -11.5 5t-0.5 13t12 17q96 109 96 245v21q-31 -27 -58 -27q-33 0 -54 21.5t-21 54.5z" />
<glyph unicode="&#x21a;" horiz-adv-x="1593" d="M129 926l41 460h1249l39 -460h-51q-8 86 -14.5 132t-20.5 99t-34.5 79t-56.5 49.5t-87 31.5t-123 8h-82q-57 0 -80.5 -13.5t-23.5 -64.5v-1087q0 -63 46 -80t208 -17h43v-63q-219 6 -363 6q-205 0 -413 -6v63h45q160 0 205.5 16.5t45.5 80.5v1087q0 51 -22.5 64.5 t-81.5 13.5h-80q-88 0 -145.5 -16.5t-92 -41t-55 -82t-29 -108.5t-16.5 -151h-51zM711 -260q0 31 21.5 53.5t53.5 22.5q90 0 91 -148q0 -74 -28 -141.5t-57.5 -102t-43.5 -34.5q-8 0 -11.5 5t-0.5 13t12 17q96 109 96 245v21q-31 -27 -58 -27q-33 0 -54 21.5t-21 54.5z" />
<glyph unicode="&#x21b;" horiz-adv-x="739" d="M-27 819v62h240v311q0 90 71.5 90t71.5 -92v-309h242v-62h-242v-567q0 -227 105 -227q18 0 40.5 8t52.5 29.5t56.5 72.5t40.5 125q10 41 19 47q12 8 24.5 1t12.5 -25q0 -16 -11.5 -58.5t-36 -102t-79 -102.5t-125.5 -43q-33 0 -69 11.5t-78 38t-68.5 83t-26.5 136.5v573 h-240zM256 -283q0 31 21.5 53.5t53.5 22.5q90 0 91 -148q0 -74 -28 -141.5t-57.5 -102t-43.5 -34.5q-8 0 -11.5 5t-0.5 13t12 17q96 109 96 245v21q-31 -27 -58 -27q-33 0 -54 21.5t-21 54.5z" />
<glyph unicode="&#x2c6;" horiz-adv-x="1024" d="M238 1024l272 307h2l274 -307l-36 -35h-2l-236 234h-2l-234 -234h-2z" />
<glyph unicode="&#x2c7;" horiz-adv-x="1024" d="M197 1290v4l26 31l287 -195l287 195l26 -31v-4l-313 -301z" />
<glyph unicode="&#x2d8;" d="M260 1309h47q6 -96 83 -148.5t177 -52.5q94 0 174 51t86 150h47q-4 -129 -96 -204t-210.5 -75t-211 76t-96.5 203z" />
<glyph unicode="&#x2d9;" horiz-adv-x="681" d="M260 1260q0 47 32 77.5t75 30.5q41 0 74.5 -31.5t33.5 -77t-33.5 -76t-74.5 -30.5q-47 0 -77 32t-30 75z" />
<glyph unicode="&#x2da;" horiz-adv-x="1648" d="M627 1188q0 66 55 116t141 50q74 0 134.5 -45t60.5 -121q0 -70 -58.5 -117t-136.5 -47q-74 0 -135 45t-61 119zM678 1188q0 -27 8 -50.5t42 -46t91 -22.5q147 0 147.5 119t-141.5 119q-147 0 -147 -119z" />
<glyph unicode="&#x2db;" horiz-adv-x="681" d="M80 -262q0 70 60.5 118t155.5 96t136 85l21 -37q-18 -18 -86 -70.5t-103 -92.5t-35 -79q0 -31 29 -52t66 -21q90 0 155 106l39 -24q-45 -80 -111.5 -126.5t-142.5 -46.5q-84 0 -134 47.5t-50 96.5z" />
<glyph unicode="&#x2dc;" d="M225 1206q4 4 20.5 23.5t21.5 25t19.5 21.5t21.5 22.5t20.5 18.5t21.5 17t22.5 13.5t25 11.5t23.5 6t25 3q49 0 131 -49t132 -49q76 0 163 98h2l33 -31q-49 -59 -71.5 -82.5t-65.5 -51t-84 -27.5q-47 0 -131 48t-131 48q-78 0 -164 -96z" />
<glyph unicode="&#x2dd;" d="M326 1044q47 47 118 117q115 113 139.5 133.5t49.5 20.5q29 0 50.5 -23.5t21.5 -52.5q0 -31 -29 -52.5t-172 -101.5q-88 -49 -146 -81h-2zM668 1044q66 63 153 150q90 88 109.5 104.5t42.5 16.5q29 0 50 -23.5t21 -52.5q0 -31 -28.5 -52.5t-171.5 -101.5 q-88 -49 -146 -81h-2z" />
<glyph unicode="&#x374;" horiz-adv-x="397" d="M100 993q55 317 74 378t72 61q29 0 54.5 -21.5t25.5 -52.5q0 -23 -15.5 -53.5t-115.5 -206.5q-39 -70 -64 -113z" />
<glyph unicode="&#x375;" horiz-adv-x="397" d="M47 -367q0 25 18.5 51.5t135.5 174.5q72 90 118 149l27 -14q-12 -39 -125 -328q-12 -33 -20 -49t-28.5 -36.5t-47.5 -20.5q-29 0 -53.5 20t-24.5 53z" />
<glyph unicode="&#x37a;" horiz-adv-x="227" d="M35 -209q0 115 78 115q27 0 48 -18.5t27 -51.5q2 -10 2 -63v-111q0 -80 43 -80q18 0 37 30t29 30q23 0 23 -31q0 -41 -39 -81t-101 -40q-31 0 -59.5 9t-58 51t-29.5 112v129z" />
<glyph unicode="&#x37e;" horiz-adv-x="569" d="M176 111q0 41 30 73.5t75 32.5q47 0 82.5 -47t35.5 -164q0 -137 -63.5 -264t-104.5 -127q-12 0 -14 13.5t8 29.5q2 4 21.5 29.5t34 51t32 65.5t27.5 96.5t12 119.5q-41 -18 -69 -18q-45 0 -76 33t-31 76zM176 772q0 41 32 74t75 33t75.5 -32t32.5 -77q0 -41 -31.5 -73.5 t-74.5 -32.5t-76 31.5t-33 76.5z" />
<glyph unicode="&#x384;" horiz-adv-x="342" d="M55 993q72 377 76 387q20 51 70 52q29 0 54.5 -21.5t25.5 -52.5q0 -23 -17.5 -58.5t-74 -133t-103.5 -183.5z" />
<glyph unicode="&#x385;" horiz-adv-x="569" d="M-29 1069q0 31 23.5 54.5t54.5 23.5t54.5 -23.5t23.5 -54.5t-23.5 -54.5t-54.5 -23.5t-54.5 23.5t-23.5 54.5zM227 993q0 4 15.5 92.5t35 184.5t25.5 112q20 49 68 50q31 0 55.5 -21.5t24.5 -54.5q0 -29 -56 -127q-10 -18 -37 -64q-59 -104 -102 -182zM440 1069 q0 31 23.5 54.5t54.5 23.5t54.5 -22.5t23.5 -55.5q0 -31 -23.5 -54.5t-54.5 -23.5t-54.5 23.5t-23.5 54.5z" />
<glyph unicode="&#x386;" horiz-adv-x="1536" d="M55 993q72 377 76 387q20 51 70 52q29 0 54.5 -21.5t25.5 -52.5q0 -23 -17.5 -58.5t-74 -133t-103.5 -183.5zM66 0v66q119 4 164.5 45t82.5 147l394 1137q23 66 59 65q39 0 61 -65l410 -1188q35 -98 68.5 -119.5t158.5 -21.5h4v-66l-229 6l-336 -6v66q164 0 164 69 q0 14 -21.5 77.5t-49 143.5t-35.5 109h-506q-18 -53 -38 -111.5t-30 -87t-17.5 -54.5t-7.5 -40q0 -20 8.5 -38.5t44.5 -41t95 -26.5v-66l-258 6zM477 530h459l-227 662z" />
<glyph unicode="&#x387;" horiz-adv-x="569" d="M176 772q0 41 32 74t75 33t75.5 -32t32.5 -77q0 -41 -31.5 -73.5t-74.5 -32.5t-76 31.5t-33 76.5z" />
<glyph unicode="&#x388;" horiz-adv-x="1734" d="M55 993q72 377 76 387q20 51 70 52q29 0 54.5 -21.5t25.5 -52.5q0 -23 -17.5 -58.5t-74 -133t-103.5 -183.5zM408 0v66h28q113 0 147.5 18t34.5 88v1049q0 68 -34.5 87t-141.5 19h-34v66l323 -7l203 7h629l57 -463h-53q-10 72 -16.5 110.5t-24 93t-42 84t-67.5 57.5 t-102.5 40t-181.5 12h-173q-113 0 -135 -16.5t-22 -106.5v-448h149q102 0 153.5 16t78.5 68q23 47 22 155h54v-544h-54v12q0 45 -3 69.5t-15 63.5t-45 60.5t-86 29.5q-35 4 -103 4h-151v-538q2 -61 29.5 -73.5t134.5 -12.5h174q86 0 141 6t116.5 28.5t104.5 72.5t70 130 q25 72 49 227h53l-86 -530h-653l-205 6z" />
<glyph unicode="&#x389;" horiz-adv-x="1878" d="M55 993q72 377 76 387q20 51 70 52q29 0 54.5 -21.5t25.5 -52.5q0 -23 -17.5 -58.5t-74 -133t-103.5 -183.5zM408 0v66h34q109 0 142.5 19t33.5 87v1055q0 68 -34.5 87t-143.5 19h-32v66l260 -6l346 6v-66h-19q-135 0 -163.5 -22.5t-28.5 -112.5v-438h612v457 q0 78 -33.5 97t-158.5 19h-19v66l346 -6l260 6v-66h-34q-106 0 -141.5 -19.5t-35.5 -86.5v-1055q0 -68 36 -87t147 -19h28v-66l-346 6l-260 -6v66h21q135 0 162.5 23.5t27.5 119.5v485h-612v-530q2 -63 38 -80.5t152 -17.5h21v-66l-346 6z" />
<glyph unicode="&#x38a;" horiz-adv-x="1081" d="M55 993q72 377 76 387q20 51 70 52q29 0 54.5 -21.5t25.5 -52.5q0 -23 -17.5 -58.5t-74 -133t-103.5 -183.5zM399 0v66h31q115 0 151.5 19t36.5 89v1051q0 70 -35.5 89t-148.5 19h-35v66l265 -6l358 6v-66h-35q-113 0 -148.5 -19.5t-35.5 -88.5v-1051q0 -70 35.5 -89 t152.5 -19h31v-66l-358 6z" />
<glyph unicode="&#x38c;" horiz-adv-x="1763" d="M55 993q72 377 76 387q20 51 70 52q29 0 54.5 -21.5t25.5 -52.5q0 -23 -17.5 -58.5t-74 -133t-103.5 -183.5zM283 694.5q0 315.5 202.5 532.5t479.5 217q279 0 481.5 -217t202.5 -533q0 -317 -204 -528t-478 -211q-276 0 -480 212t-204 527.5zM496 721q0 -193 46 -338 t119.5 -222t150.5 -114t155 -37q76 0 152.5 37t150.5 115t120 224t46 339q0 180 -46 317.5t-120 209t-151 105.5t-154.5 34t-154.5 -34t-149.5 -106.5t-118.5 -210t-46 -319.5z" />
<glyph unicode="&#x38e;" horiz-adv-x="1763" d="M55 993q72 377 76 387q20 51 70 52q29 0 54.5 -21.5t25.5 -52.5q0 -23 -17.5 -58.5t-74 -133t-103.5 -183.5zM362 1333v66l226 -6l340 6v-66q-141 0 -142 -57q0 -20 53.5 -118.5t140.5 -254t134 -250.5h4l275 506q33 57 32 86q0 76 -120 88v66l258 -6l178 6v-66 q-82 -2 -137.5 -29.5t-80 -58.5t-57.5 -90l-284 -522q-29 -53 -35 -72.5t-6 -60.5v-324q0 -74 35.5 -92t160.5 -18h15v-66l-342 6l-258 -6v66h22q117 0 153 18t36 90v324q0 20 -2.5 36.5t-7.5 33t-7 22.5t-12 24.5t-12 20.5l-318 579q-33 57 -50 77t-59.5 31t-132.5 11z" />
<glyph unicode="&#x38f;" horiz-adv-x="1648" d="M55 993q72 377 76 387q20 51 70 52q29 0 54.5 -21.5t25.5 -52.5q0 -23 -17.5 -58.5t-74 -133t-103.5 -183.5zM260 334h53q31 -135 45 -158q27 -37 121 -41h51h170q-33 98 -106.5 207t-140 186.5t-118.5 186t-52 217.5q0 207 180 359.5t444 152.5t445.5 -151.5 t181.5 -360.5q0 -109 -52 -217.5t-119 -186t-140.5 -186.5t-106.5 -207h170q127 0 155.5 23.5t55.5 146.5q4 18 6 29h53l-67 -334h-356q-45 0 -61.5 10t-16.5 49q0 88 42 207t91 218.5t91 223t42 222.5q0 221 -125 344t-287 123h-2q-162 0 -286.5 -124t-124.5 -337 q0 -129 66.5 -292t133 -317.5t66.5 -267.5q0 -39 -16.5 -49t-65.5 -10h-352z" />
<glyph unicode="&#x390;" horiz-adv-x="512" d="M-139 1069q0 29 23.5 53.5t54 24.5t54 -22.5t23.5 -55.5q0 -31 -22.5 -54.5t-53 -23.5t-55 23.5t-24.5 54.5zM84 262v619h156l-29 -629q0 -4 -1 -13.5t-1 -15.5q0 -78 30.5 -111.5t63.5 -33.5q51 0 78 80t35 86q12 8 21 0t9 -25q0 -12 -9 -46t-27.5 -80t-56.5 -79.5 t-85 -33.5q-82 0 -128 64.5t-54 141.5q-2 25 -2 76zM117 993q53 309 73.5 374t71.5 65q35 0 56.5 -23t21.5 -51q0 -25 -22.5 -68t-170.5 -305zM332 1069q0 31 23.5 54.5t54 23.5t54 -23.5t23.5 -54.5t-23.5 -54.5t-54 -23.5t-54 22.5t-23.5 55.5z" />
<glyph unicode="&#x391;" horiz-adv-x="1536" d="M66 0v66q119 4 164.5 45t82.5 147l394 1137q23 66 59 65q39 0 61 -65l410 -1188q35 -98 68.5 -119.5t158.5 -21.5h4v-66l-229 6l-336 -6v66q164 0 164 69q0 14 -21.5 77.5t-49 143.5t-35.5 109h-506q-18 -53 -38 -111.5t-30 -87t-17.5 -54.5t-7.5 -40q0 -20 8.5 -38.5 t44.5 -41t95 -26.5v-66l-258 6zM477 530h459l-227 662z" />
<glyph unicode="&#x392;" horiz-adv-x="1449" d="M72 0v66h34q109 0 143 19t34 87v1055q0 68 -35 87t-144 19h-32v66q223 -6 299 -6q35 0 114.5 3t132.5 3h164q176 0 291 -58q94 -47 148.5 -124.5t54.5 -163.5q0 -115 -93 -204t-243 -116v-4q170 -16 281.5 -117.5t111.5 -238.5t-110.5 -242.5t-276.5 -126.5 q-37 -4 -110 -4h-205q-59 0 -137 3t-117 3q-78 0 -305 -6zM455 152q2 -57 27.5 -71.5t95.5 -14.5h217q180 0 272 124q59 82 59 189q0 117 -66.5 211t-178.5 110q-27 4 -78 5h-348v-553zM455 752h282q96 0 166 31.5t105.5 80.5t51 97.5t15.5 91.5q0 98 -56 175t-142 97 q-31 8 -97 8h-184q-88 0 -114.5 -12t-26.5 -72v-497z" />
<glyph unicode="&#x393;" horiz-adv-x="1280" d="M66 0v66h28q113 0 147.5 18t34.5 88v1049q0 68 -34.5 87t-141.5 19h-34v66l323 -7l201 7h545l57 -463h-53q-8 57 -11.5 78.5t-13.5 70.5t-20.5 70.5t-30 57.5t-44 53.5t-61 35t-81.5 23.5q-63 8 -142 8h-129q-92 0 -118.5 -14.5t-26.5 -75.5v-1061q0 -72 40 -91t179 -19 h43v-66l-399 6z" />
<glyph unicode="&#x394;" horiz-adv-x="1705" d="M104 27q0 16 31 75l635 1276q20 43 37.5 63.5t44.5 20.5q29 0 50.5 -30.5t74.5 -139.5q25 -49 39 -80l565 -1136q18 -43 18 -49q0 -27 -53 -27h-1378q-64 0 -64 27zM238 158h1095l-547 1102z" />
<glyph unicode="&#x395;" horiz-adv-x="1392" d="M66 0v66h28q113 0 147.5 18t34.5 88v1049q0 68 -34.5 87t-141.5 19h-34v66l323 -7l203 7h629l57 -463h-53q-10 72 -16.5 110.5t-24 93t-42 84t-67.5 57.5t-102.5 40t-181.5 12h-173q-113 0 -135 -16.5t-22 -106.5v-448h149q102 0 153.5 16t78.5 68q23 47 22 155h54v-544 h-54v12q0 45 -3 69.5t-15 63.5t-45 60.5t-86 29.5q-35 4 -103 4h-151v-538q2 -61 29.5 -73.5t134.5 -12.5h174q86 0 141 6t116.5 28.5t104.5 72.5t70 130q25 72 49 227h53l-86 -530h-653l-205 6z" />
<glyph unicode="&#x396;" horiz-adv-x="1251" d="M117 39q0 23 33 74l774 1220h-267q-113 0 -181 -11t-136 -50t-102.5 -121t-42.5 -215h-54l23 463h895q72 0 71 -37q0 -18 -13 -44t-70 -114q-55 -86 -95 -147l-626 -985h319q307 0 393 178q39 78 56 299h53l-35 -549h-934q-61 0 -61 39z" />
<glyph unicode="&#x397;" horiz-adv-x="1536" d="M66 0v66h34q109 0 142.5 19t33.5 87v1055q0 68 -34.5 87t-143.5 19h-32v66l260 -6l346 6v-66h-19q-135 0 -163.5 -22.5t-28.5 -112.5v-438h612v457q0 78 -33.5 97t-158.5 19h-19v66l346 -6l260 6v-66h-34q-106 0 -141.5 -19.5t-35.5 -86.5v-1055q0 -68 36 -87t147 -19h28 v-66l-346 6l-260 -6v66h21q135 0 162.5 23.5t27.5 119.5v485h-612v-530q2 -63 38 -80.5t152 -17.5h21v-66l-346 6z" />
<glyph unicode="&#x398;" horiz-adv-x="1593" d="M113 694.5q0 315.5 202.5 532.5t479.5 217q279 0 481.5 -217t202.5 -533q0 -317 -204 -528t-478 -211q-276 0 -480 212t-204 527.5zM313 692q0 -184 47.5 -324.5t123 -216t155.5 -111.5t157.5 -36t156.5 36t155 111.5t123 217t47 329.5q0 186 -47 328.5t-123 219.5 t-156 114t-157 37q-61 0 -124 -21.5t-128.5 -74t-115.5 -130t-82 -201.5t-32 -278zM485 553v297h54v-70h514v70h53v-297h-53v70h-514v-70h-54z" />
<glyph unicode="&#x399;" horiz-adv-x="739" d="M57 0v66h31q115 0 151.5 19t36.5 89v1051q0 70 -35.5 89t-148.5 19h-35v66l265 -6l358 6v-66h-35q-113 0 -148.5 -19.5t-35.5 -88.5v-1051q0 -70 35.5 -89t152.5 -19h31v-66l-358 6z" />
<glyph unicode="&#x39a;" horiz-adv-x="1593" d="M66 0v66h34q106 0 141 19t35 87v1055q0 68 -34.5 87t-143.5 19h-32v66l260 -6l346 6v-66h-25q-119 0 -152.5 -19.5t-33.5 -84.5v-637l614 586q53 53 53 86q0 12 -4 22t-11 17.5t-15 12.5t-18.5 8t-16.5 5t-14 2l-7 2v66l293 -6l144 6v-66q-72 -4 -126.5 -21.5 t-111.5 -61.5t-103 -88t-138.5 -134t-180.5 -168l461 -682q53 -76 97 -94t130 -18v-66l-200 6l-330 -6v66q92 6 108 40q4 12 5 25q0 29 -37 84q-330 485 -355 526q-199 -188 -213 -206q-23 -29 -24 -76v-285q0 -72 35.5 -90t156.5 -18h19v-66l-346 6z" />
<glyph unicode="&#x39b;" horiz-adv-x="1421" d="M66 0v66q106 6 147 48t72 136l368 1147q20 63 55 63t58 -63l399 -1239q23 -61 57.5 -76.5t131.5 -15.5v-66l-285 6l-264 -6v66h14q154 0 154 69q0 20 -21 78l-266 834l-37 116h-2l-301 -938q-10 -27 -10 -51q0 -37 35 -69.5t118 -38.5v-66l-249 6z" />
<glyph unicode="&#x39c;" horiz-adv-x="1875" d="M74 0v66q37 0 60.5 2t55 12t50 26.5t32 47t13.5 75.5v998q0 68 -35 87t-144 19h-32v66h313q66 0 82 -13.5t47 -91.5l422 -1085l49 129l371 956q33 82 50 93.5t118 11.5h274v-66h-35q-106 0 -141 -19.5t-35 -86.5v-1055q0 -68 36 -87t147 -19h28v-66l-256 6l-334 -6v66h29 q115 0 148.5 19t33.5 93v1157h-2q-29 -82 -57 -151l-428 -1104l-4 -10q-4 -12 -6 -17.5t-8.5 -14.5t-10.5 -14.5t-11 -9.5t-15 -4q-27 0 -54 70l-424 1096q-51 129 -55 143h-2v-1096q2 -90 54.5 -122.5t156.5 -34.5v-66l-223 6z" />
<glyph unicode="&#x39d;" horiz-adv-x="1536" d="M66 0v66q45 2 71.5 5t64.5 17t56 48t18 87v1098q-47 8 -210 12v66h333q45 0 61.5 -14.5t67.5 -88.5l670 -983v852q0 76 -31 111q-47 53 -180 57v66l219 -6l262 6v-66h-6q-68 0 -111.5 -15t-62 -43t-25 -51.5t-6.5 -56.5v-1093q0 -66 -30 -66q-20 0 -60 51l-731 1074 q-66 98 -100 145v-1057q2 -90 55 -121.5t156 -33.5v-66l-223 6z" />
<glyph unicode="&#x39e;" horiz-adv-x="1366" d="M86 344h53l13 -131l14 -53l115 -13l110 -2h582l110 2l115 13l14 53l13 131h53l-16 -344h-1160zM96 1065l17 321h1138l17 -321h-54q-8 119 -22 141q-23 33 -131 35h-55h-654q-143 0 -168.5 -22.5t-33.5 -153.5h-54zM285 545v354h53v-104h688v104h53v-354h-53v104h-688 v-104h-53z" />
<glyph unicode="&#x39f;" horiz-adv-x="1593" d="M113 694.5q0 315.5 202.5 532.5t479.5 217q279 0 481.5 -217t202.5 -533q0 -317 -204 -528t-478 -211q-276 0 -480 212t-204 527.5zM326 721q0 -193 46 -338t119.5 -222t150.5 -114t155 -37q76 0 152.5 37t150.5 115t120 224t46 339q0 180 -46 317.5t-120 209t-151 105.5 t-154.5 34t-154.5 -34t-149.5 -106.5t-118.5 -210t-46 -319.5z" />
<glyph unicode="&#x3a0;" horiz-adv-x="1536" d="M66 0v66h28q113 0 147.5 18t34.5 88v1049q0 68 -34.5 87t-141.5 19h-34v66l278 -7l244 7h358l244 -7l278 7v-66h-34q-106 0 -141.5 -19.5t-35.5 -86.5v-1049q0 -70 35 -88t148 -18h28v-66l-346 6l-260 -6v66h29q115 0 148.5 19t33.5 93v1149h-612v-1151q0 -72 35.5 -91 t146.5 -19h29v-66l-346 6z" />
<glyph unicode="&#x3a1;" horiz-adv-x="1392" d="M70 0v66h34q109 0 143 19t34 87v1055q0 68 -35 87t-144 19h-32v66q274 -6 303 -6q33 0 112.5 3t130.5 3h142q197 0 319 -72q84 -49 141.5 -130t57.5 -181q0 -145 -133 -258t-365 -113h-313v-457q0 -82 32.5 -102t159.5 -20h19v-66l-346 6zM459 700h250q115 0 189.5 25 t108 73t46 97t12.5 123q0 70 -10.5 118t-44 97t-107.5 74.5t-188 25.5h-113q-94 0 -118.5 -15t-24.5 -71v-547z" />
<glyph unicode="&#x3a3;" horiz-adv-x="1478" d="M119 1362q0 37 63 37h1125l57 -463h-53q-20 137 -53 215t-104 119t-156 52t-242 11h-408l395 -571q27 -41 27 -60q0 -25 -37 -67l-481 -547h528q137 0 225.5 15.5t118 29.5t72.5 45q35 47 51.5 74t33.5 84t30 149h53l-57 -485h-1112q-57 4 -68 18v21l20 31l476 538v6 q-49 66 -72 101l-377 545q-55 79 -55 102z" />
<glyph unicode="&#x3a4;" horiz-adv-x="1478" d="M74 924l39 462h413l213 -6l213 6h412l39 -462h-53q-20 205 -47 268q-53 113 -224 127q-29 2 -61 2h-64q-70 0 -96.5 -15.5t-26.5 -74.5v-1051q0 -76 44.5 -95t209.5 -19h43v-66l-456 6l-322 -6v66h43q166 0 210 18t44 96v1051q0 16 -2 28.5t-6 21.5t-8 15.5t-13.5 10.5 t-13.5 7t-18.5 4t-19.5 2t-22.5 1h-21.5h-63q-72 0 -123 -9t-87 -36t-56.5 -51.5t-34 -79.5t-18.5 -97t-13 -124h-53z" />
<glyph unicode="&#x3a5;" horiz-adv-x="1421" d="M20 1333v66l226 -6l340 6v-66q-141 0 -142 -57q0 -20 53.5 -118.5t140.5 -254t134 -250.5h4l275 506q33 57 32 86q0 76 -120 88v66l258 -6l178 6v-66q-82 -2 -137.5 -29.5t-80 -58.5t-57.5 -90l-284 -522q-29 -53 -35 -72.5t-6 -60.5v-324q0 -74 35.5 -92t160.5 -18h15 v-66l-342 6l-258 -6v66h22q117 0 153 18t36 90v324q0 20 -2.5 36.5t-7.5 33t-7 22.5t-12 24.5t-12 20.5l-318 579q-33 57 -50 77t-59.5 31t-132.5 11z" />
<glyph unicode="&#x3a6;" horiz-adv-x="1478" d="M113 698q0 160 150.5 279t383.5 143v101q-2 74 -39 93t-176 19h-47v66l291 -6l405 6v-66h-53q-127 0 -167 -18.5t-42 -93.5v-101q231 -18 387 -139t156 -281q0 -166 -160 -285.5t-383 -135.5v-101q2 -51 15.5 -72.5t56.5 -30.5t143 -9h47v-66l-405 6l-291 -6v66h53 q125 0 166 18t43 94v101q-270 33 -402 159.5t-132 259.5zM319 700q0 -86 24 -151.5t56.5 -103t81.5 -64.5t85 -36t81 -17v743q-57 -10 -102 -26.5t-102.5 -53.5t-90.5 -112t-33 -179zM819 326q63 10 109.5 26.5t105 54t91 111.5t32.5 178q0 86 -23.5 152.5t-55 103.5 t-83 63.5t-87.5 37t-87 20.5l-2 -115v-632z" />
<glyph unicode="&#x3a7;" horiz-adv-x="1536" d="M49 0v66q135 4 199.5 44t122.5 126q272 403 309 454q-16 29 -354 541q-47 72 -89 87t-151 15h-10v66l229 -6l338 6v-66q-123 -10 -123 -65q0 -16 103 -172q90 -137 161 -246q190 281 218 324t28 67q0 14 -6 29.5t-36 36t-79 26.5v66l291 -6l201 6v-66q-35 0 -64.5 -4 t-53 -8t-46.5 -15.5t-37 -16.5t-33.5 -23.5t-28 -24.5t-26.5 -30.5t-23.5 -32t-26 -37t-24.5 -37.5q-197 -289 -213 -311l113 -172l293 -443q49 -74 90 -93t166 -19v-66l-225 6l-342 -6v66q123 10 122 63q0 6 -2 11t-7 16.5t-12 24t-21.5 35t-31 46t-43 63.5t-53 80.5 t-67.5 102t-84 127.5q-287 -426 -297 -449q-6 -14 -6 -28t6 -29.5t35.5 -36t79.5 -26.5v-66l-293 6z" />
<glyph unicode="&#x3a8;" horiz-adv-x="1593" d="M125 1108q0 25 86 25h22q33 0 59.5 -6.5t45 -21.5t33 -28.5t25 -41t15.5 -44t8 -51.5t5 -49t3 -52t1 -46q4 -106 29.5 -190.5t52.5 -127.5t73 -78t64.5 -43t57.5 -22v878q0 82 -38 102.5t-196 20.5h-29v66l291 -6l406 6v-66h-29q-160 0 -196.5 -20.5t-36.5 -102.5v-878 q84 27 144 81t89 122.5t41 132t12 129.5v30q0 184 55.5 245t151.5 61h4q92 0 92 -25q0 -8 -10 -15.5t-25.5 -14.5t-17.5 -9q-45 -31 -61.5 -104.5t-14.5 -152.5t-26.5 -183.5t-98.5 -184.5q-113 -131 -335 -165v-101q2 -72 38.5 -92t176.5 -20h47v-66l-406 6l-291 -6v66h54 q125 0 165.5 18t43.5 94v101l-3 2q-115 14 -200.5 62t-129.5 104.5t-72 131t-35 120.5t-9 98q0 8 -2 39.5t-3 42t-3 37t-5 39t-8.5 33t-12.5 32.5t-18 25.5t-24 21.5q-4 4 -19.5 10t-25.5 14.5t-10 16.5z" />
<glyph unicode="&#x3a9;" horiz-adv-x="1478" d="M90 334h53q31 -135 45 -158q27 -37 121 -41h51h170q-33 98 -106.5 207t-140 186.5t-118.5 186t-52 217.5q0 207 180 359.5t444 152.5t445.5 -151.5t181.5 -360.5q0 -109 -52 -217.5t-119 -186t-140.5 -186.5t-106.5 -207h170q127 0 155.5 23.5t55.5 146.5q4 18 6 29h53 l-67 -334h-356q-45 0 -61.5 10t-16.5 49q0 88 42 207t91 218.5t91 223t42 222.5q0 221 -125 344t-287 123h-2q-162 0 -286.5 -124t-124.5 -337q0 -129 66.5 -292t133 -317.5t66.5 -267.5q0 -39 -16.5 -49t-65.5 -10h-352z" />
<glyph unicode="&#x3aa;" horiz-adv-x="739" d="M57 0v66h31q115 0 151.5 19t36.5 89v1051q0 70 -35.5 89t-148.5 19h-35v66l265 -6l358 6v-66h-35q-113 0 -148.5 -19.5t-35.5 -88.5v-1051q0 -70 35.5 -89t152.5 -19h31v-66l-358 6zM78 1597q0 41 31.5 74t74.5 33t76 -33t33 -74q0 -43 -32 -75.5t-75 -32.5t-75.5 32.5 t-32.5 75.5zM444 1597q0 41 32 74t75 33t75.5 -33t32.5 -74q0 -43 -31.5 -75.5t-74.5 -32.5t-76 32.5t-33 75.5z" />
<glyph unicode="&#x3ab;" horiz-adv-x="1421" d="M20 1333v66l226 -6l340 6v-66q-141 0 -142 -57q0 -20 53.5 -118.5t140.5 -254t134 -250.5h4l275 506q33 57 32 86q0 76 -120 88v66l258 -6l178 6v-66q-82 -2 -137.5 -29.5t-80 -58.5t-57.5 -90l-284 -522q-29 -53 -35 -72.5t-6 -60.5v-324q0 -74 35.5 -92t160.5 -18h15 v-66l-342 6l-258 -6v66h22q117 0 153 18t36 90v324q0 20 -2.5 36.5t-7.5 33t-7 22.5t-12 24.5t-12 20.5l-318 579q-33 57 -50 77t-59.5 31t-132.5 11zM399 1597q0 41 32 74t75 33t75.5 -32t32.5 -77q0 -41 -31.5 -73.5t-74.5 -32.5t-76 31.5t-33 76.5zM803 1597q0 41 32 74 t75 33t75.5 -32t32.5 -77q0 -41 -31.5 -73.5t-74.5 -32.5t-76 31.5t-33 76.5z" />
<glyph unicode="&#x3ac;" d="M86 444q0 186 102.5 321.5t253.5 135.5q53 0 94.5 -18.5t69 -53t40.5 -59.5t30 -63q-2 39 -2 98q0 92 65 92q68 0 68 -104v-60q-2 -123 -21.5 -251t-19.5 -160q0 -106 39 -152.5t88 -46.5q39 0 64.5 26.5t35.5 51.5q6 14 10.5 33.5t10.5 27.5t20 14q12 -35 13 -61 q0 -82 -50.5 -158.5t-138.5 -76.5q-137 0 -176 180q-25 -43 -36 -60.5t-42 -53.5t-70.5 -51t-91.5 -15q-152 0 -254 137t-102 327zM221 442q0 -217 66.5 -312t161.5 -95q96 0 148 80t67 198q8 61 8 152q0 96 -17.5 179t-71 149.5t-137.5 66.5q-88 0 -156.5 -93.5 t-68.5 -324.5zM463 993q59 350 84 400q18 39 61 39q31 0 54.5 -21.5t23.5 -54.5q0 -20 -11 -43t-100 -180q-49 -90 -81 -148z" />
<glyph unicode="&#x3ad;" horiz-adv-x="796" d="M59 231q0 150 224 234q-41 14 -68 25.5t-69 37t-64.5 62.5t-22.5 84q0 102 98.5 165.5t233.5 63.5q145 0 235.5 -87t90.5 -148q0 -23 -13.5 -39.5t-33.5 -16.5q-6 0 -11.5 1t-9.5 3t-7 6.5t-6 7.5t-6 10t-4 10t-4.5 11.5t-3.5 11.5t-3 12t-3 11q-23 68 -81 113t-132 45 q-78 0 -131 -54.5t-53 -123.5q0 -68 57.5 -122t114.5 -54q16 0 57 9t60 9q25 0 42 -15.5t17 -37.5q0 -49 -61 -49q-23 0 -59.5 8t-55.5 8q-59 0 -115.5 -58.5t-56.5 -140.5q0 -80 53.5 -140t137.5 -60q168 0 286 178q12 18 25 18q16 0 16 -24q0 -59 -95 -143.5t-243 -84.5 q-137 0 -236.5 71.5t-99.5 182.5zM340 993q57 346 84 400q20 39 61 39q29 0 53.5 -21.5t24.5 -54.5q0 -25 -20.5 -64t-171.5 -307z" />
<glyph unicode="&#x3ae;" horiz-adv-x="1058" d="M61 690q0 59 58.5 135t146.5 76q51 0 91 -23.5t63.5 -67.5t33 -67.5t21.5 -64.5q43 106 111.5 164.5t148.5 58.5q106 0 167 -100.5t69 -288.5v-111q2 -254 12 -441t18.5 -275t8.5 -111q0 -47 -23.5 -66.5t-50.5 -19.5q-80 0 -80 115v846q0 6 1 33.5t1 47.5 q0 305 -131 306q-86 0 -164 -105.5t-78 -290.5v-331q0 -115 -77.5 -115t-77.5 106v463q0 262 -92 262q-37 0 -59.5 -27.5t-31 -60t-21.5 -60.5t-32 -28q-12 0 -22.5 11.5t-10.5 29.5zM446 993q10 92 64 348q18 90 82 91q29 0 53.5 -21.5t24.5 -54.5q0 -20 -17.5 -55 t-103.5 -187q-45 -80 -74 -129z" />
<glyph unicode="&#x3af;" horiz-adv-x="512" d="M84 262v619h156l-29 -629q0 -4 -1 -13.5t-1 -15.5q0 -78 30.5 -111.5t63.5 -33.5q51 0 78 80t35 86q12 8 21 0t9 -25q0 -12 -9 -46t-27.5 -80t-56.5 -79.5t-85 -33.5q-82 0 -128 64.5t-54 141.5q-2 25 -2 76zM117 993q53 309 73.5 374t71.5 65q35 0 56.5 -23t21.5 -51 q0 -25 -22.5 -68t-170.5 -305z" />
<glyph unicode="&#x3b0;" horiz-adv-x="1024" d="M59 618q0 51 17.5 110.5t70 116t127.5 56.5q94 0 148.5 -76.5t66.5 -187.5q4 -35 5 -102v-216q0 -158 58 -222t126 -64q182 0 182 389q0 96 -26.5 170t-58.5 108.5t-58.5 69.5t-26.5 59q0 27 21.5 48.5t48.5 21.5q66 0 135.5 -147.5t69.5 -315.5q0 -197 -88.5 -328 t-227.5 -131q-45 0 -93 15.5t-100.5 51.5t-85 106.5t-32.5 166.5v222q0 256 -115 256q-16 0 -34.5 -7.5t-42 -43t-31.5 -97.5q0 -2 -1 -14t-2 -20.5t-4.5 -18.5t-9.5 -16.5t-14 -6.5q-25 0 -25 47zM195 1069q0 31 22.5 54.5t53 23.5t55 -23.5t24.5 -54.5q0 -29 -23.5 -53.5 t-54 -24.5t-54 22.5t-23.5 55.5zM449 993q12 66 30 170q33 180 50.5 224.5t64.5 44.5q29 0 54.5 -21.5t25.5 -54.5q0 -20 -10.5 -42t-90.5 -161q-55 -98 -94 -168zM664 1069q0 29 23.5 53.5t54 24.5t54 -22.5t23.5 -55.5q0 -29 -23.5 -53.5t-54 -24.5t-54 22.5t-23.5 55.5z " />
<glyph unicode="&#x3b1;" d="M86 444q0 186 102.5 321.5t253.5 135.5q53 0 94.5 -18.5t69 -53t40.5 -59.5t30 -63q-2 39 -2 98q0 92 65 92q68 0 68 -104v-60q-2 -123 -21.5 -251t-19.5 -160q0 -106 39 -152.5t88 -46.5q39 0 64.5 26.5t35.5 51.5q6 14 10.5 33.5t10.5 27.5t20 14q12 -35 13 -61 q0 -82 -50.5 -158.5t-138.5 -76.5q-137 0 -176 180q-25 -43 -36 -60.5t-42 -53.5t-70.5 -51t-91.5 -15q-152 0 -254 137t-102 327zM221 442q0 -217 66.5 -312t161.5 -95q96 0 148 80t67 198q8 61 8 152q0 96 -17.5 179t-71 149.5t-137.5 66.5q-88 0 -156.5 -93.5 t-68.5 -324.5z" />
<glyph unicode="&#x3b2;" horiz-adv-x="909" d="M86 -383q0 176 9 649t16 600q16 289 106 432q92 145 240 146q129 0 229 -93.5t100 -230.5q0 -197 -200 -297q74 -39 125 -96t72.5 -119.5t29.5 -107.5t8 -88q0 -178 -104.5 -306.5t-267.5 -128.5q-121 0 -234 52q0 -86 -4 -262v-173q0 -100 -64 -100q-61 0 -61 100v23z M201 891q0 -70 8 -244t8 -387v-53q2 -92 80 -140.5t149 -48.5q219 0 220 398q0 207 -63.5 293t-145.5 86q-31 0 -89.5 -11.5t-76.5 -11.5q-29 0 -45.5 15.5t-16.5 37.5q0 20 16.5 36t45.5 16q14 0 79.5 -11.5t88.5 -11.5q84 0 141 78t57 186q0 111 -57 191t-147 80 q-76 0 -137.5 -58.5t-90.5 -173.5q-24 -94 -24 -266z" />
<glyph unicode="&#x3b3;" horiz-adv-x="1024" d="M47 -450.5q0 34.5 19.5 91t63.5 137.5t140.5 161.5t227.5 134.5q-4 172 -37 322.5t-94.5 249.5t-139.5 99q-20 0 -42.5 -6t-53.5 -36.5t-41 -84.5q-25 10 -29 29q-2 8 -2 21q0 74 54.5 153.5t146.5 79.5q45 0 82 -25.5t60.5 -56.5t48 -93t35 -96t28.5 -106 q59 -219 66 -415q266 160 266 456q0 96 -33 186.5t-33 96.5q0 27 21.5 45t50.5 18q31 0 51.5 -18.5t28.5 -53t10 -63t2 -74.5q0 -176 -56.5 -336.5t-178.5 -267.5q-53 -45 -127 -82q-10 -94 -31 -155q-59 -168 -203.5 -279.5t-226.5 -111.5q-33 0 -53.5 22.5t-20.5 57z" />
<glyph unicode="&#x3b4;" horiz-adv-x="956" d="M86 440q0 166 86 290t209 159q49 12 74 16q-133 66 -193 133q-86 98 -86 230q0 90 57.5 133t239.5 43h4q104 0 132 -64.5t28 -224.5v-16q0 -68 -35 -68q-37 0 -37 57q0 25 8.5 83.5t8.5 84.5q0 92 -88 93q-70 0 -134.5 -34t-64.5 -112q0 -102 121 -184 q33 -23 113.5 -60.5t144 -86t112.5 -126.5q84 -133 84 -311q0 -203 -112.5 -350.5t-286.5 -147.5q-168 0 -276.5 137.5t-108.5 325.5zM242 446q0 -70 11 -135t35.5 -128.5t74 -102.5t116.5 -39q90 0 162 89t72 294q0 236 -72 330t-164 94q-90 0 -162.5 -92.5t-72.5 -309.5z " />
<glyph unicode="&#x3b5;" horiz-adv-x="796" d="M59 231q0 150 224 234q-41 14 -68 25.5t-69 37t-64.5 62.5t-22.5 84q0 102 98.5 165.5t233.5 63.5q145 0 235.5 -87t90.5 -148q0 -23 -13.5 -39.5t-33.5 -16.5q-6 0 -11.5 1t-9.5 3t-7 6.5t-6 7.5t-6 10t-4 10t-4.5 11.5t-3.5 11.5t-3 12t-3 11q-23 68 -81 113t-132 45 q-78 0 -131 -54.5t-53 -123.5q0 -68 57.5 -122t114.5 -54q16 0 57 9t60 9q25 0 42 -15.5t17 -37.5q0 -49 -61 -49q-23 0 -59.5 8t-55.5 8q-59 0 -115.5 -58.5t-56.5 -140.5q0 -80 53.5 -140t137.5 -60q168 0 286 178q12 18 25 18q16 0 16 -24q0 -59 -95 -143.5t-243 -84.5 q-137 0 -236.5 71.5t-99.5 182.5z" />
<glyph unicode="&#x3b6;" horiz-adv-x="854" d="M57 475q0 381 160 561q29 33 102 82q-168 47 -167 150q0 70 62 110.5t120 40.5q25 0 35 -11t4 -24q-4 -8 -35 -19t-55.5 -33.5t-24.5 -59.5q0 -55 57.5 -85t106.5 -30q29 0 89 22.5t99 22.5q43 0 72 -21.5t29 -56.5q0 -37 -32 -57t-69 -20q-35 0 -97 22.5t-89 22.5 q-25 0 -58.5 -12.5t-79.5 -53.5t-84 -104.5t-64.5 -178t-26.5 -260.5q0 -141 55 -219t123 -98q35 -10 92 -10h154q76 0 130 -28t79.5 -70t37 -80.5t11.5 -75.5q0 -80 -49.5 -136.5t-124 -81t-134 -34.5t-108.5 -10q-53 0 -53 26q0 20 36 25q6 0 55.5 2t88.5 9t85 21.5 t72.5 47t26.5 79.5q0 29 -9 59t-47 60.5t-102 30.5h-147q-72 0 -107 10q-100 31 -159.5 155t-59.5 310z" />
<glyph unicode="&#x3b7;" horiz-adv-x="1058" d="M61 690q0 59 58.5 135t146.5 76q51 0 91 -23.5t63.5 -67.5t33 -67.5t21.5 -64.5q43 106 111.5 164.5t148.5 58.5q106 0 167 -100.5t69 -288.5v-111q2 -254 12 -441t18.5 -275t8.5 -111q0 -47 -23.5 -66.5t-50.5 -19.5q-80 0 -80 115v846q0 6 1 33.5t1 47.5 q0 305 -131 306q-86 0 -164 -105.5t-78 -290.5v-331q0 -115 -77.5 -115t-77.5 106v463q0 262 -92 262q-37 0 -59.5 -27.5t-31 -60t-21.5 -60.5t-32 -28q-12 0 -22.5 11.5t-10.5 29.5z" />
<glyph unicode="&#x3b8;" horiz-adv-x="1052" d="M61 737q0 47 40 94.5t104 47.5q90 0 137 -97q27 -53 27 -170v-186q0 -55 1 -88t9 -98.5t24.5 -104.5t50 -70.5t83.5 -31.5q170 0 170 389v342q0 59 -2 90h-58q-219 0 -325.5 104.5t-106.5 227.5q0 115 95.5 186.5t224.5 71.5q311 0 323 -576q141 -59 141 -172 q0 -43 -38 -43h-13q-4 14 -8 38t-7 35t-11.5 28.5t-22.5 34t-39 36.5q2 -70 2 -207v-200q0 -154 -51 -256q-39 -76 -109.5 -130.5t-164.5 -54.5q-129 0 -214 97.5t-104 224.5q-6 39 -6 117v270q0 106 -51 109q-31 -2 -47.5 -47.5t-20.5 -47.5q-12 -6 -22.5 4t-10.5 33z M309 1190q0 -115 86 -185.5t195 -93.5q37 -8 115 -16q-2 111 -11.5 195t-31 159.5t-62.5 115.5t-98 40q-68 0 -130.5 -58.5t-62.5 -156.5z" />
<glyph unicode="&#x3b9;" horiz-adv-x="512" d="M84 262v619h156l-29 -629q0 -4 -1 -13.5t-1 -15.5q0 -78 30.5 -111.5t63.5 -33.5q51 0 78 80t35 86q12 8 21 0t9 -25q0 -12 -9 -46t-27.5 -80t-56.5 -79.5t-85 -33.5q-82 0 -128 64.5t-54 141.5q-2 25 -2 76z" />
<glyph unicode="&#x3ba;" horiz-adv-x="1081" d="M63 682q0 41 54.5 130t142.5 89q76 0 139.5 -76.5t63.5 -240.5q0 -41 -8 -123l166 61q61 168 170.5 276.5t166.5 108.5q29 0 52.5 -22.5t23.5 -55.5q0 -63 -91 -172.5t-243 -185.5q-4 -41 -4 -61q0 -102 42 -187.5t114 -85.5q53 0 85 38t46 75t25 37q4 0 11 -4t14 -20.5 t7 -41.5q0 -82 -57 -161.5t-154 -79.5q-207 0 -225 442l-178 -82q-31 -115 -102.5 -226.5t-120.5 -129.5q-16 -6 -51 -7q-47 0 -64.5 8.5t-17.5 39.5q0 68 51 161t170 181q2 0 12 8t13 10t12.5 12.5t13.5 18.5t10 23.5t9.5 32.5t5.5 42t2 55q0 90 -43 133t-93 43 q-39 0 -68.5 -21.5t-48 -43t-28.5 -23.5q-12 -2 -18.5 5.5t-6.5 19.5z" />
<glyph unicode="&#x3bb;" horiz-adv-x="921" d="M29 0q31 74 96 217l276 612q25 53 25 113v45q0 242 -119 291q-18 8 -43 8q-43 0 -83 -36t-48 -36q-23 0 -22 31q0 43 42 120t115 77q88 0 157 -96.5t69 -327.5v-586q0 -113 26 -170q61 -127 187 -127q45 0 73.5 14.5t47 33t32.5 22.5q10 2 18.5 -6.5t8.5 -22.5 q0 -43 -51.5 -119.5t-137.5 -76.5q-68 0 -129 45q-47 35 -77.5 85t-43 108t-17.5 98t-6 93.5t-1 55.5l-240 -465h-155z" />
<glyph unicode="&#x3bc;" horiz-adv-x="1024" d="M86 -410v1291h156v-568q0 -86 19.5 -146.5t50 -87t57 -36.5t53.5 -10q57 0 106.5 48t65.5 136q8 41 8 123v541h156v-605q0 -188 86 -188q39 0 55 40t23.5 80t19.5 40q20 0 21 -37q0 -61 -48.5 -146t-132.5 -85q-111 0 -157 145h-2q-76 -145 -201 -145q-78 0 -147.5 63 t-84.5 203h-2q4 -96 6.5 -206t3.5 -150t7 -96t19.5 -97t37.5 -103q10 -25 10 -45q0 -35 -28.5 -57t-61.5 -22q-39 0 -67.5 26t-28.5 94z" />
<glyph unicode="&#x3bd;" horiz-adv-x="854" d="M63 680q0 18 7.5 61t42 101.5t90.5 58.5q74 0 137 -72.5t63 -199.5q0 -74 -21.5 -145.5t-70.5 -184.5t-67 -160q39 29 117.5 80t115.5 80t85 76t67.5 97t19.5 114q0 41 -13 119.5t-13 105.5q0 47 22.5 67.5t48.5 20.5q35 0 52.5 -24.5t19.5 -49t2 -73.5q0 -170 -41 -256 t-123 -154t-190.5 -135.5t-161.5 -114.5q-29 -25 -79 -75l-62 -62q20 78 70 216t81 253t31 213q0 84 -30 131t-70 47q-43 0 -66 -79t-29 -85q-35 -18 -35 29z" />
<glyph unicode="&#x3be;" horiz-adv-x="854" d="M57 356q0 193 226 295q-197 82 -197 238q0 125 143 229q-170 37 -170 152q6 80 73 114.5t112 34.5q41 0 41 -24q0 -10 -9.5 -16.5t-37 -17.5t-50.5 -24q-23 -37 -22 -67q0 -59 62.5 -87t109.5 -28q25 0 85 17.5t93 17.5h2q39 0 66.5 -19.5t27.5 -46.5q0 -10 -5 -23.5 t-28.5 -27.5t-60.5 -14q-35 0 -93 17.5t-85 17.5q-68 0 -134.5 -61.5t-66.5 -143.5q0 -94 88 -150.5t164 -56.5q27 0 91.5 18.5t99.5 18.5q43 0 70.5 -18.5t27.5 -49t-29.5 -49t-68.5 -18.5q-35 0 -99.5 18.5t-91.5 18.5q-86 0 -182 -73t-96 -183q0 -18 4 -40t20.5 -53.5 t43 -56.5t77.5 -42t121 -17h153q66 0 116 -20.5t77 -49.5t43 -66.5t20.5 -65.5t4.5 -52q0 -74 -44 -128.5t-112 -81t-132.5 -38.5t-123.5 -12h-6q-51 0 -51 24q0 6 12 17q8 6 102 10t172 39t78 116q0 31 -8 61t-46 60.5t-102 30.5h-145q-90 0 -139 20q-90 39 -140.5 135.5 t-50.5 200.5z" />
<glyph unicode="&#x3bf;" horiz-adv-x="966" d="M86 440.5q0 186.5 111.5 324.5t283.5 138t285 -139t113 -324q0 -195 -115 -329t-281 -134q-172 0 -284.5 138.5t-112.5 325zM242 440q0 -225 71.5 -323.5t169.5 -98.5q92 0 166 96.5t74 326t-74 325.5t-166 96q-121 0 -181 -119t-60 -303z" />
<glyph unicode="&#x3c0;" horiz-adv-x="1165" d="M53 166q0 23 12.5 35t24.5 12q16 0 57 -48t80 -48q27 0 49 18q49 37 59.5 134.5t14.5 475.5h-14q-68 0 -119 -30.5t-82 -62t-47 -31.5q-20 0 -20 20q0 29 41 87t71 89q63 61 148 62q29 0 282.5 -18.5t282.5 -18.5q47 0 94 18.5t53 18.5q23 0 23 -25q0 -10 -14.5 -41 t-57.5 -66.5t-100 -37.5q-16 -172 -17 -385q0 -238 111 -238q66 0 111 129q8 20 18 20.5t17.5 -18t7.5 -41.5q0 -78 -64.5 -137t-144.5 -59q-84 0 -147.5 77.5t-63.5 280.5q0 139 16 381l-291 20q-6 -444 -22 -546q-23 -129 -88 -183q-43 -31 -86 -30q-74 0 -134.5 69.5 t-60.5 116.5z" />
<glyph unicode="&#x3c1;" horiz-adv-x="966" d="M86 442q0 121 39 215.5t100.5 145.5t127 75.5t130.5 24.5q156 0 276 -124t120 -318q0 -188 -110 -336t-288 -148q-55 0 -105 18.5t-80 36t-65.5 55.5t-41 46t-27.5 39q18 -106 54 -182t71 -114t82 -58.5t74.5 -23.5t64.5 -3h100q68 0 120 -19.5t81 -47t45 -63.5 t21.5 -61.5t5.5 -45.5q0 -41 -25 -72q-33 74 -79 111.5t-80.5 45t-92.5 7.5h-51q-129 0 -184 20q-283 106 -283 776zM242 451q0 -106 18.5 -197.5t75.5 -163.5t147 -72q119 0 179.5 120t60.5 311q0 225 -74 319t-166 94q-94 0 -167.5 -93t-73.5 -318z" />
<glyph unicode="&#x3c2;" horiz-adv-x="854" d="M84 489q0 102 26.5 180.5t64.5 121.5t88 69.5t91 34.5t80 8q104 0 205.5 -43t101.5 -104q0 -31 -23.5 -53.5t-51.5 -22.5q-25 0 -54.5 26.5t-79 54t-120.5 27.5q-121 0 -202 -55t-81 -188q0 -125 58.5 -243t166.5 -155q23 -8 148 -14t192 -65q74 -61 74 -158 q0 -115 -100.5 -166t-208.5 -51q-47 0 -47 24q0 18 26 25l54 4q51 4 94 12.5t83 38t40 76.5q0 68 -80 104q-45 23 -144 23h-14q-53 0 -88 5t-94.5 38t-104.5 96q-100 131 -100 350z" />
<glyph unicode="&#x3c3;" horiz-adv-x="1024" d="M86 459q0 182 104.5 313t266.5 131q49 0 140 -12t138 -12h2q63 2 118.5 17t59.5 15q31 0 31 -34q0 -12 -6 -30t-22.5 -41.5t-53.5 -39.5t-90 -16h-8q115 -156 115 -330q0 -180 -108.5 -311.5t-276.5 -131.5q-180 0 -295 147t-115 335zM242 467q0 -193 71.5 -315.5 t188.5 -122.5q102 0 165.5 91t63.5 242q0 68 -15.5 143t-46 147.5t-88 118.5t-130.5 46q-78 0 -128.5 -61.5t-65.5 -134t-15 -154.5z" />
<glyph unicode="&#x3c4;" horiz-adv-x="937" d="M66 700q0 14 13 53.5t54 82.5t94 43q23 0 225.5 -14.5t225.5 -14.5q51 0 90 34t53 34q20 0 21 -25q0 -37 -43 -107.5t-117 -70.5q-2 0 -158 10q-41 -393 -41 -473q0 -86 41 -131t88 -45q41 0 70 25.5t39 57t22.5 57.5t22.5 26q20 0 20 -39q0 -68 -58 -147t-153 -79 q-88 0 -167.5 72t-79.5 199q0 29 41 489q-37 2 -83 5t-59 3q-47 0 -87 -33.5t-54 -33.5q-20 -1 -20 22z" />
<glyph unicode="&#x3c5;" horiz-adv-x="1058" d="M59 618q0 51 17.5 110.5t70 116t127.5 56.5q94 0 148.5 -76.5t66.5 -187.5q4 -35 5 -102v-216q0 -158 58 -222t126 -64q182 0 182 389q0 96 -26.5 170t-58.5 108.5t-58.5 69.5t-26.5 59q0 27 21.5 48.5t48.5 21.5q66 0 135.5 -147.5t69.5 -315.5q0 -197 -88.5 -328 t-227.5 -131q-45 0 -93 15.5t-100.5 51.5t-85 106.5t-32.5 166.5v222q0 256 -115 256q-16 0 -34.5 -7.5t-42 -43t-31.5 -97.5q0 -2 -1 -14t-2 -20.5t-4.5 -18.5t-9.5 -16.5t-14 -6.5q-25 0 -25 47z" />
<glyph unicode="&#x3c6;" horiz-adv-x="1193" d="M86 477q0 66 13.5 134.5t41 136t83 110.5t128.5 43q172 0 264 -203q35 106 111 154.5t154 48.5q70 0 118 -43t69.5 -113.5t29.5 -132t8 -129.5q0 -188 -108.5 -325.5t-307.5 -173.5v-398q0 -66 -20 -90q-23 -27 -58 -26q-74 0 -77 108v406q-184 27 -316.5 157.5 t-132.5 335.5zM242 483q0 -186 83 -303t210 -153v544q-2 137 -44 191.5t-96 54.5q-153 0 -153 -334zM690 25q158 35 250 158.5t92 293.5q0 188 -55 264t-125 76q-59 0 -106.5 -55t-53.5 -184q-2 -27 -2 -80v-473z" />
<glyph unicode="&#x3c7;" horiz-adv-x="966" d="M25 672q0 74 52 151.5t136 77.5q39 0 69.5 -18.5t50 -46t39 -77.5t31 -93t31 -116t35.5 -122l170 453h156l-230 -607q-25 -68 -24 -90q0 -16 108 -413q39 -145 129 -146q41 0 67.5 23.5t41 52.5t20.5 33q12 6 22.5 -4.5t10.5 -32.5q0 -76 -52 -152.5t-136 -76.5 q-25 0 -46.5 7t-40 24.5t-33 34.5t-28.5 52t-25.5 62.5t-25.5 78t-23.5 88.5t-27 101.5t-29.5 110.5l-203 -539h-155q12 39 71 193l203 538q12 31 12 47q0 23 -63 252q-51 184 -72 223q-31 53 -80 54q-49 0 -74.5 -41t-37 -82t-25.5 -41q-24 0 -24 41z" />
<glyph unicode="&#x3c8;" d="M39 688q0 76 45 144.5t117 68.5q66 0 116 -63.5t52 -221.5v-92q0 -84 -1 -128t-1 -48q0 -102 47 -188t159 -123q12 172 23 725v14q0 104 29 105q27 0 26 -76q0 -207 23 -770q66 18 100 45q84 61 126 165.5t42 217.5q0 96 -32.5 171t-64.5 121t-32 72.5t20.5 50t53.5 23.5 q70 0 130 -148.5t60 -283.5q0 -184 -110.5 -323.5t-290.5 -163.5q25 -406 24 -428q0 -49 -24.5 -70t-52.5 -21q-74 0 -74 93q0 6 4 80.5t10 178t8 165.5q-360 63 -360 370q0 35 5 165t5 142q0 133 -65 134q-27 0 -41.5 -23t-18.5 -49.5t-11 -49t-22 -22.5q-24 0 -24 41z" />
<glyph unicode="&#x3c9;" horiz-adv-x="1366" d="M68 379q0 207 118.5 353.5t231.5 146.5h24q-63 -31 -107 -76t-78 -151.5t-34 -262.5q0 -186 65.5 -272t147.5 -88q92 0 153.5 97t61.5 150q0 14 -20.5 109.5t-20.5 204.5q0 104 72 104t72 -98t-20.5 -204.5t-20.5 -110.5q0 -55 62.5 -152.5t152.5 -97.5q80 0 146.5 78.5 t66.5 250.5q0 129 -15.5 215.5t-39 125t-48 60t-51 44t-39.5 53.5q143 -63 245.5 -207.5t102.5 -316.5q0 -158 -110.5 -256t-243.5 -98q-162 0 -258 233h-4q-94 -233 -258 -233q-131 0 -242.5 108.5t-111.5 290.5z" />
<glyph unicode="&#x3ca;" horiz-adv-x="512" d="M-141 1171q0 41 31.5 73t74.5 32t75 -31t32 -74t-31 -75.5t-74 -32.5t-75.5 31.5t-32.5 76.5zM84 262v619h156l-29 -629q0 -4 -1 -13.5t-1 -15.5q0 -78 30.5 -111.5t63.5 -33.5q51 0 78 80t35 86q12 8 21 0t9 -25q0 -12 -9 -46t-27.5 -80t-56.5 -79.5t-85 -33.5 q-82 0 -128 64.5t-54 141.5q-2 25 -2 76zM276 1169q0 43 32 76t75 33q45 0 75.5 -33t30.5 -74q0 -43 -31.5 -75.5t-74.5 -32.5t-75 30.5t-32 75.5z" />
<glyph unicode="&#x3cb;" horiz-adv-x="1024" d="M59 618q0 51 17.5 110.5t70 116t127.5 56.5q94 0 148.5 -76.5t66.5 -187.5q4 -35 5 -102v-216q0 -158 58 -222t126 -64q182 0 182 389q0 96 -26.5 170t-58.5 108.5t-58.5 69.5t-26.5 59q0 27 21.5 48.5t48.5 21.5q66 0 135.5 -147.5t69.5 -315.5q0 -197 -88.5 -328 t-227.5 -131q-45 0 -93 15.5t-100.5 51.5t-85 106.5t-32.5 166.5v222q0 256 -115 256q-16 0 -34.5 -7.5t-42 -43t-31.5 -97.5q0 -2 -1 -14t-2 -20.5t-4.5 -18.5t-9.5 -16.5t-14 -6.5q-25 0 -25 47zM190 1171q0 41 32 73t75 32t74.5 -31t31.5 -74t-30.5 -75.5t-73.5 -32.5 t-76 31.5t-33 76.5zM606 1171q0 41 32 74t75 33t75.5 -32t32.5 -77q0 -41 -31.5 -73.5t-74.5 -32.5t-76 31.5t-33 76.5z" />
<glyph unicode="&#x3cc;" horiz-adv-x="966" d="M86 440.5q0 186.5 111.5 324.5t283.5 138t285 -139t113 -324q0 -195 -115 -329t-281 -134q-172 0 -284.5 138.5t-112.5 325zM242 440q0 -225 71.5 -323.5t169.5 -98.5q92 0 166 96.5t74 326t-74 325.5t-166 96q-121 0 -181 -119t-60 -303zM426 993q0 4 15.5 92.5 t35 184.5t25.5 112q20 49 67 50q31 0 55.5 -21.5t24.5 -54.5q0 -29 -55 -127q-10 -18 -37 -64q-59 -104 -102 -182z" />
<glyph unicode="&#x3cd;" horiz-adv-x="1024" d="M59 618q0 51 17.5 110.5t70 116t127.5 56.5q94 0 148.5 -76.5t66.5 -187.5q4 -35 5 -102v-216q0 -158 58 -222t126 -64q182 0 182 389q0 96 -26.5 170t-58.5 108.5t-58.5 69.5t-26.5 59q0 27 21.5 48.5t48.5 21.5q66 0 135.5 -147.5t69.5 -315.5q0 -197 -88.5 -328 t-227.5 -131q-45 0 -93 15.5t-100.5 51.5t-85 106.5t-32.5 166.5v222q0 256 -115 256q-16 0 -34.5 -7.5t-42 -43t-31.5 -97.5q0 -2 -1 -14t-2 -20.5t-4.5 -18.5t-9.5 -16.5t-14 -6.5q-25 0 -25 47zM449 993q12 66 30 170q33 180 50.5 224.5t64.5 44.5q29 0 54.5 -21.5 t25.5 -54.5q0 -20 -10.5 -42t-90.5 -161q-55 -98 -94 -168z" />
<glyph unicode="&#x3ce;" horiz-adv-x="1366" d="M68 379q0 207 118.5 353.5t231.5 146.5h24q-63 -31 -107 -76t-78 -151.5t-34 -262.5q0 -186 65.5 -272t147.5 -88q92 0 153.5 97t61.5 150q0 14 -20.5 109.5t-20.5 204.5q0 104 72 104t72 -98t-20.5 -204.5t-20.5 -110.5q0 -55 62.5 -152.5t152.5 -97.5q80 0 146.5 78.5 t66.5 250.5q0 129 -15.5 215.5t-39 125t-48 60t-51 44t-39.5 53.5q143 -63 245.5 -207.5t102.5 -316.5q0 -158 -110.5 -256t-243.5 -98q-162 0 -258 233h-4q-94 -233 -258 -233q-131 0 -242.5 108.5t-111.5 290.5zM625 993q57 346 84 400q20 39 61 39q29 0 53.5 -21.5 t24.5 -54.5q0 -25 -20.5 -64t-172.5 -307z" />
<glyph unicode="&#x3d1;" horiz-adv-x="1052" d="M61 737q0 47 40 94.5t104 47.5q90 0 137 -97q27 -53 27 -170v-186q0 -55 1 -88t9 -98.5t24.5 -104.5t50 -70.5t83.5 -31.5q170 0 170 389v342q0 59 -2 90h-58q-219 0 -325.5 104.5t-106.5 227.5q0 115 95.5 186.5t224.5 71.5q311 0 323 -576q141 -59 141 -172 q0 -43 -38 -43h-13q-4 14 -8 38t-7 35t-11.5 28.5t-22.5 34t-39 36.5q2 -70 2 -207v-200q0 -154 -51 -256q-39 -76 -109.5 -130.5t-164.5 -54.5q-129 0 -214 97.5t-104 224.5q-6 39 -6 117v270q0 106 -51 109q-31 -2 -47.5 -47.5t-20.5 -47.5q-12 -6 -22.5 4t-10.5 33z M309 1190q0 -115 86 -185.5t195 -93.5q37 -8 115 -16q-2 111 -11.5 195t-31 159.5t-62.5 115.5t-98 40q-68 0 -130.5 -58.5t-62.5 -156.5z" />
<glyph unicode="&#x3d8;" horiz-adv-x="1024" d="M70 985q0 182 130 309t312 127q186 0 313 -130t127 -308q0 -147 -93 -269t-253 -157l-2 -2v-365q0 -80 27.5 -103.5t136.5 -23.5h49v-67h-612v67h49q109 0 136.5 24t27.5 103v365q-14 4 -38 11t-83 39t-105.5 76t-84 125t-37.5 179zM252 983q0 -164 71.5 -273.5 t186.5 -109.5t187.5 108.5t72.5 276.5q0 162 -72.5 271.5t-187.5 109.5t-186.5 -108.5t-71.5 -274.5zM266 -2h490v2l-123 2h-180z" />
<glyph unicode="&#x3d9;" horiz-adv-x="1024" d="M115 440q0 186 111.5 324.5t283.5 138.5t284.5 -139t112.5 -324q0 -174 -100 -309t-266 -151q6 -68 18 -161t19.5 -157.5t7.5 -97.5q0 -43 -24.5 -62.5t-51.5 -19.5t-51.5 19.5t-24.5 66.5q0 25 7.5 76t19.5 143t20 193q-166 16 -266 151t-100 309zM270 434 q0 -70 11.5 -136.5t36 -133t74.5 -106.5t120 -40q94 0 167 98.5t73 327.5q0 70 -11.5 136.5t-36 133t-74.5 107.5t-118 41q-96 0 -169 -99.5t-73 -328.5z" />
<glyph unicode="&#x3da;" horiz-adv-x="1593" d="M74 692q0 254 126 458t345 232q31 4 90 4h227v-16h2q16 12 92 16h523l39 -462h-54q-8 90 -13 134t-23.5 107.5t-49.5 91.5q-66 63 -237 64h-94v-1145q0 -72 35.5 -91t146.5 -19h28v-66h-608q-84 0 -125 8q-197 35 -323.5 228.5t-126.5 455.5zM258 692q0 -119 15.5 -221 t52 -201.5t110.5 -158t178 -58.5q207 0 240 103q8 27 8 61v946q0 25 -2 40.5t-14 43t-36 44t-74 29.5t-120 13q-102 0 -175.5 -55t-111.5 -151.5t-54.5 -202t-16.5 -232.5z" />
<glyph unicode="&#x3db;" horiz-adv-x="1024" d="M86 440q0 209 82 318q109 145 315 145h207q74 0 118 18.5t54 40t21.5 40t25.5 18.5q23 0 23 -37q0 -59 -59.5 -136t-182.5 -77h-223q-328 0 -328 -336q0 -86 23.5 -146.5t54.5 -90t87 -45t91 -17.5t101 -2h143q137 0 217 -63.5t80 -145.5q0 -180 -346 -180q-63 0 -78 18 q-2 4 -2 11q0 23 91 24.5t183.5 19t92.5 79.5q0 39 -49.5 71.5t-168.5 32.5h-186q-211 0 -315 139q-72 96 -72 301z" />
<glyph unicode="&#x3dc;" horiz-adv-x="1337" d="M66 0v66h28q113 0 147.5 18t34.5 88v1049q0 68 -34.5 87t-141.5 19h-34v66h1126l57 -463h-53q-8 63 -13 90t-16.5 79t-27 77.5t-41 58.5t-63.5 51.5t-87 28.5q-57 12 -172 12h-162q-111 0 -132 -17.5t-21 -107.5v-473h172q139 2 180 52t41 188h53v-545h-53 q-2 137 -41 187.5t-180 52.5h-172v-492q2 -72 45 -89t199 -17h18v-66l-399 6z" />
<glyph unicode="&#x3dd;" horiz-adv-x="1024" d="M4 78q0 49 60.5 73.5t66.5 30.5q27 27 27 101v901q0 49 5 82.5t20.5 73.5t52 60.5t94.5 20.5h612v-155h-608q-63 0 -93 -23.5t-30 -99.5v-244h526q98 0 99 -63q0 -61 -93 -62h-532v-536q0 -111 -25 -160q-37 -74 -104 -74q-31 0 -54.5 20.5t-23.5 53.5z" />
<glyph unicode="&#x3df;" horiz-adv-x="796" d="M57 377l56 1044h104l-47 -889h567l-55 -1044h-104l47 889h-568z" />
<glyph unicode="&#x3e0;" horiz-adv-x="1568" d="M80 0v66l80 2q12 47 37.5 134t31.5 107l187 649q8 29 8 37q0 27 -64 113q-10 16 -16 25q-35 47 -42 66.5t-7 76.5v76q0 57 24 57q12 0 24.5 -13.5t55.5 -70.5l824 -1135q63 -88 107 -106t177 -18v-66l-229 6l-334 -6v66h29q104 0 104 32q0 18 -42 79t-108.5 152 t-99.5 140h-2l-116 -403h55v-66l-137 6l-135 -6v66l79 2l156 538l-195 268l-235 -808h53v-66l-135 6zM221 90h2l2 39zM633 92h2l2 35z" />
<glyph unicode="&#x3e1;" horiz-adv-x="1478" d="M106 1393q2 51 80 51q49 0 107.5 -7t159 -36t194.5 -77t207 -140t205 -215q147 -199 225 -443.5t78 -482.5q0 -57 -25.5 -78.5t-52.5 -21.5q-74 0 -78 98q-12 227 -42.5 360.5t-119.5 331.5q-297 -233 -338.5 -265t-60.5 -36q-2 0 -5 -1t-5 -1q-33 0 -33 39q0 14 2 20 l402 312q-63 113 -183 248q-80 -63 -196 -154q-154 -121 -183.5 -141.5t-46.5 -20.5q-31 0 -30 33q0 25 48 66.5t157.5 122.5t191.5 151q-84 63 -141.5 100t-167 78t-230.5 51q-6 0 -21.5 1t-23.5 2t-21.5 3t-21.5 6.5t-15 9.5t-11.5 14.5t-4.5 21.5z" />
<glyph unicode="&#x400;" horiz-adv-x="1507" d="M123 0v63h27q117 0 150.5 15.5t33.5 71.5v1097q0 57 -35 72.5t-149 15.5h-27v64h1153l57 -461h-51q-12 92 -21.5 141t-40 109.5t-77.5 91.5q-84 55 -316 55h-168h-60t-38.5 -3t-29 -11t-10.5 -21.5t-5 -35.5v-506h164q154 0 198 46t44 193h51v-540h-51q0 150 -45.5 193.5 t-198.5 43.5h-162v-553q0 -55 23.5 -66.5t126.5 -11.5h190q80 0 130 4.5t114.5 26t107.5 62.5q39 39 69 114.5t38 118.5t24 139h52l-86 -528h-1182zM532 1690q0 31 21.5 53t48.5 22q16 0 40 -12t146 -90q92 -57 158 -98l-20 -47q-14 4 -305 94q-29 8 -43.5 14t-30 22.5 t-15.5 41.5z" />
<glyph unicode="&#x401;" horiz-adv-x="1507" d="M123 0v63h27q117 0 150.5 15.5t33.5 71.5v1097q0 57 -35 72.5t-149 15.5h-27v64h1153l57 -461h-51q-12 92 -21.5 141t-40 109.5t-77.5 91.5q-84 55 -316 55h-168h-60t-38.5 -3t-29 -11t-10.5 -21.5t-5 -35.5v-506h164q154 0 198 46t44 193h51v-540h-51q0 150 -45.5 193.5 t-198.5 43.5h-162v-553q0 -55 23.5 -66.5t126.5 -11.5h190q80 0 130 4.5t114.5 26t107.5 62.5q39 39 69 114.5t38 118.5t24 139h52l-86 -528h-1182zM459 1608q0 47 32 77.5t75 30.5q41 0 74.5 -31.5t33.5 -77t-33.5 -76t-74.5 -30.5q-47 0 -77 32t-30 75zM858 1608 q0 47 32 77.5t75 30.5q41 0 74.5 -31.5t33.5 -77t-33.5 -76t-74.5 -30.5q-47 0 -77 32t-30 75z" />
<glyph unicode="&#x402;" horiz-adv-x="1875" d="M129 938l57 461h1233l39 -342h-51q-6 53 -9 70.5t-15.5 62.5t-29 64.5t-48 42t-76.5 30.5q-43 8 -131 8h-115q-37 0 -57.5 -4t-29.5 -18.5t-10 -24.5t-1 -37v-544h2q125 221 420 221q125 0 208.5 -28t122.5 -80t52.5 -104t13.5 -124v-143q0 -221 -107 -353 q-119 -141 -282 -141q-111 0 -186.5 71.5t-75.5 168.5q0 61 36.5 89.5t77.5 28.5q45 0 79 -31.5t34 -80.5t-31.5 -82t-83.5 -33q-16 0 -24 2q72 -86 168 -86t164 100q39 61 49 140.5t10 289.5v46q0 55 -2 86.5t-14.5 79t-37 73t-72.5 45t-116 19.5q-145 0 -252.5 -74 t-140.5 -180q-12 -47 -12 -115v-373q0 -29 5 -44t24.5 -22t28.5 -7t46 -3v-63l-135 6h-113l-335 -6v63h45q162 0 206.5 16.5t44.5 80.5v1097q0 53 -23.5 65.5t-92.5 12.5h-66q-61 0 -107 -9t-79 -20.5t-57.5 -42t-38 -54t-25.5 -75t-17.5 -87t-15.5 -109.5h-51z" />
<glyph unicode="&#x403;" horiz-adv-x="1392" d="M123 0v63h27q117 0 150.5 15.5t33.5 71.5v1097q0 57 -35 72.5t-149 15.5h-27v64h1069l57 -461h-53q-16 127 -34.5 194.5t-60.5 119t-110.5 67.5t-185.5 16h-176q-68 0 -90.5 -12t-22.5 -63v-1104q0 -59 40 -76t181 -17h41v-63q-172 6 -346 6q-155 0 -309 -6zM612 1565 q307 193 324 198q8 2 20 2q29 0 49.5 -24.5t20.5 -50.5q0 -16 -7 -30.5t-20.5 -23t-23.5 -13.5t-23 -9l-12 -2q-291 -90 -305 -94z" />
<glyph unicode="&#x404;" horiz-adv-x="1593" d="M170 692q0 315 213 533.5t500 218.5q215 0 377 -152q115 150 135 150q25 0 24 -51v-408q0 -39 -28 -39q-12 0 -18.5 3t-10.5 12.5t-6 17.5t-5 24.5t-8 28.5q-39 158 -160.5 254t-273.5 96q-86 0 -172 -34.5t-167 -106.5t-134 -203t-55 -301q129 51 240 51 q127 0 247.5 -51t182.5 -51q43 0 81.5 10.5t63.5 19.5t31 9q18 0 21 -16.5t-9 -30.5q-20 -23 -118.5 -60.5t-182.5 -37.5q-68 0 -199 58t-233 58q-61 0 -125 -22q20 -254 121 -412q61 -98 166.5 -170t246.5 -72q162 0 294 94.5t155 249.5q10 59 12 62q8 8 17 8q27 0 26 -41 q0 -158 -148.5 -297t-385.5 -139q-289 0 -502 214t-213 523z" />
<glyph unicode="&#x405;" horiz-adv-x="1251" d="M170 10v414q0 41 25 41q23 0 26 -31q10 -188 115 -293q123 -123 336 -123q125 0 203.5 88.5t78.5 208.5q0 94 -48 169t-128 108q-27 10 -169 45t-173 45q-111 39 -188.5 138.5t-77.5 232.5q0 164 116.5 277.5t284.5 113.5q88 0 164 -32t100.5 -53.5t59.5 -58.5 q80 129 90 138q6 4 12 4q25 0 25 -53v-418q0 -35 -27 -35q-20 0 -24 25.5t-16.5 88t-43.5 126.5q-104 211 -338 210q-123 0 -201.5 -81.5t-78.5 -188.5q0 -92 53 -159.5t131 -96.5q25 -8 173.5 -44t191.5 -56q98 -45 166.5 -147.5t68.5 -237.5q0 -172 -113.5 -296 t-291.5 -124q-223 0 -375 143q-80 -141 -102 -141q-2 0 -4.5 1t-4.5 1q-16 6 -16 51z" />
<glyph unicode="&#x406;" horiz-adv-x="854" d="M113 0v63h32q117 0 153 14.5t36 74.5v1095q0 57 -36 72.5t-155 15.5h-30v64q270 -6 299 -6q162 0 325 6v-64h-30q-119 0 -154 -15t-37 -73v-1095q2 -55 35 -72t154 -17h32v-63q-160 6 -323 6q-31 0 -301 -6z" />
<glyph unicode="&#x407;" horiz-adv-x="854" d="M113 0v63h32q117 0 153 14.5t36 74.5v1095q0 57 -36 72.5t-155 15.5h-30v64q270 -6 299 -6q162 0 325 6v-64h-30q-119 0 -154 -15t-37 -73v-1095q2 -55 35 -72t154 -17h32v-63q-160 6 -323 6q-31 0 -301 -6zM121 1608q0 47 32 77.5t75 30.5q41 0 74.5 -31.5t33.5 -77 t-33.5 -76t-74.5 -30.5q-47 0 -77 32t-30 75zM518 1608q0 47 32 77.5t75 30.5q41 0 74.5 -31.5t33.5 -77t-33.5 -76t-74.5 -30.5q-47 0 -77 32t-30 75z" />
<glyph unicode="&#x408;" horiz-adv-x="1165" d="M141 229q0 53 34 85t81 32q45 0 79 -32.5t34 -80t-32 -81t-85 -33.5q-2 0 -7 1t-7 1q86 -119 225 -119q80 0 145.5 76t65.5 239v926q0 61 -43 76.5t-193 15.5h-37v64l342 -6h97l170 6v-64h-9q-98 0 -123.5 -15t-25.5 -75v-926q0 -98 -38 -172.5t-98.5 -113.5t-123 -58.5 t-121.5 -19.5q-143 0 -236.5 82.5t-93.5 191.5z" />
<glyph unicode="&#x409;" horiz-adv-x="2332" d="M113 193q0 63 36.5 91.5t77.5 28.5q47 0 80 -32.5t33 -81.5q0 -47 -33 -80t-82 -33q-18 0 -26 2q51 -82 137 -82q268 0 291 1204v27q0 66 -31 82t-162 16h-26v64h1173v-64h-20q-121 0 -156 -15t-35 -77v-479q172 25 320 24q121 0 216 -38.5t147 -100t79 -128t27 -130.5 q0 -66 -25 -130t-74 -124.5t-138 -98.5t-204 -38h-741v63h31q113 0 146.5 15.5t33.5 71.5v1107q0 49 -19.5 63.5t-83.5 14.5h-292q-43 0 -61.5 -2t-34 -16t-17.5 -45q0 -4 -2 -108.5t-7 -224.5t-17.5 -266.5t-39 -287.5t-63.5 -235q-76 -195 -215 -195q-100 0 -161.5 68 t-61.5 170zM1370 137q0 -47 20.5 -60.5t88.5 -13.5h194q129 0 202 99.5t73 228.5q0 123 -79 225.5t-237 102.5q-113 0 -262 -21v-561z" />
<glyph unicode="&#x40a;" horiz-adv-x="2332" d="M123 0v63h24q115 0 150 14.5t37 72.5v1097q0 57 -35 72.5t-149 15.5h-27v64q152 -6 301 -6t301 6v-64h-18q-121 0 -156 -15t-35 -77v-485h670v485q0 61 -34 76.5t-155 15.5h-20v64q150 -6 301.5 -6t300.5 6v-64h-20q-121 0 -156 -15t-35 -77v-479q172 25 320 24 q121 0 216 -38.5t147 -100t79 -128t27 -130.5q0 -66 -25 -130t-74 -124.5t-138 -98.5t-204 -38h-739v63h18q123 0 157 15.5t34 77.5v540h-670v-540q0 -61 33 -77t156 -16h20v-63q-152 6 -301 6t-301 -6zM1368 137q0 -47 20.5 -60.5t88.5 -13.5h196q129 0 201 98.5t72 229.5 q0 133 -83 230.5t-233 97.5q-113 0 -262 -21v-561z" />
<glyph unicode="&#x40b;" horiz-adv-x="1677" d="M129 938l57 461h1119l38 -342h-51q-18 139 -47 188q-41 66 -129 82q-43 8 -133 8h-96q-74 0 -95.5 -12t-21.5 -70v-540h2q23 41 54.5 78.5t103 75.5t160.5 38q86 0 146 -23.5t90 -54t46.5 -81t18.5 -80t2 -74.5v-428q0 -4 -1 -8t-1 -6q0 -55 25.5 -69.5t103.5 -17.5h28 v-63q-119 6 -239 6q-88 0 -219 -6v63h18q84 0 111.5 15.5t27.5 66.5v476q0 35 -1 56t-10 60t-25.5 61.5t-51.5 41t-84 18.5q-109 0 -207 -84t-98 -254v-373q0 -55 28.5 -69.5t116.5 -14.5h13v-63q-133 6 -262 6q-141 0 -287 -6v63h24q115 0 149 15.5t36 71.5v1073 q0 76 -8 88q-16 25 -101 24q-168 0 -219 -79.5t-78 -317.5h-53z" />
<glyph unicode="&#x40c;" horiz-adv-x="1705" d="M123 0v63h24q115 0 150 14.5t37 72.5v1097q0 59 -35 73.5t-149 14.5h-27v64q152 -6 301 -6t301 6v-64h-20q-125 0 -157 -16t-32 -80v-649l629 598q47 47 47 78q0 61 -92 69v64q123 -6 243 -6q94 0 191 6v-64q-39 -2 -75 -8t-68.5 -21.5t-54 -24.5t-51.5 -34.5t-41 -35 t-42 -39t-35 -33.5q-276 -264 -293 -279l467 -690q49 -70 89 -88.5t124 -18.5h9v-63l-154 6h-82l-293 -6v63q119 0 119 62q0 29 -35 78l-364 540q-211 -201 -217 -206q-20 -25 -21 -60v-319q0 -63 32 -79t159 -16h18v-63q-152 6 -301 6t-301 -6zM756 1565q307 193 323 198 q8 2 21 2q29 0 49 -24.5t20 -50.5q0 -16 -8 -30.5t-20.5 -23t-23.5 -13.5t-23 -9l-13 -2q-291 -90 -305 -94z" />
<glyph unicode="&#x40d;" horiz-adv-x="1705" d="M123 0v63h29q115 0 148.5 15.5t33.5 71.5v1097q0 57 -35 72.5t-154 15.5h-22v64q152 -6 301 -6t301 6v-64h-25q-117 0 -149.5 -14t-34.5 -74v-1011l651 999q14 25 15 41q0 27 -24.5 40t-57.5 16t-96 3h-27v64q150 -6 301.5 -6t300.5 6v-64h-29q-115 0 -147.5 -16 t-34.5 -70v-1097q2 -57 36 -73t148 -16h27v-63q-150 6 -301.5 6t-300.5 -6v63h24q119 0 152 15.5t33 73.5v1011l-654 -999q-12 -20 -12 -41q0 -41 46 -50.5t159 -9.5v-63q-152 6 -301 6t-301 -6zM618 1690q0 31 22 53t48 22q16 0 40 -12t146 -90q92 -57 158 -98l-22 -47 q-14 4 -305 94q-29 8 -42.5 14t-29 22.5t-15.5 41.5z" />
<glyph unicode="&#x40e;" horiz-adv-x="1648" d="M102 1335v64l168 -6h84l295 6v-64h-10q-131 0 -131 -49q0 -18 31 -67l407 -678q8 -14 58 -101h2l264 748q10 25 10 45q0 37 -36 68.5t-116 33.5v64q113 -6 228 -6q98 0 196 6v-64q-59 -2 -100 -16t-65.5 -46t-32.5 -51.5t-25 -64.5l-250 -706q-20 -59 -32.5 -91 t-39 -92.5t-50 -96.5t-61.5 -82t-78 -71.5t-96 -44t-118 -18.5q-123 0 -197.5 85t-74.5 187q0 63 37 91t77 28q45 0 79 -31.5t34 -81.5q0 -47 -31.5 -79.5t-83.5 -32.5q-20 0 -32 2q72 -111 192 -111q49 0 102.5 17.5t118 72t103.5 138.5q-18 29 -66 108l-524 875 q-37 59 -55.5 77.5t-54 26.5t-124.5 8h-2zM588 1655q0 43 28.5 74.5t73.5 31.5q41 0 71 -31.5t30 -72.5q0 -55 -60 -92q45 -8 148 -9h20q137 0 187.5 21.5t56.5 81.5h47q-12 -170 -305 -170q-68 0 -130.5 12t-114.5 52.5t-52 101.5z" />
<glyph unicode="&#x40f;" horiz-adv-x="1705" d="M123 0v68h29q115 0 148.5 15t33.5 69v1097q0 55 -34 70.5t-148 15.5h-29v64q152 -6 301 -6t301 6v-64h-23q-121 0 -153.5 -15t-32.5 -77v-1106q2 -45 24.5 -57t80.5 -12h471q66 0 80 18t14 78v1085q0 55 -34 70.5t-148 15.5h-27v64q150 -6 301.5 -6t300.5 6v-64h-29 q-115 0 -147.5 -16t-34.5 -70v-1097q2 -53 34 -68.5t146 -15.5h31v-68h-569q-35 0 -53.5 -19.5t-38.5 -95.5q-41 -154 -41 -282h-52q0 111 -26.5 235.5t-61.5 151.5q-14 10 -57 10h-557z" />
<glyph unicode="&#x410;" horiz-adv-x="1648" d="M123 0v63q66 2 111 16.5t70.5 44.5t34.5 47t21 54q2 6 5 11l407 1181q18 49 51 49t51 -49l441 -1265q20 -59 56 -74t145 -15h10v-63q-117 6 -264.5 6t-298.5 -6v63h8q160 0 159 60q0 23 -112 344h-506q-98 -283 -98 -299q0 -14 6 -29.5t20.5 -33t47 -28.5t77.5 -14v-63 q-119 6 -237 6q-113 0 -205 -6zM532 530h463l-231 666z" />
<glyph unicode="&#x411;" horiz-adv-x="1564" d="M129 0v63h27q117 0 150.5 15.5t33.5 71.5v1097q0 57 -35 72.5t-149 15.5h-27v64h1092l57 -461h-51q-16 133 -42 212t-85 124q-80 61 -283 61h-201q-61 0 -82.5 -12t-23.5 -61v-500q178 27 371 26q135 0 240.5 -40.5t160.5 -104t82 -128t27 -124.5q0 -147 -112 -256.5 t-275 -130.5q-35 -4 -103 -4h-772zM510 143q0 -51 16.5 -65.5t94.5 -14.5h241q152 0 235 101.5t83 226.5q0 121 -91.5 224.5t-267.5 103.5q-80 0 -311 -21v-555z" />
<glyph unicode="&#x412;" horiz-adv-x="1564" d="M129 0v63h25q117 0 151.5 15.5t34.5 71.5v1097q0 59 -35 73.5t-149 14.5h-27v64h719q168 0 278 -56q94 -49 150.5 -125.5t56.5 -162.5q0 -35 -11 -72t-44 -89t-108.5 -96t-186.5 -67q170 -12 289 -114.5t119 -241.5t-111 -244.5t-274 -126.5q-35 -4 -105 -4h-772z M510 143q0 -51 18.5 -65.5t89.5 -14.5h242q158 0 242 95.5t84 218.5q0 121 -75 224.5t-224 103.5h-377v-562zM510 752h289q94 0 164.5 31.5t105.5 80.5t50.5 96.5t15.5 92.5q0 39 -12.5 82t-40 91t-88 78.5t-142.5 30.5h-238q-59 0 -81.5 -13t-22.5 -62v-508z" />
<glyph unicode="&#x413;" horiz-adv-x="1392" d="M123 0v63h27q117 0 150.5 15.5t33.5 71.5v1097q0 57 -35 72.5t-149 15.5h-27v64h1069l57 -461h-53q-16 127 -34.5 194.5t-60.5 119t-110.5 67.5t-185.5 16h-176q-68 0 -90.5 -12t-22.5 -63v-1104q0 -59 40 -76t181 -17h41v-63q-172 6 -346 6q-155 0 -309 -6z" />
<glyph unicode="&#x414;" horiz-adv-x="1705" d="M45 -397l57 465q2 0 7.5 1t7.5 1q4 0 11 -1t11 -1q74 0 119 17t100 85q268 330 269 1063q0 68 -29 85t-156 17h-24v64h1161v-64h-27q-115 0 -147.5 -16t-34.5 -70v-1093q0 -57 36 -72.5t163 -15.5h33l55 -465h-51q-14 104 -25.5 158.5t-35 108.5t-61.5 77.5t-99.5 38 t-153.5 14.5h-766q-113 0 -179.5 -18.5t-104.5 -72.5t-53 -116.5t-32 -189.5h-51zM375 92q0 -25 45 -24h661q72 0 89.5 16t17.5 76q0 8 -1 22.5t-1 20.5v1061q0 47 -19.5 59t-85.5 12h-282q-80 0 -99.5 -12t-21.5 -66q-2 -158 -8 -261t-30 -271t-82 -313.5t-148 -259.5 q-35 -48 -35 -60z" />
<glyph unicode="&#x415;" horiz-adv-x="1507" d="M123 0v63h27q117 0 150.5 15.5t33.5 71.5v1097q0 57 -35 72.5t-149 15.5h-27v64h1153l57 -461h-51q-12 92 -21.5 141t-40 109.5t-77.5 91.5q-84 55 -316 55h-168h-60t-38.5 -3t-29 -11t-10.5 -21.5t-5 -35.5v-506h164q154 0 198 46t44 193h51v-540h-51q0 150 -45.5 193.5 t-198.5 43.5h-162v-553q0 -55 23.5 -66.5t126.5 -11.5h190q80 0 130 4.5t114.5 26t107.5 62.5q39 39 69 114.5t38 118.5t24 139h52l-86 -528h-1182z" />
<glyph unicode="&#x416;" horiz-adv-x="2560" d="M141 0v63h9q84 0 124.5 18.5t87.5 88.5l414 610q37 53 53 80q-16 14 -292 279q-4 4 -35 33.5t-38 35.5t-36 30t-43 31t-43 23.5t-52.5 22.5t-55 12t-64.5 8v64q96 -6 190 -6q119 0 242 6v-64q-90 -8 -90 -69q0 -10 3 -20.5t12.5 -22t13.5 -17.5t17 -18t15 -14l615 -584 v649q0 63 -32 79.5t-157 16.5h-22v64q150 -6 301 -6q152 0 303 6v-64h-22q-125 0 -157 -16t-32 -80v-649l627 598q49 45 49 78q0 61 -90 69v64q123 -6 242 -6q96 0 190 6v-64q-39 -2 -75 -8t-68.5 -21.5t-54 -24.5t-51.5 -34.5t-41 -35t-42 -39t-35 -33.5 q-276 -264 -292 -279l466 -690q49 -70 89 -88.5t124 -18.5h9v-63l-154 6h-80l-295 -6v63q119 0 119 62q0 29 -35 78l-364 540q-211 -201 -217 -206q-20 -25 -21 -60v-319q0 -63 32 -79t159 -16h20v-63q-152 6 -303 6q-152 0 -301 -6v63h20q127 0 159 15.5t32 79.5v331 q0 23 -20.5 46.5t-118.5 115.5q-59 55 -99 92l-364 -540q-35 -49 -35 -78q0 -61 117 -62v-63l-293 6h-80z" />
<glyph unicode="&#x417;" horiz-adv-x="1366" d="M158 358q0 35 32 35q12 0 19 -4q10 -6 13 -43t20.5 -94t58.5 -105q113 -129 363 -129q156 0 253 103.5t97 238.5q0 123 -78 217.5t-197 118.5q-35 8 -108 9h-133q-37 0 -41 18q-2 16 10 22.5t29 6.5h108q2 0 10.5 -1t10.5 -1q166 0 252 98t86 219q0 123 -84 218t-217 95 q-158 0 -274 -86t-140 -260q-10 -55 -35 -55q-4 0 -16 4q-16 6 -17 39v375q0 45 25 45q4 0 8 -1t9 -6t11.5 -9.5t16.5 -14.5l20.5 -20.5t27.5 -26.5t34 -33q129 113 340 113q215 0 353 -115t138 -262q0 -109 -88 -201t-254 -135q168 -31 284 -133t116 -238 q0 -164 -159 -284.5t-394 -120.5q-123 0 -217.5 29.5t-147.5 72.5t-88 100.5t-46 105.5t-11 95z" />
<glyph unicode="&#x418;" horiz-adv-x="1705" d="M123 0v63h29q115 0 148.5 15.5t33.5 71.5v1097q0 57 -35 72.5t-154 15.5h-22v64q152 -6 301 -6t301 6v-64h-25q-117 0 -149.5 -14t-34.5 -74v-1011l651 999q14 25 15 41q0 27 -24.5 40t-57.5 16t-96 3h-27v64q150 -6 301.5 -6t300.5 6v-64h-29q-115 0 -147.5 -16 t-34.5 -70v-1097q2 -57 36 -73t148 -16h27v-63q-150 6 -301.5 6t-300.5 -6v63h24q119 0 152 15.5t33 73.5v1011l-654 -999q-12 -20 -12 -41q0 -41 46 -50.5t159 -9.5v-63q-152 6 -301 6t-301 -6z" />
<glyph unicode="&#x419;" horiz-adv-x="1705" d="M123 0v63h29q115 0 148.5 15.5t33.5 71.5v1097q0 57 -35 72.5t-154 15.5h-22v64q152 -6 301 -6t301 6v-64h-25q-117 0 -149.5 -14t-34.5 -74v-1011l651 999q14 25 15 41q0 27 -24.5 40t-57.5 16t-96 3h-27v64q150 -6 301.5 -6t300.5 6v-64h-29q-115 0 -147.5 -16 t-34.5 -70v-1097q2 -57 36 -73t148 -16h27v-63q-150 6 -301.5 6t-300.5 -6v63h24q119 0 152 15.5t33 73.5v1011l-654 -999q-12 -20 -12 -41q0 -41 46 -50.5t159 -9.5v-63q-152 6 -301 6t-301 -6zM551 1655q0 43 28.5 74.5t73.5 31.5q39 0 70 -28.5t31 -73.5q0 -57 -60 -94 q45 -8 146 -9h22q137 0 188.5 23t55.5 80h47q-4 -86 -86 -128t-219 -42q-145 0 -221 46t-76 120z" />
<glyph unicode="&#x41a;" horiz-adv-x="1705" d="M123 0v63h24q115 0 150 14.5t37 72.5v1097q0 59 -35 73.5t-149 14.5h-27v64q152 -6 301 -6t301 6v-64h-20q-125 0 -157 -16t-32 -80v-649l629 598q47 47 47 78q0 61 -92 69v64q123 -6 243 -6q94 0 191 6v-64q-39 -2 -75 -8t-68.5 -21.5t-54 -24.5t-51.5 -34.5t-41 -35 t-42 -39t-35 -33.5q-276 -264 -293 -279l467 -690q49 -70 89 -88.5t124 -18.5h9v-63l-154 6h-82l-293 -6v63q119 0 119 62q0 29 -35 78l-364 540q-211 -201 -217 -206q-20 -25 -21 -60v-319q0 -63 32 -79t159 -16h18v-63q-152 6 -301 6t-301 -6z" />
<glyph unicode="&#x41b;" horiz-adv-x="1705" d="M113 193q0 63 36.5 91.5t77.5 28.5q47 0 80 -32.5t33 -81.5q0 -47 -33 -80t-82 -33q-18 0 -26 2q51 -82 137 -82q268 0 291 1204v27q0 66 -31 82t-162 16h-26v64h1173v-64h-29q-117 0 -148.5 -15t-33.5 -71v-1097q2 -57 36 -73t148 -16h27v-63q-152 6 -303 6 q-152 0 -301 -6v63h31q115 0 147.5 15.5t32.5 71.5v1107q0 49 -19.5 63.5t-83.5 14.5h-292q-43 0 -61.5 -2t-34 -16t-17.5 -45q0 -4 -2 -108.5t-7 -224.5t-17.5 -266.5t-39 -287.5t-63.5 -235q-76 -195 -215 -195q-100 0 -161.5 68t-61.5 170z" />
<glyph unicode="&#x41c;" horiz-adv-x="1990" d="M133 0v63q119 0 165 39t46 113v1032q0 57 -35 72.5t-153 15.5h-23v64h348q29 0 42.5 -7.5t25.5 -35.5l444 -1149l447 1149q12 29 24.5 36t40.5 7h350v-64h-26q-115 0 -147.5 -16t-34.5 -70v-1097q2 -57 34.5 -73t147.5 -16h26v-63q-147 6 -292.5 6t-292.5 -6v63h26 q115 0 150 15.5t35 75.5v1183h-2l-49 -131l-451 -1159q-18 -43 -41 -43t-41 41l-444 1147q-8 23 -25.5 67t-26.5 66h-2v-1108q0 -33 6.5 -54.5t26 -47t64.5 -39t114 -13.5v-63q-119 6 -237 6q-119 0 -240 -6z" />
<glyph unicode="&#x41d;" horiz-adv-x="1705" d="M123 0v63h29q115 0 148.5 15.5t33.5 71.5v1097q0 57 -35 72.5t-154 15.5h-22v64q152 -6 301 -6t301 6v-64h-18q-121 0 -156 -15t-35 -77v-485h670v485q0 61 -34 76.5t-155 15.5h-20v64q150 -6 301.5 -6t300.5 6v-64h-29q-115 0 -147.5 -16t-34.5 -70v-1097q2 -57 36 -73 t148 -16h27v-63q-150 6 -301.5 6t-300.5 -6v63h18q123 0 157 15.5t34 77.5v540h-670v-540q0 -61 33 -77t156 -16h20v-63q-152 6 -301 6t-301 -6z" />
<glyph unicode="&#x41e;" horiz-adv-x="1705" d="M170 694q0 315 201.5 532.5t480.5 217.5q276 0 479 -217t203 -532.5t-203 -527.5t-479 -212q-274 0 -478 213t-204 526zM381 727q0 -197 46 -344t120 -224t150.5 -113t154.5 -36t154.5 37t150.5 114t120 224t46 344q0 178 -46 314.5t-120 208t-150.5 106.5t-154.5 35 t-154.5 -35t-150.5 -106.5t-120 -208t-46 -316.5z" />
<glyph unicode="&#x41f;" horiz-adv-x="1705" d="M123 0v63h24q115 0 150 14.5t37 72.5v1097q0 57 -35 72.5t-154 15.5h-22v64h1456v-64h-29q-115 0 -147.5 -16t-34.5 -70v-1097q2 -59 36 -74t152 -15h23v-63q-150 6 -301.5 6t-300.5 -6v63h22q121 0 154 15.5t33 77.5v1110q-2 45 -24.5 57t-82.5 12h-463q-68 0 -84 -17.5 t-16 -70.5v-1097q2 -55 34 -71t150 -16h25v-63q-152 6 -301 6t-301 -6z" />
<glyph unicode="&#x420;" horiz-adv-x="1507" d="M127 0v63h27q117 0 150.5 15.5t33.5 71.5v1097q0 57 -35 72.5t-149 15.5h-27v64h686q197 0 326 -74q90 -53 143 -135t53 -172q0 -137 -128 -255t-369 -118h-318v-489q0 -61 34 -77t157 -16h18v-63q-152 6 -301 6t-301 -6zM514 700h262q94 0 162 20.5t102.5 49.5t55 75 t24.5 83t4 90q0 51 -4 86t-22.5 83t-53 76.5t-102.5 50t-162 21.5h-129q-92 0 -114.5 -11t-22.5 -69v-555z" />
<glyph unicode="&#x421;" horiz-adv-x="1593" d="M170 700.5q0 315.5 213 529.5t500 214q227 0 377 -176q111 162 120 170q8 4 15 4q25 0 24 -45v-496q0 -43 -28 -43q-23 0 -33 19q-4 10 -9.5 50t-21.5 95q-18 61 -52 119.5t-85 115t-125 90t-160 33.5q-55 0 -114.5 -13t-135 -58t-134 -115t-99.5 -198t-41 -294 q0 -160 38 -285.5t93 -198.5t130 -120t139.5 -63.5t127.5 -16.5q180 0 310.5 126t146.5 307q4 49 12 55q12 8 17 8q25 0 24 -45q0 -74 -32.5 -160t-95 -167t-169 -134t-237.5 -53q-287 0 -501 215t-214 530.5z" />
<glyph unicode="&#x422;" horiz-adv-x="1593" d="M129 938l41 461h1249l39 -461h-51q-8 86 -14.5 132t-20.5 99.5t-34.5 78t-56.5 48t-87 31.5t-123 8h-70q-117 0 -116 -75v-1100q0 -63 47 -80t209 -17h41v-63q-219 6 -363 6q-205 0 -413 -6v63h43q164 0 208.5 15.5t44.5 81.5v1100q0 51 -22.5 63t-81.5 12h-80 q-88 0 -145.5 -16t-92 -40t-55 -81t-29 -108.5t-16.5 -151.5h-51z" />
<glyph unicode="&#x423;" horiz-adv-x="1648" d="M102 1335v64l168 -6h84l295 6v-64h-10q-131 0 -131 -49q0 -18 31 -67l407 -678q8 -14 58 -101h2l264 748q10 25 10 45q0 37 -36 68.5t-116 33.5v64q113 -6 228 -6q98 0 196 6v-64q-59 -2 -100 -16t-65.5 -46t-32.5 -51.5t-25 -64.5l-250 -706q-20 -59 -32.5 -91 t-39 -92.5t-50 -96.5t-61.5 -82t-78 -71.5t-96 -44t-118 -18.5q-123 0 -197.5 85t-74.5 187q0 63 37 91t77 28q45 0 79 -31.5t34 -81.5q0 -47 -31.5 -79.5t-83.5 -32.5q-20 0 -32 2q72 -111 192 -111q49 0 102.5 17.5t118 72t103.5 138.5q-18 29 -66 108l-524 875 q-37 59 -55.5 77.5t-54 26.5t-124.5 8h-2z" />
<glyph unicode="&#x424;" horiz-adv-x="1820" d="M170 727q0 223 147 346q154 127 506 139v31q0 61 -43 76.5t-192 15.5h-29v64q174 -6 348 -6t348 6v-64h-26q-150 0 -193 -15t-43 -77v-31q653 -18 654 -485q0 -193 -117 -315q-152 -160 -537 -170v-78q0 -63 37 -82t187 -19h38v-63q-174 6 -348 6t-348 -6v63h41 q150 0 186.5 17.5t36.5 83.5v78q-385 10 -536 170q-117 122 -117 315zM375 727q0 -98 17.5 -169t64.5 -133.5t138 -96t228 -39.5v876q-260 -10 -354 -122.5t-94 -315.5zM993 289q135 6 225.5 39.5t137.5 95t65.5 133.5t18.5 170q0 203 -94.5 315.5t-352.5 122.5v-876z" />
</font>
</defs>
</svg>
