<?xml version="1.0" standalone="no"?>
<!DOCTYPE svg PUBLIC "-//W3C//DTD SVG 1.1//EN" "http://www.w3.org/Graphics/SVG/1.1/DTD/svg11.dtd" >
<svg xmlns="http://www.w3.org/2000/svg" xmlns:xlink="http://www.w3.org/1999/xlink" version="1.1">
<metadata></metadata>
<defs>
<font id="cmu_serif_extraboldslanted" horiz-adv-x="1177" >
<font-face units-per-em="2048" ascent="1638" descent="-410" />
<missing-glyph horiz-adv-x="784" />
<glyph unicode="&#xfb00;" horiz-adv-x="1374" d="M72 0l16 98h141l119 715h-149l16 98h152q20 164 41 246q37 125 194.5 201t394.5 76q78 0 128.5 -16.5t73 -32t34.5 -15.5q8 0 42 15.5t100.5 31t150.5 15.5q111 0 161 -49.5t50 -108.5q0 -57 -41 -101.5t-103 -44.5q-47 0 -79.5 30t-32.5 79q0 68 63 119q-4 0 -12 1 t-12 1q-96 0 -158 -57.5t-84 -129.5q-20 -63 -47 -260h248l-15 -98h-237l-121 -715h178l-16 -98q-145 6 -289 6q-139 0 -254 -6l16 98h142l121 715h-431l-120 -715h141l-14 -98q-221 6 -244 6q-131 0 -264 -6zM578 911h442l35 217q-33 39 -33 82q0 76 80 129q-57 18 -121 19 q-131 0 -231.5 -54.5t-128.5 -154.5q-23 -84 -43 -238z" />
<glyph unicode="&#xfb01;" horiz-adv-x="1308" d="M72 0l16 98h141l119 715h-149l16 98h152q23 188 43 250q39 129 204.5 201t393.5 72q131 0 202.5 -61.5t71.5 -149.5q0 -78 -48 -121t-106 -43q-53 0 -85.5 33.5t-32.5 83.5q0 104 114 147q-74 35 -141 35q-143 0 -240.5 -59.5t-124.5 -151.5q-20 -72 -40 -236h299l2 9 l364 10l-137 -832h141l-16 -98q-221 6 -244 6q-131 0 -262 -6l16 98h142l88 527q23 139 22 147q0 41 -47 41h-373l-120 -715h141l-14 -98q-221 6 -244 6q-131 0 -264 -6z" />
<glyph unicode="&#xfb02;" horiz-adv-x="1308" d="M72 0l16 98h141l119 715h-149l16 98h152q20 160 41 244q37 129 198.5 204t392.5 75q72 0 120 -11.5t63 -11.5q12 0 143 10l-219 -1323h141l-16 -98q-221 6 -244 6q-131 0 -262 -6l16 98h142l118 715h-428l-120 -715h141l-14 -98q-221 6 -244 6q-131 0 -264 -6zM578 911 h440q10 68 19.5 122t13.5 75.5t4 32t-14.5 39t-14.5 57.5q0 61 53 115q-47 6 -96 6q-100 0 -175 -27.5t-112 -62.5t-59.5 -82t-26.5 -71.5t-6 -45.5v-4q-4 -25 -13 -76t-13 -78z" />
<glyph unicode="&#xfb03;" horiz-adv-x="1961" d="M72 0l16 98h141l119 715h-149l16 98h152q23 188 43 250q10 31 29.5 61.5t64.5 70.5t106.5 70t162.5 50.5t226 20.5q147 0 230 -93q176 92 430 93q133 0 204.5 -61.5t71.5 -149.5q0 -72 -45 -117t-108 -45q-55 0 -86 33.5t-31 83.5q0 102 113 145q-70 35 -140 35 q-145 0 -242.5 -59.5t-123.5 -151.5q-20 -72 -41 -236h301v9l366 10l-137 -832h142l-17 -98q-221 6 -244 6q-131 0 -264 -6l17 98h141l88 527q23 139 23 147q0 41 -48 41h-372l-121 -715h143l-16 -98q-221 6 -244 6q-133 0 -264 -6l16 98h142l121 715h-431l-120 -715h141 l-14 -98q-221 6 -244 6q-131 0 -264 -6zM578 911h442l27 168q-47 43 -48 95q0 109 115 149q-55 35 -137 35q-127 0 -227.5 -54.5t-128.5 -154.5q-23 -84 -43 -238z" />
<glyph unicode="&#xfb04;" horiz-adv-x="1961" d="M72 0l16 98h141l119 715h-149l16 98h152q23 188 43 250q41 129 201.5 201t385.5 72q156 0 244 -84q180 84 414 84q72 0 122 -11.5t58 -11.5q16 0 145 10l-219 -1323h142l-17 -98q-221 6 -244 6q-131 0 -264 -6l17 98h141l121 715h-430l-121 -715h143l-16 -98 q-221 6 -244 6q-133 0 -264 -6l16 98h142l121 715h-431l-120 -715h141l-14 -98q-221 6 -244 6q-131 0 -264 -6zM578 911h442l35 217q-33 39 -33 82q0 76 80 129q-57 18 -121 19q-145 0 -239.5 -58.5t-120.5 -150.5q-23 -84 -43 -238zM1231 911h442q10 68 19.5 122t13.5 75.5 t4 32t-15.5 39t-15.5 57.5q0 59 56 115q-47 6 -99 6q-100 0 -175 -27.5t-111.5 -62.5t-59 -82t-26.5 -71.5t-7 -45.5v-4q-4 -25 -13 -76t-13 -78z" />
<glyph horiz-adv-x="0" />
<glyph unicode="&#xd;" horiz-adv-x="681" />
<glyph unicode=" "  horiz-adv-x="784" />
<glyph unicode="&#x09;" horiz-adv-x="784" />
<glyph unicode="&#xa0;" horiz-adv-x="784" />
<glyph unicode="!" horiz-adv-x="716" d="M223 141q0 72 55.5 125t124.5 53q61 0 101.5 -40.5t40.5 -100.5q0 -76 -56.5 -127t-123.5 -51q-59 0 -100.5 40t-41.5 101zM391 512q0 39 4 195l17 530q0 61 6 82q14 53 66.5 89t109.5 36t99 -37t42 -92q0 -12 -22 -94l-213 -699q-12 -37 -22.5 -48t-39.5 -11 q-47 0 -47 49z" />
<glyph unicode="&#x22;" d="M475 735q2 172 2 381q0 213 8 234v2q14 47 56.5 74.5t91.5 27.5q45 0 77.5 -26.5t32.5 -73.5q0 -33 -20 -90l-174 -529h-74zM868 735l2 62v90q2 156 2 391q0 55 17.5 94t45.5 54.5t49.5 21.5t41.5 6q45 0 79 -26.5t34 -73.5q0 -25 -34 -129.5t-85 -257t-76 -232.5h-76z " />
<glyph unicode="#" horiz-adv-x="1961" d="M178 285q0 37 58 37h419l183 380h-523q-59 0 -59 37t68 37h550l277 576q33 68 59 67q33 0 33 -37q0 -10 -20 -57l-265 -549h469l277 576q0 2 5 13t9 18.5t10.5 16.5t14.5 14t18 5q35 0 35 -37q0 -6 -22 -57l-265 -549h383q57 0 57.5 -37t-59.5 -37h-417l-183 -380h522 q61 0 62 -39q0 -37 -70 -37h-551l-276 -574q-2 -4 -6 -11t-6 -12t-6.5 -13.5t-8.5 -12.5t-8 -9t-9 -7t-11 -2h-7q-31 4 -30 37q0 6 22 57l262 547h-469l-276 -574q-2 -4 -6 -11t-6 -12t-6.5 -13.5t-8.5 -12.5t-8 -9t-9 -7t-11 -2h-7q-29 4 -28 37q0 10 20 57l264 547h-380 q-60 0 -60 39zM739 322h469l183 380h-469z" />
<glyph unicode="$" d="M188 315q0 113 46.5 157t105.5 44q47 0 80 -29.5t33 -78.5q0 -53 -39 -100.5t-117 -47.5h-2q49 -154 260 -172l84 514q-137 31 -209 84q-135 98 -135 274.5t132 317.5t351 154l17 104h98l-19 -104q102 -8 175 -39t110 -77t53.5 -92t16.5 -98q0 -106 -47 -149t-105 -43 q-49 0 -80.5 29.5t-31.5 79t34.5 97.5t118.5 50q-61 129 -258 143l-2 -2l-76 -454h4q190 -37 279 -172q57 -88 57 -207q0 -182 -129 -337t-358 -171l-17 -103h-98l17 103q-193 18 -271 111t-78 214zM479 1083q0 -145 211 -184l72 432q-86 -10 -146.5 -42t-88 -73.5 t-38 -73.5t-10.5 -59zM651 90q74 12 129.5 41t84 60.5t47 70.5t22.5 64.5t4 46.5q0 25 -6 48t-24.5 56t-62.5 60.5t-112 42.5z" />
<glyph unicode="%" horiz-adv-x="1961" d="M309 1030q0 199 118 352.5t308 153.5q90 0 162 -61q190 -156 424 -156q268 0 444 192q25 25 50 25q27 0 45 -18.5t18 -44.5q0 -25 -29 -54l-1415 -1505q-25 -29 -53 -29q-23 0 -42.5 16.5t-19.5 47.5q0 27 25 51l1204 1280l-2 2q-111 -37 -227 -37q-174 0 -346 88 q8 -35 8 -100q0 -131 -43 -248t-131 -195.5t-201 -78.5q-125 0 -211 81.5t-86 237.5zM508 938q0 -154 106 -154q119 0 196 144.5t77 310.5q0 102 -40 162.5t-112 60.5q-123 0 -178 -200q-12 -45 -30.5 -157t-18.5 -167zM1217 205q0 203 118.5 354.5t304.5 151.5 q104 0 176 -76t72 -227q0 -203 -102.5 -363t-272.5 -160q-125 0 -210.5 82t-85.5 238zM1415 113q0 -154 107 -154q117 0 194.5 142.5t77.5 312.5q0 109 -42 166t-110 57q-125 0 -178 -201q-12 -43 -30.5 -153.5t-18.5 -169.5z" />
<glyph unicode="&#x26;" horiz-adv-x="1830" d="M143 248q0 137 144 244l268 202q-33 127 -33 250q0 211 90 328q61 80 154.5 126t187.5 46q90 0 140.5 -62.5t50.5 -160.5q0 -68 -27.5 -122.5t-120.5 -144.5q-86 -86 -213 -180q27 -100 100.5 -225t112.5 -176t66 -84q190 156 477 506q-55 18 -143 18l16 96 q135 -6 248 -6q104 0 203 6l-17 -96q-133 0 -188 -18q-233 -276 -323.5 -373.5t-215.5 -200.5q4 -10 35 -40.5t96.5 -68.5t132.5 -38q86 0 164 43t94 125h97q-20 -117 -130 -191t-245 -74q-219 0 -410 129q-213 -129 -426 -129q-158 0 -271.5 71t-113.5 200zM414 274 q0 -201 141 -200q152 0 324 90q-203 180 -299 454q-86 -57 -126 -151.5t-40 -192.5zM748 1022q0 -82 16 -170q117 90 188 168q98 109 99 211q0 139 -93 139q-51 0 -97 -35t-75 -86q-38 -75 -38 -227z" />
<glyph unicode="'" horiz-adv-x="653" d="M410 735v107q0 14 2 165.5t2 192.5v53q0 94 20 129q41 72 133 72h2q49 -2 79 -28.5t30 -71.5v-2q0 -25 -88 -297q-61 -184 -105 -320h-75z" />
<glyph unicode="(" horiz-adv-x="915" d="M287 287q0 223 66.5 432t161.5 351t199.5 252t180.5 162t102 52q35 0 35 -29q0 -10 -4 -16q-4 -4 -39 -35q-152 -127 -259 -306t-158.5 -362.5t-73 -328t-21.5 -266.5q0 -401 209 -644q16 -18 16 -30q0 -29 -36 -29q-39 0 -127 95.5t-152 224.5q-100 209 -100 477z" />
<glyph unicode=")" horiz-adv-x="915" d="M51 -481q0 12 29 37q236 203 356 477q170 387 170 801q0 399 -205 641q-18 25 -18 32q0 29 37 29t124 -93t142 -204q111 -221 111 -500q0 -225 -66.5 -435t-163 -352t-200 -251t-179 -160t-100.5 -51q-37 0 -37 29z" />
<glyph unicode="*" d="M299 885q0 72 76 96l307 100l-266 99q-55 18 -56 67q0 43 34 78t75 35q8 0 15.5 -2t11.5 -2l4 -2l239 -207v278q0 53 29 80q31 31 76 31q35 0 56.5 -20.5t21.5 -47.5q0 -10 -9 -36l-94 -285l285 190q33 23 55 23q35 0 56.5 -25.5t21.5 -56.5q0 -72 -76 -96l-307 -101 l266 -98q55 -18 56 -68q0 -43 -34 -77.5t-75 -34.5q-8 0 -15.5 2t-11.5 2l-4 2l-239 207v-279q0 -53 -29 -80q-31 -31 -76 -30q-35 0 -56.5 20.5t-21.5 46.5q0 14 4 27l99 295l-254 -170q-61 -43 -86 -43q-35 0 -56.5 25.5t-21.5 56.5z" />
<glyph unicode="+" horiz-adv-x="1830" d="M217 512q0 37 68 37h684q0 6 57 354t61 359q12 33 37 32q35 0 35 -45q0 -18 -6 -49l-109 -651h670q68 0 68 -37t-66 -37h-684l-2 -2q-10 -68 -63.5 -387t-55.5 -328q-10 -29 -37 -28q-35 0 -34 41q0 16 20.5 135t50 292t43.5 277h-673q-64 0 -64 37z" />
<glyph unicode="," horiz-adv-x="653" d="M168 -356q0 14 25 32q195 139 249 361l-6 -4t-15 -9.5t-22.5 -10.5t-31 -9t-35.5 -4q-66 0 -104 38t-38 99q0 70 51.5 126t131.5 56q76 0 115.5 -58t39.5 -140q0 -94 -44 -194.5t-100 -168t-107.5 -111.5t-71.5 -44q-12 0 -24.5 14.5t-12.5 26.5z" />
<glyph unicode="-" horiz-adv-x="784" d="M84 356l33 199h626l-32 -199h-627z" />
<glyph unicode="." horiz-adv-x="653" d="M193 139q0 68 54 124t128 56q57 0 98 -38.5t41 -100.5q0 -70 -54 -125t-126 -55q-61 0 -101 40t-40 99z" />
<glyph unicode="/" d="M53 -473q0 14 15 35l1110 1874q4 6 15 26.5t16 28.5t15.5 20.5t18.5 17.5t17 5q14 0 23 -11.5t9 -25.5t-24 -55l-1123 -1895q-33 -57 -57 -57q-14 0 -24.5 11.5t-10.5 25.5z" />
<glyph unicode="0" d="M176 406q0 127 41 337.5t123 339.5q164 258 471 258q408 0 408 -434q0 -47 -8.5 -140t-47.5 -256t-100 -267q-156 -266 -479 -267q-408 1 -408 429zM414 254q0 -106 57 -154.5t125 -48.5t131.5 41t101.5 117q41 84 97.5 414.5t56.5 445.5q0 55 -17.5 96t-40 59.5t-53 30 t-45 12.5t-28.5 1q-78 0 -145.5 -48.5t-96.5 -121.5q-41 -117 -92 -431.5t-51 -412.5z" />
<glyph unicode="1" d="M197 0l16 96h285l174 1057q-131 -39 -273 -39h-39l15 96h41q279 0 452 131q27 0 39.5 -1t23.5 -10t11 -27q0 -2 -1 -6.5t-2 -10.5t-1 -12l-197 -1178h287l-16 -96q-90 6 -407.5 6t-407.5 -6z" />
<glyph unicode="2" d="M117 0l10 59q4 20 27 43l501 439q285 250 285 475q0 102 -57.5 165.5t-165.5 63.5q-55 0 -108.5 -17.5t-79 -31.5t-37.5 -25q94 -27 94 -120q0 -72 -51.5 -122t-118.5 -50q-45 0 -87 29.5t-42 95.5q0 133 139 235t350 102q199 0 323 -89t124 -244q0 -80 -30 -150 t-93.5 -131t-110.5 -96t-133 -90q-190 -125 -410 -285h297q193 0 213 12q39 25 82 187h97l-140 -455h-878z" />
<glyph unicode="3" d="M143 250q0 94 54.5 144t126 50t105.5 -41t34 -90q0 -59 -40 -112.5t-110 -65.5q92 -70 244 -69q150 0 221 137q23 43 38 115.5t19.5 116.5t4.5 61q0 180 -183 180h-88q-57 0 -57 29q0 41 25 45q4 0 11 1t30.5 2t58.5 3q78 4 137.5 52t87 114.5t40.5 121t13 93.5 q0 125 -145 125q-133 0 -242 -76q16 -4 35 -12.5t40.5 -37t21.5 -69.5q0 -66 -45 -115t-119 -49q-55 0 -90 33t-35 88q0 115 123 216t325 101q193 0 299.5 -69.5t106.5 -182t-92 -215t-252 -155.5q141 -33 219 -110t78 -193q0 -72 -34 -145.5t-100.5 -141.5t-183 -110 t-262.5 -42q-180 0 -300 72t-120 201z" />
<glyph unicode="4" d="M119 319l16 99l871 899q16 18 26 22t41 4q55 0 55 -30l-2 -29l-145 -868h199l-17 -97h-198l-37 -223h198l-16 -96q-72 6 -332 6q-274 0 -352 -6l16 96h230l37 223h-590zM242 416h506l106 635z" />
<glyph unicode="5" d="M168 283q0 51 15.5 89t36 55t47 27.5t38.5 12.5t23 2q45 0 83 -28.5t38 -88.5q0 -57 -39 -106t-123 -53q74 -127 241 -127q201 0 273 188q20 53 39.5 179t19.5 177q0 154 -141 154q-178 0 -295 -115q-23 -25 -47 -24q-45 0 -45 41q0 10 6 43l96 583q8 49 35 49 q6 0 33 -12q137 -53 301 -53t321 55q23 10 31 10q31 0 31 -30q0 -27 -42 -70t-80 -71.5t-71 -49.5q-164 -98 -338 -98q-55 0 -153 16l-43 -268q121 68 268 68q199 0 303.5 -98.5t104.5 -254.5q0 -209 -164 -358.5t-441 -149.5q-162 0 -262 87.5t-100 218.5z" />
<glyph unicode="6" d="M186 434q0 418 214 662.5t534 244.5q135 0 201.5 -60t66.5 -155q0 -90 -46 -131t-101 -41q-59 0 -87 33t-28 76q0 14 4 31.5t16.5 44t43 46t73.5 23.5q-43 53 -143 54q-176 0 -295 -144q-94 -117 -143 -411q106 150 266 149q193 0 293 -101.5t100 -244.5 q0 -231 -155.5 -382t-403.5 -151q-207 0 -308.5 121t-101.5 336zM434 244q0 -90 49 -134t115 -44q176 0 233 174q16 53 40 196.5t24 200.5q0 145 -156 145q-137 0 -221 -154.5t-84 -383.5z" />
<glyph unicode="7" d="M274 864l160 520h96q0 -39 41 -47q18 -6 171 -12t202 -6h418q-6 -53 -12.5 -67.5t-28.5 -39.5l-410 -403q-72 -84 -123 -216t-69.5 -217t-44.5 -243q-23 -156 -148 -156q-47 0 -80.5 29t-33.5 82q0 102 100 331.5t303 434.5q127 131 211 209h-344q-209 0 -225 -14 q-35 -25 -86 -185h-97z" />
<glyph unicode="8" d="M147 274q0 76 29 142.5t66 107.5t90 76t81.5 48.5t59.5 25.5q-150 98 -149 260q0 70 28.5 138.5t84 130t152.5 100t222 38.5q174 0 276.5 -65.5t102.5 -190.5q0 -207 -258 -329q51 -33 78.5 -55.5t64.5 -61.5t54.5 -89t17.5 -112q0 -74 -31 -150.5t-94.5 -148t-177 -117 t-258.5 -45.5q-199 0 -319 76t-120 221zM326 276q0 -113 78.5 -161.5t193.5 -48.5q176 0 263 70.5t87 164.5q0 55 -31.5 88t-132.5 92l-221 137q-102 -49 -169.5 -140t-67.5 -202zM500 1079q0 -57 73 -104l273 -166q190 113 190 276q0 84 -62.5 130.5t-174.5 46.5 q-164 0 -231.5 -57.5t-67.5 -125.5z" />
<glyph unicode="9" d="M195 197q0 90 46 129t101 39q53 0 83 -30t30 -79q0 -55 -35 -95t-88 -50q57 -45 160 -45q156 0 266 129q90 109 143 421q-102 -152 -266 -151q-201 0 -298 106.5t-97 239.5q0 229 157.5 379.5t413.5 150.5q199 0 299 -117.5t100 -330.5q0 -381 -188 -643 q-86 -119 -225.5 -196t-304.5 -77q-127 0 -212 52.5t-85 167.5zM502 688q0 -23 3 -40t15 -47t47 -46t88 -16q102 0 175 88t104 208.5t31 254.5q0 76 -41 124t-115 48q-178 0 -238 -160q-20 -61 -44.5 -208t-24.5 -206z" />
<glyph unicode=":" horiz-adv-x="653" d="M190 139q0 70 55.5 125t127.5 55q63 0 102 -39.5t39 -99.5q0 -70 -55.5 -125t-126.5 -55q-63 0 -102.5 40t-39.5 99zM289 729q0 70 55 125t127 55q63 0 102 -40t39 -99q0 -70 -55 -125t-127 -55q-63 0 -102 40t-39 99z" />
<glyph unicode=";" horiz-adv-x="653" d="M168 -356q0 14 25 32q195 139 249 361l-6 -4t-15 -9.5t-22.5 -10.5t-31 -9t-35.5 -4q-66 0 -104 38t-38 99q0 70 51.5 126t131.5 56q76 0 115.5 -58t39.5 -140q0 -94 -44 -194.5t-100 -168t-107.5 -111.5t-71.5 -44q-12 0 -24.5 14.5t-12.5 26.5zM291 731q0 70 53 124 t127 54q59 0 100 -37.5t41 -99.5q0 -74 -57 -127t-125 -53q-59 0 -99 39t-40 100z" />
<glyph unicode="&#x3c;" horiz-adv-x="1830" d="M283 512q0 27 49 45l1409 602q25 12 43 12q35 0 35 -34q0 -25 -47 -45l-1366 -584q33 -14 163 -80l1002 -500q39 -23 39 -43q0 -12 -10.5 -23.5t-24.5 -11.5q-8 0 -17.5 3.5t-19.5 9.5t-16 8l-1194 594q-45 24 -45 47z" />
<glyph unicode="=" horiz-adv-x="1830" d="M178 285q0 37 62 37h1450q53 0 53 -37t-51 -39h-1456q-58 0 -58 39zM254 739q0 37 59 37h1452q53 -2 53.5 -36.5t-53.5 -37.5h-1454q-57 0 -57 37z" />
<glyph unicode="&#x3e;" horiz-adv-x="1830" d="M180 -115q0 25 45 45l1164 498q23 10 63.5 26.5t74.5 31t64 28.5q-20 10 -186 92l-942 469q-68 33 -74 55q-4 16 6.5 28.5t28.5 12.5l55 -20l1192 -594q45 -25 45 -45q0 -29 -49 -47l-1409 -602q-25 -12 -43 -13q-35 0 -35 35z" />
<glyph unicode="?" horiz-adv-x="1112" d="M324 1151q0 100 111.5 191.5t336.5 91.5q406 0 406 -232q0 -150 -164 -235q-109 -59 -181.5 -120t-106.5 -124.5t-45 -97t-22 -88.5q-8 -53 -10 -56q-4 -10 -10 -12q-8 -6 -35 -6q-47 0 -47 33q0 57 27 149q59 215 247 379q90 76 91 236q0 20 -3.5 32.5t-17.5 30.5 t-50 27.5t-95 9.5q-139 0 -246 -68q74 -25 74 -102q0 -63 -43 -105.5t-103 -42.5q-51 0 -82.5 31t-31.5 78zM387 139q0 72 54.5 126t127.5 54q61 0 101.5 -40.5t40.5 -98.5q0 -72 -54.5 -126t-128.5 -54q-61 0 -101 41t-40 98z" />
<glyph unicode="@" horiz-adv-x="1830" d="M238 582q0 154 57 301t165.5 272t288 202t400.5 77q303 0 490.5 -154t187.5 -440q0 -63 -14.5 -147.5t-49 -188t-108.5 -173t-176 -69.5q-184 0 -242 92q-111 -92 -279 -92q-176 0 -289.5 95.5t-113.5 273.5q0 129 58.5 246.5t186.5 199.5t300 82q221 0 305 -172h78 q23 0 33 -1t19 -8t9 -24q0 -45 -45 -270q-45 -270 -45 -278q0 -70 49 -70q68 0 117 67.5t70.5 163t31 166t9.5 109.5q0 256 -162 387t-424 131q-195 0 -354.5 -69.5t-256 -184.5t-148.5 -250t-52 -276q0 -229 148.5 -374t445.5 -145q309 0 618 115q35 14 72 14h49 q20 0 30.5 -1t18.5 -7t8 -20q0 -18 -22 -29q-375 -145 -776 -145q-342 0 -515 166t-173 428zM784 588q0 -106 45 -179t140 -73q129 0 231 96q29 27 33 60l74 444q2 18 6 33q-66 117 -211 116q-143 0 -230.5 -157.5t-87.5 -339.5z" />
<glyph unicode="A" horiz-adv-x="1779" d="M84 0l16 96h43q53 0 107 6q39 4 51 10.5t25 28.5l714 1241q27 47 86 48q39 0 51.5 -10.5t22.5 -47.5l311 -1276h199l-16 -96q-72 6 -332 6q-285 0 -363 -6l15 96h194l-71 299h-549l-158 -276q33 -14 86 -19q37 -4 94 -4l-16 -96q-76 6 -268 6q-29 0 -69 -1t-92 -3t-81 -2 zM645 492h467l-139 569z" />
<glyph unicode="B" horiz-adv-x="1675" d="M80 0l14 96h223l201 1213h-221l16 96h889q193 0 323 -77t130 -230q0 -131 -107.5 -230.5t-302.5 -134.5q170 -14 267.5 -95t97.5 -208q0 -162 -152.5 -296t-427.5 -134h-950zM586 96h377q170 0 259 107.5t89 257.5q0 66 -20.5 114t-45 69.5t-62.5 34.5t-57.5 14t-42.5 1 h-397zM698 768h320q164 0 256 102.5t92 239.5q0 199 -207 199h-371z" />
<glyph unicode="C" horiz-adv-x="1699" d="M238 582q0 158 63.5 307t180 270t300 194.5t404.5 73.5q231 0 383 -139l182 139q51 0 51 -30q0 -4 -4 -25l-76 -454q-6 -33 -14 -39.5t-43 -6.5q-14 0 -21.5 1t-20.5 6.5t-13 16.5t2 32q-8 203 -121 303t-266 100q-152 0 -288 -57t-218 -164q-49 -63 -85 -151.5 t-53.5 -159t-26.5 -148.5t-10 -106.5t-1 -46.5q0 -203 112 -310q120 -114 351 -114h4q102 0 206.5 35.5t204 132t131.5 237.5q6 29 50 29q47 0 47 -31q0 -4 -3.5 -21.5t-15.5 -55.5t-32.5 -77.5t-63.5 -92t-98 -95.5q-207 -158 -480 -158q-324 0 -521 158t-197 447z" />
<glyph unicode="D" horiz-adv-x="1804" d="M80 0l14 96h223l201 1213h-221l16 96h883q111 0 212 -29.5t192.5 -92t145.5 -178.5t54 -271q0 -346 -232.5 -590t-604.5 -244h-883zM596 96h299q96 0 178 22.5t136.5 53.5t100.5 81t69.5 89t45 96.5t27.5 82t16 65.5q43 258 43 340q0 199 -114 293q-111 90 -301 90h-297z " />
<glyph unicode="E" horiz-adv-x="1546" d="M80 0l14 96h223l199 1200h-221l16 97h1272l-18 -494h-97q2 18 2 68q0 176 -74.5 252.5t-275.5 76.5h-311l-88 -526h113q131 0 184 53.5t72 186.5h96l-96 -576h-97q12 55 13 98q0 84 -48.5 113t-140.5 29h-112l-97 -578h312q115 0 201.5 25.5t138 59.5t96.5 105.5 t66.5 122t56.5 152.5h96l-189 -561h-1306z" />
<glyph unicode="F" horiz-adv-x="1480" d="M80 0l14 96h223l199 1200h-221l16 97h1239l-18 -494h-96q2 20 2 74q0 172 -71 247.5t-273 75.5h-285l-92 -551h102q129 0 182.5 52.5t71.5 187.5h96l-96 -575h-96q12 59 12 100q0 80 -46 109.5t-140 29.5h-103l-92 -553h277l-17 -96q-90 6 -411 6q-299 0 -377 -6z" />
<glyph unicode="G" horiz-adv-x="1851" d="M238 582q0 158 62 306t178 270t300.5 195.5t407.5 73.5q229 0 381 -139l182 139q51 0 51 -30q0 -4 -4 -25l-76 -454q-6 -33 -14 -39.5t-43 -6.5q-14 0 -21.5 1t-20.5 6.5t-13 16.5t2 32q-6 193 -116 298t-271 105q-74 0 -151 -14t-181.5 -67.5t-173.5 -141.5 q-47 -59 -83 -144t-52.5 -156t-26.5 -147.5t-11 -108.5t-1 -50q0 -207 121 -318q124 -110 350 -110h4q133 0 217 57q47 33 62.5 64.5t27.5 101.5q6 29 14.5 86t14.5 86h-293l14 96h2q90 -6 416 -6q260 0 332 6l-17 -96h-163l-70 -424q-8 -45 -33 -45q-6 0 -37.5 14.5t-75 41 t-69.5 50.5q-143 -129 -402 -129q-330 0 -525 159t-195 446z" />
<glyph unicode="H" horiz-adv-x="1843" d="M80 0l14 96h223l201 1213h-221l16 96q78 -6 367 -6q291 0 369 6l-17 -96h-221l-88 -531h655l88 531h-221l17 96q78 -6 366 -6q291 0 369 6l-17 -96h-221l-203 -1213h222l-17 -96q-78 6 -366.5 6t-366.5 -6l14 96h224l96 586h-655l-99 -586h221l-16 -96q-78 6 -366.5 6 t-366.5 -6z" />
<glyph unicode="I" horiz-adv-x="892" d="M68 0l16 96h233l201 1213h-231l16 96q78 -6 377 -6q301 0 379 6l-17 -96h-231l-203 -1213h234l-19 -96q-78 6 -377 6q-294 0 -378 -6z" />
<glyph unicode="J" horiz-adv-x="1216" d="M84 205q0 88 55.5 137t122.5 49q53 0 96 -34.5t43 -100.5q0 -123 -125 -172q74 -33 158 -33q102 0 167 69.5t83 178.5l168 1010h-287l15 96h2q90 -6 405 -6q254 0 328 6l-17 -96h-165l-168 -1010q-23 -145 -162 -233.5t-357 -88.5q-166 0 -264 61t-98 167z" />
<glyph unicode="K" horiz-adv-x="1845" d="M80 0l14 96h223l201 1213h-221l16 96q78 -6 367 -6q291 0 369 6l-17 -96h-221l-111 -656l865 633v2q-53 20 -144 21l17 96q74 -6 299 -6q104 0 209 6l-15 -96h-37q-145 0 -196 -37l-561 -410l432 -727q10 -16 18 -23.5t35 -11.5t80 -4h59l-16 -96q-76 6 -299 6 q-276 0 -361 -6l17 96q151 0 151 23q0 8 -10 22l-332 555l-231 -168l-72 -432h221l-16 -96q-78 6 -366.5 6t-366.5 -6z" />
<glyph unicode="L" horiz-adv-x="1415" d="M80 0l14 96h223l201 1213h-221l16 96q78 -6 375 -6q317 0 416 6l-17 -96h-276l-203 -1213h211q88 0 161 22.5t123 67.5t85 86t62.5 106.5t37.5 96.5t27 86h96l-158 -561h-1173z" />
<glyph unicode="M" horiz-adv-x="2234" d="M82 0l14 96h54q121 0 172 21l198 1192h-221l16 96h457q45 0 57.5 -9.5t22.5 -45.5l311 -1080l674 1086q20 35 38.5 42t57.5 7h455l-16 -96h-222l-202 -1213h221l-17 -96q-74 6 -348 6q-276 0 -350 -6l14 96h224l200 1209l-2 2l-782 -1260q-27 -47 -70 -47q-20 0 -32.5 9 t-16.5 18.5t-10 31.5l-350 1221h-2l-195 -1163q51 -20 164 -21h53l-16 -96q-78 6 -275 6q-192 0 -276 -6z" />
<glyph unicode="N" horiz-adv-x="1843" d="M80 0l14 96h53q121 0 172 21l199 1192h-221l16 96h465q33 0 43 -4t25 -25l655 -960l139 839l2 25q0 29 -161 29h-54l17 96q84 -6 276 -6q197 0 277 6l-17 -96h-53q-55 0 -106 -6q-45 -4 -55.5 -10.5t-14.5 -32.5l-201 -1207q-6 -35 -17 -44t-42 -9q-25 0 -32 4t-23 27 l-822 1200l-184 -1114q51 -20 164 -21h53l-16 -96q-78 6 -275 6q-192 0 -276 -6z" />
<glyph unicode="O" horiz-adv-x="1767" d="M236 555q0 162 58 315.5t166.5 279.5t280.5 201.5t379 75.5q299 0 472 -155.5t173 -431.5q0 -160 -57 -311.5t-163.5 -275.5t-279.5 -200t-384 -76q-287 0 -466 146.5t-179 431.5zM541 485q0 -190 80 -295q98 -127 274 -127q106 0 219 58.5t197 191.5q61 100 99 254 t47 243t9 134q0 117 -33.5 201t-91 125t-115 58.5t-118.5 17.5q-150 0 -287 -96.5t-205 -301.5q-37 -111 -56 -249t-19 -214z" />
<glyph unicode="P" horiz-adv-x="1609" d="M80 0l14 96h223l201 1213h-221l16 96h854q213 0 347.5 -89t134.5 -253q0 -190 -171 -317.5t-421 -127.5h-361l-88 -522h221l-16 -96q-78 6 -366.5 6t-366.5 -6zM698 702h273q203 0 291 99q37 43 60.5 146.5t23.5 180.5q0 180 -273 181h-274z" />
<glyph unicode="Q" horiz-adv-x="1767" d="M236 555q0 162 58 315.5t166.5 279.5t280.5 201.5t379 75.5q299 0 472 -155.5t173 -431.5q0 -258 -145 -487.5t-406 -317.5q29 -55 63 -83t52.5 -32t50.5 -4q166 0 193 82q12 39 39 39q14 0 25.5 -10.5t11.5 -28.5q0 -27 -19.5 -85t-56.5 -131t-107.5 -126t-156.5 -53 q-49 0 -85 12t-59.5 43t-38 58.5t-24.5 83t-13.5 91t-9.5 105.5q-98 -18 -198 -19q-287 0 -466 146.5t-179 431.5zM526 475q0 -274 185 -373q-4 20 -4 29q0 76 66.5 131t156.5 55q59 0 107 -29.5t72 -61t52 -85.5q88 55 152.5 157.5t94.5 198t46 206t18.5 152.5t2.5 69 q0 119 -34 206t-91.5 132t-116.5 64.5t-125 19.5q-244 0 -408 -220q-94 -131 -134 -331.5t-40 -319.5zM782 131q0 -72 111 -72q88 0 176 33q-12 80 -45 116t-92.5 36t-104.5 -34t-45 -79z" />
<glyph unicode="R" horiz-adv-x="1765" d="M80 0l14 96h223l201 1213h-221l16 96h779q242 0 396 -88t154 -248q0 -135 -115.5 -234.5t-289.5 -140.5q195 -72 195 -248q0 -25 -4.5 -106.5t-4.5 -106.5q0 -84 21.5 -133t87.5 -49q45 0 92 34t70 120q10 35 49 35q47 0 47 -37q0 -18 -13.5 -50t-40 -74t-86 -72 t-134.5 -30q-410 0 -410 238q0 29 16 121q20 119 21 143q0 72 -47 129.5t-160 57.5h-246l-94 -570h221l-16 -96q-74 6 -360.5 6t-360.5 -6zM705 739h235q203 0 305 90q49 43 69.5 137.5t20.5 151.5q0 90 -63.5 140.5t-233.5 50.5h-239z" />
<glyph unicode="S" horiz-adv-x="1306" d="M133 6l68 416q4 31 13 38t38 7q49 0 49 -31q0 -2 -3 -20.5t-3 -48.5q0 -94 47 -158t123 -90.5t134 -35.5t118 -9q88 0 153.5 30.5t98 76.5t48 91t15.5 84q0 55 -20.5 95.5t-58.5 62t-57 28.5t-52 15q-106 23 -174 39q-78 16 -116 26.5t-84 36t-85 66.5q-90 96 -90 233 q0 74 30.5 153t91 151.5t166 118.5t238.5 46q205 0 336 -114l111 96q20 18 39 18q36 0 36 -28q0 -5 -4 -27l-63 -387q-4 -23 -11.5 -33t-14.5 -12t-27 -2q-25 0 -34 5t-11 14.5t-2 33.5q-6 348 -357 348q-156 0 -230.5 -81.5t-74.5 -170.5q0 -70 47 -115.5t121 -62.5 l276 -61q139 -31 216 -133.5t77 -229.5q0 -80 -30.5 -163.5t-91 -163.5t-169 -130.5t-247.5 -50.5q-256 0 -396 113q-35 -33 -108 -94q-23 -18 -41 -19q-35 0 -35 29z" />
<glyph unicode="T" horiz-adv-x="1638" d="M233 889l127 493h1377l-39 -493h-96q8 66 8 137q0 57 -7.5 95t-33 80t-84 63.5t-150.5 21.5h-155l-199 -1190h313l-16 -96q-111 6 -459 6t-459 -6l17 96h313l197 1190h-156q-72 0 -127 -11t-95 -41t-64.5 -56.5t-48 -83t-35 -92t-31.5 -113.5h-97z" />
<glyph unicode="U" horiz-adv-x="1810" d="M297 1309l16 96q78 -6 367 -6q291 0 369 6l-17 -96h-221l-143 -860q-12 -78 -13 -119q0 -256 306 -256q225 0 357 113.5t161 281.5l131 786l2 25q0 29 -162 29h-53l16 96q84 -6 277 -6q197 0 276 6l-16 -96h-54q-53 0 -106 -6q-45 -4 -55.5 -10.5t-14.5 -32.5l-133 -801 q-14 -84 -56 -163t-116 -153.5t-194.5 -120t-272.5 -45.5q-283 0 -429 121t-146 303q0 29 6 68l139 840h-221z" />
<glyph unicode="V" horiz-adv-x="1779" d="M270 1309l17 96q72 -6 323 -6q285 0 363 6l-15 -96h-192l270 -981l570 934q12 18 12 22q0 25 -174 25l16 96q76 -6 266 -6q31 0 70 1t88 3t76 2l-16 -96h-39q-72 0 -111 -6.5t-48 -14.5t-20 -24l-749 -1229q-20 -33 -37.5 -42t-52.5 -9q-41 0 -53.5 10t-20.5 43 l-352 1272h-191z" />
<glyph unicode="W" horiz-adv-x="2433" d="M268 1309l17 96q74 -6 311 -6q281 0 358 6l-14 -96h-197l205 -938l400 721l-50 217h-174l17 96q74 -6 311 -6q281 0 358 6l-14 -96h-197l205 -938l492 886l12 31q-63 20 -203 21l17 96q76 -6 276 -6q59 0 219 6l-16 -96q-86 0 -126 -5.5t-51 -12.5t-22 -27l-682 -1229 q-12 -20 -18 -28.5t-21.5 -15.5t-38.5 -7q-29 0 -44 10t-21 45l-201 919l-512 -923q-12 -20 -18 -28.5t-21.5 -15.5t-38.5 -7q-29 0 -44 10t-21 45l-279 1270h-174z" />
<glyph unicode="X" horiz-adv-x="1779" d="M70 0l16 96h59q59 0 123 6q51 4 65.5 10.5t33.5 24.5l501 545l-348 627h-201l15 96h2q72 -6 330 -6q293 0 370 6l-16 -96h-170l225 -404l352 381q-68 23 -184 23l14 96h3q72 -6 309 -6q188 0 274 6l-16 -96h-60q-66 0 -127 -6q-47 -4 -61 -10.5t-29 -22.5l-424 -457 l400 -717h200l-18 -96q-72 6 -330 6q-287 0 -370 -6l16 96h170l-274 494l-433 -471q70 -23 185 -23l-17 -96q-74 6 -311 6q-188 0 -274 -6z" />
<glyph unicode="Y" horiz-adv-x="1779" d="M258 1309l16 96q72 -6 336 -6q291 0 375 6l-16 -96h-174l315 -609l496 586q-2 0 -2 2t-3.5 4t-9.5 2q-41 14 -139 15l16 96q80 -6 271 -6q25 0 233 6l-16 -96h-41q-53 0 -115 -6q-37 -4 -48 -9.5t-30 -27.5l-600 -705l-78 -465h224l-19 -96q-74 6 -360.5 6t-360.5 -6 l15 96h223l78 465l-387 748h-199z" />
<glyph unicode="Z" horiz-adv-x="1437" d="M137 33q0 37 31 73l1018 1203h-266q-205 0 -332 -91.5t-176 -306.5h-97l107 494h1053q59 0 59 -31q0 -35 -27 -69l-1018 -1201h287q88 0 161 16.5t123 39t92 64.5t65.5 76t46 91.5t33 93t24.5 97.5h96l-133 -582h-1087q-23 0 -32 1t-18.5 8.5t-9.5 23.5z" />
<glyph unicode="[" horiz-adv-x="653" d="M129 -512l342 2048h385l-10 -74h-166l-315 -1900h163l-12 -74h-387z" />
<glyph unicode="\" d="M381 1495q0 16 10 27.5t25 11.5q16 0 26.5 -12.5t13.5 -23.5t3 -15l502 -1927q2 -10 2 -27q0 -39 -33 -39q-16 0 -26.5 12.5t-13.5 23.5t-3 15l-502 1927q-4 17 -4 27z" />
<glyph unicode="]" horiz-adv-x="653" d="M-33 -512l13 74h163l318 1900h-164l12 74h385l-340 -2048h-387z" />
<glyph unicode="^" horiz-adv-x="1439" d="M442 1028l492 266l403 -266v-2l-59 -84l-373 184l-432 -184z" />
<glyph unicode="_" horiz-adv-x="1830" d="M102 -569q0 63 82 63h1268q84 0 84 -63q0 -61 -82 -62h-1270q-82 1 -82 62z" />
<glyph unicode="`" d="M434 1208q0 51 44 99.5t97 48.5q39 0 87 -45q12 -14 198 -215v-2l-63 -82q-51 18 -135 49q-158 57 -193 78.5t-35 68.5z" />
<glyph unicode="a" horiz-adv-x="1144" d="M100 195q0 90 72 163.5t186 112.5q76 27 149 41t127 18.5t187 12.5q18 106 19 139q0 172 -187 172q-33 0 -69.5 -3t-60 -7t-23.5 -6t3 -6.5t3 -6.5q23 -29 22 -67q0 -63 -44 -105.5t-101 -42.5q-51 0 -83 31t-32 78q0 209 396 209q219 0 313 -78t94 -188q0 -37 -18 -134 q-18 -111 -21 -127q-45 -225 -45 -268q0 -37 115 -37q51 0 51 -39q0 -27 -10 -40t-22.5 -15t-37.5 -2h-98q-199 0 -199 115q0 16 5 37q-2 -6 -13.5 -20.5t-40 -40t-63.5 -48.5t-91.5 -39t-117.5 -16q-49 0 -99.5 6t-117 24.5t-107.5 64.5t-41 112zM340 195q0 -59 45 -96.5 t113 -37.5q109 0 192 70q74 59 92 176q4 29 14.5 86.5t14.5 85.5q-145 -6 -246.5 -42t-145.5 -84t-61.5 -86.5t-17.5 -71.5z" />
<glyph unicode="b" horiz-adv-x="1306" d="M217 0l203 1221q6 33 6 45q0 23 -10 30t-39 11q-23 2 -84 2l16 96l367 16l-98 -594q150 94 309 95q195 0 310.5 -102.5t115.5 -280.5q0 -221 -163 -386t-435 -165q-184 0 -279 129q-20 -20 -43 -39q-41 -37 -78 -78h-98zM485 205q0 -8 12.5 -29.5t36 -48.5t67.5 -46.5 t97 -19.5q84 0 159 43t118 119q43 78 65.5 218.5t22.5 191.5q0 27 -4 51.5t-20.5 67.5t-61.5 69.5t-115 26.5q-164 0 -293 -135l-80 -484q-4 -20 -4 -24z" />
<glyph unicode="c" horiz-adv-x="1046" d="M147 375q0 96 36 191.5t105.5 177t188.5 133t268 51.5q332 0 332 -166q0 -72 -46 -112t-99 -40q-51 0 -83 31t-32 78q0 74 57 117q-61 10 -124 10q-184 0 -267 -162q-33 -66 -53 -161t-24.5 -141t-4.5 -65q0 -127 64.5 -187t167.5 -60q88 0 163.5 43t116.5 116 q16 29 24.5 34t33.5 5q47 0 47 -28q0 -8 -12.5 -33t-44 -63t-77.5 -72.5t-125 -59t-171 -24.5q-188 0 -314.5 96t-126.5 291z" />
<glyph unicode="d" horiz-adv-x="1306" d="M147 371q0 233 166 392t428 159q160 0 265 -95l65 394q6 33 6 45q0 23 -10 30t-39 11q-23 2 -84 2l17 96l366 16l-209 -1255q0 -6 -1 -12.5t-2 -9.5t-1 -5q0 -31 25.5 -37t107.5 -6l-16 -96l-377 -12l14 96q-139 -96 -297 -96q-174 0 -299 93t-125 290zM395 276 q0 -92 47 -153.5t152 -61.5q102 0 190 60q102 66 113 127l80 479q-74 121 -217 121q-78 0 -155 -40t-122 -122q-43 -78 -65.5 -218.5t-22.5 -191.5z" />
<glyph unicode="e" horiz-adv-x="1079" d="M135 383q0 96 37 190.5t106.5 174t184.5 130t256 50.5q182 0 282.5 -83t100.5 -255q0 -100 -14.5 -122t-61.5 -22h-623q-16 -98 -16 -143q0 -119 62 -174q66 -59 176 -59q27 0 56.5 4t81.5 19.5t103.5 54t85.5 98.5q23 31 52 30q47 0 47 -36q0 -12 -14.5 -39t-50.5 -64 t-85 -69.5t-127 -56t-170 -23.5q-217 0 -343 107.5t-126 287.5zM414 514h489q10 92 10 113q0 227 -192 227q-241 0 -307 -340z" />
<glyph unicode="f" horiz-adv-x="718" d="M98 0l15 96h143l119 717h-154l17 96h153l35 217q23 137 151 222.5t318 85.5q106 0 158.5 -47.5t52.5 -110.5q0 -66 -45 -107t-98 -41q-43 0 -78 28t-35 81q0 78 63 119q-8 4 -26 4q-94 0 -162 -61.5t-86 -157.5l-39 -232h248l-17 -96h-235l-119 -717h178l-18 -96 q-80 6 -281 6q-74 0 -258 -6z" />
<glyph unicode="g" d="M39 -174q0 80 63.5 131t143.5 68q-59 63 -60 155q0 121 101 226q-72 72 -72 174q0 133 119 237.5t336 104.5q174 0 266 -68q106 78 227 78q66 0 91.5 -35t25.5 -70q0 -41 -26.5 -71.5t-73.5 -30.5q-33 0 -55.5 19.5t-22.5 56.5q0 33 14 53q-63 -6 -133 -43 q53 -68 53 -154q0 -131 -116.5 -236.5t-339.5 -105.5q-152 0 -242 54q-37 -43 -37 -95q0 -104 129 -104h135q70 0 106 -1t100.5 -6t101 -14.5t84 -29t72 -48t43 -72.5t18.5 -99q0 -88 -51.5 -151.5t-137.5 -97.5t-179 -48.5t-198 -14.5q-256 0 -370.5 70t-114.5 168z M215 -176q0 -72 79 -117t232 -45q195 0 289 66.5t94 138.5q0 106 -270 106h-238q-61 0 -103 -19.5t-57.5 -49t-20.5 -48t-5 -32.5zM434 518q0 -20 3 -36.5t16.5 -41t46 -38t84.5 -13.5q63 0 112 27.5t72 68.5q18 35 30.5 94.5t15.5 94.5t3 45q0 129 -149 129 q-125 0 -183 -90q-23 -39 -37 -120t-14 -120z" />
<glyph unicode="h" horiz-adv-x="1306" d="M92 0l14 96h144l186 1125q6 33 6 45q0 23 -10 30t-39 11q-23 2 -84 2l17 96l366 16l-114 -690h2q27 37 65.5 74t124.5 77t182 40q154 0 215.5 -58.5t61.5 -163.5q0 -39 -6 -75l-88 -529h141l-16 -96q-172 6 -259 6q-158 0 -258 -6l15 96h143l96 582q4 25 4 61 q0 53 -17 81t-66 28q-117 0 -222.5 -84t-136.5 -211q-6 -51 -76 -457h142l-17 -96q-172 6 -258 6q-158 0 -258 -6z" />
<glyph unicode="i" horiz-adv-x="653" d="M96 0l15 96h143l106 647q0 4 2.5 13.5t2.5 11.5q0 29 -26 35t-101 6l16 96l358 17l-137 -826h127l-16 -96q-197 6 -240 6q-96 0 -250 -6zM369 1243q0 72 55 126t127 54q61 0 101 -41t40 -98q0 -70 -54 -125t-128 -55q-61 0 -101 41t-40 98z" />
<glyph unicode="j" horiz-adv-x="718" d="M-154 -242q0 61 42 104.5t104 43.5q53 0 83.5 -33t30.5 -78q0 -72 -49 -108q-14 -10 -14 -13q0 -10 68 -10q86 0 135 80t63 162l137 823q6 33 7 37q0 16 -10.5 25.5t-18.5 11.5t-28.5 4t-90.5 2l14 96l381 17l-168 -1016q-25 -141 -146.5 -228.5t-270.5 -87.5 q-117 0 -193 43t-76 125zM436 1243q0 74 55.5 127t126.5 53q61 0 101.5 -41t40.5 -100q0 -68 -54.5 -123t-127.5 -55q-59 0 -100.5 40t-41.5 99z" />
<glyph unicode="k" horiz-adv-x="1241" d="M76 0l14 96h143l187 1125q6 33 6 45q0 23 -10 30t-39 11q-23 2 -84 2l16 96l367 16l-156 -934l416 287q18 14 18 19q0 22 -58 22h-5l16 94q154 -6 234 -6q113 0 162 6l-17 -96q-141 0 -190 -35l-301 -209l276 -434q10 -14 14.5 -19t14.5 -10.5t26 -7.5q23 -2 91 -2 l-15 -96q-109 6 -211 6q-154 0 -252 -6l17 96q68 0 67 21l-4 6q-2 4 -5 9t-3 7l-195 307l-129 -90l-43 -260h142l-17 -96q-227 6 -245 6q-45 0 -248 -6z" />
<glyph unicode="l" horiz-adv-x="653" d="M96 0l15 96h143l186 1125q6 33 6 45q0 23 -10 30t-39 11q-23 2 -84 2l17 96l366 16l-221 -1325h141l-16 -96q-209 6 -252 6q-92 0 -252 -6z" />
<glyph unicode="m" horiz-adv-x="1961" d="M92 0l14 96h144l106 645q4 20 4 27q0 29 -27.5 35t-107.5 6l17 96l356 17l-35 -211h2q10 14 19.5 27.5t47.5 51t78 63.5t105.5 47.5t136.5 21.5q150 0 210.5 -51.5t68.5 -143.5q10 14 20.5 26.5t47 46.5t75.5 58.5t101.5 44t130.5 19.5q156 0 217 -58.5t61 -163.5 q0 -39 -6 -75l-88 -529h141l-16 -96q-172 6 -258 6q-158 0 -258 -6l14 96h143l97 582q4 25 4 59q0 57 -18.5 84t-67.5 27q-115 0 -221.5 -84t-137.5 -211q-6 -51 -75 -457h141l-16 -96q-172 6 -258 6q-156 0 -259 -6l15 96h143l96 582q4 25 5 59q0 57 -18.5 84t-67.5 27 q-115 0 -221.5 -84t-137.5 -211q-6 -51 -76 -457h142l-17 -96q-172 6 -258 6q-158 0 -258 -6z" />
<glyph unicode="n" horiz-adv-x="1306" d="M92 0l14 96h144l106 645q4 20 4 27q0 29 -27.5 35t-107.5 6l17 96l356 17l-35 -211h2q55 84 153.5 147.5t233.5 63.5q154 0 215.5 -58.5t61.5 -163.5q0 -39 -6 -75l-88 -529h141l-16 -96q-172 6 -259 6q-158 0 -258 -6l15 96h143l96 582q4 25 4 61q0 53 -17 81t-66 28 q-117 0 -222.5 -84t-136.5 -211q-6 -51 -76 -457h142l-17 -96q-172 6 -258 6q-158 0 -258 -6z" />
<glyph unicode="o" d="M133 365q0 215 162 389t446 174q203 0 327 -100.5t124 -292.5q0 -219 -161 -383t-445 -164q-211 0 -332 100.5t-121 276.5zM385 281q0 -31 4 -55.5t21.5 -65.5t65.5 -65.5t124 -24.5q84 0 156.5 40t105.5 115q37 78 60.5 217.5t23.5 204.5q0 23 -1 40.5t-13 51t-32.5 56 t-64.5 41t-106 18.5q-193 0 -270 -166q-27 -57 -50.5 -195t-23.5 -212z" />
<glyph unicode="p" horiz-adv-x="1306" d="M8 -397l17 96h141l174 1042q4 20 4 27q0 23 -12.5 29t-38.5 10q-23 2 -84 2l16 96l367 17l-14 -97q152 96 317 97q193 0 305.5 -102.5t112.5 -278.5q0 -223 -162 -388t-436 -165q-156 0 -250 94l-64 -383h142l-17 -96q-104 6 -258 6q-131 0 -260 -6zM485 197 q66 -135 211 -136q111 0 195 81t124 197t40 241q0 41 -8.5 80.5t-28 82.5t-60 70t-100.5 27q-145 0 -264 -107q-27 -27 -31 -57z" />
<glyph unicode="q" horiz-adv-x="1241" d="M147 373q0 229 164 389t426 160q190 0 285 -164q8 8 100 119q12 20 37 45h84l-203 -1223h142l-17 -96q-104 6 -258 6q-131 0 -260 -6l17 96h141l65 395q-137 -106 -299 -106q-74 0 -143.5 18.5t-135 59t-105.5 119.5t-40 188zM403 326q0 -117 49.5 -191t143.5 -74 q53 0 105.5 19.5t88 48.5t64.5 58.5t43 50t14 24.5q0 2 9 55q37 215 36 222q12 49 13 77q0 10 -4 31t-17.5 55.5t-35 64.5t-61.5 51.5t-93 21.5q-156 0 -255.5 -154.5t-99.5 -359.5z" />
<glyph unicode="r" horiz-adv-x="968" d="M76 0l14 96h143l107 645q4 20 4 27q0 29 -27.5 35t-107.5 6l16 96l344 17l-34 -217q117 217 301 217q80 0 138 -39t58 -111q0 -63 -43 -103t-98 -40q-41 0 -76 25.5t-35 80.5q0 68 51 113q-66 -2 -122 -39t-88.5 -86t-57 -106.5t-35 -93.5t-12.5 -56l-61 -371h178 l-19 -96q-80 6 -280 6q-74 0 -258 -6z" />
<glyph unicode="s" horiz-adv-x="927" d="M82 16l2 29l41 238q4 31 12 38t39 7t38 -7.5t11 -33.5q12 -92 54.5 -145.5t88.5 -67t109 -13.5q74 0 129.5 18.5t80 40t38.5 52.5t16 44t2 24q0 29 -14 51t-33.5 35.5t-61.5 27t-70.5 19.5t-90.5 16q-289 49 -289 238q0 18 2 39.5t26 73t62.5 89t124.5 68.5t205 31 q127 0 203 -39q78 39 96 39q37 0 37 -33q0 -2 -1 -5t-2 -9.5t-1 -12.5l-29 -174q-6 -31 -15 -38t-36 -7q-49 0 -49 31q0 2 2 16.5t2 20.5q0 145 -209 145q-72 0 -125 -14t-77.5 -31.5t-38 -43t-15.5 -37t-2 -21.5q0 -29 16.5 -49.5t54.5 -34t63.5 -19.5t82.5 -16 q74 -12 105.5 -19.5t71.5 -24.5t75 -44q88 -74 88 -182q0 -23 -4 -50.5t-27.5 -83t-64.5 -97.5t-128 -74.5t-204 -32.5q-141 0 -229 65q-6 -4 -30 -17t-30 -18q-47 -30 -66 -30h-1h-2q-33 0 -33 28z" />
<glyph unicode="t" horiz-adv-x="915" d="M178 813l6 35t6 39q150 4 248.5 129t126.5 284h97l-66 -391h299l-16 -96h-299l-95 -575q-6 -35 -6 -62q0 -106 92 -106q82 0 131 102q18 39 43 190h97q-20 -135 -32.5 -176t-51.5 -92q-86 -106 -219 -106q-291 0 -291 213q0 23 6 57l92 555h-168z" />
<glyph unicode="u" horiz-adv-x="1306" d="M225 809l17 96l379 17l-121 -727q-4 -25 -4 -54q0 -18 3 -28.5t14 -23.5t43 -20.5t81 -7.5q123 0 205 83t98 188l68 409q0 6 1 11.5t2 9.5t1 6q0 29 -28 35t-107 6l16 96l379 17l-125 -756q0 -6 -1 -12.5t-2 -9.5t-1 -5q0 -31 25.5 -37t107.5 -6l-16 -96l-365 -12l25 149 h-2q-112 -149 -311 -149h-3q-72 0 -125 8t-104 29.5t-78 65.5t-27 110q0 23 6 57l80 483q0 6 1 11.5t2 9.5t1 6q0 29 -27.5 35t-107.5 6z" />
<glyph unicode="v" horiz-adv-x="1241" d="M188 813l19 96q227 -6 229 -6q176 0 256 6l-16 -96h-111l168 -559l324 514q12 16 12 23q0 22 -86 22h-8l18 96q104 -6 183 -6q86 0 163 6l-18 -96q-61 0 -94 -5t-41 -12.5t-21 -25.5l-460 -727q-12 -18 -19.5 -26.5t-24 -16.5t-40.5 -8q-20 0 -30.5 2t-23 14t-18.5 37 l-230 768h-131z" />
<glyph unicode="w" horiz-adv-x="1699" d="M186 813l17 96q209 -6 223 -6q154 0 252 6l-16 -96h-115l127 -528l227 397q12 12 12 25l-24 106h-121l16 96q98 -6 205 -6q43 0 234 6l-17 -96h-114l139 -573l303 526l12 27q-39 20 -114 20l16 96q74 -6 194 -6q86 0 158 6l-16 -96q-57 0 -88 -6t-39 -13.5t-19 -23.5 l-417 -729q-29 -49 -80 -49q-35 0 -47.5 11t-20.5 46l-127 529l-307 -537q-29 -49 -80 -49q-35 0 -47 12t-20 45l-185 764h-121z" />
<glyph unicode="x" horiz-adv-x="1241" d="M45 0l16 96q82 0 126 5t57.5 12.5t27.5 21.5l320 301l-256 377h-146l19 96q160 -6 223 -6q88 0 248 6l-16 -96h-80l159 -235l224 213q-12 12 -31 18q-27 6 -43 6l16 94q172 -6 211 -6q94 0 187 6l-15 -96h-2q-80 0 -124 -5t-57 -12.5t-28 -21.5l-288 -270l276 -408h145 l-16 -96q-209 6 -223 6q-100 0 -248 -6l14 96h82l-180 266l-237 -225q-12 -12 -19 -22q35 -20 74 -21l-17 -94q-172 6 -211 6q-82 0 -188 -6z" />
<glyph unicode="y" horiz-adv-x="1241" d="M6 -248q0 68 42 107t97 39q41 0 71 -24t30 -73q0 -45 -24.5 -79.5t-59.5 -49.5q18 -8 47 -8q119 0 211 117q20 25 57 79t62.5 96t25.5 46q0 8 -6 27l-240 784h-131l19 96q227 -6 229 -6q162 0 256 6l-16 -96h-111l168 -553l324 508l14 27q-33 18 -96 18l16 96 q129 -6 185 -6q86 0 163 6l-16 -96q-63 0 -95 -5t-42 -12.5t-21 -25.5l-602 -942q-66 -102 -165 -170t-201 -68q-84 0 -137.5 46t-53.5 116zM143 -315zM152 -322z" />
<glyph unicode="z" horiz-adv-x="1046" d="M72 33q0 27 28 59l707 744h-184q-160 0 -230.5 -62.5t-105.5 -222.5h-97l84 358h752q23 0 32 -1t18 -8t9 -23q0 -25 -28 -54l-703 -741h187q98 0 164.5 20.5t107.5 68.5t62.5 100.5t44.5 142.5h96l-107 -414h-778q-23 0 -32 1t-18 8.5t-9 23.5z" />
<glyph unicode="{" d="M244 510q0 12 4 20.5t14 12.5t18.5 5t26 2t25.5 3q86 12 157.5 61.5t100.5 122.5q10 25 50 283t54 295q25 61 81 106t114.5 66.5t134.5 33t113 13.5t77 2q51 0 52 -35q0 -25 -14.5 -32t-54.5 -11t-67 -10q-193 -47 -221 -225q-80 -479 -88 -502q-51 -147 -280 -211 q209 -55 209 -217q0 -43 -43 -286t-43 -275q0 -72 60 -116t159 -52q53 -4 53 -35q0 -41 -51 -41q-260 2 -358.5 72.5t-98.5 167.5q0 33 44 283.5t44 281.5q0 66 -55 118t-156 62q-2 0 -10 1t-12 1t-11.5 1t-11.5 4t-8 7.5t-6 9.5t-2 13z" />
<glyph unicode="|" horiz-adv-x="653" d="M190 -446q0 20 9 61l305 1827q10 92 67 92q25 0 43.5 -17.5t18.5 -46.5q0 -4 -6 -47l-305 -1831l-3 -10q-2 -12 -2 -14t-3 -13.5t-4 -14.5l-4 -12t-7 -12t-9 -9.5t-10.5 -9.5t-13.5 -5t-16 -2q-25 0 -42.5 17.5t-17.5 46.5z" />
<glyph unicode="}" d="M82 -477q0 25 13.5 33t54 11t67.5 9q154 37 203 152q14 33 54 288.5t52 290.5q10 27 24.5 49.5t32 41t37 33.5t41 26.5t39 20.5t37 15.5l31.5 10.5t25 8l12 2q-209 59 -209 217q0 29 44 280t44 281q0 76 -65.5 119t-155.5 49q-53 4 -53 35q0 41 51 41q258 0 357.5 -71.5 t99.5 -168.5q0 -33 -43.5 -283.5t-43.5 -281.5q0 -68 55.5 -119t153.5 -61q2 0 10.5 -1t12.5 -1t11 -1t11.5 -4t8.5 -7.5t6 -9.5t2 -13q0 -12 -4 -20.5t-14.5 -12.5t-17.5 -5t-24.5 -2t-25.5 -3q-86 -12 -159 -61.5t-99 -122.5q-10 -27 -52 -285t-55 -293 q-84 -221 -520 -221q-49 0 -49 35z" />
<glyph unicode="~" horiz-adv-x="1439" d="M403 1251q12 12 50.5 48t49.5 44.5t41.5 31t51 27.5t53.5 12t72 7q82 0 247 -34.5t249 -34.5q57 0 104 15t59.5 23.5t42.5 30.5l45 -49v-2q-12 -12 -43.5 -42t-42 -39t-36 -29.5t-41 -26.5t-41 -16.5t-53 -13.5t-60.5 -3q-82 0 -247 35t-249 35q-119 0 -206 -70z" />
<glyph unicode="&#xa1;" horiz-adv-x="716" d="M150 -293q0 16 22 92l213 699q0 2 5 17t7 19.5t9.5 13.5t16.5 12t23 3q49 0 50 -51l-21 -713q0 -66 -4 -84q-10 -55 -62.5 -95t-115.5 -40q-59 0 -101 36t-42 91zM342 846q0 72 55.5 125t124.5 53q61 0 100.5 -40t39.5 -99q0 -70 -54.5 -125t-126.5 -55q-59 0 -99 40 t-40 101z" />
<glyph unicode="&#xa2;" d="M147 385q0 86 34 172t102.5 168t192.5 137.5t284 63.5l31 190h96l-31 -188q74 -2 116 -5t107.5 -17.5t98 -50.5t32.5 -91q0 -61 -42 -106.5t-105 -45.5q-47 0 -80 29t-33 80q0 59 54 115q-27 4 -160 8l-129 -772q94 4 163.5 31.5t98.5 54t55.5 61.5t30.5 39q14 10 43 10 q41 0 41 -28q0 -10 -11.5 -33t-43 -58.5t-78.5 -68.5t-130 -58.5t-184 -31.5l-30 -189h-99l31 189q-207 10 -331 115.5t-124 279.5zM406 346q0 -219 212 -266l125 760q-160 -27 -232.5 -131.5t-96.5 -274.5q-8 -57 -8 -88z" />
<glyph unicode="&#xa3;" horiz-adv-x="1681" d="M145 90q0 72 79 133.5t237 61.5q31 0 119 -11l67 388h-108q-57 0 -58 38q0 27 9.5 41.5t20.5 16.5t30 2h123q41 293 59 352q35 121 124 200t179 104.5t184 25.5q154 0 249 -92.5t95 -227.5q0 -74 -30.5 -119t-60 -55t-60.5 -10q-47 0 -80 30.5t-33 80t36 96.5t120 49 q-27 90 -93.5 131t-140.5 41q-119 0 -192 -90q-33 -43 -56.5 -133t-66.5 -383h180q51 0 51 -39q0 -27 -11 -41t-21.5 -16t-28.5 -2h-186q-8 -53 -18.5 -111.5t-14.5 -87.5t-11.5 -65t-8.5 -48t-7 -33.5t-7 -27.5t-8 -21.5t-10 -22.5t-14 -26q8 -2 46 -15.5t71 -22.5 t77 -21.5t88 -18.5t81 -6q106 0 163.5 44t73.5 89q10 27 18.5 36t33.5 9q49 0 49 -37q0 -84 -111.5 -185t-290.5 -101q-35 0 -74.5 5t-69.5 11t-74 18.5t-66.5 19.5t-70.5 23.5t-62 20.5q-139 -100 -330 -100q-189 0 -189 102zM279 94q0 -31 55 -31q92 0 170 66 q-49 8 -109 8q-116 0 -116 -43z" />
<glyph unicode="&#xa5;" horiz-adv-x="1779" d="M213 446.5q0 36.5 61 36.5h555l15 80l-158 301h-321q-37 0 -50.5 4t-21.5 19q-8 16 -2 28.5t16 16.5q14 6 60 6h280l-190 369h-201l16 98q147 -6 330 -6q193 0 383 6l-16 -98h-172l190 -369h285q27 0 39 6t32 33q250 297 252 305q0 25 -143 25l16 98q137 -6 277 -6 q92 0 227 6l-14 -98h-4q-100 0 -148.5 -7.5t-61.5 -15.5t-36 -35l-264 -311h207q104 0 114 -4q37 -16 21 -47q-12 -23 -57 -23h-308q-29 0 -39 -5t-30 -30q-37 -43 -75 -86t-57.5 -66.5t-39 -46t-28.5 -35.5t-17.5 -22.5t-11.5 -21.5t-5 -16.5t-4 -22.5t-4 -29h545 q59 0 59 -37q0 -39 -59 -38q-4 0 -8.5 1t-6.5 1h-542l-54 -312h222l-15 -98q-176 6 -354 6q-186 0 -371 -6l17 98h223l51 312h-543q-61 0 -61 36.5zM1026 864l84 -162l137 162h-221z" />
<glyph unicode="&#xa7;" horiz-adv-x="1083" d="M168 -184q0 78 45 113.5t90 35.5q43 0 73 -28.5t30 -71.5q0 -41 -27 -80t-80 -51q68 -68 178 -68q123 0 203 92t80 166q0 16 -7.5 30.5t-22.5 27t-30.5 21.5t-40 20.5t-43 18.5t-47 17.5t-43.5 16.5q-117 47 -198.5 146.5t-81.5 238.5q0 211 200 323q-102 125 -102 265 q0 176 133 279.5t299 103.5q133 0 220 -62.5t87 -165.5q0 -78 -44 -111.5t-89 -33.5q-43 0 -72.5 28.5t-29.5 71.5q0 100 106 129q-70 70 -178 70q-125 0 -203.5 -92t-78.5 -166q0 -23 15 -42.5t47 -36.5t56.5 -28.5t63.5 -26t49 -18.5q137 -55 209 -159.5t72 -227.5 q0 -215 -201 -321q104 -123 104 -265q0 -174 -134 -279.5t-300 -105.5q-131 0 -219 63t-88 163zM395 512q0 -45 49.5 -74.5t141.5 -63.5t143 -69q63 43 96 105.5t33 101.5q0 45 -49 74.5t-141.5 63.5t-143.5 69h-2q-66 -49 -96.5 -108.5t-30.5 -98.5z" />
<glyph unicode="&#xa8;" d="M406 1227q0 72 55 125t125 53q59 0 100 -40t41 -101q0 -68 -53 -123.5t-127 -55.5q-61 0 -101 41.5t-40 100.5zM864 1227q0 70 54.5 124t125.5 54q61 0 101.5 -41t40.5 -100q0 -68 -53.5 -123.5t-126.5 -55.5q-61 0 -101.5 41.5t-40.5 100.5z" />
<glyph unicode="&#xa9;" horiz-adv-x="2615" d="M201 336q0 147 39 303t154.5 343t297.5 318q356 258 862 259q461 0 746 -225.5t285 -645.5q0 -174 -53.5 -347t-164 -330.5t-268 -279.5t-383 -194t-487.5 -72q-301 0 -530.5 96.5t-363.5 295t-134 479.5zM324 336q0 -365 247.5 -555.5t657.5 -190.5q236 0 439.5 62.5 t346 169t244.5 248t151.5 298t49.5 320.5q0 365 -247 555.5t-657 190.5q-94 0 -190 -10.5t-236.5 -50.5t-259 -104.5t-240.5 -188.5t-200 -287q-106 -230 -106 -457zM729 420q0 229 205 407.5t561 178.5q174 0 295 -86q147 84 166 84q35 0 35 -37q0 -14 -52 -316 q-4 -31 -15 -41t-40 -10q-41 0 -50 12.5t-11 55.5t-21 84q-72 156 -266 155q-268 0 -391 -159q-59 -78 -84 -197t-25 -197q0 -279 359 -278q172 0 293 100q45 39 68.5 79t26.5 61.5t15 35t43 13.5q43 0 43 -35q0 -43 -33.5 -99.5t-95 -115t-173.5 -98.5t-247 -40 q-117 0 -221 25t-192 74t-140.5 138t-52.5 206z" />
<glyph unicode="&#xaa;" horiz-adv-x="1046" d="M70 608q0 37 57 37h745q49 -2 50 -41q0 -35 -56 -35h-741q-55 0 -55 39zM90 905q0 199 569 207q25 152 25 199q0 168 -113 168q-43 0 -129 -31v-2q55 -39 56 -96q0 -59 -44 -102.5t-102 -43.5q-49 0 -80.5 30t-31.5 79q0 94 96 166.5t254 72.5q141 0 232 -72.5t91 -209.5 q0 -33 -59 -396q47 -8 90 -8h10q66 0 66 -43q0 -55 -62 -55h-127q-100 0 -136 17.5t-46 58.5q-86 -86 -262 -86q-297 0 -297 147zM332 907q0 -33 28.5 -54.5t75.5 -21.5q125 0 172 60q20 25 39 156l-16 -3q-14 0 -30.5 -2t-42.5 -5t-50.5 -8t-51 -12t-48 -17.5t-39 -23.5 t-27.5 -31t-10 -38z" />
<glyph unicode="&#xab;" horiz-adv-x="1308" d="M340 483q0 8 5 16.5t10 11.5t14.5 8t11.5 7q272 152 455 389q2 4 8 11.5t8 10.5t6 8t6 7t6 5.5t6.5 4.5t6.5 3t7 2h7q12 0 23.5 -8.5t11.5 -20.5q0 -20 -45 -95t-131 -181.5t-174 -180.5q84 -115 133 -225.5t57 -163.5l8 -53q0 -37 -35 -37q-27 0 -47 45 q-102 248 -325 397q-33 27 -33 39zM737 483q0 8 5.5 16.5t10.5 11.5t14 8t11 7q272 152 455 389q2 4 8 11.5t8 10.5t6.5 8t6.5 7t6 5.5t6 4.5l6 3t7 2h7q12 0 23.5 -8.5t11.5 -20.5q0 -20 -45 -95t-131 -181.5t-174 -180.5q84 -115 133 -225.5t57 -163.5l9 -53 q0 -37 -35 -37q-27 0 -47 45q-102 248 -326 397q-33 27 -33 39z" />
<glyph unicode="&#xac;" horiz-adv-x="1568" d="M248 696q0 61 80 62h1145q80 0 79 -66q0 -2 -77 -471q-12 -72 -35 -88q-14 -8 -33 -8q-23 0 -42 16.5t-19 42.5q0 53 73 451h-1100q-41 2 -56 21.5t-15 39.5z" />
<glyph unicode="&#xad;" horiz-adv-x="784" d="M84 356l33 199h626l-32 -199h-627z" />
<glyph unicode="&#xae;" horiz-adv-x="2615" d="M201 336q0 147 39 303t154.5 343t297.5 318q356 258 862 259q461 0 746 -225.5t285 -645.5q0 -174 -53.5 -347t-164 -330.5t-268 -279.5t-383 -194t-487.5 -72q-301 0 -530.5 96.5t-363.5 295t-134 479.5zM324 336q0 -365 247.5 -555.5t657.5 -190.5q236 0 439.5 62.5 t346 169t244.5 248t151.5 298t49.5 320.5q0 365 -247 555.5t-657 190.5q-94 0 -190 -10.5t-236.5 -50.5t-259 -104.5t-240.5 -188.5t-200 -287q-106 -230 -106 -457zM563 0l17 98h221l131 787h-221l16 98h645q227 0 354 -45q94 -33 142.5 -86t48.5 -117q0 -90 -85 -154.5 t-212 -95.5q55 -33 82 -67.5t32 -63t5 -80.5v-28q0 -41 3 -68.5t12 -59.5t32.5 -48.5t60.5 -16.5q43 0 82 31t58 84q2 2 4 11t4 13.5t6 12.5t9 11t12.5 6t17.5 3q47 0 47 -43q0 -8 -4 -26.5t-21.5 -51t-44 -59.5t-78 -47.5t-116.5 -20.5h-11q-84 0 -134 4.5t-117.5 19.5 t-101.5 54t-34 103q0 29 12.5 94t12.5 86q0 25 -9 48.5t-44 46t-92 22.5h-164l-60 -357h222l-17 -98q-176 6 -352 6q-187 0 -371 -6zM1153 528h121q133 0 200.5 20.5t91 56.5t36.5 110q6 49 6 53q0 68 -58.5 92.5t-195.5 24.5h-142z" />
<glyph unicode="&#xaf;" d="M383 1321l16 106h850l-16 -106h-850z" />
<glyph unicode="&#xb0;" horiz-adv-x="784" d="M317 1104q0 123 84 212t215 89q104 0 167 -60.5t63 -160.5q0 -125 -84 -213t-213 -88q-104 0 -168 60.5t-64 160.5zM442 1104q0 -49 30 -73.5t75 -24.5q72 0 124 50t52 128q0 96 -107 96q-76 0 -125 -51t-49 -125z" />
<glyph unicode="&#xb1;" horiz-adv-x="1830" d="M129 -16q0 63 84 63h647l98 598h-616q-33 0 -47 4q-45 14 -45 59.5t45 57.5q16 4 49 4h637q2 14 104 635q12 86 68 86q27 0 44 -18.5t17 -42.5q0 -10 -27.5 -174t-54 -324t-26.5 -162h618q33 0 48 -4q45 -14 45 -57q0 -45 -48 -60q-16 -4 -49 -4h-635l-100 -598h629 q80 0 80 -63q0 -61 -80 -62h-1403q-82 1 -82 62z" />
<glyph unicode="&#xb4;" d="M680 1096q289 231 317 247q23 10 52 13h2q45 0 72.5 -34t27.5 -77q0 -68 -51 -97.5t-252 -92.5q-82 -27 -131 -43z" />
<glyph unicode="&#xb5;" horiz-adv-x="1308" d="M23 -399l16 98h141q4 20 10.5 61t10.5 62l153 917v21q0 31 -24.5 39t-106.5 8l17 98l378 17q-125 -760 -124 -779q0 -41 29.5 -60.5t111.5 -19.5q113 0 189.5 68t103.5 154q10 31 45 247t35 228q0 29 -21.5 38t-87.5 9h-22l16 98l379 17l-123 -732q-4 -37 -4 -45 q0 -29 21.5 -38t82.5 -9h27l-16 -98l-367 -10l25 153q-119 -154 -322 -153q-74 0 -131 8l-49 -299h141l-16 -98q-131 6 -267 6h-6q-106 0 -245 -6z" />
<glyph unicode="&#xb6;" horiz-adv-x="1439" d="M281 877q0 209 189 376.5t505 167.5h541q82 0 81 -61q0 -39 -36 -55q-14 -6 -62 -7h-106l-263 -1572h93q45 0 59 -9q33 -14 33 -53q0 -63 -80 -63h-645q-76 2 -76 63.5t80 61.5h125l121 725q-420 41 -529 284q-30 68 -30 142zM844 -274h162l262 1572h-162z" />
<glyph unicode="&#xb7;" horiz-adv-x="563" d="M201 463q0 68 54 124t128 56q57 0 98 -38.5t41 -100.5q0 -70 -54 -125t-126 -55q-61 0 -101 40t-40 99z" />
<glyph unicode="&#xb8;" horiz-adv-x="1046" d="M141 -408l13 74h24q178 0 281.5 22.5t103.5 96.5q0 86 -178 92l21 123h233l-10 -61q170 -31 170 -142q0 -117 -151.5 -161t-483.5 -44h-23z" />
<glyph unicode="&#xba;" horiz-adv-x="1046" d="M70 608q0 37 57 37h745q49 -2 50 -41q0 -35 -56 -35h-741q-55 0 -55 39zM123 1077q0 80 31.5 161t93 152.5t168 116.5t239.5 45q180 0 287 -88t107 -247q0 -184 -141.5 -321.5t-387.5 -137.5q-176 0 -286.5 80.5t-110.5 238.5zM373 985q0 -145 162 -145q125 0 182 86 q37 53 61.5 198.5t24.5 206.5q0 147 -164 148q-123 0 -182 -88q-31 -45 -57.5 -185.5t-26.5 -220.5z" />
<glyph unicode="&#xbb;" horiz-adv-x="1308" d="M137 31q0 18 44 92t129 179.5t177 182.5q-84 117 -134 227.5t-58 164.5l-6 51q0 39 35 39q27 0 45 -45q106 -248 327 -398q33 -27 33 -41q0 -18 -43 -41q-260 -145 -453 -391q-37 -49 -63 -49q-33 0 -33 29zM535 31q0 41 114.5 196.5t235.5 257.5q-84 117 -134.5 227.5 t-58.5 164.5l-6 51q0 39 35 39q27 0 45 -45q106 -248 328 -398q33 -27 32 -41q0 -18 -43 -41q-260 -145 -452 -391q-37 -49 -62 -49q-34 0 -34 29z" />
<glyph unicode="&#xbf;" horiz-adv-x="1112" d="M102 -182q0 139 121 225q2 0 35 22.5t57.5 40t65.5 54.5t69.5 73.5t55 91t39.5 111.5q4 18 8 46t6 38t8 22.5t16.5 15.5t28.5 3q45 0 45 -37q0 -10 -2 -29.5t-13 -77t-31.5 -114.5t-62.5 -136t-99 -147q-43 -51 -58.5 -83.5t-30.5 -122.5q-6 -39 -6 -70q0 -41 24.5 -60.5 t88.5 -19.5q180 0 299 70q-70 35 -70 102q0 57 43 101.5t105 44.5q47 0 79.5 -30t32.5 -81q0 -47 -24.5 -92t-78.5 -89t-156.5 -72t-239.5 -28q-355 1 -355 228zM506 846q0 72 55 125t125 53q61 0 101 -40t40 -99q0 -70 -54 -125t-126 -55q-59 0 -100 40t-41 101z" />
<glyph unicode="&#xc0;" horiz-adv-x="1779" d="M84 0l16 96h43q53 0 107 6q39 4 51 10.5t25 28.5l714 1241q27 47 86 48q39 0 51.5 -10.5t22.5 -47.5l311 -1276h199l-16 -96q-72 6 -332 6q-285 0 -363 -6l15 96h194l-71 299h-549l-158 -276q33 -14 86 -19q37 -4 94 -4l-16 -96q-76 6 -268 6q-29 0 -69 -1t-92 -3t-81 -2 zM645 492h467l-139 569zM846 1645q0 55 42 101t95 46q29 0 61.5 -19.5t155.5 -107.5q61 -45 100 -72l-49 -92q-283 41 -344 61t-61 83z" />
<glyph unicode="&#xc1;" horiz-adv-x="1779" d="M84 0l16 96h43q53 0 107 6q39 4 51 10.5t25 28.5l714 1241q27 47 86 48q39 0 51.5 -10.5t22.5 -47.5l311 -1276h199l-16 -96q-72 6 -332 6q-285 0 -363 -6l15 96h194l-71 299h-549l-158 -276q33 -14 86 -19q37 -4 94 -4l-16 -96q-76 6 -268 6q-29 0 -69 -1t-92 -3t-81 -2 zM645 492h467l-139 569zM940 1593q326 186 348 195q14 4 35 4q43 0 69.5 -31.5t26.5 -74.5q0 -68 -57 -109q-16 -10 -22.5 -13t-99.5 -20.5t-282 -42.5z" />
<glyph unicode="&#xc2;" horiz-adv-x="1779" d="M84 0l16 96h43q53 0 107 6q39 4 51 10.5t25 28.5l714 1241q27 47 86 48q39 0 51.5 -10.5t22.5 -47.5l311 -1276h199l-16 -96q-72 6 -332 6q-285 0 -363 -6l15 96h194l-71 299h-549l-158 -276q33 -14 86 -19q37 -4 94 -4l-16 -96q-76 6 -268 6q-29 0 -69 -1t-92 -3t-81 -2 zM645 492h467l-139 569zM829 1587l365 256l281 -256v-2l-70 -78l-238 166l-295 -166z" />
<glyph unicode="&#xc3;" horiz-adv-x="1779" d="M84 0l16 96h43q53 0 107 6q39 4 51 10.5t25 28.5l714 1241q27 47 86 48q39 0 51.5 -10.5t22.5 -47.5l311 -1276h199l-16 -96q-72 6 -332 6q-285 0 -363 -6l15 96h194l-71 299h-549l-158 -276q33 -14 86 -19q37 -4 94 -4l-16 -96q-76 6 -268 6q-29 0 -69 -1t-92 -3t-81 -2 zM645 492h467l-139 569zM707 1661v2q12 10 45.5 40t45 39t38 29.5t41 26.5t38 16.5t47 13.5t50.5 3q59 0 196.5 -35t198.5 -35q104 0 190 70l43 -51v-2q-12 -10 -40.5 -36t-39 -35t-34 -27.5t-34.5 -25.5t-32.5 -18.5t-38 -15.5t-38 -7t-46.5 -3q-61 0 -197 34.5t-198 34.5 q-100 0 -190 -69z" />
<glyph unicode="&#xc4;" horiz-adv-x="1779" d="M84 0l16 96h43q53 0 107 6q39 4 51 10.5t25 28.5l714 1241q27 47 86 48q39 0 51.5 -10.5t22.5 -47.5l311 -1276h199l-16 -96q-72 6 -332 6q-285 0 -363 -6l15 96h194l-71 299h-549l-158 -276q33 -14 86 -19q37 -4 94 -4l-16 -96q-76 6 -268 6q-29 0 -69 -1t-92 -3t-81 -2 zM645 492h467l-139 569zM776 1653q0 72 55.5 125t124.5 53q59 0 100.5 -40t41.5 -101q0 -76 -56.5 -127.5t-123.5 -51.5q-61 0 -101.5 41.5t-40.5 100.5zM1233 1651q0 72 56.5 125t125.5 53q61 0 100 -40t39 -99q0 -70 -54 -124.5t-126 -54.5q-61 0 -101 40.5t-40 99.5z" />
<glyph unicode="&#xc5;" horiz-adv-x="1779" d="M82 0l16 98q104 0 148.5 6.5t56.5 16.5t33 43l694 1204q-125 49 -125 184q0 119 80 207t211 88q98 0 153.5 -53t55.5 -143q0 -84 -48 -165t-157 -118l309 -1270h201l-16 -98q-162 6 -326 6q-186 0 -371 -6l17 98h194l-71 295h-551l-158 -274q27 -10 180 -21l-16 -98 q-135 6 -273 6q-131 0 -237 -6zM643 492h469l-139 569zM999 1536q0 -106 125 -106q98 0 132 48t49 140q4 33 4 49q0 106 -123 107q-51 0 -87 -14.5t-54.5 -44t-26.5 -57.5t-14 -73q-5 -33 -5 -49z" />
<glyph unicode="&#xc6;" horiz-adv-x="2131" d="M82 0l16 98q104 0 148.5 6.5t56.5 15.5t31 40l676 1147h-158l16 98h1303l-21 -496h-96q0 16 1 45t1 45q0 164 -71.5 236t-262.5 72h-247l-97 -582h109q135 0 194.5 44t81.5 194h99l-97 -576h-96q10 51 10 96q0 86 -48 114t-134 30h-135l-88 -529h227q96 0 169 11.5 t127 42t89 60.5t69 94.5t53.5 112.5t51.5 144h99l-189 -563h-1151l17 98h165l89 529h-363q-82 -147 -157.5 -272.5t-102.5 -168.5t-27 -59t41 -23q43 -6 129 -6l-16 -98q-135 6 -272 6q-121 0 -240 -6zM784 725h322l96 582h-76z" />
<glyph unicode="&#xc7;" horiz-adv-x="1699" d="M236 582q0 160 64.5 311t182 270t300 191.5t401.5 72.5q233 0 383 -139h2q162 129 182 135q6 2 12 2q35 0 35 -36q0 -10 -18.5 -126t-38.5 -227l-19 -112q-6 -31 -17 -41.5t-38 -10.5h-4q-29 0 -40 9.5t-13 40.5q0 182 -107.5 294.5t-279.5 112.5q-168 0 -311.5 -68.5 t-227.5 -197.5q-78 -119 -110.5 -285t-32.5 -280q0 -98 28.5 -174t73.5 -121t108.5 -75t126 -41t132.5 -11q182 0 335.5 104.5t196.5 270.5q6 23 8 30.5t14.5 16t34.5 8.5q45 0 46 -35q0 -39 -29 -103.5t-89.5 -142.5t-179 -145.5t-272.5 -93.5l-8 -47q170 -29 170 -140 q0 -119 -150.5 -163t-474.5 -44h-32l12 74h22q178 0 282.5 23.5t104.5 97.5q0 84 -178 90l17 107q-289 33 -446.5 187.5t-157.5 410.5z" />
<glyph unicode="&#xc8;" horiz-adv-x="1546" d="M80 0l14 96h223l199 1200h-221l16 97h1272l-18 -494h-97q2 18 2 68q0 176 -74.5 252.5t-275.5 76.5h-311l-88 -526h113q131 0 184 53.5t72 186.5h96l-96 -576h-97q12 55 13 98q0 84 -48.5 113t-140.5 29h-112l-97 -578h312q115 0 201.5 25.5t138 59.5t96.5 105.5 t66.5 122t56.5 152.5h96l-189 -561h-1306zM817 1645q0 55 42 101t95 46q29 0 62 -19.5t155 -107.5q61 -45 101 -72l-49 -92q-283 41 -344.5 61t-61.5 83z" />
<glyph unicode="&#xc9;" horiz-adv-x="1546" d="M80 0l14 96h223l199 1200h-221l16 97h1272l-18 -494h-97q2 18 2 68q0 176 -74.5 252.5t-275.5 76.5h-311l-88 -526h113q131 0 184 53.5t72 186.5h96l-96 -576h-97q12 55 13 98q0 84 -48.5 113t-140.5 29h-112l-97 -578h312q115 0 201.5 25.5t138 59.5t96.5 105.5 t66.5 122t56.5 152.5h96l-189 -561h-1306zM944 1593q328 186 348 193q14 6 35 6q43 0 69.5 -31.5t26.5 -74.5q0 -27 -8 -49.5t-23.5 -37t-30.5 -24.5t-39 -16.5t-37 -9.5t-34.5 -6t-25.5 -3q-100 -16 -262 -39z" />
<glyph unicode="&#xca;" horiz-adv-x="1546" d="M80 0l14 96h223l199 1200h-221l16 97h1272l-18 -494h-97q2 18 2 68q0 176 -74.5 252.5t-275.5 76.5h-311l-88 -526h113q131 0 184 53.5t72 186.5h96l-96 -576h-97q12 55 13 98q0 84 -48.5 113t-140.5 29h-112l-97 -578h312q115 0 201.5 25.5t138 59.5t96.5 105.5 t66.5 122t56.5 152.5h96l-189 -561h-1306zM735 1587l365 256l281 -256v-2l-70 -78l-238 166l-295 -166z" />
<glyph unicode="&#xcb;" horiz-adv-x="1546" d="M80 0l14 96h223l199 1200h-221l16 97h1272l-18 -494h-97q2 18 2 68q0 176 -74.5 252.5t-275.5 76.5h-311l-88 -526h113q131 0 184 53.5t72 186.5h96l-96 -576h-97q12 55 13 98q0 84 -48.5 113t-140.5 29h-112l-97 -578h312q115 0 201.5 25.5t138 59.5t96.5 105.5 t66.5 122t56.5 152.5h96l-189 -561h-1306zM682 1651q0 72 56.5 125t125.5 53q61 0 100.5 -40t39.5 -99q0 -70 -54.5 -124.5t-126.5 -54.5q-61 0 -101 40.5t-40 99.5zM1139 1653q0 72 56 125t126 53q59 0 99 -39t40 -100q0 -70 -54 -125.5t-126 -55.5q-59 0 -100 40.5 t-41 101.5z" />
<glyph unicode="&#xcc;" horiz-adv-x="892" d="M68 0l16 96h233l201 1213h-231l16 96q78 -6 377 -6q301 0 379 6l-17 -96h-231l-203 -1213h234l-19 -96q-78 6 -377 6q-294 0 -378 -6zM436 1645q0 55 42 101t95 46q29 0 62 -19.5t156 -107.5q61 -45 100 -72l-49 -92q-283 41 -344.5 61t-61.5 83z" />
<glyph unicode="&#xcd;" horiz-adv-x="892" d="M68 0l16 96h233l201 1213h-231l16 96q78 -6 377 -6q301 0 379 6l-17 -96h-231l-203 -1213h234l-19 -96q-78 6 -377 6q-294 0 -378 -6zM485 1593q326 186 349 195q14 4 34 4q41 0 68 -30.5t27 -75.5q0 -66 -56 -107q-16 -10 -22 -13t-99.5 -20.5t-281.5 -44.5z" />
<glyph unicode="&#xce;" horiz-adv-x="892" d="M68 0l16 96h233l201 1213h-231l16 96q78 -6 377 -6q301 0 379 6l-17 -96h-231l-203 -1213h234l-19 -96q-78 6 -377 6q-294 0 -378 -6zM389 1587l365 256l281 -256v-2l-70 -78l-238 166l-295 -166z" />
<glyph unicode="&#xcf;" horiz-adv-x="892" d="M68 0l16 96h233l201 1213h-231l16 96q78 -6 377 -6q301 0 379 6l-17 -96h-231l-203 -1213h234l-19 -96q-78 6 -377 6q-294 0 -378 -6zM336 1653q0 70 53 124t127 54q59 0 99 -40t40 -101q0 -70 -53 -124.5t-127 -54.5q-61 0 -100 41.5t-39 100.5zM793 1653q0 68 53 123 t127 55q61 0 101 -41t40 -100q0 -70 -53 -124.5t-127 -54.5q-61 0 -101 41.5t-40 100.5z" />
<glyph unicode="&#xd0;" horiz-adv-x="1806" d="M80 0l16 98h221l91 543h-158q-55 0 -55 41q0 55 55 55h174l94 570h-221l16 98h834q248 0 397 -84q258 -145 258 -485q0 -229 -115.5 -437.5t-338.5 -314.5q-174 -84 -443 -84h-825zM598 98h266q109 0 198 21.5t149.5 53.5t108.5 88t75.5 106.5t50 129t33 135t22.5 144.5 q12 92 12 152q0 379 -444 379h-270l-94 -570h323q4 0 10 1t9 1q59 0 59 -45q0 -53 -62 -53h-356z" />
<glyph unicode="&#xd1;" horiz-adv-x="1843" d="M80 0l14 96h53q121 0 172 21l199 1192h-221l16 96h465q33 0 43 -4t25 -25l655 -960l139 839l2 25q0 29 -161 29h-54l17 96q84 -6 276 -6q197 0 277 6l-17 -96h-53q-55 0 -106 -6q-45 -4 -55.5 -10.5t-14.5 -32.5l-201 -1207q-6 -35 -17 -44t-42 -9q-25 0 -32 4t-23 27 l-822 1200l-184 -1114q51 -20 164 -21h53l-16 -96q-78 6 -275 6q-192 0 -276 -6zM741 1661v2q14 12 53.5 47t50.5 44t42 30.5t49 27t47 12.5t61 7q61 0 197.5 -35t198.5 -35q104 0 190 70l45 -51v-2q-14 -12 -46 -41t-44 -38t-37.5 -28.5t-41 -27t-39 -17.5t-47 -13 t-50.5 -3q-68 0 -198 34.5t-197 34.5q-100 0 -191 -69z" />
<glyph unicode="&#xd2;" horiz-adv-x="1767" d="M236 555q0 162 58 315.5t166.5 279.5t280.5 201.5t379 75.5q299 0 472 -155.5t173 -431.5q0 -160 -57 -311.5t-163.5 -275.5t-279.5 -200t-384 -76q-287 0 -466 146.5t-179 431.5zM541 485q0 -190 80 -295q98 -127 274 -127q106 0 219 58.5t197 191.5q61 100 99 254 t47 243t9 134q0 117 -33.5 201t-91 125t-115 58.5t-118.5 17.5q-150 0 -287 -96.5t-205 -301.5q-37 -111 -56 -249t-19 -214zM907 1645q0 55 41 101t94 46q29 0 62 -19.5t156 -107.5q61 -45 100 -72l-47 -92q-283 41 -344.5 61t-61.5 83z" />
<glyph unicode="&#xd3;" horiz-adv-x="1767" d="M236 555q0 162 58 315.5t166.5 279.5t280.5 201.5t379 75.5q299 0 472 -155.5t173 -431.5q0 -160 -57 -311.5t-163.5 -275.5t-279.5 -200t-384 -76q-287 0 -466 146.5t-179 431.5zM541 485q0 -190 80 -295q98 -127 274 -127q106 0 219 58.5t197 191.5q61 100 99 254 t47 243t9 134q0 117 -33.5 201t-91 125t-115 58.5t-118.5 17.5q-150 0 -287 -96.5t-205 -301.5q-37 -111 -56 -249t-19 -214zM936 1593q328 186 348 193q14 6 35 6q43 0 68.5 -31.5t25.5 -74.5q0 -27 -8 -49.5t-23.5 -37t-31 -24.5t-38 -16.5t-35.5 -9.5t-34.5 -6t-25.5 -3 q-100 -16 -263 -39z" />
<glyph unicode="&#xd4;" horiz-adv-x="1767" d="M236 555q0 162 58 315.5t166.5 279.5t280.5 201.5t379 75.5q299 0 472 -155.5t173 -431.5q0 -160 -57 -311.5t-163.5 -275.5t-279.5 -200t-384 -76q-287 0 -466 146.5t-179 431.5zM541 485q0 -190 80 -295q98 -127 274 -127q106 0 219 58.5t197 191.5q61 100 99 254 t47 243t9 134q0 117 -33.5 201t-91 125t-115 58.5t-118.5 17.5q-150 0 -287 -96.5t-205 -301.5q-37 -111 -56 -249t-19 -214zM825 1587l365 256l281 -256v-2l-70 -78l-238 166l-295 -166z" />
<glyph unicode="&#xd5;" horiz-adv-x="1767" d="M236 555q0 162 58 315.5t166.5 279.5t280.5 201.5t379 75.5q299 0 472 -155.5t173 -431.5q0 -160 -57 -311.5t-163.5 -275.5t-279.5 -200t-384 -76q-287 0 -466 146.5t-179 431.5zM541 485q0 -190 80 -295q98 -127 274 -127q106 0 219 58.5t197 191.5q61 100 99 254 t47 243t9 134q0 117 -33.5 201t-91 125t-115 58.5t-118.5 17.5q-150 0 -287 -96.5t-205 -301.5q-37 -111 -56 -249t-19 -214zM702 1661v2q14 12 46 41t44.5 38t38 28.5t41 26.5t39 17.5t47 13.5t50.5 3q61 0 196 -35t197 -35q106 0 192 70l43 -51v-2q-14 -12 -45.5 -41 t-44 -38t-38 -28.5t-41 -27t-39 -17.5t-47 -13t-50.5 -3q-61 0 -196.5 34.5t-196.5 34.5q-102 0 -193 -69z" />
<glyph unicode="&#xd6;" horiz-adv-x="1767" d="M236 555q0 162 58 315.5t166.5 279.5t280.5 201.5t379 75.5q299 0 472 -155.5t173 -431.5q0 -160 -57 -311.5t-163.5 -275.5t-279.5 -200t-384 -76q-287 0 -466 146.5t-179 431.5zM541 485q0 -190 80 -295q98 -127 274 -127q106 0 219 58.5t197 191.5q61 100 99 254 t47 243t9 134q0 117 -33.5 201t-91 125t-115 58.5t-118.5 17.5q-150 0 -287 -96.5t-205 -301.5q-37 -111 -56 -249t-19 -214zM772 1651q0 72 55.5 125t124.5 53q59 0 100.5 -39t41.5 -100q0 -70 -53.5 -124t-126.5 -54q-59 0 -100.5 39t-41.5 100zM1229 1651q0 72 56.5 125 t125.5 53q61 0 100 -40t39 -99q0 -70 -54 -124t-126 -54q-61 0 -101 40t-40 99z" />
<glyph unicode="&#xd8;" horiz-adv-x="1830" d="M233 559q0 162 61.5 315.5t173.5 277.5t290 199.5t395 75.5q211 0 385 -84l160 185h2l59 -47l-153 -181q221 -158 221 -466q0 -170 -64.5 -325t-179.5 -272.5t-290 -188.5t-384 -71q-217 0 -387 84l-157 -184l-62 47v2l154 174q-224 158 -224 459zM510 451 q0 -125 53 -228l887 1018q-115 109 -307 111h-4q-139 0 -259 -57.5t-198 -168.5q-68 -94 -110 -261t-52 -266t-10 -148zM612 162q125 -111 312 -111q139 0 259 57.5t197 165.5q68 94 110 260t51 264.5t9 147.5q0 135 -53 232l-885 -1014v-2z" />
<glyph unicode="&#xd9;" horiz-adv-x="1810" d="M297 1309l16 96q78 -6 367 -6q291 0 369 6l-17 -96h-221l-143 -860q-12 -78 -13 -119q0 -256 306 -256q225 0 357 113.5t161 281.5l131 786l2 25q0 29 -162 29h-53l16 96q84 -6 277 -6q197 0 276 6l-16 -96h-54q-53 0 -106 -6q-45 -4 -55.5 -10.5t-14.5 -32.5l-133 -801 q-14 -84 -56 -163t-116 -153.5t-194.5 -120t-272.5 -45.5q-283 0 -429 121t-146 303q0 29 6 68l139 840h-221zM928 1645q0 55 42 101t95 46q29 0 61.5 -19.5t155.5 -107.5q61 -45 100 -72l-49 -92q-283 41 -344 61t-61 83z" />
<glyph unicode="&#xda;" horiz-adv-x="1810" d="M297 1309l16 96q78 -6 367 -6q291 0 369 6l-17 -96h-221l-143 -860q-12 -78 -13 -119q0 -256 306 -256q225 0 357 113.5t161 281.5l131 786l2 25q0 29 -162 29h-53l16 96q84 -6 277 -6q197 0 276 6l-16 -96h-54q-53 0 -106 -6q-45 -4 -55.5 -10.5t-14.5 -32.5l-133 -801 q-14 -84 -56 -163t-116 -153.5t-194.5 -120t-272.5 -45.5q-283 0 -429 121t-146 303q0 29 6 68l139 840h-221zM1055 1593q328 186 348 193q14 6 35 6q43 0 69.5 -31.5t26.5 -74.5q0 -31 -12.5 -55.5t-27.5 -39t-42 -25t-42 -13.5t-43 -7t-30 -4q-43 -6 -131 -20.5 t-133 -20.5z" />
<glyph unicode="&#xdb;" horiz-adv-x="1810" d="M297 1309l16 96q78 -6 367 -6q291 0 369 6l-17 -96h-221l-143 -860q-12 -78 -13 -119q0 -256 306 -256q225 0 357 113.5t161 281.5l131 786l2 25q0 29 -162 29h-53l16 96q84 -6 277 -6q197 0 276 6l-16 -96h-54q-53 0 -106 -6q-45 -4 -55.5 -10.5t-14.5 -32.5l-133 -801 q-14 -84 -56 -163t-116 -153.5t-194.5 -120t-272.5 -45.5q-283 0 -429 121t-146 303q0 29 6 68l139 840h-221zM892 1587l365 256l281 -256v-2l-70 -78l-238 166l-295 -166z" />
<glyph unicode="&#xdc;" horiz-adv-x="1810" d="M297 1309l16 96q78 -6 367 -6q291 0 369 6l-17 -96h-221l-143 -860q-12 -78 -13 -119q0 -256 306 -256q225 0 357 113.5t161 281.5l131 786l2 25q0 29 -162 29h-53l16 96q84 -6 277 -6q197 0 276 6l-16 -96h-54q-53 0 -106 -6q-45 -4 -55.5 -10.5t-14.5 -32.5l-133 -801 q-14 -84 -56 -163t-116 -153.5t-194.5 -120t-272.5 -45.5q-283 0 -429 121t-146 303q0 29 6 68l139 840h-221zM793 1653q0 72 56 125t126 53q59 0 99 -39t40 -100q0 -68 -53 -124.5t-127 -56.5q-59 0 -100 40.5t-41 101.5zM1251 1651q0 72 56.5 125t126.5 53q61 0 100 -40 t39 -99q0 -70 -54.5 -124.5t-125.5 -54.5q-61 0 -101.5 40.5t-40.5 99.5z" />
<glyph unicode="&#xdd;" horiz-adv-x="1779" d="M258 1309l16 96q72 -6 336 -6q291 0 375 6l-16 -96h-174l315 -609l496 586q-2 0 -2 2t-3.5 4t-9.5 2q-41 14 -139 15l16 96q80 -6 271 -6q25 0 233 6l-16 -96h-41q-53 0 -115 -6q-37 -4 -48 -9.5t-30 -27.5l-600 -705l-78 -465h224l-19 -96q-74 6 -360.5 6t-360.5 -6 l15 96h223l78 465l-387 748h-199zM1038 1593q326 186 348 195q14 4 35 4q43 0 70 -31.5t27 -74.5q0 -68 -58 -109q-16 -10 -22 -13t-99.5 -20.5t-281.5 -42.5z" />
<glyph unicode="&#xde;" horiz-adv-x="1478" d="M80 0l16 98h221l201 1209h-221l16 98q172 -6 344 -6l369 6l-16 -98h-222l-24 -150h280q37 0 78 -4t109.5 -23.5t120 -52.5t90.5 -98.5t39 -153.5q0 -156 -120 -294t-360 -162q-41 -4 -118 -4h-250l-45 -267h221l-16 -98q-172 6 -347 6q-182 0 -366 -6zM649 463h195 q80 0 142.5 27.5t97 69.5t58 95.5t31 99.5t7.5 89q0 215 -197 215h-235z" />
<glyph unicode="&#xdf;" horiz-adv-x="1222" d="M72 0l16 98h141l119 715h-141l16 98h144q33 229 49 283q70 240 434 240q305 0 305 -228q0 -31 -8 -79t-24.5 -106t-50.5 -102.5t-79 -54.5q-10 -2 -24.5 -3t-22.5 -2t-20.5 -5t-24.5 -12q-70 -43 -70 -140q0 -59 35 -82.5t82 -25.5t108.5 -32t100.5 -93q37 -61 37 -135 q0 -51 -16.5 -105.5t-53.5 -111t-111.5 -92t-174.5 -35.5q-80 0 -140 43q-80 -43 -92 -43q-33 0 -33 39q0 10 21 141q2 16 5 37.5t5 32t5 25t4 20.5t5.5 14t7.5 11t9 6t12 4.5t17 1.5q18 0 28 -4.5t15.5 -14.5t5.5 -20.5t1 -34t3 -39.5q12 -145 123 -146q106 0 150 60.5 t44 126.5q0 102 -133 127l-12 2q-12 2 -23.5 5t-31 8t-36 13.5t-36 20.5t-34.5 29.5t-27.5 40t-19.5 52.5t-7 64q0 33 9 74t33.5 95.5t81 94t138.5 50.5q4 0 16.5 1t14.5 2t12 4t13 9t11.5 16.5t11.5 24.5t10 35.5t13 50.5t12.5 65.5t6.5 73.5q0 150 -205 150 q-39 0 -70.5 -8.5t-53 -18.5t-39 -31.5t-27 -36t-18.5 -46t-12 -47t-8.5 -52.5t-7.5 -49l-180 -1069l-78 6l-122 -2z" />
<glyph unicode="&#xe0;" horiz-adv-x="1144" d="M100 195q0 90 72 163.5t186 112.5q76 27 149 41t127 18.5t187 12.5q18 106 19 139q0 172 -187 172q-33 0 -69.5 -3t-60 -7t-23.5 -6t3 -6.5t3 -6.5q23 -29 22 -67q0 -63 -44 -105.5t-101 -42.5q-51 0 -83 31t-32 78q0 209 396 209q219 0 313 -78t94 -188q0 -37 -18 -134 q-18 -111 -21 -127q-45 -225 -45 -268q0 -37 115 -37q51 0 51 -39q0 -27 -10 -40t-22.5 -15t-37.5 -2h-98q-199 0 -199 115q0 16 5 37q-2 -6 -13.5 -20.5t-40 -40t-63.5 -48.5t-91.5 -39t-117.5 -16q-49 0 -99.5 6t-117 24.5t-107.5 64.5t-41 112zM340 195q0 -59 45 -96.5 t113 -37.5q109 0 192 70q74 59 92 176q4 29 14.5 86.5t14.5 85.5q-145 -6 -246.5 -42t-145.5 -84t-61.5 -86.5t-17.5 -71.5zM565 1208q0 51 44 99.5t98 48.5q39 0 86 -45q12 -14 198 -215v-2l-63 -82q-291 106 -305 114q-54 39 -58 82z" />
<glyph unicode="&#xe1;" horiz-adv-x="1144" d="M100 195q0 90 72 163.5t186 112.5q76 27 149 41t127 18.5t187 12.5q18 106 19 139q0 172 -187 172q-33 0 -69.5 -3t-60 -7t-23.5 -6t3 -6.5t3 -6.5q23 -29 22 -67q0 -63 -44 -105.5t-101 -42.5q-51 0 -83 31t-32 78q0 209 396 209q219 0 313 -78t94 -188q0 -37 -18 -134 q-18 -111 -21 -127q-45 -225 -45 -268q0 -37 115 -37q51 0 51 -39q0 -27 -10 -40t-22.5 -15t-37.5 -2h-98q-199 0 -199 115q0 16 5 37q-2 -6 -13.5 -20.5t-40 -40t-63.5 -48.5t-91.5 -39t-117.5 -16q-49 0 -99.5 6t-117 24.5t-107.5 64.5t-41 112zM340 195q0 -59 45 -96.5 t113 -37.5q109 0 192 70q74 59 92 176q4 29 14.5 86.5t14.5 85.5q-145 -6 -246.5 -42t-145.5 -84t-61.5 -86.5t-17.5 -71.5zM549 1096q289 231 317 247q23 10 52 13h2q45 0 72.5 -34t27.5 -77q0 -68 -51 -97.5t-252 -92.5q-82 -27 -131 -43z" />
<glyph unicode="&#xe2;" horiz-adv-x="1144" d="M100 195q0 90 72 163.5t186 112.5q76 27 149 41t127 18.5t187 12.5q18 106 19 139q0 172 -187 172q-33 0 -69.5 -3t-60 -7t-23.5 -6t3 -6.5t3 -6.5q23 -29 22 -67q0 -63 -44 -105.5t-101 -42.5q-51 0 -83 31t-32 78q0 209 396 209q219 0 313 -78t94 -188q0 -37 -18 -134 q-18 -111 -21 -127q-45 -225 -45 -268q0 -37 115 -37q51 0 51 -39q0 -27 -10 -40t-22.5 -15t-37.5 -2h-98q-199 0 -199 115q0 16 5 37q-2 -6 -13.5 -20.5t-40 -40t-63.5 -48.5t-91.5 -39t-117.5 -16q-49 0 -99.5 6t-117 24.5t-107.5 64.5t-41 112zM340 195q0 -59 45 -96.5 t113 -37.5q109 0 192 70q74 59 92 176q4 29 14.5 86.5t14.5 85.5q-145 -6 -246.5 -42t-145.5 -84t-61.5 -86.5t-17.5 -71.5zM371 1044l374 304l277 -301v-3l-76 -73l-227 209h-2l-295 -209z" />
<glyph unicode="&#xe3;" horiz-adv-x="1144" d="M100 195q0 90 72 163.5t186 112.5q76 27 149 41t127 18.5t187 12.5q18 106 19 139q0 172 -187 172q-33 0 -69.5 -3t-60 -7t-23.5 -6t3 -6.5t3 -6.5q23 -29 22 -67q0 -63 -44 -105.5t-101 -42.5q-51 0 -83 31t-32 78q0 209 396 209q219 0 313 -78t94 -188q0 -37 -18 -134 q-18 -111 -21 -127q-45 -225 -45 -268q0 -37 115 -37q51 0 51 -39q0 -27 -10 -40t-22.5 -15t-37.5 -2h-98q-199 0 -199 115q0 16 5 37q-2 -6 -13.5 -20.5t-40 -40t-63.5 -48.5t-91.5 -39t-117.5 -16q-49 0 -99.5 6t-117 24.5t-107.5 64.5t-41 112zM305 1124q16 14 50 46 t47.5 43.5t40 32t44 27.5t43 14t52.5 7q53 0 157.5 -34.5t157.5 -34.5q80 0 166 69l45 -49v-2q-12 -12 -38.5 -36.5t-37 -34t-32 -28t-32.5 -25.5t-29.5 -18t-34 -16.5t-34 -8.5t-38.5 -3q-53 0 -157.5 35t-158.5 35q-80 0 -165 -70zM340 195q0 -59 45 -96.5t113 -37.5 q109 0 192 70q74 59 92 176q4 29 14.5 86.5t14.5 85.5q-145 -6 -246.5 -42t-145.5 -84t-61.5 -86.5t-17.5 -71.5z" />
<glyph unicode="&#xe4;" horiz-adv-x="1144" d="M100 195q0 90 72 163.5t186 112.5q76 27 149 41t127 18.5t187 12.5q18 106 19 139q0 172 -187 172q-33 0 -69.5 -3t-60 -7t-23.5 -6t3 -6.5t3 -6.5q23 -29 22 -67q0 -63 -44 -105.5t-101 -42.5q-51 0 -83 31t-32 78q0 209 396 209q219 0 313 -78t94 -188q0 -37 -18 -134 q-18 -111 -21 -127q-45 -225 -45 -268q0 -37 115 -37q51 0 51 -39q0 -27 -10 -40t-22.5 -15t-37.5 -2h-98q-199 0 -199 115q0 16 5 37q-2 -6 -13.5 -20.5t-40 -40t-63.5 -48.5t-91.5 -39t-117.5 -16q-49 0 -99.5 6t-117 24.5t-107.5 64.5t-41 112zM340 195q0 -59 45 -96.5 t113 -37.5q109 0 192 70q74 59 92 176q4 29 14.5 86.5t14.5 85.5q-145 -6 -246.5 -42t-145.5 -84t-61.5 -86.5t-17.5 -71.5zM404 1227q0 72 55 125t125 53q59 0 100 -40t41 -101q0 -68 -53 -123.5t-127 -55.5q-61 0 -101 41.5t-40 100.5zM862 1227q0 70 54.5 124t125.5 54 q61 0 101.5 -41t40.5 -100q0 -68 -53.5 -123.5t-126.5 -55.5q-61 0 -101.5 41.5t-40.5 100.5z" />
<glyph unicode="&#xe5;" horiz-adv-x="1144" d="M100 195q0 90 72 163.5t186 112.5q76 27 149 41t127 18.5t187 12.5q18 106 19 139q0 172 -187 172q-33 0 -69.5 -3t-60 -7t-23.5 -6t3 -6.5t3 -6.5q23 -29 22 -67q0 -63 -44 -105.5t-101 -42.5q-51 0 -83 31t-32 78q0 209 396 209q219 0 313 -78t94 -188q0 -37 -18 -134 q-18 -111 -21 -127q-45 -225 -45 -268q0 -37 115 -37q51 0 51 -39q0 -27 -10 -40t-22.5 -15t-37.5 -2h-98q-199 0 -199 115q0 16 5 37q-2 -6 -13.5 -20.5t-40 -40t-63.5 -48.5t-91.5 -39t-117.5 -16q-49 0 -99.5 6t-117 24.5t-107.5 64.5t-41 112zM340 195q0 -59 45 -96.5 t113 -37.5q109 0 192 70q74 59 92 176q4 29 14.5 86.5t14.5 85.5q-145 -6 -246.5 -42t-145.5 -84t-61.5 -86.5t-17.5 -71.5zM471 1151q0 76 68.5 139.5t210.5 63.5q117 0 166 -46t49 -106q0 -76 -70 -140.5t-209 -64.5q-115 0 -165 47.5t-50 106.5zM569 1151q0 -47 30 -64.5 t95 -17.5q53 0 85 6t59.5 37t27.5 90q0 37 -23.5 55.5t-47 21.5t-66.5 3h-2q-158 0 -158 -131z" />
<glyph unicode="&#xe6;" horiz-adv-x="1699" d="M109 184q0 53 31.5 104.5t104 101.5t220 82t352.5 36q25 172 25 176q0 168 -189 168q-86 0 -157 -14q31 -39 30 -78q0 -61 -42 -104.5t-103 -43.5q-41 0 -77 25t-36 84t44 110.5t134 73.5q94 23 222 23q236 0 348 -113h2q150 113 354 113q176 0 264 -86t88 -244 q0 -100 -15 -126t-52 -26h-615q-2 -2 -7 -55t-5 -72q0 -135 75 -191t173 -56q90 0 169 46t122 118q23 41 57 40q45 0 45 -36q0 -20 -26.5 -59.5t-73.5 -83.5t-131 -75.5t-180 -31.5q-236 0 -361 133q-143 -135 -430 -135q-150 0 -255 45t-105 151zM350 186q0 -55 42 -89 t110 -34q127 0 220 69t93 136q0 6 -6 41t-6 74q0 20 4 57q-311 -20 -412 -143q-45 -52 -45 -111zM1055 514h469q2 2 7 55.5t5 71.5q0 211 -164 211q-33 0 -69.5 -10.5t-89 -41t-95.5 -104t-63 -182.5z" />
<glyph unicode="&#xe7;" horiz-adv-x="1046" d="M145 375q0 92 35 185t103.5 178t189.5 137.5t275 52.5q330 0 329 -166q0 -61 -43 -105.5t-102 -44.5q-49 0 -82 30t-33 79q0 55 55 115q-49 8 -127 8q-262 0 -325 -363q-18 -117 -19 -162q0 -135 69 -191t163 -56q166 0 262 135q4 6 12 18.5t12.5 18.5t11.5 12t15 9t21 3 q47 0 47 -28q0 -49 -88 -132t-224 -108l-10 -61q172 -31 172 -142q0 -123 -178 -170q-129 -35 -479 -35l10 74q92 0 148.5 3t125 13.5t102.5 36t34 66.5q0 86 -178 92l20 123q-88 18 -152.5 57t-96.5 79t-50 92.5t-21.5 83t-3.5 63.5z" />
<glyph unicode="&#xe8;" horiz-adv-x="1079" d="M135 383q0 96 37 190.5t106.5 174t184.5 130t256 50.5q182 0 282.5 -83t100.5 -255q0 -100 -14.5 -122t-61.5 -22h-623q-16 -98 -16 -143q0 -119 62 -174q66 -59 176 -59q27 0 56.5 4t81.5 19.5t103.5 54t85.5 98.5q23 31 52 30q47 0 47 -36q0 -12 -14.5 -39t-50.5 -64 t-85 -69.5t-127 -56t-170 -23.5q-217 0 -343 107.5t-126 287.5zM414 514h489q10 92 10 113q0 227 -192 227q-241 0 -307 -340zM579 1208q0 51 44 99.5t97 48.5q39 0 87 -45q12 -14 198 -215v-2l-63 -82q-51 18 -135 49q-158 57 -193 78.5t-35 68.5z" />
<glyph unicode="&#xe9;" horiz-adv-x="1079" d="M135 383q0 96 37 190.5t106.5 174t184.5 130t256 50.5q182 0 282.5 -83t100.5 -255q0 -100 -14.5 -122t-61.5 -22h-623q-16 -98 -16 -143q0 -119 62 -174q66 -59 176 -59q27 0 56.5 4t81.5 19.5t103.5 54t85.5 98.5q23 31 52 30q47 0 47 -36q0 -12 -14.5 -39t-50.5 -64 t-85 -69.5t-127 -56t-170 -23.5q-217 0 -343 107.5t-126 287.5zM414 514h489q10 92 10 113q0 227 -192 227q-241 0 -307 -340zM498 1096q37 31 77.5 63.5t65.5 52t51.5 41t42 33.5t32.5 25.5t27.5 19.5t20.5 12.5t18.5 8.5t16.5 3t16 1q45 0 74 -34t29 -77 q0 -68 -51.5 -97.5t-251.5 -92.5q-82 -27 -131 -43z" />
<glyph unicode="&#xea;" horiz-adv-x="1079" d="M135 383q0 96 37 190.5t106.5 174t184.5 130t256 50.5q182 0 282.5 -83t100.5 -255q0 -100 -14.5 -122t-61.5 -22h-623q-16 -98 -16 -143q0 -119 62 -174q66 -59 176 -59q27 0 56.5 4t81.5 19.5t103.5 54t85.5 98.5q23 31 52 30q47 0 47 -36q0 -12 -14.5 -39t-50.5 -64 t-85 -69.5t-127 -56t-170 -23.5q-217 0 -343 107.5t-126 287.5zM385 1044l377 304l274 -301v-3l-73 -71h-2l-226 207h-2l-297 -209zM414 514h489q10 92 10 113q0 227 -192 227q-241 0 -307 -340z" />
<glyph unicode="&#xeb;" horiz-adv-x="1079" d="M135 383q0 96 37 190.5t106.5 174t184.5 130t256 50.5q182 0 282.5 -83t100.5 -255q0 -100 -14.5 -122t-61.5 -22h-623q-16 -98 -16 -143q0 -119 62 -174q66 -59 176 -59q27 0 56.5 4t81.5 19.5t103.5 54t85.5 98.5q23 31 52 30q47 0 47 -36q0 -12 -14.5 -39t-50.5 -64 t-85 -69.5t-127 -56t-170 -23.5q-217 0 -343 107.5t-126 287.5zM356 1227q0 70 53.5 124t127.5 54q61 0 100 -41t39 -100q0 -70 -53.5 -124.5t-124.5 -54.5q-61 0 -101.5 42.5t-40.5 99.5zM414 514h489q10 92 10 113q0 227 -192 227q-241 0 -307 -340zM813 1225 q0 72 56.5 125t125.5 53q61 0 100.5 -40t39.5 -99q0 -70 -54.5 -124.5t-126.5 -54.5q-61 0 -101 40.5t-40 99.5z" />
<glyph unicode="&#xec;" horiz-adv-x="653" d="M96 0l15 96h143l106 647q0 4 2.5 13.5t2.5 11.5q0 29 -26 35t-101 6l16 96l358 17l-137 -826h127l-16 -96q-197 6 -240 6q-96 0 -250 -6zM195 1208q0 51 44 99.5t97 48.5q39 0 86 -45q12 -14 199 -215v-2l-64 -82q-291 106 -305 114q-53 39 -57 82z" />
<glyph unicode="&#xed;" horiz-adv-x="653" d="M96 0l15 96h143l106 647q0 4 2.5 13.5t2.5 11.5q0 29 -26 35t-101 6l16 96l358 17l-137 -826h127l-16 -96q-197 6 -240 6q-96 0 -250 -6zM375 1096q289 231 317 247q23 10 52 13h2q45 0 72.5 -34t27.5 -77q0 -68 -51 -97.5t-252 -92.5q-82 -27 -131 -43z" />
<glyph unicode="&#xee;" horiz-adv-x="653" d="M96 0l15 96h143l106 647q0 4 2.5 13.5t2.5 11.5q0 29 -26 35t-101 6l16 96l358 17l-137 -826h127l-16 -96q-197 6 -240 6q-96 0 -250 -6zM197 1044l376 304l275 -301v-3l-74 -71h-4l-225 207l-297 -209z" />
<glyph unicode="&#xef;" horiz-adv-x="784" d="M162 0l16 98h141l105 627q4 29 4 35q0 27 -21.5 37t-82.5 10h-21l16 98l361 17l-137 -824h127l-17 -98q-121 6 -241 6q-125 0 -250 -6zM233 1227q0 72 55.5 125t125.5 53q59 0 100 -40t41 -101q0 -68 -53 -123.5t-127 -55.5q-61 0 -101.5 41.5t-40.5 100.5zM690 1227 q0 70 54.5 124t125.5 54q59 0 100.5 -40t41.5 -101q0 -68 -53.5 -123.5t-127.5 -55.5q-59 0 -100 40.5t-41 101.5z" />
<glyph unicode="&#xf0;" d="M133 371q0 100 40 198.5t113.5 179t190.5 130t256 49.5q125 0 217 -92q-33 172 -166 327q-190 -100 -202 -100q-16 0 -25.5 15.5t-9.5 31.5q0 18 24.5 33.5t145.5 79.5q-92 68 -174 94t-112 30.5t-30 26.5q0 49 111 49q98 0 188.5 -25.5t139.5 -50t51 -24.5q18 0 106 47 t103 47q16 0 26.5 -14t10.5 -32.5t-21.5 -33t-144.5 -77.5q123 -98 187.5 -238.5t64.5 -292.5q0 -51 -11.5 -134t-22.5 -137.5t-13 -60.5q-45 -176 -199 -291.5t-385 -115.5q-207 0 -333 98.5t-126 282.5zM387 293q0 -121 61.5 -171t149.5 -50q139 0 229 112q43 55 70 151.5 t33 156t6 98.5q0 147 -61.5 204.5t-143.5 57.5q-147 0 -237 -121q-41 -55 -68 -165.5t-33 -177t-6 -95.5z" />
<glyph unicode="&#xf1;" horiz-adv-x="1306" d="M92 0l14 96h144l106 645q4 20 4 27q0 29 -27.5 35t-107.5 6l17 96l356 17l-35 -211h2q55 84 153.5 147.5t233.5 63.5q154 0 215.5 -58.5t61.5 -163.5q0 -39 -6 -75l-88 -529h141l-16 -96q-172 6 -259 6q-158 0 -258 -6l15 96h143l96 582q4 25 4 61q0 53 -17 81t-66 28 q-117 0 -222.5 -84t-136.5 -211q-6 -51 -76 -457h142l-17 -96q-172 6 -258 6q-158 0 -258 -6zM471 1124q16 14 50 46t47.5 43.5t40 32t44 27.5t43 14t52.5 7q53 0 157.5 -34.5t157.5 -34.5q80 0 166 69l45 -49v-2q-12 -12 -38.5 -36.5t-37 -34t-32 -28t-32.5 -25.5 t-29.5 -18t-34 -16.5t-34 -8.5t-38.5 -3q-53 0 -157.5 35t-158.5 35q-80 0 -165 -70z" />
<glyph unicode="&#xf2;" d="M133 365q0 215 162 389t446 174q203 0 327 -100.5t124 -292.5q0 -219 -161 -383t-445 -164q-211 0 -332 100.5t-121 276.5zM385 281q0 -31 4 -55.5t21.5 -65.5t65.5 -65.5t124 -24.5q84 0 156.5 40t105.5 115q37 78 60.5 217.5t23.5 204.5q0 23 -1 40.5t-13 51t-32.5 56 t-64.5 41t-106 18.5q-193 0 -270 -166q-27 -57 -50.5 -195t-23.5 -212zM565 1208q0 51 44 99.5t97 48.5q39 0 87 -45q12 -14 198 -215v-2l-63 -82q-51 18 -135 49q-158 57 -193 78.5t-35 68.5z" />
<glyph unicode="&#xf3;" d="M133 365q0 215 162 389t446 174q203 0 327 -100.5t124 -292.5q0 -219 -161 -383t-445 -164q-211 0 -332 100.5t-121 276.5zM385 281q0 -31 4 -55.5t21.5 -65.5t65.5 -65.5t124 -24.5q84 0 156.5 40t105.5 115q37 78 60.5 217.5t23.5 204.5q0 23 -1 40.5t-13 51t-32.5 56 t-64.5 41t-106 18.5q-193 0 -270 -166q-27 -57 -50.5 -195t-23.5 -212zM549 1096q289 231 317 247q23 10 52 13h2q45 0 72.5 -34t27.5 -77q0 -68 -51 -97.5t-252 -92.5q-82 -27 -131 -43z" />
<glyph unicode="&#xf4;" d="M133 365q0 215 162 389t446 174q203 0 327 -100.5t124 -292.5q0 -219 -161 -383t-445 -164q-211 0 -332 100.5t-121 276.5zM385 281q0 -31 4 -55.5t21.5 -65.5t65.5 -65.5t124 -24.5q84 0 156.5 40t105.5 115q37 78 60.5 217.5t23.5 204.5q0 23 -1 40.5t-13 51t-32.5 56 t-64.5 41t-106 18.5q-193 0 -270 -166q-27 -57 -50.5 -195t-23.5 -212zM436 1044l377 304l274 -301v-3l-75 -73l-226 209h-2l-297 -209z" />
<glyph unicode="&#xf5;" d="M133 365q0 215 162 389t446 174q203 0 327 -100.5t124 -292.5q0 -219 -161 -383t-445 -164q-211 0 -332 100.5t-121 276.5zM383 1124q16 14 50 46t47.5 43.5t40 32t44 27.5t43 14t52.5 7q53 0 157.5 -34.5t157.5 -34.5q80 0 166 69l45 -49v-2q-12 -12 -38.5 -36.5 t-37 -34t-32 -28t-32.5 -25.5t-29.5 -18t-34 -16.5t-34 -8.5t-38.5 -3q-53 0 -157.5 35t-158.5 35q-80 0 -165 -70zM385 281q0 -31 4 -55.5t21.5 -65.5t65.5 -65.5t124 -24.5q84 0 156.5 40t105.5 115q37 78 60.5 217.5t23.5 204.5q0 23 -1 40.5t-13 51t-32.5 56t-64.5 41 t-106 18.5q-193 0 -270 -166q-27 -57 -50.5 -195t-23.5 -212z" />
<glyph unicode="&#xf6;" d="M133 365q0 215 162 389t446 174q203 0 327 -100.5t124 -292.5q0 -219 -161 -383t-445 -164q-211 0 -332 100.5t-121 276.5zM385 281q0 -31 4 -55.5t21.5 -65.5t65.5 -65.5t124 -24.5q84 0 156.5 40t105.5 115q37 78 60.5 217.5t23.5 204.5q0 23 -1 40.5t-13 51t-32.5 56 t-64.5 41t-106 18.5q-193 0 -270 -166q-27 -57 -50.5 -195t-23.5 -212zM406 1227q0 72 56 125t126 53q59 0 99 -40t40 -101q0 -68 -53 -123.5t-125 -55.5q-61 0 -102 41.5t-41 100.5zM864 1227q0 70 54.5 124t125.5 54q61 0 101.5 -41t40.5 -100q0 -70 -53.5 -124.5 t-126.5 -54.5q-61 0 -101.5 41.5t-40.5 100.5z" />
<glyph unicode="&#xf7;" horiz-adv-x="1830" d="M217 512q0 61 84 61h1393q33 0 39 -2q49 -12 49 -59q0 -61 -84 -61h-1401q-80 0 -80 61zM721 -10q0 86 65.5 149.5t149.5 63.5q72 0 123 -48.5t51 -123.5q0 -86 -65.5 -149.5t-149.5 -63.5q-76 0 -125 50t-49 122zM889 991q0 86 65.5 149.5t149.5 63.5q76 0 124 -50 t48 -122q0 -86 -65.5 -149.5t-149.5 -63.5q-72 0 -122 48t-50 124z" />
<glyph unicode="&#xf8;" d="M119 -180l184 233q-172 102 -172 312q0 96 37 192t108.5 180t191.5 137.5t269 53.5h4q117 0 220 -39l188 239l57 -38l-182 -232q168 -102 168 -321q0 -227 -166 -387t-440 -160q-121 0 -219 35l-191 -244zM354 287q0 -72 31 -129l510 647q-82 47 -166 47 q-260 0 -332 -277q-10 -39 -28 -145q-15 -82 -15 -143zM434 106q76 -43 162 -43q186 0 276 132q37 53 61.5 160.5t31 174t6.5 88.5q0 80 -29 134z" />
<glyph unicode="&#xf9;" horiz-adv-x="1306" d="M225 809l17 96l379 17l-121 -727q-4 -25 -4 -54q0 -18 3 -28.5t14 -23.5t43 -20.5t81 -7.5q123 0 205 83t98 188l68 409q0 6 1 11.5t2 9.5t1 6q0 29 -28 35t-107 6l16 96l379 17l-125 -756q0 -6 -1 -12.5t-2 -9.5t-1 -5q0 -31 25.5 -37t107.5 -6l-16 -96l-365 -12l25 149 h-2q-113 -150 -314 -149q-72 0 -125 8t-104 29.5t-78 65.5t-27 110q0 23 6 57l80 483q0 6 1 11.5t2 9.5t1 6q0 29 -27.5 35t-107.5 6zM620 1208q0 51 44 99.5t97 48.5q39 0 87 -45q12 -14 198 -215v-2l-63 -82q-51 18 -135 49q-158 57 -193 78.5t-35 68.5z" />
<glyph unicode="&#xfa;" horiz-adv-x="1306" d="M225 809l17 96l379 17l-121 -727q-4 -25 -4 -54q0 -18 3 -28.5t14 -23.5t43 -20.5t81 -7.5q123 0 205 83t98 188l68 409q0 6 1 11.5t2 9.5t1 6q0 29 -28 35t-107 6l16 96l379 17l-125 -756q0 -6 -1 -12.5t-2 -9.5t-1 -5q0 -31 25.5 -37t107.5 -6l-16 -96l-365 -12l25 149 h-2q-113 -150 -314 -149q-72 0 -125 8t-104 29.5t-78 65.5t-27 110q0 23 6 57l80 483q0 6 1 11.5t2 9.5t1 6q0 29 -27.5 35t-107.5 6zM637 1096q289 231 317 247q23 10 52 13h2q45 0 72.5 -34t27.5 -77q0 -68 -51 -97.5t-252 -92.5q-82 -27 -131 -43z" />
<glyph unicode="&#xfb;" horiz-adv-x="1306" d="M225 809l17 96l379 17l-121 -727q-4 -25 -4 -54q0 -18 3 -28.5t14 -23.5t43 -20.5t81 -7.5q123 0 205 83t98 188l68 409q0 6 1 11.5t2 9.5t1 6q0 29 -28 35t-107 6l16 96l379 17l-125 -756q0 -6 -1 -12.5t-2 -9.5t-1 -5q0 -31 25.5 -37t107.5 -6l-16 -96l-365 -12l25 149 h-2q-113 -150 -314 -149q-72 0 -125 8t-104 29.5t-78 65.5t-27 110q0 23 6 57l80 483q0 6 1 11.5t2 9.5t1 6q0 29 -27.5 35t-107.5 6zM524 1044l377 304l275 -301v-3l-74 -71h-4l-226 207h-2l-295 -209z" />
<glyph unicode="&#xfc;" horiz-adv-x="1306" d="M225 809l17 96l379 17l-121 -727q-4 -25 -4 -54q0 -18 3 -28.5t14 -23.5t43 -20.5t81 -7.5q123 0 205 83t98 188l68 409q0 6 1 11.5t2 9.5t1 6q0 29 -28 35t-107 6l16 96l379 17l-125 -756q0 -6 -1 -12.5t-2 -9.5t-1 -5q0 -31 25.5 -37t107.5 -6l-16 -96l-365 -12l25 149 h-2q-113 -150 -314 -149q-72 0 -125 8t-104 29.5t-78 65.5t-27 110q0 23 6 57l80 483q0 6 1 11.5t2 9.5t1 6q0 29 -27.5 35t-107.5 6zM494 1227q0 72 55 125t125 53q61 0 101 -41t40 -100q0 -70 -53 -124.5t-127 -54.5q-59 0 -100 40.5t-41 101.5zM952 1227q0 70 53.5 124 t127.5 54q61 0 100 -41t39 -100q0 -70 -53.5 -124.5t-124.5 -54.5q-61 0 -101.5 41.5t-40.5 100.5z" />
<glyph unicode="&#xfd;" horiz-adv-x="1241" d="M6 -248q0 68 42 107t97 39q41 0 71 -24t30 -73q0 -45 -24.5 -79.5t-59.5 -49.5q18 -8 47 -8q119 0 211 117q20 25 57 79t62.5 96t25.5 46q0 8 -6 27l-240 784h-131l19 96q227 -6 229 -6q162 0 256 6l-16 -96h-111l168 -553l324 508l14 27q-33 18 -96 18l16 96 q129 -6 185 -6q86 0 163 6l-16 -96q-63 0 -95 -5t-42 -12.5t-21 -25.5l-602 -942q-66 -102 -165 -170t-201 -68q-84 0 -137.5 46t-53.5 116zM143 -315zM152 -322zM713 1096q289 231 317 247q23 10 52 13h2q45 0 72.5 -34t27.5 -77q0 -68 -51 -97.5t-252 -92.5 q-82 -27 -131 -43z" />
<glyph unicode="&#xfe;" horiz-adv-x="1308" d="M6 -399l17 98h141q0 8 24 149l226 1350q10 55 10 72q0 29 -23.5 39t-89.5 10h-18l16 96l367 19l-101 -609q160 96 322 97q74 0 143.5 -19.5t132 -60.5t100.5 -119t38 -182q0 -227 -165 -389t-425 -162q-145 0 -258 92l-64 -383h142l-17 -98q-131 6 -266 6h-6 q-107 0 -246 -6zM485 211q0 -43 60.5 -95.5t150.5 -52.5q160 0 258.5 157t98.5 358q0 113 -48.5 186.5t-148.5 73.5q-90 0 -178 -46.5t-109 -86.5q-6 -10 -26.5 -134.5t-38.5 -242.5z" />
<glyph unicode="&#xff;" horiz-adv-x="1241" d="M6 -248q0 68 42 107t97 39q41 0 71 -24t30 -73q0 -45 -24.5 -79.5t-59.5 -49.5q18 -8 47 -8q119 0 211 117q20 25 57 79t62.5 96t25.5 46q0 8 -6 27l-240 784h-131l19 96q227 -6 229 -6q162 0 256 6l-16 -96h-111l168 -553l324 508l14 27q-33 18 -96 18l16 96 q129 -6 185 -6q86 0 163 6l-16 -96q-63 0 -95 -5t-42 -12.5t-21 -25.5l-602 -942q-66 -102 -165 -170t-201 -68q-84 0 -137.5 46t-53.5 116zM143 -315zM152 -322zM438 1227q0 72 55.5 125t124.5 53q61 0 101.5 -41t40.5 -100q0 -70 -53.5 -124.5t-126.5 -54.5 q-59 0 -100.5 40.5t-41.5 101.5zM897 1225q0 70 54.5 125t125.5 55q61 0 100.5 -41t39.5 -100q0 -70 -53.5 -124.5t-125.5 -54.5q-61 0 -101 40.5t-40 99.5z" />
<glyph unicode="&#x100;" horiz-adv-x="1779" d="M84 0l16 96h43q53 0 107 6q39 4 51 10.5t25 28.5l714 1241q27 47 86 48q39 0 51.5 -10.5t22.5 -47.5l311 -1276h199l-16 -96q-72 6 -332 6q-285 0 -363 -6l15 96h194l-71 299h-549l-158 -276q33 -14 86 -19q37 -4 94 -4l-16 -96q-76 6 -268 6q-29 0 -69 -1t-92 -3t-81 -2 zM645 492h467l-139 569zM680 1620l18 105h955l-19 -105h-954z" />
<glyph unicode="&#x101;" horiz-adv-x="1144" d="M100 195q0 90 72 163.5t186 112.5q76 27 149 41t127 18.5t187 12.5q18 106 19 139q0 172 -187 172q-33 0 -69.5 -3t-60 -7t-23.5 -6t3 -6.5t3 -6.5q23 -29 22 -67q0 -63 -44 -105.5t-101 -42.5q-51 0 -83 31t-32 78q0 209 396 209q219 0 313 -78t94 -188q0 -37 -18 -134 q-18 -111 -21 -127q-45 -225 -45 -268q0 -37 115 -37q51 0 51 -39q0 -27 -10 -40t-22.5 -15t-37.5 -2h-98q-199 0 -199 115q0 16 5 37q-2 -6 -13.5 -20.5t-40 -40t-63.5 -48.5t-91.5 -39t-117.5 -16q-49 0 -99.5 6t-117 24.5t-107.5 64.5t-41 112zM272 1131l16 106h850 l-16 -106h-850zM340 195q0 -59 45 -96.5t113 -37.5q109 0 192 70q74 59 92 176q4 29 14.5 86.5t14.5 85.5q-145 -6 -246.5 -42t-145.5 -84t-61.5 -86.5t-17.5 -71.5z" />
<glyph unicode="&#x102;" horiz-adv-x="1779" d="M84 0l16 96h43q53 0 107 6q39 4 51 10.5t25 28.5l714 1241q27 47 86 48q39 0 51.5 -10.5t22.5 -47.5l311 -1276h199l-16 -96q-72 6 -332 6q-285 0 -363 -6l15 96h194l-71 299h-549l-158 -276q33 -14 86 -19q37 -4 94 -4l-16 -96q-76 6 -268 6q-29 0 -69 -1t-92 -3t-81 -2 zM645 492h467l-139 569zM827 1790q0 27 2 41h74v-12q0 -143 266 -144q270 0 314 156h73q-33 -145 -155.5 -215t-253.5 -70q-137 0 -228.5 67.5t-91.5 176.5z" />
<glyph unicode="&#x103;" horiz-adv-x="1144" d="M100 195q0 90 72 163.5t186 112.5q76 27 149 41t127 18.5t187 12.5q18 106 19 139q0 172 -187 172q-33 0 -69.5 -3t-60 -7t-23.5 -6t3 -6.5t3 -6.5q23 -29 22 -67q0 -63 -44 -105.5t-101 -42.5q-51 0 -83 31t-32 78q0 209 396 209q219 0 313 -78t94 -188q0 -37 -18 -134 q-18 -111 -21 -127q-45 -225 -45 -268q0 -37 115 -37q51 0 51 -39q0 -27 -10 -40t-22.5 -15t-37.5 -2h-98q-199 0 -199 115q0 16 5 37q-2 -6 -13.5 -20.5t-40 -40t-63.5 -48.5t-91.5 -39t-117.5 -16q-49 0 -99.5 6t-117 24.5t-107.5 64.5t-41 112zM340 195q0 -59 45 -96.5 t113 -37.5q109 0 192 70q74 59 92 176q4 29 14.5 86.5t14.5 85.5q-145 -6 -246.5 -42t-145.5 -84t-61.5 -86.5t-17.5 -71.5zM442 1288l4 49h74v-24q0 -90 80 -132t178 -42q47 0 94.5 9t95.5 30.5t83.5 62.5t48.5 96h74q-25 -141 -148 -233t-268 -92q-133 0 -224.5 76.5 t-91.5 199.5z" />
<glyph unicode="&#x104;" horiz-adv-x="1779" d="M82 0l16 98q141 0 175 9.5t55 46.5l694 1200q18 33 26.5 44t28 21.5t47.5 10.5h6q27 0 42.5 -12.5t18.5 -22t9 -31.5l264 -1075q16 -63 45 -191h201l-16 -98l-226 6q-131 -80 -131 -172q0 -47 34 -81t71 -34q29 0 61.5 21.5t44.5 21.5q16 0 32.5 -15t16.5 -34 q-4 -37 -74.5 -85t-152.5 -48q-86 0 -147.5 53.5t-61.5 135.5q0 119 148 237l-312 -6l17 98h194l-71 295h-551l-158 -274q27 -10 180 -21l-16 -98q-135 6 -273 6q-131 0 -237 -6zM643 492h469l-139 569z" />
<glyph unicode="&#x105;" horiz-adv-x="1144" d="M98 195q0 23 5.5 46t24.5 60t51 68.5t94.5 65.5t144.5 57q135 37 403 51q18 135 19 139q0 170 -187 170q-96 0 -157 -14q31 -39 30 -80q0 -61 -44 -104.5t-101 -43.5q-49 0 -82 31t-33 80q0 92 88 147q92 59 303 60q229 0 321.5 -80t92.5 -184q0 -41 -40 -272.5 t-40 -246.5q0 -27 24.5 -36t55.5 -8t55.5 -9t24.5 -39q0 -35 -18.5 -44t-55.5 -9h-94q-53 0 -101 -55.5t-48 -110.5q0 -47 30.5 -80t71.5 -33q31 0 63.5 21.5t44.5 21.5q16 0 33 -13t19 -32q-2 -37 -75 -88t-157 -51q-90 0 -147.5 54.5t-57.5 134.5q0 145 177 260 q-49 41 -50 86q0 10 5 39q-23 -35 -56 -67t-107.5 -64.5t-164.5 -32.5q-63 0 -122.5 9t-116 30.5t-91.5 65t-35 100.5zM340 195q0 -59 45 -95.5t113 -36.5q90 0 168.5 50.5t103.5 132.5q6 27 41 231q-242 -10 -356.5 -96t-114.5 -186z" />
<glyph unicode="&#x106;" horiz-adv-x="1699" d="M238 582q0 158 63.5 307t180 270t300 194.5t404.5 73.5q231 0 383 -139l182 139q51 0 51 -30q0 -4 -4 -25l-76 -454q-6 -33 -14 -39.5t-43 -6.5q-14 0 -21.5 1t-20.5 6.5t-13 16.5t2 32q-8 203 -121 303t-266 100q-152 0 -288 -57t-218 -164q-49 -63 -85 -151.5 t-53.5 -159t-26.5 -148.5t-10 -106.5t-1 -46.5q0 -203 112 -310q121 -115 355 -114q102 0 206.5 35.5t204 132t131.5 237.5q6 29 50 29q47 0 47 -31q0 -4 -3.5 -21.5t-15.5 -55.5t-32.5 -77.5t-63.5 -92t-98 -95.5q-207 -158 -480 -158q-324 0 -521 158t-197 447zM999 1593 q328 186 349 193q14 6 34 6q43 0 69 -31.5t26 -74.5q0 -27 -8.5 -49.5t-23.5 -37t-30.5 -24.5t-38 -16.5t-36 -9.5t-35 -6t-25.5 -3q-100 -16 -262 -39z" />
<glyph unicode="&#x107;" horiz-adv-x="1046" d="M147 375q0 96 36 191.5t105.5 177t188.5 133t268 51.5q332 0 332 -166q0 -72 -46 -112t-99 -40q-51 0 -83 31t-32 78q0 74 57 117q-61 10 -124 10q-184 0 -267 -162q-33 -66 -53 -161t-24.5 -141t-4.5 -65q0 -127 64.5 -187t167.5 -60q88 0 163.5 43t116.5 116 q16 29 24.5 34t33.5 5q47 0 47 -28q0 -8 -12.5 -33t-44 -63t-77.5 -72.5t-125 -59t-171 -24.5q-188 0 -314.5 96t-126.5 291zM580 1096q47 39 122 98q137 111 175 136.5t73 25.5q45 0 73 -34t28 -77q0 -68 -51.5 -97.5t-251.5 -92.5q-82 -27 -132 -43z" />
<glyph unicode="&#x108;" horiz-adv-x="1699" d="M238 582q0 158 63.5 307t180 270t300 194.5t404.5 73.5q231 0 383 -139l182 139q51 0 51 -30q0 -4 -4 -25l-76 -454q-6 -33 -14 -39.5t-43 -6.5q-14 0 -21.5 1t-20.5 6.5t-13 16.5t2 32q-8 203 -121 303t-266 100q-152 0 -288 -57t-218 -164q-49 -63 -85 -151.5 t-53.5 -159t-26.5 -148.5t-10 -106.5t-1 -46.5q0 -203 112 -310q121 -115 355 -114q102 0 206.5 35.5t204 132t131.5 237.5q6 29 50 29q47 0 47 -31q0 -4 -3.5 -21.5t-15.5 -55.5t-32.5 -77.5t-63.5 -92t-98 -95.5q-207 -158 -480 -158q-324 0 -521 158t-197 447zM888 1587 l365 256l281 -256v-2l-70 -78l-238 166l-295 -166z" />
<glyph unicode="&#x109;" horiz-adv-x="1046" d="M147 375q0 96 36 191.5t105.5 177t188.5 133t268 51.5q332 0 332 -166q0 -72 -46 -112t-99 -40q-51 0 -83 31t-32 78q0 74 57 117q-61 10 -124 10q-184 0 -267 -162q-33 -66 -53 -161t-24.5 -141t-4.5 -65q0 -127 64.5 -187t167.5 -60q88 0 163.5 43t116.5 116 q16 29 24.5 34t33.5 5q47 0 47 -28q0 -8 -12.5 -33t-44 -63t-77.5 -72.5t-125 -59t-171 -24.5q-188 0 -314.5 96t-126.5 291zM438 1044l377 304l274 -301v-3l-75 -73l-228 209l-297 -209z" />
<glyph unicode="&#x10a;" horiz-adv-x="1699" d="M238 582q0 158 63.5 307t180 270t300 194.5t404.5 73.5q231 0 383 -139l182 139q51 0 51 -30q0 -4 -4 -25l-76 -454q-6 -33 -14 -39.5t-43 -6.5q-14 0 -21.5 1t-20.5 6.5t-13 16.5t2 32q-8 203 -121 303t-266 100q-152 0 -288 -57t-218 -164q-49 -63 -85 -151.5 t-53.5 -159t-26.5 -148.5t-10 -106.5t-1 -46.5q0 -203 112 -310q121 -115 355 -114q102 0 206.5 35.5t204 132t131.5 237.5q6 29 50 29q47 0 47 -31q0 -4 -3.5 -21.5t-15.5 -55.5t-32.5 -77.5t-63.5 -92t-98 -95.5q-207 -158 -480 -158q-324 0 -521 158t-197 447zM1069 1669 q0 72 56 125t126 53q61 0 100 -40t39 -99q0 -70 -54 -124t-126 -54q-61 0 -101 40t-40 99z" />
<glyph unicode="&#x10b;" horiz-adv-x="1046" d="M147 375q0 96 36 191.5t105.5 177t188.5 133t268 51.5q332 0 332 -166q0 -72 -46 -112t-99 -40q-51 0 -83 31t-32 78q0 74 57 117q-61 10 -124 10q-184 0 -267 -162q-33 -66 -53 -161t-24.5 -141t-4.5 -65q0 -127 64.5 -187t167.5 -60q88 0 163.5 43t116.5 116 q16 29 24.5 34t33.5 5q47 0 47 -28q0 -8 -12.5 -33t-44 -63t-77.5 -72.5t-125 -59t-171 -24.5q-188 0 -314.5 96t-126.5 291zM642 1243q0 72 56 125t126 53q61 0 100 -40t39 -99q0 -70 -54 -124t-126 -54q-61 0 -101 40t-40 99z" />
<glyph unicode="&#x10c;" horiz-adv-x="1699" d="M238 582q0 158 63.5 307t180 270t300 194.5t404.5 73.5q231 0 383 -139l182 139q51 0 51 -30q0 -4 -4 -25l-76 -454q-6 -33 -14 -39.5t-43 -6.5q-14 0 -21.5 1t-20.5 6.5t-13 16.5t2 32q-8 203 -121 303t-266 100q-152 0 -288 -57t-218 -164q-49 -63 -85 -151.5 t-53.5 -159t-26.5 -148.5t-10 -106.5t-1 -46.5q0 -203 112 -310q121 -115 355 -114q102 0 206.5 35.5t204 132t131.5 237.5q6 29 50 29q47 0 47 -31q0 -4 -3.5 -21.5t-15.5 -55.5t-32.5 -77.5t-63.5 -92t-98 -95.5q-207 -158 -480 -158q-324 0 -521 158t-197 447zM956 1798 l35 53q305 -88 314 -88q4 0 60 15.5t142 38t129 34.5l15 -53l-385 -231z" />
<glyph unicode="&#x10d;" horiz-adv-x="1046" d="M147 375q0 96 36 191.5t105.5 177t188.5 133t268 51.5q332 0 332 -166q0 -72 -46 -112t-99 -40q-51 0 -83 31t-32 78q0 74 57 117q-61 10 -124 10q-184 0 -267 -162q-33 -66 -53 -161t-24.5 -141t-4.5 -65q0 -127 64.5 -187t167.5 -60q88 0 163.5 43t116.5 116 q16 29 24.5 34t33.5 5q47 0 47 -28q0 -8 -12.5 -33t-44 -63t-77.5 -72.5t-125 -59t-171 -24.5q-188 0 -314.5 96t-126.5 291zM457 1315l43 45h2q84 -53 182 -117q94 -59 104 -59q12 0 74 31.5t148 78.5t127 66l26 -43v-4l-413 -350z" />
<glyph unicode="&#x10e;" horiz-adv-x="1804" d="M80 0l14 96h223l201 1213h-221l16 96h883q111 0 212 -29.5t192.5 -92t145.5 -178.5t54 -271q0 -346 -232.5 -590t-604.5 -244h-883zM596 96h299q96 0 178 22.5t136.5 53.5t100.5 81t69.5 89t45 96.5t27.5 82t16 65.5q43 258 43 340q0 199 -114 293q-111 90 -301 90h-297z M735 1798l35 53q305 -88 313 -88q4 0 60.5 15.5t142.5 38t129 34.5l17 -53l-388 -231z" />
<glyph unicode="&#x10f;" horiz-adv-x="1658" d="M147 371q0 233 166 392t428 159q160 0 265 -95l65 394q6 33 6 45q0 23 -10 30t-39 11q-23 2 -84 2l17 96l366 16l-209 -1255q0 -6 -1 -12.5t-2 -9.5t-1 -5q0 -31 25.5 -37t107.5 -6l-16 -96l-377 -12l14 96q-139 -96 -297 -96q-174 0 -299 93t-125 290zM395 276 q0 -92 47 -153.5t152 -61.5q102 0 190 60q102 66 113 127l80 479q-74 121 -217 121q-78 0 -155 -40t-122 -122q-43 -78 -65.5 -218.5t-22.5 -191.5zM1411 1362q0 72 52.5 127t129.5 55q74 0 120 -50t46 -124q0 -98 -63.5 -197.5t-135 -154.5t-110.5 -55q-16 0 -26.5 12 t-10.5 24q0 8 6 16.5t12.5 12.5t16.5 8l10 6q143 78 203 220q-49 -35 -109 -35q-63 0 -102 38t-39 97z" />
<glyph unicode="&#x110;" horiz-adv-x="1806" d="M80 0l16 98h221l91 543h-158q-55 0 -55 41q0 55 55 55h174l94 570h-221l16 98h834q248 0 397 -84q258 -145 258 -485q0 -229 -115.5 -437.5t-338.5 -314.5q-174 -84 -443 -84h-825zM598 98h266q109 0 198 21.5t149.5 53.5t108.5 88t75.5 106.5t50 129t33 135t22.5 144.5 q12 92 12 152q0 379 -444 379h-270l-94 -570h323q4 0 10 1t9 1q59 0 59 -45q0 -53 -62 -53h-356z" />
<glyph unicode="&#x111;" horiz-adv-x="1308" d="M145 373q0 223 163 386t431 163q154 0 267 -95l38 238h-456l16 98h457q2 16 6 37t6 34t2 23q0 29 -22.5 39.5t-85.5 10.5h-25l16 98l367 16l-41 -258h105l-17 -98h-104q-4 -33 -17 -94l-127 -766q-8 -43 -8 -62q0 -31 26.5 -38t96.5 -7h8l-16 -98l-377 -10l16 96 q-145 -98 -303 -98q-182 0 -302 100.5t-120 284.5zM395 274q0 -115 58.5 -163t140.5 -48q96 0 184 56.5t111 101.5q6 10 26.5 133t38.5 240l19 119q0 43 -63.5 88t-151.5 45q-160 0 -252 -123q-59 -80 -85 -228.5t-26 -220.5z" />
<glyph unicode="&#x112;" horiz-adv-x="1546" d="M80 0l14 96h223l199 1200h-221l16 97h1272l-18 -494h-97q2 18 2 68q0 176 -74.5 252.5t-275.5 76.5h-311l-88 -526h113q131 0 184 53.5t72 186.5h96l-96 -576h-97q12 55 13 98q0 84 -48.5 113t-140.5 29h-112l-97 -578h312q115 0 201.5 25.5t138 59.5t96.5 105.5 t66.5 122t56.5 152.5h96l-189 -561h-1306zM571 1620l18 105h955l-19 -105h-954z" />
<glyph unicode="&#x113;" horiz-adv-x="1079" d="M135 383q0 96 37 190.5t106.5 174t184.5 130t256 50.5q182 0 282.5 -83t100.5 -255q0 -100 -14.5 -122t-61.5 -22h-623q-16 -98 -16 -143q0 -119 62 -174q66 -59 176 -59q27 0 56.5 4t81.5 19.5t103.5 54t85.5 98.5q23 31 52 30q47 0 47 -36q0 -12 -14.5 -39t-50.5 -64 t-85 -69.5t-127 -56t-170 -23.5q-217 0 -343 107.5t-126 287.5zM327 1131l16 106h850l-16 -106h-850zM414 514h489q10 92 10 113q0 227 -192 227q-241 0 -307 -340z" />
<glyph unicode="&#x116;" horiz-adv-x="1546" d="M80 0l14 96h223l199 1200h-221l16 97h1272l-18 -494h-97q2 18 2 68q0 176 -74.5 252.5t-275.5 76.5h-311l-88 -526h113q131 0 184 53.5t72 186.5h96l-96 -576h-97q12 55 13 98q0 84 -48.5 113t-140.5 29h-112l-97 -578h312q115 0 201.5 25.5t138 59.5t96.5 105.5 t66.5 122t56.5 152.5h96l-189 -561h-1306zM902 1669q0 72 56 125t126 53q61 0 100 -40t39 -99q0 -70 -54 -124t-126 -54q-61 0 -101 40t-40 99z" />
<glyph unicode="&#x117;" horiz-adv-x="1079" d="M135 383q0 96 37 190.5t106.5 174t184.5 130t256 50.5q182 0 282.5 -83t100.5 -255q0 -100 -14.5 -122t-61.5 -22h-623q-16 -98 -16 -143q0 -119 62 -174q66 -59 176 -59q27 0 56.5 4t81.5 19.5t103.5 54t85.5 98.5q23 31 52 30q47 0 47 -36q0 -12 -14.5 -39t-50.5 -64 t-85 -69.5t-127 -56t-170 -23.5q-217 0 -343 107.5t-126 287.5zM414 514h489q10 92 10 113q0 227 -192 227q-241 0 -307 -340zM615 1243q0 72 56 125t126 53q61 0 100 -40t39 -99q0 -70 -54 -124t-126 -54q-61 0 -101 40t-40 99z" />
<glyph unicode="&#x118;" horiz-adv-x="1546" d="M80 0l16 98h221l199 1198h-221l16 97h1274l-20 -496h-97v78q0 106 -26.5 174t-85 98.5t-116.5 39.5t-153 9h-278v-2l-86 -522h90q139 0 196.5 46t82.5 194h96l-94 -578h-99q10 82 11 98q0 49 -17.5 80t-53.5 43.5t-61.5 15.5t-66.5 3h-102l-95 -576h252q176 0 284.5 30 t190.5 132q29 35 53.5 84t37 80t30 83t19.5 56h98l-189 -563h-137q-57 0 -108 -55.5t-51 -110.5q0 -47 33.5 -81t74.5 -34q29 0 60.5 21.5t44.5 21.5q16 0 32.5 -14t16.5 -33q0 -35 -71 -85t-157 -50q-88 0 -147 54.5t-59 134.5q0 115 137 231h-975z" />
<glyph unicode="&#x119;" horiz-adv-x="1079" d="M133 383q0 92 35 184t102.5 174t184 134.5t262.5 52.5h2q207 0 295 -94.5t88 -243.5q0 -66 -9.5 -98.5t-21.5 -39t-39 -6.5h-631q-2 -2 -8 -62t-6 -81q0 -125 70.5 -178t167.5 -53q98 0 183 43t136 121q27 41 60 40q43 0 43 -36q0 -10 -7 -27q-18 -37 -44.5 -67.5 t-60.5 -54t-58.5 -37t-58.5 -31t-40 -19.5q-133 -74 -133 -170q0 -41 31 -78t74 -37q29 0 62.5 21.5t43.5 21.5q14 0 31.5 -14t17.5 -33q0 -39 -72.5 -87t-154.5 -48q-86 0 -146.5 53.5t-60.5 135.5q0 111 125 221q-133 4 -229.5 43t-144.5 100.5t-68.5 122.5t-20.5 127z M412 514h489q10 92 10 115q0 223 -192 223q-244 0 -307 -338z" />
<glyph unicode="&#x11a;" horiz-adv-x="1546" d="M80 0l14 96h223l199 1200h-221l16 97h1272l-18 -494h-97q2 18 2 68q0 176 -74.5 252.5t-275.5 76.5h-311l-88 -526h113q131 0 184 53.5t72 186.5h96l-96 -576h-97q12 55 13 98q0 84 -48.5 113t-140.5 29h-112l-97 -578h312q115 0 201.5 25.5t138 59.5t96.5 105.5 t66.5 122t56.5 152.5h96l-189 -561h-1306zM664 1798l32 53q305 -88 314 -88q4 0 60 15.5t142 38t129 34.5l17 -53l-387 -231z" />
<glyph unicode="&#x11b;" horiz-adv-x="1079" d="M135 383q0 96 37 190.5t106.5 174t184.5 130t256 50.5q182 0 282.5 -83t100.5 -255q0 -100 -14.5 -122t-61.5 -22h-623q-16 -98 -16 -143q0 -119 62 -174q66 -59 176 -59q27 0 56.5 4t81.5 19.5t103.5 54t85.5 98.5q23 31 52 30q47 0 47 -36q0 -12 -14.5 -39t-50.5 -64 t-85 -69.5t-127 -56t-170 -23.5q-217 0 -343 107.5t-126 287.5zM414 514h489q10 92 10 113q0 227 -192 227q-241 0 -307 -340zM436 1315l43 45h2q84 -53 183 -117q94 -59 104 -59q12 0 73.5 31.5t146.5 77.5t126 67l27 -43v-4l-412 -350z" />
<glyph unicode="&#x11c;" horiz-adv-x="1851" d="M238 582q0 158 62 306t178 270t300.5 195.5t407.5 73.5q229 0 381 -139l182 139q51 0 51 -30q0 -4 -4 -25l-76 -454q-6 -33 -14 -39.5t-43 -6.5q-14 0 -21.5 1t-20.5 6.5t-13 16.5t2 32q-6 193 -116 298t-271 105q-74 0 -151 -14t-181.5 -67.5t-173.5 -141.5 q-47 -59 -83 -144t-52.5 -156t-26.5 -147.5t-11 -108.5t-1 -50q0 -207 121 -318q125 -111 354 -110q133 0 217 57q47 33 62.5 64.5t27.5 101.5q6 29 14.5 86t14.5 86h-293l14 96h2q90 -6 416 -6q260 0 332 6l-17 -96h-163l-70 -424q-8 -45 -33 -45q-6 0 -37.5 14.5t-75 41 t-69.5 50.5q-143 -129 -402 -129q-330 0 -525 159t-195 446zM888 1587l365 256l281 -256v-2l-70 -78l-238 166l-295 -166z" />
<glyph unicode="&#x11d;" d="M39 -174q0 80 63.5 131t143.5 68q-59 63 -60 155q0 121 101 226q-72 72 -72 174q0 133 119 237.5t336 104.5q174 0 266 -68q106 78 227 78q66 0 91.5 -35t25.5 -70q0 -41 -26.5 -71.5t-73.5 -30.5q-33 0 -55.5 19.5t-22.5 56.5q0 33 14 53q-63 -6 -133 -43 q53 -68 53 -154q0 -131 -116.5 -236.5t-339.5 -105.5q-152 0 -242 54q-37 -43 -37 -95q0 -104 129 -104h135q70 0 106 -1t100.5 -6t101 -14.5t84 -29t72 -48t43 -72.5t18.5 -99q0 -88 -51.5 -151.5t-137.5 -97.5t-179 -48.5t-198 -14.5q-256 0 -370.5 70t-114.5 168z M215 -176q0 -72 79 -117t232 -45q195 0 289 66.5t94 138.5q0 106 -270 106h-238q-61 0 -103 -19.5t-57.5 -49t-20.5 -48t-5 -32.5zM370 1044l377 304l274 -301v-3l-75 -73l-228 209l-297 -209zM434 518q0 -20 3 -36.5t16.5 -41t46 -38t84.5 -13.5q63 0 112 27.5t72 68.5 q18 35 30.5 94.5t15.5 94.5t3 45q0 129 -149 129q-125 0 -183 -90q-23 -39 -37 -120t-14 -120z" />
<glyph unicode="&#x11e;" horiz-adv-x="1851" d="M238 582q0 154 60 300t174 270t304.5 199.5t425.5 75.5q125 0 216 -15t133 -31.5t48 -16.5q14 0 80 30.5t86 30.5q33 0 33 -36q0 -12 -19.5 -136.5t-27.5 -136.5q-12 -18 -47 -18q-29 0 -43 10q-6 4 -19.5 45t-37 77t-115.5 67.5t-242 31.5h-4q-184 -4 -332.5 -75.5 t-232.5 -206.5q-74 -117 -104.5 -279t-30.5 -264q0 -98 28.5 -175t75.5 -124t111.5 -77t128 -41t135.5 -11q104 0 182 39t105 104q8 20 45 248h-293l16 96q141 -4 424 -4q197 0 326 4l-17 -96h-163q-66 -426 -84 -453q-6 -10 -21 -10q-16 0 -75.5 31t-104.5 74 q-139 -131 -401 -132q-326 0 -524.5 158t-198.5 447zM901 1790q0 27 2 41h74v-12q0 -143 266 -144q270 0 313 156h74q-33 -145 -155.5 -215t-253.5 -70q-137 0 -228.5 67.5t-91.5 176.5z" />
<glyph unicode="&#x11f;" d="M39 -174q0 80 63.5 131t143.5 68q-59 63 -60 155q0 121 101 226q-72 72 -72 174q0 133 119 237.5t336 104.5q174 0 266 -68q106 78 227 78q66 0 91.5 -35t25.5 -70q0 -41 -26.5 -71.5t-73.5 -30.5q-33 0 -55.5 19.5t-22.5 56.5q0 33 14 53q-63 -6 -133 -43 q53 -68 53 -154q0 -131 -116.5 -236.5t-339.5 -105.5q-152 0 -242 54q-37 -43 -37 -95q0 -104 129 -104h135q70 0 106 -1t100.5 -6t101 -14.5t84 -29t72 -48t43 -72.5t18.5 -99q0 -88 -51.5 -151.5t-137.5 -97.5t-179 -48.5t-198 -14.5q-256 0 -370.5 70t-114.5 168z M215 -176q0 -72 79 -117t232 -45q195 0 289 66.5t94 138.5q0 106 -270 106h-238q-61 0 -103 -19.5t-57.5 -49t-20.5 -48t-5 -32.5zM434 518q0 -20 3 -36.5t16.5 -41t46 -38t84.5 -13.5q63 0 112 27.5t72 68.5q18 35 30.5 94.5t15.5 94.5t3 45q0 129 -149 129 q-125 0 -183 -90q-23 -39 -37 -120t-14 -120zM442 1288l4 49h74v-24q0 -90 80 -132t178 -42q47 0 94.5 9t95.5 30.5t83.5 62.5t48.5 96h74q-25 -141 -148 -233t-268 -92q-133 0 -224.5 76.5t-91.5 199.5z" />
<glyph unicode="&#x120;" horiz-adv-x="1851" d="M238 582q0 158 62 306t178 270t300.5 195.5t407.5 73.5q229 0 381 -139l182 139q51 0 51 -30q0 -4 -4 -25l-76 -454q-6 -33 -14 -39.5t-43 -6.5q-14 0 -21.5 1t-20.5 6.5t-13 16.5t2 32q-6 193 -116 298t-271 105q-74 0 -151 -14t-181.5 -67.5t-173.5 -141.5 q-47 -59 -83 -144t-52.5 -156t-26.5 -147.5t-11 -108.5t-1 -50q0 -207 121 -318q125 -111 354 -110q133 0 217 57q47 33 62.5 64.5t27.5 101.5q6 29 14.5 86t14.5 86h-293l14 96h2q90 -6 416 -6q260 0 332 6l-17 -96h-163l-70 -424q-8 -45 -33 -45q-6 0 -37.5 14.5t-75 41 t-69.5 50.5q-143 -129 -402 -129q-330 0 -525 159t-195 446zM1069 1669q0 72 56 125t126 53q61 0 100 -40t39 -99q0 -70 -54 -124t-126 -54q-61 0 -101 40t-40 99z" />
<glyph unicode="&#x121;" d="M39 -174q0 80 63.5 131t143.5 68q-59 63 -60 155q0 121 101 226q-72 72 -72 174q0 133 119 237.5t336 104.5q174 0 266 -68q106 78 227 78q66 0 91.5 -35t25.5 -70q0 -41 -26.5 -71.5t-73.5 -30.5q-33 0 -55.5 19.5t-22.5 56.5q0 33 14 53q-63 -6 -133 -43 q53 -68 53 -154q0 -131 -116.5 -236.5t-339.5 -105.5q-152 0 -242 54q-37 -43 -37 -95q0 -104 129 -104h135q70 0 106 -1t100.5 -6t101 -14.5t84 -29t72 -48t43 -72.5t18.5 -99q0 -88 -51.5 -151.5t-137.5 -97.5t-179 -48.5t-198 -14.5q-256 0 -370.5 70t-114.5 168z M215 -176q0 -72 79 -117t232 -45q195 0 289 66.5t94 138.5q0 106 -270 106h-238q-61 0 -103 -19.5t-57.5 -49t-20.5 -48t-5 -32.5zM434 518q0 -20 3 -36.5t16.5 -41t46 -38t84.5 -13.5q63 0 112 27.5t72 68.5q18 35 30.5 94.5t15.5 94.5t3 45q0 129 -149 129 q-125 0 -183 -90q-23 -39 -37 -120t-14 -120zM574 1243q0 72 56 125t126 53q61 0 100 -40t39 -99q0 -70 -54 -124t-126 -54q-61 0 -101 40t-40 99z" />
<glyph unicode="&#x124;" horiz-adv-x="1843" d="M80 0l14 96h223l201 1213h-221l16 96q78 -6 367 -6q291 0 369 6l-17 -96h-221l-88 -531h655l88 531h-221l17 96q78 -6 366 -6q291 0 369 6l-17 -96h-221l-203 -1213h222l-17 -96q-78 6 -366.5 6t-366.5 -6l14 96h224l96 586h-655l-99 -586h221l-16 -96q-78 6 -366.5 6 t-366.5 -6zM860 1587l365 256l281 -256v-2l-70 -78l-238 166l-295 -166z" />
<glyph unicode="&#x125;" horiz-adv-x="1306" d="M92 0l14 96h144l186 1125q6 33 6 45q0 23 -10 30t-39 11q-23 2 -84 2l17 96l366 16l-114 -690h2q27 37 65.5 74t124.5 77t182 40q154 0 215.5 -58.5t61.5 -163.5q0 -39 -6 -75l-88 -529h141l-16 -96q-172 6 -259 6q-158 0 -258 -6l15 96h143l96 582q4 25 4 61 q0 53 -17 81t-66 28q-117 0 -222.5 -84t-136.5 -211q-6 -51 -76 -457h142l-17 -96q-172 6 -258 6q-158 0 -258 -6zM606 1538l377 304l274 -301v-3l-75 -73l-228 209l-297 -209z" />
<glyph unicode="&#x127;" horiz-adv-x="1374" d="M154 0l16 98h141l162 971h-188q-33 0 -48.5 8t-15.5 35q0 55 60 55h208q2 2 8.5 42t6.5 51q0 31 -21.5 40t-87.5 9h-22l16 96l369 18l-43 -256h268q61 0 61 -41q0 -33 -20 -47q-12 -10 -45 -10h-281l-55 -342q141 195 373 195q281 0 280 -217q0 -33 -23.5 -184.5 t-47.5 -287.5l-25 -135h141l-14 -98q-221 6 -250 6q-135 0 -270 -6l16 98h142l88 518q14 90 14 121q0 109 -90 109q-94 0 -198.5 -68.5t-145.5 -193.5q-8 -25 -21.5 -101.5t-33 -197.5t-31.5 -187h141l-14 -98q-221 6 -250 6q-135 0 -270 -6z" />
<glyph unicode="&#x12a;" horiz-adv-x="892" d="M68 0l16 96h233l201 1213h-231l16 96q78 -6 377 -6q301 0 379 6l-17 -96h-231l-203 -1213h234l-19 -96q-78 6 -377 6q-294 0 -378 -6zM274 1530l16 106h850l-16 -106h-850z" />
<glyph unicode="&#x12b;" horiz-adv-x="653" d="M96 0l15 96h143l106 647q0 4 2.5 13.5t2.5 11.5q0 29 -26 35t-101 6l16 96l358 17l-137 -826h127l-16 -96q-197 6 -240 6q-96 0 -250 -6zM110 1131l16 106h850l-16 -106h-850z" />
<glyph unicode="&#x130;" horiz-adv-x="892" d="M68 0l16 96h233l201 1213h-231l16 96q78 -6 377 -6q301 0 379 6l-17 -96h-231l-203 -1213h234l-19 -96q-78 6 -377 6q-294 0 -378 -6zM580 1741q0 68 53 123t127 55q59 0 99 -39t40 -100q0 -74 -55.5 -126t-122.5 -52q-61 0 -101 40t-40 99z" />
<glyph unicode="&#x131;" horiz-adv-x="653" d="M96 0l15 96h143l106 647q0 4 2.5 13.5t2.5 11.5q0 29 -26 35t-101 6l16 96l358 17l-137 -826h127l-16 -96q-197 6 -240 6q-96 0 -250 -6z" />
<glyph unicode="&#x134;" horiz-adv-x="1216" d="M84 205q0 88 55.5 137t122.5 49q53 0 96 -34.5t43 -100.5q0 -123 -125 -172q74 -33 158 -33q102 0 167 69.5t83 178.5l168 1010h-287l15 96h2q90 -6 405 -6q254 0 328 6l-17 -96h-165l-168 -1010q-23 -145 -162 -233.5t-357 -88.5q-166 0 -264 61t-98 167zM712 1587 l365 256l281 -256v-2l-70 -78l-238 166l-295 -166z" />
<glyph unicode="&#x135;" horiz-adv-x="718" d="M-154 -242q0 61 42 104.5t104 43.5q53 0 83.5 -33t30.5 -78q0 -72 -49 -108q-14 -10 -14 -13q0 -10 68 -10q86 0 135 80t63 162l137 823q6 33 7 37q0 16 -10.5 25.5t-18.5 11.5t-28.5 4t-90.5 2l14 96l381 17l-168 -1016q-25 -141 -146.5 -228.5t-270.5 -87.5 q-117 0 -193 43t-76 125zM282 1044l377 304l274 -301v-3l-75 -73l-228 209l-297 -209z" />
<glyph unicode="&#x139;" horiz-adv-x="1415" d="M80 0l14 96h223l201 1213h-221l16 96q78 -6 375 -6q317 0 416 6l-17 -96h-276l-203 -1213h211q88 0 161 22.5t123 67.5t85 86t62.5 106.5t37.5 96.5t27 86h96l-158 -561h-1173zM453 1593q326 186 348 195q14 4 35 4q43 0 68.5 -31.5t25.5 -74.5q0 -70 -56 -109 q-16 -10 -22 -13t-99.5 -20.5t-281.5 -42.5z" />
<glyph unicode="&#x13a;" horiz-adv-x="653" d="M96 0l15 96h143l186 1125q6 33 6 45q0 23 -10 30t-39 11q-23 2 -84 2l17 96l366 16l-221 -1325h141l-16 -96q-209 6 -252 6q-92 0 -252 -6zM498 1593q328 186 348 193q14 6 35 6q43 0 69.5 -31.5t26.5 -74.5q0 -27 -8 -49.5t-23.5 -37t-31 -24.5t-38 -16.5t-36 -9.5 t-35 -6t-25.5 -3q-88 -14 -264 -39z" />
<glyph unicode="&#x13d;" horiz-adv-x="1415" d="M80 0l16 98h221l201 1209h-221l16 98q197 -6 396 -6q88 0 228 2t144 2q-39 47 -39 102q0 72 53.5 127.5t129.5 55.5q74 0 120 -51.5t46 -125.5q0 -98 -64.5 -197.5t-136.5 -153.5t-109 -54q-14 0 -25.5 11t-11.5 26q0 18 42 39.5t103.5 76t100.5 144.5q-59 -35 -108 -35 q-39 0 -80 21l-15 -82h-276l-201 -1209h178q129 0 222.5 36t151 108.5t88 142.5t63.5 178h98l-156 -563h-1175z" />
<glyph unicode="&#x13e;" horiz-adv-x="1028" d="M96 0l15 96h143l186 1125q6 33 6 45q0 23 -10 30t-39 11q-23 2 -84 2l17 96l366 16l-221 -1325h141l-16 -96q-209 6 -252 6q-92 0 -252 -6zM782 999q0 8 6.5 16.5t13.5 12.5t16 9t11 5q139 76 201 220q-49 -35 -108 -35q-61 0 -100.5 38t-39.5 97q0 72 52.5 127t130.5 55 q74 0 119.5 -50t45.5 -124t-37.5 -152.5t-90 -132t-103.5 -88t-80 -34.5q-16 0 -26.5 12t-10.5 24z" />
<glyph unicode="&#x141;" horiz-adv-x="1415" d="M80 0l16 98h221l78 465l-159 -104l-43 80l223 145l102 623h-221l16 98q233 -6 363 -6q213 0 428 6l-17 -98h-276l-68 -408l375 246l45 -80l-440 -287l-113 -680h178q129 0 222.5 36t151 108.5t88 142.5t63.5 178h98l-156 -563h-1175z" />
<glyph unicode="&#x142;" horiz-adv-x="790" d="M160 0l16 98h141l82 488l-123 -80l-45 80q35 23 88 57q76 49 89.5 61.5t17.5 38.5q2 10 2 15q82 485 82 499q0 31 -22.5 40.5t-88.5 9.5h-22l18 98l367 16l-90 -549l153 103l45 -80l-219 -143l-110 -654h141l-14 -98q-221 6 -244 6q-133 0 -264 -6z" />
<glyph unicode="&#x143;" horiz-adv-x="1843" d="M80 0l14 96h53q121 0 172 21l199 1192h-221l16 96h465q33 0 43 -4t25 -25l655 -960l139 839l2 25q0 29 -161 29h-54l17 96q84 -6 276 -6q197 0 277 6l-17 -96h-53q-55 0 -106 -6q-45 -4 -55.5 -10.5t-14.5 -32.5l-201 -1207q-6 -35 -17 -44t-42 -9q-25 0 -32 4t-23 27 l-822 1200l-184 -1114q51 -20 164 -21h53l-16 -96q-78 6 -275 6q-192 0 -276 -6zM973 1593q328 186 350 195q14 4 35 4q43 0 68.5 -31.5t25.5 -74.5q0 -27 -8 -49.5t-23.5 -37t-31 -24.5t-38 -16.5t-35.5 -9.5t-34.5 -6t-26.5 -3q-88 -14 -264 -39z" />
<glyph unicode="&#x144;" horiz-adv-x="1306" d="M92 0l14 96h144l106 645q4 20 4 27q0 29 -27.5 35t-107.5 6l17 96l356 17l-35 -211h2q55 84 153.5 147.5t233.5 63.5q154 0 215.5 -58.5t61.5 -163.5q0 -39 -6 -75l-88 -529h141l-16 -96q-172 6 -259 6q-158 0 -258 -6l15 96h143l96 582q4 25 4 61q0 53 -17 81t-66 28 q-117 0 -222.5 -84t-136.5 -211q-6 -51 -76 -457h142l-17 -96q-172 6 -258 6q-158 0 -258 -6zM703 1096q289 231 317 247q23 10 52 13h2q45 0 72.5 -34t27.5 -77q0 -68 -51 -97.5t-252 -92.5q-82 -27 -131 -43z" />
<glyph unicode="&#x147;" horiz-adv-x="1843" d="M80 0l14 96h53q121 0 172 21l199 1192h-221l16 96h465q33 0 43 -4t25 -25l655 -960l139 839l2 25q0 29 -161 29h-54l17 96q84 -6 276 -6q197 0 277 6l-17 -96h-53q-55 0 -106 -6q-45 -4 -55.5 -10.5t-14.5 -32.5l-201 -1207q-6 -35 -17 -44t-42 -9q-25 0 -32 4t-23 27 l-822 1200l-184 -1114q51 -20 164 -21h53l-16 -96q-78 6 -275 6q-192 0 -276 -6zM874 1798l33 53q305 -88 314 -88q4 0 60 15.5t142 38t129 34.5l17 -53l-387 -231z" />
<glyph unicode="&#x148;" horiz-adv-x="1306" d="M92 0l14 96h144l106 645q4 20 4 27q0 29 -27.5 35t-107.5 6l17 96l356 17l-35 -211h2q55 84 153.5 147.5t233.5 63.5q154 0 215.5 -58.5t61.5 -163.5q0 -39 -6 -75l-88 -529h141l-16 -96q-172 6 -259 6q-158 0 -258 -6l15 96h143l96 582q4 25 4 61q0 53 -17 81t-66 28 q-117 0 -222.5 -84t-136.5 -211q-6 -51 -76 -457h142l-17 -96q-172 6 -258 6q-158 0 -258 -6zM477 1315l43 45h2q84 -53 183 -117q94 -59 104 -59q12 0 73.5 31.5t146.5 77.5t126 67l29 -43v-4l-414 -350z" />
<glyph unicode="&#x150;" horiz-adv-x="1767" d="M236 555q0 162 58 315.5t166.5 279.5t280.5 201.5t379 75.5q299 0 472 -155.5t173 -431.5q0 -160 -57 -311.5t-163.5 -275.5t-279.5 -200t-384 -76q-287 0 -466 146.5t-179 431.5zM541 485q0 -190 80 -295q98 -127 274 -127q106 0 219 58.5t197 191.5q61 100 99 254 t47 243t9 134q0 117 -33.5 201t-91 125t-115 58.5t-118.5 17.5q-150 0 -287 -96.5t-205 -301.5q-37 -111 -56 -249t-19 -214zM838 1593q72 41 172 99q131 74 157.5 87t53.5 13q43 0 69.5 -31.5t26.5 -74.5q0 -18 -8 -48q246 141 274 150q12 4 29 4q43 0 69.5 -30.5 t26.5 -75.5q0 -31 -12.5 -55.5t-26.5 -39t-40.5 -25t-41 -13.5t-42 -7t-29.5 -4q-166 -27 -269 -41l-12 64l-27 -9l-352 -55z" />
<glyph unicode="&#x151;" d="M133 365q0 215 162 389t446 174q203 0 327 -100.5t124 -292.5q0 -219 -161 -383t-445 -164q-211 0 -332 100.5t-121 276.5zM385 281q0 -31 4 -55.5t21.5 -65.5t65.5 -65.5t124 -24.5q84 0 156.5 40t105.5 115q37 78 60.5 217.5t23.5 204.5q0 23 -1 40.5t-13 51t-32.5 56 t-64.5 41t-106 18.5q-193 0 -270 -166q-27 -57 -50.5 -195t-23.5 -212zM483 1096q289 231 317 247q23 10 52 13h2q45 0 72.5 -34t27.5 -77q0 -68 -51 -97.5t-252 -92.5q-82 -27 -131 -43zM875 1096q289 231 317 247q23 10 52 13h2q45 0 72.5 -34t27.5 -77q0 -68 -51 -97.5 t-252 -92.5q-82 -27 -131 -43z" />
<glyph unicode="&#x152;" horiz-adv-x="2394" d="M274 559q0 158 58.5 308.5t169 277.5t290 204.5t400.5 77.5q57 0 189 -11t218 -11h836l-20 -496h-99q0 14 1 44t1 44q0 84 -19.5 142.5t-49 91.5t-82.5 50t-101.5 21.5t-121.5 4.5h-256l-89 -529h168q145 0 210 46t91 194h99l-96 -578h-97q8 57 8 86q0 88 -52 121 t-167 33h-180l-98 -582h244q162 0 267 29t183 125q68 84 145 311h99l-189 -563h-858q-100 0 -230 -11.5t-196 -11.5q-309 0 -492.5 151.5t-183.5 430.5zM578 532q0 -209 99 -345t296 -136q154 0 215 74q61 76 108 344q10 66 37 231q25 152 39 240q27 174 27 231 q0 104 -45 142.5t-166 38.5q-145 0 -263 -71t-193 -187.5t-114.5 -261t-39.5 -300.5z" />
<glyph unicode="&#x153;" horiz-adv-x="1830" d="M133 379q0 221 163 385t433 164q250 0 373 -150q172 150 403 150q147 0 247.5 -75t100.5 -255q0 -98 -15 -125t-52 -27h-615q-2 -2 -7 -55t-5 -72q0 -135 75 -191t173 -56q88 0 166 44t123 117q25 43 59 43q45 0 45 -36q0 -20 -26.5 -59.5t-74.5 -83.5t-131 -75.5 t-179 -31.5q-254 0 -379 153q-182 -156 -426 -155q-203 0 -327 103.5t-124 287.5zM365 301q0 -129 65.5 -183.5t157.5 -54.5q154 0 250 121q47 59 76.5 166t35.5 172.5t6 100.5q0 125 -67.5 177t-161.5 52q-162 0 -256 -125q-55 -74 -80.5 -206t-25.5 -220zM1184 514h469 q2 2 7 55.5t5 71.5q0 211 -164 211q-33 0 -69.5 -10.5t-89 -41t-95.5 -104t-63 -182.5z" />
<glyph unicode="&#x154;" horiz-adv-x="1765" d="M80 0l14 96h223l201 1213h-221l16 96h779q242 0 396 -88t154 -248q0 -135 -115.5 -234.5t-289.5 -140.5q195 -72 195 -248q0 -25 -4.5 -106.5t-4.5 -106.5q0 -84 21.5 -133t87.5 -49q45 0 92 34t70 120q10 35 49 35q47 0 47 -37q0 -18 -13.5 -50t-40 -74t-86 -72 t-134.5 -30q-410 0 -410 238q0 29 16 121q20 119 21 143q0 72 -47 129.5t-160 57.5h-246l-94 -570h221l-16 -96q-74 6 -360.5 6t-360.5 -6zM705 739h235q203 0 305 90q49 43 69.5 137.5t20.5 151.5q0 90 -63.5 140.5t-233.5 50.5h-239zM954 1593q328 186 349 193q14 6 34 6 q43 0 70 -31.5t27 -74.5q0 -27 -8.5 -49.5t-24 -37t-30.5 -24.5t-37.5 -16.5t-36 -9.5t-35 -6t-25.5 -3q-88 -14 -264 -39z" />
<glyph unicode="&#x155;" horiz-adv-x="968" d="M76 0l14 96h143l107 645q4 20 4 27q0 29 -27.5 35t-107.5 6l16 96l344 17l-34 -217q117 217 301 217q80 0 138 -39t58 -111q0 -63 -43 -103t-98 -40q-41 0 -76 25.5t-35 80.5q0 68 51 113q-66 -2 -122 -39t-88.5 -86t-57 -106.5t-35 -93.5t-12.5 -56l-61 -371h178 l-19 -96q-80 6 -280 6q-74 0 -258 -6zM543 1096q289 231 317 247q23 10 51 13q45 0 73 -34t28 -77q0 -68 -51.5 -97.5t-251.5 -92.5q-82 -27 -131 -43z" />
<glyph unicode="&#x158;" horiz-adv-x="1765" d="M80 0l14 96h223l201 1213h-221l16 96h779q242 0 396 -88t154 -248q0 -135 -115.5 -234.5t-289.5 -140.5q195 -72 195 -248q0 -25 -4.5 -106.5t-4.5 -106.5q0 -84 21.5 -133t87.5 -49q45 0 92 34t70 120q10 35 49 35q47 0 47 -37q0 -18 -13.5 -50t-40 -74t-86 -72 t-134.5 -30q-410 0 -410 238q0 29 16 121q20 119 21 143q0 72 -47 129.5t-160 57.5h-246l-94 -570h221l-16 -96q-74 6 -360.5 6t-360.5 -6zM705 739h235q203 0 305 90q49 43 69.5 137.5t20.5 151.5q0 90 -63.5 140.5t-233.5 50.5h-239zM715 1798l33 53q305 -88 313 -88 q4 0 60.5 15.5t142.5 38t129 34.5l16 -53l-387 -231z" />
<glyph unicode="&#x159;" horiz-adv-x="968" d="M76 0l14 96h143l107 645q4 20 4 27q0 29 -27.5 35t-107.5 6l16 96l344 17l-34 -217q117 217 301 217q80 0 138 -39t58 -111q0 -63 -43 -103t-98 -40q-41 0 -76 25.5t-35 80.5q0 68 51 113q-66 -2 -122 -39t-88.5 -86t-57 -106.5t-35 -93.5t-12.5 -56l-61 -371h178 l-19 -96q-80 6 -280 6q-74 0 -258 -6zM365 1315l43 45h2q84 -53 182 -117q94 -59 104 -59q12 0 73.5 31.5t146.5 77.5t126 67l27 -43v-4l-412 -350z" />
<glyph unicode="&#x15a;" horiz-adv-x="1306" d="M133 6l68 416q4 31 13 38t38 7q49 0 49 -31q0 -2 -3 -20.5t-3 -48.5q0 -94 47 -158t123 -90.5t134 -35.5t118 -9q88 0 153.5 30.5t98 76.5t48 91t15.5 84q0 55 -20.5 95.5t-58.5 62t-57 28.5t-52 15q-106 23 -174 39q-78 16 -116 26.5t-84 36t-85 66.5q-90 96 -90 233 q0 74 30.5 153t91 151.5t166 118.5t238.5 46q205 0 336 -114l111 96q20 18 39 18q37 0 36 -30q0 -4 -4 -25l-63 -387q-4 -23 -11.5 -33t-14.5 -12t-27 -2q-25 0 -34 5t-11 14.5t-2 33.5q-6 348 -357 348q-156 0 -230.5 -81.5t-74.5 -170.5q0 -70 47 -115.5t121 -62.5 l276 -61q139 -31 216 -133.5t77 -229.5q0 -80 -30.5 -163.5t-91 -163.5t-169 -130.5t-247.5 -50.5q-256 0 -396 113q-35 -33 -108 -94q-23 -18 -41 -19q-35 0 -35 29zM674 1593q328 186 348 193q14 6 35 6q43 0 68.5 -31.5t25.5 -74.5q0 -27 -8 -49.5t-23.5 -37t-31 -24.5 t-38 -16.5t-36 -9.5t-35 -6t-25.5 -3q-100 -16 -262 -39z" />
<glyph unicode="&#x15b;" horiz-adv-x="929" d="M82 27q0 14 41 247q4 20 7 29.5t14.5 17t31.5 7.5q35 0 43 -18.5t16.5 -64.5t32.5 -85q63 -96 205 -97h4q147 0 205.5 53.5t58.5 123.5q0 47 -41 78.5t-88 43t-120.5 24.5t-98.5 20q-82 25 -145.5 79t-63.5 142q0 45 15.5 90t56.5 96t130 83t216 32q86 0 141.5 -17.5 t59.5 -17.5q16 0 49 16.5t51 16.5q35 0 35 -35q0 -2 -7 -53.5t-17.5 -106.5t-14.5 -63q-10 -18 -43 -19q-49 0 -49 39q0 4 1 13.5t1 13.5q0 145 -211 145q-141 0 -197.5 -44t-56.5 -101q0 -39 39 -64.5t86 -35t115.5 -20.5t99.5 -22q84 -25 149.5 -88t65.5 -159 q0 -37 -7 -74t-34 -86t-70 -86t-123.5 -63.5t-187.5 -26.5q-150 0 -233 65q-111 -66 -127 -65q-35 0 -35 37zM489 1096q289 231 318 247q23 10 51 13h2q45 0 73 -34t28 -77q0 -68 -51.5 -97.5t-252.5 -92.5q-82 -27 -131 -43z" />
<glyph unicode="&#x15c;" horiz-adv-x="1306" d="M133 6l68 416q4 31 13 38t38 7q49 0 49 -31q0 -2 -3 -20.5t-3 -48.5q0 -94 47 -158t123 -90.5t134 -35.5t118 -9q88 0 153.5 30.5t98 76.5t48 91t15.5 84q0 55 -20.5 95.5t-58.5 62t-57 28.5t-52 15q-106 23 -174 39q-78 16 -116 26.5t-84 36t-85 66.5q-90 96 -90 233 q0 74 30.5 153t91 151.5t166 118.5t238.5 46q205 0 336 -114l111 96q20 18 39 18q37 0 36 -30q0 -4 -4 -25l-63 -387q-4 -23 -11.5 -33t-14.5 -12t-27 -2q-25 0 -34 5t-11 14.5t-2 33.5q-6 348 -357 348q-156 0 -230.5 -81.5t-74.5 -170.5q0 -70 47 -115.5t121 -62.5 l276 -61q139 -31 216 -133.5t77 -229.5q0 -80 -30.5 -163.5t-91 -163.5t-169 -130.5t-247.5 -50.5q-256 0 -396 113q-35 -33 -108 -94q-23 -18 -41 -19q-35 0 -35 29zM524 1587l365 256l281 -256v-2l-70 -78l-238 166l-295 -166z" />
<glyph unicode="&#x15d;" horiz-adv-x="927" d="M82 16l2 29l41 238q4 31 12 38t39 7t38 -7.5t11 -33.5q12 -92 54.5 -145.5t88.5 -67t109 -13.5q74 0 129.5 18.5t80 40t38.5 52.5t16 44t2 24q0 29 -14 51t-33.5 35.5t-61.5 27t-70.5 19.5t-90.5 16q-289 49 -289 238q0 18 2 39.5t26 73t62.5 89t124.5 68.5t205 31 q127 0 203 -39q78 39 96 39q37 0 37 -33q0 -2 -1 -5t-2 -9.5t-1 -12.5l-29 -174q-6 -31 -15 -38t-36 -7q-49 0 -49 31q0 2 2 16.5t2 20.5q0 145 -209 145q-72 0 -125 -14t-77.5 -31.5t-38 -43t-15.5 -37t-2 -21.5q0 -29 16.5 -49.5t54.5 -34t63.5 -19.5t82.5 -16 q74 -12 105.5 -19.5t71.5 -24.5t75 -44q88 -74 88 -182q0 -23 -4 -50.5t-27.5 -83t-64.5 -97.5t-128 -74.5t-204 -32.5q-141 0 -229 65q-6 -4 -30 -17t-30 -18q-49 -31 -67 -30q-35 -1 -35 28zM296 1044l377 304l274 -301v-3l-75 -73l-228 209l-297 -209z" />
<glyph unicode="&#x15e;" horiz-adv-x="1308" d="M133 14q0 2 68 408q8 45 53 45t45 -43q0 -8 -2 -28.5t-2 -33.5q0 -106 71.5 -174.5t159.5 -90t189 -21.5q90 0 155.5 30.5t98 76.5t48 90t15.5 83q0 61 -25.5 103.5t-77.5 66t-102.5 35.5t-132.5 28.5t-133 31.5q-113 33 -189.5 120.5t-76.5 214.5q0 78 31.5 157 t92 150.5t166 117.5t238.5 46q211 0 332 -114h2q16 14 35.5 31.5t30 25.5t24 19.5t20.5 16.5t15 10t14.5 7t12.5 2q33 0 32 -34q0 -8 -16 -108.5t-33 -199.5l-16 -98q-4 -23 -14.5 -35t-38.5 -12q-25 0 -36 9t-12 17.5t-1 28.5q0 98 -32 169t-86.5 108t-111.5 52t-125 15 q-150 0 -226.5 -78.5t-76.5 -171.5q0 -72 50 -116.5t111.5 -59t163 -35t154.5 -38.5q123 -41 189.5 -138.5t66.5 -216.5q0 -158 -107.5 -306t-309.5 -187v-2l-9 -49q170 -31 170 -142q0 -207 -540 -207q-27 0 -67 1t-50 1l12 74h23q82 0 138 3t119.5 14.5t96.5 37t33 66.5 q0 88 -178 90l18 107q-92 12 -154.5 36.5t-90 42t-38.5 17.5q-16 0 -70 -50t-81 -50q-10 0 -21.5 8t-11.5 26z" />
<glyph unicode="&#x15f;" horiz-adv-x="929" d="M82 -408l12 74h25q180 0 282.5 23.5t102.5 97.5q0 88 -178 90l20 123h12q-63 16 -114 55q-106 -66 -131 -65q-29 0 -29 33q0 20 39 251q4 20 7 29.5t14.5 17t31.5 7.5q35 0 43 -19.5t15.5 -65.5t33.5 -85q63 -94 203 -95h6q217 0 256 136q8 29 8 41q0 47 -47 84 q-39 31 -209 62.5t-241 100.5q-59 59 -60 140q0 37 11.5 80t53.5 97t109 83q92 41 244 41q86 0 142.5 -17.5t60.5 -17.5q16 0 48 16.5t50 16.5q35 0 35 -37q0 -6 -2 -18.5t-10 -55.5t-17 -100q0 -4 -2 -11.5t-2 -10.5t-2 -9t-3 -10t-4 -8t-7 -6.5t-9.5 -5.5t-11.5 -4t-14 -1 q-31 0 -39 11.5t-8 41.5q0 76 -44 116t-153 42h-30q-133 -2 -184.5 -47t-51.5 -96q0 -41 40 -67.5t87 -37t116.5 -21.5t98.5 -20q86 -27 149.5 -88t63.5 -157q0 -137 -96 -234q-76 -76 -223 -98l-11 -55q170 -31 170 -142q0 -205 -536 -205h-121z" />
<glyph unicode="&#x160;" horiz-adv-x="1306" d="M133 6l68 416q4 31 13 38t38 7q49 0 49 -31q0 -2 -3 -20.5t-3 -48.5q0 -94 47 -158t123 -90.5t134 -35.5t118 -9q88 0 153.5 30.5t98 76.5t48 91t15.5 84q0 55 -20.5 95.5t-58.5 62t-57 28.5t-52 15q-106 23 -174 39q-78 16 -116 26.5t-84 36t-85 66.5q-90 96 -90 233 q0 74 30.5 153t91 151.5t166 118.5t238.5 46q205 0 336 -114l111 96q20 18 39 18q37 0 36 -30q0 -4 -4 -25l-63 -387q-4 -23 -11.5 -33t-14.5 -12t-27 -2q-25 0 -34 5t-11 14.5t-2 33.5q-6 348 -357 348q-156 0 -230.5 -81.5t-74.5 -170.5q0 -70 47 -115.5t121 -62.5 l276 -61q139 -31 216 -133.5t77 -229.5q0 -80 -30.5 -163.5t-91 -163.5t-169 -130.5t-247.5 -50.5q-256 0 -396 113q-35 -33 -108 -94q-23 -18 -41 -19q-35 0 -35 29zM606 1798l33 53q305 -88 313 -88q4 0 60.5 15.5t142.5 38t129 34.5l16 -53l-387 -231z" />
<glyph unicode="&#x161;" horiz-adv-x="929" d="M82 27q0 14 41 247q4 20 7 29.5t14.5 17t31.5 7.5q35 0 43 -18.5t16.5 -64.5t32.5 -85q63 -96 205 -97h4q147 0 205.5 53.5t58.5 123.5q0 47 -41 78.5t-85 43t-117.5 23.5t-96.5 18q-88 23 -152.5 78.5t-64.5 145.5q0 66 40 142.5t136.5 117.5t241.5 41q86 0 141.5 -17.5 t59.5 -17.5q16 0 49 16.5t51 16.5q35 0 35 -31q0 -10 -33 -201q-4 -25 -13 -35t-36 -10q-31 0 -40 10.5t-9 30.5q0 4 1 12.5t1 12.5q0 145 -211 145q-141 0 -197.5 -44t-56.5 -101q0 -49 53.5 -75t157.5 -43t129 -24q82 -23 148.5 -86t66.5 -161q0 -37 -7 -74t-34 -86 t-70 -86t-123.5 -63.5t-187.5 -26.5q-150 0 -233 65q-111 -66 -127 -65q-35 0 -35 37zM299 1315l43 45h2q84 -53 182 -117q94 -59 105 -59q12 0 71.5 30.5t144.5 77.5t130 68l29 -43v-4l-414 -350z" />
<glyph unicode="&#x162;" horiz-adv-x="1638" d="M231 887l125 495h1381l-37 -495h-98q0 2 3 56t3 83q0 86 -20.5 139.5t-65.5 78t-90.5 32.5t-120.5 8h-133l-199 -1186h313l-16 -98l-340 6l-12 -67q170 -31 170 -142q0 -123 -176 -170q-131 -35 -482 -35l13 74h24q84 0 141.5 3t119 14.5t93 37t31.5 66.5q0 88 -178 90 l22 129l-344 -6l17 98h313l197 1186h-135q-106 0 -174 -19.5t-115 -70.5t-75 -119.5t-56 -187.5h-99z" />
<glyph unicode="&#x163;" horiz-adv-x="915" d="M178 813l12 74q109 4 193 77.5t124 158.5t54 175v2h98l-65 -389h301l-16 -98h-301l-95 -573q-8 -41 -8 -68q0 -100 92 -100q100 0 148 133q8 27 30 157h99q-2 -10 -8.5 -54t-10.5 -61.5t-15 -55t-25.5 -58t-36 -48.5t-54 -48.5t-73.5 -36.5h59l-10 -61q172 -31 172 -142 q0 -205 -539 -205h-121l15 74h22q180 0 283.5 23.5t103.5 97.5q0 37 -43 62.5t-137 27.5l20 117q-201 31 -200 199q0 27 8 83l90 537h-166z" />
<glyph unicode="&#x164;" horiz-adv-x="1638" d="M233 889l127 493h1377l-39 -493h-96q8 66 8 137q0 57 -7.5 95t-33 80t-84 63.5t-150.5 21.5h-155l-199 -1190h313l-16 -96q-111 6 -459 6t-459 -6l17 96h313l197 1190h-156q-72 0 -127 -11t-95 -41t-64.5 -56.5t-48 -83t-35 -92t-31.5 -113.5h-97zM770 1798l35 53 q305 -88 313 -88q4 0 60.5 15.5t142.5 38t129 34.5l14 -53l-385 -231z" />
<glyph unicode="&#x165;" horiz-adv-x="915" d="M178 813l12 74q127 6 228.5 109.5t142.5 303.5h98l-65 -389h301l-16 -98h-301l-95 -573q-8 -41 -8 -68q0 -100 92 -100q100 0 148 133q8 27 30 157h99q-25 -145 -31 -167q-25 -78 -96.5 -141.5t-184.5 -63.5q-287 0 -286 205q0 27 8 84l90 534h-166zM825 1438 q0 72 52.5 127t130.5 55q74 0 120 -50t46 -126q0 -78 -58.5 -190.5t-185.5 -186.5q-47 -29 -66 -29q-14 0 -25.5 11.5t-11.5 26t27 31.5t62.5 37.5t80.5 71t76 119.5q-57 -35 -106 -35q-63 0 -102.5 38.5t-39.5 99.5z" />
<glyph unicode="&#x16a;" horiz-adv-x="1810" d="M297 1309l16 96q78 -6 367 -6q291 0 369 6l-17 -96h-221l-143 -860q-12 -78 -13 -119q0 -256 306 -256q225 0 357 113.5t161 281.5l131 786l2 25q0 29 -162 29h-53l16 96q84 -6 277 -6q197 0 276 6l-16 -96h-54q-53 0 -106 -6q-45 -4 -55.5 -10.5t-14.5 -32.5l-133 -801 q-14 -84 -56 -163t-116 -153.5t-194.5 -120t-272.5 -45.5q-283 0 -429 121t-146 303q0 29 6 68l139 840h-221zM694 1620l18 105h955l-19 -105h-954z" />
<glyph unicode="&#x16b;" horiz-adv-x="1306" d="M225 809l17 96l379 17l-121 -727q-4 -25 -4 -54q0 -18 3 -28.5t14 -23.5t43 -20.5t81 -7.5q123 0 205 83t98 188l68 409q0 6 1 11.5t2 9.5t1 6q0 29 -28 35t-107 6l16 96l379 17l-125 -756q0 -6 -1 -12.5t-2 -9.5t-1 -5q0 -31 25.5 -37t107.5 -6l-16 -96l-365 -12l25 149 h-2q-113 -150 -314 -149q-72 0 -125 8t-104 29.5t-78 65.5t-27 110q0 23 6 57l80 483q0 6 1 11.5t2 9.5t1 6q0 29 -27.5 35t-107.5 6zM438 1131l16 106h850l-16 -106h-850z" />
<glyph unicode="&#x16c;" horiz-adv-x="1810" d="M297 1309l16 96q78 -6 367 -6q291 0 369 6l-17 -96h-221l-143 -860q-12 -78 -13 -119q0 -256 306 -256q225 0 357 113.5t161 281.5l131 786l2 25q0 29 -162 29h-53l16 96q84 -6 277 -6q197 0 276 6l-16 -96h-54q-53 0 -106 -6q-45 -4 -55.5 -10.5t-14.5 -32.5l-133 -801 q-14 -84 -56 -163t-116 -153.5t-194.5 -120t-272.5 -45.5q-283 0 -429 121t-146 303q0 29 6 68l139 840h-221zM841 1790q0 27 2 41h74v-12q0 -143 266 -144q270 0 314 156h73q-33 -145 -155.5 -215t-253.5 -70q-137 0 -228.5 67.5t-91.5 176.5z" />
<glyph unicode="&#x16d;" horiz-adv-x="1306" d="M225 809l17 96l379 17l-121 -727q-4 -25 -4 -54q0 -18 3 -28.5t14 -23.5t43 -20.5t81 -7.5q123 0 205 83t98 188l68 409q0 6 1 11.5t2 9.5t1 6q0 29 -28 35t-107 6l16 96l379 17l-125 -756q0 -6 -1 -12.5t-2 -9.5t-1 -5q0 -31 25.5 -37t107.5 -6l-16 -96l-365 -12l25 149 h-2q-113 -150 -314 -149q-72 0 -125 8t-104 29.5t-78 65.5t-27 110q0 23 6 57l80 483q0 6 1 11.5t2 9.5t1 6q0 29 -27.5 35t-107.5 6zM530 1288l4 49h74v-24q0 -90 80 -132t178 -42q47 0 94.5 9t95.5 30.5t83.5 62.5t48.5 96h74q-25 -141 -148 -233t-268 -92 q-133 0 -224.5 76.5t-91.5 199.5z" />
<glyph unicode="&#x16e;" horiz-adv-x="1810" d="M297 1309l16 96q78 -6 367 -6q291 0 369 6l-17 -96h-221l-143 -860q-12 -78 -13 -119q0 -256 306 -256q225 0 357 113.5t161 281.5l131 786l2 25q0 29 -162 29h-53l16 96q84 -6 277 -6q197 0 276 6l-16 -96h-54q-53 0 -106 -6q-45 -4 -55.5 -10.5t-14.5 -32.5l-133 -801 q-14 -84 -56 -163t-116 -153.5t-194.5 -120t-272.5 -45.5q-283 0 -429 121t-146 303q0 29 6 68l139 840h-221zM1026 1630q0 88 75 152.5t204 64.5q113 0 164 -47t51 -110q0 -80 -71 -148.5t-210 -68.5q-115 0 -164 48t-49 109zM1122 1628q0 -47 31 -64.5t92 -17.5 q37 0 60.5 4t54.5 16.5t47 44t16 81.5q0 82 -127 82q-82 0 -128 -28t-46 -118z" />
<glyph unicode="&#x16f;" horiz-adv-x="1306" d="M225 809l17 96l379 17l-121 -727q-4 -25 -4 -54q0 -18 3 -28.5t14 -23.5t43 -20.5t81 -7.5q123 0 205 83t98 188l68 409q0 6 1 11.5t2 9.5t1 6q0 29 -28 35t-107 6l16 96l379 17l-125 -756q0 -6 -1 -12.5t-2 -9.5t-1 -5q0 -31 25.5 -37t107.5 -6l-16 -96l-365 -12l25 149 h-2q-113 -150 -314 -149q-72 0 -125 8t-104 29.5t-78 65.5t-27 110q0 23 6 57l80 483q0 6 1 11.5t2 9.5t1 6q0 29 -27.5 35t-107.5 6zM625 1151q0 76 68.5 139.5t209.5 63.5q115 0 165 -46t50 -106q0 -76 -69.5 -140.5t-208.5 -64.5q-115 0 -165 47.5t-50 106.5zM723 1151 q0 -47 29.5 -64.5t95.5 -17.5q39 0 64.5 4t53 16.5t42 41t14.5 73.5q0 51 -35 64.5t-102 13.5h-4q-158 0 -158 -131z" />
<glyph unicode="&#x170;" horiz-adv-x="1810" d="M297 1309l16 96q78 -6 367 -6q291 0 369 6l-17 -96h-221l-143 -860q-12 -78 -13 -119q0 -256 306 -256q225 0 357 113.5t161 281.5l131 786l2 25q0 29 -162 29h-53l16 96q84 -6 277 -6q197 0 276 6l-16 -96h-54q-53 0 -106 -6q-45 -4 -55.5 -10.5t-14.5 -32.5l-133 -801 q-14 -84 -56 -163t-116 -153.5t-194.5 -120t-272.5 -45.5q-283 0 -429 121t-146 303q0 29 6 68l139 840h-221zM860 1593q72 41 172 99q131 74 158 87t53 13q43 0 68.5 -31.5t25.5 -74.5q0 -27 -6 -48q246 141 271 150q14 4 30 4q43 0 71 -30.5t28 -75.5q0 -31 -12.5 -55.5 t-27 -39t-42 -25t-42 -13.5t-42 -7t-29.5 -4q-176 -29 -266 -41l-13 64l-28 -9l-350 -55z" />
<glyph unicode="&#x171;" horiz-adv-x="1306" d="M225 809l17 96l379 17l-121 -727q-4 -25 -4 -54q0 -18 3 -28.5t14 -23.5t43 -20.5t81 -7.5q123 0 205 83t98 188l68 409q0 6 1 11.5t2 9.5t1 6q0 29 -28 35t-107 6l16 96l379 17l-125 -756q0 -6 -1 -12.5t-2 -9.5t-1 -5q0 -31 25.5 -37t107.5 -6l-16 -96l-365 -12l25 149 h-2q-113 -150 -314 -149q-72 0 -125 8t-104 29.5t-78 65.5t-27 110q0 23 6 57l80 483q0 6 1 11.5t2 9.5t1 6q0 29 -27.5 35t-107.5 6zM571 1096q289 231 317 247q23 10 52 13h2q45 0 72.5 -34t27.5 -77q0 -68 -51 -97.5t-252 -92.5q-82 -27 -131 -43zM963 1096 q289 231 317 247q23 10 52 13h2q45 0 72.5 -34t27.5 -77q0 -68 -51 -97.5t-252 -92.5q-82 -27 -131 -43z" />
<glyph unicode="&#x178;" horiz-adv-x="1779" d="M258 1309l16 96q72 -6 336 -6q291 0 375 6l-16 -96h-174l315 -609l496 586q-2 0 -2 2t-3.5 4t-9.5 2q-41 14 -139 15l16 96q80 -6 271 -6q25 0 233 6l-16 -96h-41q-53 0 -115 -6q-37 -4 -48 -9.5t-30 -27.5l-600 -705l-78 -465h224l-19 -96q-74 6 -360.5 6t-360.5 -6 l15 96h223l78 465l-387 748h-199zM778 1653q0 72 55.5 125t124.5 53q59 0 100.5 -40t41.5 -101q0 -76 -56.5 -127.5t-123.5 -51.5q-61 0 -101.5 41.5t-40.5 100.5zM1235 1651q0 72 56.5 125t125.5 53q61 0 100 -40t39 -99q0 -70 -54 -124.5t-126 -54.5q-61 0 -101 40.5 t-40 99.5z" />
<glyph unicode="&#x179;" horiz-adv-x="1437" d="M137 33q0 37 31 73l1018 1203h-266q-205 0 -332 -91.5t-176 -306.5h-97l107 494h1053q59 0 59 -31q0 -35 -27 -69l-1018 -1201h287q88 0 161 16.5t123 39t92 64.5t65.5 76t46 91.5t33 93t24.5 97.5h96l-133 -582h-1087q-23 0 -32 1t-18.5 8.5t-9.5 23.5zM803 1593 q328 186 350 195q14 4 35 4q43 0 68.5 -31.5t25.5 -74.5q0 -27 -8 -49.5t-23.5 -37t-31 -24.5t-38 -16.5t-35.5 -9.5t-34.5 -6t-26.5 -3q-88 -14 -264 -39z" />
<glyph unicode="&#x17a;" horiz-adv-x="1046" d="M72 33q0 27 28 59l707 744h-184q-160 0 -230.5 -62.5t-105.5 -222.5h-97l84 358h752q23 0 32 -1t18 -8t9 -23q0 -25 -28 -54l-703 -741h187q98 0 164.5 20.5t107.5 68.5t62.5 100.5t44.5 142.5h96l-107 -414h-778q-23 0 -32 1t-18 8.5t-9 23.5zM549 1096q37 31 78 63.5 t65.5 52t51 41t42 33.5t33 25.5t27.5 19.5t20.5 12.5t18.5 8.5t16 3t17 1q45 0 72.5 -34t27.5 -77q0 -68 -51.5 -97.5t-251.5 -92.5q-82 -27 -131 -43z" />
<glyph unicode="&#x17b;" horiz-adv-x="1437" d="M137 33q0 37 31 73l1018 1203h-266q-205 0 -332 -91.5t-176 -306.5h-97l107 494h1053q59 0 59 -31q0 -35 -27 -69l-1018 -1201h287q88 0 161 16.5t123 39t92 64.5t65.5 76t46 91.5t33 93t24.5 97.5h96l-133 -582h-1087q-23 0 -32 1t-18.5 8.5t-9.5 23.5zM915 1741 q0 68 54.5 123t128.5 55q59 0 99 -39t40 -100q0 -74 -56.5 -126t-123.5 -52q-61 0 -101.5 40t-40.5 99z" />
<glyph unicode="&#x17c;" horiz-adv-x="1046" d="M72 33q0 27 28 59l707 744h-184q-160 0 -230.5 -62.5t-105.5 -222.5h-97l84 358h752q23 0 32 -1t18 -8t9 -23q0 -25 -28 -54l-703 -741h187q98 0 164.5 20.5t107.5 68.5t62.5 100.5t44.5 142.5h96l-107 -414h-778q-23 0 -32 1t-18 8.5t-9 23.5zM603 1243q0 72 56 125 t126 53q61 0 100 -40t39 -99q0 -70 -54 -124t-126 -54q-61 0 -101 40t-40 99z" />
<glyph unicode="&#x17d;" horiz-adv-x="1437" d="M137 33q0 37 31 73l1018 1203h-266q-205 0 -332 -91.5t-176 -306.5h-97l107 494h1053q59 0 59 -31q0 -35 -27 -69l-1018 -1201h287q88 0 161 16.5t123 39t92 64.5t65.5 76t46 91.5t33 93t24.5 97.5h96l-133 -582h-1087q-23 0 -32 1t-18.5 8.5t-9.5 23.5zM635 1798l33 53 q305 -88 313 -88q4 0 60.5 15.5t142.5 38t129 34.5l16 -53l-387 -231z" />
<glyph unicode="&#x17e;" horiz-adv-x="1046" d="M72 33q0 27 28 59l707 744h-184q-160 0 -230.5 -62.5t-105.5 -222.5h-97l84 358h752q23 0 32 -1t18 -8t9 -23q0 -25 -28 -54l-703 -741h187q98 0 164.5 20.5t107.5 68.5t62.5 100.5t44.5 142.5h96l-107 -414h-778q-23 0 -32 1t-18 8.5t-9 23.5zM367 1315l43 45h2 q84 -53 182 -117q94 -59 104 -59q12 0 72 30.5t144.5 77.5t130.5 68l28 -43v-4l-413 -350z" />
<glyph unicode="&#x192;" horiz-adv-x="718" d="M98 0l15 96h143l119 717h-154l17 96h153l35 217q23 137 151 222.5t318 85.5q106 0 158.5 -47.5t52.5 -110.5q0 -66 -45 -107t-98 -41q-43 0 -78 28t-35 81q0 78 63 119q-8 4 -26 4q-94 0 -162 -61.5t-86 -157.5l-39 -232h248l-17 -96h-235l-119 -717h178l-18 -96 q-80 6 -281 6q-74 0 -258 -6z" />
<glyph unicode="&#x218;" horiz-adv-x="1306" d="M133 6l68 416q4 31 13 38t38 7q49 0 49 -31q0 -2 -3 -20.5t-3 -48.5q0 -94 47 -158t123 -90.5t134 -35.5t118 -9q88 0 153.5 30.5t98 76.5t48 91t15.5 84q0 55 -20.5 95.5t-58.5 62t-57 28.5t-52 15q-106 23 -174 39q-78 16 -116 26.5t-84 36t-85 66.5q-90 96 -90 233 q0 74 30.5 153t91 151.5t166 118.5t238.5 46q205 0 336 -114l111 96q20 18 39 18q37 0 36 -30q0 -4 -4 -25l-63 -387q-4 -23 -11.5 -33t-14.5 -12t-27 -2q-25 0 -34 5t-11 14.5t-2 33.5q-6 348 -357 348q-156 0 -230.5 -81.5t-74.5 -170.5q0 -70 47 -115.5t121 -62.5 l276 -61q139 -31 216 -133.5t77 -229.5q0 -80 -30.5 -163.5t-91 -163.5t-169 -130.5t-247.5 -50.5q-256 0 -396 113q-35 -33 -108 -94q-23 -18 -41 -19q-35 0 -35 29zM475 -600q0 8 22.5 27.5t51 44t62.5 80t55 124.5q-35 -25 -78 -24q-45 0 -72 25.5t-27 68.5q0 47 37 88 t90 41q49 0 79 -38t30 -99q0 -84 -49 -173t-101.5 -139.5t-74.5 -50.5q-8 0 -16.5 7.5t-8.5 17.5z" />
<glyph unicode="&#x219;" horiz-adv-x="927" d="M82 16l2 29l41 238q4 31 12 38t39 7t38 -7.5t11 -33.5q12 -92 54.5 -145.5t88.5 -67t109 -13.5q74 0 129.5 18.5t80 40t38.5 52.5t16 44t2 24q0 29 -14 51t-33.5 35.5t-61.5 27t-70.5 19.5t-90.5 16q-289 49 -289 238q0 18 2 39.5t26 73t62.5 89t124.5 68.5t205 31 q127 0 203 -39q78 39 96 39q37 0 37 -33q0 -2 -1 -5t-2 -9.5t-1 -12.5l-29 -174q-6 -31 -15 -38t-36 -7q-49 0 -49 31q0 2 2 16.5t2 20.5q0 145 -209 145q-72 0 -125 -14t-77.5 -31.5t-38 -43t-15.5 -37t-2 -21.5q0 -29 16.5 -49.5t54.5 -34t63.5 -19.5t82.5 -16 q74 -12 105.5 -19.5t71.5 -24.5t75 -44q88 -74 88 -182q0 -23 -4 -50.5t-27.5 -83t-64.5 -97.5t-128 -74.5t-204 -32.5q-141 0 -229 65q-6 -4 -30 -17t-30 -18q-49 -31 -67 -30q-35 -1 -35 28zM289 -588q0 8 22.5 27.5t51 44t62.5 80t55 124.5q-35 -25 -78 -24 q-45 0 -72 25.5t-27 68.5q0 47 37 88t90 41q49 0 79 -38t30 -99q0 -84 -49 -173t-101.5 -139.5t-74.5 -50.5q-8 0 -16.5 7.5t-8.5 17.5z" />
<glyph unicode="&#x21a;" horiz-adv-x="1638" d="M233 889l127 493h1377l-39 -493h-96q8 66 8 137q0 57 -7.5 95t-33 80t-84 63.5t-150.5 21.5h-155l-199 -1190h313l-16 -96q-111 6 -459 6t-459 -6l17 96h313l197 1190h-156q-72 0 -127 -11t-95 -41t-64.5 -56.5t-48 -83t-35 -92t-31.5 -113.5h-97zM643 -577 q0 8 22.5 27.5t51 44t62.5 80t55 124.5q-35 -25 -78 -24q-45 0 -72 25.5t-27 68.5q0 47 37 88t90 41q49 0 79 -38t30 -99q0 -84 -49 -173t-101.5 -139.5t-74.5 -50.5q-8 0 -16.5 7.5t-8.5 17.5z" />
<glyph unicode="&#x21b;" horiz-adv-x="915" d="M178 813l6 35t6 39q150 4 248.5 129t126.5 284h97l-66 -391h299l-16 -96h-299l-95 -575q-6 -35 -6 -62q0 -106 92 -106q82 0 131 102q18 39 43 190h97q-20 -135 -32.5 -176t-51.5 -92q-86 -106 -219 -106q-291 0 -291 213q0 23 6 57l92 555h-168zM240 -588q0 8 22.5 27.5 t51 44t62.5 80t55 124.5q-35 -25 -78 -24q-45 0 -72 25.5t-27 68.5q0 47 37 88t90 41q49 0 79 -38t30 -99q0 -84 -49 -173t-101.5 -139.5t-74.5 -50.5q-8 0 -16.5 7.5t-8.5 17.5z" />
<glyph unicode="&#x2c6;" d="M436 1044l377 304l274 -301v-3l-75 -73l-228 209l-297 -209z" />
<glyph unicode="&#x2c7;" d="M455 1315l43 45h2q84 -53 182 -117q94 -59 104 -59q12 0 72 30.5t144.5 77.5t130.5 68l28 -43v-4l-413 -350z" />
<glyph unicode="&#x2d8;" d="M442 1288l4 49h74v-24q0 -90 80 -132t178 -42q47 0 94.5 9t95.5 30.5t83.5 62.5t48.5 96h74q-25 -141 -148 -233t-268 -92q-133 0 -224.5 76.5t-91.5 199.5z" />
<glyph unicode="&#x2d9;" horiz-adv-x="653" d="M408 1243q0 72 56 125t126 53q61 0 100 -40t39 -99q0 -70 -54 -124t-126 -54q-61 0 -101 40t-40 99z" />
<glyph unicode="&#x2da;" horiz-adv-x="1875" d="M885 1151q0 76 68.5 139.5t209.5 63.5q117 0 166 -47t49 -107q0 -76 -68.5 -139.5t-207.5 -63.5q-117 0 -167 47.5t-50 106.5zM983 1151q0 -47 29.5 -64.5t97.5 -17.5q84 0 128 25.5t44 107.5q0 37 -23.5 55.5t-48 21.5t-67.5 3h-2q-158 0 -158 -131z" />
<glyph unicode="&#x2db;" horiz-adv-x="653" d="M-55 -283q0 98 106 168q51 33 181 75t202 97l23 -57q-23 -16 -104 -67.5t-122 -91.5t-41 -81q0 -25 24 -41t56 -16q80 0 174 109l54 -43v-2q-166 -211 -348 -211q-84 0 -144.5 44.5t-60.5 116.5z" />
<glyph unicode="&#x2dc;" d="M403 1251q16 14 50 46t47.5 43.5t40 32t44 27.5t43 14t52.5 7q53 0 157.5 -34.5t157.5 -34.5q80 0 166 69l45 -49v-2q-12 -12 -38.5 -36.5t-37 -34t-32 -28t-32.5 -25.5t-29.5 -18t-34 -16.5t-34 -8.5t-38.5 -3q-53 0 -157.5 35t-158.5 35q-80 0 -165 -70z" />
<glyph unicode="&#x2dd;" d="M483 1096q289 231 317 247q23 10 52 13h2q45 0 72.5 -34t27.5 -77q0 -68 -51 -97.5t-252 -92.5q-82 -27 -131 -43zM875 1096q289 231 317 247q23 10 52 13h2q45 0 72.5 -34t27.5 -77q0 -68 -51 -97.5t-252 -92.5q-82 -27 -131 -43z" />
<glyph unicode="&#x374;" horiz-adv-x="534" d="M313 1024q23 55 62 145q80 190 112.5 238.5t94.5 48.5h2q41 0 77.5 -29.5t36.5 -76.5q0 -41 -32.5 -76t-173.5 -154q-86 -72 -142 -119z" />
<glyph unicode="&#x375;" horiz-adv-x="534" d="M12 -338q0 43 31 77t172 150q86 74 143 121h2l35 -20q-18 -49 -133 -318q-49 -117 -135 -116q-43 0 -79 30.5t-36 75.5z" />
<glyph unicode="&#x37a;" horiz-adv-x="329" d="M-16 -397q0 47 39 241q8 43 49 43h133q51 0 51 -37q0 -14 -19.5 -127.5t-25.5 -132.5q-12 -37 -47 -62.5t-78 -25.5t-72.5 28t-29.5 73z" />
<glyph unicode="&#x37e;" horiz-adv-x="739" d="M211 -358.5q0 14.5 27.5 41t65.5 59.5t84 107.5t75 170.5q-45 -20 -90 -20q-59 0 -98 38t-39 99q0 70 51 126t129 56q55 0 96 -45t41 -139q0 -98 -41 -200.5t-95.5 -171t-103.5 -113.5t-67 -45q-12 0 -23.5 11t-11.5 25.5zM334 731q0 70 53 124t127 54q59 0 100 -37.5 t41 -99.5q0 -74 -57 -127t-125 -53q-59 0 -99 39t-40 100z" />
<glyph unicode="&#x384;" horiz-adv-x="466" d="M258 1024q4 10 135 317q49 115 133 115q43 0 79 -30.5t36 -75.5q0 -43 -35 -80t-178 -158q-82 -68 -133 -111h-2z" />
<glyph unicode="&#x385;" horiz-adv-x="739" d="M172 1077q0 33 30.5 60.5t96.5 27.5q47 0 79 -19.5t32 -55.5q0 -33 -32 -61t-97 -28q-57 0 -83 23.5t-26 52.5zM463 1024q23 55 61 145q80 190 113 238.5t94 48.5q43 0 80 -29.5t37 -76.5q0 -43 -32 -77t-193 -169q-74 -63 -121 -103zM690 1077q0 33 30 60.5t99 27.5 q57 0 83 -23.5t26 -51.5q0 -33 -31 -61t-98 -28q-49 0 -79 20.5t-30 55.5z" />
<glyph unicode="&#x386;" horiz-adv-x="1910" d="M115 0l16 98h2q141 0 176 9.5t56 44.5l722 1202q29 47 47.5 61.5t55.5 14.5h6q37 0 50.5 -14.5t23.5 -49.5l340 -1268h198l-14 -98q-166 6 -332 6q-182 0 -366 -6l16 98h191l-80 301h-590l-170 -280q20 -10 47 -13.5t75 -5.5t58 -2l-16 -98q-135 6 -273 6q-96 0 -239 -6z M258 1024q4 10 135 317q49 115 133 115q43 0 79 -30.5t36 -75.5q0 -43 -35 -80t-178 -158q-82 -68 -133 -111h-2zM690 498h506l-156 581z" />
<glyph unicode="&#x387;" horiz-adv-x="739" d="M334 731q0 70 53 124t127 54q59 0 100 -37.5t41 -99.5q0 -74 -57 -127t-125 -53q-59 0 -99 39t-40 100z" />
<glyph unicode="&#x388;" horiz-adv-x="2138" d="M258 1024q4 10 135 317q49 115 133 115q43 0 79 -30.5t36 -75.5q0 -43 -35 -80t-178 -158q-82 -68 -133 -111h-2zM586 0l16 98h221l199 1198h-221l16 97q119 -4 357 -4q98 0 183 2t99 2h686l-20 -496h-99q0 10 1.5 32.5t1.5 33.5q0 88 -18.5 149.5t-48.5 97t-84 55 t-109.5 25.5t-141.5 6h-309v-2l-86 -522h117q145 0 201.5 50t80.5 190h99l-97 -578h-98q10 78 10 94q0 47 -16.5 78t-47 44.5t-57 18.5t-67.5 5h-144l-94 -576h295q119 0 191.5 9.5t153.5 44t138.5 109.5t104.5 196l39 106h96l-186 -563h-725q-14 0 -100.5 3t-188.5 3 q-172 0 -348 -6z" />
<glyph unicode="&#x389;" horiz-adv-x="2441" d="M258 1024q4 10 135 317q49 115 133 115q43 0 79 -30.5t36 -75.5q0 -43 -35 -80t-178 -158q-82 -68 -133 -111h-2zM586 0l16 98h221l201 1209h-221l16 98q211 -6 350 -6l385 6l-16 -98h-221l-88 -529h706l88 529h-221l17 98q211 -6 350 -6l385 6l-16 -98h-222l-202 -1209 h223l-19 -98q-178 6 -358 6q-186 0 -375 -6l15 98h223l96 584h-707v-2l-96 -582h221l-16 -98q-178 6 -360 6q-187 0 -375 -6z" />
<glyph unicode="&#x38a;" horiz-adv-x="1439" d="M258 1024q4 10 135 317q49 115 133 115q43 0 79 -30.5t36 -75.5q0 -43 -35 -80t-178 -158q-82 -68 -133 -111h-2zM574 0l16 96h233l201 1213h-231l16 96q78 -6 377 -6q301 0 379 6l-17 -96h-231l-203 -1213h234l-19 -96q-78 6 -377 6q-294 0 -378 -6z" />
<glyph unicode="&#x38c;" horiz-adv-x="2138" d="M258 1024q4 10 135 317q49 115 133 115q43 0 79 -30.5t36 -75.5q0 -43 -35 -80t-178 -158q-82 -68 -133 -111h-2zM501 561q0 162 61.5 314.5t173 276.5t291 199.5t394.5 75.5q309 0 493.5 -155.5t184.5 -437.5q0 -358 -254 -607.5t-662 -249.5q-311 0 -496.5 151.5 t-185.5 432.5zM811 498q0 -123 35.5 -212t95 -135.5t122 -65.5t132.5 -19q115 0 218 50t175 134q111 131 160 333.5t49 348.5q0 117 -36 202t-96.5 128t-124 62t-134.5 19q-252 0 -410 -192q-102 -125 -144 -318.5t-42 -334.5z" />
<glyph unicode="&#x38e;" horiz-adv-x="2435" d="M258 1024q4 10 135 317q49 115 133 115q43 0 79 -30.5t36 -75.5q0 -43 -35 -80t-178 -158q-82 -68 -133 -111h-2zM821 1124q0 33 24.5 81t69 99.5t120 87t163.5 35.5q164 0 261.5 -104t131.5 -258q12 -57 19 -117q23 57 54.5 115.5t84.5 126t113.5 119t143.5 85t171 33.5 q133 0 208 -77.5t75 -178.5q0 -45 -13.5 -64.5t-52.5 -19.5q-27 0 -37 12.5t-10 29t-16.5 34t-55.5 23.5q-35 6 -114 6h-6q-154 0 -266.5 -119t-159.5 -301q-6 -29 -27 -150.5t-47.5 -281.5t-40.5 -242h276l-16 -98q-203 6 -406 6q-219 0 -440 -6l17 98h276l92 553 q18 102 19 172q0 68 -13.5 127.5t-44 116.5t-91 91t-144.5 34q-100 0 -149.5 -16.5t-54.5 -36t-17.5 -36t-47.5 -16.5q-49 0 -49 37z" />
<glyph unicode="&#x38f;" horiz-adv-x="2064" d="M258 1024q4 10 135 317q49 115 133 115q43 0 79 -30.5t36 -75.5q0 -43 -35 -80t-178 -158q-82 -68 -133 -111h-2zM438 410h98q0 -16 2 -48q2 -63 4 -85.5t21.5 -42t49.5 -21.5t99 -2h133q-20 72 -72.5 160t-100.5 155.5t-86 160.5t-38 183.5t43 182.5t134.5 179 t261.5 141t393 54q197 0 338 -42t210.5 -111.5t99.5 -138t30 -142.5q0 -90 -38 -178t-102.5 -165t-132 -144.5t-142.5 -148.5t-118 -146h109q139 0 170 18q35 18 69 117q2 6 23 64h98l-143 -410h-420q-51 2 -51 43q0 123 246 582q123 252 123 415q0 170 -108 241t-263 71 q-102 0 -192.5 -30t-165 -92.5t-118.5 -170t-44 -250.5q0 -102 41 -316t41 -329q0 -106 -13.5 -134t-54.5 -30h-426z" />
<glyph unicode="&#x390;" horiz-adv-x="671" d="M94 1077q0 33 31 60.5t96 27.5q59 0 85 -23.5t26 -51.5q0 -33 -32 -61t-97 -28q-49 0 -79 20.5t-30 55.5zM242 225q0 33 65 627q0 4 1 12t1 12.5t1 10.5t3 10l4 8t6.5 7t9.5 5.5t12 3.5t15 1h150q53 0 53 -29q0 -25 -96 -270.5t-96 -280.5q0 -33 20.5 -55.5t50.5 -22.5 q68 0 93 72q0 4 3 18.5t6 20.5t9 13t16 7q31 0 67 -47t36 -112q0 -98 -77 -176t-179 -78q-174 -1 -174 243zM385 1024q137 322 154 350q39 74 92 80q10 2 22 2q43 0 80 -29.5t37 -76.5q0 -43 -31.5 -77t-193.5 -169q-74 -63 -121 -103zM612 1077q0 33 30 60.5t99 27.5 q49 0 79 -20.5t30 -54.5q0 -33 -29.5 -61t-97.5 -28q-51 0 -81 20.5t-30 55.5z" />
<glyph unicode="&#x391;" horiz-adv-x="1910" d="M115 0l16 98h2q141 0 176 9.5t56 44.5l722 1202q29 47 47.5 61.5t55.5 14.5h6q37 0 50.5 -14.5t23.5 -49.5l340 -1268h198l-14 -98q-166 6 -332 6q-182 0 -366 -6l16 98h191l-80 301h-590l-170 -280q20 -10 47 -13.5t75 -5.5t58 -2l-16 -98q-135 6 -273 6q-96 0 -239 -6z M690 498h506l-156 581z" />
<glyph unicode="&#x392;" horiz-adv-x="1802" d="M121 0l16 98h221l201 1209h-221l16 98q172 -6 346 -6q82 0 167 3t145 3h225q125 0 219 -20.5t148.5 -52.5t87 -75t44 -80.5t11.5 -80.5q0 -106 -84 -199.5t-242 -138.5l-104 -25q170 -12 278.5 -92t108.5 -213q0 -57 -26.5 -121.5t-83 -129t-163 -113t-245.5 -60.5 q-45 -4 -135 -4h-260q-57 0 -137.5 3t-186.5 3q-174 0 -346 -6zM629 98h385q90 0 159.5 23.5t111.5 59.5t69.5 85t38 95.5t10.5 93.5q0 111 -56.5 169t-140.5 66q-45 4 -67 4h-412zM739 768h324q119 0 203 38t121.5 96.5t53 107.5t15.5 92q0 125 -90 174q-55 31 -156 31 h-381z" />
<glyph unicode="&#x393;" horiz-adv-x="1536" d="M119 0l16 98h221l199 1198h-221l16 97q119 -4 357 -4q98 0 182 2t98 2h586l-21 -496h-96q0 14 1 44t1 44q0 178 -81 244.5t-265 66.5h-264v-2l-199 -1196h277l-17 -98q-201 6 -403 6q-194 0 -387 -6z" />
<glyph unicode="&#x394;" horiz-adv-x="2105" d="M158 23q0 14 24 43l983 1284q25 35 35 45t32.5 22.5t55.5 12.5q35 0 53.5 -9.5t24.5 -20.5t27 -57l555 -1284q8 -23 8 -28q0 -31 -47 -31h-1706q-45 0 -45 23zM449 248h1077l-389 899z" />
<glyph unicode="&#x395;" horiz-adv-x="1671" d="M119 0l16 98h221l199 1198h-221l16 97q119 -4 357 -4q98 0 183 2t99 2h686l-20 -496h-99q0 10 1.5 32.5t1.5 33.5q0 88 -18.5 149.5t-48.5 97t-84 55t-109.5 25.5t-141.5 6h-309v-2l-86 -522h117q145 0 201.5 50t80.5 190h99l-97 -578h-98q10 78 10 94q0 47 -16.5 78 t-47 44.5t-57 18.5t-67.5 5h-144l-94 -576h295q119 0 191.5 9.5t153.5 44t138.5 109.5t104.5 196l39 106h96l-186 -563h-725q-14 0 -100.5 3t-188.5 3q-172 0 -348 -6z" />
<glyph unicode="&#x396;" horiz-adv-x="1558" d="M172 37q0 41 39 84l1051 1186h-250q-61 0 -101.5 -3.5t-107 -13.5t-113.5 -36.5t-98 -67.5t-88 -111.5t-58 -165.5h-96l107 496h1110q51 0 51 -39q0 -33 -41 -80l-1047 -1180h250q63 0 98 1.5t97.5 8.5t104.5 23.5t91.5 43t89 71.5t70.5 106q45 90 74 224h96l-133 -584 h-1145q-51 0 -51 37z" />
<glyph unicode="&#x397;" horiz-adv-x="1974" d="M119 0l16 98h221l201 1209h-221l16 98q211 -6 350 -6l385 6l-16 -98h-221l-88 -529h706l88 529h-221l17 98q211 -6 350 -6l385 6l-16 -98h-222l-202 -1209h223l-19 -98q-178 6 -358 6q-186 0 -375 -6l15 98h223l96 584h-707v-2l-96 -582h221l-16 -98q-178 6 -360 6 q-187 0 -375 -6z" />
<glyph unicode="&#x398;" horiz-adv-x="1968" d="M270 567q0 152 59.5 300.5t171 275.5t300 205.5t420.5 78.5q328 0 518 -157.5t190 -442.5q0 -115 -33.5 -231.5t-109.5 -228t-183.5 -197.5t-269.5 -139.5t-354 -53.5q-317 0 -513 151.5t-196 438.5zM555 502q0 -127 40 -218t107.5 -138.5t138 -68t152.5 -20.5 q283 0 457 205q104 123 149.5 306.5t45.5 328.5q0 129 -40 223t-107.5 142.5t-138.5 69t-151 20.5q-276 0 -450 -203q-109 -125 -156 -312.5t-47 -334.5zM680 512l63 387h99l-13 -70h584l12 70h97l-64 -387h-98l12 70h-584l-10 -70h-98z" />
<glyph unicode="&#x399;" horiz-adv-x="972" d="M107 0l16 96h233l201 1213h-231l16 96q78 -6 377 -6q301 0 379 6l-17 -96h-231l-203 -1213h234l-19 -96q-78 6 -377 6q-294 0 -378 -6z" />
<glyph unicode="&#x39a;" horiz-adv-x="1978" d="M119 0l16 98h221l201 1209h-221l16 98q211 -6 350 -6l385 6l-16 -98h-221l-109 -660l856 598l58 43q-49 18 -135 19l16 98q141 -6 285 -6q113 0 225 6l-14 -98q-55 0 -94.5 -2t-61 -3.5t-43 -10.5t-26.5 -10t-26.5 -17.5t-27.5 -20.5l-549 -383l457 -717q23 -33 50.5 -39 t129.5 -6h21l-15 -98q-180 6 -305 6q-180 0 -358 -6l14 98h14q115 0 125 19q2 6 -16 43q-322 502 -344 540l-258 -178l-70 -424h221l-16 -98q-178 6 -360 6q-187 0 -375 -6z" />
<glyph unicode="&#x39b;" horiz-adv-x="1773" d="M113 0l16 98q125 0 156.5 9.5t52.5 46.5l684 1202q33 55 55 65q16 8 45 9h6q35 0 48.5 -15.5t21.5 -48.5l299 -1268h176l-14 -98q-141 6 -316 6q-186 0 -370 -6l16 98h195l-223 942l-488 -856q-29 -53 -29 -59q0 -27 172 -27l-14 -98q-131 6 -266 6q-123 0 -223 -6z" />
<glyph unicode="&#x39c;" horiz-adv-x="2383" d="M127 0l16 98h29q133 0 164 10.5t37 45.5l174 1036l18 117h-221l16 98h461q37 0 52.5 -11.5t27.5 -47.5l332 -1086q12 18 36.5 55t35.5 56l624 977q25 37 44.5 47t56.5 10h458l-16 -98h-223l-201 -1209h221l-16 -98q-178 6 -357 6h-8q-145 0 -336 -6l17 98h221l192 1147 l9 66q-27 -45 -84 -135l-715 -1117q-39 -59 -82 -59q-23 0 -37 15.5t-18 26.5t-15 42l-368 1204l-49 -303l-131 -784q-10 -51 -11 -66q0 -12 5.5 -18t27 -11.5t62 -6.5t114.5 -1h6l-16 -98q-139 6 -254 6h-12q-146 0 -287 -6z" />
<glyph unicode="&#x39d;" horiz-adv-x="1974" d="M119 0l16 98h29q133 0 163.5 10.5t37.5 45.5l174 1036l18 117h-221l16 98h477h11.5t10.5 -1t9 -3l6 -3t6.5 -3t5.5 -4t4 -5.5t5 -5.5t5 -7t5 -7l623 -862q45 -66 69 -96l148 878q-41 20 -219 21l16 98q133 -6 264 -6l289 6l-16 -98h-29q-35 0 -58.5 -1t-44 -1t-34 -3.5 t-24.5 -3.5t-18.5 -7t-11.5 -9t-7 -13.5t-4 -14.5t-3 -19t-4 -23l-186 -1118q-12 -76 -27 -86q-12 -8 -37 -8h-12t-12.5 2t-9.5 4t-8 6t-7 5t-7 8.5t-7 9.5t-8.5 11t-8.5 13l-755 1049q-66 90 -93 125l-172 -1036q-2 -12 -6 -34t-4 -28q0 -12 5 -18t26.5 -11.5t62.5 -6.5 t115 -1h6l-16 -98q-139 6 -254 6h-12q-144 0 -287 -6z" />
<glyph unicode="&#x39e;" horiz-adv-x="1695" d="M150 0l53 430h98q-10 -92 -10 -115q0 -61 29.5 -73.5t179.5 -12.5h706q225 0 260 17q23 10 37 51q12 29 35 133h96l-90 -430h-1394zM307 975l86 407h1368l-49 -407h-98q0 10 4 44t4 52q0 57 -27.5 69.5t-158.5 12.5h-699q-205 0 -242.5 -7t-56.5 -52q-14 -33 -32 -119 h-99zM455 510l69 418h97l-15 -94h760l16 94h99l-72 -418h-96l14 94h-760l-16 -94h-96z" />
<glyph unicode="&#x39f;" horiz-adv-x="1904" d="M268 561q0 162 61.5 314.5t173 276.5t291 199.5t394.5 75.5q309 0 493.5 -155.5t184.5 -437.5q0 -358 -254 -607.5t-662 -249.5q-311 0 -496.5 151.5t-185.5 432.5zM578 498q0 -123 35.5 -212t95 -135.5t122 -65.5t132.5 -19q115 0 218 50t175 134q111 131 160 333.5 t49 348.5q0 117 -36 202t-96.5 128t-124 62t-134.5 19q-252 0 -410 -192q-102 -125 -144 -318.5t-42 -334.5z" />
<glyph unicode="&#x3a0;" horiz-adv-x="1974" d="M119 0l16 98h221l199 1198h-221l16 97q129 -4 387 -4q31 0 80 2t60 2h684q8 0 49 -3.5t92 -3.5q76 0 383 7l-17 -97h-221v-2l-200 -1196h223l-19 -98q-178 6 -358 6q-186 0 -375 -6l15 98h223l198 1198h-706v-2l-199 -1196h221l-16 -98q-178 6 -360 6q-187 0 -375 -6z " />
<glyph unicode="&#x3a1;" horiz-adv-x="1734" d="M119 0l16 98h221l201 1209h-221l16 98q176 -6 353 -6q104 0 190 3t121 3h180q262 0 397 -86q147 -92 148 -260q0 -72 -34 -144.5t-105.5 -142.5t-208 -113t-318.5 -43h-340l-86 -518h219l-14 -98q-186 6 -375 6q-180 0 -360 -6zM739 702h262q133 0 223.5 25t139.5 98 q35 51 53.5 146.5t18.5 146.5q0 106 -78 147.5t-234 41.5h-286z" />
<glyph unicode="&#x3a3;" horiz-adv-x="1830" d="M174 37q0 23 33 45l686 512l-55 84l-418 610q-29 43 -29 66q0 51 62 51h1384l-20 -496h-99v11q0 78 -12 135t-31.5 99t-58.5 69.5t-78 44t-103.5 26t-123 11.5t-148.5 2h-381l377 -551q27 -39 27 -57.5t-47 -51.5l-682 -512h481q262 0 382 29t206 123q92 100 131 245h96 l-149 -532h-1371q-59 0 -59 37z" />
<glyph unicode="&#x3a4;" horiz-adv-x="1769" d="M264 887l125 495h459l233 -6l299 6h457l-39 -495h-98q0 14 4 61t4 74q0 88 -22.5 143.5t-71.5 80t-97.5 31.5t-130.5 7h-143l-196 -1186h313l-17 -98q-283 6 -434 6q-242 0 -485 -6l16 98h314l196 1186h-129q-115 0 -181.5 -13.5t-121.5 -57.5t-89 -119.5t-67 -206.5h-98 z" />
<glyph unicode="&#x3a5;" horiz-adv-x="1968" d="M354 1124q0 33 24.5 81t69 99.5t120 87t163.5 35.5q164 0 261.5 -104t131.5 -258q12 -57 19 -117q23 57 54.5 115.5t84.5 126t113.5 119t143.5 85t171 33.5q133 0 208 -77.5t75 -178.5q0 -45 -13.5 -64.5t-52.5 -19.5q-27 0 -37 12.5t-10 29t-16.5 34t-55.5 23.5 q-35 6 -114 6h-6q-154 0 -266.5 -119t-159.5 -301q-6 -29 -27 -150.5t-47.5 -281.5t-40.5 -242h276l-16 -98q-203 6 -406 6q-219 0 -440 -6l17 98h276l92 553q18 102 19 172q0 68 -13.5 127.5t-44 116.5t-91 91t-144.5 34q-100 0 -149.5 -16.5t-54.5 -36t-17.5 -36 t-47.5 -16.5q-49 0 -49 37z" />
<glyph unicode="&#x3a6;" horiz-adv-x="1830" d="M279 659q0 33 11 74t54 101.5t110.5 109.5t196.5 91t299 57l35 215h-276l18 98q199 -6 397 -6q211 0 424 6l-14 -98h-279l-34 -213q246 -10 404.5 -104.5t158.5 -246.5q0 -184 -208 -301.5t-486 -130.5l-35 -213h276l-16 -98q-254 6 -391 6q-217 0 -432 -6l16 98h276 l37 215q-293 27 -417.5 124t-124.5 222zM578 625q0 -88 52 -151.5t204 -84.5v2l104 623q-180 -23 -255 -101.5t-97 -201.5q-8 -39 -8 -86zM1104 387q51 6 90 14.5t98.5 35t98.5 65.5t67.5 111.5t28.5 168.5q0 94 -56.5 154.5t-222.5 81.5z" />
<glyph unicode="&#x3a7;" horiz-adv-x="1910" d="M102 0l17 98q119 0 176 5.5t73.5 12.5t37.5 27l380 389q119 125 146 150v2l-377 623h-203l17 98q147 -6 325 -6q190 0 381 6l-16 -98h-164l246 -408l375 387q-55 20 -181 21l17 98q156 -6 315 -6q137 0 272 6l-16 -98h-102t-74 -4.5t-48.5 -5.5t-30.5 -9t-19 -11 t-17.5 -17.5t-19.5 -20.5l-418 -430l428 -711h203l-15 -98q-174 6 -315 6h-14q-190 0 -379 -6l16 98h164l-297 496l-461 -475q29 -10 181 -21l-17 -98q-156 6 -313 6q-136 0 -273 -6z" />
<glyph unicode="&#x3a8;" horiz-adv-x="1968" d="M348 1085q0 35 60 35h153q160 0 160 -194q0 -37 -10.5 -104.5t-10.5 -125.5q0 -84 21.5 -143t60.5 -90t62.5 -43t60.5 -23l150 910h-277l19 98q199 -6 397 -6q211 0 424 6l-14 -98h-279l-149 -908q66 16 119 45t88.5 69t60 72.5t43 86t27 78t18.5 79t12 60.5 q18 80 49 132t69 70.5t58.5 23.5t48.5 5h146q66 0 65 -37q0 -18 -11 -26t-32.5 -13.5t-29.5 -9.5q-25 -12 -43.5 -35.5t-30.5 -56.5t-18.5 -55.5t-13.5 -58t-7 -40.5q-104 -432 -633 -475l-2 -2l-35 -213h277l-17 -98q-254 6 -393 6q-215 0 -430 -6l17 98h276l37 217 q-207 18 -331 123t-124 305q0 39 7.5 98.5t7.5 84.5q0 55 -16.5 82.5t-35 31.5t-35 13t-16.5 32z" />
<glyph unicode="&#x3a9;" horiz-adv-x="1830" d="M205 410h98q0 -16 2 -48q2 -63 4 -85.5t21.5 -42t49.5 -21.5t99 -2h133q-20 72 -72.5 160t-100.5 155.5t-86 160.5t-38 183.5t43 182.5t134.5 179t261.5 141t393 54q197 0 338 -42t210.5 -111.5t99.5 -138t30 -142.5q0 -90 -38 -178t-102.5 -165t-132 -144.5 t-142.5 -148.5t-118 -146h109q139 0 170 18q35 18 69 117q2 6 23 64h98l-143 -410h-420q-51 2 -51 43q0 123 246 582q123 252 123 415q0 170 -108 241t-263 71q-102 0 -192.5 -30t-165 -92.5t-118.5 -170t-44 -250.5q0 -102 41 -316t41 -329q0 -106 -13.5 -134t-54.5 -30 h-426z" />
<glyph unicode="&#x3aa;" horiz-adv-x="972" d="M106 0l17 96h233l201 1213h-231l16 96q78 -6 377 -6q301 0 379 6l-17 -96h-231l-203 -1213h234l-19 -96q-78 6 -377 6q-295 0 -379 -6zM324 1636q0 72 55 125.5t125 53.5q61 0 101 -40t40 -100q0 -70 -53 -124t-127 -54q-59 0 -100 39t-41 100zM877 1636q0 68 53 123.5 t127 55.5q61 0 101 -40t40 -100q0 -68 -54 -123t-126 -55q-61 0 -101 40t-40 99z" />
<glyph unicode="&#x3ab;" horiz-adv-x="1968" d="M354 1124q0 33 24.5 81t69 99.5t120 87t163.5 35.5q164 0 261.5 -104t131.5 -258q12 -57 19 -117q23 57 54.5 115.5t84.5 126t113.5 119t143.5 85t171 33.5q133 0 208 -77.5t75 -178.5q0 -45 -13.5 -64.5t-52.5 -19.5q-27 0 -37 12.5t-10 29t-16.5 34t-55.5 23.5 q-35 6 -114 6h-6q-154 0 -266.5 -119t-159.5 -301q-6 -29 -27 -150.5t-47.5 -281.5t-40.5 -242h276l-16 -98q-203 6 -406 6q-219 0 -440 -6l17 98h276l92 553q18 102 19 172q0 68 -13.5 127.5t-44 116.5t-91 91t-144.5 34q-100 0 -149.5 -16.5t-54.5 -36t-17.5 -36 t-47.5 -16.5q-49 0 -49 37zM793 1636q0 70 54 124.5t128 54.5q61 0 100 -40t39 -100q0 -70 -53 -124t-127 -54q-61 0 -101 40t-40 99zM1405 1636q0 70 53 124.5t127 54.5q61 0 100 -40t39 -100q0 -70 -53 -124t-127 -54q-61 0 -100 40t-39 99z" />
<glyph unicode="&#x3ac;" horiz-adv-x="1341" d="M197 350q0 246 140 409t339 163q233 0 309 -330q43 63 162 287q14 27 25.5 35t37.5 8h127q51 0 52 -27q0 -31 -129.5 -254t-208.5 -322q57 -129 155 -129q41 0 63.5 10.5t29 24t18.5 23.5t35 10q47 0 47 -35q0 -59 -60.5 -146t-158.5 -87q-150 0 -215 225 q-70 -68 -115 -105.5t-134 -78.5t-181 -41q-150 0 -244 93t-94 267zM297 387q0 -111 66.5 -154t185.5 -43q135 0 289 187q6 8 17 21.5t15 18.5t11.5 14t9.5 14.5t6 12.5t5 13t1 12q0 12 -12 46t-38 79t-80 78t-126 33q-104 0 -178 -33t-108.5 -87t-49 -105.5t-14.5 -106.5z M776 1024q23 55 62 145q80 190 112.5 238.5t93.5 48.5q43 0 79 -29.5t36 -76.5q0 -41 -33.5 -78t-175.5 -156q-84 -70 -137 -115z" />
<glyph unicode="&#x3ad;" horiz-adv-x="1114" d="M172 231q0 135 127 254q-53 82 -53 172q0 49 19.5 91.5t67.5 86.5t154.5 70.5t257.5 26.5h17q184 0 280.5 -7t119 -18.5t22.5 -29.5q0 -14 -62 -172q-16 -45 -47 -46q-16 0 -169.5 36t-221.5 36q-166 0 -231 -33q-94 -49 -95 -139q0 -18 2 -27q139 82 302 82 q137 0 137 -112q0 -51 -40 -100.5t-122 -49.5q-172 0 -289 84q-27 -49 -26 -94q0 -55 23.5 -91t69.5 -49.5t81.5 -17.5t91.5 -4q104 0 195 19.5t139.5 44t86.5 44t52 19.5q23 0 22 -28q0 -8 -65 -183l-7 -14t-8.5 -11t-8.5 -8.5t-10 -6.5t-10 -4t-14.5 -5t-15.5 -6 q-176 -63 -358 -64q-223 0 -318.5 79t-95.5 175zM680 1024q14 35 48 117t64.5 150.5t30.5 70.5q43 94 125 94q43 0 80 -29.5t37 -74.5q0 -53 -66 -113q-274 -227 -284 -229q-10 0 -35 14z" />
<glyph unicode="&#x3ae;" horiz-adv-x="1286" d="M195 745q0 66 57 126.5t143 60.5q29 0 52.5 -6t40 -18.5t29.5 -27t21.5 -34t14.5 -34.5t9 -36.5t5 -33t3 -29t1 -19.5q156 238 371 238q121 0 209 -85t88 -265q0 -63 -27 -230l-120 -727q-20 -160 -140 -160q-45 0 -74.5 28t-29.5 75q0 39 24 127q29 109 100.5 285 t120 324.5t48.5 264.5q0 76 -48.5 109t-111.5 33q-129 0 -221 -135.5t-203 -460.5l-2 -9l-5 -15t-9 -21.5t-13.5 -24.5t-19.5 -24.5t-24.5 -20.5t-31 -14t-38.5 -6q-41 0 -71 25.5t-30 64.5q0 23 31 114q31 88 60.5 163t38 98.5t13.5 52t5 77.5q0 70 -17.5 103t-54.5 51 q-39 -70 -104 -70q-39 0 -64.5 23.5t-25.5 62.5zM834 1024q135 319 153 350q41 74 94 80q10 2 21 2q47 0 81 -31.5t34 -72.5q0 -43 -38 -84t-188 -166q-76 -61 -121 -101z" />
<glyph unicode="&#x3af;" horiz-adv-x="671" d="M244 225q0 33 65 627q0 4 1 12t1 12.5t1 10.5t3 10t4.5 8t6.5 7t9 5.5t12 3.5t15 1h150q53 0 53 -29q0 -25 -96 -270.5t-96 -280.5q0 -33 20.5 -55.5t50.5 -22.5q68 0 93 72q0 4 3 18.5t6 20.5t9 13t16 7q31 0 67 -47t36 -112q0 -98 -77 -176t-179 -78q-174 -1 -174 243z M387 1024q137 322 154 350q39 74 92 80q10 2 22 2q43 0 80 -29.5t37 -76.5q0 -43 -31.5 -77t-193.5 -169q-74 -63 -121 -103z" />
<glyph unicode="&#x3b0;" horiz-adv-x="1286" d="M256 831q0 53 45 89t96 36q39 0 71 -24.5t32 -83.5q0 -100 -51.5 -289.5t-51.5 -236.5q0 -98 58.5 -163t150.5 -65q109 0 238 89t218 224.5t89 254.5q0 82 -37 147t-37 74q0 16 15.5 31.5t35.5 15.5q47 0 106.5 -119t59.5 -256q0 -240 -157.5 -402.5t-413.5 -162.5 q-188 0 -305 98t-117 283q0 39 7 94t7 92q0 94 -29.5 177t-29.5 97zM379 1077q0 33 30.5 60.5t98.5 27.5q57 0 82.5 -23.5t25.5 -51.5q0 -41 -33.5 -65t-93.5 -24q-49 0 -79.5 21.5t-30.5 54.5zM672 1024q23 55 61 145q80 190 113 238.5t94 48.5h2q41 0 78 -29.5t37 -76.5 q0 -41 -33 -76t-174 -154q-86 -72 -141 -119zM899 1077q0 33 29.5 60.5t97.5 27.5q57 0 83 -23.5t26 -51.5q0 -33 -30 -61t-97 -28q-57 0 -83 23.5t-26 52.5z" />
<glyph unicode="&#x3b1;" horiz-adv-x="1341" d="M197 350q0 246 140 409t339 163q233 0 309 -330q43 63 162 287q14 27 25.5 35t37.5 8h127q51 0 52 -27q0 -31 -129.5 -254t-208.5 -322q57 -129 155 -129q41 0 63.5 10.5t29 24t18.5 23.5t35 10q47 0 47 -35q0 -59 -60.5 -146t-158.5 -87q-150 0 -215 225 q-70 -68 -115 -105.5t-134 -78.5t-181 -41q-150 0 -244 93t-94 267zM297 387q0 -111 66.5 -154t185.5 -43q135 0 289 187q6 8 17 21.5t15 18.5t11.5 14t9.5 14.5t6 12.5t5 13t1 12q0 12 -12 46t-38 79t-80 78t-126 33q-104 0 -178 -33t-108.5 -87t-49 -105.5t-14.5 -106.5z " />
<glyph unicode="&#x3b2;" horiz-adv-x="1286" d="M-12 -459q0 33 25.5 94.5t78.5 255t105 500.5l94 559q12 66 21.5 106t44 105.5t89.5 116.5q164 156 431 156q158 0 253 -75t95 -210q0 -174 -162 -326q170 -115 170 -323q0 -225 -167 -367.5t-413 -142.5q-215 0 -397 153q-29 -266 -31 -430q0 -31 2 -78t2 -49 q0 -76 -44 -108.5t-91 -32.5q-45 0 -75.5 26.5t-30.5 69.5zM276 266q0 -37 94.5 -95t190.5 -58q158 0 335 157.5t177 325.5q0 78 -40 120t-70 42q-6 0 -40 -12.5t-91.5 -24.5t-118.5 -12q-55 0 -79 27.5t-24 60.5q0 20 8.5 42.5t39 46t81.5 23.5q27 0 75 -4t58 -4 q47 0 132.5 108.5t85.5 196.5q0 59 -44.5 88t-105.5 29q-57 0 -140 -25.5t-183.5 -99.5t-149.5 -176q-45 -92 -92 -276.5t-73 -322t-26 -157.5z" />
<glyph unicode="&#x3b3;" horiz-adv-x="1478" d="M197 608q0 35 26.5 103.5t97 139.5t164.5 71q61 0 111.5 -30t82.5 -72t59.5 -115.5t43 -133t33.5 -153.5q70 131 160 252q186 252 381 252q66 0 94.5 -37t28.5 -78q0 -47 -36 -92t-93 -53q-2 0 -34 -3.5t-54.5 -9.5t-61.5 -22.5t-84 -53t-92 -90.5q-59 -70 -118.5 -160 t-65.5 -114v-62v-49q0 -123 -15.5 -265t-38.5 -179q-41 -63 -112 -64q-41 0 -72 27t-31 74q0 20 10.5 76.5t42 172t78.5 238.5q16 41 17 55q0 4 -3 14.5t-3 18.5q-72 393 -271 393q-63 0 -97 -13t-41 -30.5t-21.5 -31t-38.5 -13.5q-47 0 -47 37z" />
<glyph unicode="&#x3b4;" horiz-adv-x="1216" d="M201 385q0 96 40 194.5t134 189.5t229 138q-109 82 -172 160t-63 166q0 27 8 57.5t28.5 67.5t66.5 60.5t110 23.5q168 0 592 -203l-27 -166q-4 2 -168 79t-285 125t-172 48q-37 0 -52 -41t-15 -76q0 -55 43 -108t103.5 -88t101 -54.5t61.5 -25.5v-2q4 -2 39 -15.5 t57.5 -23.5t63.5 -31.5t69.5 -43t63.5 -56.5t56.5 -71t35.5 -86t14 -105q0 -201 -167 -354.5t-380 -153.5q-176 0 -295.5 110.5t-119.5 284.5zM434 369q0 -115 48 -199t153 -84q115 0 202 105.5t87 250.5q0 188 -172 351q-39 35 -55.5 34.5t-53.5 -18.5q-98 -53 -153.5 -180 t-55.5 -260z" />
<glyph unicode="&#x3b5;" horiz-adv-x="1171" d="M172 231q0 135 127 254q-53 82 -53 172q0 49 19.5 91.5t67.5 86.5t154.5 70.5t257.5 26.5h17q184 0 280.5 -7t119 -18.5t22.5 -29.5q0 -14 -62 -172q-16 -45 -47 -46q-16 0 -169.5 36t-221.5 36q-166 0 -231 -33q-94 -49 -95 -139q0 -18 2 -27q139 82 302 82 q137 0 137 -112q0 -51 -40 -100.5t-122 -49.5q-172 0 -289 84q-27 -49 -26 -94q0 -55 23.5 -91t69.5 -49.5t81.5 -17.5t91.5 -4q104 0 195 19.5t139.5 44t86.5 44t52 19.5q23 0 22 -28q0 -8 -65 -183l-7 -14t-8.5 -11t-8.5 -8.5t-10 -6.5t-10 -4t-14.5 -5t-15.5 -6 q-176 -63 -358 -64q-223 0 -318.5 79t-95.5 175z" />
<glyph unicode="&#x3b6;" horiz-adv-x="1216" d="M205 408q0 61 14 132.5t85 206t192 257.5q68 68 153 137q-70 -12 -106 -13q-78 0 -120 38t-42 108q0 82 45 126t104 44q49 0 83 -31t34 -82q0 -8 -1 -21.5t-1 -17.5q0 -37 43 -37q74 0 377 152q74 37 106 37q45 0 73 -31t28 -74q0 -37 -15.5 -61.5t-59.5 -51t-95 -51 t-149.5 -78t-198.5 -116.5q-174 -109 -280.5 -220.5t-137.5 -182t-31 -134.5q0 -94 89 -148t212 -60l41 -3q39 -2 63.5 -4t71.5 -11t82 -23.5t76 -41t70 -61.5q59 -70 59 -166q-2 -156 -134 -259t-286 -103q-53 0 -75.5 28.5t-22.5 59.5q0 37 25.5 70.5t68.5 41.5l31 3 q29 0 61.5 1t75.5 10t76 22.5t56.5 39t23.5 60.5q0 100 -314 100h-18q-98 0 -177 28.5t-125 71.5t-77 99.5t-42 108t-11 100.5z" />
<glyph unicode="&#x3b7;" horiz-adv-x="1286" d="M195 745q0 66 57 126.5t143 60.5q29 0 52.5 -6t40 -18.5t29.5 -27t21.5 -34t14.5 -34.5t9 -36.5t5 -33t3 -29t1 -19.5q156 238 371 238q121 0 209 -85t88 -265q0 -63 -27 -230l-120 -727q-20 -160 -140 -160q-45 0 -74.5 28t-29.5 75q0 39 24 127q29 109 100.5 285 t120 324.5t48.5 264.5q0 76 -48.5 109t-111.5 33q-129 0 -221 -135.5t-203 -460.5l-2 -9l-5 -15t-9 -21.5t-13.5 -24.5t-19.5 -24.5t-24.5 -20.5t-31 -14t-38.5 -6q-41 0 -71 25.5t-30 64.5q0 23 31 114q31 88 60.5 163t38 98.5t13.5 52t5 77.5q0 70 -17.5 103t-54.5 51 q-39 -70 -104 -70q-39 0 -64.5 23.5t-25.5 62.5z" />
<glyph unicode="&#x3b8;" horiz-adv-x="1513" d="M152 614q0 8 5 36t20.5 76t40 90t69.5 74t102 32q102 0 190.5 -53.5t90.5 -153.5q0 -31 -33 -224.5t-33 -244.5q0 -182 199 -183q176 0 282 277q45 119 86 373q-70 16 -121 29.5t-126.5 46t-123.5 71.5t-84 102.5t-36 141.5q0 158 113.5 243t248.5 85q70 0 135.5 -26 t127 -81t98.5 -160.5t37 -246.5q0 -72 -15 -173q82 -10 93 -26q6 -8 6 -21q0 -37 -37 -36q-12 0 -74 10q-23 -127 -71 -243t-121.5 -218t-185 -162.5t-247.5 -60.5q-205 0 -309 67.5t-104 225.5q0 55 32.5 240.5t32.5 226.5q-2 98 -63 98q-20 0 -36.5 -10.5t-29 -29 t-21.5 -36.5t-16.5 -45t-11.5 -42t-8 -37.5t-4 -24.5q-8 -41 -53 -41.5t-45 34.5zM778 1108q0 -63 31 -115.5t68.5 -83t105.5 -58.5t101.5 -37t99.5 -26q27 143 26 275q0 74 -13 135.5t-55 110.5t-108 49q-88 0 -172 -63.5t-84 -186.5z" />
<glyph unicode="&#x3b9;" horiz-adv-x="727" d="M244 225q0 33 65 627q0 4 1 12t1 12.5t1 10.5t3 10t4.5 8t6.5 7t9 5.5t12 3.5t15 1h150q53 0 53 -29q0 -25 -96 -270.5t-96 -280.5q0 -33 20.5 -55.5t50.5 -22.5q68 0 93 72q0 4 3 18.5t6 20.5t9 13t16 7q31 0 67 -47t36 -112q0 -98 -77 -176t-179 -78q-174 -1 -174 243z " />
<glyph unicode="&#x3ba;" horiz-adv-x="1411" d="M145 82q0 35 19.5 63.5t35 41t52.5 34.5q55 37 105.5 69t74 46t44 25.5t27.5 19.5t12 17.5t9 25.5q16 74 17 117q0 162 -123 188q-35 -70 -107 -70q-39 0 -64.5 24t-25.5 65q0 63 59.5 123.5t143.5 60.5q92 0 165 -67.5t73 -229.5q0 -72 -21 -170q162 111 323.5 237.5 t234.5 179t114 52.5q45 0 73.5 -33t28.5 -74q0 -35 -20.5 -63.5t-33.5 -38.5t-52 -35q-57 -39 -108.5 -70.5t-75 -46t-43 -26.5t-26.5 -19.5t-11.5 -15.5t-8.5 -25q-16 -74 -16 -118q0 -141 110 -172q37 78 115 77q43 0 69.5 -26.5t26.5 -69.5q0 -68 -63.5 -134.5 t-157.5 -66.5q-86 0 -156.5 66t-70.5 217q0 82 25 184q-80 -49 -153 -104t-190.5 -147.5t-222.5 -169.5q-63 -45 -104 -46q-45 0 -74 32t-29 73z" />
<glyph unicode="&#x3bb;" horiz-adv-x="1286" d="M104 29q0 14 49.5 80.5t173.5 247t259 407.5q129 217 129 235q0 6 -8.5 25.5t-28 49.5t-45 56.5t-65.5 45t-85 18.5q-16 0 -38.5 -3t-32.5 -3q-45 0 -72 30.5t-27 71.5q0 49 39 92t127 43q98 0 170 -61t109 -157.5t69.5 -224.5t53 -247t58.5 -240.5t87 -193.5 q25 -35 46.5 -52.5t49.5 -27.5l29 -10q55 -27 55 -88q0 -49 -36.5 -91t-92.5 -42q-61 0 -107 70.5t-96 246.5q-18 61 -88 377q-88 -162 -246.5 -397.5t-189.5 -268.5q-18 -18 -63 -18h-117q-66 0 -66 29z" />
<glyph unicode="&#x3bc;" horiz-adv-x="1439" d="M111 -190q0 147 70.5 381.5t70.5 242.5q0 4 -4 49t-4 107q0 104 15 176t40 105.5t49.5 47t50.5 13.5q43 0 71 -34t28 -83q0 -55 -32 -109.5t-62.5 -126t-30.5 -167.5q0 -74 16.5 -133.5t68.5 -105.5t134 -46q98 0 173 63.5t115 163t63.5 193.5t37.5 186t20 109 q35 90 123 90q43 0 74 -27.5t31 -73.5q0 -39 -31 -163.5t-78 -239.5q-20 -49 -20 -84q0 -70 33.5 -110.5t89.5 -40.5q63 0 88.5 32.5t56.5 32.5q47 0 47 -35q0 -55 -61.5 -144t-161.5 -89q-160 0 -195 215q-160 -215 -381 -215q-154 0 -247 110q-39 47 -70 133 q-27 -113 -27 -198q0 -119 36 -208t72 -140.5t36 -79.5q0 -53 -44 -92t-89 -39q-68 0 -120 95.5t-52 238.5z" />
<glyph unicode="&#x3bd;" horiz-adv-x="1273" d="M217 840q4 61 102 61q66 0 131.5 -32.5t128 -100.5t102.5 -191.5t40 -285.5l31 16q31 18 55 33.5t66 45.5t75 57.5t71 66.5t63.5 76t42 83t16.5 91q0 35 -12.5 65.5t-12.5 42.5q0 20 15.5 36t35.5 16q37 0 62.5 -68t25.5 -141q0 -98 -42 -193.5t-96 -162t-141 -139.5 t-139.5 -108.5t-129.5 -82.5q-53 -33 -66 -33q-27 0 -27 39q0 10 3.5 42.5t3.5 55.5q0 326 -347 629q-23 20 -32 28.5t-17 23t-8 30.5z" />
<glyph unicode="&#x3be;" horiz-adv-x="1216" d="M195 358q0 147 101 271.5t300 208.5q-96 47 -96 135q0 143 155 274q-98 -12 -139 -12q-131 0 -131 74q0 45 42 90t105 45q96 0 115 -105q84 12 206 38t210 46.5t108 20.5q45 0 73 -30t28 -73q0 -72 -64 -110q-35 -20 -109.5 -30.5t-153.5 -16.5t-156.5 -19.5t-135 -52.5 t-73.5 -102q-4 -20 -5 -31q0 -74 134 -74q51 0 122.5 13.5t88.5 13.5q41 0 68.5 -31t27.5 -72q0 -86 -84 -120q-37 -14 -122 -25.5t-166 -24t-162 -36t-131 -74.5t-50 -129q0 -80 80 -128t213 -56q12 0 63.5 -3.5t76 -5.5t69.5 -14t86 -31q180 -84 180 -256 q0 -158 -135 -260t-283 -102q-53 0 -75.5 26.5t-22.5 61.5q0 39 25.5 70.5t62.5 39.5q4 0 45 2.5t84 7.5t90 17t77 42t30 71q0 55 -78 76.5t-234 21.5h-22q-119 0 -209 35t-137 91t-69.5 114.5t-22.5 117.5z" />
<glyph unicode="&#x3bf;" horiz-adv-x="1353" d="M201 381q0 94 36.5 186t109.5 173t198 131.5t282 50.5q211 0 344.5 -100.5t133.5 -291.5q0 -96 -38 -189t-112 -173t-197.5 -129t-279.5 -49q-211 0 -344 100.5t-133 290.5zM422 260q0 -188 174 -188q188 0 338.5 195.5t150.5 387.5q0 182 -176 183q-125 0 -240.5 -94.5 t-181 -227.5t-65.5 -256z" />
<glyph unicode="&#x3c0;" horiz-adv-x="1318" d="M205 68q0 25 12 47t19.5 30.5t39 31t33.5 24.5q33 27 58.5 52.5t44 60t31 58t22.5 73t15 74t15.5 92t16.5 98.5h-49q-74 0 -133.5 -31t-71.5 -31q-18 0 -30.5 13.5t-12.5 29.5q2 20 29 62q74 102 124 130.5t115 28.5h797q51 0 51 -37q0 -10 -16 -106q-4 -35 -13.5 -46 t-41.5 -13h-254q-47 -268 -48 -320q0 -70 30 -118t89 -48q53 0 102.5 39t78 39t38 -14.5t9.5 -42.5q0 -98 -78 -176t-180 -78q-78 0 -137.5 60.5t-59.5 221.5q0 139 57 437h-297q-4 -23 -19.5 -116t-21.5 -130t-21.5 -109.5t-33.5 -132t-43 -123.5q-14 -35 -20.5 -49 t-24.5 -43t-42 -41t-56 -12q-49 0 -86 36t-37 79z" />
<glyph unicode="&#x3c1;" horiz-adv-x="1273" d="M127 -154q0 90 10 170t62 390q8 53 14 78.5t26.5 90t62.5 120t101 102.5q158 125 381 125q199 0 320 -101.5t121 -283.5q0 -96 -37 -191.5t-105.5 -175.5t-184.5 -130t-259 -50q-279 0 -393 190q8 -139 51 -264t81 -203t38 -108q0 -47 -41 -88t-94 -41q-82 0 -118 115.5 t-36 254.5zM276 346q0 -135 183 -135q156 0 370 68q147 45 232.5 122.5t85.5 163.5q0 133 -180 133q-96 0 -293 -43t-299 -131q-99 -86 -99 -178z" />
<glyph unicode="&#x3c2;" horiz-adv-x="1206" d="M195 367q0 250 247.5 402.5t644.5 152.5q119 0 119 -103q0 -23 -8 -48.5t-45 -54t-96 -28.5h-33q-94 0 -154.5 -2t-157 -9t-158.5 -24.5t-125.5 -46t-95.5 -78t-32 -112.5q0 -92 83 -148.5t212 -64.5q8 0 73.5 -2t104.5 -4t102.5 -14.5t100.5 -32t65.5 -58.5t28.5 -90 q0 -117 -112.5 -187.5t-282.5 -70.5q-57 0 -79 27.5t-22 60.5q0 20 6.5 42t39 47.5t90.5 25.5h28q162 0 226 28v2q-86 23 -289 23h-27q-201 0 -311 84q-143 109 -143 283z" />
<glyph unicode="&#x3c3;" horiz-adv-x="1456" d="M201 383q0 57 16 119.5t63.5 137.5t121 133t202.5 98t295 40h559q45 0 45 -39q0 -16 -22 -143q-6 -31 -15.5 -41t-31.5 -10q-6 0 -123 9t-168 9q145 -104 145 -264q0 -178 -150.5 -311t-412.5 -133q-221 0 -372.5 97t-151.5 298zM403 354q0 -164 69 -224t194 -60 q98 0 184 42t140 105.5t85 131t31 124.5q0 90 -69.5 165t-219.5 75q-289 0 -385 -195q-29 -60 -29 -164z" />
<glyph unicode="&#x3c4;" horiz-adv-x="1183" d="M215 690q0 29 59.5 112t118.5 101q25 8 60 8h692q51 0 51 -39q0 -12 -16 -114q-6 -33 -18.5 -41t-37.5 -8h-383q-47 -283 -47 -318q0 -86 36 -127t83 -41q55 0 102.5 39t75.5 39q49 0 49 -55q0 -100 -78.5 -178t-181.5 -78q-78 0 -137 60.5t-59 225.5q0 104 59 433h-209 q-61 0 -112.5 -32t-61.5 -32q-14 0 -29.5 13.5t-15.5 31.5z" />
<glyph unicode="&#x3c5;" horiz-adv-x="1341" d="M256 831q0 53 45 89t96 36q39 0 71 -24.5t32 -83.5q0 -100 -51.5 -289.5t-51.5 -236.5q0 -98 58.5 -163t150.5 -65q109 0 238 89t218 224.5t89 254.5q0 82 -37 147t-37 74q0 16 15.5 31.5t35.5 15.5q47 0 106.5 -119t59.5 -256q0 -240 -157.5 -402.5t-413.5 -162.5 q-188 0 -305 98t-117 283q0 39 7 94t7 92q0 94 -29.5 177t-29.5 97z" />
<glyph unicode="&#x3c6;" horiz-adv-x="1490" d="M201 389q0 100 44 203.5t106.5 178.5t129 123t111.5 48t74.5 -32.5t29.5 -78.5q0 -37 -18.5 -62.5t-36.5 -34.5t-54 -22.5t-46 -17.5q-92 -43 -160 -136t-68 -210q0 -123 84 -191.5t215 -68.5q55 0 97 8q6 35 22.5 132.5t24.5 137.5t25.5 123.5t32.5 122.5t39 101.5 t50.5 93.5t62 65.5t80 48t97.5 13.5q115 0 208 -83t93 -276q0 -100 -30 -191t-97.5 -178t-199.5 -145.5t-316 -70.5q-12 -180 -13 -281q0 -35 1.5 -75t1.5 -48q0 -78 -45.5 -109.5t-90.5 -31.5q-43 0 -73.5 26.5t-30.5 69.5q0 25 19.5 79t53 156.5t58.5 213.5 q-137 8 -235.5 48t-149.5 101.5t-73.5 122.5t-22.5 127zM815 127q119 47 223.5 127t159.5 154q37 49 73 133t36 163.5t-41 113.5t-95 34q-176 0 -260 -238q-23 -66 -47 -187.5t-37 -209.5z" />
<glyph unicode="&#x3c7;" horiz-adv-x="1421" d="M51 -494q0 10 41 64l533 659q4 6 11 14.5t10 11.5t7 9t6.5 9t4.5 8.5t3 9.5t1 10t-7.5 43t-27 96.5t-46 115.5t-71.5 96t-96 40q-12 0 -31.5 -2t-28.5 -2q-35 0 -65.5 26.5t-30.5 76.5q0 59 42 96t106 37q223 0 340 -537l407 502q27 33 66 33h157q51 0 52 -29 q0 -12 -31 -53l-590 -727q16 -78 33.5 -133.5t46.5 -126t72 -109.5t96 -39q12 0 31.5 3t29.5 3q41 0 70 -29.5t29 -74.5q0 -59 -41 -95t-105 -36q-47 0 -88 19.5t-72.5 62.5t-55 79.5t-46 103t-33 97.5t-28 99.5t-19.5 74.5q-14 -18 -36.5 -46.5t-56.5 -69.5t-120 -147.5 t-192 -237.5q-29 -35 -68 -35q-4 0 -11 1t-11 1q-16 0 -47 -1t-48 -1h-28q-64 -1 -64 30z" />
<glyph unicode="&#x3c8;" horiz-adv-x="1546" d="M213 455q0 213 139 407q70 98 137 99q49 0 81 -37t32 -82q0 -51 -37 -82t-84 -47.5t-95 -74.5t-64 -155q-6 -37 -7 -73q0 -143 92.5 -231.5t241.5 -88.5q49 0 88 8q68 375 98.5 680t36 436.5t13.5 153.5q14 39 49 62.5t76 23.5q45 0 74.5 -26.5t29.5 -69.5q0 -8 -54 -212 t-121 -504t-93 -513q219 88 372.5 273.5t153.5 375.5q0 33 -4 63.5t-4 35.5q0 23 15.5 37t33.5 14q53 0 78 -105.5t25 -173.5q0 -229 -157 -419.5t-454 -231.5q-59 -6 -68.5 -11t-11.5 -38q-8 -98 -8 -232q0 -53 1 -88t1 -41q0 -78 -43 -110.5t-92 -32.5q-45 0 -74.5 27.5 t-29.5 70.5q0 20 17 69.5t52 153t64 224.5q-123 10 -215 47t-145.5 85t-86.5 110.5t-43 115t-10 107.5z" />
<glyph unicode="&#x3c9;" horiz-adv-x="1695" d="M201 319q0 287 387 568q61 43 76 43q20 0 52 -66.5t32 -85t-39 -45.5q-270 -199 -271 -389q0 -96 72 -152.5t162 -56.5h4q78 0 158 80q-27 76 -27 162q0 111 27 155q37 61 106 62q41 0 69.5 -26.5t28.5 -69.5t-23.5 -118t-62.5 -138q-14 -20 -14 -33q0 -23 35 -48.5 t84 -25.5q45 0 95 16.5t106.5 51.5t93.5 106.5t37 167.5q0 82 -24 152.5t-51.5 108.5t-51 69t-23.5 41q0 18 26.5 49t45 31t121.5 -105q188 -197 188 -379q0 -166 -126 -310t-310 -144q-211 0 -312 147q-156 -147 -358 -147q-143 0 -228 96t-85 233z" />
<glyph unicode="&#x3ca;" horiz-adv-x="671" d="M61 1243q0 70 54.5 124t128.5 54q61 0 100 -40t39 -99q0 -70 -54.5 -125t-125.5 -55q-61 0 -101.5 41t-40.5 100zM242 225q0 33 65 627q0 4 1 12t1 12.5t1 10.5t3 10l4 8t6.5 7t9.5 5.5t12 3.5t15 1h150q53 0 53 -29q0 -25 -96 -270.5t-96 -280.5q0 -33 20.5 -55.5 t50.5 -22.5q68 0 93 72q0 4 3 18.5t6 20.5t9 13t16 7q31 0 67 -47t36 -112q0 -98 -77 -176t-179 -78q-174 -1 -174 243zM621 1241q0 72 56 125t126 53q61 0 100 -40t39 -99q0 -70 -54 -124t-126 -54q-61 0 -101 40t-40 99z" />
<glyph unicode="&#x3cb;" horiz-adv-x="1286" d="M256 831q0 53 45 89t96 36q39 0 71 -24.5t32 -83.5q0 -100 -51.5 -289.5t-51.5 -236.5q0 -98 58.5 -163t150.5 -65q109 0 238 89t218 224.5t89 254.5q0 82 -37 147t-37 74q0 16 15.5 31.5t35.5 15.5q47 0 106.5 -119t59.5 -256q0 -240 -157.5 -402.5t-413.5 -162.5 q-188 0 -305 98t-117 283q0 39 7 94t7 92q0 94 -29.5 177t-29.5 97zM348 1243q0 72 55.5 125t124.5 53q59 0 100.5 -40t41.5 -101q0 -70 -53.5 -124t-127.5 -54q-59 0 -100 40t-41 101zM905 1241q0 72 56.5 125t125.5 53q61 0 100.5 -40t39.5 -99q0 -70 -54.5 -124 t-125.5 -54q-61 0 -101.5 40t-40.5 99z" />
<glyph unicode="&#x3cc;" horiz-adv-x="1353" d="M201 381q0 94 36.5 186t109.5 173t198 131.5t282 50.5q211 0 344.5 -100.5t133.5 -291.5q0 -96 -38 -189t-112 -173t-197.5 -129t-279.5 -49q-211 0 -344 100.5t-133 290.5zM422 260q0 -188 174 -188q188 0 338.5 195.5t150.5 387.5q0 182 -176 183q-125 0 -240.5 -94.5 t-181 -227.5t-65.5 -256zM770 1024q137 322 154 350q39 74 92 80q10 2 22 2q43 0 80 -29.5t37 -76.5q0 -43 -31.5 -77t-193.5 -169q-74 -63 -121 -103z" />
<glyph unicode="&#x3cd;" horiz-adv-x="1286" d="M256 831q0 53 45 89t96 36q39 0 71 -24.5t32 -83.5q0 -100 -51.5 -289.5t-51.5 -236.5q0 -98 58.5 -163t150.5 -65q109 0 238 89t218 224.5t89 254.5q0 82 -37 147t-37 74q0 16 15.5 31.5t35.5 15.5q47 0 106.5 -119t59.5 -256q0 -240 -157.5 -402.5t-413.5 -162.5 q-188 0 -305 98t-117 283q0 39 7 94t7 92q0 94 -29.5 177t-29.5 97zM671 1024q23 55 62 145q80 190 112.5 238.5t94.5 48.5h2q41 0 77.5 -29.5t36.5 -76.5q0 -41 -32.5 -76t-173.5 -154q-86 -72 -142 -119z" />
<glyph unicode="&#x3ce;" horiz-adv-x="1695" d="M201 319q0 287 387 568q61 43 76 43q20 0 52 -66.5t32 -85t-39 -45.5q-270 -199 -271 -389q0 -96 72 -152.5t162 -56.5h4q78 0 158 80q-27 76 -27 162q0 111 27 155q37 61 106 62q41 0 69.5 -26.5t28.5 -69.5t-23.5 -118t-62.5 -138q-14 -20 -14 -33q0 -23 35 -48.5 t84 -25.5q45 0 95 16.5t106.5 51.5t93.5 106.5t37 167.5q0 82 -24 152.5t-51.5 108.5t-51 69t-23.5 41q0 18 26.5 49t45 31t121.5 -105q188 -197 188 -379q0 -166 -126 -310t-310 -144q-211 0 -312 147q-156 -147 -358 -147q-143 0 -228 96t-85 233zM940 1024q14 35 48 117 t64.5 150.5t30.5 70.5q43 94 125 94q43 0 80 -29.5t37 -74.5q0 -53 -65 -113q-274 -227 -285 -229q-10 0 -35 14z" />
<glyph unicode="&#x3d1;" horiz-adv-x="1513" d="M152 614q0 8 5 36t20.5 76t40 90t69.5 74t102 32q102 0 190.5 -53.5t90.5 -153.5q0 -31 -33 -224.5t-33 -244.5q0 -182 199 -183q176 0 282 277q45 119 86 373q-70 16 -121 29.5t-126.5 46t-123.5 71.5t-84 102.5t-36 141.5q0 158 113.5 243t248.5 85q70 0 135.5 -26 t127 -81t98.5 -160.5t37 -246.5q0 -72 -15 -173q82 -10 93 -26q6 -8 6 -21q0 -37 -37 -36q-12 0 -74 10q-23 -127 -71 -243t-121.5 -218t-185 -162.5t-247.5 -60.5q-205 0 -309 67.5t-104 225.5q0 55 32.5 240.5t32.5 226.5q-2 98 -63 98q-20 0 -36.5 -10.5t-29 -29 t-21.5 -36.5t-16.5 -45t-11.5 -42t-8 -37.5t-4 -24.5q-8 -41 -53 -41.5t-45 34.5zM778 1108q0 -63 31 -115.5t68.5 -83t105.5 -58.5t101.5 -37t99.5 -26q27 143 26 275q0 74 -13 135.5t-55 110.5t-108 49q-88 0 -172 -63.5t-84 -186.5z" />
<glyph unicode="&#x3d8;" horiz-adv-x="1286" d="M264 -8l17 98h229l80 471q-129 31 -225.5 124t-96.5 239q0 201 178.5 346t421.5 145q197 0 335 -106.5t138 -274.5q0 -156 -118.5 -291t-341.5 -184l-78 -469h229l-16 -98q-326 6 -363 6q-194 0 -389 -6zM553 901q0 -121 54.5 -190.5t142.5 -69.5q125 0 216 128t91 288 q0 121 -54.5 190.5t-142.5 69.5q-125 0 -216 -127t-91 -289z" />
<glyph unicode="&#x3d9;" horiz-adv-x="1286" d="M276 733q0 250 194 422t439 172q162 0 272.5 -95t110.5 -265q0 -180 -113.5 -337t-322.5 -224q-4 -387 -10 -412q-20 -86 -103.5 -141.5t-177.5 -55.5q-68 0 -102.5 37t-34.5 84q0 33 139 463q-123 27 -207 116t-84 236zM459 807q0 -84 31.5 -146.5t83 -93t100.5 -45 t98 -14.5q88 0 156.5 38t106.5 99.5t56.5 123.5t18.5 124q0 145 -91 222t-222 77q-168 0 -253 -124t-85 -261z" />
<glyph unicode="&#x3da;" horiz-adv-x="1968" d="M221 573q0 283 200 520.5t480 280.5q63 8 141 8h215l-2 -20q20 20 54 20h727l-39 -495h-96l6 147q0 88 -19.5 136.5t-66.5 76.5q-61 37 -193 37h-94l-197 -1186h222l-17 -98h-733q-246 0 -391 123q-197 163 -197 450zM506 512q0 -80 13 -148.5t43 -131t87.5 -98.5 t136.5 -36q98 0 179.5 47.5t105.5 124.5q4 10 8 33t4 25l117 708q12 80 12 82q0 74 -65.5 120t-163.5 46q-113 0 -206 -75.5t-150.5 -192.5t-89 -249t-31.5 -255z" />
<glyph unicode="&#x3db;" horiz-adv-x="1286" d="M242 580q0 166 163.5 259t430.5 93h315q37 0 59.5 -3t49 -25.5t26.5 -67.5q0 -51 -36 -94.5t-93 -43.5q-72 0 -265.5 52.5t-281.5 52.5q-135 0 -214 -57.5t-79 -153.5q0 -100 119 -100q53 0 208 29.5t216 29.5q53 0 81 -26.5t28 -67.5q0 -23 -7.5 -49.5t-47.5 -58.5 t-107 -32q-14 0 -44 1t-44 1q14 -217 14 -233q0 -66 -42 -101.5t-97 -35.5q-43 0 -74 23.5t-31 66.5q0 20 12.5 54t94.5 239q-57 6 -108.5 18t-112 39t-97 76t-36.5 115z" />
<glyph unicode="&#x3dc;" horiz-adv-x="1603" d="M119 0l16 98h221l199 1198h-221l16 97h1290l-18 -496h-98q0 12 1 38t1 38q0 106 -28 175t-86 99.5t-117.5 39.5t-155.5 9h-291v-2l-92 -549h106q137 0 197.5 46.5t83.5 193.5h98l-96 -575h-98q10 51 10 94t-15.5 71.5t-33 43t-53 20.5t-53 7t-56.5 1h-107l-90 -549h277 l-17 -98q-201 6 -403 6q-194 0 -387 -6z" />
<glyph unicode="&#x3dd;" horiz-adv-x="1286" d="M72 -459q0 31 36.5 74t87 134t72.5 228l101 603q16 94 41 137q63 113 186 145q27 6 181.5 9t355.5 36q29 4 43 4q39 0 61.5 -22.5t22.5 -61.5q0 -51 -35 -88t-80 -37q-16 0 -80 10.5t-170.5 21.5t-228.5 11h-2q-104 0 -135 -58t-58 -238q-2 -12 -2 -19q152 8 267.5 32.5 t127.5 24.5q37 0 59.5 -23.5t22.5 -62.5q0 -47 -33.5 -88t-83.5 -41q-23 0 -55.5 10.5t-113 25t-207.5 22.5q-23 -131 -52.5 -317.5t-49 -300t-25.5 -138.5q-16 -61 -57.5 -91t-88.5 -30q-41 0 -74.5 24.5t-33.5 63.5z" />
<glyph unicode="&#x3df;" horiz-adv-x="1011" d="M233 410q6 47 29 170l90 546q16 139 125 140q39 0 61.5 -22.5t22.5 -59.5q0 -84 -108.5 -331t-133.5 -370l621 74q-10 -66 -29 -168l-90 -549q-18 -139 -125 -139q-39 0 -61.5 22.5t-22.5 59.5q0 84 108.5 330.5t133.5 369.5z" />
<glyph unicode="&#x3e0;" horiz-adv-x="1941" d="M188 0q2 47 17 98h12l459 891q-16 23 -33.5 47.5t-27 36.5t-19.5 26.5t-14 21.5t-8.5 15.5t-5.5 13.5t-1 11q0 2 8 47q2 18 6.5 44t6.5 42.5t5 36t5 31.5t6 26.5t7 21.5t8.5 14.5t11.5 10.5t12 3h6q23 0 45 -39l916 -1301h223l-16 -98q-164 6 -328 6q-182 0 -363 -6 l15 98h162l-218 308l-206 -406q-51 6 -104.5 6t-104.5 -6q2 31 14 98h12l256 496l-143 205l-385 -744l-25 -55q-51 6 -106 6q-52 0 -105 -6z" />
<glyph unicode="&#x3e1;" horiz-adv-x="1830" d="M309 463q0 47 28 113.5t87 117.5q76 68 209 101.5t295 65.5t268 85q-119 104 -262 169t-240.5 80t-190.5 21.5t-97 8.5q-57 18 -58 75q0 20 8.5 45t42 50.5t84.5 25.5q250 0 477.5 -82t397.5 -226t271.5 -357t101.5 -459q0 -199 -39 -256q-43 -63 -115 -64 q-41 0 -69.5 25t-28.5 70q0 10 8 69.5t8 126.5q0 143 -51 310q-190 -92 -260 -154q-74 -63 -101 -137q0 -2 -6 -26.5t-14 -43t-22.5 -42t-42 -37t-62.5 -13.5q-43 0 -71.5 26.5t-28.5 69.5q0 29 16 78q14 39 35.5 70.5t60.5 61.5t65.5 48.5t88 45t91.5 38.5t110.5 41 t111.5 41q-55 123 -170 254q-92 -45 -226 -81t-232.5 -71.5t-159.5 -99.5q-49 -51 -74 -130t-27 -83q-41 -68 -116 -67q-45 0 -73 26.5t-28 69.5z" />
<glyph unicode="&#x400;" horiz-adv-x="1546" d="M80 0l16 98h221l201 1209h-221l16 98h1274l-20 -496h-97v78q0 106 -26.5 174t-85 97.5t-115.5 39t-153 9.5h-279l-88 -529h92q139 0 195.5 47t81.5 193h98l-96 -578h-99l13 99q0 41 -15.5 69.5t-33 43t-52.5 20.5t-51 7t-53 1h-96l-97 -582h252q172 0 282.5 30t192.5 132 q29 35 53.5 84t37 80t30 83t19.5 56h98l-189 -563h-1306zM817 1645q0 49 40 99t97 50q27 0 57.5 -17.5t137.5 -95.5q74 -53 123 -88l-49 -92l-265 43q-4 0 -22 3t-26.5 5t-26 6.5t-26.5 11.5t-19.5 16t-15.5 25t-5 34z" />
<glyph unicode="&#x401;" horiz-adv-x="1546" d="M80 0l16 98h221l201 1209h-221l16 98h1274l-20 -496h-97v78q0 106 -26.5 174t-85 97.5t-115.5 39t-153 9.5h-279l-88 -529h92q139 0 195.5 47t81.5 193h98l-96 -578h-99l13 99q0 41 -15.5 69.5t-33 43t-52.5 20.5t-51 7t-53 1h-96l-97 -582h252q172 0 282.5 30t192.5 132 q29 35 53.5 84t37 80t30 83t19.5 56h98l-189 -563h-1306zM682 1651q0 72 56.5 125t125.5 53q61 0 100.5 -40t39.5 -99q0 -70 -54.5 -124.5t-126.5 -54.5q-61 0 -101 40.5t-40 99.5zM1141 1653q0 72 55 125t125 53q61 0 100 -40t39 -99q0 -70 -53 -125.5t-125 -55.5 q-59 0 -100 40.5t-41 101.5z" />
<glyph unicode="&#x402;" horiz-adv-x="1964" d="M236 909l143 496h1362l-19 -377h-96v55q0 78 -20.5 125t-66.5 67.5t-85 26t-106 5.5h-166l-84 -502l-11 -74q174 201 515 201q199 0 302 -53.5t103 -198.5q0 -39 -22.5 -170t-32.5 -166q-49 -170 -185.5 -268.5t-310.5 -98.5q-117 0 -192.5 61.5t-75.5 160.5q0 86 55 136 t125 50q59 0 98 -37t39 -96q0 -55 -32.5 -105.5t-110.5 -72.5q49 -20 88 -21q113 0 178 101q33 49 46.5 108.5t51.5 284.5q20 123 21 164q0 84 -48 115.5t-145 31.5q-104 0 -205.5 -32.5t-183.5 -103.5t-106 -165q-2 -10 -16.5 -95t-33 -196.5t-28.5 -167.5h111l-17 -98 q-150 6 -303 6q-2 0 -414 -6l17 98h313l201 1209h-121q-109 0 -179.5 -20.5t-117.5 -75t-75.5 -120t-61.5 -182.5h-98z" />
<glyph unicode="&#x403;" horiz-adv-x="1415" d="M80 0l16 98h221l201 1209h-221l16 98h1176l-21 -496h-98q0 16 1 47t1 45q0 154 -66.5 230t-258.5 76h-236l-201 -1209h277l-17 -98q-211 6 -426 6q-145 0 -364 -6zM879 1593q47 27 92 53.5t73.5 43l57 33t45 25.5t33 18.5t24.5 13.5t16.5 8t14.5 4t11 1t14 1 q43 0 69.5 -32.5t26.5 -75.5q0 -25 -7.5 -44.5t-17.5 -34t-26.5 -24.5t-30.5 -16t-34.5 -11.5t-31 -7.5t-29 -4t-20.5 -2q-188 -31 -262 -41z" />
<glyph unicode="&#x404;" horiz-adv-x="1699" d="M236 575q0 154 61 302.5t176 272.5t302.5 200.5t414.5 76.5q231 0 385 -118q176 115 190 116q35 0 35 -36q0 -6 -11 -73t-27.5 -165t-24.5 -150q-4 -31 -15.5 -42t-42.5 -11q-16 0 -26.5 3t-16.5 5t-9 11.5t-4 11.5t-1 16.5v16.5q-8 129 -109.5 223t-275.5 94 q-266 0 -441 -152.5t-225 -418.5q127 49 260 49q139 0 260 -53.5t180.5 -53.5t122 20.5t68.5 20.5q25 0 25 -30q0 -41 -74 -76q-229 -102 -338 -103q-72 0 -203 70t-227 70q-33 0 -90 -15q-6 -59 -6 -116q0 -133 43 -228.5t116.5 -144.5t150.5 -70.5t163 -21.5 q170 0 317.5 80t190.5 219q0 2 4 15t6 17.5t8 12.5t16.5 11t24.5 3q45 0 45 -35q0 -12 -2 -20q-27 -123 -130 -216t-244.5 -139.5t-294.5 -46.5q-322 0 -524.5 153.5t-202.5 444.5z" />
<glyph unicode="&#x405;" horiz-adv-x="1306" d="M133 6l68 416q4 31 13 38t38 7q49 0 49 -31q0 -2 -3 -20.5t-3 -48.5q0 -94 47 -158t123 -90.5t134 -35.5t118 -9q88 0 153.5 30.5t98 76.5t48 91t15.5 84q0 55 -20.5 95.5t-58.5 62t-57 28.5t-52 15q-106 23 -174 39q-78 16 -116 26.5t-84 36t-85 66.5q-90 96 -90 233 q0 74 30.5 153t91 151.5t166 118.5t238.5 46q205 0 336 -114l111 96q20 18 39 18q37 0 36 -30q0 -4 -4 -25l-63 -387q-4 -23 -11.5 -33t-14.5 -12t-27 -2q-25 0 -34 5t-11 14.5t-2 33.5q-6 348 -357 348q-156 0 -230.5 -81.5t-74.5 -170.5q0 -70 47 -115.5t121 -62.5 l276 -61q139 -31 216 -133.5t77 -229.5q0 -80 -30.5 -163.5t-91 -163.5t-169 -130.5t-247.5 -50.5q-256 0 -396 113q-35 -33 -108 -94q-23 -18 -41 -19q-35 0 -35 29z" />
<glyph unicode="&#x406;" horiz-adv-x="892" d="M68 0l16 96h233l201 1213h-231l16 96q78 -6 377 -6q301 0 379 6l-17 -96h-231l-203 -1213h234l-19 -96q-78 6 -377 6q-294 0 -378 -6z" />
<glyph unicode="&#x407;" horiz-adv-x="892" d="M68 0l16 96h233l201 1213h-231l16 96q78 -6 377 -6q301 0 379 6l-17 -96h-231l-203 -1213h234l-19 -96q-78 6 -377 6q-294 0 -378 -6zM336 1651q0 70 53 124t127 54q59 0 100 -37.5t41 -99.5q0 -74 -57 -127t-125 -53q-59 0 -99 39t-40 100zM795 1651q0 70 53 124t127 54 q59 0 100 -37.5t41 -99.5q0 -74 -57 -127t-125 -53q-59 0 -99 39t-40 100z" />
<glyph unicode="&#x408;" horiz-adv-x="1216" d="M84 205q0 88 55.5 137t122.5 49q53 0 96 -34.5t43 -100.5q0 -123 -125 -172q74 -33 158 -33q102 0 167 69.5t83 178.5l168 1010h-287l15 96h2q90 -6 405 -6q254 0 328 6l-17 -96h-165l-168 -1010q-23 -145 -162 -233.5t-357 -88.5q-166 0 -264 61t-98 167z" />
<glyph unicode="&#x409;" horiz-adv-x="2527" d="M98 186q0 88 51.5 143.5t129.5 55.5q61 0 100 -37t39 -96q0 -113 -123 -172q33 -4 47 -4q102 0 174 75.5t148.5 305t156.5 653.5q25 131 35 197h-233l16 98h1360l-17 -98h-223l-84 -519q186 37 340 37q131 0 225.5 -33.5t141.5 -89t66.5 -110.5t19.5 -115 q0 -176 -125 -313t-340 -160q-37 -4 -111 -4h-862l14 98h222l202 1209h-514q-16 -119 -75.5 -411t-122.5 -482q-70 -211 -163 -324t-255 -113q-109 0 -174.5 55.5t-65.5 153.5zM1559 98h294q86 0 150.5 43t94.5 109.5t43 125t13 107.5q0 94 -52 163t-175 69q-143 0 -270 -25 z" />
<glyph unicode="&#x40a;" horiz-adv-x="2527" d="M80 0l16 98h221l201 1209h-221l16 98q211 -6 351 -6l385 6l-17 -98h-221l-88 -529h657l88 529h-221l17 98q211 -6 350 -6l385 6l-17 -98h-221l-86 -519q186 37 342 37q131 0 225.5 -33.5t140.5 -89t65.5 -110.5t19.5 -115q0 -176 -124 -313t-339 -160q-39 -4 -117 -4 h-858l17 98h221l96 584h-657v-2l-97 -582h221l-16 -98q-178 6 -360 6q-189 0 -375 -6zM1561 98h294q86 0 151 43t94.5 109.5t43 125t13.5 107.5q0 94 -53.5 163t-176.5 69q-141 0 -268 -25z" />
<glyph unicode="&#x40b;" horiz-adv-x="1798" d="M236 909l145 496h1292l-18 -377h-99q0 8 1.5 24.5t1.5 24.5q0 127 -61.5 178.5t-205.5 51.5h-211l-82 -498l-10 -72q150 184 410 185q147 0 232 -50.5t85 -177.5q0 -33 -14 -124t-40 -237.5t-40 -234.5h166l-16 -98q-145 6 -291 6h-8q-117 0 -267 -6l15 98h168 q6 45 31.5 195.5t46 275.5t20.5 152q0 61 -28.5 94t-102.5 33q-121 0 -234.5 -76t-154.5 -188q-8 -25 -21.5 -98.5t-33 -195.5t-31.5 -192h166l-17 -98q-160 6 -319 6q-178 0 -361 -6l17 98h221l200 1209h-63q-98 0 -162.5 -23.5t-105.5 -81t-61.5 -109t-51.5 -149.5 q-6 -23 -10 -35h-98z" />
<glyph unicode="&#x40c;" horiz-adv-x="1845" d="M80 0l16 98h221l201 1209h-221l16 98q211 -6 351 -6l385 6l-17 -98h-221l-109 -652l863 629q-12 8 -32 12t-33 5.5t-40.5 3.5t-38.5 2l17 98q141 -6 286 -6q111 0 224 6l-15 -98q-47 0 -79.5 -1t-58.5 -4.5t-39 -4.5t-29.5 -9t-21.5 -11t-21.5 -16.5t-22.5 -17.5 q-139 -100 -247.5 -180t-152.5 -112.5t-74 -54.5t-48 -34l428 -719q20 -33 44.5 -39t133.5 -6h18l-16 -98q-178 6 -297 6q-180 0 -363 -6l17 98h12q133 0 133 25q0 10 -68.5 123.5t-154.5 257t-113 192.5q-221 -162 -225 -168l-2 -4q-6 -10 -11 -40.5t-23.5 -144.5 t-41.5 -241h221l-16 -98q-180 6 -360 6q-189 0 -375 -6zM1073 1593q47 27 92 53.5t75 43t58.5 33t45 25.5t32 18.5t24.5 13.5t17 8t14.5 4t11.5 1t13 1q41 0 68.5 -31.5t27.5 -76.5q0 -27 -7 -48.5t-23.5 -36t-29.5 -24.5t-37.5 -16.5t-36 -9.5t-37 -6t-27.5 -3 q-188 -31 -262 -41z" />
<glyph unicode="&#x40d;" horiz-adv-x="1845" d="M80 0l16 98h221l201 1209h-221l16 98q211 -6 351 -6l385 6l-17 -98h-221l-152 -914l-16 -106l823 1020h-219l17 98q211 -6 350 -6l385 6l-17 -98h-221l-200 -1209h221l-17 -98q-178 6 -360 6q-188 0 -375 -6l17 98h221l170 1022l-826 -1022h219l-16 -98q-178 6 -360 6 q-189 0 -375 -6zM946 1645q0 49 40 99t97 50q27 0 57.5 -17.5t137.5 -95.5q74 -53 123 -88l-49 -92l-265 43q-4 0 -22 3t-26.5 5t-26 6.5t-26.5 11.5t-19.5 16t-15.5 25t-5 34z" />
<glyph unicode="&#x40e;" horiz-adv-x="1779" d="M283 1307l16 98q141 -6 311 -6q186 0 371 6l-14 -98h-172l395 -779l442 752l-2 2v4q-27 10 -180 21l16 98q139 -6 277 -6q121 0 219 6l-16 -98q-125 0 -157 -9.5t-52 -46.5l-428 -731q-4 -6 -31 -53t-42 -70.5t-49 -76t-61.5 -83t-69.5 -76.5t-84 -74t-92.5 -55.5 t-107.5 -41t-117 -13.5q-117 0 -193.5 63.5t-76.5 162.5q0 80 52 134t128 54q57 0 98.5 -36t41.5 -97q0 -119 -125 -172q51 -12 86 -12q203 0 348 172l-543 1061h-188zM901 1720q0 76 53.5 129.5t120.5 53.5q53 0 90 -35t37 -88q0 -100 -106 -158q76 -16 157 -16 q92 0 168 16q-61 41 -61 108.5t54 120t120 52.5q53 0 89 -35t36 -90q0 -111 -121 -194t-299 -83q-150 0 -244 60.5t-94 158.5z" />
<glyph unicode="&#x40f;" horiz-adv-x="1845" d="M80 0l18 106h221l199 1201h-221l16 98q211 -6 351 -6l385 6l-17 -98h-221l-199 -1201h658l198 1201h-221l17 98q211 -6 350 -6l385 6l-17 -98h-221l-198 -1201h219l-17 -106h-655q-37 0 -60.5 -21.5t-56.5 -95.5q-57 -131 -88 -282h-98q12 76 12 159q0 106 -12 161.5 t-27.5 67t-40.5 11.5h-659z" />
<glyph unicode="&#x410;" horiz-adv-x="1779" d="M84 0l16 96h43q53 0 107 6q39 4 51 10.5t25 28.5l714 1241q27 47 86 48q39 0 51.5 -10.5t22.5 -47.5l311 -1276h199l-16 -96q-72 6 -332 6q-285 0 -363 -6l15 96h194l-71 299h-549l-158 -276q33 -14 86 -19q37 -4 94 -4l-16 -96q-76 6 -268 6q-29 0 -69 -1t-92 -3t-81 -2 zM645 492h467l-139 569z" />
<glyph unicode="&#x411;" horiz-adv-x="1675" d="M80 0l16 98h221l201 1209h-221l16 98h1270l-18 -496h-99v76q0 109 -25.5 175.5t-83 97t-115.5 40t-157 9.5h-297l-86 -521q201 39 406 39q150 0 256 -34.5t157.5 -92t73 -113t21.5 -116.5q0 -66 -26.5 -136.5t-82 -141t-158 -122t-237.5 -65.5q-43 -4 -131 -4h-901z M588 98h366q98 0 171 40t109 102.5t52.5 120t16.5 108.5q0 102 -64.5 175t-216.5 73q-188 0 -311 -25q-18 -4 -24.5 -14t-10.5 -43z" />
<glyph unicode="&#x412;" horiz-adv-x="1675" d="M80 0l14 96h223l201 1213h-221l16 96h889q193 0 323 -77t130 -230q0 -131 -107.5 -230.5t-302.5 -134.5q170 -14 267.5 -95t97.5 -208q0 -162 -152.5 -296t-427.5 -134h-950zM586 96h377q170 0 259 107.5t89 257.5q0 66 -20.5 114t-45 69.5t-62.5 34.5t-57.5 14t-42.5 1 h-397zM698 768h320q164 0 256 102.5t92 239.5q0 199 -207 199h-371z" />
<glyph unicode="&#x413;" horiz-adv-x="1415" d="M80 0l16 98h221l201 1209h-221l16 98h1176l-21 -496h-98q0 16 1 47t1 45q0 154 -66.5 230t-258.5 76h-236l-201 -1209h277l-17 -98q-211 6 -426 6q-145 0 -364 -6z" />
<glyph unicode="&#x414;" horiz-adv-x="1845" d="M-70 -399l146 505h141q35 0 68 25q111 82 198.5 193.5t144 218t103.5 250t72.5 252t54.5 262.5h-221l16 98h1348l-16 -98h-222l-200 -1201h243l-22 -505h-96q0 14 1 44.5t1 47.5q0 184 -83 245.5t-274 61.5h-805q-154 0 -236.5 -25.5t-148 -112.5t-114.5 -261h-99z M395 106h877l198 1201h-516q-37 -227 -98 -423t-117.5 -313.5t-134.5 -225t-116 -147t-93 -92.5z" />
<glyph unicode="&#x415;" horiz-adv-x="1546" d="M80 0l16 98h221l201 1209h-221l16 98h1274l-20 -496h-97v78q0 106 -26.5 174t-85 97.5t-115.5 39t-153 9.5h-279l-88 -529h92q139 0 195.5 47t81.5 193h98l-96 -578h-99l13 99q0 41 -15.5 69.5t-33 43t-52.5 20.5t-51 7t-53 1h-96l-97 -582h252q172 0 282.5 30t192.5 132 q29 35 53.5 84t37 80t30 83t19.5 56h98l-189 -563h-1306z" />
<glyph unicode="&#x416;" horiz-adv-x="2797" d="M96 0l17 98h47q84 0 109.5 7.5t56.5 37.5l667 719q-23 20 -395 381l-15.5 15.5t-14.5 13.5t-13 10t-16.5 9t-20.5 5t-27.5 5.5t-36 3.5t-48 2h-60.5l16 98q111 -6 224 -6l288 6l-16 -96l-2 -2q-133 0 -137 -23q-2 -8 35 -43l606 -588l108 654h-221l17 98q211 -6 350 -6 l385 6l-17 -98h-221l-108 -652l801 586q51 39 51 43q0 23 -131 23l16 98q141 -6 285 -6q111 0 225 6l-16 -98q-55 0 -93 -2t-59.5 -3.5t-43.5 -10.5t-26 -10t-25.5 -17.5t-25.5 -20.5l-522 -381l428 -719q20 -33 45 -39t133 -6h19l-17 -98q-178 6 -297 6q-180 0 -360 -6 l14 98h12q121 0 132 19q6 10 -15 43l-319 536q-221 -162 -226 -168l-2 -4q-6 -10 -11 -40.5t-23.5 -144.5t-40.5 -241h221l-17 -98q-180 6 -360 6q-188 0 -375 -6l17 98h221l71 428l-176 170h-2l-497 -538q-31 -31 -27 -41q6 -18 119 -19h16l-16 -98q-178 6 -357 6 q-168 0 -303 -6z" />
<glyph unicode="&#x417;" horiz-adv-x="1439" d="M176 334q0 61 12.5 76.5t44.5 15.5h9q47 0 47 -43q0 -6 -1 -24.5t-1 -28.5q0 -254 399 -254q117 0 205 39t132 100t63.5 118.5t19.5 110.5q0 45 -12.5 83t-43 79t-97 64.5t-162.5 23.5h-166q-45 0 -45 33q0 41 57 41h129q201 0 298 105.5t97 236.5q0 90 -58.5 154.5 t-191.5 64.5q-168 0 -304 -79t-185 -244q-8 -31 -19.5 -39.5t-37.5 -8.5q-31 0 -43.5 7.5t-12.5 29.5q0 14 2 21q14 82 33 201q25 150 34 179t33.5 29t79 -39.5t72.5 -39.5q10 0 49 20t122 40.5t198 20.5q147 0 254.5 -32.5t162 -86t78 -106.5t23.5 -110q0 -39 -12.5 -77 t-48 -94.5t-125.5 -106.5t-226 -81q152 -27 259.5 -104.5t107.5 -206.5q0 -70 -38 -142.5t-115.5 -143t-224 -115t-339.5 -44.5q-279 0 -395.5 94.5t-116.5 262.5z" />
<glyph unicode="&#x418;" horiz-adv-x="1845" d="M80 0l16 98h221l201 1209h-221l16 98q211 -6 351 -6l385 6l-17 -98h-221l-152 -914l-16 -106l823 1020h-219l17 98q211 -6 350 -6l385 6l-17 -98h-221l-200 -1209h221l-17 -98q-178 6 -360 6q-188 0 -375 -6l17 98h221l170 1022l-826 -1022h219l-16 -98q-178 6 -360 6 q-189 0 -375 -6z" />
<glyph unicode="&#x419;" horiz-adv-x="1845" d="M80 0l16 98h221l201 1209h-221l16 98q211 -6 351 -6l385 6l-17 -98h-221l-152 -914l-16 -106l823 1020h-219l17 98q211 -6 350 -6l385 6l-17 -98h-221l-200 -1209h221l-17 -98q-178 6 -360 6q-188 0 -375 -6l17 98h221l170 1022l-826 -1022h219l-16 -98q-178 6 -360 6 q-189 0 -375 -6zM836 1720q0 76 53 129.5t121 53.5q53 0 90 -35t37 -88q0 -102 -107 -158q76 -16 158 -16q102 0 168 16q-61 41 -62 109q0 66 52.5 119t119.5 53q53 0 90 -35t37 -88q0 -117 -123.5 -198t-295.5 -81q-150 0 -244 60.5t-94 158.5z" />
<glyph unicode="&#x41a;" horiz-adv-x="1845" d="M80 0l16 98h221l201 1209h-221l16 98q211 -6 351 -6l385 6l-17 -98h-221l-109 -652l863 629q-12 8 -32 12t-33 5.5t-40.5 3.5t-38.5 2l17 98q141 -6 286 -6q111 0 224 6l-15 -98q-47 0 -79.5 -1t-58.5 -4.5t-39 -4.5t-29.5 -9t-21.5 -11t-21.5 -16.5t-22.5 -17.5 q-139 -100 -247.5 -180t-152.5 -112.5t-74 -54.5t-48 -34l428 -719q20 -33 44.5 -39t133.5 -6h18l-16 -98q-178 6 -297 6q-180 0 -363 -6l17 98h12q133 0 133 25q0 10 -68.5 123.5t-154.5 257t-113 192.5q-221 -162 -225 -168l-2 -4q-6 -10 -11 -40.5t-23.5 -144.5 t-41.5 -241h221l-16 -98q-180 6 -360 6q-189 0 -375 -6z" />
<glyph unicode="&#x41b;" horiz-adv-x="1845" d="M98 186q0 88 51.5 143.5t129.5 55.5q61 0 100 -37t39 -96q0 -113 -123 -172q33 -4 47 -4q102 0 174 75.5t148.5 305t156.5 653.5q25 131 35 197h-233l16 98h1360l-17 -98h-223l-200 -1209h221l-17 -98q-178 6 -358 6q-188 0 -375 -6l14 98h222l202 1209h-514 q-16 -119 -75.5 -411t-122.5 -482q-70 -211 -163 -324t-255 -113q-109 0 -174.5 55.5t-65.5 153.5z" />
<glyph unicode="&#x41c;" horiz-adv-x="2234" d="M82 0l14 96h54q121 0 172 21l198 1192h-221l16 96h457q45 0 57.5 -9.5t22.5 -45.5l311 -1080l674 1086q20 35 38.5 42t57.5 7h455l-16 -96h-222l-202 -1213h221l-17 -96q-74 6 -348 6q-276 0 -350 -6l14 96h224l200 1209l-2 2l-782 -1260q-27 -47 -70 -47q-20 0 -32.5 9 t-16.5 18.5t-10 31.5l-350 1221h-2l-195 -1163q51 -20 164 -21h53l-16 -96q-78 6 -275 6q-192 0 -276 -6z" />
<glyph unicode="&#x41d;" horiz-adv-x="1845" d="M80 0l16 98h221l201 1209h-221l16 98q211 -6 351 -6l385 6l-17 -98h-221l-88 -529h657l88 529h-221l17 98q211 -6 350 -6l385 6l-17 -98h-221l-200 -1209h221l-17 -98q-178 6 -360 6q-188 0 -375 -6l17 98h221l96 584h-657v-2l-97 -582h221l-16 -98q-178 6 -360 6 q-189 0 -375 -6z" />
<glyph unicode="&#x41e;" horiz-adv-x="1767" d="M236 555q0 162 58 315.5t166.5 279.5t280.5 201.5t379 75.5q299 0 472 -155.5t173 -431.5q0 -160 -57 -311.5t-163.5 -275.5t-279.5 -200t-384 -76q-287 0 -466 146.5t-179 431.5zM541 485q0 -190 80 -295q98 -127 274 -127q106 0 219 58.5t197 191.5q61 100 99 254 t47 243t9 134q0 117 -33.5 201t-91 125t-115 58.5t-118.5 17.5q-150 0 -287 -96.5t-205 -301.5q-37 -111 -56 -249t-19 -214z" />
<glyph unicode="&#x41f;" horiz-adv-x="1845" d="M80 0l16 98h221l201 1209h-221l16 98h1686l-17 -98h-221l-200 -1209h221l-17 -98q-178 6 -360 6q-188 0 -375 -6l17 98h221l200 1209h-657l-201 -1209h221l-16 -98q-178 6 -360 6q-189 0 -375 -6z" />
<glyph unicode="&#x420;" horiz-adv-x="1609" d="M80 0l14 96h223l201 1213h-221l16 96h854q213 0 347.5 -89t134.5 -253q0 -190 -171 -317.5t-421 -127.5h-361l-88 -522h221l-16 -96q-78 6 -366.5 6t-366.5 -6zM698 702h273q203 0 291 99q37 43 60.5 146.5t23.5 180.5q0 180 -273 181h-274z" />
<glyph unicode="&#x421;" horiz-adv-x="1699" d="M238 582q0 158 63.5 307t180 270t300 194.5t404.5 73.5q231 0 383 -139l182 139q51 0 51 -30q0 -4 -4 -25l-76 -454q-6 -33 -14 -39.5t-43 -6.5q-14 0 -21.5 1t-20.5 6.5t-13 16.5t2 32q-8 203 -121 303t-266 100q-152 0 -288 -57t-218 -164q-49 -63 -85 -151.5 t-53.5 -159t-26.5 -148.5t-10 -106.5t-1 -46.5q0 -203 112 -310q121 -115 355 -114q102 0 206.5 35.5t204 132t131.5 237.5q6 29 50 29q47 0 47 -31q0 -4 -3.5 -21.5t-15.5 -55.5t-32.5 -77.5t-63.5 -92t-98 -95.5q-207 -158 -480 -158q-324 0 -521 158t-197 447z" />
<glyph unicode="&#x422;" horiz-adv-x="1638" d="M236 909l124 496h1381l-37 -496h-98q0 2 3 56.5t3 83.5q0 86 -20.5 139t-65.5 77.5t-90 33t-121 8.5h-133l-201 -1209h311l-14 -98q-283 6 -434 6q-242 0 -486 -6l17 98h313l201 1209h-135q-106 0 -174 -19.5t-115 -72t-75 -120t-56 -186.5h-98z" />
<glyph unicode="&#x423;" horiz-adv-x="1779" d="M283 1307l16 98q141 -6 311 -6q186 0 371 6l-14 -98h-172l395 -779l442 752l-2 2v4q-27 10 -180 21l16 98q139 -6 277 -6q121 0 219 6l-16 -98q-125 0 -157 -9.5t-52 -46.5l-428 -731q-4 -6 -31 -53t-42 -70.5t-49 -76t-61.5 -83t-69.5 -76.5t-84 -74t-92.5 -55.5 t-107.5 -41t-117 -13.5q-117 0 -193.5 63.5t-76.5 162.5q0 80 52 134t128 54q57 0 98.5 -36t41.5 -97q0 -119 -125 -172q51 -12 86 -12q203 0 348 172l-543 1061h-188z" />
<glyph unicode="&#x424;" horiz-adv-x="1961" d="M246 653q0 37 5 81t49 139.5t124 162.5q188 160 623 164l16 107h-277l17 98q201 -6 399 -6q211 0 424 6l-16 -98h-277l-16 -107q348 -6 495.5 -105.5t147.5 -285.5q0 -37 -5 -81t-49 -139t-124 -163q-190 -160 -623 -166l-26 -162h276l-16 -98q-254 6 -394 6 q-215 0 -430 -6l17 98h276l27 162q-348 6 -495.5 106.5t-147.5 286.5zM543 612q0 -80 26.5 -134t81 -82.5t111.5 -41t139 -18.5l133 790q-227 -16 -333.5 -98t-143.5 -280q-14 -81 -14 -136zM1171 336q248 16 347.5 111.5t130.5 277.5q12 82 12 123q0 147 -90 206.5 t-266 71.5z" />
<glyph unicode="&#x425;" horiz-adv-x="1779" d="M70 0l16 96h59q59 0 123 6q51 4 65.5 10.5t33.5 24.5l501 545l-348 627h-201l15 96h2q72 -6 330 -6q293 0 370 6l-16 -96h-170l225 -404l352 381q-68 23 -184 23l14 96h3q72 -6 309 -6q188 0 274 6l-16 -96h-60q-66 0 -127 -6q-47 -4 -61 -10.5t-29 -22.5l-424 -457 l400 -717h200l-18 -96q-72 6 -330 6q-287 0 -370 -6l16 96h170l-274 494l-433 -471q70 -23 185 -23l-17 -96q-74 6 -311 6q-188 0 -274 -6z" />
<glyph unicode="&#x426;" horiz-adv-x="1845" d="M80 0l18 106h221l199 1201h-221l16 98q211 -6 351 -6l385 6l-17 -98h-221l-199 -1201h658l198 1201h-221l17 98q211 -6 350 -6l385 6l-17 -98h-221l-198 -1201h241l-20 -505h-98q0 14 1 47t1 47q0 102 -25 165.5t-80 93.5t-112.5 38t-151.5 8h-1239z" />
<glyph unicode="&#x427;" horiz-adv-x="1845" d="M297 1307l16 98q211 -6 351 -6l385 6l-17 -98h-221q-76 -428 -76 -478q0 -70 35 -117.5t119 -47.5q162 0 311.5 35.5t171.5 64.5q6 8 29.5 144t44.5 268l22 131h-221l17 98q211 -6 350 -6l385 6l-17 -98h-221l-202 -1209h223l-19 -98q-178 6 -358 6q-188 0 -375 -6l14 98 h224l94 574q-229 -96 -494 -97q-182 0 -300.5 91.5t-118.5 195.5q0 29 10 87.5t28.5 163t30.5 194.5h-221z" />
<glyph unicode="&#x428;" horiz-adv-x="2725" d="M80 0l18 106h221l199 1201h-221l16 98q211 -6 351 -6l385 6l-17 -98h-221l-199 -1201h623l199 1201h-222l17 98q211 -6 350 -6l385 6l-16 -98h-222l-200 -1201h622l201 1201h-221l16 98q211 -6 350 -6l385 6l-16 -98h-223l-199 -1201h221l-18 -106h-2564z" />
<glyph unicode="&#x429;" horiz-adv-x="2725" d="M80 0l18 106h221l199 1201h-221l16 98q211 -6 351 -6l385 6l-17 -98h-221l-199 -1201h623l199 1201h-222l17 98q211 -6 350 -6l385 6l-16 -98h-222l-200 -1201h622l201 1201h-221l16 98q211 -6 350 -6l385 6l-16 -98h-223l-199 -1201h244l-23 -505h-96q0 14 1 47t1 47 q0 84 -19.5 142.5t-49 90t-83 48t-99.5 20.5t-119 4h-2118z" />
<glyph unicode="&#x42a;" horiz-adv-x="2062" d="M236 909l124 496h940l-16 -98h-110l-87 -521q203 39 406 39q150 0 257.5 -34.5t158.5 -92t72.5 -113t21.5 -116.5q0 -68 -27.5 -138.5t-83 -141t-159 -122t-238.5 -63.5q-43 -4 -127 -4h-903l16 98h221l201 1209h-145q-207 0 -288 -85t-136 -313h-98zM973 98h366 q98 0 171 40t110 101.5t53.5 120t16.5 109.5q0 102 -65.5 175t-217.5 73q-188 0 -311 -25q-12 -2 -18.5 -9t-8.5 -14t-6 -34z" />
<glyph unicode="&#x42b;" horiz-adv-x="2304" d="M80 0l16 98h221l201 1209h-221l16 98q193 -6 340 -6h11q180 0 362 6l-16 -98h-222l-86 -521q201 39 406 39q150 0 256 -34.5t157.5 -92t73 -113t21.5 -116.5q0 -66 -26.5 -136.5t-82 -141t-158 -122t-237.5 -65.5q-43 -4 -131 -4h-901zM588 98h366q98 0 171 40t109 102.5 t52.5 120t16.5 108.5q0 102 -64.5 175t-216.5 73q-188 0 -311 -25q-18 -4 -24.5 -14t-10.5 -43zM1473 0l16 98h221l203 1209h-221l16 98q270 -6 287 -6q90 0 446 6l-16 -98h-221l-201 -1209h221l-16 -98q-178 6 -359 6q-190 0 -376 -6z" />
<glyph unicode="&#x42c;" horiz-adv-x="1675" d="M80 0l16 98h221l201 1209h-221l16 98q193 -6 340 -6h11q180 0 362 6l-16 -98h-222l-86 -521q201 39 406 39q150 0 256 -34.5t157.5 -92t73 -113t21.5 -116.5q0 -66 -26.5 -136.5t-82 -141t-158 -122t-237.5 -65.5q-43 -4 -131 -4h-901zM588 98h366q98 0 171 40t109 102.5 t52.5 120t16.5 108.5q0 102 -64.5 175t-216.5 73q-188 0 -311 -25q-18 -4 -24.5 -14t-10.5 -43z" />
<glyph unicode="&#x42d;" horiz-adv-x="1699" d="M193 352q0 49 10 65.5t41 16.5q49 0 49 -39q0 -6 -1 -18t-1 -21q0 -125 113.5 -202.5t285.5 -77.5q102 0 198.5 28.5t188.5 89t165 172t112 263.5q-233 -106 -377 -107q-100 0 -221 71t-193 71q-20 0 -52 -8.5t-42 -8.5q-27 0 -27 31q6 57 106.5 88t190.5 31 q123 0 240 -54.5t199 -54.5q84 0 198 41q14 90 15 162q0 125 -43 215t-117 136t-150.5 66.5t-162.5 20.5q-180 0 -313.5 -96t-188.5 -223q-2 -6 -7.5 -18.5t-7.5 -16.5t-7 -11.5t-10 -9.5t-14.5 -4t-21.5 -2q-31 0 -42 8.5t-11 28.5q0 14 2 23q61 373 65 383q14 33 35 34 q25 0 84.5 -54t75.5 -54q6 0 57.5 27.5t148.5 55t216 27.5q315 0 515 -157.5t200 -450.5q0 -162 -64.5 -312.5t-183.5 -269t-301 -189.5t-402 -71q-244 0 -397 103.5t-153 271.5z" />
<glyph unicode="&#x42e;" horiz-adv-x="2607" d="M80 0l16 98h221l201 1209h-221l16 98q270 -6 289 -6q90 0 447 6l-17 -98h-221l-94 -564h377q25 129 92 248t171.5 218.5t261.5 158.5t341 59q291 0 468 -152.5t177 -434.5q0 -166 -59.5 -320.5t-169 -275.5t-280.5 -194t-376 -73q-289 0 -468 149.5t-179 428.5q0 29 4 90 h-377l-90 -547h219l-14 -98q-178 6 -360 6q-189 0 -375 -6zM1380 481q0 -121 34 -208t91.5 -129t113.5 -60t116 -18q109 0 208 52t166 138q78 100 127.5 266t59.5 264.5t10 157.5q0 115 -34 197t-89 124t-114.5 60t-122.5 18q-229 0 -379 -186q-102 -129 -144.5 -335 t-42.5 -341z" />
<glyph unicode="&#x42f;" horiz-adv-x="1845" d="M96 0l17 98q96 0 142 8.5t62.5 18.5t57.5 51l440 426l68 64q-414 82 -414 327q0 98 72.5 185.5t195.5 140.5q195 86 518 86h744l-19 -98h-221l-200 -1209h221l-17 -98q-176 6 -352 6q-186 0 -371 -6l17 98h221l92 557h-145q-8 0 -13.5 -1t-10.5 -1t-11 -5t-11 -9 t-15.5 -14.5l-19.5 -19.5l-27.5 -27.5t-37.5 -36.5l-379 -379q-35 -35 -34 -47q0 -16 84 -17h45l-17 -98q-184 6 -372 6q-126 0 -310 -6zM778 952q0 -74 35 -120t100.5 -64t115.5 -23.5t126 -5.5h229l95 568h-242q-80 0 -138.5 -6.5t-123 -27t-104.5 -57t-66.5 -104.5 t-26.5 -160z" />
<glyph unicode="&#x430;" horiz-adv-x="1144" d="M100 195q0 90 72 163.5t186 112.5q76 27 149 41t127 18.5t187 12.5q18 106 19 139q0 172 -187 172q-33 0 -69.5 -3t-60 -7t-23.5 -6t3 -6.5t3 -6.5q23 -29 22 -67q0 -63 -44 -105.5t-101 -42.5q-51 0 -83 31t-32 78q0 209 396 209q219 0 313 -78t94 -188q0 -37 -18 -134 q-18 -111 -21 -127q-45 -225 -45 -268q0 -37 115 -37q51 0 51 -39q0 -27 -10 -40t-22.5 -15t-37.5 -2h-98q-199 0 -199 115q0 16 5 37q-2 -6 -13.5 -20.5t-40 -40t-63.5 -48.5t-91.5 -39t-117.5 -16q-49 0 -99.5 6t-117 24.5t-107.5 64.5t-41 112zM340 195q0 -59 45 -96.5 t113 -37.5q109 0 192 70q74 59 92 176q4 29 14.5 86.5t14.5 85.5q-145 -6 -246.5 -42t-145.5 -84t-61.5 -86.5t-17.5 -71.5z" />
<glyph unicode="&#x431;" d="M133 367q0 35 21 172q43 256 104 426t186 264q80 59 181.5 86.5t259 47t254.5 42.5q82 16 88 16q49 0 49 -37q0 -43 -39 -104t-117 -88q-51 -16 -157.5 -22.5t-196.5 -12.5t-195.5 -54t-173.5 -142q-51 -70 -92 -195q184 162 436 162q211 0 332 -103.5t121 -287.5 q0 -98 -37 -191.5t-107.5 -175.5t-192.5 -131t-275 -49q-199 0 -324 95.5t-125 281.5zM385 281q0 -113 62.5 -161t154.5 -48q76 0 133.5 27.5t89 66.5t54 101.5t32 106.5t19.5 109q2 18 4 29q14 100 14 135q0 205 -219 205q-139 0 -223 -92q-47 -53 -78 -173t-37 -214z" />
<glyph unicode="&#x432;" d="M72 0l12 74h33q80 0 96 8t23 45q0 8 2 14l104 631q4 29 4 35q0 20 -18.5 25.5t-79.5 5.5h-37l12 73h559q141 0 228 -28q152 -51 151 -170q0 -137 -246 -211q227 -68 228 -207q0 -39 -19.5 -83t-62.5 -95t-136.5 -84t-219.5 -33h-633zM467 100q0 -18 14.5 -22t65.5 -4h100 q135 0 191.5 77.5t56.5 167.5q0 59 -30.5 103.5t-104.5 44.5h-234q-16 -102 -31.5 -193.5t-21.5 -126.5t-6 -47zM539 535h123q143 0 201.5 56t58.5 126q0 121 -148 121h-123q-47 0 -58 -11.5t-20 -66.5q-2 -10 -2 -17q-28 -163 -32 -208z" />
<glyph unicode="&#x433;" horiz-adv-x="1015" d="M68 0l12 74h33q80 0 96 8t22 45q0 8 2 14l105 631q4 29 4 35q0 20 -18.5 25.5t-79.5 5.5h-37l12 73h862l-32 -358h-99q6 68 6 98q0 61 -18 101.5t-56 57.5t-74 22.5t-91 5.5h-51q-61 0 -73.5 -8.5t-19.5 -51.5l-106 -641q-6 -37 0 -47q12 -16 127 -16h39l-12 -74 q-147 6 -291 6q-104 0 -262 -6z" />
<glyph unicode="&#x434;" horiz-adv-x="1308" d="M-45 -332l104 406h33q61 0 104.5 16t110.5 82q61 59 111.5 145t79 169t47 157t24.5 119l6 45q0 20 -19 25.5t-85 5.5h-29l13 73h936l-13 -73h-30q-82 0 -97.5 -9.5t-23.5 -58.5l-107 -633q-4 -29 -4 -33q0 -20 21.5 -25t99.5 -5h37l-31 -406h-98q6 111 6 113 q0 119 -53.5 169t-188.5 50h-485q-174 0 -246 -62.5t-125 -269.5h-98zM334 86q29 -12 61 -12h402q57 0 69.5 9t18.5 48l100 604q10 57 10 74q0 18 -11 23.5t-48 5.5h-197q-41 0 -65 -23q-82 -498 -340 -727v-2z" />
<glyph unicode="&#x435;" horiz-adv-x="1079" d="M135 383q0 96 37 190.5t106.5 174t184.5 130t256 50.5q182 0 282.5 -83t100.5 -255q0 -100 -14.5 -122t-61.5 -22h-623q-16 -98 -16 -143q0 -119 62 -174q66 -59 176 -59q27 0 56.5 4t81.5 19.5t103.5 54t85.5 98.5q23 31 52 30q47 0 47 -36q0 -12 -14.5 -39t-50.5 -64 t-85 -69.5t-127 -56t-170 -23.5q-217 0 -343 107.5t-126 287.5zM414 514h489q10 92 10 113q0 227 -192 227q-241 0 -307 -340z" />
<glyph unicode="&#x436;" horiz-adv-x="1961" d="M39 0l12 74q76 0 102.5 10t73.5 57l447 426q-49 41 -111.5 91.5t-85 70t-59.5 46t-50.5 33.5t-40 16.5t-46 11.5t-52.5 2l13 73q80 -6 161 -6q104 0 209 6l-10 -73l-20 -7l-15 -10l-4 -4l-2 -6l2 -10l8 -10l373 -306q10 82 23.5 156t20.5 109.5t7 52.5q0 23 -18.5 29 t-87.5 6h-29l12 73q119 -6 242 -6l266 6l-12 -73h-14q-90 0 -109.5 -7.5t-25.5 -39.5q-2 -12 -25 -144.5t-29 -167.5l453 287l37 25l8 10l4 10q0 18 -31 27l13 73q100 -6 204 -6q84 0 166 6l-10 -73h-2q-29 0 -48.5 -3.5t-37.5 -5.5t-40.5 -13t-42 -20.5t-59.5 -34t-73 -46 t-102.5 -65.5t-130.5 -83l303 -422q37 -49 60.5 -59t96.5 -12l-12 -74q-106 6 -217 6q-127 0 -252 -6l12 74q66 0 66 30q0 12 -38 65.5t-101.5 139.5t-100.5 142q-131 -84 -139 -95q-6 -6 -10 -30q-37 -219 -37 -226q0 -18 19.5 -22t80.5 -4h35l-12 -74q-221 6 -244 6 q-131 0 -262 -6l12 74h10h39.5h30.5t23.5 3t16.5 3t12 6t7.5 8t6.5 12.5t3 14.5t3 19.5t4 23.5l35 203l-105 84h-2q-45 -49 -328 -316q-27 -27 -26 -37q0 -25 57 -24l-12 -74q-123 6 -248 6q-110 0 -221 -6z" />
<glyph unicode="&#x437;" horiz-adv-x="1046" d="M88 213q0 33 12.5 44t41 11t37.5 -15t6 -36.5t9.5 -50.5t47.5 -51q68 -43 219 -43q92 0 156.5 24.5t93 64.5t40 74.5t11.5 71.5q0 160 -227 160h-74q-51 0 -51 29q0 39 61 39h68q86 0 146 20t86 53t36 59.5t10 51.5q0 133 -211 133q-244 0 -325 -168q-18 -37 -56 -37 q-16 0 -24 2t-14.5 10.5t-6.5 26.5q0 10 27 174q0 4 3 17.5t4 18.5t5 14.5t11.5 12.5t17.5 3q18 0 102 -49q104 51 273 51q434 0 434 -207q0 -139 -256 -213q-8 -2 -13 -4q223 -55 224 -207q0 -27 -9.5 -58.5t-35 -75.5t-84 -83t-142.5 -62q-106 -29 -282 -28h-6 q-365 0 -365 223z" />
</font>
</defs>
</svg>
