<?xml version="1.0" standalone="no"?>
<!DOCTYPE svg PUBLIC "-//W3C//DTD SVG 1.1//EN" "http://www.w3.org/Graphics/SVG/1.1/DTD/svg11.dtd" >
<svg xmlns="http://www.w3.org/2000/svg" xmlns:xlink="http://www.w3.org/1999/xlink" version="1.1">
<metadata></metadata>
<defs>
<font id="cmu_brightsemiboldoblique" horiz-adv-x="1075" >
<font-face units-per-em="2048" ascent="1638" descent="-410" />
<missing-glyph horiz-adv-x="681" />
<glyph unicode="&#xfb00;" horiz-adv-x="1253" d="M201 0l172 813h-142l31 154h144q29 137 38 169.5t29 71.5q53 100 161.5 166t244.5 66q80 0 168 -17l-37 -174q-92 35 -166 35q-139 0 -193 -84q-12 -20 -57 -233h227l-33 -154h-223l-172 -813h-192zM797 0l223 1042l8 40t9 42.5t10.5 35t16.5 41t23 38.5q27 39 64 76 t128 81t196 44q80 0 170 -17l-37 -174q-92 35 -166 35q-78 0 -126 -26.5t-69 -57.5q-10 -16 -55 -233h225l-33 -154h-221l-174 -813h-192z" />
<glyph unicode="&#xfb01;" horiz-adv-x="1126" d="M201 0l172 813h-142l31 154h144q8 33 18 86t15 71.5t13.5 45t20.5 49.5q45 90 134 155.5t202 65.5q59 0 125 -17l-37 -176q-61 37 -121 37q-45 0 -78.5 -24.5t-50.5 -59.5q-8 -16 -53 -233h242l-31 -154h-240l-172 -813h-192zM797 0l204 967h195l-207 -967h-192z M1059 1231l41 192h192l-41 -192h-192z" />
<glyph unicode="&#xfb02;" horiz-adv-x="1126" d="M201 0l172 813h-142l31 154h144q8 33 18 86t15 71.5t13.5 45t20.5 49.5q45 90 134 155.5t202 65.5q59 0 125 -17l-37 -174q-70 35 -119 35q-25 0 -45 -6t-34.5 -14.5t-28 -29t-20.5 -34.5t-15 -47t-13.5 -52.5t-13.5 -64.5t-14 -69h242l-31 -154h-240l-172 -813h-192z M797 0l301 1421l2 2h192l-303 -1423h-192z" />
<glyph unicode="&#xfb03;" horiz-adv-x="1724" d="M201 0l172 813h-142l31 154h144q41 193 57 225q4 10 12 25q51 94 148.5 158.5t222.5 64.5q68 0 143 -17l-37 -174q-82 35 -141 35q-117 0 -160 -80q-10 -18 -57 -237h242l-31 -154h-240l-172 -813h-192zM799 0l219 1036q33 141 51 178q45 92 135 159t205 67q45 0 123 -17 l-39 -174q-59 35 -118.5 35t-95.5 -37t-42 -73l-8 -37l-37 -170h242l-33 -154h-238l-172 -813h-192zM1397 0l205 967h194l-207 -967h-192zM1657 1229l41 192h192l-41 -192h-192z" />
<glyph unicode="&#xfb04;" horiz-adv-x="1724" d="M201 0l172 813h-142l31 154h144q41 193 57 225q4 10 12 25q51 94 147.5 158.5t221.5 64.5q70 0 145 -17l-37 -174q-82 35 -141 35q-117 0 -160 -80q-10 -18 -57 -237h242l-31 -154h-240l-172 -813h-192zM799 0l219 1034q33 143 49 176q47 92 136 161t204 69q59 0 125 -17 l-37 -174q-70 35 -119 35q-90 0 -131 -84q-8 -16 -53 -233h242l-33 -154h-238l-172 -813h-192zM1395 0l301 1421l2 2h192l-303 -1423h-192z" />
<glyph horiz-adv-x="0" />
<glyph unicode="&#xd;" horiz-adv-x="681" />
<glyph unicode=" "  horiz-adv-x="681" />
<glyph unicode="&#x09;" horiz-adv-x="681" />
<glyph unicode="&#xa0;" horiz-adv-x="681" />
<glyph unicode="!" horiz-adv-x="665" d="M211 0l51 240h240l-51 -240h-240zM326 424l186 997l2 2h240l-236 -999h-192z" />
<glyph unicode="&#x22;" d="M452 817l107 606h198l-151 -606h-154zM813 817l107 606h198l-151 -606h-154z" />
<glyph unicode="#" horiz-adv-x="1792" d="M186 322q0 63 64 77h373l139 283h-389q-55 0 -73.5 25.5t-18.5 52.5q0 76 94 76h465l256 514q35 72 84 71q29 0 52 -21.5t23 -53.5q0 -18 -18 -60.5t-121 -245.5q-61 -123 -102 -204h286l254 514q35 72 84 71q29 0 53.5 -21.5t24.5 -53.5q0 -16 -13 -46t-89 -182 l-141 -282h260q98 0 98 -76q0 -61 -64 -76q-12 -2 -36 -2h-336l-140 -283h363q6 0 14 1t13 1q55 0 74.5 -26.5t19.5 -53t-17.5 -48t-42.5 -25.5q-8 -2 -47 -2h-454l-258 -518q-29 -55 -60 -64q-10 -4 -22 -4q-33 0 -54.5 22.5t-21.5 53.5q0 23 131 282q68 135 113 228h-287 l-258 -518q-37 -68 -84 -68q-33 0 -54.5 22.5t-21.5 53.5q0 23 131 282q68 135 113 228h-258q-101 0 -101 76zM797 399h286l138 283h-287z" />
<glyph unicode="$" d="M123 125l67 178q125 -125 302 -151l106 495q-266 78 -266 314q0 162 127 302t305 169l22 104h156l-22 -100q104 -14 147 -33t133 -78l-65 -170q-68 57 -118 82t-132 35l-94 -441q10 -2 27.5 -7t63.5 -28.5t79.5 -56t62.5 -95t29 -142.5q0 -172 -126 -323.5t-315 -188.5 l-22 -103h-154l21 101q-201 26 -334 137zM522 1028q0 -113 123 -160l84 398q-94 -31 -150.5 -97.5t-56.5 -140.5zM647 160q102 35 158.5 115.5t56.5 158.5q0 125 -117 176z" />
<glyph unicode="%" horiz-adv-x="1820" d="M344 1010q0 199 127 362.5t281 163.5q102 0 165.5 -83t63.5 -212q0 -201 -127 -365.5t-276 -164.5q-104 0 -169 84t-65 215zM365 -63.5q0 20.5 20 45.5l1276 1521q27 31 51 31q18 0 33.5 -13.5t15.5 -33.5q0 -16 -39 -68l-1259 -1501q-27 -31 -51 -31q-20 0 -33.5 14.5 t-13.5 35zM520 971q0 -57 27.5 -81t60.5 -24q70 0 131.5 119t61.5 242q0 154 -88 153q-72 0 -117 -84q-27 -51 -51.5 -161.5t-24.5 -163.5zM1139 184q0 201 128 364t279 163q102 0 166 -84t64 -213q0 -199 -126 -363t-278 -164q-104 0 -168.5 84t-64.5 213zM1315 145 q0 -55 27.5 -79.5t60.5 -24.5q74 0 133 120t59 240q0 66 -21.5 110t-64.5 44q-35 0 -67.5 -24.5t-50.5 -59.5q-23 -43 -49.5 -155t-26.5 -171z" />
<glyph unicode="&#x26;" horiz-adv-x="1603" d="M147 248q0 178 166 311q18 12 234 154q-12 104 -12 141q0 254 131 428t295 174q106 0 171.5 -73.5t65.5 -186.5q0 -115 -75.5 -213t-266.5 -231q-78 -53 -98 -66q51 -160 219 -391q270 180 483 602l152 -43q-190 -408 -529 -664q104 -61 201 -61q82 0 236 45l-37 -172 q-147 -37 -232 -37q-76 0 -141.5 17.5t-100 39t-61 39t-35.5 17.5q-6 0 -66.5 -29t-162.5 -56.5t-209 -27.5q-160 0 -244 84t-84 199zM350 287q0 -57 38 -107.5t124 -50.5q127 0 289 64q-162 213 -217 378q-4 -2 -46 -28.5t-55.5 -36.5t-47.5 -39t-46 -50.5t-25.5 -57 t-13.5 -72.5zM717 944q0 -45 8 -115q100 63 163.5 120t88 99t32 66.5t9.5 50.5v11q0 63 -26.5 95t-69.5 32q-53 0 -105.5 -43t-75.5 -115q-24 -74 -24 -201z" />
<glyph unicode="'" horiz-adv-x="598" d="M393 817l107 606h198l-151 -606h-154z" />
<glyph unicode="(" horiz-adv-x="835" d="M236 188q0 330 138 680.5t400 579.5q35 31 113 88h155q-205 -160 -349 -413t-204.5 -499.5t-60.5 -480.5q0 -125 18.5 -228t55.5 -179t58.5 -109t57.5 -82h-155q-37 41 -48.5 54.5t-54.5 81t-63.5 127t-40.5 162.5t-20 218z" />
<glyph unicode=")" horiz-adv-x="835" d="M20 -453q418 319 566 975q49 215 49 416q0 125 -18.5 228.5t-55.5 178t-58.5 108.5t-58.5 83h154q96 -111 139 -199q90 -188 90 -442q0 -330 -137 -678t-399 -579q-51 -45 -115 -93h-92z" />
<glyph unicode="*" d="M348 901q0 49 45 78q4 2 291 117q-51 25 -125 59q-98 45 -116.5 58.5t-18.5 41.5q0 39 31.5 70t66.5 31q25 0 84 -56q14 -12 56 -53q49 -45 79 -73q25 291 35 311q27 51 86 51q29 0 47.5 -15.5t18.5 -41.5q0 -14 -99 -305q258 174 279 180q6 2 18 2q29 0 46.5 -20.5 t17.5 -47.5q0 -45 -36 -67.5t-179 -77.5q-74 -29 -121 -47q41 -18 104 -49q115 -53 135.5 -68.5t20.5 -44.5q0 -39 -31.5 -69.5t-66.5 -30.5q-20 0 -46 20t-114 104q-37 37 -59 58q-27 -295 -35 -309q-27 -51 -86 -52q-29 0 -47.5 15.5t-18.5 42.5q0 12 97 303 q-258 -172 -273 -178q-8 -2 -20 -2q-29 0 -47.5 18t-18.5 47z" />
<glyph unicode="+" horiz-adv-x="1314" d="M236 541q0 78 96 77h379q86 406 90 416q20 43 69 43q29 0 52.5 -20.5t23.5 -57.5q0 -12 -78 -381h346q55 0 75 -25.5t20 -51.5q0 -14 -5.5 -29.5t-29 -32t-62.5 -16.5h-378q-86 -403 -93 -416q-25 -43 -67 -43q-29 0 -52.5 21.5t-23.5 56.5q0 12 78 381h-350 q-37 0 -58.5 16.5t-26.5 32t-5 29.5z" />
<glyph unicode="," horiz-adv-x="598" d="M129 -227l121 227h-72l51 240h240l-43 -205l-10 -35l-166 -227h-121z" />
<glyph unicode="-" horiz-adv-x="716" d="M111 408l32 153h572l-31 -153h-573z" />
<glyph unicode="." horiz-adv-x="598" d="M178 0l51 240h240l-51 -240h-240z" />
<glyph unicode="/" d="M39 -379q0 25 31 76l1036 1778q31 61 82 61q29 0 52.5 -22.5t23.5 -55.5q0 -20 -25 -65l-1044 -1792q-14 -23 -27.5 -35t-23 -15.5t-29.5 -5.5q-29 0 -52.5 22.5t-23.5 53.5z" />
<glyph unicode="0" d="M186 367q0 66 12.5 155.5t38 207.5t75.5 228.5t117 206t171.5 153.5t228.5 58q41 0 81 -7t89.5 -32.5t86 -66.5t61 -118t24.5 -179q0 -135 -50 -359.5t-144 -373.5q-172 -274 -447 -275q-43 0 -81.5 7.5t-89 32t-87 66.5t-61.5 118t-25 178zM375 340q0 -68 19.5 -115 t50 -68.5t58 -28.5t58.5 -7q61 0 111.5 22.5t87.5 68.5t63.5 90t48 114.5t32.5 112.5t26 114q57 260 57 367q0 117 -54 165t-136 48q-195 0 -289 -236q-37 -94 -98 -381q-35 -151 -35 -266z" />
<glyph unicode="1" d="M195 0l32 154h269v2l206 974q-125 -43 -288 -43l32 156q121 0 214.5 20.5t136.5 46t78.5 46t58.5 20.5h20l-260 -1222h264l-32 -154h-731z" />
<glyph unicode="2" d="M106 0l35 164l328 254q23 16 89.5 64t92 67.5t79.5 63.5t79 70t61.5 69t53 77.5t30 78.5t13.5 89q0 100 -65.5 158.5t-164.5 58.5q-70 0 -129 -27.5t-100 -77.5t-62.5 -85t-44.5 -84l-84 139q33 55 65 94t90 92.5t141 82t186 28.5q174 0 275.5 -94t101.5 -250 q0 -70 -21.5 -131t-48.5 -104t-87.5 -98.5t-100 -85t-126.5 -92t-133 -95.5l-340 -254h685l-37 -172h-861z" />
<glyph unicode="3" d="M119 145l61 156l8 -10t16.5 -19.5t24 -25t33 -27.5t40 -27.5t49 -26.5t56 -21.5t66.5 -15.5t76 -5q84 0 148.5 36t98 91t49 108.5t15.5 102.5q0 61 -22.5 102t-60.5 57.5t-67.5 22.5t-60.5 6q-6 0 -13 -1t-9 -1h-131l32 156q154 12 170 16q117 27 184.5 112t67.5 167 q0 49 -34.5 87t-127.5 38q-147 0 -274 -103q-41 -37 -78 -78l-67 136q205 199 448 198q145 0 241.5 -73.5t96.5 -190.5q0 -68 -31.5 -134.5t-69.5 -108.5t-89.5 -79.5t-72 -50t-32.5 -18.5q102 -39 156.5 -112.5t54.5 -159.5q0 -174 -166 -329t-389 -155q-37 0 -71.5 4 t-63.5 11.5t-56.5 17.5t-48 20.5t-42 24.5t-35 24.5t-29.5 24.5t-22.5 21.5t-16.5 18.5t-12 13z" />
<glyph unicode="4" d="M127 319l35 164l710 877h228l-185 -877h201l-35 -164h-200l-68 -319h-195l68 319h-559zM356 483h375l150 711q-39 -88 -142.5 -227.5t-382.5 -483.5z" />
<glyph unicode="5" d="M106 168l119 141q88 -184 291 -184q74 0 132.5 24.5t91 55.5t57 82t33 78.5t16.5 70.5q14 63 14 115q0 86 -45 122t-108 36q-152 0 -256 -152h-172l165 784h736l-35 -161h-545l-82 -383q113 68 221 67q145 0 235.5 -98t90.5 -250q0 -223 -178 -387t-406 -164 q-35 0 -72.5 6t-95 23.5t-113 62.5t-94.5 111z" />
<glyph unicode="6" d="M195 385q0 266 107.5 496.5t281.5 362.5t368 132q113 0 213 -39l-35 -157q-109 43 -206 43q-150 0 -273 -100.5t-186 -317.5l-16 -66q184 211 411 211q125 0 184 -110q55 -102 56 -219q0 -172 -72 -318q-59 -117 -192.5 -227.5t-303.5 -110.5q-57 0 -110 17.5 t-107.5 60.5t-87 131t-32.5 211zM379 322q0 -197 190 -197q39 0 73 8t59.5 17.5t48 32l38 38t31 49t22.5 50t17 58.5t13 56.5t12.5 59.5t11.5 55q8 57 8 86q0 25 -4 44t-10 34.5t-16.5 27t-19.5 19.5t-24.5 14t-23.5 10t-25.5 6.5t-23.5 3.5t-21.5 2t-17.5 1 q-86 -8 -151.5 -51.5t-99.5 -97.5t-55.5 -122.5t-26.5 -114.5t-5 -89z" />
<glyph unicode="7" d="M309 -16q82 373 293 675t496 512h-760l35 170h895q-4 -25 -10.5 -56.5t-9.5 -42.5t-6 -27.5t-8 -22.5t-10 -16.5t-16.5 -18.5t-21.5 -19.5t-31.5 -32t-42.5 -40.5q-127 -129 -228.5 -268.5t-160.5 -247t-106.5 -231t-64.5 -186t-38 -148.5h-205z" />
<glyph unicode="8" d="M162 305q0 133 89 243.5t271 176.5q-94 35 -144 99.5t-50 138.5q0 152 151.5 282.5t349.5 130.5q150 0 248.5 -83t98.5 -214q0 -244 -318 -354q104 -37 158.5 -112.5t54.5 -163.5q0 -176 -164 -330t-379 -154q-160 0 -263 94t-103 246zM360 291q0 -168 201 -168 q57 0 103.5 12t78 38t52 46.5t35 58t19.5 51t13 46.5q14 76 15 102q0 170 -201 170q-80 0 -139.5 -29.5t-92 -70.5t-53 -93.5t-26 -91t-5.5 -71.5zM510 948q0 -145 192 -145q90 0 153 29.5t90.5 77.5t37.5 88t10 81q0 143 -194 144q-213 0 -269 -166q-20 -78 -20 -109z" />
<glyph unicode="9" d="M168 59v2l111 138q82 -74 190 -74q145 0 266 115.5t174 363.5q-174 -203 -415 -213q-35 4 -49.5 7t-44 15.5t-53 41t-46.5 73.5q-45 98 -45 195q0 301 209 491q174 162 373 162q145 0 229 -97t94 -273l2 -54q-2 -264 -106.5 -493.5t-271.5 -361.5t-349 -132 q-153 0 -268 94zM453 707q0 -27 4 -48.5t14 -37t19.5 -27.5t24.5 -19.5t25.5 -12.5t29 -8t26.5 -4t25.5 -2t19.5 -1q170 12 255 156.5t85 332.5q0 100 -52 143.5t-128 43.5q-211 0 -285 -203q-18 -51 -53 -221z" />
<glyph unicode=":" horiz-adv-x="598" d="M178 0l51 240h240l-51 -240h-240zM332 727l51 240h240l-51 -240h-240z" />
<glyph unicode=";" horiz-adv-x="598" d="M129 -227l121 227h-72l51 240h240l-43 -205l-10 -35l-166 -227h-121zM332 727l51 240h240l-51 -240h-240z" />
<glyph unicode="&#x3c;" horiz-adv-x="1314" d="M295 539q0 25 11 42t21.5 24t34.5 22l871 522q33 20 55 20q35 0 56.5 -23.5t21.5 -53.5q0 -14 -4 -25.5t-12.5 -21t-13.5 -13.5t-17 -12l-10 -6l-803 -482q6 -6 100 -81l459 -371q2 -2 11 -9.5t14.5 -11.5t14.5 -13t13 -16t8 -18.5t4 -21.5q0 -31 -21.5 -54.5 t-53.5 -23.5q-27 0 -62 27l-647 522q-2 2 -9 7t-9 8t-8.5 8t-8.5 8.5t-6 9.5t-6 11t-3 11.5t-1 14.5z" />
<glyph unicode="=" horiz-adv-x="1314" d="M193 342q0 63 63 76q16 2 47 2h866q96 0 96.5 -78t-98.5 -78h-882q-37 0 -59.5 16.5t-27.5 31t-5 30.5zM276 739q0 80 115 78h6h848q104 0 105 -78q0 -14 -5.5 -29.5t-28 -30.5t-61.5 -15h-890q-37 0 -58.5 16t-26 30.5t-4.5 28.5z" />
<glyph unicode="&#x3e;" horiz-adv-x="1314" d="M176 -10q0 45 57 78l803 481q-51 45 -102 84l-457 368l-14 11q-14 10 -18.5 15t-14.5 16.5t-14 22.5t-4 26q0 31 21.5 54t53.5 23q27 0 62 -26l647 -522q27 -20 38 -38t12 -24t1 -27l-2 -6q0 -6 -1 -7t-2 -6t-3 -8t-5 -7t-8 -8.5t-11.5 -9.5t-14.5 -11t-18 -12l-873 -525 q-33 -20 -55 -20q-35 0 -56.5 23.5t-21.5 54.5z" />
<glyph unicode="?" horiz-adv-x="1015" d="M356 0l52 240h239l-51 -240h-240zM401 1337q199 102 387 103q158 0 255.5 -58.5t97.5 -187.5q0 -145 -117 -258q-10 -8 -60.5 -45t-92.5 -73t-93 -101.5t-78 -138.5q-4 -10 -36 -154h-193q20 96 30.5 138t58.5 136.5t124 173.5q49 53 125 106.5t105.5 93.5t29.5 116 q0 55 -41 75.5t-139 20.5q-172 0 -336 -108z" />
<glyph unicode="@" horiz-adv-x="1433" d="M254 557q0 225 128 431t333 329t422 123q76 0 137 -18.5t116.5 -61.5t86 -125t30.5 -197q0 -78 -18.5 -193.5t-36.5 -178.5q-55 -182 -196.5 -302t-294.5 -120q-141 0 -229.5 100t-88.5 254q0 223 161 401.5t355 178.5q78 0 139 -31q-49 137 -196 137q-240 0 -449 -214 t-209 -488q0 -195 118 -320t308 -125q123 0 316 51q10 2 61 2h107q-94 -86 -235.5 -146t-289.5 -60q-246 0 -410.5 159.5t-164.5 413.5zM831 621q0 -98 44.5 -160t117.5 -62q104 0 198.5 119t94.5 287v41q-6 80 -52 129t-110 49q-113 0 -203 -130t-90 -273z" />
<glyph unicode="A" horiz-adv-x="1382" d="M59 0l822 1440h231l209 -1440h-223l-49 348h-596l-197 -348h-197zM547 510h477q-86 616 -86 700v15l-127 -244z" />
<glyph unicode="B" horiz-adv-x="1406" d="M168 0l301 1421l2 2h494q135 0 236.5 -30.5t153.5 -79.5t76.5 -100.5t24.5 -102.5q0 -115 -106.5 -215t-309.5 -150q102 -18 173 -58t104 -86t45 -83t12 -72q0 -147 -154.5 -281t-381.5 -159q-63 -6 -131 -6h-539zM408 164h237q10 0 28.5 -1t26.5 -1q203 0 337 77.5 t134 190.5q0 92 -89 155.5t-224 73.5q-61 4 -94 5h-248zM547 817h244q213 0 338.5 85t125.5 177q0 80 -106.5 130.5t-274.5 50.5h-233z" />
<glyph unicode="C" horiz-adv-x="1374" d="M264 547q0 223 121 434t329 343t441 132q190 0 379 -70l-82 -212l-18 14q-20 16 -30.5 23.5t-35.5 22.5t-48.5 23.5t-54 18.5t-68.5 14t-79 4q-248 0 -442.5 -225t-194.5 -502q0 -184 103.5 -311t287.5 -127q102 0 180 18.5t114 36t139 74.5l-23 -178 q-135 -70 -223 -92.5t-221 -22.5q-262 0 -418 166t-156 416z" />
<glyph unicode="D" horiz-adv-x="1527" d="M166 0l301 1421l2 2h549q158 0 272.5 -55t173 -144t84 -178.5t25.5 -181.5q0 -309 -220 -564t-522 -294q-43 -6 -131 -6h-534zM410 164h282q246 0 402 115q139 102 204.5 269t65.5 324q0 59 -11.5 111.5t-41 105t-75.5 89t-121 59.5t-173 23h-299z" />
<glyph unicode="E" horiz-adv-x="1280" d="M164 0l301 1417h995l-35 -162h-780l-92 -436h719l-33 -164h-723l-102 -483h811l-37 -172h-1024z" />
<glyph unicode="F" horiz-adv-x="1220" d="M164 0l301 1417h965l-35 -162h-750l-98 -464h659l-35 -164h-659l-133 -627h-215z" />
<glyph unicode="G" horiz-adv-x="1433" d="M264 547q0 168 72 332.5t191.5 291.5t285.5 206t342 79q125 0 214 -22.5t190 -75.5l-82 -213q-84 80 -138 104q-92 45 -223 45q-248 0 -441.5 -226t-193.5 -501q0 -193 106.5 -315.5t278.5 -122.5q98 0 260 35l72 346h-256l35 162h455l-129 -606q-242 -100 -469 -101 q-252 0 -411 165t-159 417z" />
<glyph unicode="H" horiz-adv-x="1449" d="M164 0l301 1421l2 2h213l-127 -602h690l127 602h215l-303 -1423h-215l141 657h-690l-139 -657h-215z" />
<glyph unicode="I" horiz-adv-x="546" d="M164 0l301 1421l2 2h213l-301 -1423h-215z" />
<glyph unicode="J" horiz-adv-x="989" d="M100 51l76 195q49 -68 98 -92q57 -31 134 -31q246 0 286 199l234 1099l2 2h209l-226 -1054q-25 -111 -43 -156q-113 -248 -421 -248q-187 0 -349 86z" />
<glyph unicode="K" horiz-adv-x="1441" d="M170 0l301 1421l2 2h203l-152 -718l854 718h246l-672 -565l400 -858h-232l-334 719l-317 -266l-94 -453h-205z" />
<glyph unicode="L" horiz-adv-x="1161" d="M164 0l301 1421l2 2h213l-268 -1259h692l-35 -164h-905z" />
<glyph unicode="M" horiz-adv-x="1808" d="M176 0l301 1421l2 2h283l127 -745q59 -373 65 -447l33 72l189 326l473 794h284l-303 -1423h-192l248 1161l12 64l-37 -72l-188 -328l-474 -790h-182l-131 768l-31 198l-22 166l-6 58l-258 -1225h-193z" />
<glyph unicode="N" horiz-adv-x="1449" d="M170 0l301 1421l2 2h299l356 -1230l261 1228v2h192l-303 -1423h-299l-356 1229l-261 -1229h-192z" />
<glyph unicode="O" horiz-adv-x="1603" d="M250 541q0 231 124 444t323.5 342t412.5 129q240 0 390.5 -164t150.5 -415q0 -231 -124 -444.5t-322.5 -340.5t-411.5 -127q-236 0 -389.5 161t-153.5 415zM467 551q0 -215 107.5 -319.5t252.5 -104.5q133 0 251 72.5t197 186.5t124 249t45 262q0 188 -103.5 294.5 t-265.5 106.5q-240 0 -424 -214t-184 -533z" />
<glyph unicode="P" horiz-adv-x="1347" d="M166 0l301 1421l2 2h524q109 0 192 -25.5t130 -64.5t77.5 -89t41 -94t10.5 -87q0 -195 -180.5 -352.5t-442.5 -157.5h-323l-117 -553h-215zM526 711h273q150 0 257 43t158 168q27 80 27 131q0 113 -92 166q-76 41 -238 41h-268z" />
<glyph unicode="Q" horiz-adv-x="1603" d="M250 541q0 172 73.5 341t192.5 293.5t276.5 202.5t317.5 78q240 0 390.5 -164t150.5 -411q0 -238 -128 -454t-335 -343l186 -311h-252l-125 225q-131 -33 -204 -33q-242 0 -392.5 163t-150.5 413zM459 537q0 -193 102.5 -302.5t265.5 -109.5q39 0 93 8l-148 266h225 l111 -184q31 16 67.5 50t90 94.5t98.5 159.5t66 216q12 74 12 148q0 193 -101.5 303t-265.5 110q-168 0 -311 -110.5t-224 -284.5t-81 -364z" />
<glyph unicode="R" horiz-adv-x="1374" d="M166 0l301 1421l2 2h508q137 0 240.5 -32.5t156.5 -86t78 -108.5t25 -111q0 -145 -132.5 -265t-308.5 -161l277 -659h-215l-256 635h-332v-2l-135 -633h-209zM543 788h268q147 0 241.5 28t125 56.5t65.5 81.5q31 57 31 117q0 150 -195 180q-49 8 -147 9h-289z" />
<glyph unicode="S" horiz-adv-x="1193" d="M119 109l82 210q47 -47 84 -76.5t131 -66.5t202 -37q150 0 248.5 90t98.5 193q0 127 -129 178q-33 14 -141.5 39t-141.5 39q-90 37 -154.5 112.5t-64.5 186.5q0 184 171 331.5t408 147.5q205 0 379 -98l-82 -213q-49 47 -72.5 67.5t-96 48t-164.5 27.5q-145 0 -242.5 -79 t-97.5 -169q0 -66 47 -108.5t103 -58t140 -36t121 -34.5q82 -33 150.5 -113t68.5 -209q0 -197 -174 -356.5t-409 -159.5q-260 1 -465 144z" />
<glyph unicode="T" horiz-adv-x="1484" d="M342 1251l35 162h1329l-35 -162h-557l-2 -2l-264 -1249h-215l266 1251h-557z" />
<glyph unicode="U" horiz-adv-x="1417" d="M256 377q0 37 25 160l186 884l2 2h213l-203 -952q-12 -70 -12 -111q0 -115 71.5 -173t204.5 -58q96 0 171 32t116 70.5t72 102t41 99.5t20 89l191 899l2 2h196l-190 -893l-6 -26q-4 -27 -8.5 -42.5t-16.5 -50t-24.5 -61t-34 -64.5t-48 -69t-64.5 -65.5t-81 -65.5 q-180 -121 -377 -121q-190 0 -318 115t-128 297z" />
<glyph unicode="V" horiz-adv-x="1382" d="M332 1423h225l125 -774q55 -377 61 -452l37 73l215 377l457 776h201l-846 -1433h-238z" />
<glyph unicode="W" horiz-adv-x="1980" d="M332 1423h207l51 -704l14 -275l4 -178l-2 -67q27 98 199 442l387 782h213l55 -788l13 -211l4 -176l-2 -51q37 123 589 1226h187l-717 -1433h-221l-56 807l-12 217l-4 106v37l2 68q-14 -55 -207 -457l-385 -778h-211z" />
<glyph unicode="X" horiz-adv-x="1382" d="M29 0l696 754l-365 669h256l254 -497l453 497h240l-621 -669l408 -754h-254l-295 598l-531 -598h-241z" />
<glyph unicode="Y" horiz-adv-x="1382" d="M307 1423h254l303 -657l584 657h229l-729 -819q-33 -35 -39 -65l-114 -539h-211l116 541q2 10 2 22q0 16 -12 41z" />
<glyph unicode="Z" horiz-adv-x="1314" d="M119 0q20 94 24 105.5t35 44.5l1004 1114h-764l33 159h1046l-22 -106l-1039 -1153h805l-35 -164h-1087z" />
<glyph unicode="[" horiz-adv-x="634" d="M102 -455l422 1991h387l-30 -154h-195l-358 -1683h194l-33 -154h-387z" />
<glyph unicode="\" d="M428 1456q0 33 23.5 56.5t54.5 23.5q18 0 32.5 -7t22.5 -16.5t14.5 -24.5t8.5 -23.5t4 -22.5l2 -17l278 -1761q4 -29 4 -41q0 -29 -21.5 -53.5t-53.5 -24.5q-16 0 -28.5 4.5t-21 13.5t-14.5 17t-10 20.5t-5 19.5t-3 20l-2 12z" />
<glyph unicode="]" horiz-adv-x="634" d="M-49 -455l33 154h192l359 1683h-193l33 154h385l-422 -1991h-387z" />
<glyph unicode="^" horiz-adv-x="1314" d="M496 967l352 303h158l223 -303h-156l-168 207l-256 -207h-153z" />
<glyph unicode="_" horiz-adv-x="1673" d="M74 -498q10 49 65 49h1182q63 0 63 -51q0 -49 -67 -49h-1180q-59 0 -63 51z" />
<glyph unicode="`" d="M498 1366h196l213 -264h-155z" />
<glyph unicode="a" horiz-adv-x="1007" d="M131 207q0 127 89 199.5t255 113.5q139 35 322 39q25 125 24 152q0 53 -33.5 95t-103.5 42q-78 0 -148.5 -20.5t-101.5 -37t-98 -55.5q18 160 24 170q4 4 19 10q166 78 338 78q147 0 226 -81t79 -185q0 -31 -12 -92l-136 -635h-192l27 131q-160 -147 -377 -147 q-106 0 -153.5 69.5t-47.5 153.5zM326 246q4 -43 43 -76t110 -33q82 0 157 40t99 110q6 16 41 176q-207 -8 -322.5 -61.5t-125.5 -131.5z" />
<glyph unicode="b" horiz-adv-x="1058" d="M133 0l301 1421l2 2h193l-121 -567q174 127 364 127q84 0 139.5 -57.5t75 -129t19.5 -151.5q0 -260 -160 -460.5t-358 -200.5q-147 0 -236 122l-22 -106h-197zM379 233q16 -31 30.5 -47t46 -32.5t74.5 -16.5q285 0 359 340q20 88 20 150q0 111 -62.5 156.5t-146.5 45.5 q-70 0 -133 -30.5t-78 -59.5q-6 -14 -110 -506z" />
<glyph unicode="c" horiz-adv-x="956" d="M162 373q0 231 178 425.5t422 194.5q109 0 170 -19.5t143 -68.5l-63 -168q-55 39 -81 54.5t-79 29t-129 13.5q-82 0 -148.5 -36t-105.5 -89.5t-65.5 -119t-36 -119.5t-9.5 -97q0 -106 56.5 -168t160.5 -62q78 0 151 19.5t112 39t98 54.5l-23 -170q-193 -102 -372 -102 q-174 0 -276.5 110.5t-102.5 278.5z" />
<glyph unicode="d" horiz-adv-x="1058" d="M158 338q0 154 66.5 303.5t179 245.5t235.5 96q162 0 276 -119l117 559h193l-301 -1423h-199l27 123q-156 -139 -326 -139q-119 0 -193.5 99t-74.5 255zM352 342q0 -111 62.5 -158t146.5 -47q57 0 109.5 26.5t77 51.5t28.5 37l109 502q-60 75 -152 75h-2 q-164 0 -262 -114q-61 -74 -89 -189.5t-28 -183.5z" />
<glyph unicode="e" horiz-adv-x="964" d="M152 377q0 231 176 422.5t397 191.5q78 0 142.5 -23.5t114.5 -98t50 -193.5q0 -41 -20 -164h-658q-2 -2 -5 -20.5t-7 -45t-4 -45.5q0 -113 64.5 -188.5t175.5 -75.5q162 0 352 117l-21 -166q-188 -104 -364 -104q-180 0 -286.5 112.5t-106.5 280.5zM401 633h467 q-2 117 -55 161t-123 44q-84 0 -161 -56.5t-128 -148.5z" />
<glyph unicode="f" horiz-adv-x="657" d="M201 0l172 813h-142l31 154h144q29 137 38 169.5t29 71.5q53 100 161.5 166t244.5 66q80 0 168 -17l-37 -174q-92 35 -166 35q-139 0 -193 -84q-12 -20 -57 -233h227l-33 -154h-223l-172 -813h-192z" />
<glyph unicode="g" horiz-adv-x="1058" d="M88 -285l35 168q92 -55 168 -80.5t184 -25.5q96 0 157.5 60.5t84.5 131.5q2 4 57 264q-137 -182 -321 -182q-129 0 -209 93.5t-80 234.5q0 135 69.5 275.5t190.5 234.5t250 94q49 0 91 -14.5t66.5 -36t43 -43t26.5 -35.5l8 -14l31 143h193l-195 -917q-29 -123 -57 -179 q-18 -35 -49 -72.5t-83.5 -84.5t-132 -77t-170.5 -30q-188 0 -358 92zM365 424q0 -96 61 -157.5t149 -61.5q86 0 157 75.5t104 231.5q39 160 38 176q0 41 -33.5 91t-107.5 50q-135 0 -251.5 -130t-116.5 -275z" />
<glyph unicode="h" horiz-adv-x="1058" d="M131 0l301 1421l2 2h193l-131 -618q152 178 344 178q239 0 239 -203q0 -45 -16 -131l-139 -649h-197l135 639q10 57 10 72q0 118 -167 118h-3q-20 0 -40.5 -4t-55.5 -20.5t-62.5 -46t-56 -88t-45.5 -135.5l-114 -535h-197z" />
<glyph unicode="i" horiz-adv-x="460" d="M133 0l205 967h194l-206 -967h-193zM393 1229l41 192h192l-40 -192h-193z" />
<glyph unicode="j" horiz-adv-x="520" d="M-219 -299l74 156q74 -53 149 -54q119 0 156 60q4 6 14 43l225 1061h193l-225 -1059q-27 -109 -93 -170q-98 -96 -241 -96q-137 0 -252 59zM457 1231l41 192h192l-41 -192h-192z" />
<glyph unicode="k" horiz-adv-x="997" d="M137 0l301 1421l2 2h183l-179 -841l441 385h231l-418 -365l263 -602h-209l-205 469q-35 -31 -82 -72q-59 -51 -70.5 -63t-15.5 -37q-2 -6 -2 -10l-62 -287h-178z" />
<glyph unicode="l" horiz-adv-x="460" d="M133 0l301 1421l2 2h193l-303 -1423h-193z" />
<glyph unicode="m" horiz-adv-x="1654" d="M131 0l205 967h190l-37 -168q162 184 353 184q78 0 130 -20.5t72.5 -55.5t27.5 -58.5t9 -51.5v-6q161 192 353 192h2q241 0 241 -203q0 -47 -16 -129l-139 -651h-197l135 637q10 55 10 74q0 118 -169 118h-3q-20 0 -40.5 -4t-55.5 -20.5t-62.5 -46t-56 -88t-45.5 -135.5 l-112 -535h-199l137 639q8 45 8 72q0 118 -167 118h-3q-20 0 -40.5 -4t-55.5 -20.5t-62.5 -46t-56 -88t-45.5 -135.5l-114 -535h-197z" />
<glyph unicode="n" horiz-adv-x="1058" d="M131 0l205 967h190l-37 -168q158 184 351 184q239 0 239 -203q0 -45 -16 -131l-139 -649h-197l135 639q10 57 10 72q0 118 -167 118h-3q-20 0 -40.5 -4t-55.5 -20.5t-62.5 -46t-56 -88t-45.5 -135.5l-114 -535h-197z" />
<glyph unicode="o" d="M150 373q0 236 184 428t414 192q168 0 274 -113.5t106 -285.5q0 -244 -185 -427t-411 -183q-170 0 -276 110.5t-106 278.5zM346 365q0 -121 64.5 -171.5t156.5 -50.5q109 0 189 57.5t115.5 143.5t51 156.5t15.5 126.5q0 115 -65.5 163t-157.5 48q-90 0 -161 -39 t-108.5 -94.5t-61.5 -126t-31 -121.5t-7 -92z" />
<glyph unicode="p" horiz-adv-x="1058" d="M61 -342l279 1309h192l-24 -113q180 129 373 129h2q39 0 73.5 -13.5t70.5 -47t57.5 -106.5t21.5 -175q0 -258 -159 -457.5t-353 -199.5q-150 0 -240 122l-96 -448h-197zM381 233q51 -96 147 -96q137 0 255 132t118 304q0 111 -57.5 181.5t-151.5 70.5q-57 0 -111.5 -25.5 t-80.5 -51.5q-10 -10 -15.5 -34t-50.5 -233q-30 -146 -53 -248z" />
<glyph unicode="q" horiz-adv-x="1058" d="M158 340q0 248 159.5 445.5t354.5 197.5q156 0 235 -145l33 145h193l-283 -1325h-197l99 465q-158 -139 -318 -139q-125 0 -200.5 98t-75.5 258zM360 393q0 -111 57.5 -183.5t149.5 -72.5q90 0 172 74q6 6 17 16q23 20 33 53t38 173q23 117 41 198q4 25 4 35 q0 41 -33.5 90t-107.5 49q-131 0 -251 -128t-120 -304z" />
<glyph unicode="r" horiz-adv-x="708" d="M133 0l205 967h184l-43 -209q176 219 408 225l-37 -174q-158 -2 -268.5 -85t-141.5 -189l-114 -535h-193z" />
<glyph unicode="s" horiz-adv-x="823" d="M76 80l69 176q133 -113 308 -113q102 0 152 45t50 100.5t-61 88.5q-23 12 -104.5 26.5t-149.5 47t-102 102.5q-23 43 -23 96q0 49 20.5 103.5t64.5 111t132 93t205 36.5q154 0 301 -69l-64 -168q-137 84 -292 84q-90 0 -133 -40t-43 -93q0 -18 2 -27q4 -10 8 -17.5 t11 -14.5l11 -11t14.5 -8t16.5 -6t22.5 -6.5t25.5 -6.5t33.5 -7t39.5 -9q252 -51 252 -248q0 -49 -19.5 -105.5t-63.5 -117t-132 -100t-207 -39.5q-188 0 -344 96z" />
<glyph unicode="t" horiz-adv-x="776" d="M213 813l33 154h168l59 276h184l-59 -276h287l-33 -154h-287q-25 -115 -48 -225.5t-32.5 -156.5t-18.5 -90t-11 -61.5t-2 -33.5q0 -102 77 -103q90 0 191 72l8 -149q-188 -82 -348 -82q-131 0 -131 178q0 25 6 67.5t19.5 109.5t27.5 130t35.5 165.5t38.5 178.5h-164z" />
<glyph unicode="u" horiz-adv-x="1058" d="M172 145q0 47 14 113l152 709h197l-146 -686q-16 -88 -16 -95q0 -35 29.5 -46t109.5 -11q74 0 132 25.5t88 62.5t48.5 74t22.5 61l6 27l125 588h196l-204 -967h-193l33 154q-182 -170 -422 -170h-2q-170 0 -170 161z" />
<glyph unicode="v" horiz-adv-x="937" d="M236 967h192l68 -559l14 -152l4 -59q14 47 137 272l273 498h190l-534 -973h-224z" />
<glyph unicode="w" horiz-adv-x="1417" d="M236 967h190l29 -428l8 -170v-125l-2 -47q27 98 360 770h174q43 -502 43 -723v-47q29 88 367 770h186l-483 -973h-219l-27 395l-8 225v43l2 66l4 45q-12 -57 -81.5 -205.5t-276.5 -568.5h-197z" />
<glyph unicode="x" horiz-adv-x="937" d="M0 0l485 500l-268 467h213l170 -322l297 322h209l-453 -465l285 -502h-211l-182 383h-2l-334 -383h-209z" />
<glyph unicode="y" horiz-adv-x="937" d="M-6 -344l20 170q98 -31 166 -31q25 0 47.5 5t42 19.5t32.5 24t30.5 36t23.5 36.5t25.5 43t24.5 41l-168 967h196l74 -457l16 -141l6 -113l-2 -57q29 111 398 768h188l-584 -1035q-163 -290 -383 -290h-2q-45 0 -151 14z" />
<glyph unicode="z" horiz-adv-x="921" d="M59 0l21 102l706 715h-522l31 150h770q-20 -94 -29 -105q-2 -4 -22 -24l-674 -684h559l-33 -154h-807z" />
<glyph unicode="{" d="M199 463l32 155q127 0 235.5 53.5t143.5 153.5q8 25 55.5 251.5t55.5 250.5q31 96 146.5 152.5t295.5 56.5h135l-32 -154h-41q-133 0 -203 -13t-88.5 -32.5t-26.5 -56.5q-98 -461 -116 -502q-98 -207 -400 -237q127 -4 213 -73t86 -179q0 -27 -96 -484q-10 -43 0 -57 q10 -16 33.5 -26.5t66.5 -14.5t66.5 -6t82 -2h64.5l-33 -154h-116q-150 0 -228 27q-145 49 -145 164q0 27 53.5 267.5t53.5 268.5q0 88 -84 139.5t-209 51.5z" />
<glyph unicode="|" horiz-adv-x="598" d="M162 -401l6 36l391 1842q0 4 3 16t17.5 26.5t34.5 14.5q18 0 33 -13.5t15 -35.5q0 -18 -9 -55l-383 -1805q-18 -80 -59 -80q-20 0 -34.5 15.5t-14.5 38.5z" />
<glyph unicode="}" d="M4 -455l33 154h39q133 0 202.5 13.5t89 31.5t27.5 55q98 463 117 504q100 211 399 238q-127 4 -213 73.5t-86 178.5q0 31 97 481q10 45 0 59q-10 16 -34 26.5t-67 14.5t-66.5 6t-82 2h-64.5l33 154h117q147 0 225 -27q147 -49 148 -163q0 -25 -53.5 -266.5t-53.5 -270.5 q0 -72 64.5 -127t228.5 -66l-35 -153q-129 0 -237.5 -53.5t-141.5 -153.5l-96 -451q0 -2 -4 -18t-6 -24.5t-10.5 -28t-17.5 -32.5t-25.5 -32.5t-36 -34t-48 -29t-63.5 -26.5q-98 -35 -264 -35h-115z" />
<glyph unicode="~" horiz-adv-x="1314" d="M424 1155q25 117 124 191.5t210 74.5q72 0 193.5 -56t178.5 -56q55 0 93.5 28.5t48.5 57.5l10 28h156q-33 -125 -131.5 -196.5t-204.5 -71.5q-78 0 -193.5 56.5t-179.5 56.5q-45 0 -89 -27t-62 -86h-154z" />
<glyph unicode="&#xa1;" horiz-adv-x="665" d="M139 -342l236 999h192l-188 -999h-240zM391 840l51 239h240l-51 -239h-240z" />
<glyph unicode="&#xa2;" d="M164 385q0 209 165 388t400 214l33 158l2 2h154l-33 -156q88 -2 151.5 -20.5t159.5 -65.5l-66 -168q-4 2 -22 13.5t-23.5 13.5t-21.5 11t-23.5 12.5t-24 10.5t-27.5 10t-28.5 8t-33 7t-36 4t-40.5 4l-143 -686q72 6 139 25.5t99 34t110 51.5l-21 -170q-193 -86 -362 -100 l-33 -156h-156l33 160q-152 25 -252 128t-100 267zM362 393q0 -100 51.5 -161.5t139.5 -79.5l143 673q-117 -23 -196.5 -103.5t-108.5 -164.5t-29 -164z" />
<glyph unicode="&#xa3;" horiz-adv-x="1601" d="M141 96q0 84 91.5 136.5t224.5 52.5q33 0 94 -9q18 66 46 194t36 165h-141l32 153h142q63 309 82 359q61 162 194 265.5t275 103.5q131 0 203.5 -93.5t72.5 -236.5q0 -117 -31.5 -159t-91.5 -50q-70 10 -70 74v16h-16q14 76 14 131q0 162 -116 162q-102 0 -172 -80 q-10 -12 -19.5 -25.5t-16.5 -25.5t-14.5 -31.5t-12.5 -34t-12 -43t-12 -47t-13.5 -57.5t-13.5 -63.5t-15.5 -77t-18.5 -87.5h201l-33 -153h-201v-2q-66 -313 -79 -348q-6 -14 -29 -54q18 -6 60 -21t62.5 -22.5t56.5 -19.5t60.5 -17.5t57.5 -9.5t61 -4q39 0 58.5 30t38.5 118 h198q-33 -135 -151.5 -218t-257.5 -83q-74 0 -160 23.5t-145.5 47t-69.5 23.5q-8 0 -47 -23.5t-104.5 -47t-139.5 -23.5q-72 0 -115 30.5t-43 81.5z" />
<glyph unicode="&#xa5;" horiz-adv-x="1382" d="M20 434q0 61 60 76q8 2 49 2h565q4 20 8 57q-16 47 -53 124t-47 100h-387q-27 0 -39 2q-61 12 -61 75q0 78 94 78h319l-221 475h254l221 -475h244l422 475h229l-424 -475h285q98 0 98 -77.5t-102 -77.5h-418q-190 -213 -196 -226q-2 -2 -17 -55h541q31 0 47 -4 q53 -18 53 -74q0 -57 -57 -74q-8 -2 -49 -2h-568l-75 -358h-211l78 358h-545q-97 0 -97 76zM854 793l10 -27l25 27h-35z" />
<glyph unicode="&#xa7;" horiz-adv-x="972" d="M49 -215l68 176l14 -18q12 -16 17.5 -21.5t20.5 -23t26.5 -25.5t31 -22.5t40 -21.5t46 -15.5t55 -12.5t62.5 -4q92 0 145.5 76t53.5 141q0 33 -12.5 58.5t-35 44t-41 30t-43 22.5t-28.5 13q-211 113 -211 303q0 98 57.5 192.5t145.5 147.5q-86 96 -86 207q0 150 126 279 t296 129q100 0 166.5 -28t134.5 -87l-66 -170q-61 70 -108 96q-66 33 -156 33t-143.5 -74.5t-53.5 -142.5q0 -80 80 -129q2 -2 45 -22.5t78 -44t77 -61.5t66.5 -93t24.5 -121q0 -98 -57.5 -191.5t-145.5 -148.5q86 -102 86 -207q0 -150 -126 -278.5t-296 -128.5 q-98 0 -177 28.5t-108.5 52t-68.5 62.5zM455 520q0 -18 5 -36.5t11 -31t20.5 -26.5t22.5 -21.5t25.5 -17.5t23.5 -13t24.5 -12.5t20.5 -9.5q59 31 97 88.5t38 116.5q0 27 -9 50.5t-18 37.5t-30.5 30.5t-31 21.5t-35 17.5t-27.5 12.5q-76 -37 -106.5 -99.5t-30.5 -107.5z" />
<glyph unicode="&#xa8;" d="M481 1174l41 192h192l-40 -192h-193zM899 1174l41 192h192l-40 -192h-193z" />
<glyph unicode="&#xa9;" horiz-adv-x="2234" d="M211 330q0 238 104.5 466t274.5 398t395 273.5t455 103.5q360 0 585.5 -234.5t225.5 -586.5q0 -233 -104.5 -462t-272.5 -399t-394.5 -274t-457.5 -104q-360 0 -585.5 233.5t-225.5 585.5zM311 330q0 -313 197 -516t512 -203q283 0 546 161.5t423.5 427t160.5 552.5 q0 311 -196.5 514.5t-511.5 203.5q-283 0 -546 -161.5t-424 -426.5t-161 -552zM629 418q0 233 252 422.5t612 189.5q150 0 297 -49l-84 -213q-37 33 -63.5 51.5t-78 33.5t-114.5 15q-240 0 -422 -130t-182 -294q0 -133 124 -224t328 -91q109 0 168.5 18.5t169.5 77.5 l-20 -180q-121 -53 -183.5 -66.5t-170.5 -13.5q-285 0 -459 131.5t-174 321.5z" />
<glyph unicode="&#xaa;" horiz-adv-x="956" d="M4 590q0 27 17.5 49.5t50.5 26.5q14 2 45 2h653q43 0 64 -13q39 -23 38 -65q0 -14 -5 -29.5t-27.5 -32t-61.5 -16.5h-682q-37 0 -59.5 16.5t-27.5 32t-5 29.5zM115 913q0 53 24.5 79t137 47.5t344.5 31.5v2q37 180 36 215q0 102 -51 125q-8 4 -35 4q-31 0 -62.5 -6 t-57 -16.5t-49 -22.5t-44 -25.5t-33 -23.5t-23.5 -20.5t-13 -10.5l20 172q147 94 301 97h4q115 0 177.5 -80t62.5 -193q0 -45 -100 -520h-193l25 123q-143 -139 -316 -139q-84 0 -119.5 50t-35.5 111zM309 963q0 -16 3 -25.5t26.5 -21t69.5 -11.5q84 0 159 72 q-209 0 -258 -14z" />
<glyph unicode="&#xab;" horiz-adv-x="1433" d="M346 512l576 512h153l-532 -512l315 -512h-153zM705 512l575 512h154l-533 -512l316 -512h-154z" />
<glyph unicode="&#xac;" horiz-adv-x="1314" d="M268 696q0 51 68 52h938q66 0 65 -54q0 -14 -84 -407q0 -2 -2 -10.5t-3 -12.5t-3 -11t-4 -12t-5 -11.5t-7 -10.5t-9 -7t-11.5 -5t-14.5 -2q-20 0 -34.5 14t-14.5 35q0 10 82 391h-903q-58 2 -58 51z" />
<glyph unicode="&#xad;" horiz-adv-x="716" d="M111 408l32 153h572l-31 -153h-573z" />
<glyph unicode="&#xae;" horiz-adv-x="2234" d="M211 330q0 238 104.5 466t274.5 398t395 273.5t455 103.5q360 0 585.5 -234.5t225.5 -586.5q0 -233 -104.5 -462t-272.5 -399t-394.5 -274t-457.5 -104q-360 0 -585.5 233.5t-225.5 585.5zM311 330q0 -313 197 -516t512 -203q283 0 546 161.5t423.5 427t160.5 552.5 q0 311 -196.5 514.5t-511.5 203.5q-283 0 -546 -161.5t-424 -426.5t-161 -552zM651 0l213 995h498q205 0 324 -51q180 -80 180 -205q0 -31 -11.5 -60.5t-46 -73.5t-118.5 -87t-209 -76l293 -442h-215l-271 420h-338l-88 -420h-211zM983 575h313q260 0 334 76q33 33 33 70 q0 113 -277 113h-346z" />
<glyph unicode="&#xaf;" d="M412 1237l34 164h777l-35 -164h-776z" />
<glyph unicode="&#xb0;" horiz-adv-x="716" d="M367 1147q0 113 88 193.5t194 80.5q90 0 146.5 -57t56.5 -141q0 -106 -85 -191.5t-198 -85.5q-86 0 -144 56.5t-58 144.5zM467 1147q0 -45 28.5 -72.5t73.5 -27.5q70 0 125.5 55t55.5 121q0 45 -28 71.5t-73 26.5q-70 0 -126 -55.5t-56 -118.5z" />
<glyph unicode="&#xb1;" horiz-adv-x="1314" d="M170 233q0 37 43 48q10 2 35 2h418l82 387h-406q-70 0 -70 49q0 51 72 51h424q94 446 100 457q14 29 45 28q23 0 36.5 -16t13.5 -35q0 -8 -91 -434h406q68 0 68 -51q0 -49 -68 -49h-428l-82 -387h397q74 0 76 -50q-2 -51 -63 -51h-940q-68 0 -68 51z" />
<glyph unicode="&#xb4;" d="M633 1102l325 264h197q-109 -78 -235 -170q-96 -72 -116 -83t-38 -11h-4h-129z" />
<glyph unicode="&#xb5;" horiz-adv-x="1058" d="M59 -342l279 1309h197l-146 -686q-16 -88 -16 -95q0 -35 29.5 -46t109.5 -11q74 0 132 25.5t88 62.5t48.5 74t22.5 61l6 27l125 588h196l-204 -967h-193l33 154q-180 -170 -440 -170l-70 -326h-197z" />
<glyph unicode="&#xb6;" horiz-adv-x="1314" d="M313 885q0 49 14.5 103t48.5 117.5t98.5 126t154.5 109.5q78 39 153.5 58.5t119.5 21.5t138 2h430q72 0 72 -51q0 -8 -2 -17t-16.5 -21.5t-40.5 -12.5h-127l-336 -1579q0 -2 -2 -10t-3 -12.5t-3 -11.5t-4 -12t-5.5 -11.5t-7.5 -10.5t-9 -7t-11 -5t-14 -2q-35 0 -46 33 q-4 16 5 61l333 1567h-147l-338 -1587q-16 -74 -57 -74q-43 0 -47 43q-2 20 6 53l155 736q-227 16 -369.5 119.5t-142.5 273.5z" />
<glyph unicode="&#xb7;" horiz-adv-x="528" d="M256 416l41 192h192l-40 -192h-193z" />
<glyph unicode="&#xb8;" horiz-adv-x="956" d="M168 -334l223 297h156l-203 -297h-176z" />
<glyph unicode="&#xba;" horiz-adv-x="956" d="M4 590q0 27 17.5 49.5t50.5 26.5q14 2 45 2h653q43 0 64 -13q39 -23 38 -65q0 -14 -5 -29.5t-27.5 -32t-61.5 -16.5h-682q-37 0 -59.5 16.5t-27.5 32t-5 29.5zM131 1069q0 190 159 341t355 151q147 0 242.5 -90.5t95.5 -237.5q0 -188 -155.5 -334.5t-356.5 -146.5 q-147 0 -243.5 88t-96.5 229zM328 1065q0 -154 176 -154q125 0 186.5 63.5t87.5 174.5q14 57 15 108q0 150 -170 150q-139 0 -203 -67.5t-88 -223.5q-4 -33 -4 -51z" />
<glyph unicode="&#xbb;" horiz-adv-x="1433" d="M215 0l533 512l-316 512h156l356 -512l-575 -512h-154zM573 0l533 512l-315 512h155l357 -512l-576 -512h-154z" />
<glyph unicode="&#xbf;" horiz-adv-x="1015" d="M100 -123q0 43 9.5 84t26 74t34.5 59.5t38.5 48t36 34.5t29.5 24l13 10q41 33 73.5 70.5t55 76.5t39 70t28 72t16.5 60.5t13 56t8 40.5h193q-35 -182 -92 -290q-72 -139 -201 -256q-8 -6 -27.5 -23.5t-26 -24t-20.5 -22.5t-20.5 -29.5t-13.5 -34t-11 -47.5q-6 -29 -6 -55 q0 -47 31.5 -63.5t95.5 -16.5q195 0 395 111l23 -162q-221 -102 -437 -102q-92 0 -156.5 22.5t-94 60t-41 74.5t-11.5 78zM537 840l51 239h239l-51 -239h-239z" />
<glyph unicode="&#xc0;" horiz-adv-x="1382" d="M59 0l822 1440h231l209 -1440h-223l-49 348h-596l-197 -348h-197zM547 510h477q-86 616 -86 700v15l-127 -244zM750 1743h262q20 0 168 -101q76 -51 127 -86h-203q-16 0 -63 25t-291 162z" />
<glyph unicode="&#xc1;" horiz-adv-x="1382" d="M59 0l822 1440h231l209 -1440h-223l-49 348h-596l-197 -348h-197zM547 510h477q-86 616 -86 700v15l-127 -244zM735 1557l310 162l45 20l41 4h168l71 -2l-362 -162l-51 -20l-35 -2h-187z" />
<glyph unicode="&#xc2;" horiz-adv-x="1382" d="M59 0l822 1440h231l209 -1440h-223l-49 348h-596l-197 -348h-197zM547 510h477q-86 616 -86 700v15l-127 -244zM643 1489l342 348h190l160 -348h-153l-142 229l-241 -229h-156z" />
<glyph unicode="&#xc3;" horiz-adv-x="1382" d="M59 0l822 1440h231l209 -1440h-223l-49 348h-596l-197 -348h-197zM547 510h477q-86 616 -86 700v15l-127 -244zM649 1489q29 141 110 236.5t171 95.5q43 0 77.5 -28t54 -60.5t49.5 -60t67 -27.5q43 0 64.5 43t39.5 133h154q-33 -152 -114 -242t-167 -90q-43 0 -78 27.5 t-54 60.5t-50 60.5t-66 27.5q-43 0 -64.5 -44t-39.5 -132h-154z" />
<glyph unicode="&#xc4;" horiz-adv-x="1382" d="M59 0l822 1440h231l209 -1440h-223l-49 348h-596l-197 -348h-197zM547 510h477q-86 616 -86 700v15l-127 -244zM731 1629l41 192h192l-40 -192h-193zM1149 1629l41 192h192l-40 -192h-193z" />
<glyph unicode="&#xc5;" horiz-adv-x="1382" d="M59 0l762 1331v2q-61 61 -61 160q0 133 94 235.5t209 102.5q84 0 136 -58.5t52 -148.5q0 -156 -127 -268l197 -1356h-223l-49 348h-596l-197 -348h-197zM547 510h477q-86 616 -86 700v15l-127 -244zM879 1509q0 -31 17 -47t34.5 -19t46.5 -3q47 2 69.5 7t46 33.5 t33.5 88.5q4 25 4 39q0 31 -16 47t-33.5 19t-46.5 3h-16q-68 0 -100 -41q-39 -49 -39 -127z" />
<glyph unicode="&#xc6;" horiz-adv-x="1826" d="M59 0l867 1423h1083l-35 -163h-618l-92 -439h557l-35 -164h-559l-103 -485h648l-35 -172h-860l86 406h-459l-246 -406h-199zM604 569h393l146 691h-119z" />
<glyph unicode="&#xc7;" horiz-adv-x="1374" d="M264 547q0 223 121 434t329 343t441 132q190 0 379 -70l-82 -212l-18 14q-20 16 -30.5 23.5t-35.5 22.5t-48.5 23.5t-54 18.5t-68.5 14t-79 4q-248 0 -442.5 -225t-194.5 -502q0 -184 103.5 -311t287.5 -127q102 0 180 18.5t114 36t139 74.5l-23 -178 q-135 -70 -223 -92.5t-221 -22.5q-262 0 -418 166t-156 416zM524 -334l223 297h156l-203 -297h-176z" />
<glyph unicode="&#xc8;" horiz-adv-x="1280" d="M164 0l301 1417h995l-35 -162h-780l-92 -436h719l-33 -164h-723l-102 -483h811l-37 -172h-1024zM655 1743h263q18 0 141 -84q88 -59 151 -103h-200q-16 0 -63.5 25t-291.5 162z" />
<glyph unicode="&#xc9;" horiz-adv-x="1280" d="M164 0l301 1417h995l-35 -162h-780l-92 -436h719l-33 -164h-723l-102 -483h811l-37 -172h-1024zM729 1557l310 162l45 20l41 4h168l71 -2l-362 -162l-51 -20l-35 -2h-187z" />
<glyph unicode="&#xca;" horiz-adv-x="1280" d="M164 0l301 1417h995l-35 -162h-780l-92 -436h719l-33 -164h-723l-102 -483h811l-37 -172h-1024zM565 1489l342 348h156l194 -348h-153l-141 229l-242 -229h-156z" />
<glyph unicode="&#xcb;" horiz-adv-x="1280" d="M164 0l301 1417h995l-35 -162h-780l-92 -436h719l-33 -164h-723l-102 -483h811l-37 -172h-1024zM635 1629l41 192h192l-40 -192h-193zM1053 1629l41 192h192l-40 -192h-193z" />
<glyph unicode="&#xcc;" horiz-adv-x="546" d="M164 0l301 1421l2 2h213l-301 -1423h-215zM301 1743h262q20 0 168 -101q76 -51 127 -86h-203q-16 0 -63 25t-291 162z" />
<glyph unicode="&#xcd;" horiz-adv-x="546" d="M164 0l301 1421l2 2h213l-301 -1423h-215zM405 1557l310 162l45 20l41 4h168l71 -2l-362 -162l-51 -20l-35 -2h-187z" />
<glyph unicode="&#xce;" horiz-adv-x="546" d="M164 0l301 1421l2 2h213l-301 -1423h-215zM242 1489l342 348h155l195 -348h-156l-141 229l-240 -229h-155z" />
<glyph unicode="&#xcf;" horiz-adv-x="546" d="M164 0l301 1421l2 2h213l-301 -1423h-215zM311 1629l41 192h192l-40 -192h-193zM729 1629l41 192h192l-40 -192h-193z" />
<glyph unicode="&#xd0;" horiz-adv-x="1527" d="M104 621l33 155h193l137 645l2 2h549q158 0 272.5 -55t173 -144t84 -178.5t25.5 -181.5q0 -309 -220 -564t-522 -294q-43 -6 -131 -6h-534l133 621h-195zM410 164h282q246 0 402 115q139 102 204.5 269t65.5 324q0 59 -11.5 111.5t-41 105t-75.5 89t-121 59.5t-173 23 h-299l-102 -484h372l-32 -155h-375z" />
<glyph unicode="&#xd1;" horiz-adv-x="1449" d="M170 0l301 1421l2 2h299l356 -1230l261 1228v2h192l-303 -1423h-299l-356 1229l-261 -1229h-192zM682 1489q25 102 64.5 174t83.5 102.5t77 43t60 12.5q41 0 74.5 -28t53 -60.5t49.5 -60t66 -27.5q72 0 105 176h155q-27 -143 -110.5 -237.5t-171.5 -94.5q-43 0 -77 27.5 t-53.5 60.5t-49 60.5t-66.5 27.5q-29 0 -51.5 -26.5t-31.5 -58.5t-15 -60l-8 -31h-154z" />
<glyph unicode="&#xd2;" horiz-adv-x="1603" d="M250 541q0 231 124 444t323.5 342t412.5 129q240 0 390.5 -164t150.5 -415q0 -231 -124 -444.5t-322.5 -340.5t-411.5 -127q-236 0 -389.5 161t-153.5 415zM467 551q0 -215 107.5 -319.5t252.5 -104.5q133 0 251 72.5t197 186.5t124 249t45 262q0 188 -103.5 294.5 t-265.5 106.5q-240 0 -424 -214t-184 -533zM860 1743h262q20 0 168 -101q76 -51 127 -86h-203q-16 0 -63 25t-291 162z" />
<glyph unicode="&#xd3;" horiz-adv-x="1603" d="M250 541q0 231 124 444t323.5 342t412.5 129q240 0 390.5 -164t150.5 -415q0 -231 -124 -444.5t-322.5 -340.5t-411.5 -127q-236 0 -389.5 161t-153.5 415zM467 551q0 -215 107.5 -319.5t252.5 -104.5q133 0 251 72.5t197 186.5t124 249t45 262q0 188 -103.5 294.5 t-265.5 106.5q-240 0 -424 -214t-184 -533zM845 1557l310 162l45 20l41 4h168l71 -2l-362 -162l-51 -20l-35 -2h-187z" />
<glyph unicode="&#xd4;" horiz-adv-x="1603" d="M250 541q0 231 124 444t323.5 342t412.5 129q240 0 390.5 -164t150.5 -415q0 -231 -124 -444.5t-322.5 -340.5t-411.5 -127q-236 0 -389.5 161t-153.5 415zM467 551q0 -215 107.5 -319.5t252.5 -104.5q133 0 251 72.5t197 186.5t124 249t45 262q0 188 -103.5 294.5 t-265.5 106.5q-240 0 -424 -214t-184 -533zM772 1489l340 348h156l194 -348h-153l-142 229l-241 -229h-154z" />
<glyph unicode="&#xd5;" horiz-adv-x="1603" d="M250 541q0 231 124 444t323.5 342t412.5 129q240 0 390.5 -164t150.5 -415q0 -231 -124 -444.5t-322.5 -340.5t-411.5 -127q-236 0 -389.5 161t-153.5 415zM467 551q0 -215 107.5 -319.5t252.5 -104.5q133 0 251 72.5t197 186.5t124 249t45 262q0 188 -103.5 294.5 t-265.5 106.5q-240 0 -424 -214t-184 -533zM758 1489q35 154 115.5 243t166.5 89q41 0 76 -28t54.5 -60.5t50 -60t65.5 -27.5q29 0 51.5 26.5t31.5 58t15 60.5l7 31h155q-35 -156 -114.5 -244t-169.5 -88q-41 0 -75 27.5t-53.5 60.5t-49 60.5t-66.5 27.5q-43 0 -63.5 -42 t-41.5 -134h-155z" />
<glyph unicode="&#xd6;" horiz-adv-x="1603" d="M250 541q0 231 124 444t323.5 342t412.5 129q240 0 390.5 -164t150.5 -415q0 -231 -124 -444.5t-322.5 -340.5t-411.5 -127q-236 0 -389.5 161t-153.5 415zM467 551q0 -215 107.5 -319.5t252.5 -104.5q133 0 251 72.5t197 186.5t124 249t45 262q0 188 -103.5 294.5 t-265.5 106.5q-240 0 -424 -214t-184 -533zM841 1629l41 192h192l-40 -192h-193zM1259 1629l41 192h192l-40 -192h-193z" />
<glyph unicode="&#xd8;" horiz-adv-x="1673" d="M252 547q0 229 127 440t335 340t431 129q158 0 285 -67l124 157l121 -78l-127 -163v-2q172 -164 172 -433q0 -231 -128 -442t-335.5 -337t-429.5 -126q-137 0 -284 68l-127 -158l-119 78l129 166q-174 156 -174 428zM453 528q0 -168 84 -272l788 999q-96 47 -211 48 q-215 0 -399.5 -151t-243.5 -454q-18 -86 -18 -170zM649 166q102 -45 211 -45q215 0 398.5 149.5t242.5 452.5q18 100 19 166q0 166 -82 274z" />
<glyph unicode="&#xd9;" horiz-adv-x="1417" d="M256 377q0 37 25 160l186 884l2 2h213l-203 -952q-12 -70 -12 -111q0 -115 71.5 -173t204.5 -58q96 0 171 32t116 70.5t72 102t41 99.5t20 89l191 899l2 2h196l-190 -893l-6 -26q-4 -27 -8.5 -42.5t-16.5 -50t-24.5 -61t-34 -64.5t-48 -69t-64.5 -65.5t-81 -65.5 q-180 -121 -377 -121q-190 0 -318 115t-128 297zM768 1743h262q20 0 168 -101q76 -51 127 -86h-203q-16 0 -63 25t-291 162z" />
<glyph unicode="&#xda;" horiz-adv-x="1417" d="M256 377q0 37 25 160l186 884l2 2h213l-203 -952q-12 -70 -12 -111q0 -115 71.5 -173t204.5 -58q96 0 171 32t116 70.5t72 102t41 99.5t20 89l191 899l2 2h196l-190 -893l-6 -26q-4 -27 -8.5 -42.5t-16.5 -50t-24.5 -61t-34 -64.5t-48 -69t-64.5 -65.5t-81 -65.5 q-180 -121 -377 -121q-190 0 -318 115t-128 297zM841 1557l310 162l45 20l41 4h168l71 -2l-362 -162l-51 -20l-35 -2h-187z" />
<glyph unicode="&#xdb;" horiz-adv-x="1417" d="M256 377q0 37 25 160l186 884l2 2h213l-203 -952q-12 -70 -12 -111q0 -115 71.5 -173t204.5 -58q96 0 171 32t116 70.5t72 102t41 99.5t20 89l191 899l2 2h196l-190 -893l-6 -26q-4 -27 -8.5 -42.5t-16.5 -50t-24.5 -61t-34 -64.5t-48 -69t-64.5 -65.5t-81 -65.5 q-180 -121 -377 -121q-190 0 -318 115t-128 297zM684 1489l340 348h147l203 -348h-153l-142 229l-241 -229h-154z" />
<glyph unicode="&#xdc;" horiz-adv-x="1417" d="M256 377q0 37 25 160l186 884l2 2h213l-203 -952q-12 -70 -12 -111q0 -115 71.5 -173t204.5 -58q96 0 171 32t116 70.5t72 102t41 99.5t20 89l191 899l2 2h196l-190 -893l-6 -26q-4 -27 -8.5 -42.5t-16.5 -50t-24.5 -61t-34 -64.5t-48 -69t-64.5 -65.5t-81 -65.5 q-180 -121 -377 -121q-190 0 -318 115t-128 297zM749 1629l41 192h192l-40 -192h-193zM1167 1629l41 192h192l-40 -192h-193z" />
<glyph unicode="&#xdd;" horiz-adv-x="1382" d="M307 1423h254l303 -657l584 657h229l-729 -819q-33 -35 -39 -65l-114 -539h-211l116 541q2 10 2 22q0 16 -12 41zM825 1557l310 162l45 20l41 4h168l71 -2l-362 -162l-51 -20l-35 -2h-187z" />
<glyph unicode="&#xde;" horiz-adv-x="1228" d="M168 0l301 1421l2 2h205l-47 -227h258q115 0 197.5 -34t122.5 -89t57.5 -108.5t17.5 -106.5q-2 -176 -142.5 -315.5t-316.5 -165.5q-55 -8 -125 -8h-245l-80 -369h-205zM487 532h199q186 0 287.5 95.5t101.5 193.5q0 80 -71.5 145.5t-235.5 65.5h-176z" />
<glyph unicode="&#xdf;" horiz-adv-x="1007" d="M133 0l242 1135q12 63 28 92q51 98 167 155.5t243 57.5q137 0 231.5 -65.5t94.5 -168.5q0 -86 -67.5 -177t-176.5 -148q147 -135 147 -355q0 -242 -149.5 -392t-331.5 -150q-80 0 -172 30l82 146q72 -23 123 -23q76 0 130 44t79.5 112.5t36 128t10.5 110.5 q0 125 -59.5 201t-172.5 80l33 154q86 2 148.5 29.5t90.5 67.5t39 70.5t11 53.5q0 96 -162 96q-66 0 -108.5 -14.5t-64 -45t-27 -46t-13.5 -50.5l-239 -1128h-193z" />
<glyph unicode="&#xe0;" horiz-adv-x="1007" d="M131 207q0 127 89 199.5t255 113.5q139 35 322 39q25 125 24 152q0 53 -33.5 95t-103.5 42q-78 0 -148.5 -20.5t-101.5 -37t-98 -55.5q18 160 24 170q4 4 19 10q166 78 338 78q147 0 226 -81t79 -185q0 -31 -12 -92l-136 -635h-192l27 131q-160 -147 -377 -147 q-106 0 -153.5 69.5t-47.5 153.5zM326 246q4 -43 43 -76t110 -33q82 0 157 40t99 110q6 16 41 176q-207 -8 -322.5 -61.5t-125.5 -131.5zM619 1366h196l213 -264h-155z" />
<glyph unicode="&#xe1;" horiz-adv-x="1007" d="M131 207q0 127 89 199.5t255 113.5q139 35 322 39q25 125 24 152q0 53 -33.5 95t-103.5 42q-78 0 -148.5 -20.5t-101.5 -37t-98 -55.5q18 160 24 170q4 4 19 10q166 78 338 78q147 0 226 -81t79 -185q0 -31 -12 -92l-136 -635h-192l27 131q-160 -147 -377 -147 q-106 0 -153.5 69.5t-47.5 153.5zM326 246q4 -43 43 -76t110 -33q82 0 157 40t99 110q6 16 41 176q-207 -8 -322.5 -61.5t-125.5 -131.5zM514 1102l325 264h197q-109 -78 -235 -170q-96 -72 -116 -83t-38 -11h-4h-129z" />
<glyph unicode="&#xe2;" horiz-adv-x="1007" d="M131 207q0 127 89 199.5t255 113.5q139 35 322 39q25 125 24 152q0 53 -33.5 95t-103.5 42q-78 0 -148.5 -20.5t-101.5 -37t-98 -55.5q18 160 24 170q4 4 19 10q166 78 338 78q147 0 226 -81t79 -185q0 -31 -12 -92l-136 -635h-192l27 131q-160 -147 -377 -147 q-106 0 -153.5 69.5t-47.5 153.5zM326 246q4 -43 43 -76t110 -33q82 0 157 40t99 110q6 16 41 176q-207 -8 -322.5 -61.5t-125.5 -131.5zM401 1102l326 280h207l160 -282h-156l-152 186q-51 -41 -120 -98q-78 -63 -96.5 -75.5t-32.5 -12.5h-88q-8 0 -24 1t-24 1z" />
<glyph unicode="&#xe3;" horiz-adv-x="1007" d="M131 207q0 127 89 199.5t255 113.5q139 35 322 39q25 125 24 152q0 53 -33.5 95t-103.5 42q-78 0 -148.5 -20.5t-101.5 -37t-98 -55.5q18 160 24 170q4 4 19 10q166 78 338 78q147 0 226 -81t79 -185q0 -31 -12 -92l-136 -635h-192l27 131q-160 -147 -377 -147 q-106 0 -153.5 69.5t-47.5 153.5zM326 246q4 -43 43 -76t110 -33q82 0 157 40t99 110q6 16 41 176q-207 -8 -322.5 -61.5t-125.5 -131.5zM416 1112q25 111 103.5 182.5t164.5 71.5q55 0 136 -49t120 -49q20 0 36.5 10t27 24.5t16.5 27.5t8 26l4 10h154q-27 -115 -106 -184.5 t-165 -69.5q-55 0 -136 49t-120 49q-66 0 -90 -98h-153z" />
<glyph unicode="&#xe4;" horiz-adv-x="1007" d="M131 207q0 127 89 199.5t255 113.5q139 35 322 39q25 125 24 152q0 53 -33.5 95t-103.5 42q-78 0 -148.5 -20.5t-101.5 -37t-98 -55.5q18 160 24 170q4 4 19 10q166 78 338 78q147 0 226 -81t79 -185q0 -31 -12 -92l-136 -635h-192l27 131q-160 -147 -377 -147 q-106 0 -153.5 69.5t-47.5 153.5zM326 246q4 -43 43 -76t110 -33q82 0 157 40t99 110q6 16 41 176q-207 -8 -322.5 -61.5t-125.5 -131.5zM444 1174l41 192h192l-40 -192h-193zM862 1174l41 192h192l-40 -192h-193z" />
<glyph unicode="&#xe5;" horiz-adv-x="1007" d="M131 207q0 127 89 199.5t255 113.5q139 35 322 39q25 125 24 152q0 53 -33.5 95t-103.5 42q-78 0 -148.5 -20.5t-101.5 -37t-98 -55.5q18 160 24 170q4 4 19 10q166 78 338 78q147 0 226 -81t79 -185q0 -31 -12 -92l-136 -635h-192l27 131q-160 -147 -377 -147 q-106 0 -153.5 69.5t-47.5 153.5zM326 246q4 -43 43 -76t110 -33q82 0 157 40t99 110q6 16 41 176q-207 -8 -322.5 -61.5t-125.5 -131.5zM530 1186q0 72 80 131t197 59q88 0 146.5 -39t58.5 -102q0 -70 -81 -130.5t-198 -60.5q-86 0 -144.5 39.5t-58.5 102.5zM649 1180 q0 -68 99 -68q145 0 145 129q0 70 -100 70q-144 0 -144 -131z" />
<glyph unicode="&#xe6;" horiz-adv-x="1552" d="M135 207q0 217 291 309q133 43 373 55q23 106 22 138q0 51 -32.5 95t-106.5 44q-76 0 -146.5 -20.5t-103.5 -37t-98 -55.5q16 135 20 152.5t23 27.5q176 78 340 78q190 0 274 -143q168 141 342 141q117 0 202 -69.5t85 -237.5q0 -80 -21 -172h-616q-16 -90 -16 -115 q0 -109 59 -184.5t164 -75.5q147 0 328 117l-21 -166q-170 -104 -342 -104q-205 0 -315 153q-166 -154 -506 -153q-109 0 -154 67.5t-45 155.5zM330 256q0 -45 36.5 -82t114.5 -37q176 0 244 92q8 12 14 25.5t10.5 37t7.5 39t7 56.5t8 64q-33 0 -88 -6.5t-144 -22.5 t-149.5 -60.5t-60.5 -105.5zM1030 633h424q0 205 -154 205q-78 0 -150.5 -58.5t-119.5 -146.5z" />
<glyph unicode="&#xe7;" horiz-adv-x="956" d="M162 373q0 233 180 426.5t416 193.5q109 0 169 -18.5t148 -69.5l-63 -168q-55 39 -81 54.5t-79 29t-129 13.5q-82 0 -148.5 -36t-105.5 -89.5t-65.5 -119t-36 -119.5t-9.5 -97q0 -106 56.5 -168t160.5 -62q78 0 152 20.5t109.5 38t99.5 54.5l-23 -170 q-193 -102 -372 -102q-174 0 -276.5 110.5t-102.5 278.5zM227 -334l224 297h155l-203 -297h-176z" />
<glyph unicode="&#xe8;" horiz-adv-x="964" d="M152 377q0 231 176 422.5t397 191.5q78 0 142.5 -23.5t114.5 -98t50 -193.5q0 -41 -20 -164h-658q-2 -2 -5 -20.5t-7 -45t-4 -45.5q0 -113 64.5 -188.5t175.5 -75.5q162 0 352 117l-21 -166q-188 -104 -364 -104q-180 0 -286.5 112.5t-106.5 280.5zM401 633h467 q-2 117 -55 161t-123 44q-84 0 -161 -56.5t-128 -148.5zM623 1366h196l213 -264h-155z" />
<glyph unicode="&#xe9;" horiz-adv-x="964" d="M152 377q0 231 176 422.5t397 191.5q78 0 142.5 -23.5t114.5 -98t50 -193.5q0 -41 -20 -164h-658q-2 -2 -5 -20.5t-7 -45t-4 -45.5q0 -113 64.5 -188.5t175.5 -75.5q162 0 352 117l-21 -166q-188 -104 -364 -104q-180 0 -286.5 112.5t-106.5 280.5zM401 633h467 q-2 117 -55 161t-123 44q-84 0 -161 -56.5t-128 -148.5zM459 1102l325 264h197q-109 -78 -235 -170q-96 -72 -116 -83t-38 -11h-4h-129z" />
<glyph unicode="&#xea;" horiz-adv-x="964" d="M152 377q0 231 176 422.5t397 191.5q78 0 142.5 -23.5t114.5 -98t50 -193.5q0 -41 -20 -164h-658q-2 -2 -5 -20.5t-7 -45t-4 -45.5q0 -113 64.5 -188.5t175.5 -75.5q162 0 352 117l-21 -166q-188 -104 -364 -104q-180 0 -286.5 112.5t-106.5 280.5zM369 1102l328 280h157 l207 -282h-155l-150 186h-2q-51 -41 -121 -98q-78 -63 -96.5 -75.5t-32.5 -12.5h-86q-8 0 -24.5 1t-24.5 1zM401 633h467q-2 117 -55 161t-123 44q-84 0 -161 -56.5t-128 -148.5z" />
<glyph unicode="&#xeb;" horiz-adv-x="964" d="M152 377q0 231 176 422.5t397 191.5q78 0 142.5 -23.5t114.5 -98t50 -193.5q0 -41 -20 -164h-658q-2 -2 -5 -20.5t-7 -45t-4 -45.5q0 -113 64.5 -188.5t175.5 -75.5q162 0 352 117l-21 -166q-188 -104 -364 -104q-180 0 -286.5 112.5t-106.5 280.5zM401 633h467 q-2 117 -55 161t-123 44q-84 0 -161 -56.5t-128 -148.5zM426 1174l41 192h192l-40 -192h-193zM844 1174l41 192h192l-40 -192h-193z" />
<glyph unicode="&#xec;" horiz-adv-x="460" d="M133 0l205 967h194l-206 -967h-193zM193 1366h196l213 -264h-155z" />
<glyph unicode="&#xed;" horiz-adv-x="460" d="M133 0l205 967h194l-206 -967h-193zM266 1102l325 264h197q-109 -78 -235 -170q-96 -72 -116 -83t-38 -11h-4h-129z" />
<glyph unicode="&#xee;" horiz-adv-x="460" d="M117 1100l325 282h158l207 -282h-154l-151 186h-2l-230 -186h-153zM131 0l205 967h194l-206 -967h-193z" />
<glyph unicode="&#xef;" horiz-adv-x="579" d="M192 0l205 967h194l-206 -967h-193zM233 1174l41 192h192l-40 -192h-193zM651 1174l41 192h192l-40 -192h-193z" />
<glyph unicode="&#xf0;" d="M150 371q0 233 184 427.5t414 194.5q72 0 145 -26q-47 98 -148 198l-112 -57l-55 152l12 6q-102 35 -154 43l158 114q51 -10 90 -24.5t57.5 -23.5t30.5 -9q8 0 123 57l55 -153l-28 -15q229 -221 229 -530q0 -131 -45 -289q-57 -193 -221 -322.5t-353 -129.5 q-170 0 -276 110.5t-106 276.5zM346 365q0 -121 64.5 -171.5t156.5 -50.5q84 0 151.5 36t106.5 88t66 119t36 124t9 106q0 121 -65.5 171.5t-157.5 50.5q-131 0 -226 -84q-78 -72 -109.5 -189.5t-31.5 -199.5z" />
<glyph unicode="&#xf1;" horiz-adv-x="1058" d="M131 0l205 967h190l-37 -168q158 184 351 184q240 0 239 -205q0 -43 -16 -129l-139 -649h-197l135 639q10 57 10 72q0 119 -170 118q-20 0 -40.5 -4t-55.5 -20.5t-62.5 -46t-56 -88t-45.5 -135.5l-114 -535h-197zM406 1112q25 111 103.5 182.5t164.5 71.5q55 0 137 -49 t121 -49q20 0 36.5 10t26 24.5t15.5 27.5t10 26l2 10h154q-27 -115 -105 -184.5t-164 -69.5q-55 0 -136 49t-120 49q-66 0 -90 -98h-155z" />
<glyph unicode="&#xf2;" d="M150 373q0 236 184 428t414 192q168 0 274 -113.5t106 -285.5q0 -244 -185 -427t-411 -183q-170 0 -276 110.5t-106 278.5zM346 365q0 -121 64.5 -171.5t156.5 -50.5q109 0 189 57.5t115.5 143.5t51 156.5t15.5 126.5q0 115 -65.5 163t-157.5 48q-90 0 -161 -39 t-108.5 -94.5t-61.5 -126t-31 -121.5t-7 -92zM619 1366h196l213 -264h-155z" />
<glyph unicode="&#xf3;" d="M150 373q0 236 184 428t414 192q168 0 274 -113.5t106 -285.5q0 -244 -185 -427t-411 -183q-170 0 -276 110.5t-106 278.5zM346 365q0 -121 64.5 -171.5t156.5 -50.5q109 0 189 57.5t115.5 143.5t51 156.5t15.5 126.5q0 115 -65.5 163t-157.5 48q-90 0 -161 -39 t-108.5 -94.5t-61.5 -126t-31 -121.5t-7 -92zM633 1102l325 264h197q-109 -78 -235 -170q-96 -72 -116 -83t-38 -11h-4h-129z" />
<glyph unicode="&#xf4;" d="M150 373q0 236 184 428t414 192q168 0 274 -113.5t106 -285.5q0 -244 -185 -427t-411 -183q-170 0 -276 110.5t-106 278.5zM346 365q0 -121 64.5 -171.5t156.5 -50.5q109 0 189 57.5t115.5 143.5t51 156.5t15.5 126.5q0 115 -65.5 163t-157.5 48q-90 0 -161 -39 t-108.5 -94.5t-61.5 -126t-31 -121.5t-7 -92zM424 1102l328 280h157l207 -282h-155l-150 186h-2q-51 -41 -121 -98q-78 -63 -96.5 -75.5t-32.5 -12.5h-86q-8 0 -24.5 1t-24.5 1z" />
<glyph unicode="&#xf5;" d="M150 373q0 236 184 428t414 192q168 0 274 -113.5t106 -285.5q0 -244 -185 -427t-411 -183q-170 0 -276 110.5t-106 278.5zM346 365q0 -121 64.5 -171.5t156.5 -50.5q109 0 189 57.5t115.5 143.5t51 156.5t15.5 126.5q0 115 -65.5 163t-157.5 48q-90 0 -161 -39 t-108.5 -94.5t-61.5 -126t-31 -121.5t-7 -92zM416 1112q25 111 103.5 182.5t164.5 71.5q55 0 136 -49t120 -49q20 0 36.5 10t26 24.5t15.5 27.5t10 26l2 10h156q-27 -115 -106 -184.5t-165 -69.5q-55 0 -136 49t-120 49q-66 0 -90 -98h-153z" />
<glyph unicode="&#xf6;" d="M150 373q0 236 184 428t414 192q168 0 274 -113.5t106 -285.5q0 -244 -185 -427t-411 -183q-170 0 -276 110.5t-106 278.5zM346 365q0 -121 64.5 -171.5t156.5 -50.5q109 0 189 57.5t115.5 143.5t51 156.5t15.5 126.5q0 115 -65.5 163t-157.5 48q-90 0 -161 -39 t-108.5 -94.5t-61.5 -126t-31 -121.5t-7 -92zM481 1174l41 192h192l-40 -192h-193zM899 1174l41 192h192l-40 -192h-193z" />
<glyph unicode="&#xf7;" horiz-adv-x="1314" d="M236 541q0 51 67 51h942q61 0 62 -53q0 -49 -66 -50q-4 0 -12 1.5t-12 1.5h-916q-65 0 -65 49zM483 -16q0 6 45 221q8 43 35 59q16 6 45 6h189q76 0 75 -53q0 -6 -45 -221q-8 -45 -32 -59q-14 -6 -39 -7h-203q-70 1 -70 54zM672 864q0 6 45 221q8 45 33 60q20 6 36 6h205 q68 0 68 -53q0 -16 -24.5 -130t-30.5 -126l-5 -6q-4 -6 -9 -11.5t-17 -9.5t-29 -4h-205q-67 0 -67 53z" />
<glyph unicode="&#xf8;" d="M57 -131l189 233v2q-96 109 -96 267q0 236 183 429t412 193q90 0 179 -41l178 226l119 -80l-187 -232q94 -129 94 -272q0 -240 -184 -425t-412 -185q-86 0 -176 36l-182 -229zM334 358q0 -70 22 -114l461 575q-49 18 -104 19q-111 0 -192 -56.5t-117.5 -141.5t-53 -155 t-16.5 -127zM465 154q61 -16 100 -17q117 0 199 58.5t118 145.5t49 152.5t13 116.5q0 55 -22 115z" />
<glyph unicode="&#xf9;" horiz-adv-x="1058" d="M172 145q0 47 14 113l152 709h197l-146 -686q-16 -88 -16 -95q0 -35 29.5 -46t109.5 -11q74 0 132 25.5t88 62.5t48.5 74t22.5 61l6 27l125 588h196l-204 -967h-193l33 154q-182 -170 -422 -170q-172 -1 -172 161zM580 1366h196l213 -264h-155z" />
<glyph unicode="&#xfa;" horiz-adv-x="1058" d="M172 145q0 47 14 113l152 709h197l-146 -686q-16 -88 -16 -95q0 -35 29.5 -46t109.5 -11q74 0 132 25.5t88 62.5t48.5 74t22.5 61l6 27l125 588h196l-204 -967h-193l33 154q-182 -170 -422 -170q-172 -1 -172 161zM506 1102l325 264h197q-109 -78 -235 -170 q-96 -72 -116 -83t-38 -11h-4h-129z" />
<glyph unicode="&#xfb;" horiz-adv-x="1058" d="M172 145q0 47 14 113l152 709h197l-146 -686q-16 -88 -16 -95q0 -35 29.5 -46t109.5 -11q74 0 132 25.5t88 62.5t48.5 74t22.5 61l6 27l125 588h196l-204 -967h-193l33 154q-182 -170 -422 -170q-172 -1 -172 161zM418 1102l325 280h158l207 -282h-154l-151 186h-2 l-230 -186h-90z" />
<glyph unicode="&#xfc;" horiz-adv-x="1058" d="M172 145q0 47 14 113l152 709h197l-146 -686q-16 -88 -16 -95q0 -35 29.5 -46t109.5 -11q74 0 132 25.5t88 62.5t48.5 74t22.5 61l6 27l125 588h196l-204 -967h-193l33 154q-182 -170 -422 -170q-172 -1 -172 161zM473 1174l41 192h192l-40 -192h-193zM891 1174l41 192 h192l-40 -192h-193z" />
<glyph unicode="&#xfd;" horiz-adv-x="937" d="M-6 -344l20 170q98 -31 166 -31q25 0 47.5 5t42 19.5t32.5 24t30.5 36t23.5 36.5t25.5 43t24.5 41l-168 967h196l74 -457l16 -141l6 -113l-2 -57q29 111 398 768h188l-584 -1035q-164 -291 -385 -290q-45 0 -151 14zM565 1102l325 264h197q-109 -78 -235 -170 q-96 -72 -116 -83t-38 -11h-4h-129z" />
<glyph unicode="&#xfe;" horiz-adv-x="1058" d="M61 -342l375 1763v2h193l-121 -569q180 129 373 129h2q39 0 73.5 -13.5t70.5 -47t57.5 -106.5t21.5 -175q0 -258 -159 -457.5t-353 -199.5q-150 0 -240 122l-96 -448h-197zM381 233q51 -96 147 -96q137 0 255 132t118 304q0 111 -57.5 181.5t-151.5 70.5 q-57 0 -111.5 -25.5t-80.5 -51.5q-10 -10 -15.5 -34t-50.5 -233q-30 -146 -53 -248z" />
<glyph unicode="&#xff;" horiz-adv-x="937" d="M-6 -344l20 170q98 -31 166 -31q25 0 47.5 5t42 19.5t32.5 24t30.5 36t23.5 36.5t25.5 43t24.5 41l-168 967h196l74 -457l16 -141l6 -113l-2 -57q29 111 398 768h188l-584 -1035q-164 -291 -385 -290q-45 0 -151 14zM414 1174l41 192h192l-40 -192h-193zM831 1174l41 192 h192l-40 -192h-193z" />
<glyph unicode="&#x100;" horiz-adv-x="1382" d="M59 0l822 1440h231l209 -1440h-223l-49 348h-596l-197 -348h-197zM547 510h477q-86 616 -86 700v15l-127 -244zM621 1643l35 164h835l-34 -164h-836z" />
<glyph unicode="&#x101;" horiz-adv-x="1007" d="M131 207q0 127 89 199.5t255 113.5q139 35 322 39q25 125 24 152q0 53 -33.5 95t-103.5 42q-78 0 -148.5 -20.5t-101.5 -37t-98 -55.5q18 160 24 170q4 4 19 10q166 78 338 78q147 0 226 -81t79 -185q0 -31 -12 -92l-136 -635h-192l27 131q-160 -147 -377 -147 q-106 0 -153.5 69.5t-47.5 153.5zM326 246q4 -43 43 -76t110 -33q82 0 157 40t99 110q6 16 41 176q-207 -8 -322.5 -61.5t-125.5 -131.5zM348 1090l34 164h777l-35 -164h-776z" />
<glyph unicode="&#x102;" horiz-adv-x="1382" d="M59 0l822 1440h231l209 -1440h-223l-49 348h-596l-197 -348h-197zM547 510h477q-86 616 -86 700v15l-127 -244zM678 1759q0 55 6 62h156q-2 -8 -2 -25q0 -74 61.5 -105.5t128.5 -31.5q94 0 157.5 41t80.5 82l16 39h156q-41 -156 -173 -244t-274 -88q-135 0 -224 74.5 t-89 195.5z" />
<glyph unicode="&#x103;" horiz-adv-x="1007" d="M131 207q0 127 89 199.5t255 113.5q139 35 322 39q25 125 24 152q0 53 -33.5 95t-103.5 42q-78 0 -148.5 -20.5t-101.5 -37t-98 -55.5q18 160 24 170q4 4 19 10q166 78 338 78q147 0 226 -81t79 -185q0 -31 -12 -92l-136 -635h-192l27 131q-160 -147 -377 -147 q-106 0 -153.5 69.5t-47.5 153.5zM326 246q4 -43 43 -76t110 -33q82 0 157 40t99 110q6 16 41 176q-207 -8 -322.5 -61.5t-125.5 -131.5zM444 1307q0 29 7 59h155q0 -2 -1 -10t-1 -10q0 -68 59.5 -97.5t133.5 -29.5q61 0 109 15t74 36.5t42 43t22 38.5l5 14h155 q-37 -147 -167 -231t-275 -84q-135 0 -226.5 71.5t-91.5 184.5z" />
<glyph unicode="&#x104;" horiz-adv-x="1382" d="M59 0l822 1440h231l209 -1440h-31q-53 0 -160.5 -69.5t-107.5 -108.5q0 -33 57 -33q53 0 176 37l9 -148q-137 -55 -230 -55q-80 0 -126 33t-46 86q0 70 72 140.5t164 117.5l-49 348h-596l-197 -348h-197zM547 510h477q-86 616 -86 700v15l-127 -244z" />
<glyph unicode="&#x105;" horiz-adv-x="1007" d="M131 207q0 127 89 199.5t255 113.5q139 35 322 39q25 125 24 152q0 53 -33.5 95t-103.5 42q-78 0 -148.5 -20.5t-101.5 -37t-98 -55.5q18 160 24 170q4 4 19 10q166 78 338 78q147 0 226 -81t79 -185q0 -31 -12 -92l-136 -635h-29.5t-18 -2t-13.5 -4t-16.5 -9.5 t-26.5 -13.5q-156 -80 -176 -151q18 -31 63 -31q63 0 181 37l8 -148q-121 -55 -228 -55q-80 0 -126 33t-46 86q0 70 72 140.5t164 117.5l27 131q-160 -147 -377 -147q-106 0 -153.5 69.5t-47.5 153.5zM326 246q4 -43 43 -76t110 -33q82 0 157 40t99 110q6 16 41 176 q-207 -8 -322.5 -61.5t-125.5 -131.5z" />
<glyph unicode="&#x106;" horiz-adv-x="1374" d="M264 547q0 223 121 434t329 343t441 132q190 0 379 -70l-82 -212l-18 14q-20 16 -30.5 23.5t-35.5 22.5t-48.5 23.5t-54 18.5t-68.5 14t-79 4q-248 0 -442.5 -225t-194.5 -502q0 -184 103.5 -311t287.5 -127q102 0 180 18.5t114 36t139 74.5l-23 -178 q-135 -70 -223 -92.5t-221 -22.5q-262 0 -418 166t-156 416zM819 1557l310 162l45 20l41 4h168l71 -2l-362 -162l-51 -20l-35 -2h-187z" />
<glyph unicode="&#x107;" horiz-adv-x="956" d="M162 373q0 231 178 425.5t422 194.5q109 0 170 -19.5t143 -68.5l-63 -168q-55 39 -81 54.5t-79 29t-129 13.5q-82 0 -148.5 -36t-105.5 -89.5t-65.5 -119t-36 -119.5t-9.5 -97q0 -106 56.5 -168t160.5 -62q78 0 151 19.5t112 39t98 54.5l-23 -170q-193 -102 -372 -102 q-174 0 -276.5 110.5t-102.5 278.5zM545 1102l325 264h197q-109 -78 -235 -170q-96 -72 -116 -83t-38 -11h-4h-129z" />
<glyph unicode="&#x108;" horiz-adv-x="1374" d="M264 547q0 223 121 434t329 343t441 132q190 0 379 -70l-82 -212l-18 14q-20 16 -30.5 23.5t-35.5 22.5t-48.5 23.5t-54 18.5t-68.5 14t-79 4q-248 0 -442.5 -225t-194.5 -502q0 -184 103.5 -311t287.5 -127q102 0 180 18.5t114 36t139 74.5l-23 -178 q-135 -70 -223 -92.5t-221 -22.5q-262 0 -418 166t-156 416zM815 1489l342 348h190l160 -348h-153l-142 229l-241 -229h-156z" />
<glyph unicode="&#x109;" horiz-adv-x="956" d="M162 373q0 231 178 425.5t422 194.5q109 0 170 -19.5t143 -68.5l-63 -168q-55 39 -81 54.5t-79 29t-129 13.5q-82 0 -148.5 -36t-105.5 -89.5t-65.5 -119t-36 -119.5t-9.5 -97q0 -106 56.5 -168t160.5 -62q78 0 151 19.5t112 39t98 54.5l-23 -170q-193 -102 -372 -102 q-174 0 -276.5 110.5t-102.5 278.5zM439 1102l328 280h157l207 -282h-155l-150 186h-2q-51 -41 -121 -98q-78 -63 -96.5 -75.5t-32.5 -12.5h-86q-8 0 -24.5 1t-24.5 1z" />
<glyph unicode="&#x10a;" horiz-adv-x="1374" d="M264 547q0 223 121 434t329 343t441 132q190 0 379 -70l-82 -212l-18 14q-20 16 -30.5 23.5t-35.5 22.5t-48.5 23.5t-54 18.5t-68.5 14t-79 4q-248 0 -442.5 -225t-194.5 -502q0 -184 103.5 -311t287.5 -127q102 0 180 18.5t114 36t139 74.5l-23 -178 q-135 -70 -223 -92.5t-221 -22.5q-262 0 -418 166t-156 416zM1056 1561l51 240h240l-51 -240h-240z" />
<glyph unicode="&#x10b;" horiz-adv-x="956" d="M162 373q0 231 178 425.5t422 194.5q109 0 170 -19.5t143 -68.5l-63 -168q-55 39 -81 54.5t-79 29t-129 13.5q-82 0 -148.5 -36t-105.5 -89.5t-65.5 -119t-36 -119.5t-9.5 -97q0 -106 56.5 -168t160.5 -62q78 0 151 19.5t112 39t98 54.5l-23 -170q-193 -102 -372 -102 q-174 0 -276.5 110.5t-102.5 278.5zM682 1184l51 240h240l-51 -240h-240z" />
<glyph unicode="&#x10c;" horiz-adv-x="1374" d="M264 547q0 223 121 434t329 343t441 132q190 0 379 -70l-82 -212l-18 14q-20 16 -30.5 23.5t-35.5 22.5t-48.5 23.5t-54 18.5t-68.5 14t-79 4q-248 0 -442.5 -225t-194.5 -502q0 -184 103.5 -311t287.5 -127q102 0 180 18.5t114 36t139 74.5l-23 -178 q-135 -70 -223 -92.5t-221 -22.5q-262 0 -418 166t-156 416zM856 1821h156l162 -219q55 47 133 114q90 78 108.5 91.5t40.5 13.5h127l-348 -332h-172z" />
<glyph unicode="&#x10d;" horiz-adv-x="956" d="M162 373q0 231 178 425.5t422 194.5q109 0 170 -19.5t143 -68.5l-63 -168q-55 39 -81 54.5t-79 29t-129 13.5q-82 0 -148.5 -36t-105.5 -89.5t-65.5 -119t-36 -119.5t-9.5 -97q0 -106 56.5 -168t160.5 -62q78 0 151 19.5t112 39t98 54.5l-23 -170q-193 -102 -372 -102 q-174 0 -276.5 110.5t-102.5 278.5zM446 1366h154l186 -186l265 186h92l63 -2l-358 -266h-156z" />
<glyph unicode="&#x10e;" horiz-adv-x="1527" d="M166 0l301 1421l2 2h549q158 0 272.5 -55t173 -144t84 -178.5t25.5 -181.5q0 -309 -220 -564t-522 -294q-43 -6 -131 -6h-534zM410 164h282q246 0 402 115q139 102 204.5 269t65.5 324q0 59 -11.5 111.5t-41 105t-75.5 89t-121 59.5t-173 23h-299zM600 1821h156l162 -219 q55 47 133 114q90 78 108.5 91.5t40.5 13.5h127l-348 -332h-172z" />
<glyph unicode="&#x10f;" horiz-adv-x="1394" d="M158 338q0 154 66.5 303.5t179 245.5t235.5 96q162 0 276 -119l117 559h193l-301 -1423h-199l27 123q-156 -139 -326 -139q-119 0 -193.5 99t-74.5 255zM352 342q0 -111 62.5 -158t146.5 -47q57 0 109.5 26.5t77 51.5t28.5 37l109 502q-61 76 -154 75q-164 0 -262 -114 q-61 -74 -89 -189.5t-28 -183.5zM1286 1151l105 152h-72l51 239h240l-49 -239l-154 -152h-121z" />
<glyph unicode="&#x110;" horiz-adv-x="1527" d="M104 621l33 155h193l137 645l2 2h549q158 0 272.5 -55t173 -144t84 -178.5t25.5 -181.5q0 -309 -220 -564t-522 -294q-43 -6 -131 -6h-534l133 621h-195zM410 164h282q246 0 402 115q139 102 204.5 269t65.5 324q0 59 -11.5 111.5t-41 105t-75.5 89t-121 59.5t-173 23 h-299l-102 -484h372l-32 -155h-375z" />
<glyph unicode="&#x111;" horiz-adv-x="1058" d="M158 338q0 154 66.5 303.5t179 245.5t235.5 96q162 0 276 -119l52 254h-365l33 154h366l31 151h193l-31 -151h201l-33 -154h-201l-237 -1118h-199l27 123q-156 -139 -326 -139q-119 0 -193.5 99t-74.5 255zM352 342q0 -111 62.5 -158t146.5 -47q57 0 109.5 26.5t77 51.5 t28.5 37l109 502q-61 76 -154 75q-164 0 -262 -114q-61 -74 -89 -189.5t-28 -183.5z" />
<glyph unicode="&#x112;" horiz-adv-x="1280" d="M164 0l301 1417h995l-35 -162h-780l-92 -436h719l-33 -164h-723l-102 -483h811l-37 -172h-1024zM606 1643l35 164h835l-34 -164h-836z" />
<glyph unicode="&#x113;" horiz-adv-x="964" d="M152 377q0 231 176 422.5t397 191.5q78 0 142.5 -23.5t114.5 -98t50 -193.5q0 -41 -20 -164h-658q-2 -2 -5 -20.5t-7 -45t-4 -45.5q0 -113 64.5 -188.5t175.5 -75.5q162 0 352 117l-21 -166q-188 -104 -364 -104q-180 0 -286.5 112.5t-106.5 280.5zM356 1090l34 164h777 l-35 -164h-776zM401 633h467q-2 117 -55 161t-123 44q-84 0 -161 -56.5t-128 -148.5z" />
<glyph unicode="&#x116;" horiz-adv-x="1280" d="M164 0l301 1417h995l-35 -162h-780l-92 -436h719l-33 -164h-723l-102 -483h811l-37 -172h-1024zM886 1561l51 240h240l-51 -240h-240z" />
<glyph unicode="&#x117;" horiz-adv-x="964" d="M152 377q0 231 176 422.5t397 191.5q78 0 142.5 -23.5t114.5 -98t50 -193.5q0 -41 -20 -164h-658q-2 -2 -5 -20.5t-7 -45t-4 -45.5q0 -113 64.5 -188.5t175.5 -75.5q162 0 352 117l-21 -166q-188 -104 -364 -104q-180 0 -286.5 112.5t-106.5 280.5zM401 633h467 q-2 117 -55 161t-123 44q-84 0 -161 -56.5t-128 -148.5zM645 1184l51 240h240l-51 -240h-240z" />
<glyph unicode="&#x118;" horiz-adv-x="1280" d="M164 0l301 1417h995l-35 -162h-780l-92 -436h719l-33 -164h-723l-102 -483h811l-37 -172h-76h-30t-18 -2t-13 -4t-16.5 -9.5t-26.5 -13.5q-63 -29 -123 -73.5t-60 -75.5q0 -27 49 -33h11q51 0 174 37l6 -148q-125 -55 -227 -55q-78 0 -125 33t-47 86q0 125 233 258h-735z " />
<glyph unicode="&#x119;" horiz-adv-x="964" d="M152 379q0 229 176 421.5t397 192.5q125 0 216 -72.5t91 -244.5q0 -57 -20 -164h-658q-2 -2 -5 -20.5t-7 -45t-4 -45.5q0 -113 64.5 -188.5t175.5 -75.5q162 0 352 117l-21 -166q-29 -14 -110.5 -53t-132 -64.5t-103.5 -66.5t-67 -78v-12q8 -27 57 -27q55 0 182 39 l8 -148q-129 -55 -227 -55q-92 0 -133 37t-41 82q0 119 205 242q-186 2 -290.5 114.5t-104.5 280.5zM401 633h467q-2 117 -55 161t-123 44q-84 0 -161 -56.5t-128 -148.5z" />
<glyph unicode="&#x11a;" horiz-adv-x="1280" d="M164 0l301 1417h995l-35 -162h-780l-92 -436h719l-33 -164h-723l-102 -483h811l-37 -172h-1024zM635 1821h156l162 -219q55 47 133 114q90 78 108.5 91.5t40.5 13.5h127l-348 -332h-172z" />
<glyph unicode="&#x11b;" horiz-adv-x="964" d="M152 377q0 231 176 422.5t397 191.5q78 0 142.5 -23.5t114.5 -98t50 -193.5q0 -41 -20 -164h-658q-2 -2 -5 -20.5t-7 -45t-4 -45.5q0 -113 64.5 -188.5t175.5 -75.5q162 0 352 117l-21 -166q-188 -104 -364 -104q-180 0 -286.5 112.5t-106.5 280.5zM401 633h467 q-2 117 -55 161t-123 44q-84 0 -161 -56.5t-128 -148.5zM421 1366h154l186 -186l265 186h92l63 -2l-358 -266h-156z" />
<glyph unicode="&#x11c;" horiz-adv-x="1433" d="M264 547q0 168 72 332.5t191.5 291.5t285.5 206t342 79q125 0 214 -22.5t190 -75.5l-82 -213q-84 80 -138 104q-92 45 -223 45q-248 0 -441.5 -226t-193.5 -501q0 -193 106.5 -315.5t278.5 -122.5q98 0 260 35l72 346h-256l35 162h455l-129 -606q-242 -100 -469 -101 q-252 0 -411 165t-159 417zM815 1489l342 348h190l160 -348h-153l-142 229l-241 -229h-156z" />
<glyph unicode="&#x11d;" horiz-adv-x="1058" d="M88 -285l35 168q92 -55 168 -80.5t184 -25.5q96 0 157.5 60.5t84.5 131.5q2 4 57 264q-137 -182 -321 -182q-129 0 -209 93.5t-80 234.5q0 135 69.5 275.5t190.5 234.5t250 94q49 0 91 -14.5t66.5 -36t43 -43t26.5 -35.5l8 -14l31 143h193l-195 -917q-29 -123 -57 -179 q-18 -35 -49 -72.5t-83.5 -84.5t-132 -77t-170.5 -30q-188 0 -358 92zM365 424q0 -96 61 -157.5t149 -61.5q86 0 157 75.5t104 231.5q39 160 38 176q0 41 -33.5 91t-107.5 50q-135 0 -251.5 -130t-116.5 -275zM385 1102l328 280h157l207 -282h-155l-150 186h-2 q-51 -41 -121 -98q-78 -63 -96.5 -75.5t-32.5 -12.5h-86q-8 0 -24.5 1t-24.5 1z" />
<glyph unicode="&#x11e;" horiz-adv-x="1433" d="M264 547q0 168 72 332.5t191.5 291.5t285.5 206t342 79q125 0 214 -22.5t190 -75.5l-82 -213q-84 80 -138 104q-92 45 -223 45q-248 0 -441.5 -226t-193.5 -501q0 -193 106.5 -315.5t278.5 -122.5q98 0 260 35l72 346h-256l35 162h455l-129 -606q-242 -100 -469 -101 q-252 0 -411 165t-159 417zM840 1759q0 55 6 62h155q-2 -8 -2 -25q0 -74 60.5 -105.5t128.5 -31.5q59 0 107 16.5t75 41t44.5 48t23.5 39.5l6 17h153q-41 -156 -172 -244t-272 -88q-135 0 -224 74.5t-89 195.5z" />
<glyph unicode="&#x11f;" horiz-adv-x="1058" d="M88 -285l35 168q92 -55 168 -80.5t184 -25.5q96 0 157.5 60.5t84.5 131.5q2 4 57 264q-137 -182 -321 -182q-129 0 -209 93.5t-80 234.5q0 135 69.5 275.5t190.5 234.5t250 94q49 0 91 -14.5t66.5 -36t43 -43t26.5 -35.5l8 -14l31 143h193l-195 -917q-29 -123 -57 -179 q-18 -35 -49 -72.5t-83.5 -84.5t-132 -77t-170.5 -30q-188 0 -358 92zM365 424q0 -96 61 -157.5t149 -61.5q86 0 157 75.5t104 231.5q39 160 38 176q0 41 -33.5 91t-107.5 50q-135 0 -251.5 -130t-116.5 -275zM481 1352q0 63 8 71h154q-2 -12 -2 -37q0 -66 53.5 -107.5 t130.5 -41.5q59 0 107.5 19.5t75 47t46 54t25.5 47.5l6 18h156q-39 -162 -172 -258t-278 -96q-133 0 -221.5 79t-88.5 204z" />
<glyph unicode="&#x120;" horiz-adv-x="1433" d="M264 547q0 168 72 332.5t191.5 291.5t285.5 206t342 79q125 0 214 -22.5t190 -75.5l-82 -213q-84 80 -138 104q-92 45 -223 45q-248 0 -441.5 -226t-193.5 -501q0 -193 106.5 -315.5t278.5 -122.5q98 0 260 35l72 346h-256l35 162h455l-129 -606q-242 -100 -469 -101 q-252 0 -411 165t-159 417zM1056 1561l51 240h240l-51 -240h-240z" />
<glyph unicode="&#x121;" horiz-adv-x="1058" d="M88 -285l35 168q92 -55 168 -80.5t184 -25.5q96 0 157.5 60.5t84.5 131.5q2 4 57 264q-137 -182 -321 -182q-129 0 -209 93.5t-80 234.5q0 135 69.5 275.5t190.5 234.5t250 94q49 0 91 -14.5t66.5 -36t43 -43t26.5 -35.5l8 -14l31 143h193l-195 -917q-29 -123 -57 -179 q-18 -35 -49 -72.5t-83.5 -84.5t-132 -77t-170.5 -30q-188 0 -358 92zM365 424q0 -96 61 -157.5t149 -61.5q86 0 157 75.5t104 231.5q39 160 38 176q0 41 -33.5 91t-107.5 50q-135 0 -251.5 -130t-116.5 -275zM629 1184l51 240h240l-51 -240h-240z" />
<glyph unicode="&#x124;" horiz-adv-x="1449" d="M164 0l301 1421l2 2h213l-127 -602h690l127 602h215l-303 -1423h-215l141 657h-690l-139 -657h-215zM690 1489l342 348h190l160 -348h-153l-142 229l-241 -229h-156z" />
<glyph unicode="&#x125;" horiz-adv-x="1058" d="M131 0l301 1421l2 2h193l-131 -618q152 178 344 178q240 0 239 -205q0 -43 -16 -129l-139 -649h-197l135 639q10 57 10 72q0 119 -170 118q-20 0 -40.5 -4t-55.5 -20.5t-62.5 -46t-56 -88t-45.5 -135.5l-114 -535h-197zM506 1532l328 280h157l207 -282h-155l-150 186h-2 q-51 -41 -121 -98q-78 -63 -96.5 -75.5t-32.5 -12.5h-86q-8 0 -24.5 1t-24.5 1z" />
<glyph unicode="&#x127;" horiz-adv-x="1185" d="M242 1040l32 156h238l49 227h193l-49 -227h305l-33 -156h-305l-49 -235q152 178 344 178q240 0 239 -205q0 -43 -16 -129l-139 -649h-197l135 639q10 57 10 72q0 119 -170 118q-20 0 -40.5 -4t-55.5 -20.5t-62.5 -46t-56 -88t-45.5 -135.5l-112 -535h-199l221 1040h-237z " />
<glyph unicode="&#x12a;" horiz-adv-x="546" d="M164 0l301 1421l2 2h213l-301 -1423h-215zM211 1559l34 164h777l-35 -164h-776z" />
<glyph unicode="&#x12b;" horiz-adv-x="460" d="M72 1090l34 164h777l-35 -164h-776zM133 0l205 967h194l-206 -967h-193z" />
<glyph unicode="&#x130;" horiz-adv-x="546" d="M164 0l301 1421l2 2h213l-301 -1423h-215zM491 1602l51 240h240l-51 -240h-240z" />
<glyph unicode="&#x131;" horiz-adv-x="460" d="M133 0l205 967h194l-206 -967h-193z" />
<glyph unicode="&#x134;" horiz-adv-x="989" d="M100 51l76 195q49 -68 98 -92q57 -31 134 -31q246 0 286 199l234 1099l2 2h209l-226 -1054q-25 -111 -43 -156q-113 -248 -421 -248q-187 0 -349 86zM698 1489l342 348h190l160 -348h-153l-142 229l-241 -229h-156z" />
<glyph unicode="&#x135;" horiz-adv-x="520" d="M-219 -299l86 156q70 -53 141 -54q45 0 91 15.5t63 46.5q8 12 12 43l225 1059h193l-225 -1059q-27 -109 -93 -170q-98 -96 -241 -96q-137 0 -252 59zM176 1102l328 280h157l207 -282h-155l-150 186h-2q-51 -41 -121 -98q-78 -63 -96.5 -75.5t-32.5 -12.5h-86 q-8 0 -24.5 1t-24.5 1z" />
<glyph unicode="&#x139;" horiz-adv-x="1161" d="M164 0l301 1421l2 2h213l-268 -1259h692l-35 -164h-905zM299 1557l310 162l45 20l41 4h168l71 -2l-362 -162l-51 -20l-35 -2h-187z" />
<glyph unicode="&#x13a;" horiz-adv-x="460" d="M133 0l301 1421l2 2h193l-303 -1423h-193zM364 1557l310 162l45 20l41 4h168l71 -2l-362 -162l-51 -20l-35 -2h-187z" />
<glyph unicode="&#x13d;" horiz-adv-x="1161" d="M164 0l301 1421l2 2h213l-268 -1259h692l-35 -164h-905zM881 1270l102 153h-72l52 240h241l-45 -207l-10 -33q-27 -33 -84 -89t-66 -64h-118z" />
<glyph unicode="&#x13e;" horiz-adv-x="798" d="M133 0l301 1421l2 2h193l-303 -1423h-193zM690 1151l105 152h-74l51 239h242l-51 -239l-154 -152h-119z" />
<glyph unicode="&#x141;" horiz-adv-x="1339" d="M252 575l254 181l141 665v2h215l-104 -487l299 213l78 -125l-422 -301l-119 -559h690l-35 -164h-905l117 543l-131 -92z" />
<glyph unicode="&#x142;" horiz-adv-x="643" d="M141 588l242 172l139 661l2 2h193l-107 -501l160 114l74 -118l-277 -199l-153 -719h-193l119 557l-125 -88z" />
<glyph unicode="&#x143;" horiz-adv-x="1449" d="M170 0l301 1421l2 2h299l356 -1230l261 1228v2h192l-303 -1423h-299l-356 1229l-261 -1229h-192zM770 1557l310 162l45 20l41 4h168l71 -2l-362 -162l-51 -20l-35 -2h-187z" />
<glyph unicode="&#x144;" horiz-adv-x="1058" d="M131 0l205 967h190l-37 -168q158 184 351 184q240 0 239 -205q0 -43 -16 -129l-139 -649h-197l135 639q10 57 10 72q0 119 -170 118q-20 0 -40.5 -4t-55.5 -20.5t-62.5 -46t-56 -88t-45.5 -135.5l-114 -535h-197zM565 1102l325 264h197q-109 -78 -235 -170 q-96 -72 -116 -83t-38 -11h-4h-129z" />
<glyph unicode="&#x147;" horiz-adv-x="1449" d="M170 0l301 1421l2 2h299l356 -1230l261 1228v2h192l-303 -1423h-299l-356 1229l-261 -1229h-192zM747 1821h156l162 -219q55 47 133 114q90 78 108.5 91.5t40.5 13.5h127l-348 -332h-172z" />
<glyph unicode="&#x148;" horiz-adv-x="1058" d="M131 0l205 967h190l-37 -168q158 184 351 184q240 0 239 -205q0 -43 -16 -129l-139 -649h-197l135 639q10 57 10 72q0 119 -170 118q-20 0 -40.5 -4t-55.5 -20.5t-62.5 -46t-56 -88t-45.5 -135.5l-114 -535h-197zM387 1366h154l186 -186l265 186h92l63 -2l-358 -266h-156 z" />
<glyph unicode="&#x150;" horiz-adv-x="1603" d="M250 541q0 231 124 444t323.5 342t412.5 129q240 0 390.5 -164t150.5 -415q0 -231 -124 -444.5t-322.5 -340.5t-411.5 -127q-236 0 -389.5 161t-153.5 415zM467 551q0 -215 107.5 -319.5t252.5 -104.5q133 0 251 72.5t197 186.5t124 249t45 262q0 188 -103.5 294.5 t-265.5 106.5q-240 0 -424 -214t-184 -533zM755 1557l310 162l45 20l41 4h168l71 -2l-362 -162l-51 -20l-35 -2h-187zM1114 1557l310 162l45 20l41 4h168l71 -2l-362 -162l-51 -20l-35 -2h-187z" />
<glyph unicode="&#x151;" d="M150 373q0 236 184 428t414 192q168 0 274 -113.5t106 -285.5q0 -244 -185 -427t-411 -183q-170 0 -276 110.5t-106 278.5zM346 365q0 -121 64.5 -171.5t156.5 -50.5q109 0 189 57.5t115.5 143.5t51 156.5t15.5 126.5q0 115 -65.5 163t-157.5 48q-90 0 -161 -39 t-108.5 -94.5t-61.5 -126t-31 -121.5t-7 -92zM457 1102l323 264h197q-346 -250 -352 -254q-18 -10 -41 -10h-127zM813 1102l324 264h198q-84 -61 -198 -143q-123 -90 -147.5 -105.5t-49.5 -15.5h-127z" />
<glyph unicode="&#x152;" horiz-adv-x="2064" d="M166 547q0 227 127 439t334 341t430 129q61 0 163.5 -16.5t264.5 -16.5h762l-35 -163h-746l-92 -439h684l-35 -164h-684l-104 -485h774l-35 -172h-794q-166 -2 -269.5 -18.5t-171.5 -16.5q-254 0 -413.5 166t-159.5 416zM383 584q0 -197 105.5 -330t297.5 -133 q152 0 211 78q47 63 97 293q4 16 20 94q106 504 107 565v10q0 47 -12.5 77t-42 43t-52 16t-67.5 6h-15q-256 0 -452.5 -216t-196.5 -503z" />
<glyph unicode="&#x153;" horiz-adv-x="1673" d="M150 375q0 238 181 427t404 189q113 0 197 -53t129 -137q180 190 395 190q117 0 201 -69.5t84 -237.5q0 -76 -21 -172h-618q-14 -78 -15 -115q0 -111 58.5 -185.5t165.5 -74.5q152 0 327 117l-20 -166q-176 -104 -344 -104q-137 0 -220 59t-120 135q-39 -37 -63.5 -56.5 t-82 -59t-126 -59t-142.5 -19.5q-166 0 -268 110.5t-102 280.5zM336 360q0 -121 63.5 -172t153.5 -51t159.5 44t106.5 103.5t60.5 134.5t31 125t7.5 85q0 113 -63.5 161t-154.5 48q-92 0 -161.5 -41t-106.5 -98.5t-60.5 -130t-29.5 -122t-6 -86.5zM1149 633h424 q0 205 -152 205q-78 0 -151.5 -58.5t-120.5 -146.5z" />
<glyph unicode="&#x154;" horiz-adv-x="1374" d="M166 0l301 1421l2 2h508q137 0 240.5 -32.5t156.5 -86t78 -108.5t25 -111q0 -145 -132.5 -265t-308.5 -161l277 -659h-215l-256 635h-332v-2l-135 -633h-209zM543 788h268q147 0 241.5 28t125 56.5t65.5 81.5q31 57 31 117q0 150 -195 180q-49 8 -147 9h-289zM688 1557 l310 162l45 20l41 4h168l71 -2l-362 -162l-51 -20l-35 -2h-187z" />
<glyph unicode="&#x155;" horiz-adv-x="708" d="M133 0l205 967h184l-43 -209q176 219 408 225l-37 -174q-158 -2 -268.5 -85t-141.5 -189l-114 -535h-193zM387 1102l322 264h198q-96 -70 -219 -160q-109 -78 -129 -91t-41 -13h-4h-127z" />
<glyph unicode="&#x158;" horiz-adv-x="1374" d="M166 0l301 1421l2 2h508q137 0 240.5 -32.5t156.5 -86t78 -108.5t25 -111q0 -145 -132.5 -265t-308.5 -161l277 -659h-215l-256 635h-332v-2l-135 -633h-209zM543 788h268q147 0 241.5 28t125 56.5t65.5 81.5q31 57 31 117q0 150 -195 180q-49 8 -147 9h-289zM657 1821 h156l162 -219q55 47 133 114q90 78 108.5 91.5t40.5 13.5h127l-348 -332h-172z" />
<glyph unicode="&#x159;" horiz-adv-x="708" d="M133 0l205 967h184l-43 -209q176 219 408 225l-37 -174q-158 -2 -268.5 -85t-141.5 -189l-114 -535h-193zM360 1366h154l186 -186l265 186h92l63 -2l-358 -266h-156z" />
<glyph unicode="&#x15a;" horiz-adv-x="1193" d="M119 109l82 210q47 -47 84 -76.5t131 -66.5t202 -37q150 0 248.5 90t98.5 193q0 127 -129 178q-33 14 -141.5 39t-141.5 39q-90 37 -154.5 112.5t-64.5 186.5q0 184 171 331.5t408 147.5q205 0 379 -98l-82 -213q-49 47 -72.5 67.5t-96 48t-164.5 27.5q-145 0 -242.5 -79 t-97.5 -169q0 -66 47 -108.5t103 -58t140 -36t121 -34.5q82 -33 150.5 -113t68.5 -209q0 -197 -174 -356.5t-409 -159.5q-260 1 -465 144zM612 1557l310 162l45 20l41 4h168l71 -2l-362 -162l-51 -20l-35 -2h-187z" />
<glyph unicode="&#x15b;" horiz-adv-x="823" d="M76 80l69 176q135 -113 312 -113q113 0 154.5 48.5t41.5 97.5q0 61 -59 88q-23 12 -104.5 26.5t-149.5 47t-102 102.5q-23 49 -23 96q0 27 8 61.5t26.5 81t59.5 90.5t99 70q86 41 231 41q152 0 299 -69l-64 -168q-72 43 -133 63.5t-163 20.5q-55 0 -93.5 -15.5t-53.5 -40 t-21.5 -43t-6.5 -34.5q0 -51 43 -74t124 -37t120 -31q152 -70 152 -219q0 -33 -7.5 -70.5t-33 -92t-68.5 -96.5t-124 -72.5t-187 -30.5q-188 0 -346 96zM461 1102l325 264h197q-109 -78 -235 -170q-96 -72 -116 -83t-38 -11h-4h-129z" />
<glyph unicode="&#x15c;" horiz-adv-x="1193" d="M119 109l82 210q47 -47 84 -76.5t131 -66.5t202 -37q150 0 248.5 90t98.5 193q0 127 -129 178q-33 14 -141.5 39t-141.5 39q-90 37 -154.5 112.5t-64.5 186.5q0 184 171 331.5t408 147.5q205 0 379 -98l-82 -213q-49 47 -72.5 67.5t-96 48t-164.5 27.5q-145 0 -242.5 -79 t-97.5 -169q0 -66 47 -108.5t103 -58t140 -36t121 -34.5q82 -33 150.5 -113t68.5 -209q0 -197 -174 -356.5t-409 -159.5q-260 1 -465 144zM574 1489l342 348h190l160 -348h-153l-142 229l-241 -229h-156z" />
<glyph unicode="&#x15d;" horiz-adv-x="823" d="M76 80l69 176q133 -113 308 -113q102 0 152 45t50 100.5t-61 88.5q-23 12 -104.5 26.5t-149.5 47t-102 102.5q-23 43 -23 96q0 49 20.5 103.5t64.5 111t132 93t205 36.5q154 0 301 -69l-64 -168q-137 84 -292 84q-90 0 -133 -40t-43 -93q0 -18 2 -27q4 -10 8 -17.5 t11 -14.5l11 -11t14.5 -8t16.5 -6t22.5 -6.5t25.5 -6.5t33.5 -7t39.5 -9q252 -51 252 -248q0 -49 -19.5 -105.5t-63.5 -117t-132 -100t-207 -39.5q-188 0 -344 96zM314 1102l328 280h157l207 -282h-155l-150 186h-2q-51 -41 -121 -98q-78 -63 -96.5 -75.5t-32.5 -12.5h-86 q-8 0 -24.5 1t-24.5 1z" />
<glyph unicode="&#x15e;" horiz-adv-x="1193" d="M119 109l82 210q47 -47 84 -76.5t131 -66.5t202 -37q150 0 248.5 90t98.5 193q0 127 -129 178q-33 12 -137.5 37t-145.5 41q-90 37 -154.5 112.5t-64.5 186.5q0 184 171 331.5t408 147.5q205 0 379 -98l-82 -213q-80 78 -131 102q-84 41 -202 41q-147 0 -243.5 -79 t-96.5 -169q0 -66 46 -107.5t101 -57t139 -36t125 -36.5q82 -33 150.5 -113t68.5 -209q0 -197 -175 -356.5t-408 -159.5q-260 1 -465 144zM287 -334l223 297h156l-203 -297h-176z" />
<glyph unicode="&#x15f;" horiz-adv-x="823" d="M76 80l69 176q135 -113 312 -113q113 0 154.5 48.5t41.5 97.5q0 61 -59 88q-25 12 -106.5 26.5t-148.5 47t-101 102.5q-23 49 -23 96q0 27 8 61.5t26.5 81t59.5 90.5t99 70q90 41 231 41q152 0 299 -69l-64 -168q-72 43 -133 63.5t-163 20.5q-55 0 -93.5 -15.5t-53.5 -40 t-21.5 -43t-6.5 -34.5q0 -51 43 -74t124 -37t120 -31q152 -70 152 -219q0 -33 -7.5 -70.5t-33 -92t-68.5 -96.5t-124 -72.5t-187 -30.5q-188 0 -346 96zM115 -334l223 297h156l-203 -297h-176z" />
<glyph unicode="&#x160;" horiz-adv-x="1193" d="M119 109l82 210q47 -47 84 -76.5t131 -66.5t202 -37q150 0 248.5 90t98.5 193q0 127 -129 178q-33 14 -141.5 39t-141.5 39q-90 37 -154.5 112.5t-64.5 186.5q0 184 171 331.5t408 147.5q205 0 379 -98l-82 -213q-49 47 -72.5 67.5t-96 48t-164.5 27.5q-145 0 -242.5 -79 t-97.5 -169q0 -66 47 -108.5t103 -58t140 -36t121 -34.5q82 -33 150.5 -113t68.5 -209q0 -197 -174 -356.5t-409 -159.5q-260 1 -465 144zM618 1821h156l162 -219q55 47 133 114q90 78 108.5 91.5t40.5 13.5h127l-348 -332h-172z" />
<glyph unicode="&#x161;" horiz-adv-x="823" d="M76 80l69 176q135 -113 312 -113h6q74 0 121 30t59 59.5t12 56.5q0 55 -59 88q-23 12 -104.5 26.5t-150.5 47t-103 102.5q-23 49 -23 96q0 61 30.5 134t86.5 120q104 90 307 90q152 0 299 -69l-64 -168q-72 43 -133 63.5t-163 20.5q-55 0 -93.5 -15.5t-53.5 -40 t-21.5 -43t-6.5 -34.5q0 -53 43 -76t125 -36t121 -30q63 -29 106.5 -85t43.5 -134q0 -33 -7.5 -69.5t-33 -92t-68.5 -97.5t-124 -72.5t-187 -30.5q-188 0 -346 96zM317 1366h154l186 -186l265 186h92l63 -2l-358 -266h-156z" />
<glyph unicode="&#x162;" horiz-adv-x="1484" d="M342 1251l35 162h1329l-35 -162h-557l-2 -2l-264 -1249h-215l266 1251h-557zM432 -334l223 297h156l-203 -297h-176z" />
<glyph unicode="&#x163;" horiz-adv-x="776" d="M176 -334l223 297h156l-203 -297h-176zM213 813l33 154h168l59 276h184l-59 -276h287l-33 -154h-287q-18 -88 -36.5 -173t-29 -133t-20.5 -94t-14 -70t-8 -45.5t-5 -33.5t-1 -24q0 -96 77 -97q92 0 193 72l8 -149q-188 -82 -350 -82q-131 0 -131 166v4q0 59 39 245 q8 41 30 148q35 160 58 266h-162z" />
<glyph unicode="&#x164;" horiz-adv-x="1484" d="M342 1251l35 162h1329l-35 -162h-557l-2 -2l-264 -1249h-215l266 1251h-557zM764 1821h156l162 -219q55 47 133 114q90 78 108.5 91.5t40.5 13.5h127l-348 -332h-172z" />
<glyph unicode="&#x165;" horiz-adv-x="776" d="M213 813l33 154h168l59 276h184l-59 -276h287l-33 -154h-287q-18 -88 -36.5 -173t-29 -133t-20.5 -94t-14 -70t-8 -45.5t-5 -33.5t-1 -24q0 -96 77 -97q92 0 193 72l8 -149q-201 -82 -350 -82q-131 0 -131 166v21t1 18.5t3 23.5t4 27.5t8 42t11.5 55.5t16.5 78t22.5 100 t27.5 132t35 165h-164zM791 1092l104 151h-72l51 242h240l-43 -205l-10 -35q-27 -33 -84 -89t-66 -64h-120z" />
<glyph unicode="&#x16a;" horiz-adv-x="1417" d="M256 377q0 37 25 160l186 884l2 2h213l-203 -952q-12 -70 -12 -111q0 -115 71.5 -173t204.5 -58q96 0 171 32t116 70.5t72 102t41 99.5t20 89l191 899l2 2h196l-190 -893l-6 -26q-4 -27 -8.5 -42.5t-16.5 -50t-24.5 -61t-34 -64.5t-48 -69t-64.5 -65.5t-81 -65.5 q-180 -121 -377 -121q-190 0 -318 115t-128 297zM637 1643l35 164h835l-34 -164h-836z" />
<glyph unicode="&#x16b;" horiz-adv-x="1058" d="M172 145q0 47 14 113l152 709h197l-146 -686q-16 -88 -16 -95q0 -35 29.5 -46t109.5 -11q74 0 132 25.5t88 62.5t48.5 74t22.5 61l6 27l125 588h196l-204 -967h-193l33 154q-182 -170 -422 -170q-172 -1 -172 161zM371 1090l34 164h777l-35 -164h-776z" />
<glyph unicode="&#x16c;" horiz-adv-x="1417" d="M256 377q0 37 25 160l186 884l2 2h213l-203 -952q-12 -70 -12 -111q0 -115 71.5 -173t204.5 -58q96 0 171 32t116 70.5t72 102t41 99.5t20 89l191 899l2 2h196l-190 -893l-6 -26q-4 -27 -8.5 -42.5t-16.5 -50t-24.5 -61t-34 -64.5t-48 -69t-64.5 -65.5t-81 -65.5 q-180 -121 -377 -121q-190 0 -318 115t-128 297zM711 1759q0 16 1 29.5t3 22t2 10.5h156q-4 -16 -5 -29q0 -59 55.5 -96t135.5 -37q90 0 163.5 44t92.5 118h153q-39 -156 -171 -244t-273 -88q-135 0 -224 74.5t-89 195.5z" />
<glyph unicode="&#x16d;" horiz-adv-x="1058" d="M172 145q0 47 14 113l152 709h197l-146 -686q-16 -88 -16 -95q0 -35 29.5 -46t109.5 -11q74 0 132 25.5t88 62.5t48.5 74t22.5 61l6 27l125 588h196l-204 -967h-193l33 154q-182 -170 -422 -170q-172 -1 -172 161zM436 1307q0 29 7 59h155q0 -2 -1 -10t-1 -10 q0 -68 58.5 -97.5t132.5 -29.5q61 0 110 15t75 36.5t42 43t22 38.5l5 14h153q-37 -145 -166 -230t-276 -85q-135 0 -225.5 71.5t-90.5 184.5z" />
<glyph unicode="&#x16e;" horiz-adv-x="1417" d="M256 377q0 37 25 160l186 884l2 2h213l-203 -952q-12 -70 -12 -111q0 -115 71.5 -173t204.5 -58q96 0 171 32t116 70.5t72 102t41 99.5t20 89l191 899l2 2h196l-190 -893l-6 -26q-4 -27 -8.5 -42.5t-16.5 -50t-24.5 -61t-34 -64.5t-48 -69t-64.5 -65.5t-81 -65.5 q-180 -121 -377 -121q-190 0 -318 115t-128 297zM805 1532q0 117 92 208t205 91q88 0 140 -55.5t52 -139.5q0 -121 -93 -211t-204 -90q-86 0 -139 55.5t-53 141.5zM926 1550q0 -23 7 -35t26.5 -18t27.5 -6t37 -2h20.5t21.5 1t18.5 2t20.5 4t16.5 8t16.5 12.5t12 17.5 t12 24.5t7 32.5q2 8 2 27q0 29 -15 42t-31.5 15t-49.5 2l-18 -2h-25.5t-24 -3t-25.5 -8t-20.5 -14.5t-19.5 -22.5t-11 -32.5t-5 -44.5z" />
<glyph unicode="&#x16f;" horiz-adv-x="1058" d="M172 145q0 47 14 113l152 709h197l-146 -686q-16 -88 -16 -95q0 -35 29.5 -46t109.5 -11q74 0 132 25.5t88 62.5t48.5 74t22.5 61l6 27l125 588h196l-204 -967h-193l33 154q-182 -170 -422 -170q-172 -1 -172 161zM545 1188q0 72 81 130t197 58q88 0 145.5 -39t57.5 -102 q0 -70 -80 -130.5t-196 -60.5q-88 0 -146.5 40.5t-58.5 103.5zM664 1180q0 -68 100 -68q143 0 143 129q0 70 -98 70h-4q-141 0 -141 -131z" />
<glyph unicode="&#x170;" horiz-adv-x="1417" d="M256 377q0 37 25 160l186 884l2 2h213l-203 -952q-12 -70 -12 -111q0 -115 71.5 -173t204.5 -58q96 0 171 32t116 70.5t72 102t41 99.5t20 89l191 899l2 2h196l-190 -893l-6 -26q-4 -27 -8.5 -42.5t-16.5 -50t-24.5 -61t-34 -64.5t-48 -69t-64.5 -65.5t-81 -65.5 q-180 -121 -377 -121q-190 0 -318 115t-128 297zM663 1557l310 162l45 20l41 4h168l71 -2l-362 -162l-51 -20l-35 -2h-187zM1022 1557l310 162l45 20l41 4h168l71 -2l-362 -162l-51 -20l-35 -2h-187z" />
<glyph unicode="&#x171;" horiz-adv-x="1058" d="M172 145q0 47 14 113l152 709h197l-146 -686q-16 -88 -16 -95q0 -35 29.5 -46t109.5 -11q74 0 132 25.5t88 62.5t48.5 74t22.5 61l6 27l125 588h196l-204 -967h-193l33 154q-182 -170 -422 -170q-172 -1 -172 161zM447 1102l325 264h197q-109 -78 -235 -170 q-96 -72 -116 -83t-38 -11h-4h-129zM805 1102l325 264h197q-109 -78 -235 -170q-96 -72 -116 -83t-38 -11h-4h-129z" />
<glyph unicode="&#x178;" horiz-adv-x="1382" d="M307 1423h254l303 -657l584 657h229l-729 -819q-33 -35 -39 -65l-114 -539h-211l116 541q2 10 2 22q0 16 -12 41zM731 1629l41 192h192l-40 -192h-193zM1149 1629l41 192h192l-40 -192h-193z" />
<glyph unicode="&#x179;" horiz-adv-x="1314" d="M119 0q20 94 24 105.5t35 44.5l1004 1114h-764l33 159h1046l-22 -106l-1039 -1153h805l-35 -164h-1087zM731 1557l310 162l45 20l41 4h168l71 -2l-362 -162l-51 -20l-35 -2h-187z" />
<glyph unicode="&#x17a;" horiz-adv-x="921" d="M59 0l21 102l706 715h-522l31 150h770q-20 -94 -29 -105q-2 -4 -22 -24l-674 -684h559l-33 -154h-807zM514 1102l325 264h197q-109 -78 -235 -170q-96 -72 -116 -83t-38 -11h-4h-129z" />
<glyph unicode="&#x17b;" horiz-adv-x="1314" d="M119 0q20 94 24 105.5t35 44.5l1004 1114h-764l33 159h1046l-22 -106l-1039 -1153h805l-35 -164h-1087zM938 1602l51 240h240l-51 -240h-240z" />
<glyph unicode="&#x17c;" horiz-adv-x="921" d="M59 0l21 102l706 715h-522l31 150h770q-20 -94 -29 -105q-2 -4 -22 -24l-674 -684h559l-33 -154h-807zM639 1184l51 240h240l-51 -240h-240z" />
<glyph unicode="&#x17d;" horiz-adv-x="1314" d="M119 0q20 94 24 105.5t35 44.5l1004 1114h-764l33 159h1046l-22 -106l-1039 -1153h805l-35 -164h-1087zM682 1821h156l162 -219q55 47 133 114q90 78 108.5 91.5t40.5 13.5h127l-348 -332h-172z" />
<glyph unicode="&#x17e;" horiz-adv-x="921" d="M59 0l21 102l706 715h-522l31 150h770q-20 -94 -29 -105q-2 -4 -22 -24l-674 -684h559l-33 -154h-807zM385 1366h154l186 -186l265 186h92l63 -2l-358 -266h-156z" />
<glyph unicode="&#x192;" horiz-adv-x="657" d="M201 0l172 813h-142l31 154h144q29 137 38 169.5t29 71.5q53 100 161.5 166t244.5 66q80 0 168 -17l-37 -174q-92 35 -166 35q-139 0 -193 -84q-12 -20 -57 -233h227l-33 -154h-223l-172 -813h-192z" />
<glyph unicode="&#x218;" horiz-adv-x="1193" d="M119 109l82 210q47 -47 84 -76.5t131 -66.5t202 -37q150 0 248.5 90t98.5 193q0 127 -129 178q-33 14 -141.5 39t-141.5 39q-90 37 -154.5 112.5t-64.5 186.5q0 184 171 331.5t408 147.5q205 0 379 -98l-82 -213q-49 47 -72.5 67.5t-96 48t-164.5 27.5q-145 0 -242.5 -79 t-97.5 -169q0 -66 47 -108.5t103 -58t140 -36t121 -34.5q82 -33 150.5 -113t68.5 -209q0 -197 -174 -356.5t-409 -159.5q-260 1 -465 144zM397 -462l84 157h-49l35 168h168l-31 -143l-6 -23l-117 -159h-84z" />
<glyph unicode="&#x219;" horiz-adv-x="823" d="M76 80l69 176q133 -113 308 -113q102 0 152 45t50 100.5t-61 88.5q-23 12 -104.5 26.5t-149.5 47t-102 102.5q-23 43 -23 96q0 49 20.5 103.5t64.5 111t132 93t205 36.5q154 0 301 -69l-64 -168q-137 84 -292 84q-90 0 -133 -40t-43 -93q0 -18 2 -27q4 -10 8 -17.5 t11 -14.5l11 -11t14.5 -8t16.5 -6t22.5 -6.5t25.5 -6.5t33.5 -7t39.5 -9q252 -51 252 -248q0 -49 -19.5 -105.5t-63.5 -117t-132 -100t-207 -39.5q-188 0 -344 96zM235 -444l84 157h-49l35 168h168l-31 -143l-6 -23l-117 -159h-84z" />
<glyph unicode="&#x21a;" horiz-adv-x="1484" d="M342 1251l35 162h1329l-35 -162h-557l-2 -2l-264 -1249h-215l266 1251h-557zM561 -428l84 157h-49l35 168h168l-31 -143l-6 -23l-117 -159h-84z" />
<glyph unicode="&#x21b;" horiz-adv-x="776" d="M198 -444l84 157h-49l35 168h168l-31 -143l-6 -23l-117 -159h-84zM213 813l33 154h168l59 276h184l-59 -276h287l-33 -154h-287q-25 -115 -48 -225.5t-32.5 -156.5t-18.5 -90t-11 -61.5t-2 -33.5q0 -102 77 -103q90 0 191 72l8 -149q-188 -82 -348 -82q-131 0 -131 178 q0 25 6 67.5t19.5 109.5t27.5 130t35.5 165.5t38.5 178.5h-164z" />
<glyph unicode="&#x2c6;" d="M424 1102l328 280h157l207 -282h-155l-150 186h-2q-51 -41 -121 -98q-78 -63 -96.5 -75.5t-32.5 -12.5h-86q-8 0 -24.5 1t-24.5 1z" />
<glyph unicode="&#x2c7;" d="M446 1366h154l186 -186l265 186h92l63 -2l-358 -266h-156z" />
<glyph unicode="&#x2d8;" d="M444 1307q0 29 7 59h155q0 -2 -1 -10t-1 -10q0 -68 58.5 -97.5t132.5 -29.5q61 0 110 15t75 36.5t42 43t22 38.5l5 14h153q-37 -145 -166 -230t-276 -85q-135 0 -225.5 71.5t-90.5 184.5z" />
<glyph unicode="&#x2d9;" horiz-adv-x="598" d="M459 1184l51 240h240l-51 -240h-240z" />
<glyph unicode="&#x2da;" horiz-adv-x="1495" d="M762 1188q0 70 80 129t196 59q88 0 146.5 -39t58.5 -102q0 -70 -79 -130.5t-197 -60.5q-88 0 -146.5 40.5t-58.5 103.5zM881 1180q0 -68 98 -68q145 0 145 129q0 70 -98 70h-4q-141 0 -141 -131z" />
<glyph unicode="&#x2db;" horiz-adv-x="598" d="M-137 -272q0 86 74.5 153.5t203.5 136t172 103.5h2l43 -121q-41 -31 -132 -76t-126 -90q-23 -29 -22 -43q0 -37 51 -37q76 0 160 103l108 -88v-2q-168 -197 -334 -197q-84 0 -142 44t-58 114z" />
<glyph unicode="&#x2dc;" d="M399 1044q23 102 99.5 178t171.5 76q55 0 136 -49t120 -49q20 0 36.5 10.5t25.5 24.5t15.5 28.5t8.5 26.5l4 10h153q-23 -111 -103.5 -183.5t-166.5 -72.5q-55 0 -136 50.5t-120 50.5q-66 0 -90 -101h-154z" />
<glyph unicode="&#x2dd;" d="M455 1102l325 264h197q-109 -78 -235 -170q-96 -72 -116 -83t-38 -11h-4h-129zM813 1102l325 264h197q-109 -78 -235 -170q-96 -72 -116 -83t-38 -11h-4h-129z" />
<glyph unicode="&#x374;" horiz-adv-x="417" d="M254 1059l238 364h196l-280 -364h-154z" />
<glyph unicode="&#x375;" horiz-adv-x="417" d="M-27 -365l281 365h154l-238 -365h-197z" />
<glyph unicode="&#x37a;" horiz-adv-x="239" d="M-68 -432q0 14 62 301h196q-66 -307 -73 -320l-6 -8q-37 -49 -97 -49q-35 0 -58.5 21.5t-23.5 54.5z" />
<glyph unicode="&#x37e;" horiz-adv-x="598" d="M129 -227l121 227h-72l51 240h240l-43 -205l-10 -35l-166 -227h-121zM332 727l51 240h240l-51 -240h-240z" />
<glyph unicode="&#x384;" horiz-adv-x="358" d="M205 1059l238 364h196l-280 -364h-154z" />
<glyph unicode="&#x385;" horiz-adv-x="598" d="M178 1065l29 131h180l-29 -131h-180zM385 1059l238 364h196l-280 -364h-154zM688 1065l27 131h180l-27 -131h-180z" />
<glyph unicode="&#x386;" horiz-adv-x="1382" d="M59 0l822 1440h231l209 -1440h-223l-49 348h-596l-197 -348h-197zM205 1059l238 364h196l-280 -364h-154zM547 510h477q-86 616 -86 700v15l-127 -244z" />
<glyph unicode="&#x387;" horiz-adv-x="598" d="M332 727l51 240h240l-51 -240h-240z" />
<glyph unicode="&#x388;" horiz-adv-x="1638" d="M205 1059l238 364h196l-280 -364h-154zM522 0l301 1417h995l-35 -162h-780l-92 -436h719l-33 -164h-723l-102 -483h811l-37 -172h-1024z" />
<glyph unicode="&#x389;" horiz-adv-x="1808" d="M205 1059l238 364h196l-280 -364h-154zM522 0l301 1421l2 2h213l-127 -602h690l127 602h215l-303 -1423h-215l141 657h-690l-139 -657h-215z" />
<glyph unicode="&#x38a;" horiz-adv-x="905" d="M205 1059l238 364h196l-280 -364h-154zM522 0l301 1421l2 2h213l-301 -1423h-215z" />
<glyph unicode="&#x38c;" horiz-adv-x="1781" d="M205 1059l238 364h196l-280 -364h-154zM428 541q0 231 124 444t323.5 342t412.5 129q240 0 390.5 -164t150.5 -415q0 -231 -124 -444.5t-322.5 -340.5t-411.5 -127q-236 0 -389.5 161t-153.5 415zM645 551q0 -215 107.5 -319.5t252.5 -104.5q133 0 251 72.5t197 186.5 t124 249t45 262q0 188 -103.5 294.5t-265.5 106.5q-240 0 -424 -214t-184 -533z" />
<glyph unicode="&#x38e;" horiz-adv-x="2031" d="M205 1059l238 364h196l-280 -364h-154zM718 1137q31 139 155 229t265 90q266 0 273 -375l-2 -67q23 63 54.5 126.5t86.5 141.5t138 126t179 48q123 0 207 -71.5t84 -186.5q0 -31 -6 -61h-197q2 12 2 32q0 115 -126 127q-33 -2 -48.5 -5t-56.5 -20.5t-68.5 -46t-64.5 -88 t-66 -141.5q-41 -115 -102 -407l-125 -588h-213l158 748q41 199 41 319q0 74 -16.5 123t-48.5 69.5t-54.5 26.5t-58.5 10q-154 -14 -193 -159h-197z" />
<glyph unicode="&#x38f;" horiz-adv-x="1730" d="M205 1059l238 364h196l-280 -364h-154zM272 0l37 172h356q-14 115 -97 326t-83 340q0 174 114 318t292 222t372 78q236 0 395.5 -118.5t159.5 -307.5q0 -106 -61 -228t-138 -215t-170 -213t-136 -202h356l-37 -172h-541q27 121 114 267.5t174 259t155.5 246.5t68.5 243 q0 145 -108.5 216t-265.5 71q-137 0 -253 -47.5t-197 -161t-81 -275.5q0 -125 63.5 -345t63.5 -345q0 -72 -12 -129h-541z" />
<glyph unicode="&#x390;" horiz-adv-x="567" d="M82 1065l29 131h180l-29 -131h-180zM133 180q0 31 14 103l146 684l2 2h197l-146 -682q-12 -49 -12 -80q0 -63 43 -64q55 0 84 113h139q-33 -129 -113.5 -200.5t-173.5 -71.5q-80 0 -130 55t-50 141zM289 1059l238 364h196l-280 -364h-154zM592 1065l27 131h180l-27 -131 h-180z" />
<glyph unicode="&#x391;" horiz-adv-x="1382" d="M59 0l822 1440h231l209 -1440h-223l-49 348h-596l-197 -348h-197zM547 510h477q-86 616 -86 700v15l-127 -244z" />
<glyph unicode="&#x392;" horiz-adv-x="1406" d="M168 0l301 1421l2 2h494q135 0 236.5 -30.5t153.5 -79.5t76.5 -100.5t24.5 -102.5q0 -115 -106.5 -215t-309.5 -150q102 -18 173 -58t104 -86t45 -83t12 -72q0 -147 -154.5 -281t-381.5 -159q-63 -6 -131 -6h-539zM408 164h237q10 0 28.5 -1t26.5 -1q203 0 337 77.5 t134 190.5q0 92 -89 155.5t-224 73.5q-61 4 -94 5h-248zM547 817h244q213 0 338.5 85t125.5 177q0 80 -106.5 130.5t-274.5 50.5h-233z" />
<glyph unicode="&#x393;" horiz-adv-x="1161" d="M164 0l301 1417h905l-35 -162h-690l-266 -1255h-215z" />
<glyph unicode="&#x394;" horiz-adv-x="1792" d="M88 0l993 1440h238l381 -1440h-1612zM432 203h977l-270 1024z" />
<glyph unicode="&#x395;" horiz-adv-x="1280" d="M164 0l301 1417h995l-35 -162h-780l-92 -436h719l-33 -164h-723l-102 -483h811l-37 -172h-1024z" />
<glyph unicode="&#x396;" horiz-adv-x="1314" d="M119 0q20 94 24 105.5t35 44.5l1004 1114h-764l33 159h1046l-22 -106l-1039 -1153h805l-35 -164h-1087z" />
<glyph unicode="&#x397;" horiz-adv-x="1449" d="M164 0l301 1421l2 2h213l-127 -602h690l127 602h215l-303 -1423h-215l141 657h-690l-139 -657h-215z" />
<glyph unicode="&#x398;" horiz-adv-x="1673" d="M252 547q0 229 127 440t335 340t431 129q254 0 414.5 -167t160.5 -419q0 -233 -129 -444t-335.5 -336t-428.5 -125q-256 0 -415.5 165t-159.5 417zM457 549q0 -199 112.5 -312.5t292.5 -113.5q264 0 459 223t195 524q0 203 -113 318t-291 115q-266 0 -460.5 -230.5 t-194.5 -523.5zM575 612l43 201h781l-41 -201h-783z" />
<glyph unicode="&#x399;" horiz-adv-x="546" d="M164 0l301 1421l2 2h213l-301 -1423h-215z" />
<glyph unicode="&#x39a;" horiz-adv-x="1441" d="M170 0l301 1421l2 2h203l-152 -718l854 718h246l-672 -565l400 -858h-232l-334 719l-317 -266l-94 -453h-205z" />
<glyph unicode="&#x39b;" horiz-adv-x="1263" d="M59 0l764 1440h228l151 -1440h-225l-80 799l-14 202l-9 146v78q-23 -86 -212 -449l-408 -776h-195z" />
<glyph unicode="&#x39c;" horiz-adv-x="1808" d="M176 0l301 1421l2 2h283l127 -745q59 -373 65 -447l33 72l189 326l473 794h284l-303 -1423h-192l248 1161l12 64l-37 -72l-188 -328l-474 -790h-182l-131 768l-31 198l-22 166l-6 58l-258 -1225h-193z" />
<glyph unicode="&#x39d;" horiz-adv-x="1449" d="M170 0l301 1421l2 2h299l356 -1230l261 1228v2h192l-303 -1423h-299l-356 1229l-261 -1229h-192z" />
<glyph unicode="&#x39e;" horiz-adv-x="1433" d="M88 0l39 180h1253l-39 -180h-1253zM362 1235l39 178h1229l-37 -178h-1231zM375 645l39 180h954l-39 -180h-954z" />
<glyph unicode="&#x39f;" horiz-adv-x="1603" d="M250 541q0 231 124 444t323.5 342t412.5 129q240 0 390.5 -164t150.5 -415q0 -231 -124 -444.5t-322.5 -340.5t-411.5 -127q-236 0 -389.5 161t-153.5 415zM467 551q0 -215 107.5 -319.5t252.5 -104.5q133 0 251 72.5t197 186.5t124 249t45 262q0 188 -103.5 294.5 t-265.5 106.5q-240 0 -424 -214t-184 -533z" />
<glyph unicode="&#x3a0;" horiz-adv-x="1449" d="M164 0l301 1417h1118l-301 -1417h-215l266 1255h-688l-266 -1255h-215z" />
<glyph unicode="&#x3a1;" horiz-adv-x="1347" d="M166 0l301 1421l2 2h524q109 0 192 -25.5t130 -64.5t77.5 -89t41 -94t10.5 -87q0 -195 -180.5 -352.5t-442.5 -157.5h-323l-117 -553h-215zM526 711h273q150 0 257 43t158 168q27 80 27 131q0 113 -92 166q-76 41 -238 41h-268z" />
<glyph unicode="&#x3a3;" horiz-adv-x="1552" d="M119 0l645 686l-361 547q-12 18 -12 35q0 12 14.5 82.5t16.5 72.5h1313l-35 -163h-1028l358 -549l-504 -537h942l-36 -174h-1313z" />
<glyph unicode="&#x3a4;" horiz-adv-x="1484" d="M342 1251l35 162h1329l-35 -162h-557l-2 -2l-264 -1249h-215l266 1251h-557z" />
<glyph unicode="&#x3a5;" horiz-adv-x="1673" d="M360 1137q31 139 155 229t265 90q266 0 273 -375l-2 -67q23 63 54.5 126.5t86.5 141.5t138 126t179 48q123 0 207 -71.5t84 -186.5q0 -31 -6 -61h-197q2 12 2 32q0 115 -126 127q-33 -2 -48.5 -5t-56.5 -20.5t-68.5 -46t-64.5 -88t-66 -141.5q-41 -115 -102 -407 l-125 -588h-213l158 748q41 199 41 319q0 74 -16.5 123t-48.5 69.5t-54.5 26.5t-58.5 10q-154 -14 -193 -159h-197z" />
<glyph unicode="&#x3a6;" horiz-adv-x="1552" d="M260 633q0 141 97.5 267t248 205t318.5 97l45 219l2 2h205l-46 -219q197 -25 329 -135.5t132 -277.5q0 -203 -195.5 -372t-475.5 -200l-46 -219h-206l47 219q-188 23 -321.5 133.5t-133.5 280.5zM471 635q0 -219 277 -262l143 676q-133 -20 -224.5 -73.5t-129 -121.5 t-52 -119t-14.5 -100zM952 373q109 14 191 54t126 85t70.5 101.5t33.5 97.5t7 77q0 115 -74.5 181.5t-207.5 79.5z" />
<glyph unicode="&#x3a7;" horiz-adv-x="1382" d="M29 0l696 754l-365 669h256l254 -497l453 497h240l-621 -669l408 -754h-254l-295 598l-531 -598h-241z" />
<glyph unicode="&#x3a8;" horiz-adv-x="1673" d="M356 1118l33 154h191q31 0 51 -7.5t36.5 -39t16.5 -90.5q0 -76 -31.5 -228.5t-31.5 -226.5q0 -233 188 -299l221 1040l2 2h205l-221 -1042q125 43 188 102q88 82 133 193.5t74 250t57 206.5q27 61 59 95t54.5 40t50.5 6q6 0 14.5 -1t14.5 -1h162l-33 -154 q-47 -4 -82 -30.5t-58.5 -82t-32.5 -86t-28 -102.5q-66 -272 -230.5 -421.5t-377.5 -174.5l-47 -221h-205l47 221q-57 8 -109.5 27.5t-115 63.5t-100 132t-37.5 209q0 80 19.5 181.5t19.5 144.5q0 57 -18.5 90t-36 40t-42.5 9z" />
<glyph unicode="&#x3a9;" horiz-adv-x="1552" d="M94 0l37 172h356q-14 115 -97 326t-83 340q0 174 114 318t292 222t372 78q236 0 395.5 -118.5t159.5 -307.5q0 -106 -61 -228t-138 -215t-170 -213t-136 -202h356l-37 -172h-541q27 121 114 267.5t174 259t155.5 246.5t68.5 243q0 145 -108.5 216t-265.5 71 q-137 0 -253 -47.5t-197 -161t-81 -275.5q0 -125 63.5 -345t63.5 -345q0 -72 -12 -129h-541z" />
<glyph unicode="&#x3aa;" horiz-adv-x="546" d="M164 0l301 1421l2 2h213l-301 -1423h-215zM268 1520l51 240h240l-51 -240h-240zM680 1520l51 240h240l-51 -240h-240z" />
<glyph unicode="&#x3ab;" horiz-adv-x="1673" d="M360 1137q31 139 155 229t265 90q266 0 273 -375l-2 -67q23 63 54.5 126.5t86.5 141.5t138 126t179 48q123 0 207 -71.5t84 -186.5q0 -31 -6 -61h-197q2 12 2 32q0 115 -126 127q-33 -2 -48.5 -5t-56.5 -20.5t-68.5 -46t-64.5 -88t-66 -141.5q-41 -115 -102 -407 l-125 -588h-213l158 748q41 199 41 319q0 74 -16.5 123t-48.5 69.5t-54.5 26.5t-58.5 10q-154 -14 -193 -159h-197zM811 1520l51 240h240l-51 -240h-240zM1265 1520l51 240h240l-51 -240h-240z" />
<glyph unicode="&#x3ac;" horiz-adv-x="1361" d="M176 354q0 242 164 436.5t358 194.5q127 0 200 -91t101 -218l170 307h197q-78 -150 -143.5 -265.5t-97 -167.5t-53 -86t-28 -45t-6.5 -24q0 -2 1 -6t1 -8q12 -94 33 -143.5t33 -55.5t33 -8q14 2 26.5 8t19.5 15.5t12 17.5t7 14l2 7h197q-37 -123 -124 -187.5t-187 -64.5 q-170 0 -226 209q-201 -209 -381 -209q-139 0 -224 104t-85 266zM367 340q0 -90 46 -129t111 -39q131 0 305 236q-2 16 -6 68t-8 77t-11 70t-19.5 69.5t-30 51t-43 39t-60.5 12.5q-41 0 -75.5 -13.5t-58 -31t-45 -49t-34 -54t-25 -62.5t-16.5 -56.5t-12 -53.5l-6 -37 q-12 -65 -12 -98zM719 1059l238 364h196l-280 -364h-154z" />
<glyph unicode="&#x3ad;" horiz-adv-x="925" d="M145 242q0 184 220 276q-96 66 -97 164q0 123 120 212t282 89q66 0 123 -19.5t96 -49t58.5 -50t33.5 -39.5l-135 -110q-92 111 -213 110q-84 0 -148.5 -42t-64.5 -105q0 -18 6 -32.5t19.5 -25t27.5 -18.5t35.5 -13t38 -8t40 -4.5t37 -2.5t34 -1h26.5l-25 -122 q-195 -2 -260 -31q-90 -37 -90 -129q0 -68 52.5 -109t134.5 -41q135 0 280 111l86 -111q-195 -158 -403 -157q-135 0 -224.5 71.5t-89.5 186.5zM551 1059l238 364h196l-280 -364h-154z" />
<glyph unicode="&#x3ae;" horiz-adv-x="1105" d="M211 719q31 131 116 206.5t177 75.5q47 0 79.5 -17t51 -52t24 -48.5t13.5 -43.5q111 162 264 161q109 0 162 -80.5t53 -203.5q0 -68 -27 -193l-184 -866h-197l185 872q20 109 20 132q0 49 -12 79.5t-35.5 44t-30 15.5t-24.5 4q-35 -4 -64.5 -19.5t-50 -44t-34 -49 t-26 -61.5t-14.5 -50.5t-10 -45.5l-115 -535h-196l125 584q27 131 26 174q0 29 -14 47l-8 4h-6q-41 -8 -60 -90h-188zM748 1059l238 364h196l-280 -364h-154z" />
<glyph unicode="&#x3af;" horiz-adv-x="567" d="M133 180q0 31 14 103l146 684l2 2h197l-146 -682q-12 -49 -12 -80q0 -63 43 -64q55 0 84 113h139q-33 -129 -113.5 -200.5t-173.5 -71.5q-80 0 -130 55t-50 141zM289 1059l238 364h196l-280 -364h-154z" />
<glyph unicode="&#x3b0;" d="M293 967h227q25 -115 25 -230q0 -102 -19.5 -214.5t-19.5 -151.5q0 -106 41 -148.5t92 -42.5q119 0 194.5 148.5t75.5 351.5q0 135 -49 287h221q2 -2 9.5 -36t14.5 -93.5t7 -114.5q0 -178 -49 -324.5t-127 -233.5t-166 -134t-172 -47q-51 0 -95 14t-90 51t-75 115 t-33 188q4 82 20.5 165t16.5 167q0 146 -49 283zM391 1065l29 131h180l-29 -131h-180zM598 1059l238 364h196l-280 -364h-154zM901 1065l27 131h180l-27 -131h-180z" />
<glyph unicode="&#x3b1;" horiz-adv-x="1361" d="M176 354q0 242 164 436.5t358 194.5q127 0 200 -91t101 -218l170 307h197q-78 -150 -143.5 -265.5t-97 -167.5t-53 -86t-28 -45t-6.5 -24q0 -2 1 -6t1 -8q12 -94 33 -143.5t33 -55.5t33 -8q14 2 26.5 8t19.5 15.5t12 17.5t7 14l2 7h197q-37 -123 -124 -187.5t-187 -64.5 q-170 0 -226 209q-201 -209 -381 -209q-139 0 -224 104t-85 266zM367 340q0 -90 46 -129t111 -39q131 0 305 236q-2 16 -6 68t-8 77t-11 70t-19.5 69.5t-30 51t-43 39t-60.5 12.5q-41 0 -75.5 -13.5t-58 -31t-45 -49t-34 -54t-25 -62.5t-16.5 -56.5t-12 -53.5l-6 -37 q-12 -65 -12 -98z" />
<glyph unicode="&#x3b2;" d="M51 -178l244 1149q12 53 20.5 82.5t30 86t43 91.5t60 79t85 69.5t113 43t146.5 17.5q328 0 327 -246q0 -152 -65.5 -239t-169.5 -142q201 -70 200 -281q0 -133 -53 -241.5t-136 -173t-177 -99t-182 -34.5q-66 0 -118 28.5t-67.5 49t-40.5 59.5l-63 -301h-119zM375 371 q0 -102 47 -170t143 -68q119 0 218.5 100.5t99.5 262.5q0 63 -28 109t-61.5 68.5t-94 36t-96.5 15.5t-99 4l26 129q72 2 133.5 15.5t123 45t97.5 94t36 150.5q0 141 -156 142q-43 0 -79 -11.5t-59.5 -25t-45 -49t-33.5 -56t-27.5 -79t-20.5 -84t-22 -101.5 q-102 -485 -102 -528z" />
<glyph unicode="&#x3b3;" horiz-adv-x="1193" d="M213 721q25 111 117 186.5t196 75.5q88 0 129 -82t66 -246q12 -82 16 -131q84 113 132.5 171.5t127 136t155.5 113.5t161 38l-41 -197q-49 -2 -87 -15t-106.5 -71.5t-144.5 -167.5q-74 -102 -126 -197t-58 -124q-14 -193 -34 -299.5t-36 -136t-45 -51.5q-49 -39 -105 -39 q-49 0 -81.5 28.5t-32.5 77.5q0 41 28.5 138.5t61.5 174.5q10 25 28.5 65t21.5 50t10 45t8 74t1 111q0 166 -17 250.5t-69 84.5q-55 0 -79 -63h-197z" />
<glyph unicode="&#x3b4;" horiz-adv-x="1015" d="M174 348q0 184 114.5 344t268.5 215q-4 2 -38 26.5t-41 31t-30.5 28t-30.5 36.5t-15.5 40t-8.5 51q0 111 96.5 209t210.5 98q18 0 31.5 -2t27 -5t33 -14t36 -20.5t52 -34t64.5 -45t89.5 -62.5t111.5 -79l-109 -133q-94 63 -209 146q-94 68 -116.5 80t-40.5 12 q-43 0 -78 -37t-35 -76q0 -31 30.5 -57.5t192.5 -138.5q78 -53 125 -87l-2 -4q131 -106 131 -299q0 -227 -164.5 -407t-365.5 -180q-145 0 -237.5 103t-92.5 261zM367 344q0 -113 50 -159t113 -46q125 0 218.5 142.5t93.5 293.5q0 88 -40 146.5t-122 58.5q-119 0 -216 -141 t-97 -295z" />
<glyph unicode="&#x3b5;" horiz-adv-x="925" d="M145 242q0 184 220 276q-96 66 -97 164q0 123 120 212t282 89q66 0 123 -19.5t96 -49t58.5 -50t33.5 -39.5l-135 -110q-92 111 -213 110q-84 0 -148.5 -42t-64.5 -105q0 -18 6 -32.5t19.5 -25t27.5 -18.5t35.5 -13t38 -8t40 -4.5t37 -2.5t34 -1h26.5l-25 -122 q-195 -2 -260 -31q-90 -37 -90 -129q0 -68 52.5 -109t134.5 -41q135 0 280 111l86 -111q-195 -158 -403 -157q-135 0 -224.5 71.5t-89.5 186.5z" />
<glyph unicode="&#x3b6;" horiz-adv-x="1015" d="M184 381q0 324 314 631q51 51 161 141q-135 20 -187 86t-52 139q0 33 6 64h197q-2 -12 -2 -33q0 -88 118 -88q129 0 371 121l70 -168q-340 -188 -501 -329.5t-230 -282.5q-63 -131 -64 -246q0 -188 127 -215q4 -2 65.5 -4t129.5 -21q80 -23 141 -80t61 -145 q0 -141 -140 -238.5t-345 -99.5l41 190q244 0 244 117q0 33 -33 52.5t-69 23.5t-87 5t-61 3q-127 16 -201 119.5t-74 257.5z" />
<glyph unicode="&#x3b7;" horiz-adv-x="1105" d="M211 719q31 131 116 206.5t177 75.5q47 0 79.5 -17t51 -52t24 -48.5t13.5 -43.5q111 162 264 161q109 0 162 -80.5t53 -203.5q0 -68 -27 -193l-184 -866h-197l185 872q20 109 20 132q0 49 -12 79.5t-35.5 44t-30 15.5t-24.5 4q-35 -4 -64.5 -19.5t-50 -44t-34 -49 t-26 -61.5t-14.5 -50.5t-10 -45.5l-115 -535h-196l125 584q27 131 26 174q0 29 -14 47l-8 4h-6q-41 -8 -60 -90h-188z" />
<glyph unicode="&#x3b8;" d="M209 438q0 152 43 323t121 324.5t201.5 254t267.5 100.5q98 0 167.5 -44t100.5 -118t43 -143.5t12 -149.5q0 -223 -74.5 -449.5t-224 -389t-334.5 -162.5q-172 0 -247.5 128.5t-75.5 325.5zM401 412q2 -41 5.5 -63.5t17.5 -70t53 -73t98 -25.5q98 0 176 84t116 184.5 t61 217.5h-500q-27 -115 -27 -254zM463 819h495q16 119 17 178q0 244 -174 244q-229 0 -338 -422z" />
<glyph unicode="&#x3b9;" horiz-adv-x="598" d="M133 180q0 31 14 103l146 684l2 2h197l-146 -682q-12 -49 -12 -80q0 -63 43 -64q55 0 84 113h139q-33 -129 -113.5 -200.5t-173.5 -71.5q-80 0 -130 55t-50 141z" />
<glyph unicode="&#x3ba;" horiz-adv-x="1038" d="M119 0l207 969h196l-82 -385l357 280q55 41 79.5 56.5t95 31t179.5 15.5l-39 -179q-14 0 -41 2.5t-39 2.5q-14 0 -23.5 -1t-19.5 -2.5t-21.5 -7.5t-22.5 -11t-28.5 -18.5t-34 -24.5t-46 -35.5t-57 -46t-75 -58.5t-90.5 -72v-2l406 -514h-279l-301 381l-53 -43l-72 -338 h-196z" />
<glyph unicode="&#x3bb;" d="M59 0l521 885q20 39 20 49q-2 12 -5 31.5t-15.5 68.5t-26.5 88t-35.5 70t-44.5 31q-8 0 -17.5 -3t-21.5 -12.5t-23.5 -17.5t-34 -26.5t-42.5 -33.5l6 195q127 98 217 98q37 0 67.5 -16t55.5 -54t42 -72t35.5 -99.5t28 -104.5t25.5 -119l205 -958h-215l-142 664l-389 -664 h-211z" />
<glyph unicode="&#x3bc;" horiz-adv-x="1193" d="M16 -342l277 1309l2 2h197q-29 -139 -63 -295t-48 -225.5t-14 -94.5q0 -76 43 -125t112 -49q80 0 145.5 59.5t92.5 139.5q4 14 9 42t7 36l111 512h117l79 -2l-139 -660q-12 -49 -12 -74q0 -74 59 -73q27 0 60.5 23.5t40.5 80.5h137q-10 -94 -84 -181t-223 -101 q-43 4 -70 12t-60.5 41t-54.5 92q-104 -135 -258 -145q-37 2 -58.5 7t-55 27.5t-62.5 65.5l-90 -424h-197z" />
<glyph unicode="&#x3bd;" horiz-adv-x="1015" d="M205 967h264q45 -47 56.5 -110.5t37.5 -371.5q12 -147 21 -239q70 72 121 132t86.5 103t60.5 92.5t38 74t22.5 75.5t11.5 68.5t5 84t5 91.5h196q-10 -201 -26 -252q-16 -55 -46 -114.5t-53.5 -98.5t-83 -118t-84 -108.5t-113.5 -136t-118 -139.5h-196l-70 686 q0 6 -2 25.5t-3 28t-4 26.5t-7.5 28.5t-11.5 29t-16 33.5t-22.5 33.5t-31 37.5t-37.5 39z" />
<glyph unicode="&#x3be;" horiz-adv-x="1015" d="M172 344q0 162 105.5 315.5t267.5 237.5q-59 63 -60 141q0 98 90 193q-154 45 -153 170q0 25 6 53h197q-2 -35 17.5 -50t72.5 -15q100 0 366 65l9 -190q-94 -25 -285 -47q-66 -12 -104.5 -41t-48 -51.5t-9.5 -47.5q0 -43 60.5 -59.5t236.5 -16.5l-41 -196 q-215 -2 -369.5 -132t-154.5 -288q0 -74 39 -124t102 -60q10 -2 54 -4t94 -11q94 -16 169.5 -75.5t75.5 -159.5q0 -117 -107.5 -212t-277.5 -97l39 188q143 4 144 88q0 27 -18.5 44.5t-50.5 24.5t-61.5 9t-66.5 3t-51 3q-127 16 -207 109.5t-80 232.5z" />
<glyph unicode="&#x3bf;" horiz-adv-x="1134" d="M180 375q0 231 181.5 419.5t414.5 188.5q170 0 276.5 -110.5t106.5 -280.5q0 -236 -184 -422t-412 -186q-170 0 -276.5 110.5t-106.5 280.5zM383 416q0 -102 61.5 -169t161.5 -67q137 0 243.5 116t106.5 255q0 102 -60 168.5t-163 66.5q-133 0 -241.5 -112.5 t-108.5 -257.5z" />
<glyph unicode="&#x3c0;" horiz-adv-x="1253" d="M193 905q82 27 115.5 35t100 17.5t152.5 9.5h809l-41 -189h-227q-115 -512 -115 -548.5t33 -65.5q8 -2 20 -2q61 0 90 100h138q-23 -104 -106 -191t-191 -87q-84 0 -134.5 59t-50.5 152v4q0 33 64 333q33 147 53 246h-227l-170 -794h-197l170 794q-104 -2 -248 -55z" />
<glyph unicode="&#x3c1;" horiz-adv-x="1015" d="M16 -342l164 774q47 233 178 377q160 174 357 174q156 0 240.5 -108.5t84.5 -266.5q0 -240 -164.5 -432t-371.5 -192q-113 0 -205 71l-86 -397h-197zM377 367q0 -225 160 -226q131 0 219 148.5t88 310.5q0 100 -41 162.5t-121 62.5q-129 0 -217 -147t-88 -311z" />
<glyph unicode="&#x3c2;" horiz-adv-x="956" d="M164 328q0 82 27.5 164.5t96 170t168 154t259 108.5t354.5 42l-41 -197q-121 -2 -195.5 -9t-183 -45t-176.5 -108q-113 -113 -113 -246q0 -74 37 -117.5t88 -51.5l35 -3q35 -2 72 -6t86 -17t86 -34.5t63.5 -60.5t26.5 -92q0 -123 -119 -205t-256 -82h-10l41 188 q143 2 143 70q0 14 -10 24.5t-35.5 14.5t-43 6t-57.5 3t-54 1q-123 6 -206 95.5t-83 232.5z" />
<glyph unicode="&#x3c3;" horiz-adv-x="1224" d="M178 371q0 213 159 388t365 204q33 4 101 4h565l-41 -197h-215q45 -102 45 -190q0 -227 -182 -411.5t-414 -184.5q-170 0 -276.5 110.5t-106.5 276.5zM381 412q0 -100 61.5 -166t161.5 -66q137 0 243.5 110.5t106.5 248.5q0 100 -62.5 165.5t-162.5 65.5 q-133 0 -240.5 -108.5t-107.5 -249.5z" />
<glyph unicode="&#x3c4;" horiz-adv-x="985" d="M154 901q141 66 278 66h670l-41 -189h-375q-111 -522 -111 -538q0 -35 24 -57.5t56 -22.5q37 0 72 28.5t47 73.5h137q-33 -129 -127 -203.5t-198 -74.5q-94 0 -153.5 61t-59.5 156v2q0 29 41 225q43 190 75 350h-69q-20 0 -36.5 -1t-29 -2t-28 -4t-21.5 -5t-22.5 -8 t-20.5 -8t-24.5 -11.5t-26.5 -11.5z" />
<glyph unicode="&#x3c5;" d="M293 967h227q25 -115 25 -230q0 -102 -19.5 -214.5t-19.5 -151.5q0 -106 41 -148.5t92 -42.5q119 0 194.5 148.5t75.5 351.5q0 135 -49 287h221q2 -2 9.5 -36t14.5 -93.5t7 -114.5q0 -178 -49 -324.5t-127 -233.5t-166 -134t-172 -47q-51 0 -95 14t-90 51t-75 115 t-33 188q4 82 20.5 165t16.5 167q0 146 -49 283z" />
<glyph unicode="&#x3c6;" horiz-adv-x="1253" d="M180 385q0 90 52.5 244.5t181.5 337.5h223q-59 -57 -98 -103q-96 -117 -146.5 -242.5t-50.5 -205.5t49 -153t168 -109q106 504 127 555q51 121 153.5 197.5t213.5 76.5q119 0 175 -90t56 -229q0 -156 -53 -282t-140 -204t-179.5 -123t-188.5 -63l-72 -334h-196l69 334 q-170 35 -257 143.5t-87 249.5zM756 154q238 61 325 252q37 78 49 249v25q-4 145 -108 145q-86 0 -141 -123q-16 -40 -125 -548z" />
<glyph unicode="&#x3c7;" horiz-adv-x="1193" d="M12 -358l541 675q-61 258 -121.5 364.5t-152.5 106.5q-4 0 -11.5 -1t-11.5 -1l41 197q31 6 63 6q66 0 121.5 -33.5t90 -76.5t65.5 -113t45 -113t31 -104q4 -16 6 -23l364 457h230l-541 -676q57 -252 118.5 -360.5t158.5 -108.5h20l-41 -196q-31 -6 -63 -7 q-78 0 -139.5 41t-103.5 120t-65.5 142.5t-50.5 159.5l-364 -456h-230z" />
<glyph unicode="&#x3c8;" horiz-adv-x="1253" d="M197 442q0 113 45 258.5t110 266.5h199q-193 -270 -193 -494q0 -63 15.5 -119.5t65.5 -115t130 -84.5l269 1269h178l-271 -1269q141 45 240 151q160 176 160 443q0 96 -35 219h199q6 -106 6 -117q0 -182 -51 -346q-63 -190 -216 -335.5t-335 -176.5l-2 -2l-70 -330v-2 h-178l72 334q-156 27 -247 151.5t-91 298.5z" />
<glyph unicode="&#x3c9;" horiz-adv-x="1433" d="M160 305q0 172 106.5 346t270.5 316h235q-4 -4 -43 -39t-55.5 -51.5l-57.5 -57.5t-63.5 -69.5t-58 -73.5t-56 -84t-42 -86t-31 -95.5t-9.5 -97.5q0 -96 37 -134t86 -38q68 0 129.5 62.5t93.5 167.5q6 16 54 243h180q-55 -254 -55 -297q0 -74 32.5 -125t98.5 -51 q98 0 166.5 118t68.5 261q0 121 -46 222.5t-132 224.5h238q141 -205 141 -420q0 -233 -144.5 -398t-324.5 -165q-162 0 -236 141q-2 -2 -15 -14.5t-18 -16.5t-20.5 -17.5t-26 -19.5t-28 -18t-31.5 -18.5t-33.5 -14.5t-39 -12t-42 -7t-45.5 -3q-131 0 -207.5 92t-76.5 229z " />
<glyph unicode="&#x3ca;" horiz-adv-x="567" d="M108 1182l51 240h240l-51 -240h-240zM133 180q0 31 14 103l146 684l2 2h197l-146 -682q-12 -49 -12 -80q0 -63 43 -64q55 0 84 113h139q-33 -129 -113.5 -200.5t-173.5 -71.5q-80 0 -130 55t-50 141zM557 1182l51 240h240l-51 -240h-240z" />
<glyph unicode="&#x3cb;" d="M293 967h227q25 -115 25 -230q0 -102 -19.5 -214.5t-19.5 -151.5q0 -106 41 -148.5t92 -42.5q119 0 194.5 148.5t75.5 351.5q0 135 -49 287h221q2 -2 9.5 -36t14.5 -93.5t7 -114.5q0 -178 -49 -324.5t-127 -233.5t-166 -134t-172 -47q-51 0 -95 14t-90 51t-75 115 t-33 188q4 82 20.5 165t16.5 167q0 146 -49 283zM416 1182l51 240h240l-51 -240h-240zM866 1182l51 240h240l-51 -240h-240z" />
<glyph unicode="&#x3cc;" horiz-adv-x="1134" d="M180 375q0 231 181.5 419.5t414.5 188.5q170 0 276.5 -110.5t106.5 -280.5q0 -236 -184 -422t-412 -186q-170 0 -276.5 110.5t-106.5 280.5zM383 416q0 -102 61.5 -169t161.5 -67q137 0 243.5 116t106.5 255q0 102 -60 168.5t-163 66.5q-133 0 -241.5 -112.5 t-108.5 -257.5zM655 1059l238 364h196l-280 -364h-154z" />
<glyph unicode="&#x3cd;" d="M293 967h227q25 -115 25 -230q0 -102 -19.5 -214.5t-19.5 -151.5q0 -106 41 -148.5t92 -42.5q119 0 194.5 148.5t75.5 351.5q0 135 -49 287h221q2 -2 9.5 -36t14.5 -93.5t7 -114.5q0 -178 -49 -324.5t-127 -233.5t-166 -134t-172 -47q-51 0 -95 14t-90 51t-75 115 t-33 188q4 82 20.5 165t16.5 167q0 146 -49 283zM598 1059l238 364h196l-280 -364h-154z" />
<glyph unicode="&#x3ce;" horiz-adv-x="1433" d="M160 305q0 172 106.5 346t270.5 316h235q-4 -4 -43 -39t-55.5 -51.5l-57.5 -57.5t-63.5 -69.5t-58 -73.5t-56 -84t-42 -86t-31 -95.5t-9.5 -97.5q0 -96 37 -134t86 -38q68 0 129.5 62.5t93.5 167.5q6 16 54 243h180q-55 -254 -55 -297q0 -74 32.5 -125t98.5 -51 q98 0 166.5 118t68.5 261q0 121 -46 222.5t-132 224.5h238q141 -205 141 -420q0 -233 -144.5 -398t-324.5 -165q-162 0 -236 141q-2 -2 -15 -14.5t-18 -16.5t-20.5 -17.5t-26 -19.5t-28 -18t-31.5 -18.5t-33.5 -14.5t-39 -12t-42 -7t-45.5 -3q-131 0 -207.5 92t-76.5 229z M803 1059l238 364h196l-280 -364h-154z" />
<glyph unicode="&#x3d1;" d="M209 438q0 152 43 323t121 324.5t201.5 254t267.5 100.5q98 0 167.5 -44t100.5 -118t43 -143.5t12 -149.5q0 -223 -74.5 -449.5t-224 -389t-334.5 -162.5q-172 0 -247.5 128.5t-75.5 325.5zM401 412q2 -41 5.5 -63.5t17.5 -70t53 -73t98 -25.5q98 0 176 84t116 184.5 t61 217.5h-500q-27 -115 -27 -254zM463 819h495q16 119 17 178q0 244 -174 244q-229 0 -338 -422z" />
<glyph unicode="&#x3d8;" d="M268 895q0 215 175 379t391 166h2q166 0 275.5 -102.5t109.5 -264.5q0 -180 -135.5 -335.5t-325.5 -194.5l-2 -2l-115 -541h-215l117 543q-72 25 -94 37q-121 66 -164 194q-19 58 -19 121zM483 932q0 -90 58.5 -147.5t148.5 -57.5q123 0 219.5 96.5t96.5 214.5 q0 90 -58.5 146.5t-148.5 56.5q-125 0 -220.5 -95t-95.5 -214z" />
<glyph unicode="&#x3d9;" d="M276 788q0 221 177.5 382t404.5 161q139 0 231.5 -78.5t92.5 -220.5q0 -158 -99.5 -295t-255.5 -200q-111 -526 -118 -545q-27 -63 -96.5 -108.5t-149.5 -45.5q-53 0 -83 30t-30 73q0 14 117 571q-191 71 -191 276zM446 856q0 -68 26 -118t68 -74.5t83 -36t82 -11.5 q145 0 226 110t81 239t-81 185t-175 56q-145 0 -227.5 -109.5t-82.5 -240.5z" />
<glyph unicode="&#x3da;" horiz-adv-x="1673" d="M205 514q0 303 188.5 579.5t458.5 315.5q25 4 111 4h446l-301 -1413h-461q-190 0 -297 104q-145 144 -145 410zM420 530q0 -141 58.5 -237t199.5 -96h18q205 2 244 16l209 989q-35 12 -238 15h-12q-123 0 -220 -74t-150.5 -185.5t-81 -223.5t-27.5 -204z" />
<glyph unicode="&#x3db;" d="M256 625q0 63 30.5 123.5t98.5 120t202 96t318 36.5h260l-41 -196q-10 0 -29.5 -1t-29.5 -1q-102 0 -207.5 17.5t-163.5 17.5q-147 0 -213.5 -58.5t-66.5 -130.5q0 -104 174 -104q49 0 143 7t141 7l-41 -197l-98 3l-61 -365h-197l98 379q-317 56 -317 246z" />
<glyph unicode="&#x3dc;" horiz-adv-x="1220" d="M164 0l301 1417h965l-35 -162h-750l-98 -464h659l-35 -164h-659l-133 -627h-215z" />
<glyph unicode="&#x3dd;" d="M45 -342l207 969q41 209 205 297q78 43 184 43h518l-41 -197h-508q-47 0 -70.5 -5t-50 -38t-40.5 -98l-25 -117h360l-41 -197h-360l-139 -655l-2 -2h-197z" />
<glyph unicode="&#x3df;" horiz-adv-x="835" d="M195 358l178 836h188l-31 -127l-122 -446l-25 -109l473 154l-178 -836h-189q27 119 91.5 348.5t87.5 333.5z" />
<glyph unicode="&#x3e0;" horiz-adv-x="1374" d="M51 0l510 991q-78 141 -78 156q0 4 10.5 51t24.5 117.5t23 107.5l772 -1423h-215l-228 420l-217 -420h-166l297 580l-137 251l-428 -831h-168z" />
<glyph unicode="&#x3e1;" horiz-adv-x="1552" d="M197 512q6 35 19 67.5t27.5 57.5t42 50.5t46 43t59.5 39t64.5 33.5t76 32.5t79 31t90 34t94.5 33.5q70 27 174 84q-250 215 -619 215l41 190q492 0 797 -316t305 -800q0 -147 -33 -307h-196q29 145 28 268q0 139 -41 299q-96 -51 -157.5 -92t-94 -81t-46 -66.5 t-27.5 -71.5h-197q10 45 31.5 87t43 74t63.5 68.5t64.5 56t76 51.5t69 41t70.5 37.5t57 30.5q-53 115 -137 220q-68 -37 -164 -69t-171 -55.5t-147.5 -56t-121.5 -90t-68 -139.5h-198z" />
<glyph unicode="&#x400;" horiz-adv-x="1280" d="M164 0l301 1421l2 2h993l-35 -163h-780l-92 -439h719l-33 -164h-721l-104 -485h811l-37 -172h-1024zM655 1743h248q2 0 6 1t6 1q20 0 136 -80q90 -61 159 -109h-200q-25 1 -355 187z" />
<glyph unicode="&#x401;" horiz-adv-x="1280" d="M164 0l301 1421l2 2h993l-35 -163h-780l-92 -439h719l-33 -164h-721l-104 -485h811l-37 -172h-1024zM700 1629l41 192h192l-40 -192h-193zM1118 1629l41 192h192l-40 -192h-193z" />
<glyph unicode="&#x402;" horiz-adv-x="1783" d="M344 1260l35 163h1329l-35 -163h-559l-86 -410l-10 -59q23 25 51.5 49t90 66t150.5 68.5t189 26.5q193 0 274.5 -62t81.5 -181q0 -39 -18 -132.5t-35 -166.5l-18 -76q-49 -162 -190.5 -290t-336.5 -128q-117 0 -260 35l84 174q4 -2 28 -13t35 -15.5t35.5 -11.5t53.5 -10 t63 -3q39 0 73 8t59.5 19.5t48 34t38 39t30 47t22.5 48t17 52t12 48t10.5 48.5t7.5 39q37 168 37 190q0 154 -326 154h-10q-137 0 -240 -96q-86 -80 -114 -217l-113 -535h-215l268 1260h-557z" />
<glyph unicode="&#x403;" horiz-adv-x="1161" d="M164 0l301 1421l2 2h905l-35 -163h-692l-266 -1260h-215zM670 1556l311 164l45 21l39 2h242q-403 -182 -424 -184q-8 -2 -19 -3h-194z" />
<glyph unicode="&#x404;" horiz-adv-x="1374" d="M264 547q0 223 121 434t329 343t441 132q190 0 379 -70l-82 -212q-2 2 -16.5 13t-21.5 16l-24.5 17.5t-30.5 18.5t-33.5 16.5t-42 16.5t-47.5 11t-55.5 8t-62.5 3q-182 0 -348 -133t-252 -368h725l-35 -164h-725q-2 -20 -2 -64q0 -182 102.5 -309t286.5 -127 q137 0 218 25.5t217 103.5l-23 -178q-135 -70 -223 -92.5t-221 -22.5q-262 0 -418 166t-156 416z" />
<glyph unicode="&#x405;" horiz-adv-x="1193" d="M119 109l82 210q47 -47 84 -76.5t131 -66.5t202 -37q150 0 248.5 90t98.5 193q0 127 -129 178q-33 14 -141.5 39t-141.5 39q-90 37 -154.5 112.5t-64.5 186.5q0 184 171 331.5t408 147.5q205 0 379 -98l-82 -213q-49 47 -72.5 67.5t-96 48t-164.5 27.5q-145 0 -242.5 -79 t-97.5 -169q0 -66 47 -108.5t103 -58t140 -36t121 -34.5q82 -33 150.5 -113t68.5 -209q0 -197 -174 -356.5t-409 -159.5q-260 1 -465 144z" />
<glyph unicode="&#x406;" horiz-adv-x="546" d="M164 0l301 1421l2 2h213l-301 -1423h-215z" />
<glyph unicode="&#x407;" horiz-adv-x="546" d="M164 0l301 1421l2 2h213l-301 -1423h-215zM311 1629l41 192h192l-40 -192h-193zM729 1629l41 192h192l-40 -192h-193z" />
<glyph unicode="&#x408;" horiz-adv-x="989" d="M100 51l76 195q49 -68 98 -92q57 -31 134 -31q246 0 286 199l234 1099l2 2h209l-226 -1054q-25 -111 -43 -156q-113 -248 -421 -248q-187 0 -349 86z" />
<glyph unicode="&#x409;" horiz-adv-x="2226" d="M41 0l35 162h69q96 2 146 31q131 76 235 376q92 266 217 854h881l-127 -602h289q115 0 201 -32.5t130 -87t63.5 -109.5t19.5 -111q0 -166 -145.5 -309t-354.5 -168q-37 -4 -109 -4h-483l266 1260h-495q-33 -180 -107 -443q-92 -330 -186 -500q-158 -285 -365 -313 q-23 -4 -67 -4h-113zM1356 164h180q8 0 24.5 -1t24.5 -1q190 0 300 93t110 194q0 80 -71 144t-228 64h-234z" />
<glyph unicode="&#x40a;" horiz-adv-x="2181" d="M164 0l301 1421l2 2h213l-127 -602h682l127 602h215l-129 -602h291q217 0 315 -105.5t98 -234.5q0 -164 -145 -308t-356 -169q-37 -4 -107 -4h-485l139 657h-680l-139 -657h-215zM1309 164h180q8 0 24.5 -1t24.5 -1q190 0 300 93t110 194q0 78 -72 143t-227 65h-236z" />
<glyph unicode="&#x40b;" horiz-adv-x="1642" d="M344 1260l35 163h1278l-35 -163h-592l-96 -461q172 184 389 184q281 0 281 -215q0 -43 -17 -125l-137 -643h-197l136 637q8 49 8 61q0 131 -228 131q-31 0 -64.5 -8t-80.5 -34.5t-87 -91t-60 -158.5l-113 -537h-215l266 1260h-471z" />
<glyph unicode="&#x40c;" horiz-adv-x="1441" d="M170 0l301 1421l2 2h203l-152 -718l854 718h246l-672 -565l400 -858h-232l-334 719l-317 -266l-94 -453h-205zM856 1556l309 164l45 21l39 2h242q-403 -182 -424 -184q-8 -2 -18 -3h-193z" />
<glyph unicode="&#x40d;" horiz-adv-x="1441" d="M164 0l301 1421l2 2h203l-248 -1171l-12 -66l870 1237h297l-303 -1423h-205l250 1176l12 61l-870 -1237h-297zM778 1743h248q2 0 6 1t6 1q20 0 156 -92q82 -57 141 -97h-202q-25 1 -355 187z" />
<glyph unicode="&#x40e;" horiz-adv-x="1382" d="M332 0l35 164h143q84 0 126 15.5t77 58.5h-4l-377 1185h229l203 -647q80 -272 88 -342l37 76l178 297l381 616h205l-563 -909q-102 -166 -166 -254t-136.5 -152.5t-142.5 -86t-170 -21.5h-143zM707 1769q0 45 6 52h153v-15q0 -96 195 -96q217 0 250 111h153 q-20 -78 -72.5 -136.5t-118 -87t-127 -42t-116.5 -13.5q-139 0 -231 62.5t-92 164.5z" />
<glyph unicode="&#x40f;" horiz-adv-x="1441" d="M164 0l301 1421l2 2h213l-266 -1255h682l266 1253v2h215l-303 -1423h-463l-72 -342h-186l72 342h-461z" />
<glyph unicode="&#x410;" horiz-adv-x="1382" d="M59 0l822 1440h231l209 -1440h-223l-49 348h-596l-197 -348h-197zM547 510h477q-86 616 -86 700v15l-127 -244z" />
<glyph unicode="&#x411;" horiz-adv-x="1406" d="M168 0l301 1421l2 2h997l-32 -163h-795l-92 -439h354q133 0 231.5 -33.5t148.5 -89t73.5 -112t23.5 -113.5q0 -172 -166.5 -308t-386.5 -161q-39 -4 -116 -4h-543zM408 164h231q10 0 30.5 -1t30.5 -1q221 0 348.5 88t127.5 190q0 82 -87.5 149.5t-275.5 67.5h-299z" />
<glyph unicode="&#x412;" horiz-adv-x="1406" d="M168 0l301 1421l2 2h494q135 0 236.5 -30.5t153.5 -79.5t76.5 -100.5t24.5 -102.5q0 -115 -106.5 -215t-309.5 -150q102 -18 173 -58t104 -86t45 -83t12 -72q0 -147 -154.5 -281t-381.5 -159q-63 -6 -131 -6h-539zM408 164h237q10 0 28.5 -1t26.5 -1q203 0 337 77.5 t134 190.5q0 92 -89 155.5t-224 73.5q-61 4 -94 5h-248zM547 817h244q213 0 338.5 85t125.5 177q0 80 -106.5 130.5t-274.5 50.5h-233z" />
<glyph unicode="&#x413;" horiz-adv-x="1161" d="M164 0l301 1421l2 2h905l-35 -163h-692l-266 -1260h-215z" />
<glyph unicode="&#x414;" horiz-adv-x="1536" d="M4 -342l72 342l37 168h96q43 39 67.5 64.5t77 90t102.5 161t95 218.5q88 238 190 721h883l-268 -1255h137l-109 -510h-170l72 342h-1038l-74 -342h-170zM424 168h719l231 1092h-497q0 -4 -23 -99.5t-33 -135.5t-37.5 -138.5t-52 -164t-60.5 -154.5t-80 -165.5t-95 -146.5 z" />
<glyph unicode="&#x415;" horiz-adv-x="1280" d="M164 0l301 1421l2 2h993l-35 -163h-780l-92 -439h719l-33 -164h-721l-104 -485h811l-37 -172h-1024z" />
<glyph unicode="&#x416;" horiz-adv-x="2338" d="M88 0l764 860l-432 563h244l550 -721l154 719v2h205l-154 -718l856 718h244l-672 -565l400 -858h-232l-334 719l-315 -266l-96 -453h-205l96 455l-203 264l-639 -719h-231z" />
<glyph unicode="&#x417;" horiz-adv-x="1314" d="M143 170l123 154q82 -109 162 -152t242 -43q190 0 315 96.5t125 208.5q0 92 -74.5 150.5t-173.5 72.5q-51 6 -104 7h-199l33 153h137q221 0 350 90q119 84 119 207q0 180 -262 180h-4q-86 0 -156.5 -14t-132 -49t-90.5 -55.5t-88 -67.5l-62 172q145 96 271.5 136 t292.5 40q207 0 320.5 -63.5t113.5 -227.5q0 -115 -45 -188.5t-144 -134.5q-100 -61 -254 -99q141 -25 248 -101.5t107 -199.5q0 -162 -192.5 -319.5t-487.5 -157.5q-72 0 -114 4t-113.5 20.5t-137.5 62.5t-125 118z" />
<glyph unicode="&#x418;" horiz-adv-x="1441" d="M164 0l301 1421l2 2h203l-248 -1171l-12 -66l870 1237h297l-303 -1423h-205l250 1176l12 61l-870 -1237h-297z" />
<glyph unicode="&#x419;" horiz-adv-x="1441" d="M164 0l301 1421l2 2h203l-248 -1171l-12 -66l870 1237h297l-303 -1423h-205l250 1176l12 61l-870 -1237h-297zM725 1772q0 18 4 51h156v-13q0 -100 192 -100h8q203 0 242 113h156q-20 -78 -71.5 -136.5t-118 -88t-129 -43t-117.5 -13.5q-137 0 -229.5 64t-92.5 166z" />
<glyph unicode="&#x41a;" horiz-adv-x="1441" d="M170 0l301 1421l2 2h203l-152 -718l854 718h246l-672 -565l400 -858h-232l-334 719l-317 -266l-94 -453h-205z" />
<glyph unicode="&#x41b;" horiz-adv-x="1488" d="M41 0l35 162h67h21.5t25 1t24.5 3t28.5 6t28 10t30.5 16.5t29.5 24t34 31.5t32.5 41q94 133 173 407.5t173 720.5h883l-303 -1423h-215l268 1260h-497q-45 -213 -93 -396q-82 -301 -151 -454q-172 -373 -412 -406q-25 -4 -71 -4h-111z" />
<glyph unicode="&#x41c;" horiz-adv-x="1808" d="M176 0l301 1421l2 2h283l127 -745q59 -373 65 -447l33 72l189 326l473 794h284l-303 -1423h-192l248 1161l12 64l-37 -72l-188 -328l-474 -790h-182l-131 768l-31 198l-22 166l-6 58l-258 -1225h-193z" />
<glyph unicode="&#x41d;" horiz-adv-x="1441" d="M164 0l301 1421l2 2h213l-127 -602h682l127 602h215l-303 -1423h-215l139 657h-680l-139 -657h-215z" />
<glyph unicode="&#x41e;" horiz-adv-x="1603" d="M250 541q0 231 124 444t323.5 342t412.5 129q240 0 390.5 -164t150.5 -415q0 -231 -124 -444.5t-322.5 -340.5t-411.5 -127q-236 0 -389.5 161t-153.5 415zM467 551q0 -215 107.5 -319.5t252.5 -104.5q133 0 251 72.5t197 186.5t124 249t45 262q0 188 -103.5 294.5 t-265.5 106.5q-240 0 -424 -214t-184 -533z" />
<glyph unicode="&#x41f;" horiz-adv-x="1441" d="M164 0l301 1421l2 2h1110l-303 -1423h-215l268 1260h-682l-266 -1260h-215z" />
<glyph unicode="&#x420;" horiz-adv-x="1347" d="M166 0l301 1421l2 2h524q109 0 192 -25.5t130 -64.5t77.5 -89t41 -94t10.5 -87q0 -195 -180.5 -352.5t-442.5 -157.5h-323l-117 -553h-215zM526 711h273q150 0 257 43t158 168q27 80 27 131q0 113 -92 166q-76 41 -238 41h-268z" />
<glyph unicode="&#x421;" horiz-adv-x="1374" d="M264 547q0 223 121 434t329 343t441 132q190 0 379 -70l-82 -212l-18 14q-20 16 -30.5 23.5t-35.5 22.5t-48.5 23.5t-54 18.5t-68.5 14t-79 4q-248 0 -442.5 -225t-194.5 -502q0 -184 103.5 -311t287.5 -127q102 0 180 18.5t114 36t139 74.5l-23 -178 q-135 -70 -223 -92.5t-221 -22.5q-262 0 -418 166t-156 416z" />
<glyph unicode="&#x422;" horiz-adv-x="1484" d="M344 1260l35 163h1329l-35 -163h-559l-266 -1260h-215l268 1260h-557z" />
<glyph unicode="&#x423;" horiz-adv-x="1382" d="M332 0l35 164h143q84 0 126 15.5t77 58.5h-4l-377 1185h229l203 -647q80 -272 88 -342l37 76l178 297l381 616h205l-563 -909q-102 -166 -166 -254t-136.5 -152.5t-142.5 -86t-170 -21.5h-143z" />
<glyph unicode="&#x424;" horiz-adv-x="1792" d="M262 616q0 133 61.5 266.5t174.5 221.5q201 158 563 160l33 157v2h206l-34 -159q381 -4 510 -179q66 -88 65 -221q0 -141 -67.5 -280.5t-186.5 -223.5q-203 -139 -545 -145l-45 -215h-204l45 215q-168 2 -307.5 46t-202.5 132q-66 88 -66 223zM475 641q0 -80 30 -133 t87 -82t122.5 -41t155.5 -16l158 741q-102 -4 -180 -19.5t-152.5 -52.5t-126 -105.5t-77.5 -166.5q-17 -66 -17 -125zM1075 369q100 4 179 19t154 52t126 106.5t78 168.5q18 74 18 125q0 82 -32.5 137t-95 81.5t-122 37t-145.5 14.5z" />
<glyph unicode="&#x425;" horiz-adv-x="1382" d="M29 0l696 754l-365 669h256l254 -497l453 497h240l-621 -669l408 -754h-254l-295 598l-531 -598h-241z" />
<glyph unicode="&#x426;" horiz-adv-x="1488" d="M164 0l301 1421l2 2h213l-266 -1255h682l266 1253v2h215l-268 -1255h135l-107 -510h-170l72 342h-1075z" />
<glyph unicode="&#x427;" horiz-adv-x="1441" d="M354 870q0 20 28 158.5t56 265.5l29 129h215q-113 -514 -113 -540q0 -43 40 -82t145 -39h469l141 661h213l-301 -1423h-215l129 604h-479q-172 0 -291 125q-66 65 -66 141z" />
<glyph unicode="&#x428;" horiz-adv-x="2256" d="M164 0l301 1421l2 2h203l-267 -1255h658l264 1253l2 2h203l-266 -1255h657l264 1253l2 2h203l-301 -1423h-1925z" />
<glyph unicode="&#x429;" horiz-adv-x="2304" d="M164 0l301 1421l2 2h203l-267 -1255h658l264 1253l2 2h203l-266 -1255h657l264 1253l2 2h203l-266 -1255h135l-109 -510h-170l74 342h-1890z" />
<glyph unicode="&#x42a;" horiz-adv-x="1878" d="M344 1260l35 163h766l-127 -602h354q131 0 229.5 -33.5t149.5 -89t74.5 -112t23.5 -113.5q0 -176 -163 -307q-117 -94 -230 -130t-278 -36h-541l268 1260h-561zM877 164h231q10 0 30.5 -1t30.5 -1q223 0 369 104q109 80 109 174q0 82 -87 149.5t-278 67.5h-299z" />
<glyph unicode="&#x42b;" horiz-adv-x="1859" d="M168 0l301 1421l2 2h205l-127 -602h354q133 0 231.5 -33.5t148.5 -89t73.5 -112t23.5 -113.5q0 -172 -166.5 -308t-386.5 -161q-39 -4 -116 -4h-543zM408 164h231q10 0 30.5 -1t30.5 -1q221 0 348.5 88t127.5 190q0 82 -87.5 149.5t-275.5 67.5h-299zM1468 0l304 1423 h213l-302 -1423h-215z" />
<glyph unicode="&#x42c;" horiz-adv-x="1406" d="M168 0l301 1421l2 2h205l-127 -602h354q133 0 231.5 -33.5t148.5 -89t73.5 -112t23.5 -113.5q0 -172 -166.5 -308t-386.5 -161q-39 -4 -116 -4h-543zM408 164h231q10 0 30.5 -1t30.5 -1q221 0 348.5 88t127.5 190q0 82 -87.5 149.5t-275.5 67.5h-299z" />
<glyph unicode="&#x42d;" horiz-adv-x="1374" d="M123 80l53 178q94 -74 165 -101.5t212 -27.5q205 0 372 150.5t230 349.5h-629l-96 2l35 162h725q2 20 2 63q0 193 -107.5 315.5t-279.5 122.5q-86 0 -165 -21.5t-113.5 -38.5t-108.5 -60l4 126l2 86q213 70 414 70q262 0 416.5 -166t154.5 -416q0 -225 -121 -435 t-328.5 -342t-441.5 -132q-135 0 -212 24.5t-183 90.5z" />
<glyph unicode="&#x42e;" horiz-adv-x="2236" d="M164 0l303 1423h213l-135 -635h375q55 166 152 298.5t211 210t230.5 118.5t227.5 41q242 0 392.5 -164t150.5 -413q0 -176 -75 -346.5t-195 -293t-276.5 -198.5t-314.5 -76q-242 0 -392 163t-150 411q0 25 4 86h-373l-133 -625h-215zM1098 551q0 -217 108.5 -320.5 t251.5 -103.5q176 0 321.5 124t220.5 299t75 347q0 188 -103.5 294.5t-265.5 106.5q-248 0 -428 -219t-180 -528z" />
<glyph unicode="&#x42f;" horiz-adv-x="1374" d="M59 0l646 637q-145 16 -259 106.5t-114 229.5q0 72 41 147.5t118.5 145t214 113.5t304.5 44h497l-301 -1423h-211l135 631h-223l-600 -631h-248zM535 983q0 -156 198 -186q49 -8 146 -9h284l101 472h-318q-119 0 -205 -27t-128 -71t-60 -88t-18 -91z" />
<glyph unicode="&#x430;" horiz-adv-x="1007" d="M131 207q0 127 89 199.5t255 113.5q139 35 322 39q25 125 24 152q0 53 -33.5 95t-103.5 42q-78 0 -148.5 -20.5t-101.5 -37t-98 -55.5q18 160 24 170q4 4 19 10q166 78 338 78q147 0 226 -81t79 -185q0 -31 -12 -92l-136 -635h-192l27 131q-160 -147 -377 -147 q-106 0 -153.5 69.5t-47.5 153.5zM326 246q4 -43 43 -76t110 -33q82 0 157 40t99 110q6 16 41 176q-207 -8 -322.5 -61.5t-125.5 -131.5z" />
<glyph unicode="&#x431;" d="M150 373q0 37 5 70.5t17 82.5t14 64q29 117 55.5 204t76 196.5t107.5 183t148.5 133t200.5 77.5q29 6 445 39q-2 -8 -7.5 -33.5t-7.5 -33.5t-7 -27.5t-11 -26t-16.5 -19.5t-23.5 -18t-31.5 -11.5t-43.5 -8.5q-39 -4 -96 -10t-82 -9t-65 -7.5t-56 -7.5t-43 -9t-40 -11 t-31.5 -13.5t-33 -17.5t-30.5 -21q-119 -90 -186 -293q166 145 342 145q168 0 273 -113.5t105 -285.5q0 -238 -184 -423t-412 -185q-170 0 -276 110.5t-106 278.5zM346 365q0 -121 64.5 -171.5t156.5 -50.5q109 0 189 57.5t115.5 143.5t51 156.5t15.5 126.5q0 115 -65.5 163 t-157.5 48q-90 0 -161 -40t-108.5 -96.5t-61.5 -127t-31 -120.5t-7 -89z" />
<glyph unicode="&#x432;" horiz-adv-x="1007" d="M133 0l205 967h405q150 0 225.5 -38t75.5 -149q0 -94 -51 -146t-184 -102q129 -59 168 -116q25 -37 24 -80q0 -47 -30.5 -118t-77.5 -116q-106 -102 -352 -102h-408zM352 154h172q145 0 211 41q33 20 56.5 56t23.5 75q0 70 -78 108q-59 33 -202 37h-115zM446 592h25 q147 0 267 32.5t120 106.5q0 86 -186 86h-178z" />
<glyph unicode="&#x433;" horiz-adv-x="854" d="M131 0l205 967h668l-33 -150h-469l-174 -817h-197z" />
<glyph unicode="&#x434;" horiz-adv-x="1134" d="M0 -285l94 439h78q127 109 192.5 273.5t147.5 539.5h653l-172 -813h115l-92 -439h-170l59 285h-674l-61 -285h-170zM385 154h420l2 2l139 657h-295q-57 -240 -109.5 -377t-156.5 -282z" />
<glyph unicode="&#x435;" horiz-adv-x="964" d="M152 377q0 231 176 422.5t397 191.5q78 0 142.5 -23.5t114.5 -98t50 -193.5q0 -41 -20 -164h-658q-2 -2 -5 -20.5t-7 -45t-4 -45.5q0 -113 64.5 -188.5t175.5 -75.5q162 0 352 117l-21 -166q-188 -104 -364 -104q-180 0 -286.5 112.5t-106.5 280.5zM401 633h467 q-2 117 -55 161t-123 44q-84 0 -161 -56.5t-128 -148.5z" />
<glyph unicode="&#x436;" horiz-adv-x="1536" d="M35 0l518 600v2l-264 365h233l277 -383l80 383h182l-82 -385l442 385h234l-420 -367l264 -600h-209l-205 469l-159 -137l-70 -332h-182l69 338l-96 131l-403 -469h-209z" />
<glyph unicode="&#x437;" horiz-adv-x="956" d="M80 92l106 156q106 -106 269 -107q160 0 235.5 60.5t75.5 132.5q0 137 -268 137h-101l27 121h92q164 0 239.5 44t75.5 97q0 104 -227 105q-27 0 -48 -1t-41.5 -4.5t-33 -4.5t-32 -7t-27.5 -8t-28.5 -12t-26 -13.5t-32 -16.5t-32.5 -17l-39 151q113 53 183.5 70.5 t177.5 17.5q86 0 147.5 -7t121.5 -28.5t92 -67.5t32 -116q0 -51 -16.5 -89t-53.5 -65.5t-65.5 -43t-83.5 -39.5q154 -66 153 -189q0 -47 -24.5 -103.5t-77.5 -117.5t-166 -102t-264 -41q-195 -1 -340 108z" />
<glyph unicode="&#x438;" horiz-adv-x="1091" d="M135 0l205 967h188l-163 -770l518 770h276l-207 -967h-186l162 770l-516 -770h-277z" />
<glyph unicode="&#x439;" horiz-adv-x="1091" d="M135 0l205 967h188l-163 -770l518 770h276l-207 -967h-186l162 770l-516 -770h-277zM455 1315q0 35 4 51h155q0 -2 -1 -6t-1 -6q0 -98 195 -99q215 0 248 111h155q-27 -102 -109.5 -170t-164.5 -89.5t-160 -21.5q-139 0 -230 64t-91 166z" />
<glyph unicode="&#x43a;" horiz-adv-x="997" d="M135 0l205 967h184l-82 -385l441 385h233l-420 -367l265 -600h-209l-205 469l-158 -137l-72 -332h-182z" />
<glyph unicode="&#x43b;" horiz-adv-x="1095" d="M41 0l35 164h67q27 0 44.5 3t44 22.5t53.5 56.5q63 90 112 255t115 466h653l-207 -967h-186l172 813h-295l-2 -2q-37 -166 -68.5 -280.5t-76.5 -222t-97.5 -170t-124 -100.5t-161.5 -38h-78z" />
<glyph unicode="&#x43c;" horiz-adv-x="1366" d="M133 0l205 967h270l121 -721l426 721h279l-205 -967h-193l144 674l18 94q-12 -35 -145 -266l-285 -486h-176q-102 641 -103 738v16l-163 -770h-193z" />
<glyph unicode="&#x43d;" horiz-adv-x="1058" d="M135 0l205 967h188l-79 -375h409l80 375h186l-204 -967h-189l100 471h-409l-100 -471h-187z" />
<glyph unicode="&#x43e;" d="M150 373q0 236 184 428t414 192q168 0 274 -113.5t106 -285.5q0 -244 -185 -427t-411 -183q-170 0 -276 110.5t-106 278.5zM346 365q0 -121 64.5 -171.5t156.5 -50.5q109 0 189 57.5t115.5 143.5t51 156.5t15.5 126.5q0 115 -65.5 163t-157.5 48q-90 0 -161 -39 t-108.5 -94.5t-61.5 -126t-31 -121.5t-7 -92z" />
<glyph unicode="&#x43f;" horiz-adv-x="1058" d="M135 0l205 967h784l-204 -967h-189l172 813h-409l-172 -813h-187z" />
<glyph unicode="&#x440;" horiz-adv-x="1058" d="M61 -342l279 1309h192l-24 -113q180 129 373 129h2q39 0 73.5 -13.5t70.5 -47t57.5 -106.5t21.5 -175q0 -258 -159 -457.5t-353 -199.5q-150 0 -240 122l-96 -448h-197zM381 233q51 -96 147 -96q137 0 255 132t118 304q0 111 -57.5 181.5t-151.5 70.5q-57 0 -111.5 -25.5 t-80.5 -51.5q-10 -10 -15.5 -34t-50.5 -233q-30 -146 -53 -248z" />
<glyph unicode="&#x441;" horiz-adv-x="956" d="M162 373q0 231 178 425.5t422 194.5q109 0 170 -19.5t143 -68.5l-63 -168q-55 39 -81 54.5t-79 29t-129 13.5q-82 0 -148.5 -36t-105.5 -89.5t-65.5 -119t-36 -119.5t-9.5 -97q0 -106 56.5 -168t160.5 -62q78 0 151 19.5t112 39t98 54.5l-23 -170q-193 -102 -372 -102 q-174 0 -276.5 110.5t-102.5 278.5z" />
<glyph unicode="&#x442;" horiz-adv-x="1007" d="M225 813l33 154h897l-33 -154h-350l-172 -813h-199l172 813h-348z" />
<glyph unicode="&#x443;" horiz-adv-x="937" d="M-6 -344l20 170q98 -31 166 -31q25 0 47.5 5t42 19.5t32.5 24t30.5 36t23.5 36.5t25.5 43t24.5 41l-168 967h196l74 -457l16 -141l6 -113l-2 -57q29 111 398 768h188l-584 -1035q-164 -291 -385 -290q-45 0 -151 14z" />
<glyph unicode="&#x444;" horiz-adv-x="1595" d="M158 346q0 227 142 432t325 205q152 0 260 -113l116 553h193l-117 -553q156 113 309 113q119 0 186.5 -99.5t67.5 -248.5q0 -252 -156.5 -451.5t-344.5 -199.5q-135 0 -226 116l-94 -442h-192l94 442q-131 -117 -272 -116q-129 0 -210 101t-81 261zM360 393 q0 -111 59.5 -183.5t153.5 -72.5q59 0 107.5 31t64.5 59q6 12 113 525q-59 74 -139 73q-133 0 -246 -133t-113 -299zM944 238q0 -33 36 -67t97 -34q135 0 247 134.5t112 299.5q0 109 -58.5 180.5t-152.5 73.5h-2q-82 0 -172 -73q-107 -504 -107 -514z" />
<glyph unicode="&#x445;" horiz-adv-x="937" d="M0 0l485 500l-268 467h213l170 -322l297 322h209l-453 -465l285 -502h-211l-182 383h-2l-334 -383h-209z" />
<glyph unicode="&#x446;" horiz-adv-x="1130" d="M135 0l205 967h188l-174 -813h445l2 2l172 811h186l-174 -813h117l-94 -439h-170l61 285h-764z" />
<glyph unicode="&#x447;" horiz-adv-x="1091" d="M264 592q0 12 78 375h186q-74 -350 -73.5 -368.5t10.5 -35.5q20 -25 39.5 -32t66.5 -7h308l92 443h188l-207 -967h-186l86 403h-313q-117 0 -196 65t-79 124z" />
<glyph unicode="&#x448;" horiz-adv-x="1595" d="M135 0l205 967h188l-174 -813h381v2l172 811h189l-174 -813h381v2l172 811h186l-205 -967h-1321z" />
<glyph unicode="&#x449;" horiz-adv-x="1634" d="M135 0l205 967h188l-174 -813h381v2l172 811h189l-174 -813h381v2l172 811h186l-172 -813h115l-93 -439h-170l60 285h-1266z" />
<glyph unicode="&#x44a;" horiz-adv-x="1280" d="M225 813l33 154h543l-80 -375h223q172 0 252 -73t80 -161q0 -53 -32 -125.5t-85 -121.5q-121 -111 -352 -111h-399l172 813h-355zM629 160h172q154 0 221.5 54t67.5 122q0 41 -42 85t-143 50h-211z" />
<glyph unicode="&#x44b;" horiz-adv-x="1417" d="M135 0l205 967h188l-79 -375h223q172 0 252 -73t80 -161q0 -53 -32 -125.5t-85 -121.5q-121 -111 -352 -111h-400zM356 160h172q154 0 221.5 54t67.5 122q0 41 -42 85t-142 50h-211zM1090 0l204 967h189l-205 -967h-188z" />
<glyph unicode="&#x44c;" horiz-adv-x="1007" d="M135 0l205 967h188l-79 -375h223q172 0 252 -73t80 -161q0 -53 -32 -125.5t-85 -121.5q-121 -111 -352 -111h-400zM356 160h172q154 0 221.5 54t67.5 122q0 41 -42 85t-142 50h-211z" />
<glyph unicode="&#x44d;" horiz-adv-x="956" d="M78 86l51 170q135 -113 311 -113q256 0 346 328h-485l25 121h477l2 16q-8 102 -53 164t-166 62q-100 0 -163 -19.5t-165 -77.5l4 168q111 53 179.5 70.5t168.5 17.5h6q182 0 281.5 -113.5t99.5 -279.5q0 -238 -179 -427t-410 -189q-183 0 -330 102z" />
<glyph unicode="&#x44e;" horiz-adv-x="1544" d="M131 0l205 967h196l-77 -375h211q68 170 223 284.5t328 114.5q170 0 275 -112.5t105 -284.5q0 -242 -184 -426t-412 -184q-174 0 -278.5 111.5t-104.5 277.5q0 43 11 98h-201l-100 -471h-197zM815 365q0 -121 64.5 -171.5t156.5 -50.5q109 0 189 57.5t115.5 143.5 t51 156.5t15.5 126.5q0 115 -66.5 163t-158.5 48q-133 0 -226 -84q-78 -70 -109.5 -187.5t-31.5 -201.5z" />
<glyph unicode="&#x44f;" horiz-adv-x="1091" d="M35 0l491 434q-123 18 -183 78.5t-60 142.5q0 68 39.5 134.5t107.5 105.5q121 72 344 72h387l-205 -967h-192l90 424h-143l-432 -424h-244zM469 662q0 -33 13.5 -55.5t34 -35t60 -18.5t77.5 -8t104 -2h121l57 270h-248q-49 0 -83 -5t-67.5 -19.5t-51 -46t-17.5 -80.5z " />
<glyph unicode="&#x450;" horiz-adv-x="964" d="M152 377q0 231 176 422.5t397 191.5q78 0 142.5 -23.5t114.5 -98t50 -193.5q0 -41 -20 -164h-658q-2 -2 -5 -20.5t-7 -45t-4 -45.5q0 -113 64.5 -188.5t175.5 -75.5q162 0 352 117l-21 -166q-188 -104 -364 -104q-180 0 -286.5 112.5t-106.5 280.5zM401 633h467 q-2 117 -55 161t-123 44q-84 0 -161 -56.5t-128 -148.5zM623 1368h196l213 -264h-155z" />
<glyph unicode="&#x451;" horiz-adv-x="964" d="M152 377q0 231 176 422.5t397 191.5q78 0 142.5 -23.5t114.5 -98t50 -193.5q0 -41 -20 -164h-658q-2 -2 -5 -20.5t-7 -45t-4 -45.5q0 -113 64.5 -188.5t175.5 -75.5q162 0 352 117l-21 -166q-188 -104 -364 -104q-180 0 -286.5 112.5t-106.5 280.5zM401 633h467 q-2 117 -55 161t-123 44q-84 0 -161 -56.5t-128 -148.5zM426 1172l41 192h192l-40 -192h-193zM844 1172l41 192h192l-40 -192h-193z" />
<glyph unicode="&#x452;" horiz-adv-x="997" d="M131 0l227 1073h-90l33 154h90l43 196h193l-43 -196h622l-32 -154h-623l-57 -272q160 182 358 182q248 0 248 -207q0 -51 -45 -262q-78 -356 -307.5 -604t-491.5 -252l27 121q172 6 319 166q82 90 141.5 216t82 213t51.5 224q6 27 8 41q8 45 8 68q0 123 -184 122 q-96 0 -158 -67.5t-88 -143.5q-10 -31 -23 -96l-112 -522h-197z" />
<glyph unicode="&#x453;" horiz-adv-x="823" d="M131 0l205 967h668l-33 -150h-469l-174 -817h-197zM369 1102l325 266h197q-94 -70 -215 -158q-111 -82 -133.5 -95t-44.5 -13h-129z" />
<glyph unicode="&#x454;" horiz-adv-x="944" d="M150 373q0 231 178 425.5t422 194.5q109 0 170 -19.5t143 -68.5l-64 -168q-55 39 -80.5 54.5t-79 29t-126.5 13.5q-217 0 -322 -242h475l-24 -121h-486q-10 -55 -10 -100q0 -104 56.5 -166t156.5 -62q109 0 189.5 28t175.5 85l-23 -170q-193 -102 -373 -102 q-174 0 -276 110.5t-102 278.5z" />
<glyph unicode="&#x455;" horiz-adv-x="823" d="M76 80l69 176q133 -113 308 -113q102 0 152 45t50 100.5t-61 88.5q-23 12 -104.5 26.5t-149.5 47t-102 102.5q-23 43 -23 96q0 49 20.5 103.5t64.5 111t132 93t205 36.5q154 0 301 -69l-64 -168q-137 84 -292 84q-90 0 -133 -40t-43 -93q0 -18 2 -27q4 -10 8 -17.5 t11 -14.5l11 -11t14.5 -8t16.5 -6t22.5 -6.5t25.5 -6.5t33.5 -7t39.5 -9q252 -51 252 -248q0 -49 -19.5 -105.5t-63.5 -117t-132 -100t-207 -39.5q-188 0 -344 96z" />
<glyph unicode="&#x456;" horiz-adv-x="460" d="M133 0l205 967h194l-206 -967h-193zM393 1229l41 192h192l-40 -192h-193z" />
<glyph unicode="&#x457;" horiz-adv-x="460" d="M133 0l205 967h194l-206 -967h-193zM172 1172l41 192h192l-40 -192h-193zM590 1172l41 192h192l-40 -192h-193z" />
<glyph unicode="&#x458;" horiz-adv-x="520" d="M-219 -299l74 156q72 -53 149 -54q119 0 156 60q4 6 14 43l225 1061h193l-225 -1059q-27 -109 -93 -170q-98 -96 -241 -96q-137 0 -252 59zM455 1229l41 192h192l-41 -192h-192z" />
<glyph unicode="&#x459;" horiz-adv-x="1611" d="M41 0l35 164h67q27 0 44.5 3t44 22.5t53.5 56.5q63 90 112 255t115 466h653l-80 -375h195q172 0 252 -73t80 -161q0 -23 -6.5 -56.5t-35 -89.5t-75.5 -100t-139 -78t-215 -34h-369l172 813h-295l-2 -2q-37 -166 -68.5 -280.5t-76.5 -222t-97.5 -170t-124 -100.5 t-161.5 -38h-78zM993 160h144q160 0 223 57t63 119q0 70 -75 108q-53 27 -166 27h-123z" />
<glyph unicode="&#x45a;" horiz-adv-x="1607" d="M135 0l205 967h188l-79 -375h444l80 375h186l-80 -375h195q172 0 252 -73t80 -161q0 -23 -6.5 -56.5t-35 -89.5t-75.5 -100t-139.5 -78t-214.5 -34h-369l100 471h-444l-100 -471h-187zM987 160h143q160 0 223.5 57t63.5 119q0 41 -41 85t-141 50h-182z" />
<glyph unicode="&#x45b;" horiz-adv-x="1058" d="M131 0l227 1073h-92l33 154h92l43 196h193l-43 -196h501l-32 -154h-502l-55 -268q152 178 344 178q240 0 239 -205q0 -43 -16 -129l-139 -649h-197l135 639q10 57 10 72q0 119 -170 118q-20 0 -40.5 -4t-55.5 -20.5t-62.5 -46t-56 -88t-45.5 -135.5l-114 -535h-197z" />
<glyph unicode="&#x45c;" horiz-adv-x="997" d="M135 0l205 967h184l-82 -385l441 385h233l-420 -367l265 -600h-209l-205 469l-158 -137l-72 -332h-182zM475 1102l324 266h196q-342 -250 -354 -256q-18 -10 -39 -10h-127z" />
<glyph unicode="&#x45d;" horiz-adv-x="1091" d="M135 0l205 967h188l-163 -770l518 770h276l-207 -967h-186l162 770l-516 -770h-277zM596 1368h196l213 -264h-155z" />
<glyph unicode="&#x45e;" horiz-adv-x="937" d="M-6 -344l20 170q98 -31 166 -31q25 0 47.5 5t42 19.5t32.5 24t30.5 36t23.5 36.5t25.5 43t24.5 41l-168 967h196l74 -457l16 -141l6 -113l-2 -57q29 111 398 768h188l-584 -1035q-164 -291 -385 -290q-45 0 -151 14zM381 1315q0 27 6 51h154v-12q0 -98 194 -99 q215 0 248 111h154q-27 -102 -110 -170t-164 -89.5t-158 -21.5q-139 0 -231.5 64t-92.5 166z" />
<glyph unicode="&#x45f;" horiz-adv-x="1091" d="M135 0l205 967h188l-174 -813h445v2l172 811h188l-207 -967h-323l-62 -285h-168l60 285h-324z" />
<glyph unicode="&#x460;" horiz-adv-x="1970" d="M246 422q0 158 56 385t177 391q188 254 471 258l-32 -158h-3q-45 -2 -89 -20t-106.5 -69.5t-120.5 -172.5t-97 -297q-41 -174 -41 -301q0 -311 219 -311q68 0 124 13.5t79.5 25.5t31.5 20q6 8 11 29l112 524h205l-117 -555l13 -8q10 -6 12 -7t13.5 -7t16.5 -8t17 -7.5 t20.5 -7.5t23.5 -5t28.5 -4t32 -2t38.5 -1q104 0 189.5 73.5t135.5 179t84 228.5t47 214t13 145q0 104 -21.5 171.5t-36.5 84t-50 45.5q-47 29 -100 30l34 158q193 -2 290 -125t97 -332q0 -92 -18 -210.5t-69.5 -268t-127 -269.5t-207 -203t-292.5 -83q-106 0 -169 23.5 t-139 91.5q-100 -66 -173.5 -90.5t-186.5 -24.5q-74 0 -138.5 21.5t-125 69.5t-96 141.5t-35.5 224.5z" />
<glyph unicode="&#x461;" horiz-adv-x="1740" d="M215 315q0 72 14.5 153t55.5 178t103.5 173t169 128t239.5 54l-33 -153q-102 -4 -177 -65.5t-109 -150.5t-48 -160t-14 -124q0 -223 207 -223h34l242 467h193l43 -467h28q94 0 166 44t112 118.5t60.5 154.5t26.5 172q2 223 -195 234l35 153q184 -2 272.5 -97t88.5 -255 q0 -68 -14.5 -146.5t-55.5 -177t-103.5 -176t-171 -131t-245.5 -53.5q-88 0 -140.5 16.5t-119.5 61.5h-2q-135 -78 -291 -78q-203 0 -287 100t-84 250z" />
<glyph unicode="&#x462;" horiz-adv-x="1646" d="M236 1143l34 164h416l49 229h207l-51 -229h717l-35 -164h-715l-70 -322h355q133 0 231.5 -33.5t148.5 -89t73.5 -112t23.5 -113.5q0 -172 -167 -308t-386 -161q-39 -4 -117 -4h-540l241 1143h-415zM649 164h230q10 0 30.5 -1t30.5 -1q227 0 351 90t124 190 q0 82 -86 148.5t-274 66.5h-299z" />
<glyph unicode="&#x463;" d="M205 0l172 813h-164l33 154h164l86 399h186l-84 -399h297l-33 -154h-299l-45 -221h223q172 0 252 -73t80 -161q0 -53 -31.5 -125.5t-85.5 -121.5q-121 -111 -352 -111h-399zM426 160h172q154 0 221.5 54t67.5 122q0 41 -42 85t-143 50h-210z" />
<glyph unicode="&#x464;" horiz-adv-x="2004" d="M164 0l303 1423h213l-133 -630h387q35 115 109.5 228.5t182 212.5t255 160.5t307.5 61.5q195 0 377 -70l-82 -212l-17 14q-16 12 -22 16t-24.5 16.5t-31 18.5t-34 16.5t-42 15.5t-47 11t-56 9t-62.5 3q-182 0 -347 -132t-251 -369h725l-35 -164h-725q-2 -20 -2 -64 q0 -182 102.5 -309t286.5 -127q137 0 218 25.5t216 103.5l-22 -178q-127 -66 -216 -90.5t-227 -24.5q-274 0 -424.5 171t-150.5 411q0 27 4 84h-387l-133 -631h-215z" />
<glyph unicode="&#x465;" horiz-adv-x="1437" d="M131 0l205 967h196l-77 -375h221q57 147 204.5 274t344.5 127q111 0 170 -18.5t149 -69.5l-65 -168q-55 39 -80 54.5t-78 29t-127 13.5q-219 0 -324 -242h478l-25 -121h-485q-10 -55 -11 -100q0 -104 56.5 -166t156.5 -62q109 0 188 28t175 85l-21 -170 q-195 -102 -374 -102q-170 0 -273.5 110.5t-103.5 276.5q0 45 10 100h-213l-100 -471h-197z" />
<glyph unicode="&#x466;" horiz-adv-x="1808" d="M59 0l1031 1440h239l420 -1440h-236l-133 457h-299l-98 -457h-186l96 457h-301l-326 -457h-207zM711 621h622l-180 618z" />
<glyph unicode="&#x467;" horiz-adv-x="1449" d="M29 0l780 975h244l366 -975h-213l-110 293h-232l-61 -293h-160l62 293h-236l-233 -293h-207zM567 412h484l-154 411z" />
<glyph unicode="&#x468;" horiz-adv-x="2525" d="M164 0l303 1423h213l-168 -796h664l626 813h246l502 -1440h-242l-162 465h-348l-98 -465h-191l99 465h-348l-359 -465h-211l359 465h-572l-98 -465h-215zM1386 627h703l-217 628z" />
<glyph unicode="&#x469;" horiz-adv-x="2017" d="M131 0l205 967h196l-114 -549h471l485 557h248l432 -975h-219l-131 297h-272l-62 -297h-160l64 297h-275l-258 -297h-213l258 297h-395l-63 -297h-197zM1104 418h547l-185 416z" />
<glyph unicode="&#x46a;" horiz-adv-x="1980" d="M35 0l444 545q39 47 57.5 67.5t66.5 61.5t96.5 62.5t128 45t178.5 33.5l-361 608h1288l-616 -608q53 -8 71.5 -11t77 -17.5t91 -32t72.5 -52t65 -79.5l30 -74l215 -549h-221l-200 551q-18 51 -39 65q-57 41 -256 41l-140 -657h-190l139 657q-51 0 -94 -3t-72.5 -6 t-56.5 -12t-40 -14.5t-28.5 -18.5t-19.5 -17t-17.5 -21.5t-15.5 -19.5l-430 -545h-223zM934 1260l237 -402l410 402h-647z" />
<glyph unicode="&#x46b;" horiz-adv-x="1654" d="M35 0q391 412 424 440q10 8 20 17q133 102 342 127l-325 383h1073l-488 -383q215 -27 305 -150q10 -12 232 -434h-213q-154 332 -173.5 372t-41.5 58q-47 35 -176 41l-101 -471h-174l101 471q-33 -2 -58.5 -4t-48 -7t-38 -8t-31 -12.5t-23.5 -11.5t-20.5 -14.5 l-14.5 -14.5l-16 -16l-12 -14l-328 -369h-215zM801 813q100 -129 119.5 -156.5t31.5 -64.5q10 16 22.5 29.5t38 36t43 37t65.5 53t79 65.5h-399z" />
<glyph unicode="&#x46c;" horiz-adv-x="2697" d="M164 0l303 1423h213l-127 -602h1165l-356 602h1288l-616 -608q197 -27 277.5 -83t129.5 -183l215 -549h-221l-201 551q-18 51 -39 65q-57 41 -256 41l-139 -657h-192l141 657q-51 0 -94 -3t-73 -6t-56.5 -12t-39.5 -14.5t-28.5 -18.5t-19.5 -17t-17.5 -21.5t-15.5 -19.5 l-432 -545h-221l503 614l45 43h-782l-139 -657h-215zM1651 1260l235 -402l410 402h-645z" />
<glyph unicode="&#x46d;" horiz-adv-x="2283" d="M131 0l205 967h196l-77 -375h987l-322 375h1078l-490 -383q223 -27 311 -156q16 -29 228 -428h-215q-35 78 -88 190q-78 168 -93.5 197t-29.5 41l-2 2q-43 33 -179 41l-100 -471h-174l100 471q-86 -4 -139 -19.5t-71.5 -30.5t-51.5 -52l-330 -369h-212l407 426l55 45 h-696l-100 -471h-197zM1427 813q131 -170 142 -195q4 -10 10 -26q10 16 25.5 31.5t42 40t46 40t64.5 52.5t70 57h-400z" />
<glyph unicode="&#x46e;" horiz-adv-x="1161" d="M0 -236q0 63 47 121t125 92l576 197l14 6l24.5 7t31 12.5t36.5 18.5t36.5 23.5t37 30t34 37t27.5 44t17.5 52t7.5 62.5q0 104 -99 158q-74 39 -215 39h-143l35 153h100q94 0 146 17q92 29 162.5 103.5t70.5 195.5q0 158 -194 161h-13q-14 -2 -24.5 -2t-29.5 -3t-35.5 -6 t-38 -10t-40 -15.5t-39 -21.5t-37 -29.5t-32 -39t-25.5 -47.5l-186 35q43 121 155.5 195.5t245.5 95.5l-188 270h155l168 -200h2l252 200h156l-299 -266q258 -33 258 -270q0 -328 -391 -435q299 -51 299 -294q0 -170 -111 -287q-47 -49 -114.5 -88t-102.5 -52.5t-121 -41.5 q-496 -170 -512 -177q-45 -20 -49 -43q0 -4 -2 -22q6 -25 31 -33q-74 -63 -96 -63q-39 0 -76 31.5t-37 88.5z" />
<glyph unicode="&#x46f;" horiz-adv-x="921" d="M14 -229q0 76 52.5 143.5t142.5 101.5q55 20 144 42t154.5 39.5t130 45t99.5 73.5t35 112q0 76 -67 114q-49 29 -166 29h-88l26 121h70q129 0 186.5 45t57.5 98q0 94 -160 94q-154 0 -217 -94l-181 15q113 203 406 233h-70l-225 201h154l182 -135l197 116l32 17l27 2h125 l-270 -185l-25 -12l-31 -4h-35q293 -2 293 -207q0 -152 -159 -235q33 -23 50 -37.5t40.5 -60.5t23.5 -103q0 -154 -114 -258q-18 -16 -40 -31.5t-39.5 -26t-50 -23.5t-52 -20.5t-68.5 -21.5t-76 -21.5t-98.5 -27t-112.5 -29.5q-82 -20 -90 -71q0 -51 57 -58l-131 -110 q-119 8 -119 129z" />
<glyph unicode="&#x470;" horiz-adv-x="1673" d="M356 1118l33 154h191q31 0 51 -7.5t36.5 -39t16.5 -90.5q0 -76 -31.5 -228.5t-31.5 -226.5q0 -233 188 -299l221 1040l2 2h205l-221 -1042q125 43 188 102q88 82 133 193.5t74 250t57 206.5q27 61 59 95t54.5 40t50.5 6q6 0 14.5 -1t14.5 -1h162l-33 -154 q-47 -4 -82 -30.5t-58.5 -82t-32.5 -86t-28 -102.5q-66 -272 -230.5 -421.5t-377.5 -174.5l-47 -221h-205l47 221q-57 8 -109.5 27.5t-115 63.5t-100 132t-37.5 209q0 80 19.5 181.5t19.5 144.5q0 57 -18.5 90t-36 40t-42.5 9z" />
<glyph unicode="&#x471;" horiz-adv-x="1374" d="M215 311q0 86 58.5 266.5t58.5 200.5q0 51 -58 51h-41l33 154q6 0 20.5 1t20.5 1q125 0 175 -60.5t50 -127.5q0 -41 -58 -215t-58 -236q0 -166 202 -203l273 1278v2h192l-272 -1280q84 14 145.5 49t92 68t51 88t23.5 73.5t10 61.5q10 76 15 144.5t9 99.5t14 59 q27 74 106 136.5t202 62.5q8 0 22.5 -1t20.5 -1l-35 -154h-41q-49 0 -71.5 -42t-24.5 -101t-12.5 -155.5t-32.5 -172.5q-51 -162 -187.5 -258t-335.5 -112l-69 -330h-197l70 330q-371 38 -371 323z" />
<glyph unicode="&#x472;" horiz-adv-x="1603" d="M250 541q0 231 124 444t323.5 342t412.5 129q240 0 390.5 -164t150.5 -415q0 -231 -124 -444.5t-322.5 -340.5t-411.5 -127q-236 0 -389.5 161t-153.5 415zM467 551q0 -215 108.5 -319.5t251.5 -104.5q180 0 340 140.5t238 389.5h-930q-8 -90 -8 -106zM510 821h928 q6 74 6 78q0 186 -102.5 292.5t-264.5 106.5q-178 0 -337.5 -127t-229.5 -350z" />
<glyph unicode="&#x473;" d="M147 365q0 246 187.5 441t413.5 195q170 0 275 -113.5t105 -289.5q0 -246 -185 -439.5t-415 -193.5q-168 0 -274.5 114t-106.5 286zM336 367q0 -113 61.5 -178.5t163.5 -65.5q111 0 215.5 81t149.5 267h-578q-12 -69 -12 -104zM383 592h557q-2 141 -70.5 198.5 t-152.5 57.5q-94 0 -189.5 -64.5t-144.5 -191.5z" />
<glyph unicode="&#x474;" horiz-adv-x="1527" d="M332 1423h225l125 -774q55 -377 61 -452q25 66 160 295l395 673q51 86 98.5 142.5t89.5 79t69.5 29.5t64.5 7h149l-32 -155h-11q-115 0 -152.5 -22.5t-88.5 -108.5l-678 -1147h-238z" />
<glyph unicode="&#x475;" horiz-adv-x="1044" d="M236 967h202l47 -412l19 -178l10 -131v-49q23 68 264 518q2 2 20.5 36.5t24.5 46t26.5 43t34 45t38 37t47 34t53.5 19.5t63 9q4 0 14.5 -1t14.5 -1h98l-34 -154h-9q-88 0 -114.5 -11t-46.5 -48l-424 -780h-234z" />
<glyph unicode="&#x476;" horiz-adv-x="1527" d="M332 1423h225l125 -774q55 -377 61 -452q25 66 160 295l395 673q51 86 98.5 142.5t89.5 79t69.5 29.5t64.5 7h149l-32 -155h-11q-115 0 -152.5 -22.5t-88.5 -108.5l-678 -1147h-238zM481 1743h250q2 0 6 1t6 1q20 0 136 -80q90 -61 159 -109h-202q-25 1 -355 187z M840 1743h250q2 0 6 1t6 1q20 0 135 -80q90 -61 160 -109h-203q-24 1 -354 187z" />
<glyph unicode="&#x477;" horiz-adv-x="1044" d="M236 967h202l47 -412l19 -178l10 -131v-49q23 68 264 518q2 2 20.5 36.5t24.5 46t26.5 43t34 45t38 37t47 34t53.5 19.5t63 9q4 0 14.5 -1t14.5 -1h98l-34 -154h-9q-88 0 -114.5 -11t-46.5 -48l-424 -780h-234zM252 1368h196l213 -264h-155zM610 1368h196l213 -264h-155z " />
<glyph unicode="&#x47a;" horiz-adv-x="2031" d="M244 487q0 106 24 220q152 733 959 747v2q18 90 119 100q78 -8 77 -77q0 -16 -2 -25q666 -12 666 -522q0 -238 -100.5 -462t-282.5 -343q-246 -154 -598 -160q-23 -90 -119 -100q-80 8 -80 80q0 2 1 9t1 11q-665 12 -665 520zM463 522q0 -86 21.5 -151.5t63.5 -106.5 t84 -67.5t106.5 -40t103.5 -18.5t102 -9l29 137h196l-28 -137q317 14 479 154.5t227 421.5q29 125 29 215q0 176 -111.5 274t-375.5 102l-29 -137h-197l29 137q-381 -4 -559 -225q-88 -111 -129 -272.5t-41 -276.5z" />
<glyph unicode="&#x47b;" horiz-adv-x="1314" d="M143 332q0 127 52.5 272.5t156.5 237.5q160 139 422 147q16 45 38 66.5t73 27.5q74 -8 73 -71q0 -12 -2 -21q90 -8 152.5 -23.5t129.5 -51t101.5 -105.5t34.5 -172q0 -131 -53 -276.5t-162 -237.5q-145 -119 -416 -139q-10 -45 -41.5 -68.5t-66.5 -23.5q-74 0 -74 75v17 q-184 16 -270 63q-148 84 -148 283zM342 348q0 -63 21.5 -105t65.5 -61.5t78 -27t89 -11.5l27 127h182l-27 -127q172 12 255 80t124 254q25 98 25 164q0 51 -18.5 88t-41 55.5t-65.5 31.5t-65.5 15.5t-67.5 6.5l-27 -127h-180l26 127q-180 -12 -260 -81t-118 -251 q-23 -101 -23 -158z" />
<glyph unicode="&#x47c;" horiz-adv-x="1970" d="M246 422q0 158 56 385t177 391q188 254 471 258l-32 -158h-3q-45 -2 -89 -20t-106.5 -69.5t-120.5 -172.5t-97 -297q-41 -174 -41 -301q0 -311 219 -311q68 0 124 13.5t79.5 25.5t31.5 20q6 8 11 29l112 524h205l-117 -555l13 -8q10 -6 12 -7t13.5 -7t16.5 -8t17 -7.5 t20.5 -7.5t23.5 -5t28.5 -4t32 -2t38.5 -1q104 0 189.5 73.5t135.5 179t84 228.5t47 214t13 145q0 104 -21.5 171.5t-36.5 84t-50 45.5q-47 29 -100 30l34 158q193 -2 290 -125t97 -332q0 -92 -18 -210.5t-69.5 -268t-127 -269.5t-207 -203t-292.5 -83q-106 0 -169 23.5 t-139 91.5q-100 -66 -173.5 -90.5t-186.5 -24.5q-74 0 -138.5 21.5t-125 69.5t-96 141.5t-35.5 224.5zM782 1556q74 143 229.5 221t338.5 78q250 0 362 -145q4 -6 14.5 -22.5t13.5 -21.5t12 -17.5t14.5 -15.5t14.5 -12t17 -11t21.5 -7.5t27 -7.5t30.5 -4t40 -4l-21 -98 q-109 0 -174 27.5t-92.5 67.5t-55.5 79t-86 66.5t-157 27.5h-2q-264 0 -379 -201h-168zM1118 1503q27 102 97.5 148.5t138.5 46.5q66 0 102.5 -33t36.5 -70q0 -18 -9 -38.5t-24.5 -42t-32 -40t-39 -39t-36 -32.5t-30.5 -26.5t-19 -14.5l-54 72q70 45 84.5 57t14.5 26.5 t-13.5 25.5t-36.5 11q-39 0 -74.5 -33.5t-49.5 -86.5z" />
<glyph unicode="&#x47d;" horiz-adv-x="1740" d="M215 315q0 72 14.5 153t55.5 178t103.5 173t169 128t239.5 54l-33 -153q-102 -4 -177 -65.5t-109 -150.5t-48 -160t-14 -124q0 -223 207 -223h34l242 467h193l43 -467h28q94 0 166 44t112 118.5t60.5 154.5t26.5 172q2 223 -195 234l35 153q184 -2 272.5 -97t88.5 -255 q0 -68 -14.5 -146.5t-55.5 -177t-103.5 -176t-171 -131t-245.5 -53.5q-88 0 -140.5 16.5t-119.5 61.5h-2q-135 -78 -291 -78q-203 0 -287 100t-84 250zM571 1100q74 143 228.5 222t337.5 79q252 0 366 -148q49 -78 76 -96t98 -27l-20 -96q-37 0 -71 6.5t-58.5 14.5t-47 21.5 t-35.5 24.5t-27.5 28.5t-20.5 25.5t-15.5 24.5t-11.5 18.5q-72 104 -250 105h-2q-37 0 -74.5 -6.5t-96 -24t-114 -62.5t-94.5 -110h-168zM907 1047q23 92 91.5 144t144.5 52q55 0 97 -30.5t42 -73.5q0 -41 -47 -98.5t-96 -94.5l-47 -39l-54 70q70 47 84.5 59.5t14.5 26.5 q0 35 -50 35q-39 0 -75.5 -33t-48.5 -86z" />
<glyph unicode="&#x47e;" horiz-adv-x="1970" d="M246 422q0 158 56 385t177 391q188 254 471 258l-32 -158h-3q-45 -2 -89 -20t-106.5 -69.5t-120.5 -172.5t-97 -297q-41 -174 -41 -301q0 -311 219 -311q68 0 124 13.5t79.5 25.5t31.5 20q6 8 11 29l112 524h205l-117 -555l13 -8q10 -6 12 -7t13.5 -7t16.5 -8t17 -7.5 t20.5 -7.5t23.5 -5t28.5 -4t32 -2t38.5 -1q104 0 189.5 73.5t135.5 179t84 228.5t47 214t13 145q0 104 -21.5 171.5t-36.5 84t-50 45.5q-47 29 -100 30l34 158q193 -2 290 -125t97 -332q0 -92 -18 -210.5t-69.5 -268t-127 -269.5t-207 -203t-292.5 -83q-106 0 -169 23.5 t-139 91.5q-100 -66 -173.5 -90.5t-186.5 -24.5q-74 0 -138.5 21.5t-125 69.5t-96 141.5t-35.5 224.5zM936 1542l59 281h752l-59 -281h-121l32 160h-165l-33 -160h-178l32 160h-165l-33 -160h-121z" />
<glyph unicode="&#x47f;" horiz-adv-x="1740" d="M215 315q0 72 14.5 153t55.5 178t103.5 173t169 128t239.5 54l-33 -153q-102 -4 -177 -65.5t-109 -150.5t-48 -160t-14 -124q0 -223 207 -223h34l242 467h193l43 -467h28q94 0 166 44t112 118.5t60.5 154.5t26.5 172q2 223 -195 234l35 153q184 -2 272.5 -97t88.5 -255 q0 -68 -14.5 -146.5t-55.5 -177t-103.5 -176t-171 -131t-245.5 -53.5q-88 0 -140.5 16.5t-119.5 61.5h-2q-135 -78 -291 -78q-203 0 -287 100t-84 250zM725 1085l59 281h752l-61 -281h-119l33 162h-166l-33 -162h-178l32 162h-163l-35 -162h-121z" />
<glyph unicode="&#x480;" horiz-adv-x="1374" d="M248 449q0 121 29.5 251.5t100.5 267t171 244t257 176t345 68.5q203 0 383 -70l-82 -212l-20 16q-20 16 -26.5 20t-29 18.5t-37 20.5t-42 17.5t-53 15.5t-59.5 8t-71 4h-2q-139 0 -254 -55t-188.5 -140t-125.5 -193.5t-73.5 -211t-21.5 -194.5q0 -319 294 -400 q18 -6 86 -20l52.5 -10.5t61 -13.5t56 -15t62 -21.5t55.5 -29t58 -37.5q94 -76 94 -168q0 -94 -107 -162l-92 62q49 33 51 55v12q-12 43 -100 75t-227.5 58.5t-176.5 38.5q-368 115 -368 525z" />
<glyph unicode="&#x481;" horiz-adv-x="944" d="M156 373q0 74 16 165t60 200.5t111 198.5t179.5 149.5t253.5 60.5q113 0 174.5 -23.5t139.5 -91.5l-64 -168q-49 51 -70.5 70.5t-76 38t-134.5 18.5q-154 0 -235.5 -96t-134.5 -268q-35 -154 -35 -224q0 -72 18.5 -121t58.5 -77.5t74.5 -43t95 -31.5t93.5 -32 q190 -82 190 -239q0 -78 -52 -144.5t-148 -72.5l-66 86q82 10 82 86q0 63 -54 98t-132 57.5t-157 56t-133 121t-54 226.5z" />
<glyph unicode="&#x482;" horiz-adv-x="835" d="M-78 -295l228 172l-82 80v2l96 92l94 -92l227 174l-118 117v2l94 90h2l129 -127l227 174l94 -92v-2l-227 -172l82 -80v-2l-96 -92l-94 92l-228 -174l119 -117v-2l-94 -90h-2l-129 127l-230 -174l-92 92v2z" />
<glyph unicode="&#x483;" horiz-adv-x="0" d="M-180 1100l53 250h174l467 -80l27 131h170l-54 -250h-174l-467 78l-26 -129h-170z" />
<glyph unicode="&#x484;" horiz-adv-x="0" d="M-897 1100q74 143 228.5 222t338.5 79q248 0 363 -144q8 -10 26.5 -41.5t29.5 -45t32.5 -33t48.5 -27.5t61 -10l-20 -99q-33 0 -63.5 5.5t-56 15.5t-45 19.5t-39 25.5t-31 26.5t-25.5 30t-19.5 27.5t-16.5 26.5t-13 20.5q-70 102 -248 105h-4q-37 0 -75 -6.5t-96.5 -24 t-113.5 -62.5t-94 -110h-168z" />
<glyph unicode="&#x485;" horiz-adv-x="0" d="M-489 1327q25 88 90 128t135 40q74 0 126 -42t52 -91q0 -102 -203 -262l-53 69q6 2 30.5 21.5t52.5 49.5t28 46q0 20 -25 41t-61 21q-88 0 -117 -88z" />
<glyph unicode="&#x486;" horiz-adv-x="0" d="M-543 1311q0 78 82 131t164 53q68 0 112 -37t44 -96q0 -23 -2 -35l-84 -67v14q0 35 -23.5 54.5t-58.5 19.5q-41 0 -77 -26t-36 -52q0 -25 64 -101v-2l-84 -67q-101 139 -101 211z" />
<glyph unicode="&#x488;" horiz-adv-x="0" d="M-2234 520q0 55 45 100.5t104 45.5q47 0 77 -31t30 -74q0 -57 -47.5 -102t-102.5 -45q-47 0 -76.5 30.5t-29.5 75.5zM-2081 -174q0 57 44 102t104 45q47 0 76.5 -30.5t29.5 -73.5q0 -57 -44 -102.5t-103 -45.5q-47 0 -77 31t-30 74zM-1786 1212q0 53 44 99.5t104 46.5 q47 0 76.5 -31t29.5 -74q0 -55 -44 -100t-103 -45q-47 0 -77 30.5t-30 73.5zM-1417 -461q0 57 44 102.5t103 45.5q47 0 77 -31t30 -74q0 -57 -44 -102t-104 -45q-47 0 -76.5 30.5t-29.5 73.5zM-999 1499q0 55 44 100.5t103 45.5q47 0 77 -31t30 -74q0 -61 -46.5 -103 t-101.5 -42q-47 0 -76.5 29.5t-29.5 74.5zM-631 -172q0 53 44 99t104 46q47 0 76.5 -30.5t29.5 -75.5q0 -55 -44 -100.5t-103 -45.5q-45 0 -76 30t-31 77zM-336 1212q0 57 45 101.5t101 44.5q47 0 77.5 -31t30.5 -74q0 -57 -45 -101t-104 -44q-45 0 -75 28.5t-30 75.5z M-184 520q0 51 43 97.5t104 48.5q47 0 78 -31t31 -74q0 -53 -43 -99t-107 -46q-45 0 -75.5 28.5t-30.5 75.5z" />
<glyph unicode="&#x489;" horiz-adv-x="0" d="M-2345 629q0 23 21 26h6q14 -4 20 -17t19.5 -45t44.5 -67q10 57 43.5 92t57.5 41.5t46 6.5q45 0 76 -29t31 -76q0 -57 -45.5 -101t-102.5 -44q-74 0 -145.5 78t-71.5 135zM-2230 -240q6 16 22 17q4 0 46 -11.5t85 -11.5h21q-27 41 -27 72q0 59 46 103t104 44 q45 0 75.5 -28.5t30.5 -75.5q0 -61 -46 -100t-98 -52.5t-105.5 -13.5t-102.5 14.5t-51 32.5v10zM-1794 1262q0 72 27.5 147.5t54.5 75.5q12 0 19 -9.5t3 -21.5q-39 -88 -47 -133q49 37 99 37q45 0 74.5 -29t29.5 -76q0 -59 -46 -102t-101 -43q-113 0 -113 154zM-1462 -666 q6 14 20.5 21.5t50 27t76.5 52.5q-104 10 -104 104q0 57 45 102.5t104 45.5q45 0 76 -30t31 -75q0 -84 -111.5 -179t-163.5 -95q-20 -1 -24 26zM-1001 1499q0 82 111.5 178.5t160.5 96.5q16 0 24 -17v-10q-4 -12 -19 -20.5t-51 -28t-75 -51.5q59 -6 82 -39t23 -68 q0 -57 -45.5 -101t-104.5 -44q-45 0 -75.5 29.5t-30.5 74.5zM-633 -174q0 53 43 100t107 47q111 0 110 -155q0 -76 -28.5 -150t-53.5 -74q-20 0 -20 23q0 10 7 25.5t20.5 47t21.5 72.5q-51 -41 -100 -41q-47 0 -77 31t-30 74zM-338 1212q0 61 46 100.5t98.5 51.5t105.5 12 t101 -13t50 -32v-10q-6 -18 -20 -18q-4 0 -48 12t-89 12h-17q27 -35 27 -74q0 -57 -46 -101t-101 -44q-43 0 -75 28.5t-32 75.5zM-184 520q0 53 43 99.5t104 46.5q76 0 146.5 -81t70.5 -134q0 -6 -3 -11.5t-6 -7.5t-7 -4l-4 -2h-6q-12 4 -18.5 13.5t-9.5 21.5t-17.5 38.5 t-38.5 55.5q-29 -139 -150 -139q-43 0 -73.5 28.5t-30.5 75.5z" />
<glyph unicode="&#x48a;" horiz-adv-x="1441" d="M164 0l301 1421l2 2h203l-248 -1171l-12 -66l870 1237h297l-268 -1259h88l-107 -506h-172l74 342h-123l250 1176l12 61l-870 -1237h-297zM725 1772q0 18 4 51h156v-13q0 -100 192 -100h8q203 0 242 113h156q-20 -78 -71.5 -136.5t-118 -88t-129 -43t-117.5 -13.5 q-137 0 -229.5 64t-92.5 166z" />
<glyph unicode="&#x48b;" horiz-adv-x="1091" d="M135 0l205 967h188l-163 -770l518 770h276l-174 -813h78l-94 -439h-170l61 285h-94l162 770l-516 -770h-277zM455 1315q0 35 4 51h155q0 -2 -1 -6t-1 -6q0 -98 195 -99q215 0 248 111h155q-27 -102 -109.5 -170t-164.5 -89.5t-160 -21.5q-139 0 -230 64t-91 166z" />
<glyph unicode="&#x48c;" horiz-adv-x="1646" d="M215 1055l33 153h416l45 215h206l-45 -215h715l-33 -153h-714l-50 -234h353q133 0 231 -33.5t148.5 -89t74 -112t23.5 -113.5q0 -172 -167 -308t-386 -161q-39 -4 -117 -4h-540l223 1055h-416zM647 164h230q10 0 30.5 -1t30.5 -1q221 0 349 88t128 190q0 82 -87 149.5 t-275 67.5h-299z" />
<glyph unicode="&#x48d;" d="M205 0l172 813h-164l33 154h164l86 399h186l-84 -399h383l-33 -154h-385l-45 -221h223q172 0 252 -73t80 -161q0 -53 -31.5 -125.5t-85.5 -121.5q-121 -111 -352 -111h-399zM426 160h172q154 0 221.5 54t67.5 122q0 41 -42 85t-143 50h-210z" />
<glyph unicode="&#x48e;" horiz-adv-x="1347" d="M166 0l301 1421l2 2h522q145 0 246 -47q86 -39 146.5 -118.5t60.5 -194.5q0 -127 -80 -240.5t-197 -177.5l176 -182l-126 -119l-222 229q-74 -18 -176 -20h-321l-117 -553h-215zM526 711h205l125 2l-113 114l127 119l187 -190q74 33 118 95t55 110.5t11 91.5 q0 68 -28.5 112.5t-82 63t-101.5 25t-116 6.5h-270z" />
<glyph unicode="&#x48f;" horiz-adv-x="1058" d="M61 -342l279 1309h192l-24 -113q180 129 373 129q119 0 173 -102.5t54 -231.5q0 -203 -113 -399l150 -152v-2l-125 -116l-133 137h-2q-137 -133 -291 -133q-150 0 -240 122l-96 -448h-197zM381 233q49 -96 147 -96q121 0 232 109l-178 182v2l125 117l153 -158 q41 102 41 184q0 104 -55 178t-154 74q-61 0 -123.5 -30.5t-76.5 -57.5q-7 -10 -111 -504z" />
<glyph unicode="&#x490;" horiz-adv-x="1189" d="M164 0l301 1421l2 2h764l72 340h172l-109 -503h-721l-266 -1260h-215z" />
<glyph unicode="&#x491;" horiz-adv-x="854" d="M131 0l205 967h504l28 131h162l-59 -285h-471l-172 -813h-197z" />
<glyph unicode="&#x492;" horiz-adv-x="1161" d="M164 0l141 664h-127l33 153h127l129 606h905l-35 -163h-692l-92 -443h246l-33 -153h-248l-139 -664h-215z" />
<glyph unicode="&#x493;" horiz-adv-x="854" d="M131 0l100 471h-92l25 121h92l80 375h668l-33 -150h-469l-47 -225h215l-27 -121h-215l-100 -471h-197z" />
<glyph unicode="&#x494;" horiz-adv-x="1476" d="M164 0l301 1421l2 2h973l-35 -163h-760l-92 -443h274q66 0 122.5 -4t148.5 -30.5t155.5 -71.5t111.5 -137.5t48 -217.5q0 -180 -86 -347t-249 -276.5t-361 -109.5q-111 0 -254 35l84 174q8 -4 27.5 -13t25.5 -11.5t21.5 -8.5t22.5 -8t22.5 -5t28 -4t30.5 -2t39 -1 q178 0 311 168t133 364q0 205 -164 291q-115 61 -346 62h-180l-139 -664h-215z" />
<glyph unicode="&#x495;" horiz-adv-x="1126" d="M131 0l205 967h668l-33 -150h-469l-47 -225h215q377 0 377 -330q0 -223 -139.5 -402t-325.5 -212q-31 -6 -93 -6q-68 0 -186 16l78 166q92 -25 149 -25q145 0 237.5 139.5t92.5 294.5q0 240 -268 240q-6 0 -16.5 -1t-14.5 -1h-133l-100 -471h-197z" />
<glyph unicode="&#x496;" horiz-adv-x="2338" d="M88 0l764 860l-432 563h244l550 -721l154 719v2h205l-154 -718l856 718h244l-672 -565l324 -694h123l-107 -506h-172l74 342h-74l-334 719l-315 -266l-96 -453h-205l96 455l-203 264l-639 -719h-231z" />
<glyph unicode="&#x497;" horiz-adv-x="1536" d="M35 0l518 600v2l-264 365h233l277 -383l80 383h182l-82 -385l442 385h234l-420 -367l195 -446h100l-92 -439h-170l59 285h-37l-205 469l-159 -137l-70 -332h-182l69 338l-96 131l-403 -469h-209z" />
<glyph unicode="&#x498;" horiz-adv-x="1314" d="M143 170l123 154q82 -109 162 -152t242 -43q190 0 315 96.5t125 208.5q0 92 -74.5 150.5t-173.5 72.5q-51 6 -104 7h-199l33 153h137q219 0 348 88q121 86 121 209q0 180 -262 180h-4q-113 0 -209 -32.5t-139 -62.5t-119 -91l-62 172q145 96 271.5 136t292.5 40 q207 0 320.5 -63.5t113.5 -227.5q0 -115 -44 -187.5t-145 -133.5q-106 -66 -254 -101q137 -25 246 -101.5t109 -199.5q0 -162 -192.5 -319.5t-487.5 -157.5q-72 0 -114 4t-113.5 20.5t-137.5 62.5t-125 118zM334 -377l231 340h156l-211 -340h-176z" />
<glyph unicode="&#x499;" horiz-adv-x="956" d="M80 92l106 156q106 -106 269 -107q160 0 235.5 60.5t75.5 132.5q0 47 -27.5 77.5t-79 42t-84 14.5t-81.5 3h-97l27 121h92q164 0 239.5 44t75.5 97q0 104 -227 105q-27 0 -48 -1t-41.5 -4.5t-33 -4.5t-32 -7t-27.5 -8t-28.5 -12t-26 -13.5t-32 -16.5t-32.5 -17l-39 151 q113 53 183.5 70.5t177.5 17.5q86 0 147.5 -8t121.5 -28.5t92 -66.5t32 -116q0 -51 -16.5 -89t-53.5 -65.5t-65.5 -43t-83.5 -39.5q154 -66 153 -189q0 -49 -25.5 -105.5t-79.5 -118t-166 -101t-261 -39.5q-195 -1 -340 108zM100 -377l232 340h155l-211 -340h-176z" />
<glyph unicode="&#x49a;" horiz-adv-x="1441" d="M170 0l301 1421l2 2h203l-152 -718l854 718h246l-672 -565l324 -694h123l-109 -506h-170l74 342h-74l-334 719l-317 -266l-94 -453h-205z" />
<glyph unicode="&#x49b;" horiz-adv-x="997" d="M135 0l205 967h184l-82 -385l441 385h233l-420 -367l197 -446h100l-94 -439h-170l62 285h-39l-205 469l-158 -137l-72 -332h-182z" />
<glyph unicode="&#x49c;" horiz-adv-x="1654" d="M170 0l301 1421l2 2h203l-101 -479h152l57 264h154l-55 -264h80l589 457q29 23 56 22h229l-731 -565l459 -858h-238l-422 788h-57l-62 -290h-153l61 290h-153l-166 -788h-205z" />
<glyph unicode="&#x49d;" horiz-adv-x="1271" d="M135 0l205 967h188l-65 -305h184l35 172h121l-37 -172h43l348 305h234l-418 -365l260 -602h-207l-235 541h-50l-41 -193h-120l41 193h-185l-114 -541h-187z" />
<glyph unicode="&#x49e;" horiz-adv-x="1441" d="M170 0l221 1042h-129l31 154h131l49 227h203l-47 -227h248l-33 -154h-248l-72 -337l854 718h246l-672 -565l400 -858h-232l-334 719l-317 -266l-94 -453h-205z" />
<glyph unicode="&#x49f;" horiz-adv-x="1058" d="M139 0l228 1073h-99l33 154h98l43 196h183l-43 -196h202l-30 -154h-205l-107 -506l494 400h242l-453 -367l297 -600h-215l-234 475l-186 -149l-70 -326h-178z" />
<glyph unicode="&#x4a0;" horiz-adv-x="1910" d="M344 1260l35 163h766l-154 -718l856 718h244l-672 -565l400 -858h-230l-334 719l-317 -266l-96 -453h-203l266 1260h-561z" />
<glyph unicode="&#x4a1;" horiz-adv-x="1271" d="M225 813l33 154h539l-82 -385l442 385h234l-420 -365l262 -602h-209l-205 469l-157 -137l-72 -332h-182l172 813h-355z" />
<glyph unicode="&#x4a2;" horiz-adv-x="1488" d="M164 0l301 1421l2 2h213l-127 -602h682l127 602h215l-270 -1265h137l-107 -500h-170l72 342h-180l139 657h-680l-139 -657h-215z" />
<glyph unicode="&#x4a3;" horiz-adv-x="1130" d="M135 0l205 967h188l-79 -375h444l80 375h186l-174 -813h115l-92 -439h-170l59 285h-131l100 471h-444l-100 -471h-187z" />
<glyph unicode="&#x4a4;" horiz-adv-x="1910" d="M164 0l301 1421l2 2h213l-127 -602h682l127 602h772l-35 -163h-559l-266 -1260h-215l139 657h-680l-139 -657h-215z" />
<glyph unicode="&#x4a5;" horiz-adv-x="1366" d="M135 0l205 967h188l-79 -375h444l80 375h543l-33 -154h-357l-172 -813h-188l100 471h-444l-100 -471h-187z" />
<glyph unicode="&#x4a6;" horiz-adv-x="2213" d="M164 0l301 1421l2 2h1110l-129 -606h113q307 0 458 -94q193 -121 193 -377q0 -174 -85 -339t-248 -274.5t-363 -109.5q-111 0 -254 35l81 174q6 -2 24.5 -11t24 -11.5t19.5 -8.5t20.5 -7t19.5 -5t23.5 -5t24.5 -3t29.5 -2h34.5q178 0 310 167t132 359q0 90 -30.5 156.5 t-78 103.5t-119 59.5t-136 30t-148.5 9.5h-80l-139 -664h-215l268 1260h-682l-266 -1260h-215z" />
<glyph unicode="&#x4a7;" horiz-adv-x="1617" d="M135 0l205 967h819l-80 -375h74q385 0 385 -330q0 -217 -136 -399t-329 -215q-31 -6 -94 -6q-88 0 -186 16l79 166q92 -25 148 -25q147 0 238.5 140.5t91.5 293.5q0 66 -20.5 113t-49.5 70.5t-72 37t-70.5 15.5t-64.5 2h-20l-99 -471h-188l172 813h-444l-172 -813h-187z " />
<glyph unicode="&#x4a8;" horiz-adv-x="1673" d="M236 442q0 158 58 377t181 369q221 268 666 268q250 0 411 -92l-131 -135q-129 70 -309 69q-197 0 -332 -69.5t-213 -233.5q-47 -100 -80.5 -263t-33.5 -259q0 -188 103 -267t306 -79q-29 92 -28 188q0 207 84 412q129 315 462 315h13q319 -4 319 -239 q0 -51 -19.5 -145.5t-84 -235.5t-156.5 -236q-102 -102 -252 -161q145 -61 391 -62h11l-31 -153q-123 0 -211 7t-206 46t-191 108q-68 -6 -136 -6q-49 2 -64 2t-74.5 5t-88.5 12.5t-85 25t-88 40t-74 59t-63.5 83t-37.5 109.5t-16 141zM1012 346q0 -94 47 -201 q94 18 170 65.5t120 97.5t78.5 123t49 118t28.5 106q18 74 19 111q0 121 -170 121q-137 0 -204 -64.5t-108 -251.5q-30 -137 -30 -225z" />
<glyph unicode="&#x4a9;" d="M139 303q0 70 37 240q59 229 198.5 339.5t373.5 110.5h4q145 0 245 -51l-120 -135q-72 31 -162 31q-182 0 -258 -97.5t-115 -347.5q-4 -37 -4 -59q0 -170 176 -189q0 6 -1 16.5t-1 16.5q0 123 45 266.5t145 206.5q72 45 187 45q233 0 233 -157q0 -25 -7 -69t-32.5 -115.5 t-64.5 -136t-109.5 -123t-163.5 -85.5q82 -57 259 -59l-27 -129q-164 0 -263.5 38t-154.5 124h-14q-88 0 -154.5 13t-127 46t-92.5 98.5t-32 161.5zM668 197q0 -14 4 -47q115 25 179 100.5t95 251.5q2 35 -19.5 51t-68.5 16q-43 0 -71.5 -12t-46 -40t-25.5 -52.5t-19 -69.5 q-28 -130 -28 -198z" />
<glyph unicode="&#x4aa;" horiz-adv-x="1374" d="M264 547q0 221 119 431t328 344t444 134q190 0 379 -70l-82 -212l-18 14q-20 16 -30.5 23.5t-35.5 22.5t-48.5 23.5t-54 18.5t-68.5 14t-79 4q-248 0 -442.5 -225t-194.5 -502q0 -184 103.5 -311t287.5 -127q33 0 63 2t52.5 4t49 8.5t42 9.5t41 13t35.5 13t38 17.5 t34 18.5t38.5 21.5t39.5 21.5l-23 -178q-135 -70 -223 -92.5t-221 -22.5q-262 0 -418 166t-156 416zM518 -377l232 340h153l-209 -340h-176z" />
<glyph unicode="&#x4ab;" horiz-adv-x="956" d="M162 373q0 231 178 425.5t418 194.5q109 0 169 -18.5t148 -69.5l-63 -168q-55 39 -81 54.5t-79 29t-129 13.5q-82 0 -148.5 -36t-105.5 -89.5t-65.5 -119t-36 -119.5t-9.5 -97q0 -106 56.5 -168t158.5 -62q78 0 152 19.5t113 39t98 54.5l-23 -170q-193 -102 -372 -102 q-174 0 -276.5 111.5t-102.5 277.5zM221 -377l232 340h153l-209 -340h-176z" />
<glyph unicode="&#x4ac;" horiz-adv-x="1484" d="M344 1260l35 163h1329l-35 -163h-559l-231 -1096h166l-107 -506h-170l72 342h-211l268 1260h-557z" />
<glyph unicode="&#x4ad;" horiz-adv-x="1007" d="M225 813l33 154h899l-33 -154h-352l-139 -659h158l-93 -439h-170l60 285h-185l172 813h-350z" />
<glyph unicode="&#x4ae;" horiz-adv-x="1382" d="M307 1423h254l303 -657l584 657h229l-729 -819q-33 -35 -39 -65l-114 -539h-211l116 541q2 10 2 22q0 16 -12 41z" />
<glyph unicode="&#x4af;" horiz-adv-x="937" d="M211 967h207q98 -571 98 -725l-2 -45q31 106 420 770h203l-547 -926l-23 -41l-73 -342h-195l72 342z" />
<glyph unicode="&#x4b0;" horiz-adv-x="1382" d="M307 1423h254l303 -657l584 657h229l-762 -854h283l-31 -155h-284l-88 -414h-211l88 414h-283l33 155h285z" />
<glyph unicode="&#x4b1;" horiz-adv-x="937" d="M166 -154l33 154h172l-162 967h207q98 -571 98 -725l-2 -45q27 94 422 770h201l-570 -967h170l-33 -154h-172l-38 -188h-193l39 188h-172z" />
<glyph unicode="&#x4b2;" horiz-adv-x="1382" d="M29 0l696 754l-365 669h256l254 -497l453 497h240l-621 -669l318 -586h126l-108 -510h-170l72 342h-84l-295 598l-531 -598h-241z" />
<glyph unicode="&#x4b3;" horiz-adv-x="937" d="M0 0l485 500l-268 467h213l170 -322l297 322h209l-453 -465l197 -348h121l-94 -439h-170l61 285h-41l-182 383h-2l-334 -383h-209z" />
<glyph unicode="&#x4b4;" horiz-adv-x="1957" d="M279 1260l34 163h1221l-35 -163h-504l-231 -1092h801l266 1253v2h215l-268 -1255h137l-109 -510h-170l72 342h-1194l266 1260h-501z" />
<glyph unicode="&#x4b5;" horiz-adv-x="1439" d="M225 813l33 154h731l-33 -154h-272l-139 -653h563l172 807h186l-172 -813h115l-92 -439h-170l59 285h-882l172 813h-271z" />
<glyph unicode="&#x4b6;" horiz-adv-x="1488" d="M354 870q0 20 28 158.5t56 265.5l29 129h215q-113 -514 -113 -540q0 -43 40 -82t145 -39h469l141 661h213l-268 -1265h127l-107 -500h-170l74 342h-172l129 604h-479q-172 0 -291 125q-66 65 -66 141z" />
<glyph unicode="&#x4b7;" horiz-adv-x="1130" d="M264 592q0 12 78 375h186q-74 -342 -73 -369q0 -14 7 -29.5t34.5 -30t74.5 -14.5h308l94 443h186l-172 -813h115l-92 -439h-172l61 285h-133l86 403h-313q-117 0 -196 64t-79 125z" />
<glyph unicode="&#x4b8;" horiz-adv-x="1441" d="M354 868q0 25 28 164t56 266l29 125h215q-113 -514 -113 -540q0 -18 7.5 -36t24.5 -38.5t58 -33.5t101 -13h45l59 276h154l-60 -276h265l141 661h213l-301 -1423h-215l129 604h-264l-60 -276h-153l59 276q-10 0 -28.5 -1t-28.5 -1h-2q-156 0 -257.5 91t-101.5 175z" />
<glyph unicode="&#x4b9;" horiz-adv-x="1091" d="M264 592q0 12 78 375h186q-76 -356 -75 -365q0 -78 118 -78h25l37 183h121l-39 -183h164l92 443h188l-207 -967h-186l86 403h-162l-39 -180h-121l39 180h-28q-123 0 -200 66t-77 123z" />
<glyph unicode="&#x4ba;" horiz-adv-x="1441" d="M164 0l301 1421l2 2h213l-94 -442q229 147 485 147q369 0 369 -280q0 -55 -21 -162l-145 -686h-215l145 682q14 72 15 96q0 197 -299 197h-7q-131 0 -239 -96q-135 -119 -178 -330l-117 -549h-215z" />
<glyph unicode="&#x4bb;" horiz-adv-x="1058" d="M131 0l301 1421l2 2h193l-131 -618q152 178 344 178q240 0 239 -205q0 -43 -16 -129l-139 -649h-197l135 639q10 57 10 72q0 119 -170 118q-20 0 -40.5 -4t-55.5 -20.5t-62.5 -46t-56 -88t-45.5 -135.5l-114 -535h-197z" />
<glyph unicode="&#x4bc;" horiz-adv-x="1808" d="M236 918q0 45 32 86q12 12 197 106q-25 -37 -29 -74q2 -55 65.5 -93t155.5 -50q88 215 300 389t468 174q74 0 141.5 -12t135 -47t118 -88.5t81 -141.5t30.5 -200q0 -106 -26 -228h-1092q-2 -2 -7 -27.5t-11.5 -69.5t-6.5 -81q0 -188 104.5 -315t287.5 -127q258 0 594 135 l-21 -166q-313 -123 -608 -123q-258 0 -411.5 165t-153.5 415q0 80 24 198q-150 8 -259 53.5t-109 121.5zM864 889h867l2 53q-2 104 -34 178t-85 112t-107.5 54.5t-113.5 16.5q-156 0 -302.5 -117t-226.5 -297z" />
<glyph unicode="&#x4bd;" horiz-adv-x="1263" d="M174 602v14q4 23 29 60l149 76q-16 -31 -18 -47l4 -13q10 -16 21.5 -24.5t49 -17.5t103.5 -15q72 156 214 256t296 100q78 0 142.5 -23.5t114.5 -98t50 -193.5q0 -68 -18 -164h-660q-2 -2 -5 -20.5t-6 -45t-3 -45.5q0 -113 64.5 -188.5t175.5 -75.5q158 0 352 117 l-21 -166q-186 -104 -366 -104q-178 0 -285.5 112.5t-107.5 280.5q0 68 18 135q-154 6 -216.5 24.5t-76.5 65.5zM700 633h465q-4 205 -176 205q-84 0 -161 -56.5t-128 -148.5z" />
<glyph unicode="&#x4be;" horiz-adv-x="1808" d="M236 918q0 45 32 86q12 12 197 106q-25 -37 -29 -74q2 -55 65.5 -93t155.5 -50q88 215 300 389t468 174q74 0 141.5 -12t135 -47t118 -88.5t81 -141.5t30.5 -200q0 -106 -26 -228h-1092q-2 -2 -7 -27.5t-11.5 -69.5t-6.5 -81q0 -188 104.5 -315t287.5 -127q258 0 594 135 l-21 -166q-133 -51 -251 -77.5t-180 -34t-73 -11.5q-23 -10 -55.5 -40.5t-32.5 -67.5q0 -43 45 -43q14 0 51 12l9 -148q-68 -29 -125 -28q-143 0 -144 147q0 109 97 170l-21 4q-23 2 -31 3t-32.5 5.5t-39 8.5t-41 13t-45 18.5t-44 23.5t-46 30.5t-44 39t-43.5 47.5 q-127 156 -127 385q0 80 24 198q-150 8 -259 53.5t-109 121.5zM864 889h867l2 53q-2 104 -34 178t-84 112t-106.5 54.5t-115.5 16.5q-156 0 -302.5 -117t-226.5 -297z" />
<glyph unicode="&#x4bf;" horiz-adv-x="1263" d="M174 602v14q4 23 29 60l149 76q-16 -31 -18 -47l4 -13q10 -16 21.5 -24.5t49 -17.5t103.5 -15q72 156 214 257t296 101q125 0 216 -72.5t91 -244.5q0 -68 -18 -164h-660q-2 -2 -5 -20.5t-6 -45t-3 -45.5q0 -113 64.5 -188.5t175.5 -75.5q168 0 352 117l-21 -166 q-18 -10 -59 -30.5t-60.5 -31t-51 -30t-47 -31.5t-33 -30.5t-24.5 -36t-7 -37.5q0 -49 51 -49q23 0 65 14l11 -148q-72 -31 -138 -30q-84 0 -118.5 43t-34.5 104q0 109 96 189h-14q-180 0 -287.5 112.5t-107.5 282.5q0 68 18 133q-154 6 -216.5 24.5t-76.5 65.5zM700 633 h465q-4 205 -176 205q-84 0 -161 -56.5t-128 -148.5z" />
<glyph unicode="&#x4c0;" horiz-adv-x="546" d="M164 0l301 1421l2 2h213l-301 -1423h-215z" />
<glyph unicode="&#x4c1;" horiz-adv-x="2338" d="M88 0l764 860l-432 563h244l550 -721l154 719v2h205l-154 -718l856 718h244l-672 -565l400 -858h-232l-334 719l-315 -266l-96 -453h-205l96 455l-203 264l-639 -719h-231zM1171 1757q0 33 7 66h155q-2 -10 -2 -29q0 -61 54.5 -98t134.5 -37q76 0 152.5 38t103.5 126h155 q-35 -152 -167 -243t-279 -91q-133 0 -223.5 74.5t-90.5 193.5z" />
<glyph unicode="&#x4c2;" horiz-adv-x="1536" d="M35 0l518 600v2l-264 365h233l277 -383l80 383h182l-82 -385l442 385h234l-420 -367l264 -600h-209l-205 469l-159 -137l-70 -332h-182l69 338l-96 131l-403 -469h-209zM673 1307q0 29 7 59h155q0 -2 -1 -10t-1 -10q0 -68 58.5 -97.5t132.5 -29.5q61 0 110 15t75 36.5 t42 43t22 38.5l5 14h153q-37 -145 -166 -230t-276 -85q-135 0 -225.5 71.5t-90.5 184.5z" />
<glyph unicode="&#x4c3;" horiz-adv-x="1441" d="M170 0l301 1421l2 2h203l-127 -606h84q27 0 55 25l690 581h246l-721 -606q88 -4 161 -17.5t150.5 -46t131 -81.5t87 -131t33.5 -191q0 -272 -180 -478t-409 -241q-49 -8 -113 -8q-109 0 -248 35l84 174q8 -4 27.5 -13t25.5 -11.5t21.5 -8.5t23 -8t22.5 -5t27.5 -4t31 -2 t38.5 -1q178 0 310.5 167t132.5 359q0 111 -44.5 185.5t-125 109.5t-160.5 48.5t-187 15.5h-229l-139 -664h-205z" />
<glyph unicode="&#x4c4;" horiz-adv-x="1058" d="M135 0l205 967h188l-79 -375h24l438 356l25 17l31 2h211l-463 -375q59 -2 111.5 -17.5t105.5 -50.5t84 -102.5t31 -159.5q0 -221 -139.5 -401t-327.5 -213q-47 -6 -91 -6q-70 0 -188 16l80 166q92 -25 149 -25q145 0 236.5 138.5t91.5 293.5q0 242 -266 242 q-6 0 -16.5 -1t-16.5 -1h-137l-100 -471h-187z" />
<glyph unicode="&#x4c5;" horiz-adv-x="1536" d="M41 0l35 162h69q96 2 146 31q131 76 235 376q92 266 217 854h881l-268 -1259h135l-242 -506h-186l164 342h-119l266 1260h-495q-33 -180 -107 -443q-92 -330 -186 -500q-158 -285 -365 -313q-23 -4 -67 -4h-113z" />
<glyph unicode="&#x4c6;" horiz-adv-x="1134" d="M41 0l35 164h67q27 0 44.5 3t44 22.5t53.5 56.5q63 90 111 251.5t116 469.5h653l-174 -813h115l-207 -439h-188l135 285h-74l172 813h-295l-2 -2q-37 -166 -68.5 -280.5t-76.5 -222t-97.5 -170t-124 -100.5t-161.5 -38h-78z" />
<glyph unicode="&#x4c7;" horiz-adv-x="1441" d="M164 0l301 1421l2 2h213l-127 -602h682l127 602h215l-322 -1507q-29 -135 -141 -211q-125 -82 -283 -82q-104 0 -217 35l84 174q94 -45 170 -45q162 0 179 147v3l151 720h-680l-139 -657h-215z" />
<glyph unicode="&#x4c8;" horiz-adv-x="1091" d="M135 0l205 967h188l-79 -375h442l80 375h188l-225 -1059q-27 -123 -119 -194.5t-225 -71.5q-55 0 -162 16l78 166q66 -23 117 -23q18 0 33.5 3t26.5 9.5t20.5 11.5t15.5 16.5t10 17.5t8 18t5 17.5t4.5 17.5t3.5 14l116 545h-444l-100 -471h-187z" />
<glyph unicode="&#x4c9;" horiz-adv-x="1488" d="M164 0l301 1421l2 2h213l-127 -602h682l127 602h215l-270 -1265h137l-244 -500h-186l164 342h-119l139 657h-680l-139 -657h-215z" />
<glyph unicode="&#x4ca;" horiz-adv-x="1130" d="M135 0l205 967h188l-79 -375h444l80 375h186l-174 -813h115l-207 -439h-186l133 285h-74l100 471h-444l-100 -471h-187z" />
<glyph unicode="&#x4cb;" horiz-adv-x="1441" d="M354 870q0 20 28 158.5t56 265.5l29 129h215q-113 -514 -113 -540q0 -43 40 -82t145 -39h469l141 661h213l-301 -1423h-172l-74 -342h-170l109 506h127l94 440h-479q-172 0 -291 125q-66 65 -66 141z" />
<glyph unicode="&#x4cc;" horiz-adv-x="1091" d="M264 592q0 12 78 375h186q-74 -350 -73.5 -368.5t10.5 -35.5q20 -25 39.5 -32t66.5 -7h308l92 443h188l-207 -967h-133l-59 -285h-170l92 439h117v2l53 247h-313q-117 0 -196 65t-79 124z" />
<glyph unicode="&#x4cd;" horiz-adv-x="1855" d="M176 0l301 1421l2 2h283l127 -745q59 -373 65 -447l33 72l191 328l471 792h284l-268 -1259h147l-253 -506h-189l172 342h-104l248 1161l12 64l-37 -72l-188 -328l-474 -790h-182l-131 768l-31 198l-22 166l-6 58l-258 -1225h-193z" />
<glyph unicode="&#x4ce;" horiz-adv-x="1402" d="M133 0l205 967h270l121 -721l426 721h279l-174 -813h114l-207 -439h-186l133 285h-78l144 674l18 94q-12 -35 -145 -266l-285 -486h-176q-102 641 -103 738v16l-163 -770h-193z" />
<glyph unicode="&#x4d0;" horiz-adv-x="1382" d="M59 0l822 1440h231l209 -1440h-223l-49 348h-596l-197 -348h-197zM547 510h477q-86 616 -86 700v15l-127 -244zM678 1757q0 33 6 66h156q-2 -10 -2 -29q0 -61 55 -98t135 -37q76 0 151.5 38t102.5 126h156q-37 -152 -169 -243t-278 -91q-133 0 -223 74.5t-90 193.5z" />
<glyph unicode="&#x4d1;" horiz-adv-x="1007" d="M131 207q0 127 89 199.5t255 113.5q139 35 322 39q25 125 24 152q0 53 -33.5 95t-103.5 42q-78 0 -148.5 -20.5t-101.5 -37t-98 -55.5q18 160 24 170q4 4 19 10q166 78 338 78q147 0 226 -81t79 -185q0 -31 -12 -92l-136 -635h-192l27 131q-160 -147 -377 -147 q-106 0 -153.5 69.5t-47.5 153.5zM326 246q4 -43 43 -76t110 -33q82 0 157 40t99 110q6 16 41 176q-207 -8 -322.5 -61.5t-125.5 -131.5zM444 1307q0 29 7 59h155q0 -2 -1 -10t-1 -10q0 -68 59.5 -97.5t133.5 -29.5q61 0 109 15t74 36.5t42 43t22 38.5l5 14h155 q-37 -147 -167 -231t-275 -84q-135 0 -226.5 71.5t-91.5 184.5z" />
<glyph unicode="&#x4d2;" horiz-adv-x="1382" d="M59 0l822 1440h231l209 -1440h-223l-49 348h-596l-197 -348h-197zM547 510h477q-86 616 -86 700v15l-127 -244zM731 1629l41 192h192l-40 -192h-193zM1149 1629l41 192h192l-40 -192h-193z" />
<glyph unicode="&#x4d3;" horiz-adv-x="1007" d="M131 207q0 127 89 199.5t255 113.5q139 35 322 39q25 125 24 152q0 53 -33.5 95t-103.5 42q-78 0 -148.5 -20.5t-101.5 -37t-98 -55.5q18 160 24 170q4 4 19 10q166 78 338 78q147 0 226 -81t79 -185q0 -31 -12 -92l-136 -635h-192l27 131q-160 -147 -377 -147 q-106 0 -153.5 69.5t-47.5 153.5zM326 246q4 -43 43 -76t110 -33q82 0 157 40t99 110q6 16 41 176q-207 -8 -322.5 -61.5t-125.5 -131.5zM481 1172l41 192h192l-40 -192h-193zM899 1172l41 192h192l-40 -192h-193z" />
<glyph unicode="&#x4d4;" horiz-adv-x="1826" d="M59 0l867 1423h1083l-35 -163h-618l-92 -439h557l-35 -164h-559l-103 -485h648l-35 -172h-860l86 406h-459l-246 -406h-199zM604 569h393l146 691h-119z" />
<glyph unicode="&#x4d5;" horiz-adv-x="1552" d="M135 207q0 217 291 309q133 43 373 55q23 106 22 138q0 51 -32.5 95t-106.5 44q-76 0 -146.5 -20.5t-103.5 -37t-98 -55.5q16 135 20 152.5t23 27.5q176 78 340 78q190 0 274 -143q168 141 342 141q117 0 202 -69.5t85 -237.5q0 -80 -21 -172h-616q-16 -90 -16 -115 q0 -109 59 -184.5t164 -75.5q147 0 328 117l-21 -166q-170 -104 -342 -104q-205 0 -315 153q-166 -154 -506 -153q-109 0 -154 67.5t-45 155.5zM330 256q0 -45 36.5 -82t114.5 -37q176 0 244 92q8 12 14 25.5t10.5 37t7.5 39t7 56.5t8 64q-33 0 -88 -6.5t-144 -22.5 t-149.5 -60.5t-60.5 -105.5zM1030 633h424q0 205 -154 205q-78 0 -150.5 -58.5t-119.5 -146.5z" />
<glyph unicode="&#x4d6;" horiz-adv-x="1280" d="M164 0l301 1421l2 2h993l-35 -163h-780l-92 -439h719l-33 -164h-721l-104 -485h811l-37 -172h-1024zM666 1757q0 33 6 66h155q-2 -10 -2 -29q0 -61 54.5 -98t134.5 -37q76 0 152.5 38t103.5 126h153q-37 -152 -168 -243t-276 -91q-133 0 -223 74.5t-90 193.5z" />
<glyph unicode="&#x4d7;" horiz-adv-x="964" d="M152 377q0 231 176 422.5t397 191.5q78 0 142.5 -23.5t114.5 -98t50 -193.5q0 -41 -20 -164h-658q-2 -2 -5 -20.5t-7 -45t-4 -45.5q0 -113 64.5 -188.5t175.5 -75.5q162 0 352 117l-21 -166q-188 -104 -364 -104q-180 0 -286.5 112.5t-106.5 280.5zM391 1307q0 29 6 59 h154q0 -2 -1 -10t-1 -10q0 -68 58.5 -97.5t131.5 -29.5q18 0 42 3t72 14t86 45t52 83l2 2h154q-37 -145 -166 -230t-276 -85q-135 0 -224.5 71.5t-89.5 184.5zM401 633h467q-2 117 -55 161t-123 44q-84 0 -161 -56.5t-128 -148.5z" />
<glyph unicode="&#x4d8;" horiz-adv-x="1449" d="M178 455q0 43 6 99t12.5 91t8.5 37h1091q2 2 7.5 28.5t10.5 71.5t5 84q0 68 -16.5 135.5t-55.5 137t-114.5 112.5t-180.5 43q-63 0 -116.5 -5t-87 -10t-79.5 -20.5t-62.5 -21.5t-70 -30.5t-71.5 -32.5l8 212q117 31 162 40.5t134 19.5t204 10h20q244 0 390.5 -160.5 t146.5 -410.5q0 -117 -33 -241t-102.5 -246t-168 -218t-240.5 -155.5t-306 -59.5q-74 0 -139.5 13.5t-134 47t-117.5 87t-80 141.5t-31 201zM377 485q0 -102 31.5 -177t85 -112.5t108.5 -54t117 -16.5q164 0 310.5 108.5t219.5 301.5h-870q-2 -17 -2 -50z" />
<glyph unicode="&#x4d9;" horiz-adv-x="985" d="M143 317q0 80 21 179h682q8 53 8 79q0 92 -54.5 173t-174.5 81q-94 0 -152.5 -21.5t-148.5 -76.5l6 168q104 51 167.5 67.5t159.5 16.5q184 0 283.5 -112.5t99.5 -274.5q0 -238 -179 -425t-402 -187q-129 0 -222.5 76.5t-93.5 256.5zM307 356q0 -100 49.5 -156.5 t135.5 -56.5q92 0 178 64.5t137 167.5h-500v-19z" />
<glyph unicode="&#x4da;" horiz-adv-x="1433" d="M176 453q0 47 6 104t15 90l6 35h1075q2 2 7 28.5t11.5 72.5t6.5 85q0 68 -16.5 135.5t-54.5 136t-111.5 111.5t-176.5 43q-45 0 -85 -2t-69.5 -5t-63.5 -11t-51.5 -12t-52 -18.5t-47 -19.5t-54.5 -25.5t-58 -26.5l8 212q111 29 158 40.5t135 20.5t201 9q125 0 224 -38 t158.5 -97t97.5 -138t52 -152t14 -146q0 -119 -32.5 -245t-103 -247t-167 -216t-235.5 -153.5t-299 -58.5q-72 0 -137.5 13.5t-133 47t-116.5 87t-80 140.5t-31 200zM375 485q0 -102 30.5 -177t83 -112.5t106.5 -54t116 -16.5q162 0 301 105.5t221 304.5h-856q-2 -17 -2 -50 zM756 1628l41 193h192l-41 -193h-192zM1174 1628l40 193h193l-41 -193h-192z" />
<glyph unicode="&#x4db;" horiz-adv-x="985" d="M143 317q0 80 21 179h682q8 53 8 79q0 92 -54.5 173t-174.5 81q-94 0 -152.5 -21.5t-148.5 -76.5l6 168q104 51 167.5 67.5t159.5 16.5q184 0 283.5 -112.5t99.5 -274.5q0 -238 -179 -425t-402 -187q-129 0 -222.5 76.5t-93.5 256.5zM307 356q0 -100 49.5 -156.5 t135.5 -56.5q92 0 178 64.5t137 167.5h-500v-19zM436 1172l41 192h192l-40 -192h-193zM854 1172l41 192h192l-40 -192h-193z" />
<glyph unicode="&#x4dc;" horiz-adv-x="2338" d="M88 0l764 860l-432 563h244l550 -721l154 719v2h205l-154 -718l856 718h244l-672 -565l400 -858h-232l-334 719l-315 -266l-96 -453h-205l96 455l-203 264l-639 -719h-231zM1208 1629l41 192h192l-40 -192h-193zM1626 1629l41 192h192l-40 -192h-193z" />
<glyph unicode="&#x4dd;" horiz-adv-x="1536" d="M35 0l518 600v2l-264 365h233l277 -383l80 383h182l-82 -385l442 385h234l-420 -367l264 -600h-209l-205 469l-159 -137l-70 -332h-182l69 338l-96 131l-403 -469h-209zM708 1172l41 192h192l-40 -192h-193zM1126 1172l41 192h192l-40 -192h-193z" />
<glyph unicode="&#x4de;" horiz-adv-x="1314" d="M143 170l123 154q82 -109 162 -152t242 -43q190 0 315 96.5t125 208.5q0 92 -74.5 150.5t-173.5 72.5q-51 6 -104 7h-199l33 153h137q221 0 350 90q119 84 119 207q0 180 -262 180h-4q-86 0 -156.5 -14t-132 -49t-90.5 -55.5t-88 -67.5l-62 172q145 96 271.5 136 t292.5 40q207 0 320.5 -63.5t113.5 -227.5q0 -115 -45 -188.5t-144 -134.5q-100 -61 -254 -99q141 -25 248 -101.5t107 -199.5q0 -162 -192.5 -319.5t-487.5 -157.5q-72 0 -114 4t-113.5 20.5t-137.5 62.5t-125 118zM698 1629l41 192h192l-40 -192h-193zM1116 1629l41 192 h192l-40 -192h-193z" />
<glyph unicode="&#x4df;" horiz-adv-x="956" d="M80 92l106 156q106 -106 269 -107q160 0 235.5 60.5t75.5 132.5q0 137 -268 137h-101l27 121h92q164 0 239.5 44t75.5 97q0 104 -227 105q-27 0 -48 -1t-41.5 -4.5t-33 -4.5t-32 -7t-27.5 -8t-28.5 -12t-26 -13.5t-32 -16.5t-32.5 -17l-39 151q113 53 183.5 70.5 t177.5 17.5q86 0 147.5 -7t121.5 -28.5t92 -67.5t32 -116q0 -51 -16.5 -89t-53.5 -65.5t-65.5 -43t-83.5 -39.5q154 -66 153 -189q0 -47 -24.5 -103.5t-77.5 -117.5t-166 -102t-264 -41q-195 -1 -340 108zM420 1172l41 192h192l-40 -192h-193zM838 1172l41 192h192l-40 -192 h-193z" />
<glyph unicode="&#x4e0;" horiz-adv-x="1161" d="M154 264q0 18 4 55l200 17q0 -4 -1 -16.5t-1 -16.5q0 -72 50.5 -125t179.5 -53q205 0 297 88q51 47 74.5 117.5t23.5 132.5q0 72 -38 111.5t-81 50t-110 12.5l6 25h-246l29 129l8 22l22 23l543 391v2h-450l-43 -2h-271l41 196h1010q-41 -186 -45 -194t-35 -31l-502 -362 q-25 -16 -33 -45q178 0 293 -94.5t115 -243.5q0 -188 -185.5 -338t-441.5 -150q-78 0 -145.5 13.5t-131 45t-100 93t-36.5 147.5zM758 651l12 19h-2l-8 -6z" />
<glyph unicode="&#x4e1;" horiz-adv-x="921" d="M31 -268l75 166q141 -96 306 -97q59 0 104 17.5t70.5 39t45 58.5t26 57.5t14.5 55.5q16 72 16 106q0 121 -143 129l2 6h-209l27 119l454 404v4l-78 -2h-247l-41 -2h-197l37 174h770l-31 -146l-8 -26l-20 -23l-400 -354q86 -10 145.5 -47t85 -88.5t36 -91t10.5 -76.5 q0 -178 -149.5 -325.5t-356.5 -147.5q-186 0 -344 90z" />
<glyph unicode="&#x4e2;" horiz-adv-x="1441" d="M164 0l301 1421l2 2h203l-248 -1171l-12 -66l870 1237h297l-303 -1423h-205l250 1176l12 61l-870 -1237h-297zM666 1659l32 162h813l-34 -162h-811z" />
<glyph unicode="&#x4e3;" horiz-adv-x="1091" d="M135 0l205 967h188l-163 -770l518 770h276l-207 -967h-186l162 770l-516 -770h-277zM432 1237l33 164h752l-35 -164h-750z" />
<glyph unicode="&#x4e4;" horiz-adv-x="1441" d="M164 0l301 1421l2 2h203l-248 -1171l-12 -66l870 1237h297l-303 -1423h-205l250 1176l12 61l-870 -1237h-297zM760 1629l41 192h192l-40 -192h-193zM1178 1629l41 192h192l-40 -192h-193z" />
<glyph unicode="&#x4e5;" horiz-adv-x="1091" d="M135 0l205 967h188l-163 -770l518 770h276l-207 -967h-186l162 770l-516 -770h-277zM487 1172l41 192h192l-40 -192h-193zM905 1172l41 192h192l-40 -192h-193z" />
<glyph unicode="&#x4e6;" horiz-adv-x="1603" d="M250 541q0 231 124 444t323.5 342t412.5 129q240 0 390.5 -164t150.5 -415q0 -231 -124 -444.5t-322.5 -340.5t-411.5 -127q-236 0 -389.5 161t-153.5 415zM467 551q0 -215 107.5 -319.5t252.5 -104.5q133 0 251 72.5t197 186.5t124 249t45 262q0 188 -103.5 294.5 t-265.5 106.5q-240 0 -424 -214t-184 -533zM839 1629l41 192h192l-40 -192h-193zM1257 1629l41 192h192l-40 -192h-193z" />
<glyph unicode="&#x4e7;" d="M150 373q0 236 184 428t414 192q168 0 274 -113.5t106 -285.5q0 -244 -185 -427t-411 -183q-170 0 -276 110.5t-106 278.5zM346 365q0 -121 64.5 -171.5t156.5 -50.5q109 0 189 57.5t115.5 143.5t51 156.5t15.5 126.5q0 115 -65.5 163t-157.5 48q-90 0 -161 -39 t-108.5 -94.5t-61.5 -126t-31 -121.5t-7 -92zM479 1172l41 192h192l-40 -192h-193zM897 1172l41 192h192l-40 -192h-193z" />
<glyph unicode="&#x4e8;" horiz-adv-x="1603" d="M250 541q0 231 124 444t323.5 342t412.5 129q240 0 390.5 -164t150.5 -415q0 -231 -124 -444.5t-322.5 -340.5t-411.5 -127q-236 0 -389.5 161t-153.5 415zM467 551q0 -215 108.5 -319.5t251.5 -104.5q180 0 340 140.5t238 389.5h-930q-8 -90 -8 -106zM510 821h928 q6 74 6 78q0 186 -102.5 292.5t-264.5 106.5q-178 0 -337.5 -127t-229.5 -350z" />
<glyph unicode="&#x4e9;" d="M150 373q0 236 184 428t414 192q168 0 274 -113.5t106 -285.5q0 -244 -185 -427t-411 -183q-170 0 -276 110.5t-106 278.5zM346 362q0 -119 64.5 -169t154.5 -50q29 0 57.5 4.5t75.5 22.5t85 51t76 97.5t59 152.5h-560q-12 -52 -12 -109zM387 592h551v53 q-6 94 -65.5 143.5t-155.5 49.5q-104 0 -193.5 -56.5t-136.5 -189.5z" />
<glyph unicode="&#x4ea;" horiz-adv-x="1603" d="M250 541q0 231 124 444t323.5 342t412.5 129q240 0 390.5 -164t150.5 -415q0 -231 -124 -444.5t-322.5 -340.5t-411.5 -127q-236 0 -389.5 161t-153.5 415zM467 551q0 -215 108.5 -319.5t251.5 -104.5q180 0 340 140.5t238 389.5h-930q-8 -90 -8 -106zM510 821h928 q6 74 6 78q0 186 -102.5 292.5t-264.5 106.5q-178 0 -337.5 -127t-229.5 -350zM839 1629l41 192h192l-40 -192h-193zM1257 1629l41 192h192l-40 -192h-193z" />
<glyph unicode="&#x4eb;" d="M150 373q0 236 184 428t414 192q168 0 274 -113.5t106 -285.5q0 -244 -185 -427t-411 -183q-170 0 -276 110.5t-106 278.5zM346 362q0 -119 64.5 -169t154.5 -50q29 0 57.5 4.5t75.5 22.5t85 51t76 97.5t59 152.5h-560q-12 -52 -12 -109zM387 592h551v53 q-6 94 -65.5 143.5t-155.5 49.5q-104 0 -193.5 -56.5t-136.5 -189.5zM479 1172l41 192h192l-40 -192h-193zM897 1172l41 192h192l-40 -192h-193z" />
<glyph unicode="&#x4ec;" horiz-adv-x="1374" d="M123 80l53 178q94 -74 165 -101.5t212 -27.5q205 0 372 150.5t230 349.5h-629l-96 2l35 162h725q2 20 2 63q0 193 -107.5 315.5t-279.5 122.5q-86 0 -165 -21.5t-113.5 -38.5t-108.5 -60l4 126l2 86q213 70 414 70q262 0 416.5 -166t154.5 -416q0 -225 -121 -435 t-328.5 -342t-441.5 -132q-135 0 -212 24.5t-183 90.5zM575 1629l41 192h192l-40 -192h-193zM993 1629l41 192h192l-40 -192h-193z" />
<glyph unicode="&#x4ed;" horiz-adv-x="956" d="M78 86l51 170q135 -113 311 -113q256 0 346 328h-485l25 121h477l2 16q-8 102 -53 164t-166 62q-100 0 -163 -19.5t-165 -77.5l4 168q111 53 179.5 70.5t168.5 17.5h6q182 0 281.5 -113.5t99.5 -279.5q0 -238 -179 -427t-410 -189q-183 0 -330 102zM420 1172l41 192h192 l-40 -192h-193zM838 1172l41 192h192l-40 -192h-193z" />
<glyph unicode="&#x4ee;" horiz-adv-x="1382" d="M332 0l35 164h143q84 0 126 15.5t77 58.5h-4l-377 1185h229l203 -647q80 -272 88 -342l37 76l178 297l381 616h205l-563 -909q-102 -166 -166 -254t-136.5 -152.5t-142.5 -86t-170 -21.5h-143zM641 1659l35 162h813l-35 -162h-813z" />
<glyph unicode="&#x4ef;" horiz-adv-x="937" d="M-6 -344l20 170q98 -31 166 -31q25 0 47.5 5t42 19.5t32.5 24t30.5 36t23.5 36.5t25.5 43t24.5 41l-168 967h196l74 -457l16 -141l6 -113l-2 -57q29 111 398 768h188l-584 -1035q-164 -291 -385 -290q-45 0 -151 14zM358 1237l35 164h752l-35 -164h-752z" />
<glyph unicode="&#x4f0;" horiz-adv-x="1382" d="M332 0l35 164h143q84 0 126 15.5t77 58.5h-4l-377 1185h229l203 -647q80 -272 88 -342l37 76l178 297l381 616h205l-563 -909q-102 -166 -166 -254t-136.5 -152.5t-142.5 -86t-170 -21.5h-143zM735 1629l41 192h192l-40 -192h-193zM1153 1629l41 192h192l-40 -192h-193z " />
<glyph unicode="&#x4f1;" horiz-adv-x="937" d="M-6 -344l20 170q98 -31 166 -31q25 0 47.5 5t42 19.5t32.5 24t30.5 36t23.5 36.5t25.5 43t24.5 41l-168 967h196l74 -457l16 -141l6 -113l-2 -57q29 111 398 768h188l-584 -1035q-164 -291 -385 -290q-45 0 -151 14zM415 1172l41 192h192l-40 -192h-193zM833 1172l41 192 h192l-40 -192h-193z" />
<glyph unicode="&#x4f2;" horiz-adv-x="1382" d="M332 0l35 164h143q84 0 126 15.5t77 58.5h-4l-377 1185h229l203 -647q80 -272 88 -342l37 76l178 297l381 616h205l-563 -909q-102 -166 -166 -254t-136.5 -152.5t-142.5 -86t-170 -21.5h-143zM645 1556l311 164l45 21l39 2h242q-403 -182 -424 -184q-8 -2 -18 -3h-195z M1004 1556l311 164l45 21l39 2h241q-403 -182 -423 -184q-8 -2 -19 -3h-194z" />
<glyph unicode="&#x4f3;" horiz-adv-x="937" d="M-6 -344l20 170q98 -31 166 -31q25 0 47.5 5t42 19.5t32.5 24t30.5 36t23.5 36.5t25.5 43t24.5 41l-168 967h196l74 -457l16 -141l6 -113l-2 -57q29 111 398 768h188l-584 -1035q-164 -291 -385 -290q-45 0 -151 14zM389 1102l322 266h198q-342 -250 -354 -256 q-18 -10 -39 -10h-127zM748 1102l321 266h199q-342 -250 -355 -256q-18 -10 -39 -10h-126z" />
<glyph unicode="&#x4f4;" horiz-adv-x="1441" d="M354 870q0 20 28 158.5t56 265.5l29 129h215q-113 -514 -113 -540q0 -43 40 -82t145 -39h469l141 661h213l-301 -1423h-215l129 604h-479q-172 0 -291 125q-66 65 -66 141zM760 1629l41 192h192l-40 -192h-193zM1178 1629l41 192h192l-40 -192h-193z" />
<glyph unicode="&#x4f5;" horiz-adv-x="1091" d="M264 592q0 12 78 375h186q-74 -350 -73.5 -368.5t10.5 -35.5q20 -25 39.5 -32t66.5 -7h308l92 443h188l-207 -967h-186l86 403h-313q-117 0 -196 65t-79 124zM487 1172l41 192h192l-40 -192h-193zM905 1172l41 192h192l-40 -192h-193z" />
<glyph unicode="&#x4f6;" horiz-adv-x="1161" d="M164 0l301 1421l2 2h905l-35 -163h-692l-233 -1102h166l-107 -500h-170l74 342h-211z" />
<glyph unicode="&#x4f7;" horiz-adv-x="854" d="M131 0l205 967h668l-33 -150h-469l-142 -663h160l-94 -439h-170l59 285h-184z" />
<glyph unicode="&#x4f8;" horiz-adv-x="1859" d="M168 0l301 1421l2 2h205l-127 -602h354q133 0 231.5 -33.5t148.5 -89t73.5 -112t23.5 -113.5q0 -172 -166.5 -308t-386.5 -161q-39 -4 -116 -4h-543zM408 164h231q10 0 30.5 -1t30.5 -1q221 0 348.5 88t127.5 190q0 82 -87.5 149.5t-275.5 67.5h-299zM968 1629l41 192 h192l-40 -192h-193zM1386 1629l41 192h192l-40 -192h-193zM1468 0l304 1423h213l-302 -1423h-215z" />
<glyph unicode="&#x4f9;" horiz-adv-x="1417" d="M135 0l205 967h188l-79 -375h223q172 0 252 -73t80 -161q0 -53 -32 -125.5t-85 -121.5q-121 -111 -352 -111h-400zM356 160h172q154 0 221.5 54t67.5 122q0 41 -42 85t-142 50h-211zM649 1172l41 192h192l-40 -192h-193zM1067 1172l41 192h192l-40 -192h-193zM1090 0 l204 967h189l-205 -967h-188z" />
<glyph unicode="&#x4fc;" horiz-adv-x="1382" d="M29 0l696 754l-365 669h256l254 -497l453 497h240l-621 -669l293 -535q33 -59 48 -89t32.5 -83t17.5 -98q0 -137 -124 -231.5t-312 -94.5q-92 0 -213 35l82 174q2 0 25.5 -12.5t37 -16.5t45 -10t66.5 -6q74 0 119 43t45 111v2q0 23 -21.5 71.5t-134.5 280.5 q-88 180 -147 303l-531 -598h-241z" />
<glyph unicode="&#x4fd;" horiz-adv-x="937" d="M0 0l485 500l-268 467h213l170 -322l297 322h209l-453 -465q229 -385 256 -453q16 -43 17 -76q0 -121 -91.5 -226t-261.5 -105q-57 0 -163 16l79 166q74 -25 117 -25q72 0 98.5 49.5t26.5 100.5q0 14 -2 25.5t-7 23.5t-19.5 41t-33 66.5t-52 112.5t-72.5 165h-2 l-334 -383h-209z" />
<glyph unicode="&#x4fe;" horiz-adv-x="1382" d="M29 0l641 692h-490l25 121h487l-332 610h256l254 -497l453 497h240l-564 -610h521l-27 -121h-518l375 -692h-254l-295 598l-531 -598h-241z" />
<glyph unicode="&#x4ff;" horiz-adv-x="937" d="M0 0l457 471h-316l25 121h266l-215 375h213l170 -322l297 322h209l-363 -375h281l-27 -121h-329l270 -471h-211l-182 383h-2l-334 -383h-209z" />
<glyph unicode="&#x2000;" />
<glyph unicode="&#x2001;" horiz-adv-x="2150" />
<glyph unicode="&#x2002;" />
<glyph unicode="&#x2003;" horiz-adv-x="2150" />
<glyph unicode="&#x2004;" horiz-adv-x="716" />
<glyph unicode="&#x2005;" horiz-adv-x="536" />
<glyph unicode="&#x2006;" horiz-adv-x="358" />
<glyph unicode="&#x2007;" />
<glyph unicode="&#x2008;" horiz-adv-x="598" />
<glyph unicode="&#x2009;" horiz-adv-x="430" />
<glyph unicode="&#x200a;" horiz-adv-x="59" />
<glyph unicode="&#x200b;" horiz-adv-x="0" />
<glyph unicode="&#x200c;" horiz-adv-x="0" />
<glyph unicode="&#x200d;" horiz-adv-x="0" />
<glyph unicode="&#x2010;" horiz-adv-x="716" d="M111 408l32 153h572l-31 -153h-573z" />
<glyph unicode="&#x2011;" horiz-adv-x="716" d="M111 408l32 153h572l-31 -153h-573z" />
<glyph unicode="&#x2012;" d="M111 520l32 156h1074l-31 -156h-1075z" />
<glyph unicode="&#x2013;" d="M111 520l32 156h1074l-31 -156h-1075z" />
<glyph unicode="&#x2014;" horiz-adv-x="2150" d="M111 520l32 156h2149l-31 -156h-2150z" />
<glyph unicode="&#x2016;" d="M276 -401l7 36l391 1840q14 59 53 59q20 0 34.5 -13.5t14.5 -35.5q0 -4 -65 -316l-328 -1544q-12 -59 -39 -74q-14 -4 -18 -4q-20 0 -35 14.5t-15 37.5zM526 -401l6 36l392 1840q14 59 53 59q20 0 34.5 -13.5t14.5 -35.5q0 -4 -65 -316l-328 -1544q-12 -59 -39 -74 q-14 -4 -16 -4h-3q-20 0 -34.5 14.5t-14.5 37.5z" />
<glyph unicode="&#x2018;" horiz-adv-x="598" d="M381 954l43 205l10 35l166 229h121l-121 -227h72l-51 -242h-240z" />
<glyph unicode="&#x2019;" horiz-adv-x="598" d="M381 955l121 227h-72l51 240h240l-43 -205l-10 -35l-166 -227h-121z" />
<glyph unicode="&#x201a;" horiz-adv-x="598" d="M129 -227l121 227h-72l51 240h240l-43 -205l-10 -35l-166 -227h-121z" />
<glyph unicode="&#x201b;" horiz-adv-x="598" d="M432 1184l53 239h240v-2l-55 -239h-74l20 -228h-120l-43 150l-15 45z" />
<glyph unicode="&#x201c;" horiz-adv-x="716" d="M213 954l43 205l10 35l166 229h121l-121 -227h72l-51 -242h-240zM666 954l43 205l10 35l166 229h121l-121 -227h72l-51 -242h-240z" />
<glyph unicode="&#x201d;" horiz-adv-x="716" d="M213 955l121 227h-72l51 240h240l-43 -205l-10 -35l-166 -227h-121zM666 955l121 227h-72l51 240h240l-43 -205l-10 -35l-166 -227h-121z" />
<glyph unicode="&#x201e;" horiz-adv-x="716" d="M-37 -227l121 227h-72l51 240h240l-43 -205l-10 -35l-166 -227h-121zM416 -227l121 227h-72l51 240h240l-43 -205l-10 -35l-166 -227h-121z" />
<glyph unicode="&#x201f;" horiz-adv-x="716" d="M264 1184l53 239h240v-2l-55 -239h-74l21 -228h-121l-43 150l-15 45zM717 1184l53 239h240l2 -2l-58 -239h-71l18 -228h-119z" />
<glyph unicode="&#x2020;" horiz-adv-x="956" d="M297 -377l178 842q37 168 90 284.5t72 180.5q-27 -4 -110 -33t-121 -29q-45 0 -64.5 23.5t-19.5 54.5q0 45 34.5 82t87.5 37q41 0 107.5 -26.5t101.5 -34.5q4 49 4 73q0 16 -3 71.5t-3 82.5q0 96 23 141q35 66 106 66q33 0 56.5 -19.5t23.5 -54.5q0 -49 -62.5 -189.5 t-70.5 -168.5q25 4 110 31.5t124 27.5q80 0 79 -76q0 -47 -34.5 -84t-87.5 -37q-39 0 -113 29t-96 33q-6 -37 -7 -113q0 -18 1.5 -59t1.5 -60q0 -80 -19 -176l-192 -899h-197z" />
<glyph unicode="&#x2021;" horiz-adv-x="956" d="M135 70q0 41 33 79.5t92 38.5q41 0 106.5 -25.5t100.5 -33.5q4 37 4 53q0 27 -4 84.5t-4 83.5q0 188 127 189q37 0 59.5 -20.5t22.5 -53.5q0 -49 -60.5 -176t-70.5 -160q39 8 113.5 33.5t117.5 25.5q45 0 64.5 -23.5t19.5 -51.5q0 -16 -5 -37t-35 -49.5t-81 -34.5 q-53 4 -115.5 29.5t-95.5 31.5l-2 -61q0 -27 3 -80t3 -80q0 -190 -127 -190q-37 0 -58 21.5t-21 55.5q0 33 22.5 89.5t58 129t50.5 115.5q-25 -6 -106 -31.5t-132 -29.5q-80 12 -80 78zM328 969q0 18 5 38.5t34.5 48t81.5 34.5q57 -4 116.5 -30t93.5 -32q2 20 3 62 q0 31 -7 159q0 84 21 125q35 63 106 64q80 0 80 -76q0 -45 -59.5 -171t-71.5 -163q25 6 106 31.5t132 30.5q78 -10 78 -78q0 -41 -33 -81t-90 -40q-41 0 -105.5 26.5t-101.5 34.5q-4 -37 -4 -55q0 -29 3 -84t3 -82q0 -117 -47 -160q-35 -31 -80 -30q-37 0 -58.5 20.5 t-21.5 56.5q0 45 59.5 171t71.5 163q-43 -8 -116.5 -33.5t-114.5 -25.5h-4q-35 0 -57.5 20.5t-22.5 55.5z" />
<glyph unicode="&#x2022;" d="M225 465q0 190 153.5 341.5t350.5 151.5q150 0 249 -95t99 -247q0 -190 -153.5 -341.5t-350.5 -151.5q-150 0 -249 95t-99 247z" />
<glyph unicode="&#x2026;" horiz-adv-x="1794" d="M178 0l51 240h240l-51 -240h-240zM776 0l51 240h240l-51 -240h-240zM1374 0l51 240h240l-51 -240h-240z" />
<glyph unicode="&#x2029;" horiz-adv-x="1015" d="M313 881q0 57 18.5 125.5t59.5 142.5t98.5 135.5t144.5 100t187 38.5h357q66 0 65 -49q0 -35 -29 -47q-12 -6 -55 -6h-102l-336 -1587q-14 -74 -57 -74q-18 0 -33 13.5t-17 31.5q-2 14 9 53l155 734q-109 6 -209 46t-178 130t-78 213z" />
<glyph unicode="&#x202f;" horiz-adv-x="371" />
<glyph unicode="&#x2030;" horiz-adv-x="2537" d="M344 1010q0 199 127 362.5t281 163.5q102 0 165.5 -83t63.5 -212q0 -201 -127 -365.5t-276 -164.5q-104 0 -169 84t-65 215zM365 -63.5q0 20.5 20 45.5l1276 1521q27 31 51 31q18 0 33.5 -13.5t15.5 -33.5q0 -16 -39 -68l-1259 -1501q-27 -31 -51 -31q-20 0 -33.5 14.5 t-13.5 35zM520 971q0 -57 27.5 -81t60.5 -24q70 0 131.5 119t61.5 242q0 154 -88 153q-72 0 -117 -84q-27 -51 -51.5 -161.5t-24.5 -163.5zM1139 184q0 201 128 364t279 163q102 0 166 -84t64 -213q0 -199 -126 -363t-278 -164q-104 0 -168.5 84t-64.5 213zM1315 145 q0 -55 27.5 -79.5t60.5 -24.5q74 0 133 120t59 240q0 66 -21.5 110t-64.5 44q-35 0 -67.5 -24.5t-50.5 -59.5q-23 -43 -49.5 -155t-26.5 -171zM1855 184q0 201 128 364t280 163q102 0 165.5 -84t63.5 -213q0 -199 -125.5 -363t-277.5 -164q-104 0 -169 84t-65 213zM2032 145 q0 -55 27.5 -79.5t60.5 -24.5q74 0 133 120t59 240q0 66 -21.5 110t-64.5 44q-35 0 -67.5 -24.5t-51.5 -59.5q-23 -43 -49 -155t-26 -171z" />
</font>
</defs>
</svg>
